<?xml version="1.0" encoding="utf-8"?>
<!-- Generator: Adobe Illustrator 22.1.0, SVG Export Plug-In . SVG Version: 6.00 Build 0)  -->
<svg version="1.1" id="Calque_1" xmlns="http://www.w3.org/2000/svg" xmlns:xlink="http://www.w3.org/1999/xlink" x="0px" y="0px"
	 viewBox="0 0 595.3 595.3" style="enable-background:new 0 0 595.3 595.3;" xml:space="preserve">
<style type="text/css">
	.st0{fill:#FFFFFF;}
</style>
<g>
	<path class="st0" d="M494.4,302.1c-2.7-5.8-8.1-9-13.8-11.8c2.6-2.8,5.2-5.5,7.7-8.3c0.7-1.3,1.4-2.5,2-3.8
		c2.2-6.4,2.9-12.8,1.3-19.4c-2.8-11.5-11.2-17.3-21.7-20.1c-6.2-1.7-12.7-2.6-19.2-2.8c-12.5-0.4-25-0.1-37.5-0.1c0,0,0,0,0,0
		c-0.3,1.3-0.8,68.2-0.9,100.3c0,1.4-0.4,2.8-0.5,4.2c-11.2-32.5-33.9-100.3-34.1-101.7c-0.3-0.7-0.5-1.4-0.8-2
		c-1.7-0.3-3.5-0.7-5.2-0.7c-9.9-0.1-19.9-0.1-29.8,0c-2.2,0-4.5,0.4-6.7,0.7c0,0.5-35.7,107.9-37.7,114.2c9.1,0,17.9,0.1,26.6-0.1
		c0.8,0,1.9-1.2,2.3-2.1c1.9-5.1,3.7-10.1,5.2-15.3c0.7-2.3,1.8-2.9,4.1-2.8c10.7,0.1,21.4,0.1,32.1,0.1c3.9,0,7.9,0,11.9,0
		c0.1,1.4,4.3,13.3,6.3,18.1c0.1,2.6,2,2.2,3.6,2.2c19.7,0,39.4-0.1,59.1-0.1c2.4,0,4.8-0.4,7.1-0.6c7.5-1.4,15.4-1.7,22.5-4.2
		C499.8,338,501.2,316.4,494.4,302.1z M341.7,304.9c4.8-14.1,9.5-28,14.6-43c5.1,15,9.9,28.8,14.7,43
		C361.1,304.9,351.6,304.9,341.7,304.9z M440,255.3c6.5-0.2,13-1.2,19.5,1.2c4.6,1.7,8.8,7.8,8,14.7c-0.6,5.3-3.6,8.5-9.9,9.1
		c-5.8,0.6-11.7,0.4-17.6,0.6c-0.2-6.1-0.4-12.1-0.5-18.2C439.5,260.2,439.8,257.8,440,255.3z M465.4,329.3
		c-8.3,2.8-16.9,2.8-25.6,3.1c0-9.9,0-19.5,0-29.6c9.6,0.1,19.2-0.8,27.9,4.4c4.5,2.7,5.9,7,5.5,12
		C472.7,324.2,470.1,327.7,465.4,329.3z"/>
	<polygon class="st0" points="126.7,333 126.7,333 126.5,333.1 	"/>
	<path class="st0" d="M399.9,211c0.8,0,1.7-0.1,2.5-0.1c0.7,0,1.4-0.1,2-0.1c0-4.4,0-8.7-0.2-13.1c0-0.8-0.8-1.5-1.2-2.3
		c-1.2-0.1-2.4-0.2-3.6-0.2c-63.1,0-126.2,0-189.3,0c-1.2,0-2.4,0.1-3.6,0.1c-0.2,0-0.5-0.1-0.7-0.1c0,5.2,0,10.5,0,15.9
		c1.3,0,2.2,0,3.2,0C272.7,211,336.3,211,399.9,211z"/>
	<path class="st0" d="M255.3,349.8c15.5-1.5,28.6-7.9,38.3-20.3c11.3-14.6,14.7-31.2,10.8-49.3c-0.7-3-3.1-11.5-3.8-12.7
		c-2.9-6.6-8.2-11.1-13.1-16.2c-5.3-5.5-11.9-8.5-18.7-11.5c-3.5-0.9-7-2.1-10.5-2.7c-2.4-0.4-9.3-1.3-10.3-1.3
		c-23.1-0.1-46.2-0.1-69.2,0c-0.8,0-1.5,0.9-2.3,1.3c-4.8,13.8-9.7,27.6-14.5,41.4c-4.2,12.1-8.4,24.3-12.8,37.1
		c-3.3-9.6-6.5-18.7-9.6-27.7c-5.6-16.3-11.3-32.6-16.8-48.9c-0.8-2.4-1.9-3.3-4.5-3.3c-8.1,0.2-16.1,0.1-24.7,0.1
		c1.3,3.8,2.4,7.4,3.7,11c9.6,27.9,19.2,55.7,28.7,83.6c0.3,0.9,0.5,1.8,0.8,2.7l0,0c2.1,5.8,4.2,11.6,6.3,17.5
		c10.3,0,20.5,0,30.6-0.1c0.6,0,1.2-0.9,1.8-1.5c0.2-0.2,0.3-0.4,0.3-0.6c2.8-8.1,5.6-16.2,8.4-24.3c4.1-11.8,8.2-23.7,12.3-35.5
		c4.8-13.9,9.6-27.9,14.4-41.8c0.5-1.6,1.3-3,2-4.5c0,35.3-0.1,70.5,0,105.8c0,0.8,0.5,1.6,0.8,2.4c0.5,0,1,0,1.5,0
		c14.7,0,29.3,0,44,0C251.3,350.2,253.3,350,255.3,349.8z M229.7,325.4c0-21.4,0-42.7,0-64.4c13.1-0.4,25.8-0.4,36.8,8.7
		c6.1,5,10.8,10.6,12.4,18.3c2.8,14.2-5.6,28.4-20.1,34.3C251.8,325.2,239.7,326.5,229.7,325.4z"/>
	<path class="st0" d="M403.8,375.8c-1.3-0.2-2.5-0.5-3.8-0.5c-64.7,0-129.3-0.1-194-0.1c0,5.4,0,10.7,0,16.5c1.4,0,2.7,0,4,0
		c63.5,0,127,0,190.6,0c1.3,0,2.6-0.2,3.9-0.3C404.3,386.2,404,381,403.8,375.8L403.8,375.8z"/>
</g>
</svg>
