<?xml version="1.0" encoding="UTF-8"?>
<svg width="35px" height="34px" viewBox="0 0 35 34" version="1.1" xmlns="http://www.w3.org/2000/svg" xmlns:xlink="http://www.w3.org/1999/xlink">
    <!-- Generator: Sketch 52.5 (67469) - http://www.bohemiancoding.com/sketch -->
    <title>Group 47</title>
    <desc>Created with Sketch.</desc>
    <defs>
        <path d="M12.5,20.592 C12.3134622,20.7280007 12.0843485,20.8299997 11.8126521,20.898 C11.5409557,20.9660003 11.2550704,21 10.9549878,21 C10.1763951,21 9.57421137,20.804002 9.14841849,20.412 C8.72262561,20.019998 8.50973236,19.4440038 8.50973236,18.684 L8.50973236,16.032 L7.5,16.032 L7.5,14.592 L8.50973236,14.592 L8.50973236,13.02 L10.4075426,13.02 L10.4075426,14.592 L12.0377129,14.592 L12.0377129,16.032 L10.4075426,16.032 L10.4075426,18.66 C10.4075426,18.9320014 10.478507,19.1419993 10.620438,19.29 C10.7623689,19.4380007 10.9630968,19.512 11.2226277,19.512 C11.5227103,19.512 11.7781822,19.4320008 11.9890511,19.272 L12.5,20.592 Z M20.0304136,12 L20.0304136,20.904 L18.2177616,20.904 L18.2177616,20.16 C17.7473618,20.7200028 17.0661034,21 16.1739659,21 C15.55758,21 15.0000025,20.8640014 14.5012165,20.592 C14.0024306,20.3199986 13.6111125,19.9320025 13.3272506,19.428 C13.0433887,18.9239975 12.9014599,18.3400033 12.9014599,17.676 C12.9014599,17.0119967 13.0433887,16.4280025 13.3272506,15.924 C13.6111125,15.4199975 14.0024306,15.0320014 14.5012165,14.76 C15.0000025,14.4879986 15.55758,14.352 16.1739659,14.352 C17.009331,14.352 17.6622036,14.6119974 18.1326034,15.132 L18.1326034,12 L20.0304136,12 Z M16.5024331,19.464 C16.9809432,19.464 17.3783439,19.3020016 17.6946472,18.978 C18.0109505,18.6539984 18.1690998,18.2200027 18.1690998,17.676 C18.1690998,17.1319973 18.0109505,16.6980016 17.6946472,16.374 C17.3783439,16.0499984 16.9809432,15.888 16.5024331,15.888 C16.0158127,15.888 15.6143568,16.0499984 15.2980535,16.374 C14.9817502,16.6980016 14.823601,17.1319973 14.823601,17.676 C14.823601,18.2200027 14.9817502,18.6539984 15.2980535,18.978 C15.6143568,19.3020016 16.0158127,19.464 16.5024331,19.464 Z M21.7822384,12 L23.6800487,12 L23.6800487,20.904 L21.7822384,20.904 L21.7822384,12 Z M25.2007299,12.504 L27.4635036,12.504 L27.0863747,17.988 L25.5778589,17.988 L25.2007299,12.504 Z M26.3321168,21 C25.9995928,21 25.7218178,20.8940011 25.4987835,20.682 C25.2757491,20.4699989 25.1642336,20.2120015 25.1642336,19.908 C25.1642336,19.6039985 25.2737215,19.350001 25.4927007,19.146 C25.7116799,18.941999 25.9914825,18.84 26.3321168,18.84 C26.6727511,18.84 26.9525536,18.941999 27.1715328,19.146 C27.390512,19.350001 27.5,19.6039985 27.5,19.908 C27.5,20.2120015 27.3884845,20.4699989 27.1654501,20.682 C26.9424158,20.8940011 26.6646408,21 26.3321168,21 Z" id="path-1"></path>
    </defs>
    <g id="Welcome" stroke="none" stroke-width="1" fill="none" fill-rule="evenodd">
        <g id="Mobile-Portrait-Copy-2" transform="translate(-24.000000, -21.000000)">
            <g id="Group-47" transform="translate(24.000000, 21.000000)">
                <circle id="Oval" fill="#010101" fill-rule="nonzero" cx="17.5" cy="17" r="17"></circle>
                <g id="tdl!">
                    <use fill="#FFFFFF" xlink:href="#path-1"></use>
                    <use fill="#FEFEFE" xlink:href="#path-1"></use>
                </g>
            </g>
        </g>
    </g>
</svg>