<?xml version="1.0" encoding="utf-8"?>
<!-- Generator: Adobe Illustrator 22.1.0, SVG Export Plug-In . SVG Version: 6.00 Build 0)  -->
<svg version="1.1" id="Calque_1" xmlns="http://www.w3.org/2000/svg" xmlns:xlink="http://www.w3.org/1999/xlink" x="0px" y="0px"
	 viewBox="0 0 512 512" style="enable-background:new 0 0 512 512;" xml:space="preserve">
<path d="M488,256h-12l-19.9-26.5l14-16.3c2.9-3.4,2.5-8.4-0.9-11.3c-1.1-1-2.5-1.6-3.9-1.8c-18.6-3.1-37.7,0.2-54.1,9.3
	c-7.9-10.4-20-16.7-33-17.4l13.1-28.7c1.8-4,0-8.8-4-10.6c-1-0.5-2.2-0.7-3.3-0.7h-40c-24,0-46.4,12-59.8,31.9
	C269.7,124.4,216,80,152,80c-4.4,0-8,3.6-8,8c0,0.7,0.1,1.3,0.2,1.9l12.6,50.3c-13.6-8.1-29-12.3-44.8-12.2c-4.4,0-8,3.6-8,8
	c0,0.4,0,0.8,0.1,1.1l6.3,44.2C95.6,167.6,76.2,160,56,160c-4.4,0-8,3.6-8,8c0,1,0.2,2,0.6,3l21.2,53H56c-4.4,0-8,3.6-8,8v16h-8
	c-4.4,0-8,3.6-8,8v32h-8c-4.4,0-8,3.6-8,8v32c0,4.4,3.6,8,8,8h464c4.4,0,8-3.6,8-8v-64C496,259.6,492.4,256,488,256L488,256z
	 M480,288h-56v-16h56V288z M435.3,256l11.8-11.8L456,256H435.3z M447.4,215.1l-25.7,30l-1.8-14.3c-0.3-2.4-0.8-4.7-1.5-7
	C427.3,218.7,437.2,215.7,447.4,215.1L447.4,215.1z M404,232.7l2.2,17.4l-15-7.5l-5.5-32.9C395.6,213.4,402.7,222.3,404,232.7z
	 M374.6,240h-18.1l13.3-29.2L374.6,240z M115.1,208.2l3.6,18.2l-3.2-1.6c-1.1-0.6-2.3-0.8-3.6-0.8H99.3L115.1,208.2z M181.8,240
	h-35.9l-4.4-2.2l31.8-31.8L181.8,240z M272,216v24h-43.1l43.1-25.9C272,214.8,272,215.4,272,216z M288,216l32,24h-32V216z M344,168
	h27.6l-30.7,67.6L293.4,200C302.7,180.5,322.4,168,344,168L344,168z M270.4,196.4l-72.2,43.3L162.4,96.4
	C216.9,101.3,261.4,142.4,270.4,196.4z M163.1,165.3l5.7,22.7l-34.5,34.5l-6.4-32l-6.5-45.8C137.2,146.6,151.9,153.9,163.1,165.3
	L163.1,165.3z M103.5,197.2l-19.5,19.5l-15.8-39.4C81.9,179.8,94.3,186.9,103.5,197.2L103.5,197.2z M110.1,240l30.3,15.2
	c1.1,0.6,2.3,0.8,3.6,0.8h238.1l25.9,12.9V288H112v-8c0-3-1.7-5.8-4.4-7.2L64,251.1V240H110.1z M48,264h6.1L96,284.9v3.1H48V264z
	 M480,320H32v-16h448V320z"/>
<path d="M48,352h80v16H48V352z"/>
<path d="M160,352h192v16H160V352z"/>
<path d="M384,352h72v16h-72V352z"/>
<path d="M88,384h112v16H88V384z"/>
<path d="M232,384h136v16H232V384z"/>
<path d="M168,416h120v16H168V416z"/>
<path d="M320,416h104v16H320V416z"/>
<path d="M64,416h48v16H64V416z"/>
</svg>
