<svg xmlns="http://www.w3.org/2000/svg" viewBox="0 0 469.3 469.3"><path d="M333.8 113.5H135.5c-12.1 0-22 9.9-22 22v198.3c0 12.1 9.9 22 22 22h198.3c12.1 0 22-9.9 22-22V135.5c.1-12.2-9.8-22-22-22zm11.1 220.3a10.97 10.97 0 0 1-11 11H135.5a10.97 10.97 0 0 1-11-11V168.6h220.4v165.2zm0-176.3H124.5v-22a10.97 10.97 0 0 1 11-11h198.3a10.97 10.97 0 0 1 11 11l.1 22z"/><circle cx="141" cy="141" r="5.5"/><circle cx="163" cy="141" r="5.5"/><circle cx="185.1" cy="141" r="5.5"/><path d="M152 234.7c3.4 0 6.8.3 10.1.8.3 0 .6.1.9.1 2.7 0 5-1.9 5.4-4.6.5-3-1.6-5.8-4.6-6.3-3.9-.6-7.9-.9-11.8-.9-3 0-5.5 2.5-5.5 5.5 0 2.9 2.5 5.4 5.5 5.4zm26.8 5.8c5.3 2.4 10.2 5.6 14.7 9.4 1 .9 2.3 1.3 3.6 1.3 1.6 0 3.1-.7 4.2-1.9 2-2.3 1.7-5.8-.6-7.8-5.2-4.4-11-8.1-17.2-11-2.8-1.3-6-.1-7.3 2.7s-.1 6 2.6 7.3zm34.2 38a5.46 5.46 0 0 0 5.2 3.7c.6 0 1.2-.1 1.8-.3 2.9-1 4.4-4.1 3.5-7-2.2-6.5-5.3-12.7-9.1-18.3-1.7-2.5-5.2-3.2-7.7-1.5s-3.2 5.1-1.5 7.7c3.3 4.9 6 10.1 7.8 15.7zm8.3 11.4c-3 .4-5.1 3.2-4.7 6.2l1.6 10.9c.4 2.7 2.7 4.7 5.5 4.7 2.7 0 5.1-2 5.5-4.7l1.6-10.9c.4-3-1.7-5.8-4.7-6.2-.8-.1-1.6-.1-2.3.2-.9-.2-1.7-.3-2.5-.2zm7.5-13c.7.3 1.4.4 2.2.4 2.1 0 4.2-1.3 5.1-3.4 2.9-6.9 7-13.1 12.1-18.6 2.1-2.2 1.9-5.7-.3-7.8s-5.7-1.9-7.8.3c-6 6.5-10.8 13.8-14.2 21.9-1.3 2.8.1 6 2.9 7.2zm34.7-34.3a5.42 5.42 0 0 0 2.5-.6c1.3-.7 2.7-1.1 4.1-1.7 4.3 9.7 13.9 16.5 25.2 16.5 15.2 0 27.5-12.4 27.5-27.5 0-15.2-12.4-27.5-27.5-27.5-15.2 0-27.5 12.4-27.5 27.5v.1c-2.3.9-4.6 1.7-6.8 2.8-2.7 1.4-3.8 4.7-2.4 7.4.9 1.9 2.9 3 4.9 3zm31.8-30a16.52 16.52 0 0 1 16.5 16.5 16.52 16.52 0 0 1-16.5 16.5 16.52 16.52 0 0 1-16.5-16.5 16.52 16.52 0 0 1 16.5-16.5z"/></svg>