<?xml version="1.0" encoding="utf-8"?>
<!-- Generator: Adobe Illustrator 22.1.0, SVG Export Plug-In . SVG Version: 6.00 Build 0)  -->
<svg version="1.1" id="Capa_1" xmlns="http://www.w3.org/2000/svg" xmlns:xlink="http://www.w3.org/1999/xlink" x="0px" y="0px"
	 viewBox="0 0 469.3 469.3" style="enable-background:new 0 0 469.3 469.3;" xml:space="preserve">
<g>
	<g>
		<g>
			<path d="M333.8,113.5H135.5c-12.1,0-22,9.9-22,22v198.3c0,12.1,9.9,22,22,22h198.3c12.1,0,22-9.9,22-22V135.5
				C355.9,123.3,346,113.5,333.8,113.5z M344.9,333.8c0,6.1-4.9,11-11,11H135.5c-6.1,0-11-4.9-11-11V168.6h220.4V333.8z
				 M344.9,157.5H124.5v-22c0-6.1,4.9-11,11-11h198.3c6.1,0,11,4.9,11,11L344.9,157.5L344.9,157.5z"/>
			<circle cx="141" cy="141" r="5.5"/>
			<circle cx="163" cy="141" r="5.5"/>
			<circle cx="185.1" cy="141" r="5.5"/>
			<path d="M152,234.7c3.4,0,6.8,0.3,10.1,0.8c0.3,0,0.6,0.1,0.9,0.1c2.7,0,5-1.9,5.4-4.6c0.5-3-1.6-5.8-4.6-6.3
				c-3.9-0.6-7.9-0.9-11.8-0.9c-3,0-5.5,2.5-5.5,5.5C146.5,232.2,149,234.7,152,234.7z"/>
			<path d="M178.8,240.5c5.3,2.4,10.2,5.6,14.7,9.4c1,0.9,2.3,1.3,3.6,1.3c1.6,0,3.1-0.7,4.2-1.9c2-2.3,1.7-5.8-0.6-7.8
				c-5.2-4.4-11-8.1-17.2-11c-2.8-1.3-6-0.1-7.3,2.7C174.9,236,176.1,239.2,178.8,240.5z"/>
			<path d="M213,278.5c0.8,2.3,2.9,3.7,5.2,3.7c0.6,0,1.2-0.1,1.8-0.3c2.9-1,4.4-4.1,3.5-7c-2.2-6.5-5.3-12.7-9.1-18.3
				c-1.7-2.5-5.2-3.2-7.7-1.5c-2.5,1.7-3.2,5.1-1.5,7.7C208.5,267.7,211.2,272.9,213,278.5z"/>
			<path d="M221.3,289.9c-3,0.4-5.1,3.2-4.7,6.2l1.6,10.9c0.4,2.7,2.7,4.7,5.5,4.7c2.7,0,5.1-2,5.5-4.7l1.6-10.9
				c0.4-3-1.7-5.8-4.7-6.2c-0.8-0.1-1.6-0.1-2.3,0.2C222.9,289.9,222.1,289.8,221.3,289.9z"/>
			<path d="M228.8,276.9c0.7,0.3,1.4,0.4,2.2,0.4c2.1,0,4.2-1.3,5.1-3.4c2.9-6.9,7-13.1,12.1-18.6c2.1-2.2,1.9-5.7-0.3-7.8
				c-2.2-2.1-5.7-1.9-7.8,0.3c-6,6.5-10.8,13.8-14.2,21.9C224.6,272.5,226,275.7,228.8,276.9z"/>
			<path d="M263.5,242.6c0.9,0,1.7-0.2,2.5-0.6c1.3-0.7,2.7-1.1,4.1-1.7c4.3,9.7,13.9,16.5,25.2,16.5c15.2,0,27.5-12.4,27.5-27.5
				c0-15.2-12.4-27.5-27.5-27.5c-15.2,0-27.5,12.4-27.5,27.5c0,0.1,0,0.1,0,0.1c-2.3,0.9-4.6,1.7-6.8,2.8c-2.7,1.4-3.8,4.7-2.4,7.4
				C259.5,241.5,261.5,242.6,263.5,242.6z M295.3,212.6c9.1,0,16.5,7.4,16.5,16.5s-7.4,16.5-16.5,16.5c-9.1,0-16.5-7.4-16.5-16.5
				S286.2,212.6,295.3,212.6z"/>
		</g>
	</g>
</g>
</svg>
