<svg xmlns="http://www.w3.org/2000/svg" viewBox="0 0 512 512"><path d="M388.8 334.8h-48.6c-3 0-5.4 2.4-5.4 5.4v18.9h-46.4c-34.3 0-65.7-12.9-89.6-34.1l55.6-22.3c.7-.3 1.3-.7 1.8-1.2l131.7-131.7c8.4-8.4 8.4-22.1 0-30.5L372.6 124c-8.4-8.4-22.1-8.4-30.5 0L210.4 255.7c-.5.5-.9 1.1-1.2 1.8l-22.1 55.7c-21-23.8-34.2-55-34.2-89.1v-47h18.9c3 0 5.4-2.4 5.4-5.4v-48.6c0-3-2.4-5.4-5.4-5.4h-48.6c-3 0-5.4 2.4-5.4 5.4v48.6c0 3 2.4 5.4 5.4 5.4h18.9v157.7H134c-8.9 0-16.2 7.3-16.2 16.2v27c0 8.9 7.3 16.2 16.2 16.2h27c8.9 0 16.2-7.3 16.2-16.2v-8.1h157.7v18.9c0 3 2.4 5.4 5.4 5.4h48.6c3 0 5.4-2.4 5.4-5.4v-48.6c-.1-2.9-2.5-5.4-5.5-5.4zm-136.4-44.7L241 278.7l89.7-89.7 11.5 11.5-89.8 89.6zM365 131.7l15.3 15.3c4.2 4.2 4.2 11.1 0 15.3l-30.5-30.5c4.1-4.3 11-4.3 15.2-.1zm-38.2 22.9c1 1 2.4 1.6 3.8 1.6s2.8-.6 3.8-1.6c2.1-2.1 2.1-5.5 0-7.6l7.6-7.6 30.5 30.5-7.6 7.6c-1-1-2.4-1.6-3.8-1.6s-2.8.6-3.8 1.6c-2.1 2.1-2.1 5.5 0 7.6l-7.6 7.6-30.5-30.5 7.6-7.6zm-15.3 15.3l11.5 11.5-89.7 89.6-11.5-11.5 89.7-89.6zm-95.3 99.3l26.7 26.7-15.8 6.8-17.3-17.2 6.4-16.3zm-10.7 27.2l10.7 10.6-17.6 6.6 6.9-17.2zm-76.9-130v-37.8h37.8v37.8h-37.8zM166.4 378c0 3-2.4 5.4-5.4 5.4h-27c-3 0-5.4-2.4-5.4-5.4v-27c0-3 2.4-5.4 5.4-5.4h27c3 0 5.4 2.4 5.4 5.4v27zm10.8-18.9V351c0-8.9-7.3-16.2-16.2-16.2h-8.1V278c7.2 18.2 18.2 34.9 32.4 49.2 13.9 13.9 30.2 24.7 47.8 31.9h-55.9zm206.2 24.3h-37.8v-37.8h37.8v37.8zm-33.7-221.1c-1-1-2.4-1.6-3.8-1.6s-2.8.6-3.8 1.6-1.6 2.4-1.6 3.8.6 2.8 1.6 3.8 2.4 1.6 3.8 1.6 2.8-.6 3.8-1.6 1.6-2.4 1.6-3.8-.6-2.8-1.6-3.8z"/></svg>