<?xml version="1.0" encoding="utf-8"?>
<!-- Generator: Adobe Illustrator 22.1.0, SVG Export Plug-In . SVG Version: 6.00 Build 0)  -->
<svg version="1.1" id="Layer_1" xmlns="http://www.w3.org/2000/svg" xmlns:xlink="http://www.w3.org/1999/xlink" x="0px" y="0px"
	 viewBox="0 0 512 512" style="enable-background:new 0 0 512 512;" xml:space="preserve">
<g>
	<path d="M388.8,334.8h-48.6c-3,0-5.4,2.4-5.4,5.4v18.9h-46.4c-34.3,0-65.7-12.9-89.6-34.1c0,0,55.4-22.2,55.6-22.3
		c0.7-0.3,1.3-0.7,1.8-1.2l131.7-131.7c8.4-8.4,8.4-22.1,0-30.5l-15.3-15.3c-8.4-8.4-22.1-8.4-30.5,0c0,0-131.6,131.6-131.7,131.7
		c-0.5,0.5-0.9,1.1-1.2,1.8l-22.1,55.7c-21-23.8-34.2-55-34.2-89.1c0-0.8,0-47,0-47h18.9c3,0,5.4-2.4,5.4-5.4v-48.6
		c0-3-2.4-5.4-5.4-5.4h-48.6c-3,0-5.4,2.4-5.4,5.4v48.6c0,3,2.4,5.4,5.4,5.4h18.9v157.7H134c-8.9,0-16.2,7.3-16.2,16.2v27
		c0,8.9,7.3,16.2,16.2,16.2h27c8.9,0,16.2-7.3,16.2-16.2v-8.1h157.7v18.9c0,3,2.4,5.4,5.4,5.4h48.6c3,0,5.4-2.4,5.4-5.4v-48.6
		C394.2,337.3,391.8,334.8,388.8,334.8z M252.4,290.1L241,278.7l89.7-89.7l11.5,11.5L252.4,290.1z M365,131.7l15.3,15.3
		c4.2,4.2,4.2,11.1,0,15.3l-30.5-30.5C353.9,127.5,360.8,127.5,365,131.7z M326.8,154.6c1,1,2.4,1.6,3.8,1.6s2.8-0.6,3.8-1.6
		c2.1-2.1,2.1-5.5,0-7.6l7.6-7.6l30.5,30.5l-7.6,7.6c-1-1-2.4-1.6-3.8-1.6c-1.4,0-2.8,0.6-3.8,1.6c-2.1,2.1-2.1,5.5,0,7.6l0,0
		l-7.6,7.6l-30.5-30.5L326.8,154.6z M311.5,169.9l11.5,11.5L233.3,271l-11.5-11.5L311.5,169.9z M216.2,269.2l26.7,26.7l-15.8,6.8
		l-17.3-17.2L216.2,269.2z M205.5,296.4l10.7,10.6l-17.6,6.6L205.5,296.4z M128.6,166.4v-37.8h37.8v37.8H128.6z M166.4,378
		c0,3-2.4,5.4-5.4,5.4h-27c-3,0-5.4-2.4-5.4-5.4v-27c0-3,2.4-5.4,5.4-5.4h27c3,0,5.4,2.4,5.4,5.4V378z M177.2,359.1V351
		c0-8.9-7.3-16.2-16.2-16.2h-8.1v-56.8c7.2,18.2,18.2,34.9,32.4,49.2c13.9,13.9,30.2,24.7,47.8,31.9H177.2z M383.4,383.4h-37.8
		v-37.8h37.8V383.4z"/>
	<path d="M349.7,162.3c-1-1-2.4-1.6-3.8-1.6s-2.8,0.6-3.8,1.6c-1,1-1.6,2.4-1.6,3.8c0,1.4,0.6,2.8,1.6,3.8c1,1,2.4,1.6,3.8,1.6
		s2.8-0.6,3.8-1.6c1-1,1.6-2.4,1.6-3.8C351.3,164.7,350.7,163.3,349.7,162.3z"/>
</g>
</svg>
