<?xml version="1.0" encoding="utf-8"?>
<!-- Generator: Adobe Illustrator 22.1.0, SVG Export Plug-In . SVG Version: 6.00 Build 0)  -->
<svg version="1.1" id="Calque_1" xmlns="http://www.w3.org/2000/svg" xmlns:xlink="http://www.w3.org/1999/xlink" x="0px" y="0px"
	 viewBox="0 0 512 512" style="enable-background:new 0 0 512 512;" xml:space="preserve">
<style type="text/css">
	.st0{fill:none;}
</style>
<path d="M177.7,169.3C177.7,169.3,177.7,169.3,177.7,169.3L177.7,169.3z"/>
<path d="M163,234.9h80.4c2.8,0,5.1-2.3,5.1-5.1s-2.3-5.1-5.1-5.1H163c-2.8,0-5.1,2.3-5.1,5.1S160.2,234.9,163,234.9z"/>
<path d="M248.5,253.9c0-2.8-2.3-5.1-5.1-5.1H163c-2.8,0-5.1,2.3-5.1,5.1c0,2.8,2.3,5.1,5.1,5.1h80.4
	C246.2,259,248.5,256.7,248.5,253.9z"/>
<path d="M236.4,277.9c0-2.8-2.3-5.1-5.1-5.1h-56.2c-2.8,0-5.1,2.3-5.1,5.1s2.3,5.1,5.1,5.1h56.2C234.1,283,236.4,280.7,236.4,277.9z
	"/>
<path d="M248.5,120.8c0-0.4,0-0.8-0.1-1.2c0-0.3,0.1-0.5,0.1-0.8c0-2.8-2.3-5.1-5.1-5.1c0,0,0,0,0,0l0,0h0H163
	c-2.8,0-5.1,2.3-5.1,5.1c0,0.3,0,0.6,0.1,0.8c0,0.4-0.1,0.8-0.1,1.2v78.2c0,0.9,0.1,1.7,0.3,2.5c-0.2,0.6-0.3,1.2-0.3,1.8
	c0,2.8,2.3,5.1,5.1,5.1h80.4c2.8,0,5.1-2.3,5.1-5.1c0-0.6-0.1-1.2-0.3-1.8c0.2-0.8,0.3-1.6,0.3-2.5V120.8z M168.1,123.9h70.2v74.2
	h-70.2V123.9z"/>
<g>
	<path class="st0" d="M249.3,376.8v36.9c25.8-18.7,41.5-30.1,51-36.9H249.3z"/>
	<path class="st0" d="M196.3,323.8v36.9c16.2-11.7,34-24.6,51-36.9H196.3z"/>
	<path d="M379.1,217.1v-16.4c0-6.9-5.6-12.5-12.5-12.5h-40.4v-40.4c0-6.9-5.6-12.5-12.5-12.5h-40.4V94.8c0-6.9-5.6-12.5-12.5-12.5
		h-115c-6.9,0-12.5,5.6-12.5,12.5v216.6c0,6.9,5.6,12.5,12.5,12.5h40.4v40.4c0,3.2,1.2,6.1,3.2,8.3c0.1,0.1,0.2,0.2,0.3,0.3
		c2.3,2.4,5.5,3.9,9,3.9h40.4v40.4c0,3.2,1.2,6.1,3.2,8.3c0.1,0.1,0.2,0.2,0.3,0.3c2.3,2.4,5.5,3.9,9,3.9h115
		c6.9,0,12.5-5.6,12.5-12.5L379.1,217.1L379.1,217.1z M145.7,313.7c-1.3,0-2.3-1-2.3-2.3V94.8c0-1.3,1-2.3,2.3-2.3h115
		c1.3,0,2.3,1,2.3,2.3v104.5v14.8v10.2v80.9v6.2c0,1.3-1,2.3-2.3,2.3H145.7z M196.3,360.8v-36.9h51
		C230.3,336.2,212.5,349.1,196.3,360.8z M273.2,145.4h40.4c1.3,0,2.3,1,2.3,2.3v216.6c0,1.3-1,2.3-2.3,2.3h-108
		c9.8-7.1,46.3-30,61.2-39.3c3.9-2.5,6.3-6.8,6.3-11.4v-10.7V289v-10.2v-17.7v-10.2v-17.7V223v-23.8v-41 M249.3,413.7v-36.9h51
		C290.8,383.7,275.1,395,249.3,413.7z M368.9,417.2c0,1.3-1,2.3-2.3,2.3h-108c6.5-4.7,61.9-44.8,62.5-45.2c3.1-2.3,5.1-5.9,5.1-10
		V198.3h40.4c1.3,0,2.3,1,2.3,2.3v66.7h0V417.2z"/>
</g>
</svg>
