<svg xmlns="http://www.w3.org/2000/svg" viewBox="0 0 512 512"><path d="M177.7 169.3zM163 234.9h80.4c2.8 0 5.1-2.3 5.1-5.1s-2.3-5.1-5.1-5.1H163c-2.8 0-5.1 2.3-5.1 5.1s2.3 5.1 5.1 5.1zm85.5 19c0-2.8-2.3-5.1-5.1-5.1H163c-2.8 0-5.1 2.3-5.1 5.1s2.3 5.1 5.1 5.1h80.4c2.8 0 5.1-2.3 5.1-5.1zm-12.1 24c0-2.8-2.3-5.1-5.1-5.1h-56.2c-2.8 0-5.1 2.3-5.1 5.1s2.3 5.1 5.1 5.1h56.2c2.8 0 5.1-2.3 5.1-5.1zm12.1-157.1c0-.4 0-.8-.1-1.2 0-.3.1-.5.1-.8 0-2.8-2.3-5.1-5.1-5.1H163c-2.8 0-5.1 2.3-5.1 5.1 0 .3 0 .6.1.8 0 .4-.1.8-.1 1.2V199c0 .9.1 1.7.3 2.5-.2.6-.3 1.2-.3 1.8 0 2.8 2.3 5.1 5.1 5.1h80.4c2.8 0 5.1-2.3 5.1-5.1 0-.6-.1-1.2-.3-1.8.2-.8.3-1.6.3-2.5v-78.2zm-80.4 3.1h70.2v74.2h-70.2v-74.2zm211 93.2v-16.4c0-6.9-5.6-12.5-12.5-12.5h-40.4v-40.4c0-6.9-5.6-12.5-12.5-12.5h-40.4V94.8c0-6.9-5.6-12.5-12.5-12.5h-115c-6.9 0-12.5 5.6-12.5 12.5v216.6c0 6.9 5.6 12.5 12.5 12.5h40.4v40.4c0 3.2 1.2 6.1 3.2 8.3l.3.3c2.3 2.4 5.5 3.9 9 3.9h40.4v40.4c0 3.2 1.2 6.1 3.2 8.3l.3.3c2.3 2.4 5.5 3.9 9 3.9h115c6.9 0 12.5-5.6 12.5-12.5V217.1zm-233.4 96.6a2.26 2.26 0 0 1-2.3-2.3V94.8a2.26 2.26 0 0 1 2.3-2.3h115a2.26 2.26 0 0 1 2.3 2.3v216.6a2.26 2.26 0 0 1-2.3 2.3h-115zm50.6 47.1v-36.9h51l-51 36.9zm76.9-215.4h40.4a2.26 2.26 0 0 1 2.3 2.3v216.6a2.26 2.26 0 0 1-2.3 2.3h-108c9.8-7.1 46.3-30 61.2-39.3 3.9-2.5 6.3-6.8 6.3-11.4V158.2m-23.8 255.5v-36.9h51l-51 36.9zm119.6 3.5a2.26 2.26 0 0 1-2.3 2.3h-108l62.5-45.2c3.1-2.3 5.1-5.9 5.1-10v-166h40.4a2.26 2.26 0 0 1 2.3 2.3v216.6z"/></svg>