<?xml version="1.0" encoding="utf-8"?>
<!-- Generator: Adobe Illustrator 22.1.0, SVG Export Plug-In . SVG Version: 6.00 Build 0)  -->
<svg version="1.1" id="Calque_1" xmlns="http://www.w3.org/2000/svg" xmlns:xlink="http://www.w3.org/1999/xlink" x="0px" y="0px"
	 viewBox="0 0 56.7 56.7" style="enable-background:new 0 0 56.7 56.7;" xml:space="preserve">
<title>heart (1)</title>
<desc>Created with Sketch.</desc>
<g id="Welcome">
	<g id="Desktop-HD-Copy-48" transform="translate(-1015.000000, -147.000000)">
		<g id="heart-_x28_1_x29_" transform="translate(1015.000000, 147.000000)">
			<path id="Shape" d="M40.2,18.5c-1.5-1.5-3.4-2.3-5.5-2.3c-2.1,0-4.1,0.8-5.6,2.3l-0.8,0.8l-0.8-0.8c-1.5-1.5-3.5-2.3-5.6-2.3
				c-2.1,0-4.1,0.8-5.5,2.3c-1.5,1.5-2.3,3.4-2.3,5.5c0,2.1,0.8,4,2.3,5.4l11.3,11.1c0.2,0.2,0.4,0.2,0.6,0.2s0.4-0.1,0.6-0.2
				l11.3-11.1c1.5-1.5,2.3-3.4,2.3-5.5C42.5,21.9,41.7,19.9,40.2,18.5z M39.1,28.2L28.3,38.7L17.6,28.2c-1.2-1.2-1.8-2.7-1.8-4.3
				s0.6-3.2,1.8-4.3c1.2-1.2,2.7-1.8,4.4-1.8c1.7,0,3.2,0.6,4.4,1.8l1.4,1.3c0.3,0.3,0.8,0.3,1.1,0l1.3-1.3c1.2-1.2,2.7-1.8,4.4-1.8
				c1.7,0,3.2,0.6,4.4,1.8c1.2,1.2,1.8,2.7,1.8,4.3C40.9,25.5,40.3,27.1,39.1,28.2z"/>
		</g>
	</g>
</g>
</svg>
