<svg height="512" viewBox="0 0 64 64" width="512" xmlns="http://www.w3.org/2000/svg"><path d="m59 2h-48a3 3 0 0 0 -3 3v3h-3a3 3 0 0 0 -3 3v48a3 3 0 0 0 3 3h48a3 3 0 0 0 3-3v-3h3a3 3 0 0 0 3-3v-48a3 3 0 0 0 -3-3zm-49 3a1 1 0 0 1 1-1h48a1 1 0 0 1 1 1v4h-4.78a2.985 2.985 0 0 0 -2.22-1h-43zm-5 5h48a1 1 0 0 1 1 1v5h-50v-5a1 1 0 0 1 1-1zm48 50h-48a1 1 0 0 1 -1-1v-41h50v41a1 1 0 0 1 -1 1zm6-6h-3v-43h4v42a1 1 0 0 1 -1 1z"/><path d="m47 24h-36a3 3 0 0 0 -3 3v24a3 3 0 0 0 3 3h36a3 3 0 0 0 3-3v-24a3 3 0 0 0 -3-3zm-36 2h36a1 1 0 0 1 1 1v22.628l-11.161-17.173a1.04 1.04 0 0 0 -1.678 0l-6.161 9.479-6.161-9.479a1.04 1.04 0 0 0 -1.678 0l-11.161 17.173v-22.628a1 1 0 0 1 1-1zm-.137 25.972 11.137-17.137 11.157 17.165h-22.157a.875.875 0 0 1 -.137-.028zm24.68.028-5.35-8.23 5.807-8.935 11.137 17.137a.875.875 0 0 1 -.137.028z"/><path d="m29 36a4 4 0 1 0 -4-4 4 4 0 0 0 4 4zm0-6a2 2 0 1 1 -2 2 2 2 0 0 1 2-2z"/><path d="m6 12h2v2h-2z"/><path d="m10 12h2v2h-2z"/><path d="m14 12h2v2h-2z"/><path d="m46 12h2v2h-2z"/></svg>