<svg xmlns="http://www.w3.org/2000/svg" viewBox="0 0 56.7 56.7" fill="#231f20"><path d="M28.3 11.5c-6 0-10.9 4.9-10.9 11 0 3.2 1.4 6.2 3.7 8.2 1.7 1.7 1.6 5.4 1.5 5.5 0 .2 0 .4.2.5.1.1.3.2.5.2h10c.2 0 .4-.1.5-.2s.2-.3.2-.5c0 0-.2-3.7 1.5-5.5l.1-.1c2.3-2.1 3.6-5.1 3.6-8.1 0-6.1-4.9-11-10.9-11zm6.3 18.2s-.1.1-.1.2c-1.5 1.7-1.8 4.4-1.8 5.7H24c0-1.3-.3-4.1-2-5.8-2.1-1.8-3.3-4.5-3.3-7.3 0-5.3 4.3-9.6 9.6-9.6s9.6 4.3 9.6 9.6c0 2.7-1.2 5.3-3.3 7.2zm-6.8-15.8a.68.68 0 0 0-.7.7.68.68 0 0 0 .7.7 7.6 7.6 0 0 1 7.6 7.6.7.7 0 1 0 1.4 0c.1-5-4-9-9-9zm4.9 24.2H24c-.9 0-1.7.8-1.7 1.8s.8 1.8 1.7 1.8h8.7c.9 0 1.7-.8 1.7-1.8s-.8-1.8-1.7-1.8zm0 2.1H24c-.2 0-.3-.1-.3-.3s.1-.3.3-.3h8.7c.2 0 .3.1.3.3s-.1.3-.3.3z"/><path d="M31.5 41.7h-6.3c-.9 0-1.7.8-1.7 1.8s.8 1.8 1.7 1.8h6.3c.9 0 1.7-.8 1.7-1.8s-.8-1.8-1.7-1.8zm0 2.1h-6.3c-.2 0-.3-.1-.3-.3s.1-.3.3-.3h6.3c.2 0 .3.1.3.3s-.1.3-.3.3zM29 7.8c.4 0 .6-.3.6-.7V2.5c0-.4-.3-.7-.6-.7s-.6.3-.6.7v4.7c-.1.3.2.6.6.6zm11.2-2.3c-.3-.2-.7-.1-.9.1l-2.4 3.6c-.2.3-.1.7.1.9.1.1.2.1.3.1a.55.55 0 0 0 .5-.3l2.4-3.6c.3-.2.3-.6 0-.8zm-19.7 4.8c.1 0 .2 0 .3-.1.3-.2.4-.6.2-.9l-2.3-3.6c-.2-.3-.6-.4-.9-.2s-.4.6-.2.9l2.3 3.6c.1.2.3.3.6.3zM14.7 15l-3.6-2.3c-.3-.2-.7 0-.8.3-.2.3-.1.8.3.9l3.6 2.3c.1 0 .2.1.3.1.2 0 .4-.1.5-.4s0-.7-.3-.9zm31.7-2c-.1-.3-.5-.5-.8-.3L42 15c-.3.2-.4.6-.3.9.1.2.3.4.5.4.1 0 .2 0 .3-.1l3.6-2.3c.4-.1.5-.5.3-.9z"/></svg>