<?xml version="1.0" encoding="utf-8"?>
<!-- Generator: Adobe Illustrator 22.1.0, SVG Export Plug-In . SVG Version: 6.00 Build 0)  -->
<svg version="1.1" id="Calque_1" xmlns="http://www.w3.org/2000/svg" xmlns:xlink="http://www.w3.org/1999/xlink" x="0px" y="0px"
	 viewBox="0 0 56.7 56.7" style="enable-background:new 0 0 56.7 56.7;" xml:space="preserve">
<style type="text/css">
	.st0{fill:#231F20;}
</style>
<title>lightbulb</title>
<desc>Created with Sketch.</desc>
<g id="Welcome">
	<g id="Desktop-HD-Copy-48" transform="translate(-874.000000, -135.000000)">
		<g id="lightbulb" transform="translate(874.000000, 135.000000)">
			<path id="Shape" class="st0" d="M28.3,11.5c-6,0-10.9,4.9-10.9,11c0,3.2,1.4,6.2,3.7,8.2c1.7,1.7,1.6,5.4,1.5,5.5
				c0,0.2,0,0.4,0.2,0.5c0.1,0.1,0.3,0.2,0.5,0.2h10c0.2,0,0.4-0.1,0.5-0.2c0.1-0.1,0.2-0.3,0.2-0.5c0,0-0.2-3.7,1.5-5.5
				c0,0,0.1-0.1,0.1-0.1c2.3-2.1,3.6-5.1,3.6-8.1C39.2,16.4,34.3,11.5,28.3,11.5z M34.6,29.7c0,0-0.1,0.1-0.1,0.2
				c-1.5,1.7-1.8,4.4-1.8,5.7H24c0-1.3-0.3-4.1-2-5.8c-2.1-1.8-3.3-4.5-3.3-7.3c0-5.3,4.3-9.6,9.6-9.6s9.6,4.3,9.6,9.6
				C37.9,25.2,36.7,27.8,34.6,29.7z"/>
			<path id="Path" class="st0" d="M27.8,13.9c-0.4,0-0.7,0.3-0.7,0.7c0,0.4,0.3,0.7,0.7,0.7c4.2,0,7.6,3.4,7.6,7.6
				c0,0.4,0.3,0.7,0.7,0.7c0.4,0,0.7-0.3,0.7-0.7C36.9,17.9,32.8,13.9,27.8,13.9z"/>
			<path id="Shape_1_" class="st0" d="M32.7,38.1H24c-0.9,0-1.7,0.8-1.7,1.8c0,1,0.8,1.8,1.7,1.8h8.7c0.9,0,1.7-0.8,1.7-1.8
				C34.4,38.9,33.6,38.1,32.7,38.1z M32.7,40.2H24c-0.2,0-0.3-0.1-0.3-0.3c0-0.2,0.1-0.3,0.3-0.3h8.7c0.2,0,0.3,0.1,0.3,0.3
				C33,40.1,32.9,40.2,32.7,40.2z"/>
			<path id="Shape_2_" class="st0" d="M31.5,41.7h-6.3c-0.9,0-1.7,0.8-1.7,1.8s0.8,1.8,1.7,1.8h6.3c0.9,0,1.7-0.8,1.7-1.8
				C33.2,42.5,32.4,41.7,31.5,41.7z M31.5,43.8h-6.3c-0.2,0-0.3-0.1-0.3-0.3c0-0.2,0.1-0.3,0.3-0.3h6.3c0.2,0,0.3,0.1,0.3,0.3
				C31.8,43.7,31.7,43.8,31.5,43.8z"/>
			<path id="Path_1_" class="st0" d="M29,7.8c0.4,0,0.6-0.3,0.6-0.7V2.5c0-0.4-0.3-0.7-0.6-0.7c-0.3,0-0.6,0.3-0.6,0.7v4.7
				C28.3,7.5,28.6,7.8,29,7.8z"/>
			<path id="Path_2_" class="st0" d="M40.2,5.5c-0.3-0.2-0.7-0.1-0.9,0.1l-2.4,3.6c-0.2,0.3-0.1,0.7,0.1,0.9
				c0.1,0.1,0.2,0.1,0.3,0.1c0.2,0,0.4-0.1,0.5-0.3l2.4-3.6C40.5,6.1,40.5,5.7,40.2,5.5z"/>
			<path id="Path_3_" class="st0" d="M20.5,10.3c0.1,0,0.2,0,0.3-0.1c0.3-0.2,0.4-0.6,0.2-0.9l-2.3-3.6c-0.2-0.3-0.6-0.4-0.9-0.2
				c-0.3,0.2-0.4,0.6-0.2,0.9l2.3,3.6C20,10.2,20.2,10.3,20.5,10.3z"/>
			<path id="Path_4_" class="st0" d="M14.7,15l-3.6-2.3c-0.3-0.2-0.7,0-0.8,0.3c-0.2,0.3-0.1,0.8,0.3,0.9l3.6,2.3
				c0.1,0,0.2,0.1,0.3,0.1c0.2,0,0.4-0.1,0.5-0.4C15.1,15.6,15,15.2,14.7,15z"/>
			<path id="Path_5_" class="st0" d="M46.4,13c-0.1-0.3-0.5-0.5-0.8-0.3L42,15c-0.3,0.2-0.4,0.6-0.3,0.9c0.1,0.2,0.3,0.4,0.5,0.4
				c0.1,0,0.2,0,0.3-0.1l3.6-2.3C46.5,13.8,46.6,13.4,46.4,13z"/>
		</g>
	</g>
</g>
</svg>
