<?xml version="1.0" encoding="utf-8"?>
<!-- Generator: Adobe Illustrator 22.1.0, SVG Export Plug-In . SVG Version: 6.00 Build 0)  -->
<svg version="1.1" id="Capa_1" xmlns="http://www.w3.org/2000/svg" xmlns:xlink="http://www.w3.org/1999/xlink" x="0px" y="0px"
	 viewBox="0 0 473.8 473.8" style="enable-background:new 0 0 473.8 473.8;" xml:space="preserve">
<g>
	<path d="M356,168.5c0-1-0.2-2-0.7-2.9c-0.9-1.9-2.6-3.1-4.4-3.5l-111.3-54c-1.8-0.9-3.9-0.9-5.7,0l-112.4,54.5
		c-2.2,1-3.6,3.2-3.7,5.7v0.1c0,0.1,0,0.1,0,0.2v136.8c0,2.5,1.4,4.8,3.7,5.9l112.4,54.5c0.1,0,0.1,0,0.1,0.1
		c0.2,0.1,0.3,0.1,0.5,0.2c0.1,0,0.1,0.1,0.2,0.1c0.2,0.1,0.3,0.1,0.5,0.2c0.1,0,0.1,0.1,0.2,0.1c0.2,0.1,0.4,0.1,0.5,0.1
		c0.1,0,0.1,0,0.2,0c0.2,0,0.5,0.1,0.7,0.1s0.5,0,0.7-0.1c0.1,0,0.1,0,0.2,0c0.2,0,0.4-0.1,0.5-0.1c0.1,0,0.1-0.1,0.2-0.1
		c0.2-0.1,0.3-0.1,0.5-0.2c0.1,0,0.1-0.1,0.2-0.1c0.2-0.1,0.3-0.1,0.5-0.2c0.1,0,0.1,0,0.1-0.1L352.4,311c2.2-1.1,3.7-3.4,3.7-5.9
		V168.6C356,168.6,356,168.5,356,168.5z M236.7,121.2l97.5,47.3L298.3,186l-97.5-47.3L236.7,121.2z M236.7,215.8l-97.5-47.3
		l46.6-22.6l97.5,47.3L236.7,215.8z M130.8,179.1l99.3,48.2v122.1l-99.3-48.2V179.1z M243.2,349.3V227.2l46.6-22.6v31.9
		c0,3.6,3,6.6,6.6,6.6c3.6,0,6.6-3,6.6-6.6v-38.3l39.9-19.4v122.1L243.2,349.3z"/>
</g>
</svg>
