<?xml version="1.0" encoding="utf-8"?>
<!-- Generator: Adobe Illustrator 22.1.0, SVG Export Plug-In . SVG Version: 6.00 Build 0)  -->
<svg version="1.1" id="Calque_1" xmlns="http://www.w3.org/2000/svg" xmlns:xlink="http://www.w3.org/1999/xlink" x="0px" y="0px"
	 viewBox="0 0 56.7 56.7" style="enable-background:new 0 0 56.7 56.7;" xml:space="preserve">
<title>Combined Shape</title>
<desc>Created with Sketch.</desc>
<g id="Welcome">
	<g id="Desktop-HD-Copy-48" transform="translate(-946.000000, -137.000000)">
		<path id="Combined-Shape" d="M978,150.2c0.3,0,0.6,0.2,0.6,0.5c0,0.3-0.3,0.5-0.6,0.5h-6.3c-0.3,0-0.6-0.2-0.6-0.5
			c0-0.3,0.3-0.5,0.6-0.5H978z M981.8,150.2c0.3,0,0.6,0.2,0.6,0.5c0,0.3-0.3,0.5-0.6,0.5h-0.6c-0.3,0-0.6-0.2-0.6-0.5
			c0-0.3,0.3-0.5,0.6-0.5H981.8z M975.1,177.7c0.9,0,1.6,0.6,1.6,1.3v0.2c0,0.7-0.7,1.3-1.6,1.3h-1.5c-0.9,0-1.6-0.6-1.6-1.3V179
			c0-0.7,0.7-1.3,1.6-1.3H975.1z M975.5,179.2V179c0-0.2-0.2-0.4-0.4-0.4h-1.5c-0.2,0-0.4,0.2-0.4,0.4v0.2c0,0.2,0.2,0.4,0.4,0.4
			h1.5C975.3,179.6,975.5,179.4,975.5,179.2z M982.2,148.3c1.2,0,2.1,0.9,2.1,2.1v30c0,1.1-0.9,2.1-2.1,2.1h-15.7
			c-1.2,0-2.1-0.9-2.1-2.1v-30c0-1.1,0.9-2.1,2.1-2.1H982.2z M983.1,180.4L983.1,180.4l0-30c0-0.5-0.4-0.9-0.9-0.9h-15.7
			c-0.5,0-0.9,0.4-0.9,0.9v30c0,0.5,0.4,0.9,0.9,0.9h15.7C982.7,181.3,983.1,180.9,983.1,180.4z M981.9,153.1c0.3,0,0.5,0.2,0.5,0.5
			v21.7c0,0.3-0.2,0.5-0.5,0.5h-15.2c-0.3,0-0.5-0.2-0.5-0.5v-21.7c0-0.3,0.2-0.5,0.5-0.5H981.9z M981.4,174.9V154h-14.2v20.8H981.4
			z"/>
	</g>
</g>
</svg>
