<svg xmlns="http://www.w3.org/2000/svg" viewBox="0 0 56.7 56.7"><path d="M32 13.2c.3 0 .6.2.6.5s-.3.5-.6.5h-6.3c-.3 0-.6-.2-.6-.5s.3-.5.6-.5H32zm3.8 0c.3 0 .6.2.6.5s-.3.5-.6.5h-.6c-.3 0-.6-.2-.6-.5s.3-.5.6-.5h.6zm-6.7 27.5c.9 0 1.6.6 1.6 1.3v.2c0 .7-.7 1.3-1.6 1.3h-1.5c-.9 0-1.6-.6-1.6-1.3V42c0-.7.7-1.3 1.6-1.3h1.5zm.4 1.5V42c0-.2-.2-.4-.4-.4h-1.5c-.2 0-.4.2-.4.4v.2c0 .2.2.4.4.4h1.5c.2 0 .4-.2.4-.4zm6.7-30.9c1.2 0 2.1.9 2.1 2.1v30c0 1.1-.9 2.1-2.1 2.1H20.5c-1.2 0-2.1-.9-2.1-2.1v-30c0-1.1.9-2.1 2.1-2.1h15.7zm.9 32.1v-30c0-.5-.4-.9-.9-.9H20.5c-.5 0-.9.4-.9.9v30c0 .5.4.9.9.9h15.7c.5 0 .9-.4.9-.9zm-1.2-27.3a.47.47 0 0 1 .5.5v21.7a.47.47 0 0 1-.5.5H20.7a.47.47 0 0 1-.5-.5V16.6a.47.47 0 0 1 .5-.5h15.2zm-.5 21.8V17H21.2v20.8h14.2z"/></svg>