<svg xmlns="http://www.w3.org/2000/svg" viewBox="0 0 512 512"><path d="M375.5 187c-18.4-31.9-48.2-54.7-83.8-64.3-35.6-9.5-72.8-4.6-104.7 13.8s-54.7 48.2-64.3 83.8c-9.5 35.6-4.6 72.8 13.8 104.7s48.2 54.7 83.8 64.3c11.9 3.2 23.9 4.8 35.9 4.8 23.9 0 47.5-6.3 68.7-18.5 31.9-18.4 54.7-48.2 64.3-83.8 9.6-35.7 4.7-72.9-13.7-104.8zm-.1 101c-8.5 31.9-29 58.5-57.6 75s-61.9 20.9-93.8 12.3c-31.9-8.5-58.5-29-75-57.6s-20.9-61.9-12.3-93.8c8.5-31.9 29-58.5 57.6-75 19-11 40.2-16.6 61.6-16.6 10.7 0 21.5 1.4 32.2 4.3 31.9 8.5 58.5 29 75 57.6 16.4 28.6 20.8 61.9 12.3 93.8zm-53.2-45l-88.7-51.2c-4.7-2.7-10.3-2.7-15 0s-7.5 7.6-7.5 13v102.4c0 5.4 2.8 10.3 7.5 13 2.4 1.4 4.9 2 7.5 2s5.2-.7 7.5-2l88.7-51.2c4.7-2.7 7.5-7.6 7.5-13s-2.8-10.3-7.5-13zm-7.2 13.6l-88.7 51.2c-.1.1-.3.2-.7 0-.3-.2-.3-.5-.3-.6V204.8c0-.1 0-.4.3-.6.1-.1.2-.1.3-.1.2 0 .3.1.3.1l88.7 51.2c.1.1.3.2.3.6.1.4-.1.5-.2.6zm25.8-66.1c-17.1-22.1-42.8-36.9-70.5-40.7-3.9-.5-7.6 2.2-8.1 6.1s2.2 7.6 6.1 8.1c24 3.3 46.2 16.1 61 35.2 1.4 1.8 3.5 2.8 5.7 2.8a7.31 7.31 0 0 0 4.4-1.5c3.2-2.4 3.8-6.9 1.4-10z"/></svg>