<?xml version="1.0" encoding="utf-8"?>
<!-- Generator: Adobe Illustrator 22.1.0, SVG Export Plug-In . SVG Version: 6.00 Build 0)  -->
<svg version="1.1" id="Layer_1" xmlns="http://www.w3.org/2000/svg" xmlns:xlink="http://www.w3.org/1999/xlink" x="0px" y="0px"
	 viewBox="0 0 512 512" style="enable-background:new 0 0 512 512;" xml:space="preserve">
<g>
	<g>
		<path d="M375.5,187c-18.4-31.9-48.2-54.7-83.8-64.3c-35.6-9.5-72.8-4.6-104.7,13.8c-31.9,18.4-54.7,48.2-64.3,83.8
			c-9.5,35.6-4.6,72.8,13.8,104.7c18.4,31.9,48.2,54.7,83.8,64.3c11.9,3.2,23.9,4.8,35.9,4.8c23.9,0,47.5-6.3,68.7-18.5
			c31.9-18.4,54.7-48.2,64.3-83.8C398.8,256.1,393.9,218.9,375.5,187z M375.4,288c-8.5,31.9-29,58.5-57.6,75
			c-28.6,16.5-61.9,20.9-93.8,12.3c-31.9-8.5-58.5-29-75-57.6c-16.5-28.6-20.9-61.9-12.3-93.8c8.5-31.9,29-58.5,57.6-75
			c19-11,40.2-16.6,61.6-16.6c10.7,0,21.5,1.4,32.2,4.3c31.9,8.5,58.5,29,75,57.6C379.5,222.8,383.9,256.1,375.4,288z"/>
	</g>
</g>
<g>
	<g>
		<path d="M322.2,243l-88.7-51.2c-4.7-2.7-10.3-2.7-15,0c-4.7,2.7-7.5,7.6-7.5,13v102.4c0,5.4,2.8,10.3,7.5,13c2.4,1.4,4.9,2,7.5,2
			c2.6,0,5.2-0.7,7.5-2l88.7-51.2c4.7-2.7,7.5-7.6,7.5-13C329.7,250.6,326.9,245.7,322.2,243z M315,256.6l-88.7,51.2
			c-0.1,0.1-0.3,0.2-0.7,0c-0.3-0.2-0.3-0.5-0.3-0.6V204.8c0-0.1,0-0.4,0.3-0.6c0.1-0.1,0.2-0.1,0.3-0.1c0.2,0,0.3,0.1,0.3,0.1
			l88.7,51.2c0.1,0.1,0.3,0.2,0.3,0.6C315.3,256.4,315.1,256.5,315,256.6z"/>
	</g>
</g>
<g>
	<g>
		<path d="M340.8,190.5c-17.1-22.1-42.8-36.9-70.5-40.7c-3.9-0.5-7.6,2.2-8.1,6.1c-0.5,3.9,2.2,7.6,6.1,8.1
			c24,3.3,46.2,16.1,61,35.2c1.4,1.8,3.5,2.8,5.7,2.8c1.5,0,3.1-0.5,4.4-1.5C342.6,198.1,343.2,193.6,340.8,190.5z"/>
	</g>
</g>
</svg>
