<?xml version="1.0" encoding="utf-8"?>
<!-- Generator: Adobe Illustrator 22.1.0, SVG Export Plug-In . SVG Version: 6.00 Build 0)  -->
<svg version="1.1" id="Calque_1" xmlns="http://www.w3.org/2000/svg" xmlns:xlink="http://www.w3.org/1999/xlink" x="0px" y="0px"
	 viewBox="0 0 56.7 56.7" style="enable-background:new 0 0 56.7 56.7;" xml:space="preserve">
<title>refresh</title>
<desc>Created with Sketch.</desc>
<g id="Welcome">
	<g id="Desktop-HD-Copy-48" transform="translate(-1018.000000, -214.000000)">
		<g id="refresh" transform="translate(1018.000000, 214.000000)">
			<path id="Path" d="M41,26.9c-0.1-0.5-0.6-0.8-1.2-0.7c-0.5,0.1-0.9,0.5-0.8,1.1l0,0c1,5.5-3,10.6-9,11.5S18.4,36,17.3,30.5
				c-1-5.5,3-10.6,9-11.5c3.7-0.5,7.4,0.6,9.9,3.1l-4.4,1.3c-0.5,0.2-0.8,0.6-0.6,1.2l0,0c0.2,0.4,0.7,0.7,1.3,0.5l0,0l6-1.8
				c0.4-0.1,0.7-0.4,0.7-0.9v-5.5c0-0.5-0.4-0.9-1-0.9c-0.5,0-1,0.4-1,0.9v3.3C32.2,16,24,16.2,19.1,20.9s-4.7,12,0.4,16.5
				s13.2,4.2,18.2-0.4C40.5,34.2,41.7,30.5,41,26.9z"/>
		</g>
	</g>
</g>
</svg>
