<?xml version="1.0" encoding="utf-8"?>
<!-- Generator: Adobe Illustrator 22.1.0, SVG Export Plug-In . SVG Version: 6.00 Build 0)  -->
<svg version="1.1" id="Calque_1" xmlns="http://www.w3.org/2000/svg" xmlns:xlink="http://www.w3.org/1999/xlink" x="0px" y="0px"
	 viewBox="0 0 56.7 56.7" style="enable-background:new 0 0 56.7 56.7;" xml:space="preserve">
<title>refresh</title>
<desc>Created with Sketch.</desc>
<g id="Welcome">
	<g id="Desktop-HD-Copy-48" transform="translate(-1018.000000, -214.000000)">
		<g id="refresh" transform="translate(1018.000000, 214.000000)">
			<path id="Path" d="M42.5,26.7c-0.1-0.6-0.7-0.9-1.3-0.8c-0.6,0.1-1,0.6-0.9,1.2c0,0,0,0,0,0c1.1,6.1-3.4,11.8-10.1,12.8
				s-13-3-14.2-9.1C14.9,24.7,19.4,19,26.1,18c4.1-0.6,8.3,0.7,11.1,3.5l-4.9,1.5c-0.6,0.2-0.9,0.7-0.7,1.3c0,0,0,0,0,0
				c0.2,0.5,0.8,0.8,1.4,0.6c0,0,0,0,0,0l6.7-2c0.5-0.1,0.8-0.5,0.8-1v-6.1c0-0.6-0.5-1-1.1-1c-0.6,0-1.1,0.5-1.1,1v3.7
				c-5.7-5-14.8-4.7-20.3,0.5s-5.2,13.4,0.5,18.4s14.8,4.7,20.3-0.5C41.9,34.9,43.3,30.8,42.5,26.7z"/>
		</g>
	</g>
</g>
</svg>
