<svg height="512" viewBox="0 0 512 512" width="512" xmlns="http://www.w3.org/2000/svg"><path d="m88 464h-48a8 8 0 0 0 0 16h48a8 8 0 0 0 0-16z"/><path d="m120 464h-8a8 8 0 0 0 0 16h8a8 8 0 0 0 0-16z"/><path d="m464 72h-168v-40a24.027 24.027 0 0 0 -24-24h-240a24.027 24.027 0 0 0 -24 24v448a24.027 24.027 0 0 0 24 24h240a24.027 24.027 0 0 0 24-24v-120h168a40.045 40.045 0 0 0 40-40v-208a40.045 40.045 0 0 0 -40-40zm24 40v8h-368v-8a24.027 24.027 0 0 1 24-24h320a24.027 24.027 0 0 1 24 24zm-298.246-88-4 16h-67.508l-4-16zm90.246 456a8.009 8.009 0 0 1 -8 8h-240a8.009 8.009 0 0 1 -8-8v-448a8.009 8.009 0 0 1 8-8h65.754l6.485 25.94a8 8 0 0 0 7.761 6.06h80a8 8 0 0 0 7.761-6.06l6.485-25.94h65.754a8.009 8.009 0 0 1 8 8v40h-136a40.045 40.045 0 0 0 -40 40v208a40.045 40.045 0 0 0 40 40h136zm208-160a24.027 24.027 0 0 1 -24 24h-320a24.027 24.027 0 0 1 -24-24v-184h368z"/><path d="m160 96h-16a8 8 0 0 0 0 16h16a8 8 0 0 0 0-16z"/><path d="m200 96h-16a8 8 0 0 0 0 16h16a8 8 0 0 0 0-16z"/><path d="m240 96h-16a8 8 0 0 0 0 16h16a8 8 0 0 0 0-16z"/></svg>