<svg xmlns="http://www.w3.org/2000/svg" viewBox="0 0 54 54"><path d="M40.8 23.6h-2.9c-.5 0-.8-.3-1-.7s-.1-.9.2-1.2l2-2c.3-.3.5-.7.5-1.1s-.2-.8-.5-1.1l-2.6-2.6a1.57 1.57 0 0 0-2.2 0l-2 2c-.3.3-.8.4-1.2.2s-.7-.6-.7-1v-2.9a1.58 1.58 0 0 0-1.6-1.6h-3.7a1.58 1.58 0 0 0-1.6 1.6v2.9c0 .5-.3.8-.7 1s-.9.1-1.2-.2l-2-2a1.57 1.57 0 0 0-2.2 0l-2.6 2.6c-.3.3-.5.7-.5 1.1s.2.8.5 1.1l2 2c.3.3.4.8.2 1.2s-.6.7-1 .7h-2.9a1.58 1.58 0 0 0-1.6 1.6v3.7a1.58 1.58 0 0 0 1.6 1.6H16c.5 0 .8.3 1 .7s.1.9-.2 1.2l-2 2c-.3.3-.5.7-.5 1.1s.2.8.5 1.1l2.6 2.6a1.57 1.57 0 0 0 2.2 0l2-2c.3-.3.8-.4 1.2-.2s.7.6.7 1v2.9a1.58 1.58 0 0 0 1.6 1.6h3.7a1.58 1.58 0 0 0 1.6-1.6V38c0-.5.3-.8.7-1s.9-.1 1.2.2l2 2a1.57 1.57 0 0 0 2.2 0l2.6-2.6c.3-.3.5-.7.5-1.1s-.2-.8-.5-1.1l-2-2c-.3-.3-.4-.8-.2-1.2s.6-.7 1-.7h2.9a1.58 1.58 0 0 0 1.6-1.6v-3.7a1.58 1.58 0 0 0-1.6-1.6zm.5 5.2c0 .2-.2.4-.4.4H38c-.9 0-1.7.5-2.1 1.4s-.2 1.8.5 2.4l2 2c.2.2.2.5 0 .6l-2.6 2.6c-.2.2-.5.2-.6 0l-2-2c-.7-.7-1.6-.8-2.4-.5-.9.4-1.4 1.1-1.4 2.1v2.9c0 .2-.2.4-.4.4h-3.7c-.2 0-.4-.2-.4-.4v-2.9c0-.9-.5-1.7-1.4-2.1-.3-.1-.6-.2-.9-.2-.6 0-1.1.2-1.6.7l-2 2c-.2.2-.5.2-.6 0l-2.6-2.6c-.2-.2-.2-.5 0-.6l2-2c.7-.7.8-1.6.5-2.4-.4-.9-1.1-1.4-2.1-1.4h-2.9c-.2 0-.4-.2-.4-.4v-3.7c0-.2.2-.4.4-.4h2.9c.9 0 1.7-.5 2.1-1.4s.2-1.8-.5-2.4l-2-2c-.2-.2-.2-.5 0-.6l2.6-2.6c.2-.2.5-.2.6 0l2 2c.7.7 1.6.8 2.4.5.9-.4 1.4-1.1 1.4-2.1v-2.9c0-.2.2-.4.4-.4h3.7c.2 0 .4.2.4.4v2.9c0 .9.5 1.7 1.4 2.1s1.8.2 2.4-.5l2-2c.2-.2.5-.2.6 0l2.6 2.6c.2.2.2.5 0 .6l-2 2c-.7.7-.8 1.6-.5 2.4.4.9 1.1 1.4 2.1 1.4h2.9c.2 0 .4.2.4.4v3.7zM27 21.9c-2.8 0-5.1 2.3-5.1 5.1s2.3 5.1 5.1 5.1 5.1-2.3 5.1-5.1-2.3-5.1-5.1-5.1zm0 9.1c-2.2 0-4-1.8-4-4s1.8-4 4-4 4 1.8 4 4-1.8 4-4 4z"/></svg>