<?xml version="1.0" encoding="utf-8"?>
<!-- Generator: Adobe Illustrator 22.1.0, SVG Export Plug-In . SVG Version: 6.00 Build 0)  -->
<svg version="1.1" id="Capa_1" xmlns="http://www.w3.org/2000/svg" xmlns:xlink="http://www.w3.org/1999/xlink" x="0px" y="0px"
	 viewBox="0 0 54 54" style="enable-background:new 0 0 54 54;" xml:space="preserve">
<g>
	<path d="M40.8,23.6h-2.9c-0.5,0-0.8-0.3-1-0.7c-0.2-0.4-0.1-0.9,0.2-1.2l2-2c0.3-0.3,0.5-0.7,0.5-1.1c0-0.4-0.2-0.8-0.5-1.1
		l-2.6-2.6c-0.6-0.6-1.6-0.6-2.2,0l-2,2c-0.3,0.3-0.8,0.4-1.2,0.2c-0.4-0.2-0.7-0.6-0.7-1v-2.9c0-0.9-0.7-1.6-1.6-1.6h-3.7
		c-0.9,0-1.6,0.7-1.6,1.6v2.9c0,0.5-0.3,0.8-0.7,1c-0.4,0.2-0.9,0.1-1.2-0.2l-2-2c-0.6-0.6-1.6-0.6-2.2,0l-2.6,2.6
		c-0.3,0.3-0.5,0.7-0.5,1.1c0,0.4,0.2,0.8,0.5,1.1l2,2c0.3,0.3,0.4,0.8,0.2,1.2s-0.6,0.7-1,0.7h-2.9c-0.9,0-1.6,0.7-1.6,1.6v3.7
		c0,0.9,0.7,1.6,1.6,1.6h2.9c0.5,0,0.8,0.3,1,0.7c0.2,0.4,0.1,0.9-0.2,1.2l-2,2c-0.3,0.3-0.5,0.7-0.5,1.1c0,0.4,0.2,0.8,0.5,1.1
		l2.6,2.6c0.6,0.6,1.6,0.6,2.2,0l2-2c0.3-0.3,0.8-0.4,1.2-0.2c0.4,0.2,0.7,0.6,0.7,1v2.9c0,0.9,0.7,1.6,1.6,1.6h3.7
		c0.9,0,1.6-0.7,1.6-1.6v-2.9c0-0.5,0.3-0.8,0.7-1c0.4-0.2,0.9-0.1,1.2,0.2l2,2c0.6,0.6,1.6,0.6,2.2,0l2.6-2.6
		c0.3-0.3,0.5-0.7,0.5-1.1c0-0.4-0.2-0.8-0.5-1.1l-2-2c-0.3-0.3-0.4-0.8-0.2-1.2c0.2-0.4,0.6-0.7,1-0.7h2.9c0.9,0,1.6-0.7,1.6-1.6
		v-3.7C42.4,24.3,41.7,23.6,40.8,23.6z M41.3,28.8c0,0.2-0.2,0.4-0.4,0.4h-2.9c-0.9,0-1.7,0.5-2.1,1.4c-0.4,0.9-0.2,1.8,0.5,2.4l2,2
		c0.2,0.2,0.2,0.5,0,0.6l-2.6,2.6c-0.2,0.2-0.5,0.2-0.6,0l-2-2c-0.7-0.7-1.6-0.8-2.4-0.5c-0.9,0.4-1.4,1.1-1.4,2.1v2.9
		c0,0.2-0.2,0.4-0.4,0.4h-3.7c-0.2,0-0.4-0.2-0.4-0.4v-2.9c0-0.9-0.5-1.7-1.4-2.1c-0.3-0.1-0.6-0.2-0.9-0.2c-0.6,0-1.1,0.2-1.6,0.7
		l-2,2c-0.2,0.2-0.5,0.2-0.6,0l-2.6-2.6c-0.2-0.2-0.2-0.5,0-0.6l2-2c0.7-0.7,0.8-1.6,0.5-2.4c-0.4-0.9-1.1-1.4-2.1-1.4h-2.9
		c-0.2,0-0.4-0.2-0.4-0.4v-3.7c0-0.2,0.2-0.4,0.4-0.4h2.9c0.9,0,1.7-0.5,2.1-1.4c0.4-0.9,0.2-1.8-0.5-2.4l-2-2
		c-0.2-0.2-0.2-0.5,0-0.6l2.6-2.6c0.2-0.2,0.5-0.2,0.6,0l2,2c0.7,0.7,1.6,0.8,2.4,0.5c0.9-0.4,1.4-1.1,1.4-2.1v-2.9
		c0-0.2,0.2-0.4,0.4-0.4h3.7c0.2,0,0.4,0.2,0.4,0.4v2.9c0,0.9,0.5,1.7,1.4,2.1c0.9,0.4,1.8,0.2,2.4-0.5l2-2c0.2-0.2,0.5-0.2,0.6,0
		l2.6,2.6c0.2,0.2,0.2,0.5,0,0.6l-2,2c-0.7,0.7-0.8,1.6-0.5,2.4c0.4,0.9,1.1,1.4,2.1,1.4h2.9c0.2,0,0.4,0.2,0.4,0.4V28.8z"/>
	<path d="M27,21.9c-2.8,0-5.1,2.3-5.1,5.1s2.3,5.1,5.1,5.1s5.1-2.3,5.1-5.1S29.8,21.9,27,21.9z M27,31c-2.2,0-4-1.8-4-4s1.8-4,4-4
		s4,1.8,4,4S29.2,31,27,31z"/>
</g>
</svg>
