<?xml version="1.0" encoding="utf-8"?>
<!-- Generator: Adobe Illustrator 22.1.0, SVG Export Plug-In . SVG Version: 6.00 Build 0)  -->
<svg version="1.1" id="Calque_1" xmlns="http://www.w3.org/2000/svg" xmlns:xlink="http://www.w3.org/1999/xlink" x="0px" y="0px"
	 viewBox="0 0 56.7 56.7" style="enable-background:new 0 0 56.7 56.7;" xml:space="preserve">
<title>Shape</title>
<desc>Created with Sketch.</desc>
<g id="Welcome">
	<g id="Desktop-HD-Copy-48" transform="translate(-878.000000, -212.000000)">
		<path id="Shape" d="M920.5,236.2v-4.6h-4.7v1.5h-7.1v-1.5H904v1.5h-7.1v-1.5h-4.7v4.6h4.7v-1.5h3.4c-3.7,2-6.2,5.7-6.5,9.9h-1.6
			v4.6h4.7v-4.6h-1.5c0.3-4.7,3.9-8.6,8.6-9.6v1.3h4.7v-1.3c4.7,1,8.3,4.9,8.6,9.6h-1.5v4.6h4.7v-4.6h-1.6c-0.3-4.2-2.8-7.9-6.5-9.9
			h3.4v1.5H920.5z M917.4,233.1h1.6v1.5h-1.6V233.1z M895.3,234.7h-1.6v-1.5h1.6V234.7z M895.3,247.6h-1.6V246h1.6V247.6z
			 M907.1,234.7h-1.6v-1.5h1.6V234.7z M917.4,246h1.6v1.5h-1.6V246z"/>
	</g>
</g>
</svg>
