<svg xmlns="http://www.w3.org/2000/svg" viewBox="0 0 512 512"><path d="M387.5 243.4c-11.7-5.9-33.7-5.9-34.6-5.9-2.8 0-5 2.3-5 5 0 2.8 2.3 5 5 5 5.7 0 22.1.9 30.1 4.9.7.4 1.5.5 2.2.5 1.8 0 3.6-1 4.5-2.8 1.3-2.4.3-5.4-2.2-6.7z"/><path d="M412.6 315.2l-20.8-5.9c-.9-.3-1.5-1.1-1.5-2v-6.9c1.7-1.2 3.3-2.5 4.8-4 7.3-7.1 11.3-16.6 11.3-26.8V260l2-4c2.2-4.4 3.4-9.4 3.4-14.3v-26c0-2.8-2.3-5-5-5h-48.5c-17.6 0-32 14.3-32 32v.3c0 4.1 1 8.2 2.8 11.9l2.6 5.2v8.2a39.34 39.34 0 0 0 16.2 31.8v7.3c0 1.1 0 1.6-4.2 2.8l-10.2 2.9-29.4-10.7c.1-1.4-.4-2.8-1.4-3.9l-9.4-9.9V272c1-.8 2-1.7 2.9-2.5 11.8-11.1 18.6-26.8 18.6-43v-13.2a57.91 57.91 0 0 0 5.4-24.5v-53.9c0-2.8-2.3-5-5-5h-75.4c-26.5 0-48.1 21.6-48.1 48.1v10.8a57.91 57.91 0 0 0 5.4 24.5v11.4c0 18.8 8.4 35.8 21.6 47v16.9l-9.4 9.9c-1 1.1-1.5 2.5-1.4 3.9l-31 11.3c-2.2.8-4.3 1.9-6.2 3.3l-4.9-2.4c14.5-6.3 19.1-15.2 19.3-15.6.7-1.4.7-3.1 0-4.5-3.6-7.3-4.1-20.6-4.4-31.3l-.4-9.9c-1.7-24.2-20.1-42.4-42.7-42.4s-41 18.2-42.7 42.4c-.2 3-.3 6.4-.4 9.9-.4 10.7-.8 24-4.4 31.3-.7 1.4-.7 3.1 0 4.5.2.4 4.8 9.3 19.3 15.6L95.7 321c-7.2 3.6-11.7 10.9-11.7 19v37.2c0 2.8 2.3 5 5 5s5-2.3 5-5V340a11.32 11.32 0 0 1 6.1-10l16.8-8.4 5.9 5.6c4.1 3.9 9.3 5.8 14.6 5.8s10.5-1.9 14.6-5.8l5.9-5.6 5.5 2.7a26.41 26.41 0 0 0-4.1 14.1v38.8c0 2.8 2.3 5 5 5 2.8 0 5-2.3 5-5v-38.8c0-6.9 4.4-13.2 10.9-15.5l32.7-11.9 13.6 20.4c1.7 2.6 4.5 4.3 7.6 4.6.3 0 .7.1 1 .1 2.8 0 5.4-1.1 7.4-3.1l8.3-8.3v52.5c0 2.8 2.3 5 5 5 2.8 0 5-2.3 5-5v-52.5l8.3 8.3c2 2 4.6 3.1 7.4 3.1.3 0 .7 0 1-.1 3.1-.3 5.9-2 7.6-4.6l13.6-20.4 32.7 11.9c6.5 2.4 10.9 8.6 10.9 15.5v38.8c0 2.8 2.3 5 5 5 2.8 0 5-2.3 5-5v-38.8c0-7-2.8-13.6-7.5-18.4l1.2-.4c1.3-.4 3-.8 4.7-1.7l12.9 12.9v46.4c0 2.8 2.3 5 5 5 2.8 0 5-2.3 5-5v-46.4l12.8-12.8 2.1.9 20.8 5.9c4.8 1.4 8.1 5.8 8.1 10.7v41.7c0 2.8 2.3 5 5 5s5-2.3 5-5v-41.7c.6-9.4-5.7-17.8-14.8-20.3zm-296.3-8.9c-9.4-3.4-14.2-7.9-16.2-10.4 1.4-3.6 2.3-7.7 2.9-12.1 2.8 6.7 7.4 12.4 13.3 16.4v6.1zm28.9 13.6c-4.3 4.1-11 4.1-15.3 0l-4.7-4.5c.8-1.5 1.2-3.2 1.2-4.9v-5.4a37.32 37.32 0 0 0 11.1 1.7c3.9 0 7.6-.6 11.1-1.7v5.4c0 1.8.4 3.4 1.2 4.9l-4.6 4.5zm-7.7-23.1c-15 0-27.3-12.2-27.3-27.3 0-2.8-2.3-5-5-5-.3 0-.6 0-.8.1v-1.3l.4-9.5c.6-9.1 4.3-17.4 10.2-23.5 6-6.2 14-9.5 22.5-9.5s16.5 3.4 22.5 9.5c5.9 6.1 9.5 14.4 10.2 23.5.2 2.8.3 6.1.4 9.5v.9c-5.5-8.4-13.9-14.7-24.9-18.2-10.1-3.2-18.8-3-19.2-3-1.3 0-2.6.6-3.5 1.5l-9.1 9.4c-1.9 2-1.9 5.2.1 7.1s5.2 1.9 7.1-.1l7.6-7.8c6.5.3 27.5 2.8 35.6 20.7-1.9 13.1-13.2 23-26.8 23zm21.2 9.5v-6c5.9-4 10.5-9.7 13.3-16.4.6 4.3 1.5 8.4 2.9 12-2 2.4-6.8 7-16.2 10.4zm48.5-81.8V212c0-.8-.2-1.5-.5-2.2-3.2-6.7-4.9-13.8-4.9-21.2v-10.8c0-21 17.1-38.1 38.1-38.1h70.4v48.8c0 7.3-1.6 14.5-4.9 21.2-.3.7-.5 1.4-.5 2.2v14.3c0 13.6-5.5 26.3-15.4 35.6a30.92 30.92 0 0 1-3.9 3.3s-.1 0-.1.1c-9.3 7.1-20.8 10.5-32.7 9.8-25.6-1.6-45.6-23.8-45.6-50.5zm28.4 101.4s-.1.1-.3.1-.2-.1-.3-.2l-15.7-23.5 5-5.3 23.8 16.3-12.5 12.6zm20.5-19.4l-27.3-18.7v-9.4c7.1 3.8 15 6.2 23.4 6.7 1.3.1 2.6.1 4 .1 9.6 0 18.9-2.3 27.2-6.7v9.2l-27.3 18.8zm21 19.4s-.1.1-.3.2c-.2 0-.2-.1-.3-.1l-12.6-12.6 23.8-16.3 5 5.3-15.6 23.5zm92-4.3l-11.4-11.4c.2-.9.3-1.9.3-3v-2.1c3.2 1 6.5 1.7 10 1.8h1.2a37.32 37.32 0 0 0 11.1-1.7v2c0 1 .1 2 .4 2.9l-11.6 11.5zm19-32.5c-5.3 5.2-12.4 7.9-19.8 7.7-14.6-.4-26.4-13.3-26.4-28.6v-9.4c0-.8-.2-1.6-.5-2.3l-3.1-6.2c-1.1-2.3-1.7-4.8-1.7-7.4v-.3c0-12.1 9.8-21.9 21.9-21.9H402v20.9a22.06 22.06 0 0 1-2.3 9.8l-2.5 5.1c-.4.7-.5 1.5-.5 2.3v10.8c-.3 7.3-3.3 14.3-8.6 19.5zm13.3 50.8c-2.8 0-5 2.3-5 5v32.3c0 2.8 2.3 5 5 5s5-2.3 5-5v-32.3a4.95 4.95 0 0 0-5-5zm-290.8 6.6c-2.8 0-5 2.3-5 5v25.7c0 2.8 2.3 5 5 5s5-2.3 5-5v-25.7c0-2.7-2.2-5-5-5zm186.7-156c-19.1-19.1-58.9-15.4-75.2-13-5.1.8-8.8 5.1-8.8 10.3v11.6c0 2.8 2.3 5 5 5 2.8 0 5-2.3 5-5v-11.6c0-.2.1-.3.3-.3 6.5-1 19.4-2.5 32.7-1.6 15.7 1 27.1 5 33.8 11.7 2 2 5.2 2 7.1 0 2.1-2 2.1-5.2.1-7.1zM196.8 350.6c-2.8 0-5 2.3-5 5v21.6c0 2.8 2.3 5 5 5 2.8 0 5-2.3 5-5v-21.6c0-2.7-2.2-5-5-5zm118.5 0c-2.8 0-5 2.3-5 5v21.6c0 2.8 2.3 5 5 5s5-2.3 5-5v-21.6c.1-2.7-2.2-5-5-5z"/></svg>