<?xml version="1.0" encoding="utf-8"?>
<!-- Generator: Adobe Illustrator 22.1.0, SVG Export Plug-In . SVG Version: 6.00 Build 0)  -->
<svg version="1.1" id="Layer_1" xmlns="http://www.w3.org/2000/svg" xmlns:xlink="http://www.w3.org/1999/xlink" x="0px" y="0px"
	 viewBox="0 0 512 512" style="enable-background:new 0 0 512 512;" xml:space="preserve">
<g>
	<g>
		<path d="M387.5,243.4c-11.7-5.9-33.7-5.9-34.6-5.9c-2.8,0-5,2.3-5,5c0,2.8,2.3,5,5,5c5.7,0,22.1,0.9,30.1,4.9
			c0.7,0.4,1.5,0.5,2.2,0.5c1.8,0,3.6-1,4.5-2.8C391,247.7,390,244.7,387.5,243.4z"/>
	</g>
</g>
<g>
	<g>
		<path d="M412.6,315.2l-20.8-5.9c-0.9-0.3-1.5-1.1-1.5-2v-6.9c1.7-1.2,3.3-2.5,4.8-4c7.3-7.1,11.3-16.6,11.3-26.8v-9.6l2-4
			c2.2-4.4,3.4-9.4,3.4-14.3v-26c0-2.8-2.3-5-5-5h-48.5c-17.6,0-32,14.3-32,32v0.3c0,4.1,1,8.2,2.8,11.9l2.6,5.2v8.2
			c0,13,6.4,24.7,16.2,31.8l0,7.3c0,1.1,0,1.6-4.2,2.8l-10.2,2.9l-29.4-10.7c0.1-1.4-0.4-2.8-1.4-3.9l-9.4-9.9v-16.6
			c1-0.8,2-1.7,2.9-2.5c11.8-11.1,18.6-26.8,18.6-43v-13.2c3.6-7.8,5.4-16,5.4-24.5v-53.9c0-2.8-2.3-5-5-5h-75.4
			c-26.5,0-48.1,21.6-48.1,48.1v10.8c0,8.5,1.8,16.7,5.4,24.5v11.4c0,18.8,8.4,35.8,21.6,47v16.9l-9.4,9.9c-1,1.1-1.5,2.5-1.4,3.9
			l-31,11.3c-2.2,0.8-4.3,1.9-6.2,3.3l-4.9-2.4c14.5-6.3,19.1-15.2,19.3-15.6c0.7-1.4,0.7-3.1,0-4.5c-3.6-7.3-4.1-20.6-4.4-31.3
			c-0.1-3.6-0.2-6.9-0.4-9.9c-1.7-24.2-20.1-42.4-42.7-42.4s-41,18.2-42.7,42.4c-0.2,3-0.3,6.4-0.4,9.9c-0.4,10.7-0.8,24-4.4,31.3
			c-0.7,1.4-0.7,3.1,0,4.5c0.2,0.4,4.8,9.3,19.3,15.6L95.7,321c-7.2,3.6-11.7,10.9-11.7,19v37.2c0,2.8,2.3,5,5,5s5-2.3,5-5V340
			c0-4.2,2.4-8.1,6.1-10l16.8-8.4l5.9,5.6c4.1,3.9,9.3,5.8,14.6,5.8c5.3,0,10.5-1.9,14.6-5.8l5.9-5.6l5.5,2.7
			c-2.6,4.1-4.1,9-4.1,14.1v38.8c0,2.8,2.3,5,5,5c2.8,0,5-2.3,5-5v-38.8c0-6.9,4.4-13.2,10.9-15.5l32.7-11.9l13.6,20.4
			c1.7,2.6,4.5,4.3,7.6,4.6c0.3,0,0.7,0.1,1,0.1c2.8,0,5.4-1.1,7.4-3.1l8.3-8.3v52.5c0,2.8,2.3,5,5,5c2.8,0,5-2.3,5-5v-52.5l8.3,8.3
			c2,2,4.6,3.1,7.4,3.1c0.3,0,0.7,0,1-0.1c3.1-0.3,5.9-2,7.6-4.6l13.6-20.4l32.7,11.9c6.5,2.4,10.9,8.6,10.9,15.5v38.8
			c0,2.8,2.3,5,5,5c2.8,0,5-2.3,5-5v-38.8c0-7-2.8-13.6-7.5-18.4l1.2-0.4c1.3-0.4,3-0.8,4.7-1.7l12.9,12.9v46.4c0,2.8,2.3,5,5,5
			c2.8,0,5-2.3,5-5v-46.4l12.8-12.8c0.7,0.3,1.4,0.6,2.1,0.9l20.8,5.9c4.8,1.4,8.1,5.8,8.1,10.7v41.7c0,2.8,2.3,5,5,5s5-2.3,5-5
			v-41.7C428,326.1,421.7,317.7,412.6,315.2z M116.3,306.3c-9.4-3.4-14.2-7.9-16.2-10.4c1.4-3.6,2.3-7.7,2.9-12.1
			c2.8,6.7,7.4,12.4,13.3,16.4V306.3z M145.2,319.9c-4.3,4.1-11,4.1-15.3,0l-4.7-4.5c0.8-1.5,1.2-3.2,1.2-4.9v-5.4
			c3.5,1.1,7.3,1.7,11.1,1.7c3.9,0,7.6-0.6,11.1-1.7l0,5.4c0,1.8,0.4,3.4,1.2,4.9L145.2,319.9z M137.5,296.8
			c-15,0-27.3-12.2-27.3-27.3c0-2.8-2.3-5-5-5c-0.3,0-0.6,0-0.8,0.1c0-0.4,0-0.9,0-1.3c0.1-3.5,0.2-6.7,0.4-9.5
			c0.6-9.1,4.3-17.4,10.2-23.5c6-6.2,14-9.5,22.5-9.5c8.5,0,16.5,3.4,22.5,9.5c5.9,6.1,9.5,14.4,10.2,23.5c0.2,2.8,0.3,6.1,0.4,9.5
			c0,0.3,0,0.6,0,0.9c-5.5-8.4-13.9-14.7-24.9-18.2c-10.1-3.2-18.8-3-19.2-3c-1.3,0-2.6,0.6-3.5,1.5l-9.1,9.4
			c-1.9,2-1.9,5.2,0.1,7.1s5.2,1.9,7.1-0.1l7.6-7.8c6.5,0.3,27.5,2.8,35.6,20.7C162.4,286.9,151.1,296.8,137.5,296.8z M158.7,306.3
			l0-6c5.9-4,10.5-9.7,13.3-16.4c0.6,4.3,1.5,8.4,2.9,12C172.9,298.3,168.1,302.9,158.7,306.3z M207.2,224.5V212
			c0-0.8-0.2-1.5-0.5-2.2c-3.2-6.7-4.9-13.8-4.9-21.2v-10.8c0-21,17.1-38.1,38.1-38.1h70.4v48.8c0,7.3-1.6,14.5-4.9,21.2
			c-0.3,0.7-0.5,1.4-0.5,2.2v14.3c0,13.6-5.5,26.3-15.4,35.6c-1.2,1.2-2.5,2.3-3.9,3.3c0,0-0.1,0-0.1,0.1
			c-9.3,7.1-20.8,10.5-32.7,9.8C227.2,273.4,207.2,251.2,207.2,224.5z M235.6,325.9c0,0-0.1,0.1-0.3,0.1c-0.2,0-0.2-0.1-0.3-0.2
			l-15.7-23.5l5-5.3l23.8,16.3L235.6,325.9z M256.1,306.5l-27.3-18.7v-9.4c7.1,3.8,15,6.2,23.4,6.7c1.3,0.1,2.6,0.1,4,0.1
			c9.6,0,18.9-2.3,27.2-6.7v9.2L256.1,306.5z M277.1,325.9c0,0-0.1,0.1-0.3,0.2c-0.2,0-0.2-0.1-0.3-0.1l-12.6-12.6l23.8-16.3l5,5.3
			L277.1,325.9z M369.1,321.6l-11.4-11.4c0.2-0.9,0.3-1.9,0.3-3l0-2.1c3.2,1,6.5,1.7,10,1.8c0.4,0,0.8,0,1.2,0
			c3.8,0,7.6-0.6,11.1-1.7v2c0,1,0.1,2,0.4,2.9L369.1,321.6z M388.1,289.1c-5.3,5.2-12.4,7.9-19.8,7.7
			c-14.6-0.4-26.4-13.3-26.4-28.6v-9.4c0-0.8-0.2-1.6-0.5-2.3l-3.1-6.2c-1.1-2.3-1.7-4.8-1.7-7.4v-0.3c0-12.1,9.8-21.9,21.9-21.9
			h43.5v20.9c0,3.4-0.8,6.8-2.3,9.8l-2.5,5.1c-0.4,0.7-0.5,1.5-0.5,2.3v10.8C396.4,276.9,393.4,283.9,388.1,289.1z"/>
	</g>
</g>
<g>
	<g>
		<path d="M401.4,339.9c-2.8,0-5,2.3-5,5v32.3c0,2.8,2.3,5,5,5s5-2.3,5-5v-32.3C406.4,342.1,404.2,339.9,401.4,339.9z"/>
	</g>
</g>
<g>
	<g>
		<path d="M110.6,346.5c-2.8,0-5,2.3-5,5v25.7c0,2.8,2.3,5,5,5s5-2.3,5-5v-25.7C115.6,348.8,113.4,346.5,110.6,346.5z"/>
	</g>
</g>
<g>
	<g>
		<path d="M297.3,190.5c-19.1-19.1-58.9-15.4-75.2-13c-5.1,0.8-8.8,5.1-8.8,10.3v11.6c0,2.8,2.3,5,5,5c2.8,0,5-2.3,5-5v-11.6
			c0-0.2,0.1-0.3,0.3-0.3c6.5-1,19.4-2.5,32.7-1.6c15.7,1,27.1,5,33.8,11.7c2,2,5.2,2,7.1,0C299.3,195.6,299.3,192.4,297.3,190.5z"
			/>
	</g>
</g>
<g>
	<g>
		<path d="M196.8,350.6c-2.8,0-5,2.3-5,5v21.6c0,2.8,2.3,5,5,5c2.8,0,5-2.3,5-5v-21.6C201.8,352.9,199.6,350.6,196.8,350.6z"/>
	</g>
</g>
<g>
	<g>
		<path d="M315.3,350.6c-2.8,0-5,2.3-5,5v21.6c0,2.8,2.3,5,5,5s5-2.3,5-5v-21.6C320.4,352.9,318.1,350.6,315.3,350.6z"/>
	</g>
</g>
</svg>
