<?xml version="1.0" encoding="utf-8"?>
<!-- Generator: Adobe Illustrator 22.1.0, SVG Export Plug-In . SVG Version: 6.00 Build 0)  -->
<svg version="1.1" id="Calque_1" xmlns="http://www.w3.org/2000/svg" xmlns:xlink="http://www.w3.org/1999/xlink" x="0px" y="0px"
	 viewBox="0 0 512 512" style="enable-background:new 0 0 512 512;" xml:space="preserve">
<g>
	<path d="M403.6,148.1H108.4c-15.7,0-28.4,12.7-28.4,28.4v159c0,15.7,12.7,28.4,28.4,28.4h295.2c15.7,0,28.4-12.7,28.4-28.4v-159
		C432,160.8,419.3,148.1,403.6,148.1z M91.4,176.5c0-9.4,7.6-17,17-17h295.2c9.4,0,17,7.6,17,17v5.7H91.4V176.5z M420.6,335.5
		c0,9.4-7.6,17-17,17H108.4c-9.4,0-17-7.6-17-17V193.5h329.3V335.5z"/>
	<path d="M119.7,165.2h-11.4c-3.1,0-5.7,2.5-5.7,5.7c0,3.1,2.5,5.7,5.7,5.7h11.4c3.1,0,5.7-2.5,5.7-5.7
		C125.4,167.7,122.9,165.2,119.7,165.2z"/>
	<path d="M148.1,165.2h-11.4c-3.1,0-5.7,2.5-5.7,5.7c0,3.1,2.5,5.7,5.7,5.7h11.4c3.1,0,5.7-2.5,5.7-5.7
		C153.8,167.7,151.3,165.2,148.1,165.2z"/>
	<path d="M176.5,165.2h-11.4c-3.1,0-5.7,2.5-5.7,5.7c0,3.1,2.5,5.7,5.7,5.7h11.4c3.1,0,5.7-2.5,5.7-5.7
		C182.2,167.7,179.7,165.2,176.5,165.2z"/>
	<path d="M287.2,239h88c3.1,0,5.7-2.5,5.7-5.7s-2.5-5.7-5.7-5.7h-88c-3.1,0-5.7,2.5-5.7,5.7S284.1,239,287.2,239z"/>
	<path d="M264.5,261.7h110.7c3.1,0,5.7-2.5,5.7-5.7c0-3.1-2.5-5.7-5.7-5.7H264.5c-3.1,0-5.7,2.5-5.7,5.7
		C258.8,259.1,261.4,261.7,264.5,261.7z"/>
	<path d="M264.5,284.4h110.7c3.1,0,5.7-2.5,5.7-5.7c0-3.1-2.5-5.7-5.7-5.7H264.5c-3.1,0-5.7,2.5-5.7,5.7
		C258.8,281.8,261.4,284.4,264.5,284.4z"/>
	<path d="M264.5,307.1h76.6c3.1,0,5.7-2.5,5.7-5.7c0-3.1-2.5-5.7-5.7-5.7h-76.6c-3.1,0-5.7,2.5-5.7,5.7
		C258.8,304.6,261.4,307.1,264.5,307.1z"/>
	<path d="M363.9,295.7h-5.7c-3.1,0-5.7,2.5-5.7,5.7c0,3.1,2.5,5.7,5.7,5.7h5.7c3.1,0,5.7-2.5,5.7-5.7
		C369.5,298.3,367,295.7,363.9,295.7z"/>
	<path d="M264.5,239h5.7c3.1,0,5.7-2.5,5.7-5.7s-2.5-5.7-5.7-5.7h-5.7c-3.1,0-5.7,2.5-5.7,5.7S261.4,239,264.5,239z"/>
	<path d="M131.1,307.1h73.8c3.1,0,5.7-2.5,5.7-5.7v-68.1c0-3.1-2.5-5.7-5.7-5.7h-73.8c-3.1,0-5.7,2.5-5.7,5.7v68.1
		C125.4,304.6,128,307.1,131.1,307.1z M136.8,239h62.5v56.8h-62.5V239z"/>
</g>
</svg>
