<?xml version="1.0" encoding="iso-8859-1"?>
<!-- Generator: Adobe Illustrator 19.0.0, SVG Export Plug-In . SVG Version: 6.00 Build 0)  -->
<svg version="1.1" id="Capa_1" xmlns="http://www.w3.org/2000/svg" xmlns:xlink="http://www.w3.org/1999/xlink" x="0px" y="0px"
	 viewBox="0 0 512 512" style="enable-background:new 0 0 512 512;" xml:space="preserve">
<g>
	<g>
		<path d="M467,0H45C20.187,0,0,20.187,0,45v422c0,24.813,20.187,45,45,45h422c24.813,0,45-20.187,45-45V45
			C512,20.187,491.813,0,467,0z M30,45c0-8.271,6.729-15,15-15h76v90H30V45z M482,467c0,8.271-6.729,15-15,15H45
			c-8.271,0-15-6.729-15-15V150h452V467z M482,120H151V30h316c8.271,0,15,6.729,15,15V120z"/>
	</g>
</g>
<g>
	<g>
		<path d="M437,60h-31c-8.284,0-15,6.716-15,15s6.716,15,15,15h31c8.284,0,15-6.716,15-15S445.284,60,437,60z"/>
	</g>
</g>
<g>
	<g>
		<path d="M346,60h-30c-8.284,0-15,6.716-15,15s6.716,15,15,15h30c8.284,0,15-6.716,15-15S354.284,60,346,60z"/>
	</g>
</g>
<g>
	<g>
		<path d="M256,60h-30c-8.284,0-15,6.716-15,15s6.716,15,15,15h30c8.284,0,15-6.716,15-15S264.284,60,256,60z"/>
	</g>
</g>
<g>
	<g>
		<path d="M391,364.58V346c0-24.813-20.187-45-45-45h-75v-32.58c17.459-6.192,30-22.865,30-42.42c0-24.813-20.187-45-45-45
			s-45,20.187-45,45c0,19.555,12.541,36.228,30,42.42V301h-75c-24.813,0-45,20.187-45,45v18.58c-17.459,6.192-30,22.865-30,42.42
			c0,24.813,20.187,45,45,45s45-20.187,45-45c0-19.555-12.541-36.228-30-42.42V346c0-8.271,6.729-15,15-15h75v33.58
			c-17.459,6.192-30,22.865-30,42.42c0,24.813,20.187,45,45,45s45-20.187,45-45c0-19.555-12.541-36.228-30-42.42V331h75
			c8.271,0,15,6.729,15,15v18.58c-17.459,6.192-30,22.865-30,42.42c0,24.813,20.187,45,45,45s45-20.187,45-45
			C421,387.445,408.459,370.772,391,364.58z M136,422c-8.271,0-15-6.729-15-15s6.729-15,15-15s15,6.729,15,15S144.271,422,136,422z
			 M256,422c-8.271,0-15-6.729-15-15s6.729-15,15-15s15,6.729,15,15S264.271,422,256,422z M256,241c-8.271,0-15-6.729-15-15
			s6.729-15,15-15s15,6.729,15,15S264.271,241,256,241z M376,422c-8.271,0-15-6.729-15-15s6.729-15,15-15s15,6.729,15,15
			S384.271,422,376,422z"/>
	</g>
</g>
<g>
</g>
<g>
</g>
<g>
</g>
<g>
</g>
<g>
</g>
<g>
</g>
<g>
</g>
<g>
</g>
<g>
</g>
<g>
</g>
<g>
</g>
<g>
</g>
<g>
</g>
<g>
</g>
<g>
</g>
</svg>
