<?xml version="1.0" encoding="utf-8"?>
<!-- Generator: Adobe Illustrator 22.1.0, SVG Export Plug-In . SVG Version: 6.00 Build 0)  -->
<svg version="1.1" id="Capa_1" xmlns="http://www.w3.org/2000/svg" xmlns:xlink="http://www.w3.org/1999/xlink" x="0px" y="0px"
	 viewBox="0 0 487.8 487.8" style="enable-background:new 0 0 487.8 487.8;" xml:space="preserve">
<g>
	<path d="M401.7,188.6l-16.2-16.2c-2.7-2.7-6.4-4.3-10.3-4.3s-7.5,1.5-10.3,4.3l-2.2,2.2c-21.4-14.2-46.2-21.8-72.2-21.8
		c-0.1,0-0.1,0-0.3,0c-16.2,0-31.8,2.9-46.5,8.5l28.4-28.4c3.6,1.7,7.5,2.6,11.6,2.6c7.2,0,14-2.8,19-7.9c5.1-5.1,7.9-11.9,7.9-19
		c0-7.2-2.8-14-7.9-19c-5.1-5.1-11.9-7.9-19-7.9c-7.2,0-14,2.8-19,7.9c-5.1,5.1-7.9,11.9-7.9,19c0,4.1,0.9,8.1,2.6,11.6l-51.1,51.1
		l-1.7-1.7c-2.7-2.7-6.4-4.3-10.3-4.3s-7.5,1.5-10.3,4.3l-16.4,16.3c-2.7,2.7-4.3,6.4-4.3,10.3s1.5,7.5,4.3,10.3l1.7,1.7L120.3,259
		c-3.6-1.7-7.5-2.6-11.6-2.6c-7.2,0-14,2.8-19,7.9c-10.5,10.5-10.5,27.6,0,38.1c5.1,5.1,11.9,7.9,19,7.9s14-2.8,19-7.9
		c8.3-8.3,10.1-20.6,5.3-30.6l28.4-28.4c-5.6,14.8-8.5,30.6-8.5,46.8c0.1,26,7.6,50.9,21.8,72.2l-2.7,2.7c-5.7,5.7-5.7,14.9,0,20.6
		l16.2,16.2c2.7,2.7,6.4,4.3,10.3,4.3c3.9,0,7.5-1.5,10.3-4.3l16.2-16.2c5.7-5.7,5.7-14.9,0-20.6L208.8,349
		c-2.7-2.7-6.4-4.3-10.3-4.3c-3.9,0-7.5,1.5-10.3,4.3l-0.5,0.5c-23.4-37.9-22.4-86.9,3.1-123.8c1.7,0.7,3.4,1,5.3,1
		c3.9,0,7.5-1.5,10.3-4.3l16.2-16.2c4.2-4.2,5.3-10.3,3.3-15.5c36.9-25.5,85.9-26.6,123.8-3.1l-1,1c-5.7,5.7-5.7,14.9,0,20.6
		l16.2,16.2c2.7,2.7,6.4,4.3,10.3,4.3c3.9,0,7.5-1.5,10.3-4.3l16.2-16.2C407.4,203.5,407.4,194.3,401.7,188.6z M209.9,375.6
		L198.5,387l-11.4-11.4l11.4-11.4L209.9,375.6z M277.3,102.2c1.7-1.7,3.9-2.6,6.3-2.6s4.7,0.9,6.3,2.6c1.7,1.7,2.6,3.9,2.6,6.3
		c0,2.4-0.9,4.7-2.6,6.3c-1.7,1.7-3.9,2.6-6.3,2.6s-4.7-0.9-6.3-2.6l0,0l0,0c-1.7-1.7-2.6-3.9-2.6-6.3
		C274.7,106.1,275.6,103.9,277.3,102.2z M115.1,289.8c-1.7,1.7-3.9,2.6-6.3,2.6c-2.4,0-4.7-0.9-6.3-2.6c-3.5-3.5-3.5-9.2,0-12.7
		c1.7-1.7,3.9-2.6,6.3-2.6c2.4,0,4.7,0.9,6.3,2.6C118.6,280.6,118.6,286.3,115.1,289.8z M196.2,207.3L184.8,196l11.4-11.4l5.7,5.7
		l0,0l0,0l5.7,5.7L196.2,207.3z M375.2,210.2l-11.4-11.4l11.4-11.4l11.4,11.4L375.2,210.2z"/>
</g>
</svg>
