<?xml version="1.0" encoding="utf-8"?>
<!-- Generator: Adobe Illustrator 22.1.0, SVG Export Plug-In . SVG Version: 6.00 Build 0)  -->
<svg version="1.1" id="Layer_1" xmlns="http://www.w3.org/2000/svg" xmlns:xlink="http://www.w3.org/1999/xlink" x="0px" y="0px"
	 viewBox="0 0 512 512" style="enable-background:new 0 0 512 512;" xml:space="preserve">
<g>
	<g>
		<path d="M408.2,210c-2.3-1.4-5.2-1.5-7.6-0.2l-50,26.9v-23.1c0-4.3-3.5-7.7-7.7-7.7h-12.6c15.7-12.7,25.7-32.1,25.7-53.8
			c0-38.2-31.1-69.3-69.3-69.3c-32.6,0-60,22.6-67.4,53c-9.6-11.6-24.1-19-40.2-19c-28.8,0-52.3,23.4-52.3,52.3
			c0,14.3,5.8,27.3,15.2,36.8H135c-4.3,0-7.7,3.5-7.7,7.7v35.1h-19.6c-4.3,0-7.7,3.5-7.7,7.7v30.4c0,4.3,3.5,7.7,7.7,7.7h19.6v35.1
			c0,4.3,3.5,7.7,7.7,7.7h91.2l-41.9,80.4c-2,3.8-0.5,8.5,3.3,10.4c1.1,0.6,2.4,0.9,3.6,0.9c2.8,0,5.5-1.5,6.9-4.2l40.9-78.5
			l40.9,78.5c1.4,2.6,4.1,4.2,6.9,4.2c1.2,0,2.4-0.3,3.6-0.9c3.8-2,5.3-6.6,3.3-10.4l-41.9-80.4h91.2c4.3,0,7.7-3.5,7.7-7.7v-23.1
			l50,26.9c1.1,0.6,2.4,0.9,3.7,0.9c1.4,0,2.7-0.4,4-1.1c2.3-1.4,3.8-3.9,3.8-6.6V216.7C412,213.9,410.6,211.4,408.2,210z
			 M127.3,279.2h-11.8v-14.9h11.8V279.2z M286.7,98.3c29.7,0,53.8,24.1,53.8,53.8S316.4,206,286.7,206c-29.7,0-53.8-24.1-53.8-53.8
			C232.9,122.5,257.1,98.3,286.7,98.3z M227.7,188.4c4.1,6.7,9.4,12.6,15.5,17.6h-27C221.2,201,225.1,195,227.7,188.4z M179.1,132.4
			c20.3,0,36.8,16.5,36.8,36.8S199.4,206,179.1,206c-20.3,0-36.8-16.5-36.8-36.8C142.4,148.9,158.9,132.4,179.1,132.4z M335.2,249.7
			v44V322h-96.1c0,0,0,0,0,0h-0.2c0,0,0,0,0,0h-96.1v-35.1v-30.4v-35.1h192.4V249.7z M396.5,313.8l-45.9-24.7v-34.8l45.9-24.7V313.8
			z"/>
	</g>
</g>
<g>
	<g>
		<path d="M179.1,145.7c-12.9,0-23.5,10.5-23.5,23.5c0,12.9,10.5,23.5,23.5,23.5c12.9,0,23.5-10.5,23.5-23.5
			C202.6,156.2,192.1,145.7,179.1,145.7z M179.1,178.8c-5.3,0-9.6-4.3-9.6-9.6c0-5.3,4.3-9.6,9.6-9.6s9.6,4.3,9.6,9.6
			C188.7,174.5,184.4,178.8,179.1,178.8z"/>
	</g>
</g>
<g>
	<g>
		<path d="M286.7,118.4c-18.6,0-33.7,15.1-33.7,33.7c0,18.6,15.1,33.7,33.7,33.7c18.6,0,33.7-15.1,33.7-33.7
			C320.5,133.6,305.3,118.4,286.7,118.4z M286.7,170.4c-10.1,0-18.3-8.2-18.3-18.3c0-10.1,8.2-18.3,18.3-18.3
			c10.1,0,18.3,8.2,18.3,18.3C305,162.2,296.8,170.4,286.7,170.4z"/>
	</g>
</g>
<g>
	<g>
		<path d="M261.8,243.9h-84c-4.1,0-7.3,3.3-7.3,7.3v40.9c0,4.1,3.3,7.3,7.3,7.3h84c4.1,0,7.3-3.3,7.3-7.3v-40.9
			C269.2,247.2,265.9,243.9,261.8,243.9z M254.5,284.9h-69.4v-26.2h69.4L254.5,284.9L254.5,284.9z"/>
	</g>
</g>
<g>
	<g>
		<circle cx="302.4" cy="259" r="7.7"/>
	</g>
</g>
<g>
	<g>
		<circle cx="302.4" cy="284.5" r="7.7"/>
	</g>
</g>
</svg>
