<?xml version="1.0" encoding="utf-8"?>
<!-- Generator: Adobe Illustrator 22.1.0, SVG Export Plug-In . SVG Version: 6.00 Build 0)  -->
<svg version="1.1" id="Calque_1" xmlns="http://www.w3.org/2000/svg" xmlns:xlink="http://www.w3.org/1999/xlink" x="0px" y="0px"
	 viewBox="0 0 56.7 56.7" style="enable-background:new 0 0 56.7 56.7;" xml:space="preserve">
<style type="text/css">
	.st0{fill:#D291FF;}
</style>
<title>Shape</title>
<desc>Created with Sketch.</desc>
<g id="Welcome">
	<g id="Desktop-HD-Copy-9" transform="translate(-686.000000, -1498.000000)">
		<g id="Group-38" transform="translate(677.000000, 1484.000000)">
			<path id="Shape" class="st0" d="M26.6,46.7l-1.6,6c0,0.2-0.1,0.2-0.3,0.2h-3.1c-0.2,0-0.2-0.1-0.2-0.3l5.9-19.9
				c0.1-0.4,0.2-0.6,0.2-1.6c0-0.1,0.1-0.2,0.2-0.2H32c0.1,0,0.2,0,0.2,0.2l6.6,21.6c0,0.2,0,0.3-0.2,0.3h-3.4
				c-0.2,0-0.3-0.1-0.3-0.2l-1.7-6H26.6z M32.4,43.5c-0.6-2.2-2-7.1-2.5-9.4h0c-0.4,2.3-1.6,6.3-2.4,9.4
				C27.5,43.5,32.4,43.5,32.4,43.5z M43.6,45.5c0,2.7,1.4,4.5,4.5,4.5c1.2,0,2.3-0.2,3.4-0.6c0.1-0.1,0.2,0,0.2,0.1v2.5
				c0,0.2-0.1,0.3-0.2,0.4c-1.1,0.5-2.5,0.8-4.2,0.8c-5.5,0-7.6-3.9-7.6-8.3c0-4.7,2.5-8.6,7-8.6c4.5,0,6.1,3.7,6.1,6.7
				c0,1-0.1,1.7-0.2,2.1c0,0.2-0.1,0.2-0.3,0.3c-0.4,0.1-1.6,0.1-3.5,0.1L43.6,45.5z M47.8,42.7c1.1,0,1.4,0,1.5,0
				c0-0.1,0-0.2,0-0.3c0-1.1-0.5-3.1-2.7-3.1c-2,0-2.9,1.7-3.1,3.5H47.8z"/>
		</g>
	</g>
</g>
</svg>
