<?xml version="1.0" encoding="utf-8"?>
<!-- Generator: Adobe Illustrator 22.1.0, SVG Export Plug-In . SVG Version: 6.00 Build 0)  -->
<svg version="1.1" id="Calque_1" xmlns="http://www.w3.org/2000/svg" xmlns:xlink="http://www.w3.org/1999/xlink" x="0px" y="0px"
	 viewBox="0 0 25.5 25.5" style="enable-background:new 0 0 25.5 25.5;" xml:space="preserve">
<style type="text/css">
	.st0{fill:#FFFFFF;}
</style>
<g id="hackages">
	<g id="Desktop-HD-Copy-57" transform="translate(-1015.000000, -471.000000)">
		<g id="Group-3" transform="translate(786.000000, 38.000000)">
			<g id="Group-2" transform="translate(216.000000, 423.000000)">
				<g id="agile" transform="translate(13.000000, 10.000000)">
					<path id="Combined-Shape" class="st0" d="M19.6,16l0.8,1.1c0.1,0.1,0.1,0.2,0,0.3l-0.8,1.1c-0.1,0.1-0.1,0.1-0.2,0.1h-14
						c-0.1,0-0.3-0.1-0.3-0.3v-2.1c0-0.1,0.1-0.3,0.3-0.3h2.5c-0.6-0.9-0.9-2.1-0.9-3.2c0-2.7,1.9-5,4.5-5.7s5.3,0.6,6.5,3
						c1,1.9,0.8,4.1-0.3,5.9h1.7C19.5,15.9,19.5,16,19.6,16z M15.6,11.3c-0.7-1.4-2.4-2.1-3.9-1.6c-1.5,0.6-2.4,2.2-2,3.7
						s1.9,2.6,3.5,2.4c1.6-0.2,2.8-1.6,2.8-3.2C15.9,12.2,15.8,11.8,15.6,11.3z"/>
					<path id="Shape" d="M19.6,16c-0.1-0.1-0.1-0.1-0.2-0.1h-1.7c1.1-1.8,1.2-4,0.3-5.9c-1.2-2.4-3.9-3.6-6.5-3s-4.5,3-4.5,5.7
						c0,1.1,0.3,2.2,0.9,3.2H5.3c-0.1,0-0.3,0.1-0.3,0.3v2.1c0,0.1,0.1,0.3,0.3,0.3h14c0.1,0,0.2,0,0.2-0.1l0.8-1.1
						c0.1-0.1,0.1-0.2,0-0.3L19.6,16z M12.8,7.4c1.8,0,3.4,0.9,4.4,2.4l-1.1-0.2c-0.1,0-0.3,0.1-0.3,0.2l-0.1,0.7
						c-1-1.2-2.6-1.7-4.1-1.2c-1.5,0.5-2.5,1.9-2.5,3.4l-0.6,0.8l-1-0.8C7.5,9.7,9.9,7.4,12.8,7.4z M15.6,11.3
						c0.2,0.4,0.3,0.9,0.3,1.4c0,1.6-1.2,3-2.8,3.2c-1.6,0.2-3.1-0.9-3.5-2.4s0.5-3.2,2-3.7C13.2,9.2,14.9,9.9,15.6,11.3z M8.4,14
						c0.1,0,0.1,0.1,0.2,0.1c0.1,0,0.1,0,0.2-0.1l0.4-0.5c0.2,1,0.8,2,1.7,2.5H8.5c-0.6-0.8-0.9-1.7-1-2.6L8.4,14z M12.8,16.5
						c1.3,0,2.4-0.7,3.1-1.8c0.7-1.1,0.8-2.4,0.2-3.6l0.2-1l1.3,0.3c0.8,1.6,0.7,3.6-0.3,5.1s-2.7,2.5-4.5,2.5H5.6v-1.6H12.8z
						 M17.3,16.5h2l0.6,0.8l-0.6,0.8h-4.1C16,17.7,16.7,17.2,17.3,16.5z"/>
				</g>
			</g>
		</g>
	</g>
</g>
</svg>
