<?xml version="1.0" encoding="utf-8"?>
<!-- Generator: Adobe Illustrator 22.1.0, SVG Export Plug-In . SVG Version: 6.00 Build 0)  -->
<svg version="1.1" id="Calque_1" xmlns="http://www.w3.org/2000/svg" xmlns:xlink="http://www.w3.org/1999/xlink" x="0px" y="0px"
	 viewBox="0 0 56.7 56.7" style="enable-background:new 0 0 56.7 56.7;" xml:space="preserve">
<style type="text/css">
	.st0{fill:#FF7F18;}
</style>
<title>Shape</title>
<desc>Created with Sketch.</desc>
<g id="Welcome">
	<g id="Desktop-HD-Copy-9" transform="translate(-587.000000, -1498.000000)">
		<g id="Group-39" transform="translate(575.000000, 1484.000000)">
			<path id="Shape" class="st0" d="M48.5,37.5c0-0.2,0.1-0.2,0.3-0.2H52c0.2,0,0.2,0.1,0.2,0.2v15.8c0,0.2,0,0.2-0.2,0.2h-3.2
				c-0.2,0-0.3-0.1-0.3-0.3L48.5,37.5L48.5,37.5z M48.3,32.9c0-1.3,0.9-2,2.1-2c1.3,0,2.1,0.8,2.1,2c0,1.3-0.9,2-2.2,2
				C49.1,34.9,48.3,34.2,48.3,32.9z M38.9,44.1c-0.6-2.2-2-7.1-2.5-9.4h0c-0.4,2.4-1.5,6.3-2.4,9.4H38.9z M33.1,47.3l-1.6,6
				c0,0.2-0.1,0.2-0.3,0.2h-3.1c-0.2,0-0.3-0.1-0.2-0.3l5.9-20c0.1-0.4,0.2-0.7,0.2-1.7c0-0.1,0.1-0.2,0.2-0.2h4.4
				c0.1,0,0.2,0,0.3,0.2l6.6,21.7c0,0.2,0,0.3-0.2,0.3h-3.5c-0.2,0-0.3,0-0.3-0.2l-1.7-6H33.1z"/>
		</g>
	</g>
</g>
</svg>
