<?xml version="1.0" encoding="utf-8"?>
<!-- Generator: Adobe Illustrator 22.1.0, SVG Export Plug-In . SVG Version: 6.00 Build 0)  -->
<svg version="1.1" id="Laag_1" xmlns="http://www.w3.org/2000/svg" xmlns:xlink="http://www.w3.org/1999/xlink" x="0px" y="0px"
	 viewBox="0 0 2489.2 2487.6" style="enable-background:new 0 0 2489.2 2487.6;" xml:space="preserve">
<style type="text/css">
	.st0{fill:#FFFFFF;}
</style>
<g>
	<path class="st0" d="M1279.2,1333h162.4c46.2,0,75.4-25.4,75.4-66.2c0-38.5-29.2-66.2-75.4-66.2h-162.4c-5.4,0-10,4.6-10,9.3v113.9
		C1269.9,1329.1,1273.8,1333,1279.2,1333z M1279.2,1595.3h167.7c51.6,0,82.3-26.2,82.3-72.3c0-40-29.2-72.3-82.3-72.3h-167.7
		c-5.4,0-10,4.6-10,9.3v125.4C1269.9,1591.5,1273.8,1595.3,1279.2,1595.3z"/>
	<path class="st0" d="M1873.2,603.5l-480.2,478.6h78.5c122.3,0,194.7,76.9,194.7,160.8c0,66.2-44.6,114.6-92.4,136.2
		c-7.7,3.1-7.7,13.9,0.8,16.9c55.4,21.6,94.6,79.3,94.6,147c0,95.4-63.9,171.6-187.8,171.6h-340.1c-5.4,0-10-4.6-10-9.3v-362.4
		l-527.1,524.8c-6.9,6.9-2.3,19.2,7.7,19.2h1267.3c4.6,0,8.5-3.8,8.5-8.5v-1268C1890.1,602,1879.4,597.4,1873.2,603.5z"/>
</g>
</svg>
