<?xml version="1.0" encoding="utf-8"?>
<!-- Generator: Adobe Illustrator 22.1.0, SVG Export Plug-In . SVG Version: 6.00 Build 0)  -->
<svg version="1.1" id="Layer_1" xmlns="http://www.w3.org/2000/svg" xmlns:xlink="http://www.w3.org/1999/xlink" x="0px" y="0px"
	 viewBox="0 0 2500 2500" style="enable-background:new 0 0 2500 2500;" xml:space="preserve">
<style type="text/css">
	.st0{fill:#0ACF83;}
	.st1{fill:#A259FF;}
	.st2{fill:#F24E1E;}
	.st3{fill:#FF7262;}
	.st4{fill:#1ABCFE;}
</style>
<title>Figma.logo</title>
<desc>Created using Figma</desc>
<path id="path0_fill" class="st0" d="M1024,1935c124.8,0,226-101.2,226-226v-226h-226c-124.8,0-226,101.2-226,226
	S899.2,1935,1024,1935z"/>
<path id="path1_fill" class="st1" d="M798,1257c0-124.8,101.2-226,226-226h226v452h-226C899.2,1483,798,1381.7,798,1257z"/>
<path id="path1_fill_1_" class="st2" d="M798,805c0-124.8,101.2-226,226-226h226v452h-226C899.2,1031,798,929.7,798,805z"/>
<path id="path2_fill" class="st3" d="M1250,579h226c124.8,0,226,101.2,226,226s-101.2,226-226,226h-226V579z"/>
<path id="path3_fill" class="st4" d="M1702,1257c0,124.8-101.2,226-226,226s-226-101.2-226-226s101.2-226,226-226
	S1702,1132.2,1702,1257z"/>
</svg>
