<?xml version="1.0" encoding="utf-8"?>
<!-- Generator: Adobe Illustrator 22.1.0, SVG Export Plug-In . SVG Version: 6.00 Build 0)  -->
<svg version="1.1" id="Calque_1" xmlns="http://www.w3.org/2000/svg" xmlns:xlink="http://www.w3.org/1999/xlink" x="0px" y="0px"
	 viewBox="0 0 2551.2 2551.2" style="enable-background:new 0 0 2551.2 2551.2;" xml:space="preserve">
<style type="text/css">
	.st0{fill:#3685E1;}
</style>
<path class="st0" d="M865.9,1005.4c47.6,0,73.5-22.8,73.5-73.5c0-29.5-21.2-73.5-73.5-73.5c-52.1,0-73.5,27.7-73.5,73.5
	C792.4,977.6,818.5,1005.4,865.9,1005.4"/>
<path class="st0" d="M1057.5,858.4c-47.9,0-69.6,23.3-72.9,62.3h-0.7c0.2,2.2,0.3,4.5,0.3,6.7c-0.1,1.5-0.1,2.9-0.1,4.4v5.2
	c-3.2,57-45.9,103.5-101.1,112.7c-5.5,1.2-11.7,2.2-17.8,2.2c-4.6,0-8.3-0.7-12.3-1.5c-57.6-7.1-102.8-54.7-106.2-113.4v-5.3
	c0-1.5-0.1-3-0.1-4.5c0.1-2.2,0.2-4.5,0.3-6.7h-0.7c-3.3-39-25.1-62.3-72.9-62.3h-73.5v73.5c0,50.7,25.8,73.5,73.5,73.5h12.7
	c56.4,6.4,101,51.5,106.9,108.1c-0.3,3.3-0.4,6.5-0.4,9.8c0,45.8,14,73.5,73.5,73.5c47.6,0,73.5-22.8,73.5-73.5v-20.1
	c9.8-51.8,52.5-91.9,105.4-97.9h12.7c47.4,0,73.5-22.8,73.5-73.5v-73.5H1057.5"/>
<path class="st0" d="M1684.6,1005.4c47.6,0,73.5-22.8,73.5-73.5c0-29.5-21.2-73.5-73.5-73.5c-52.3,0-73.5,27.7-73.5,73.5
	C1611.1,977.6,1637.2,1005.4,1684.6,1005.4"/>
<path class="st0" d="M1876.2,858.4c-47.9,0-69.6,23.3-72.9,62.3h-0.7c0.1,2.2,0.3,4.5,0.3,6.7c-0.1,1.5-0.1,2.9-0.1,4.5v5.3
	c-3.2,57-45.9,103.5-101.1,112.7h-17c-4.6,0-8.9,0.3-13,0.7c-57.6-7.1-102.8-54.7-106.1-113.4v-5.3c0-1.5-0.1-3-0.1-4.5
	c0.1-2.2,0.2-4.5,0.3-6.7h-0.7c-3.3-39-25.1-62.3-72.9-62.3h-73.5v73.5c0,50.7,25.8,73.5,73.5,73.5h12.7
	c56.4,6.4,101,51.5,106.9,108.1c-0.3,3.3-0.4,6.6-0.4,9.8c0,45.8,13.8,73.5,73.5,73.5c47.6,0,73.5-22.8,73.5-73.5v-20.1
	c9.7-51.8,52.5-91.9,105.4-97.9h12.7c47.4,0,73.5-22.8,73.5-73.5v-73.5H1876.2"/>
<path class="st0" d="M1684.6,1402.1c47.6,0,73.5-22.8,73.5-73.5c0-29.5-21.2-73.5-73.5-73.5c-52.3,0-73.5,27.8-73.5,73.5
	C1611.1,1374.3,1637.2,1402.1,1684.6,1402.1"/>
<path class="st0" d="M1876.2,1255.1c-47.9,0-69.6,23.3-72.9,62.3h-0.7c0.1,2.2,0.3,4.5,0.3,6.7c-0.1,1.5-0.1,2.9-0.1,4.5v5.3
	c-3.2,57-45.9,103.5-101.1,112.6h-17c-4.6,0-8.9,0.3-13,0.7c-57.6-7.1-102.8-54.6-106.1-113.4v-5.3c0-1.5-0.1-3-0.1-4.5
	c0.1-2.2,0.2-4.5,0.3-6.7h-0.7c-3.3-39-25.1-62.3-72.9-62.3h-73.5v73.5c0,50.7,25.8,73.5,73.5,73.5h12.7
	c56.4,6.3,101,51.5,106.9,108.1c-0.3,3.3-0.4,6.6-0.4,9.8c0,45.7,13.8,73.5,73.5,73.5c47.6,0,73.5-22.8,73.5-73.5v-20.1
	c9.7-51.8,52.5-91.9,105.4-97.9h12.7c47.4,0,73.5-22.8,73.5-73.5v-73.5H1876.2"/>
<path class="st0" d="M870.1,1402.1c47.6,0,73.5-22.8,73.5-73.5c0-29.5-21.2-73.5-73.5-73.5c-52.3,0-73.5,27.8-73.5,73.5
	C796.7,1374.3,822.5,1402.1,870.1,1402.1"/>
<path class="st0" d="M1061.7,1255.1c-47.9,0-69.8,23.3-73.2,62.3h-0.5c0.1,1.2,0.2,2.5,0.2,3.7c-0.1,2.4-0.2,4.9-0.2,7.5v8.1
	c-4.4,55.7-46.6,100.8-100.9,109.9h-17c-4.6,0-8.9,0.3-13,0.7c-57.6-7.1-102.8-54.6-106.1-113.4v-5.3c0-1.5-0.1-3-0.1-4.5
	c0.1-2.2,0.2-4.5,0.3-6.7h-0.7c-3.3-39-25.1-62.3-72.9-62.3H604v73.5c0,50.7,25.8,73.5,73.5,73.5h12.7
	c56.4,6.3,101,51.5,106.9,108.1c-0.2,3.2-0.4,6.5-0.4,9.9c0,45.7,13.8,73.5,73.5,73.5c47.6,0,73.5-22.8,73.5-73.5v-20.1
	c9.7-51.8,52.5-91.9,105.4-97.9h12.7c47.4,0,73.5-22.8,73.5-73.5v-73.5H1061.7"/>
<path class="st0" d="M1270.3,1201.8c47.6,0,73.5-22.8,73.5-73.5c0-29.5-21.2-73.5-73.5-73.5c-52.3,0-73.5,27.8-73.5,73.5
	C1196.8,1174,1222.6,1201.8,1270.3,1201.8"/>
<path class="st0" d="M1461.7,1054.8c-47.9,0-69.6,23.3-72.9,62.3h-0.5c0.1,1.7,0.2,3.3,0.2,4.9c-0.1,2-0.2,4.1-0.2,6.2v5.3
	c-3.2,57-45.7,103.4-100.9,112.7h-17c-4.7,0-9,0.3-13.2,0.7c-57.7-7.1-102.7-54.7-106-113.4v-5.3c0-1.5-0.1-3-0.1-4.5
	c0.1-2.2,0.2-4.5,0.3-6.7h-0.7c-3.4-39-25.1-62.3-72.9-62.3h-73.5v73.5c0,50.7,25.8,73.5,73.5,73.5h12.6
	c56.5,6.4,101.2,51.5,107,108.1c-0.2,3.2-0.4,6.5-0.4,9.8c0,45.7,13.8,73.4,73.5,73.4c47.6,0,73.5-22.7,73.5-73.4v-20.1
	c9.7-51.7,52.3-91.9,105.4-97.8h12.6c47.6,0,73.5-22.8,73.5-73.5v-73.5H1461.7"/>
<path class="st0" d="M1270.3,1608c47.6,0,73.5-22.8,73.5-73.5c0-29.4-21.2-73.5-73.5-73.5c-52.3,0-73.5,27.8-73.5,73.5
	C1196.8,1580.3,1222.6,1608,1270.3,1608 M1270.3,807.3c47.6,0,73.5-22.8,73.5-73.5c0-29.5-21.2-73.5-73.5-73.5
	c-52.3,0-73.5,27.8-73.5,73.5C1196.8,779.5,1222.6,807.3,1270.3,807.3"/>
<path class="st0" d="M1461.7,660.3c-47.9,0-69.6,23.3-72.9,62.3h-0.5c0.1,1.6,0.2,3.3,0.2,4.9c-0.1,2.1-0.2,4.2-0.2,6.2v5.3
	c-3.2,57-45.7,103.4-100.9,112.7h-17c-4.7,0-9,0.3-13.2,0.7c-57.7-7.1-102.7-54.7-106-113.4v-5.3c0-1.5-0.1-3-0.1-4.5
	c0.1-2.2,0.2-4.5,0.3-6.7h-0.7c-3.3-39-25.1-62.3-72.9-62.3h-73.5v73.5c0,50.7,25.8,73.5,73.5,73.5h12.7
	c56.5,6.4,101,51.5,106.9,108.1c-0.2,3.2-0.4,6.5-0.4,9.8c0,45.7,13.8,73.5,73.5,73.5c47.6,0,73.5-22.8,73.5-73.5v-20.1
	c9.7-51.7,52.2-91.8,105.2-97.8h12.7c47.6,0,73.5-22.8,73.5-73.5v-73.5H1461.7 M1461.7,1461.1c-47.9,0-69.6,23.3-72.9,62.3h-0.5
	c0.1,1.6,0.2,3.3,0.2,4.9c-0.1,2-0.2,4.1-0.2,6.2v5.3c-3.6,62.9-55,113-118.6,114.3c-63.6-1.3-115-51.4-118.6-114.3v-5.3
	c0-1.5-0.1-3-0.1-4.5c0.1-2.2,0.2-4.5,0.3-6.7h-0.7c-3.3-39-25.1-62.3-72.9-62.3h-73.5v73.5c0,50.7,25.8,73.5,73.5,73.5h12.6
	c54.8,6.2,96.7,49,104.6,103.3c0.7,5.4-0.1,8.5-0.1,13.1v113.7c0,27.3,22.2,49.6,49.5,49.6h46.4c27.1,0,49.5-22.4,49.5-49.6v-111.3
	c0.8-61.5,48.9-112,109-118.8h12.6c47.6,0,73.5-22.8,73.5-73.5v-73.5H1461.7"/>
</svg>
