<?xml version="1.0" encoding="utf-8"?>
<!-- Generator: Adobe Illustrator 22.1.0, SVG Export Plug-In . SVG Version: 6.00 Build 0)  -->
<svg version="1.1" id="Calque_1" xmlns="http://www.w3.org/2000/svg" xmlns:xlink="http://www.w3.org/1999/xlink" x="0px" y="0px"
	 viewBox="0 0 2500 2500" style="enable-background:new 0 0 2500 2500;" xml:space="preserve">
<style type="text/css">
	.st0{fill:#423426;}
</style>
<path class="st0" d="M1009,1028.9c63.5-0.3,128.6,17.9,177.9,59c25.3,20.5,45.7,46.1,63.1,73.5c31.2-50.5,76.8-93.3,133-114
	c68.5-25.7,145.9-23.9,214.3,1.3c59.7,21.8,112,59.8,159.3,101.6c37.1,32.7,71.3,68.5,109.5,100c20.1,16.3,41.7,31.6,66.5,40.1
	c32.9,11.2,71.7,0.6,95.3-24.7c21.8-23.7,20.4-64.7-3.6-86.3c-15.2-13.2-41.3-10.5-52.1,7c-9.4,13.9-4.1,31.3,3.2,44.7
	c-19.6-14.3-39.3-34.3-39.2-60.4c-4.1-30.1,18.3-56.7,45.1-67.3c52.3-20.9,117.8-2.9,150.8,43.1c31.7,42.9,34.2,99.4,28.7,150.6
	c-6.7,48.6-33.9,94-74.2,122.1c-56.6,40.4-128.3,52.9-196.5,52c-65.6-1.8-130.5-16.6-191.3-41.1c-101.6-40.8-196.7-97.3-301.6-129.9
	c-34.8-13.5-71.8-20.8-109-23.1c-29.6-0.2-57.7-1.6-85.7,0.3c-34.1,3.3-68.1,10.3-100,22.8c-106.7,33.2-203.2,91.1-306.8,132
	c-87.4,34-184.3,49.8-277.1,30.9c-51.9-10.5-103.6-33.5-138.6-74.4c-30-34.8-44.4-81.3-42.9-126.9c-1.7-43,7.8-88.7,36.2-122.2
	c26.5-31.8,69.1-47.9,110-44.3c26.3,1.2,53.1,12.7,69.3,33.9c12.8,16.8,13.6,39.8,8,59.4c-6.8,17.7-20.9,31.4-36.3,42
	c7.8-13.2,12.6-30.6,3.3-44.4c-11.4-18.4-39.4-20.2-54.2-5.1c-18.3,18.8-22.1,49.4-9.8,72.4c13.3,24.1,40.7,37.8,67.3,40.7
	c40.2,3.5,75.1-21.5,104.6-45.6c61.1-52.6,116.1-112.8,183.8-157.2C875.3,1053.9,941.1,1028.5,1009,1028.9L1009,1028.9z"/>
</svg>
