<?xml version="1.0" encoding="utf-8"?>
<!-- Generator: Adobe Illustrator 22.1.0, SVG Export Plug-In . SVG Version: 6.00 Build 0)  -->
<svg version="1.1" id="Calque_1" xmlns="http://www.w3.org/2000/svg" xmlns:xlink="http://www.w3.org/1999/xlink" x="0px" y="0px"
	 viewBox="0 0 25 25" style="enable-background:new 0 0 25 25;" xml:space="preserve">
<style type="text/css">
	.st0{fill:#EBEBEB;}
	.st1{fill:#FFFFFF;}
</style>
<title>Group 7</title>
<desc>Created with Sketch.</desc>
<g id="portfolio">
	<g id="Desktop-HD-Copy-46" transform="translate(-401.000000, -698.000000)">
		<g id="Group-7" transform="translate(400.450000, 698.920000)">
			<polygon id="Path" class="st0" points="13.1,10 9.8,10 9.6,7.1 13,7.1 13.1,4.9 13,4.9 7,4.9 7,5.5 7.6,12.4 13.1,12.4 			"/>
			<polygon id="Path_1_" class="st0" points="13.1,16.2 13,16.2 10.3,15.5 10.2,13.6 8.9,13.6 7.7,13.6 8.1,17.3 13,18.7 13.1,18.7 
							"/>
			<polygon id="Path_2_" class="st1" points="13.1,10 13.1,12.4 16.3,12.4 16,15.5 13.1,16.2 13.1,18.7 18.4,17.3 18.4,16.9 
				19.1,10.6 19.1,10 18.4,10 			"/>
			<polygon id="Path_3_" class="st1" points="13.1,4.9 13.1,6.3 13.1,7.1 13.1,7.1 18.9,7.1 18.9,7.1 18.9,7.1 19,6.6 19.1,5.5 
				19.1,4.9 			"/>
		</g>
	</g>
</g>
</svg>
