<?xml version="1.0" encoding="utf-8"?>
<!-- Generator: Adobe Illustrator 22.1.0, SVG Export Plug-In . SVG Version: 6.00 Build 0)  -->
<svg version="1.1" id="Calque_1" xmlns="http://www.w3.org/2000/svg" xmlns:xlink="http://www.w3.org/1999/xlink" x="0px" y="0px"
	 viewBox="0 0 56.7 56.7" style="enable-background:new 0 0 56.7 56.7;" xml:space="preserve">
<style type="text/css">
	.st0{fill:#FF408C;}
</style>
<title>Shape</title>
<desc>Created with Sketch.</desc>
<g id="Welcome">
	<g id="Desktop-HD-Copy-9" transform="translate(-385.000000, -1498.000000)">
		<path id="Shape" class="st0" d="M419.9,1523.8c-0.3-0.1-0.7-0.2-1.2-0.2c-2.7,0-4.6,2-4.6,5.4c0,3.9,1.9,5.4,4.3,5.4
			c0.5,0,1.1-0.1,1.5-0.2V1523.8z M418.8,1520.5c0.4,0,0.7,0,1.1,0v-5.5c0-0.1,0.1-0.2,0.2-0.2h3.4c0.2,0,0.2,0.1,0.2,0.2v19.2
			c0,0.6,0,1.3,0.1,2.1c0,0.1,0,0.2-0.2,0.2c-1.8,0.8-3.7,1.2-5.5,1.2c-4.6,0-7.9-2.8-7.9-8.5
			C410.3,1524.3,413.6,1520.5,418.8,1520.5z M406.6,1537.1c0,0.2,0,0.3-0.3,0.3h-3.2c-0.2,0-0.3-0.1-0.3-0.3v-22
			c0-0.2,0.1-0.3,0.3-0.3h3.2c0.2,0,0.3,0.1,0.3,0.2V1537.1z"/>
	</g>
</g>
</svg>
