<?xml version="1.0" encoding="utf-8"?>
<!-- Generator: Adobe Illustrator 22.1.0, SVG Export Plug-In . SVG Version: 6.00 Build 0)  -->
<svg version="1.1" id="Calque_1" xmlns="http://www.w3.org/2000/svg" xmlns:xlink="http://www.w3.org/1999/xlink" x="0px" y="0px"
	 viewBox="0 0 566.9 566.9" style="enable-background:new 0 0 566.9 566.9;" xml:space="preserve">
<style type="text/css">
	.st0{fill:#21609B;}
</style>
<g>
	<path class="st0" d="M405.8,345l-1.1,3c-19.6,38.1-54.2,61.5-103.7,62.5c-23.1,0.5-45.1-5.5-59.5-11.9
		c-31.1-14-57.2-39.8-71.4-67.5c-20.5-39.6-24.2-94.8,18.4-135.9c0.7,0-5.2,8.9-4.5,8.9l-1.2,3.8c-30.7,96,63.8,178.2,155.6,168.8
		C360.4,374.5,388.5,362.4,405.8,345"/>
	<path class="st0" d="M350.2,305.3c23.1,0.2,47.2-10.6,61.5-25.8c-12.5,31.7-48.7,52.1-97.2,45.6c-40.6-5.4-79.4-46.3-83.3-87.3
		c-2.9-29.8,7.5-47.6,24.6-69.2c-6,11.3-8.2,20-8.7,25.6C240.5,258.7,298.6,305,350.2,305.3"/>
	<path class="st0" d="M409.4,225.2c-3.6,8.2-24.3,23.8-33.4,25.7c-36.2,7.7-59.3-9.4-71.4-29c-1.8-2.9-5.1-10.9-5.7-12.9
		c-4.7-16-2.5-40.2,11.5-52.7c-4.2,11.9-4.8,25.7-2.6,34.7c1.3,5.4,5.5,14.9,9.6,20.9c7.5,10.9,12.2,13.5,21.8,19.3
		c4.3,2.6,9,4.7,11,5.3C359.2,239.2,378.4,246.3,409.4,225.2"/>
</g>
</svg>
