<?xml version="1.0" encoding="utf-8"?>
<!-- Generator: Adobe Illustrator 22.1.0, SVG Export Plug-In . SVG Version: 6.00 Build 0)  -->
<svg version="1.1" id="Calque_1" xmlns="http://www.w3.org/2000/svg" xmlns:xlink="http://www.w3.org/1999/xlink" x="0px" y="0px"
	 viewBox="0 0 56.7 56.7" style="enable-background:new 0 0 56.7 56.7;" xml:space="preserve">
<style type="text/css">
	.st0{fill:#EA77FF;}
</style>
<title>Shape</title>
<desc>Created with Sketch.</desc>
<g id="Welcome">
	<g id="Desktop-HD-Copy-9" transform="translate(-786.000000, -1498.000000)">
		<g id="Group-37" transform="translate(773.000000, 1484.000000)">
			<path id="Shape" class="st0" d="M28.9,31.2c0-0.1,0-0.2,0.2-0.2c1.3-0.1,3.3-0.1,5.4-0.1c5.8,0,8.3,3.1,8.3,7
				c0,5.1-3.8,7.3-8.5,7.3c-0.8,0-1.1,0-1.6,0v7.7c0,0.2-0.1,0.2-0.2,0.2h-3.2c-0.2,0-0.2-0.1-0.2-0.2
				C28.8,52.8,28.8,31.2,28.9,31.2z M32.6,41.9c0.5,0,0.9,0,1.7,0c2.4,0,4.7-0.8,4.7-4c0-2.6-1.6-3.8-4.4-3.8c-0.8,0-1.6,0-2,0.1
				V41.9z M45.9,40c0-0.2,0-0.8-0.1-1.9c0-0.2,0-0.2,0.2-0.3c1.3-0.5,4.3-1.4,7.6-1.4c0.2,0,0.2,0,0.2,0.2v2.9
				c0,0.2-0.1,0.2-0.2,0.2c-1.3-0.1-3.2,0.1-3.9,0.4v12.7c0,0.2-0.1,0.2-0.2,0.2h-3.3c-0.2,0-0.2-0.1-0.2-0.2V40z"/>
		</g>
	</g>
</g>
</svg>
