<?xml version="1.0" encoding="utf-8"?>
<!-- Generator: Adobe Illustrator 22.1.0, SVG Export Plug-In . SVG Version: 6.00 Build 0)  -->
<svg version="1.1" id="Calque_1" xmlns="http://www.w3.org/2000/svg" xmlns:xlink="http://www.w3.org/1999/xlink" x="0px" y="0px"
	 viewBox="0 0 2500 2500" style="enable-background:new 0 0 2500 2500;" xml:space="preserve">
<style type="text/css">
	.st0{fill:url(#SVGID_1_);}
</style>
<linearGradient id="SVGID_1_" gradientUnits="userSpaceOnUse" x1="952.6521" y1="1669.9756" x2="952.6521" y2="1669.615" gradientTransform="matrix(1800.3628 0 0 -2465.7146 -1713869.375 4118284)">
	<stop  offset="0" style="stop-color:#D378E5"/>
	<stop  offset="1" style="stop-color:#7526C2"/>
</linearGradient>
<path class="st0" d="M731.6,1801.3v-682c0-286.3,232.1-518.4,518.4-518.4s518.4,232.1,518.4,518.4c0,282.6-226,512.3-507.2,518.3
	v0.1c-80.9,0-146.5-65.6-146.5-146.5c0-80.2,64.4-145.3,144.3-146.5v-0.2c120.3-4.7,216.4-103.8,216.4-225.2
	c0-124.5-100.9-225.4-225.4-225.4s-225.4,100.9-225.4,225.4v755.1c0,80.9-65.6,146.5-146.5,146.5c-30.1,0-59.6-9.2-84.2-26.6
	c42.1-12.3,72.9-51.2,72.9-97.4c0-56-45.4-101.4-101.4-101.4C753.5,1795.5,742.1,1797.5,731.6,1801.3z M1261.3,1592.6
	c56,0,101.4-45.4,101.4-101.4s-45.4-101.4-101.4-101.4s-101.4,45.4-101.4,101.4S1205.2,1592.6,1261.3,1592.6z"/>
</svg>
