<?xml version="1.0" encoding="utf-8"?>
<!-- Generator: Adobe Illustrator 22.1.0, SVG Export Plug-In . SVG Version: 6.00 Build 0)  -->
<svg version="1.1" id="Calque_1" xmlns="http://www.w3.org/2000/svg" xmlns:xlink="http://www.w3.org/1999/xlink" x="0px" y="0px"
	 viewBox="0 0 56.7 56.7" style="enable-background:new 0 0 56.7 56.7;" xml:space="preserve">
<style type="text/css">
	.st0{fill:#00C8FF;}
</style>
<title>Shape</title>
<desc>Created with Sketch.</desc>
<g id="Welcome">
	<g id="Desktop-HD-Copy-9" transform="translate(-484.000000, -1497.000000)">
		<path id="Shape" class="st0" d="M498.3,1513.7c0-0.1,0.3-0.3,0.5-0.3c1.4-0.1,3.5-0.1,5.7-0.1c6.1,0,8.5,3.2,8.5,7.4
			c0,5.4-4.1,7.8-9.1,7.8c-0.8,0-1.1,0-1.7,0v8.2c0,0.2-0.1,0.3-0.3,0.3h-3.4c-0.2,0-0.3-0.1-0.3-0.3V1513.7z M502.3,1525.1
			c0.5,0,0.9,0,1.8,0c2.6,0,5-0.9,5-4.3c0-2.7-1.7-4.1-4.7-4.1c-0.9,0-1.7,0-2.1,0.1V1525.1z M521.3,1522.5c-1.7,0-2.3,0.9-2.3,1.6
			c0,0.8,0.4,1.3,2.7,2.5c3.5,1.6,4.5,3.2,4.5,5.5c0,3.4-2.7,5.3-6.3,5.3c-1.9,0-3.6-0.4-4.5-0.9c-0.2-0.1-0.2-0.2-0.2-0.3v-3.1
			c0-0.2,0.1-0.3,0.3-0.2c1.4,0.9,3,1.3,4.4,1.3c1.7,0,2.5-0.7,2.5-1.7c0-0.8-0.5-1.5-2.7-2.6c-3.1-1.5-4.4-2.9-4.4-5.4
			c0-2.8,2.2-5,6.1-5c1.9,0,3.2,0.3,4,0.6c0.2,0.1,0.2,0.3,0.2,0.4v2.9c0,0.2-0.1,0.3-0.3,0.2
			C524.1,1522.9,522.7,1522.5,521.3,1522.5z"/>
	</g>
</g>
</svg>
