<?xml version="1.0" encoding="utf-8"?>
<!-- Generator: Adobe Illustrator 22.1.0, SVG Export Plug-In . SVG Version: 6.00 Build 0)  -->
<svg version="1.1" id="Calque_1" xmlns="http://www.w3.org/2000/svg" xmlns:xlink="http://www.w3.org/1999/xlink" x="0px" y="0px"
	 viewBox="0 0 56.7 56.7" style="enable-background:new 0 0 56.7 56.7;" xml:space="preserve">
<style type="text/css">
	.st0{fill:#FFFFFF;}
</style>
<title>Combined Shape Copy</title>
<desc>Created with Sketch.</desc>
<g id="Welcome">
	<g id="Desktop-HD-Copy-48" transform="translate(-888.000000, -339.000000)">
		<path id="Combined-Shape-Copy" class="st0" d="M914.2,369.3c-1.2-1.2-1.1-3,0-4.2c1.2-1.2,3.1-1.2,4.2,0c1.2,1.2,1.1,3,0,4.2
			C917.2,370.4,915.3,370.4,914.2,369.3z M910.4,366.3c0-0.2,0.1-0.3,0.1-0.5c0.1-0.4,0.2-0.7,0.3-1.1c-0.4,0.2-0.8,0.3-1.1,0.5
			C909.9,365.6,910.1,365.9,910.4,366.3z M909.9,368.2c-0.6-0.8-1.2-1.5-1.6-2.3c-3.2,1.8-5.1,3.8-4.8,5.1c0.3,1.2,2.6,1.9,5.8,2
			C909.4,371.5,909.6,369.9,909.9,368.2z M913.3,358.7c-2.6-1.3-4.7-1.7-5.6-0.9c-0.9,0.9-0.4,3.3,1.2,6.1c0.8-0.4,1.7-0.8,2.6-1.1
			C912,361.3,912.6,359.9,913.3,358.7z M914.1,357.4c1.9-2.9,4-4.6,5.7-4.1c1.9,0.5,2.9,3.3,2.9,7.3c4.2-0.1,7.4,1,7.9,3.1
			c0.5,1.8-1.2,4-4.2,6c1.7,3.3,2.1,6.1,0.7,7.5c-1.5,1.5-4.8,1-8.4-1.1c-2,3.7-4.5,5.8-6.4,5.3c-1.8-0.5-2.8-3.1-2.9-6.8
			c-3.9,0-6.8-1.1-7.3-3.1c-0.5-2.1,1.7-4.6,5.5-6.8c-1.9-3.4-2.3-6.4-0.9-7.9C908,355.4,910.8,355.7,914.1,357.4z M925.1,370.4
			c-1.4,0.8-3,1.5-4.8,2.1c-0.3,0.7-0.6,1.5-0.9,2.1c3.1,1.8,5.7,2.4,6.6,1.5C926.8,375.3,926.5,373.1,925.1,370.4z M922.5,364.1
			c1.3,1.4,2.3,2.8,3.2,4.2c2.4-1.6,3.8-3.2,3.5-4.3c-0.3-1.3-2.9-2-6.5-2C922.6,362.7,922.6,363.4,922.5,364.1z M922.1,366.1
			c-0.2,0.9-0.4,1.8-0.6,2.7c-0.2,0.6-0.4,1.3-0.6,1.9c1.2-0.5,2.3-1,3.3-1.6C923.7,368.1,923,367.1,922.1,366.1z M920.9,364.6
			c-0.3-0.3-0.6-0.6-0.9-0.9c-0.5-0.5-0.9-0.9-1.4-1.3c-1.1,0.2-2.3,0.4-3.5,0.8c-0.9,0.2-1.8,0.5-2.6,0.8c-0.2,0.7-0.5,1.4-0.7,2.2
			c-0.1,0.5-0.3,1.1-0.4,1.6c0.7,0.8,1.4,1.6,2.2,2.4c0.7,0.7,1.5,1.4,2.3,2.1c0.5-0.1,1-0.2,1.5-0.4c0.6-0.2,1.2-0.3,1.8-0.5
			c0.3-0.9,0.6-1.9,0.9-2.9C920.5,367.1,920.7,365.8,920.9,364.6z M921.1,362.7c0-0.2,0-0.4,0-0.6c-0.2,0-0.4,0-0.6,0
			C920.8,362.3,921,362.5,921.1,362.7L921.1,362.7z M911.1,369.7c-0.2,1.1-0.3,2.2-0.3,3.2c1-0.1,2.1-0.2,3.2-0.3
			c-0.5-0.4-0.9-0.9-1.4-1.3C912.1,370.7,911.6,370.2,911.1,369.7z M918.1,373.9c0.1-0.2,0.2-0.5,0.3-0.8c-0.2,0.1-0.4,0.1-0.6,0.2
			c-0.1,0-0.2,0.1-0.4,0.1C917.7,373.5,917.9,373.7,918.1,373.9z M917.4,375.2c-0.6-0.4-1.3-0.9-1.9-1.4c-1.7,0.3-3.2,0.5-4.7,0.6
			c0.1,3,0.8,5.1,1.8,5.4C913.8,380.2,915.7,378.4,917.4,375.2z M914.5,359.4c-0.5,0.8-0.9,1.8-1.3,2.8c0.5-0.2,1-0.3,1.6-0.5
			c0.8-0.2,1.6-0.4,2.3-0.6C916.2,360.5,915.4,359.9,914.5,359.4z M915.3,358.1c1.2,0.7,2.5,1.7,3.8,2.8c0.7-0.1,1.4-0.2,2.1-0.2
			c0-3.3-0.7-5.6-1.9-5.9C918.4,354.4,916.8,355.7,915.3,358.1z"/>
	</g>
</g>
</svg>
