<?xml version="1.0" encoding="utf-8"?>
<!-- Generator: Adobe Illustrator 22.1.0, SVG Export Plug-In . SVG Version: 6.00 Build 0)  -->
<svg version="1.1" id="Calque_1" xmlns="http://www.w3.org/2000/svg" xmlns:xlink="http://www.w3.org/1999/xlink" x="0px" y="0px"
	 viewBox="0 0 56.7 56.7" style="enable-background:new 0 0 56.7 56.7;" xml:space="preserve">
<style type="text/css">
	.st0{fill:#FFFFFF;}
</style>
<title>Shape Copy</title>
<desc>Created with Sketch.</desc>
<g id="Welcome">
	<g id="Desktop-HD-Copy-48" transform="translate(-1015.000000, -337.000000)">
		<path id="Shape-Copy" class="st0" d="M1059.9,367.6c-1.2,0-2.3,0.3-3.2,0.8c-0.3-0.7-0.7-1.3-0.7-1.7c-0.1-0.5-0.1-0.8-0.1-1.4
			c0.1-0.6,0.4-1.5,0.4-1.5c0-0.1-0.1-0.4-0.8-0.4c-0.7,0-1.3,0.1-1.4,0.3c-0.1,0.2-0.2,0.6-0.3,1.1c-0.1,0.7-1.4,3-2.2,4.2
			c-0.2-0.5-0.5-0.9-0.5-1.2c-0.1-0.5-0.1-0.8-0.1-1.4c0.1-0.6,0.4-1.5,0.4-1.5c0-0.1-0.1-0.4-0.8-0.4c-0.7,0-1.3,0.1-1.4,0.3
			c-0.1,0.2-0.1,0.6-0.3,1.1c-0.1,0.4-1.9,4.4-2.3,5.4c-0.2,0.5-0.4,0.9-0.6,1.2c-0.1,0.3,0,0,0,0c-0.1,0.2-0.2,0.4-0.2,0.4l0,0
			c-0.1,0.2-0.2,0.3-0.3,0.3c0,0-0.1-0.5,0-1.1c0.3-1.4,0.9-3.5,0.9-3.6c0,0,0.1-0.4-0.4-0.6s-0.7,0.1-0.7,0.1l-0.1,0.1
			c0,0,0.6-2.4-1.1-2.4c-1,0-2.4,1.1-3.1,2.2c-0.4,0.2-1.4,0.8-2.4,1.3c-0.4,0.2-0.8,0.4-1.2,0.6l-0.1-0.1c-2-2.2-5.7-3.7-5.5-6.6
			c0.1-1.1,0.4-3.8,7.1-7.2c5.4-2.8,9.8-2,10.6-0.3c1.1,2.4-2.3,6.9-8,7.5c-2.2,0.2-3.3-0.6-3.6-0.9c-0.3-0.3-0.3-0.3-0.5-0.3
			c-0.2,0.1-0.1,0.4,0,0.6c0.2,0.4,0.9,1.2,2,1.6c1,0.3,3.6,0.5,6.6-0.7c3.4-1.3,6.1-5.1,5.3-8.2c-0.8-3.2-6-4.2-10.9-2.5
			c-2.9,1.1-6.1,2.7-8.4,4.9c-2.7,2.6-3.1,4.8-3,5.7c0.6,3.3,5.1,5.5,6.9,7.1c-0.1,0-0.2,0.1-0.3,0.1c-0.9,0.5-4.3,2.3-5.2,4.2
			c-1,2.2,0.2,3.8,0.9,4c2.3,0.7,4.7-0.5,6-2.5c1.3-1.9,1.1-4.5,0.5-5.6l0,0l0.7-0.4c0.5-0.3,0.9-0.5,1.3-0.7
			c-0.2,0.6-0.4,1.3-0.5,2.4c-0.1,1.2,0.4,2.9,1.1,3.5c0.3,0.3,0.6,0.3,0.9,0.3c0.8,0,1.1-0.6,1.5-1.4c0.5-0.9,0.9-2,0.9-2
			s-0.5,2.9,0.9,2.9c0.5,0,1-0.7,1.3-1l0,0c0,0,0,0,0-0.1l0.1-0.1l0,0c0.2-0.4,0.7-1.2,1.4-2.6c0.9-1.8,1.8-4,1.8-4s0.1,0.6,0.3,1.5
			c0.2,0.5,0.5,1.1,0.7,1.7c-0.2,0.3-0.3,0.5-0.3,0.5l0,0c-0.2,0.2-0.4,0.5-0.5,0.7c-0.7,0.9-1.6,1.8-1.7,2.1
			c-0.1,0.3-0.1,0.6,0.2,0.8c0.2,0.1,0.5,0.2,0.9,0.1c0.6,0,1.1-0.2,1.3-0.3c0.3-0.1,0.7-0.3,1.1-0.6c0.7-0.5,1.1-1.3,1.1-2.3
			c0-0.5-0.2-1.1-0.4-1.6c0.1-0.1,0.1-0.2,0.2-0.3c1.1-1.6,1.9-3.4,1.9-3.4s0.1,0.6,0.3,1.5c0.1,0.5,0.4,1,0.6,1.5
			c-1,0.9-1.7,1.8-1.9,2.5c-0.4,1.2-0.1,1.7,0.5,1.9c0.3,0.1,0.7-0.1,1-0.2c0.4-0.1,0.8-0.3,1.2-0.6c0.7-0.5,1.4-1.2,1.3-2.2
			c0-0.5-0.1-0.9-0.3-1.3c0.9-0.4,2-0.6,3.4-0.4c3.1,0.4,3.7,2.3,3.6,3.1c-0.1,0.8-0.8,1.3-1,1.4s-0.3,0.2-0.3,0.3
			c0,0.1,0.1,0.1,0.3,0.1c0.3,0,1.6-0.7,1.7-2.2C1065,369.7,1063.2,367.5,1059.9,367.6z M1036.5,376.2c-1.1,1-2.7,1.4-3.3,1.1
			c-0.7-0.3-0.4-1.8,0.9-2.9c0.8-0.6,1.9-1.2,2.6-1.6c0.2-0.1,0.4-0.2,0.7-0.3h0.1c0.1,0,0.1-0.1,0.2-0.1
			C1038.1,373.8,1037.6,375.2,1036.5,376.2z M1043.5,370.9c-0.4,0.9-1.3,3.3-1.8,3.2c-0.5-0.1-0.7-1.9-0.1-3.7c0.3-0.9,1-2,1.4-2.4
			c0.7-0.7,1.4-0.9,1.6-0.6C1044.8,367.7,1043.7,370.3,1043.5,370.9z M1050,373.9c-0.1,0.1-0.3,0.1-0.3,0.1l0.1-0.1c0,0,0.7-0.7,1-1
			c0.2-0.2,0.4-0.4,0.6-0.6v0.1C1051.3,373.2,1050.4,373.7,1050,373.9z M1054.8,372.3c-0.1-0.1-0.1-0.5,0.3-1.5
			c0.2-0.4,0.5-1.2,1.2-1.8c0.1,0.3,0.1,0.6,0.1,0.8C1056.4,371.4,1055.4,372.1,1054.8,372.3z"/>
	</g>
</g>
</svg>
