<?xml version="1.0" encoding="utf-8"?>
<!-- Generator: Adobe Illustrator 22.1.0, SVG Export Plug-In . SVG Version: 6.00 Build 0)  -->
<svg version="1.1" id="Calque_1" xmlns="http://www.w3.org/2000/svg" xmlns:xlink="http://www.w3.org/1999/xlink" x="0px" y="0px"
	 viewBox="0 0 398.7 398.7" style="enable-background:new 0 0 398.7 398.7;" xml:space="preserve">
<style type="text/css">
	.st0{fill:#FDB300;}
	.st1{fill:#EA6C00;}
	.st2{fill:#FDAD00;}
	.st3{fill:#FDD231;}
	.st4{fill:#FEEEB7;}
</style>
<title>Fichier 10</title>
<g id="Calque_2_1_">
	<g id="Calque_1-2">
		<path id="b" class="st0" d="M132.8,118.5l66.5-7l66.5,7l51.5,68.5l-118,136.2L81.3,187L132.8,118.5z"/>
		<path id="c" class="st1" d="M129.1,187.8l70.2,135.3l-118-135.3H129.1z"/>
		<path id="d" class="st1" d="M269.6,187.8l-70.2,135.3l118-135.3H269.6z"/>
		<path id="e" class="st2" d="M128.1,187.8h140.1l-70.1,135.3L128.1,187.8z"/>
		<path id="f" class="st3" d="M196.9,111.5l-65.2,7l-3.6,69.3L196.9,111.5z"/>
		<path id="g" class="st3" d="M199.3,111.5l65.2,7l3.6,69.3L199.3,111.5z"/>
		<path id="h" class="st2" d="M317.3,187.8l-51.6-68.9l3.7,68.9H317.3z"/>
		<path id="i" class="st2" d="M81.3,187.8l51.6-68.9l-3.7,68.9H81.3z"/>
		<path id="j" class="st4" d="M198.1,111.5l-70.1,76.3h140.1L198.1,111.5z"/>
	</g>
</g>
</svg>
