<?xml version="1.0" encoding="utf-8"?>
<!-- Generator: Adobe Illustrator 22.1.0, SVG Export Plug-In . SVG Version: 6.00 Build 0)  -->
<svg version="1.1" id="Calque_1" xmlns="http://www.w3.org/2000/svg" xmlns:xlink="http://www.w3.org/1999/xlink" x="0px" y="0px"
	 viewBox="0 0 575 575" style="enable-background:new 0 0 575 575;" xml:space="preserve">
<style type="text/css">
	.st0{fill:#FDB300;}
	.st1{fill:#EA6C00;}
	.st2{fill:#FDAD00;}
	.st3{fill:#FDD231;}
	.st4{fill:#FEEEB7;}
</style>
<title>logo-light</title>
<desc>Created using Figma</desc>
<g>
	<g>
		<path id="b" class="st0" d="M175.1,120.5l112.3-11.8l112.4,11.8l87,115.7l-199.3,230l-199.3-230L175.1,120.5z"/>
	</g>
	<g transform="translate(0 16.391)">
		<path id="c" class="st1" d="M168.9,237.6l118.6,228.6L88.2,237.6H168.9z"/>
	</g>
	<g transform="matrix(-1 0 0 1 50.71 16.391)">
		<path id="d" class="st1" d="M406.1,237.6L287.5,466.2l199.3-228.6H406.1z"/>
	</g>
	<g transform="translate(10.04 16.391)">
		<path id="e" class="st2" d="M167.1,237.6h236.7L285.5,466.2L167.1,237.6z"/>
	</g>
	<g transform="translate(10.04)">
		<path id="f" class="st3" d="M283.4,108.8l-110.2,11.9l-6.1,117L283.4,108.8z"/>
	</g>
	<g transform="matrix(-1 0 0 1 40.14 0)">
		<path id="g" class="st3" d="M287.5,108.8l110.2,11.9l6.1,117L287.5,108.8z"/>
	</g>
	<g transform="matrix(-1 0 0 1 50.71 1.586)">
		<path id="h" class="st2" d="M486.8,237.6l-87.2-116.4l6.3,116.4H486.8z"/>
	</g>
	<g transform="translate(1052 180)">
		<g transform="translate(-1052 -178.414)">
			<path id="i" class="st2" d="M-963.8,57.6l87.2-116.4l-6.3,116.4H-963.8z"/>
		</g>
	</g>
	<g transform="translate(1052 180)">
		<g transform="translate(-1041.96 -180)">
			<path id="j" class="st4" d="M-766.5-71.2L-884.9,57.6h236.7L-766.5-71.2z"/>
		</g>
	</g>
</g>
</svg>
