<?xml version="1.0" encoding="utf-8"?>
<!-- Generator: Adobe Illustrator 22.1.0, SVG Export Plug-In . SVG Version: 6.00 Build 0)  -->
<svg version="1.1" id="Calque_1" xmlns="http://www.w3.org/2000/svg" xmlns:xlink="http://www.w3.org/1999/xlink" x="0px" y="0px"
	 viewBox="0 0 2500 2263" style="enable-background:new 0 0 2500 2263;" xml:space="preserve">
<style type="text/css">
	.st0{fill:#EA6C00;}
	.st1{fill:#FDAD00;}
	.st2{fill:#FDD231;}
	.st3{fill:#FEEEB7;}
</style>
<title>logo-symbol</title>
<desc>Created using Figma</desc>
<g transform="translate(.17 30.901)">
	<path id="a" class="st0" d="M760.3,923.2l487.1,953.4L428.7,923.2H760.3z"/>
</g>
<g transform="matrix(-1 0 0 1 94.64 30.901)">
	<path id="b" class="st0" d="M1734.7,923.2l-487.1,953.4l818.7-953.4H1734.7z"/>
</g>
<g transform="translate(19.3 30.901)">
	<path id="c" class="st1" d="M760.3,923.2h974.2l-487.1,953.4L760.3,923.2z"/>
</g>
<g transform="translate(19.3 .42)">
	<path id="d" class="st2" d="M1247.4,394.9L786,443.6l-25.6,479.6L1247.4,394.9z"/>
</g>
<g transform="matrix(-1 0 0 1 75.5 .42)">
	<path id="e" class="st2" d="M1247.4,394.9l461.4,48.8l25.6,479.6L1247.4,394.9z"/>
</g>
<g transform="matrix(-1 0 0 1 94.64 3.234)">
	<path id="f" class="st1" d="M2066.3,923.2L1709,443.6l25.6,479.6H2066.3z"/>
</g>
<g transform="translate(.17 3.234)">
	<path id="g" class="st1" d="M428.7,923.2L786,443.6l-25.6,479.6H428.7z"/>
</g>
<g transform="translate(19.3 .42)">
	<path id="h" class="st3" d="M1247.4,394.9L760.3,923.2h974.2L1247.4,394.9z"/>
</g>
</svg>
