<?xml version="1.0" encoding="utf-8"?>
<!-- Generator: Adobe Illustrator 22.1.0, SVG Export Plug-In . SVG Version: 6.00 Build 0)  -->
<svg version="1.1" id="Calque_1" xmlns="http://www.w3.org/2000/svg" xmlns:xlink="http://www.w3.org/1999/xlink" x="0px" y="0px"
	 viewBox="0 0 25.5 25.5" style="enable-background:new 0 0 25.5 25.5;" xml:space="preserve">
<style type="text/css">
	.st0{fill:#36C5F0;}
	.st1{fill:#2EB67D;}
	.st2{fill:#ECB22E;}
	.st3{fill:#E01E5A;}
</style>
<title>slack-new-logo</title>
<desc>Created with Sketch.</desc>
<g id="hackages">
	<g id="Desktop-HD-Copy-57" transform="translate(-950.000000, -469.000000)">
		<g id="Group-3" transform="translate(786.000000, 38.000000)">
			<g id="slack-new-logo" transform="translate(164.000000, 431.000000)">
				<path id="Shape" class="st0" d="M11.2,6.2c-0.7,0-1.3,0.6-1.3,1.3c0,0.7,0.6,1.3,1.3,1.3h1.3l0-1.3C12.5,6.8,11.9,6.2,11.2,6.2
					C11.2,6.2,11.2,6.2,11.2,6.2z M11.2,9.6H7.8c-0.7,0-1.3,0.6-1.3,1.3c0,0.7,0.6,1.3,1.3,1.3h3.4c0.7,0,1.3-0.6,1.3-1.3
					C12.5,10.2,11.9,9.6,11.2,9.6z"/>
				<path id="Shape_1_" class="st1" d="M19,10.9c0-0.7-0.6-1.3-1.3-1.3c-0.7,0-1.3,0.6-1.3,1.3v1.3h1.3C18.4,12.2,19,11.6,19,10.9z
					 M15.6,10.9V7.5c0-0.7-0.6-1.3-1.3-1.3c-0.7,0-1.3,0.6-1.3,1.3v3.4c0,0.7,0.6,1.3,1.3,1.3C15,12.2,15.6,11.6,15.6,10.9z"/>
				<path id="Shape_2_" class="st2" d="M14.3,19.3c0.7,0,1.3-0.6,1.3-1.3c0-0.7-0.6-1.3-1.3-1.3h-1.3l0,1.3
					C13.1,18.7,13.6,19.3,14.3,19.3z M14.3,15.9h3.4c0.7,0,1.3-0.6,1.3-1.3c0-0.7-0.6-1.3-1.3-1.3h-3.4c-0.7,0-1.3,0.6-1.3,1.3
					C13.1,15.3,13.6,15.9,14.3,15.9z"/>
				<path id="Shape_3_" class="st3" d="M6.5,14.6c0,0.7,0.6,1.3,1.3,1.3c0.7,0,1.3-0.6,1.3-1.3l0-1.3H7.8
					C7.1,13.4,6.5,13.9,6.5,14.6z M9.9,14.6V18c0,0.7,0.6,1.3,1.3,1.3c0.7,0,1.3-0.6,1.3-1.3v-3.4c0-0.7-0.6-1.3-1.3-1.3
					C10.5,13.4,9.9,13.9,9.9,14.6C9.9,14.6,9.9,14.6,9.9,14.6z"/>
			</g>
		</g>
	</g>
</g>
</svg>
