<?xml version="1.0" encoding="utf-8"?>
<!-- Generator: Adobe Illustrator 22.1.0, SVG Export Plug-In . SVG Version: 6.00 Build 0)  -->
<svg version="1.1" id="Calque_1" xmlns="http://www.w3.org/2000/svg" xmlns:xlink="http://www.w3.org/1999/xlink" x="0px" y="0px"
	 viewBox="0 0 2406.8 2406.8" style="enable-background:new 0 0 2406.8 2406.8;" xml:space="preserve">
<style type="text/css">
	.st0{fill:#FDBD39;}
	.st1{fill:#F69833;}
	.st2{fill:#FECF33;}
	.st3{fill:#EE6723;}
</style>
<path class="st0" d="M656.8,1501.7l-82.7,30.2l-4.4,245.9l286.2-104.5C757.7,1640.4,686,1582.4,656.8,1501.7"/>
<path class="st1" d="M700.1,1241.6l-286.9,104.8L574.1,1532l82.7-30.2C627.7,1421.3,645.6,1330.5,700.1,1241.6"/>
<path class="st2" d="M1182.8,886.7c-365.3,133.4-600.8,408.8-526,615l1322.8-483.2C1904.7,812.3,1548.1,753.3,1182.8,886.7"/>
<path class="st3" d="M1453.6,1633.6c365.3-133.4,601.2-407.6,526-615L656.7,1501.7C732,1709.2,1088.3,1767,1453.6,1633.6"/>
<path class="st1" d="M1979.5,1018.5L656.8,1501.7c25.9,71.4,124.7,106.6,263.2,106.6c135.1,0,308.1-33.4,488.4-99.3
	C1773.7,1375.6,2030.7,1159.5,1979.5,1018.5"/>
<path class="st0" d="M1716.3,911.9c-135.1,0-308.1,33.4-488.4,99.3c-365.3,133.4-622.2,349.5-571.1,490.5l1322.8-483.2
	C1953.7,947.1,1854.9,911.9,1716.3,911.9"/>
<g>
	<path class="st3" d="M1643.2,1790.9c-38.9,0-96.3-35.1-170.7-104.5c-87.9-82-188.6-202.2-283.6-338.3
		C1094,1212,1016,1076,969.2,964.9c-50.9-121-58.2-195.3-21.6-221c8.5-5.8,18.5-8.7,28.8-8.5c29.7,0,87.8,22.1,195,127.7l2.4,2.3
		l-0.3,3.3c-0.7,7.6-1.4,15.2-2,22.8l-1.2,14.9l-10.5-10.6c-115.6-116.4-166.4-129-182.9-129c-4.7,0-8.5,0.9-11.2,2.8
		c-15.9,11.2-16.9,65.8,32.4,183c45.9,109,122.8,243,216.5,377.4c93.8,134.4,192.9,252.7,279.3,333.3
		c93.1,86.9,135.1,96.3,148.8,96.3c4.7,0,8.5-1,11.4-3c16.7-11.8,16.7-70.3-38.3-196.5l-2.6-5.8l5.5-3c5.5-3,10.9-6,15.9-8.9
		l6.6-3.7l3.1,7c39,89.4,75.5,203.1,27.6,236.7C1663.6,1788.2,1653.5,1791.2,1643.2,1790.9L1643.2,1790.9z M1643.2,1777.1v6.9
		V1777.1z"/>
	<path class="st3" d="M1462.4,1629.8l-0.5,6.8c-9.3,114.3-33.6,251.6-97,257.2c-1.3,0.1-2.6,0.1-3.9,0.1
		c-43.1,0-83.9-61.7-121.1-183.4c-35.3-115.2-62.7-269.7-77.1-435.3c-14.4-165.5-14.2-322.5,0.6-442.1
		c16.2-130.3,46.9-198.3,91.4-202.2c1.3-0.1,2.7-0.2,4-0.2c31.3,0,78.3,35.4,126.5,200.2l-31.5,6c-16.1-55-33.6-99.8-51-130.7
		c-16.1-28.4-31.8-44.1-44.1-44.1c-0.4,0-0.8,0-1.2,0.1c-19.3,1.7-47.4,48.5-63,174.8c-14.6,117.4-14.8,272.1-0.5,435.5
		c14.2,163.4,41.2,315.7,75.8,428.8c15.5,50.6,32.5,92.4,49.2,120.7c15.4,26.1,30.3,40.5,41.9,40.5c0.4,0,0.8,0,1.2-0.1
		c18.5-1.6,53.3-50.3,67.9-221.6L1462.4,1629.8z"/>
</g>
</svg>
