<svg xmlns="http://www.w3.org/2000/svg" viewBox="0 0 2406.8 2406.8"><path d="M656.8 1442.8l-82.7 30.2-4.4 245.9 286.2-104.5c-98.2-32.9-169.9-90.9-199.1-171.6" fill="#fdbd39"/><path d="M700.1 1182.7l-286.9 104.8 160.9 185.6 82.7-30.2c-29.1-80.5-11.2-171.3 43.3-260.2" fill="#f69833"/><path d="M1182.8 827.8c-365.3 133.4-600.8 408.8-526 615l1322.8-483.2c-74.9-206.2-431.5-265.2-796.8-131.8" fill="#fecf33"/><path d="M1453.6 1574.7c365.3-133.4 601.2-407.6 526-615L656.7 1442.8c75.3 207.5 431.6 265.3 796.9 131.9" fill="#ee6723"/><path d="M1979.5 959.6L656.8 1442.8c25.9 71.4 124.7 106.6 263.2 106.6 135.1 0 308.1-33.4 488.4-99.3 365.3-133.4 622.3-349.5 571.1-490.5" fill="#f69833"/><path d="M1716.3 853c-135.1 0-308.1 33.4-488.4 99.3-365.3 133.4-622.2 349.5-571.1 490.5l1322.8-483.2c-25.9-71.4-124.7-106.6-263.3-106.6" fill="#fdbd39"/><g fill="#ee6723"><path d="M1643.2 1732c-38.9 0-96.3-35.1-170.7-104.5-87.9-82-188.6-202.2-283.6-338.3C1094 1153.1 1016 1017.1 969.2 906c-50.9-121-58.2-195.3-21.6-221 8.5-5.8 18.5-8.7 28.8-8.5 29.7 0 87.8 22.1 195 127.7l2.4 2.3-.3 3.3-2 22.8-1.2 14.9-10.5-10.6c-115.6-116.4-166.4-129-182.9-129-4.7 0-8.5.9-11.2 2.8-15.9 11.2-16.9 65.8 32.4 183 45.9 109 122.8 243 216.5 377.4 93.8 134.4 192.9 252.7 279.3 333.3 93.1 86.9 135.1 96.3 148.8 96.3 4.7 0 8.5-1 11.4-3 16.7-11.8 16.7-70.3-38.3-196.5l-2.6-5.8 5.5-3 22.5-12.6 3.1 7c39 89.4 75.5 203.1 27.6 236.7-8.3 5.8-18.4 8.8-28.7 8.5zm0-13.8v6.9-6.9z"/><path d="M1462.4 1570.9l-.5 6.8c-9.3 114.3-33.6 251.6-97 257.2-1.3.1-2.6.1-3.9.1-43.1 0-83.9-61.7-121.1-183.4-35.3-115.2-62.7-269.7-77.1-435.3-14.4-165.5-14.2-322.5.6-442.1 16.2-130.3 46.9-198.3 91.4-202.2 1.3-.1 2.7-.2 4-.2 31.3 0 78.3 35.4 126.5 200.2l-31.5 6c-16.1-55-33.6-99.8-51-130.7-16.1-28.4-31.8-44.1-44.1-44.1-.4 0-.8 0-1.2.1-19.3 1.7-47.4 48.5-63 174.8-14.6 117.4-14.8 272.1-.5 435.5 14.2 163.4 41.2 315.7 75.8 428.8 15.5 50.6 32.5 92.4 49.2 120.7 15.4 26.1 30.3 40.5 41.9 40.5.4 0 .8 0 1.2-.1 18.5-1.6 53.3-50.3 67.9-221.6l32.4-11z"/></g></svg>