<?xml version="1.0" encoding="UTF-8"?>
<svg width="138px" height="22px" viewBox="0 0 138 22" version="1.1" xmlns="http://www.w3.org/2000/svg" xmlns:xlink="http://www.w3.org/1999/xlink">
    <!-- Generator: Sketch 52.5 (67469) - http://www.bohemiancoding.com/sketch -->
    <title>Logo</title>
    <desc>Created with Sketch.</desc>
    <defs>
        <polygon id="path-1" points="0.0133669429 0.0253122222 27.2636623 0.0253122222 27.2636623 13.8299944 0.0133669429 13.8299944"></polygon>
    </defs>
    <g id="Symbols" stroke="none" stroke-width="1" fill="none" fill-rule="evenodd">
        <g id="Navbar/1440/regular" transform="translate(-70.000000, -27.000000)">
            <g id="Stacked-Group-3" transform="translate(70.000000, 27.000000)">
                <g id="Logo">
                    <polyline id="Fill-15" fill="#000000" points="108.959616 21.0389561 68.6887808 20.5345358 68.6887808 20.5333333 68.6477164 20.5333333 68.6224119 20.5339345 68.5860089 20.5333333 68.5844551 20.5345358 28.2743308 21.266817 28.2743308 21.4943773 68.5449445 21.9987976 68.5449445 22 68.5860089 22 68.6113134 21.9993988 68.6477164 22 68.6490483 21.9987976 108.959616 21.2665164 108.959616 21.0389561"></polyline>
                    <g id="Group">
                        <path d="M110.626156,4.21715556 L106.107016,4.21715556 L106.107016,4.86203667 C106.647486,4.86203667 107.02176,4.89083222 107.273059,4.98952667 C107.645105,5.13652333 107.747585,5.30302667 107.81041,5.49344889 C107.872343,5.68572889 107.854966,5.95882222 107.854966,6.31760556 L107.854966,10.38103 L101.35685,4.21715556 L97.2872839,4.21715556 L97.2872839,4.89478 C97.6951985,4.89478 98.1004396,4.92984556 98.3606495,4.99184889 C98.6017,5.04851111 98.7580932,5.20224222 98.8601276,5.34923889 C98.9634986,5.49902222 99.0116196,5.76700667 99.0390218,5.96439556 C99.0662013,6.16341 99.0428091,6.45949333 99.0428091,6.8552 L99.0428091,11.7485867 C99.0428091,12.1494022 99.014293,12.4410733 98.9570379,12.6229033 C98.9015651,12.80543 98.7507414,12.9436022 98.5070175,13.0397422 C98.2644075,13.1363467 97.8723105,13.1848811 97.3316176,13.1848811 L97.3316176,13.8299944 L101.806647,13.8299944 L101.806647,13.1848811 C101.232092,13.1848811 100.881209,13.1363467 100.62345,13.0397422 C100.364354,12.9436022 100.204619,12.80543 100.140903,12.6229033 C100.079193,12.4410733 100.046221,12.1494022 100.046221,11.7485867 L100.046221,6.32526889 L108.026063,13.8299944 L108.858378,13.8299944 L108.858378,6.31760556 C108.858378,5.91214556 108.887563,5.61861667 108.949051,5.44189556 C109.007865,5.26076222 109.162699,5.09263333 109.417339,4.99904778 C109.669306,4.90801667 110.04358,4.86203667 110.626156,4.86203667 L110.626156,4.21715556" id="Fill-1" fill="#1A1919"></path>
                        <path d="M124.868188,4.21715556 L120.348825,4.21715556 L120.348825,4.86203667 C120.889295,4.86203667 121.263569,4.89083222 121.514645,4.98999111 C121.887137,5.13698778 121.989394,5.30302667 122.052219,5.49344889 C122.114375,5.68572889 122.096998,5.95882222 122.096998,6.31760556 L122.096998,10.38103 L115.598882,4.21715556 L111.529316,4.21715556 L111.529316,4.89478 C111.937008,4.89478 112.342026,4.92984556 112.602682,4.99184889 C112.843287,5.04851111 112.999903,5.20224222 113.101937,5.34923889 C113.205308,5.49902222 113.253429,5.76700667 113.280608,5.96439556 C113.308011,6.16341 113.284618,6.45949333 113.284618,6.8552 L113.284618,11.7485867 C113.284618,12.1494022 113.256548,12.4410733 113.198624,12.6229033 C113.143152,12.80543 112.992551,12.9436022 112.748827,13.0397422 C112.50644,13.1363467 112.114343,13.1848811 111.573204,13.1848811 L111.573204,13.8299944 L116.048679,13.8299944 L116.048679,13.1848811 C115.473901,13.1848811 115.123019,13.1363467 114.865259,13.0397422 C114.606164,12.9436022 114.446429,12.80543 114.382713,12.6229033 C114.320779,12.4410733 114.28803,12.1494022 114.28803,11.7485867 L114.28803,6.32526889 L122.26765,13.8299944 L123.10041,13.8299944 L123.10041,6.31760556 C123.10041,5.91214556 123.129149,5.61861667 123.19086,5.44189556 C123.249674,5.26076222 123.404954,5.09263333 123.659371,4.99904778 C123.910893,4.90801667 124.285612,4.86203667 124.868188,4.86203667 L124.868188,4.21715556" id="Fill-2" fill="#1A1919"></path>
                        <path d="M96.7583986,8.94682556 C96.7583986,8.45126333 96.6550275,7.92876333 96.4491766,7.37979 C96.2428801,6.82965556 95.9004636,6.30436889 95.4192537,5.80416222 C94.939826,5.30256222 94.2696966,4.88711667 93.4115388,4.55736111 C92.5527128,4.22853444 91.5105368,4.06551444 90.2847881,4.06551444 C88.9398509,4.06551444 87.7858381,4.29286 86.8191854,4.75010556 C85.853201,5.20595778 85.1302721,5.80671667 84.6503989,6.55354333 C84.1707484,7.29874444 83.9303662,8.09155111 83.9303662,8.93057 C83.9303662,9.50926778 84.0560155,10.08634 84.3070912,10.6613222 C84.5599492,11.2360722 84.9453628,11.7634489 85.4680102,12.2455422 C85.9906577,12.7274033 86.6636833,13.1119633 87.4886464,13.3994544 C88.3145007,13.6862489 89.2682321,13.8299944 90.3527367,13.8299944 C91.680297,13.8299944 92.8298541,13.6045067 93.8060864,13.1532989 C94.7787543,12.7018589 95.5150501,12.1017967 96.0125232,11.3542733 C96.5088823,10.6069822 96.7583986,9.80349333 96.7583986,8.94682556 M93.9444343,10.11351 C93.8297014,10.9130511 93.4284703,11.7757567 92.8458944,12.2963989 C92.2486148,12.8302778 91.4726638,13.0244156 90.713867,13.0634289 C89.9363565,13.1038356 89.1029276,13.0302211 88.3969302,12.6482156 C87.6766748,12.2583144 87.20148,11.5635056 86.9316905,10.7546756 C86.647643,9.90311667 86.6298204,8.88621556 86.7490089,7.99796556 C86.8577267,7.18425889 87.1096936,6.33130667 87.6724419,5.74866111 C88.207788,5.19504333 88.9229194,4.94958444 89.6462938,4.86389444 C90.4614545,4.76682556 91.3516929,4.79910444 92.1218516,5.13164667 C93.9223789,5.90843 94.2144466,8.29335222 93.9444343,10.11351" id="Fill-3" fill="#1A1919"></path>
                        <g id="Group-7">
                            <mask id="mask-2" fill="white">
                                <use xlink:href="#path-1"></use>
                            </mask>
                            <g id="Clip-5"></g>
                            <path d="M27.2636623,13.8299944 L27.2636623,13.1848811 C26.9457519,13.16282 26.6822003,13.1082478 26.4752355,13.0258089 C26.2676023,12.9431378 26.0414782,12.7849944 25.7950809,12.55045 C25.5495747,12.3182278 25.2385705,11.9722167 24.8585037,11.5126489 C24.2059741,10.7135722 23.7272148,10.1625089 23.4228941,9.86410333 C23.1161227,9.56546556 22.7460812,9.31280778 22.3083138,9.11147111 C22.9485904,8.97492444 23.4649999,8.78868222 23.855983,8.55506667 C24.2485256,8.31866444 24.533687,8.05253778 24.7090168,7.75181 C24.8865743,7.44968889 24.9750189,7.13944 24.9750189,6.82152778 C24.9750189,6.37426778 24.848033,5.98250889 24.5938383,5.64323222 C24.339198,5.30534889 24.0099257,5.03364889 23.6057984,4.82650667 C23.2021167,4.62006111 22.7754885,4.47120667 22.3263592,4.38110444 C22.020479,4.31468889 21.6034304,4.25895556 21.07655,4.21576222 C20.5487786,4.17280111 19.9811291,4.14423778 19.3758293,4.12984 C18.9447454,4.12426667 18.6344096,4.11962222 18.4492774,4.11962222 C18.2082269,4.11962222 17.9489082,4.12240889 17.6702074,4.12682111 C17.3912839,4.12867889 17.1437726,4.13378778 16.9270054,4.14052222 L14.0994514,4.21227889 L14.0994514,4.88386556 C14.8549064,4.88386556 15.3392353,4.97048444 15.5444179,5.14209667 C15.7507144,5.31301222 15.8556449,5.60468333 15.8556449,6.01362667 L15.8556449,12.05512 C15.8556449,12.4682433 15.7487094,12.7610756 15.5357294,12.9301333 C15.32119,13.1010489 14.8435445,13.1848811 14.0994514,13.1848811 L14.0994514,13.8299944 L20.2241846,13.8299944 L20.2241846,13.1848811 C19.7142358,13.1848811 19.3245894,13.1423844 19.0576961,13.05623 C18.7899117,12.9721656 18.6210426,12.84932 18.5488611,12.6897833 C18.477348,12.5288533 18.4405889,12.3156733 18.4405889,12.0514044 L18.4405889,9.54433333 L18.8981839,9.54433333 C19.480537,9.54433333 19.8933528,9.56918111 20.1361856,9.62003778 C20.3787956,9.66950111 20.5946717,9.78282556 20.783814,9.95885 C20.9720651,10.1360356 21.253662,10.4653267 21.6241491,10.9467233 L22.4517857,12.0242344 C22.5899107,12.1965433 22.7630127,12.41669 22.973542,12.6823522 C23.1827347,12.9482467 23.3749959,13.1813978 23.5516623,13.3776256 C23.7287743,13.5768722 23.8762562,13.7259589 23.9963359,13.8299944 L27.2636623,13.8299944 Z M22.209844,6.80829111 C22.209844,7.65381222 21.9024043,8.19303222 21.2868566,8.42223556 C20.6748734,8.65306444 19.9131804,8.76778222 19.0080156,8.76778222 L18.4405889,8.76778222 L18.4405889,4.92613 C18.5368309,4.92613 18.6223793,4.92566556 18.6970114,4.92148556 C18.7727574,4.91800222 18.8752373,4.91568 19.0080156,4.91568 C19.9613014,4.91568 20.7327968,5.04038333 21.3238385,5.29071889 C21.9144346,5.53942889 22.209844,6.04776333 22.209844,6.80829111 Z" id="Fill-4" fill="#1A1919" mask="url(#mask-2)"></path>
                            <path d="M4.20412633,7.71906667 L4.69268809,7.73810889 C6.13186228,7.73810889 7.89674431,7.58298444 7.89674431,7.58298444 C10.0690953,7.38838222 10.9755968,6.74210778 10.9755968,6.74210778 C12.7442662,5.74935778 12.6792137,4.02998444 12.6792137,4.02998444 C12.9173681,1.63368333 10.4449292,0.753328889 10.4449292,0.753328889 C9.2461372,0.174631111 6.93989398,0.0780266667 6.93989398,0.0780266667 C6.41145417,0.0348333333 5.88657888,0.0503922222 5.2806108,0.0362266667 C4.84997246,0.0304211111 4.53896825,0.0253122222 4.35472722,0.0253122222 C4.1134539,0.0253122222 3.85391243,0.0285633333 3.57521167,0.0327433333 L3.52530841,0.0380844444 C3.24571652,0.0404066667 3.04454403,0.0448188889 2.82710843,0.05225 L0,0.12331 L0,0.795128889 C0.755900622,0.795128889 1.23911561,0.881747778 1.44474375,1.05359222 C1.65170858,1.22404333 1.75574795,1.51571444 1.75574795,1.92489 L1.75574795,4.21854889 L1.75842134,6.76927778 L1.75842134,12.05512 C1.75842134,12.4682433 1.65081745,12.7613078 1.43783749,12.9301333 C1.22352084,13.1010489 0.745652632,13.1848811 0.00222782382,13.1848811 L0.00222782382,13.8299944 L6.50635947,13.8299944 L6.50635947,13.1848811 L6.12629272,13.1848811 C5.61589828,13.1848811 5.22736581,13.1423844 4.95980417,13.05623 C4.69201975,12.9721656 4.52381905,12.84932 4.45119199,12.6897833 C4.38012441,12.5290856 4.34336532,12.3159056 4.34336532,12.0514044 L4.34336532,1.04871556 L4.34559314,0.832284444 C4.44161235,0.832284444 4.52760635,0.83182 4.60246123,0.827175556 C4.67798446,0.824156667 4.78001879,0.821834444 4.91301987,0.821834444 C5.8660829,0.821834444 6.17597319,0.853648889 7.10542129,0.979977778 L7.36273494,1.02874444 C7.88337737,1.12743889 8.36035445,1.27629333 8.75557039,1.48413222 C9.51815449,1.88448333 9.96371925,2.61203556 9.96371925,3.82841556 C9.96371925,5.13373667 9.54600229,6.03777778 8.58692413,6.41328111 C8.58692413,6.41328111 7.43848095,6.96132556 5.21310774,6.96132556 L4.34559314,6.96132556" id="Fill-6" fill="#1A1919" mask="url(#mask-2)"></path>
                        </g>
                        <path d="M34.0353556,13.1848811 C33.4959995,13.1848811 33.1208339,13.1423844 32.8657481,13.0576233 C32.6108851,12.97263 32.4435755,12.8535 32.3653789,12.6962856 C32.2871823,12.5409289 32.2488637,12.3277489 32.2488637,12.0527978 L32.2488637,6.02686333 C32.2488637,5.73960444 32.2887417,5.52108333 32.3698345,5.36735222 C32.4515957,5.21408556 32.6246976,5.09797444 32.8884719,5.016 C33.1518007,4.93565111 33.5545912,4.88433 34.0698869,4.88433 L34.0698869,4.20670556 L27.9103996,4.20670556 L27.9103996,4.88433 C28.6794444,4.88433 29.1381533,4.97280667 29.3551433,5.14209667 C29.5754751,5.31254778 29.662583,5.61350778 29.662583,6.02686333 L29.662583,12.0527978 C29.662583,12.3416822 29.6224822,12.5622933 29.5402755,12.7178822 C29.4602966,12.8741678 29.2867492,12.9902789 29.0231976,13.06877 C28.7592005,13.1458678 28.4261408,13.1848811 27.9103996,13.1848811 L27.9103996,13.8299944 L34.0353556,13.8299944 L34.0353556,13.1848811" id="Fill-8" fill="#1A1919"></path>
                        <path d="M39.9252762,4.20670556 L35.4892334,4.20670556 L35.4892334,4.88433 C36.2587238,4.88433 36.716096,4.97280667 36.9339772,5.14209667 C37.1540862,5.31254778 37.2418624,5.61374 37.2418624,6.02686333 L37.247432,6.16875111 L37.247432,12.0527978 C37.247432,12.3416822 37.2073312,12.5620611 37.1253473,12.7178822 C37.0449228,12.8741678 36.8713753,12.9902789 36.6082694,13.06877 C36.3440494,13.1458678 36.0109898,13.1848811 35.4950258,13.1848811 L35.4950258,13.8297622 L40.0181765,13.8297622 L40.0181765,13.1848811 C39.4785976,13.1848811 39.1036548,13.1423844 38.8483462,13.0576233 C38.5934832,12.97263 38.4406544,12.8384056 38.3617895,12.6818878 C38.2838156,12.5262989 38.2459426,12.3126544 38.2459426,12.0379356 L38.2459426,6.03963556 L42.9143475,13.8297622 L43.5276674,13.8239567 L47.4976494,7.13526 L47.7736768,6.67104778 L48.0543826,6.23818556 L48.0543826,12.0527978 C48.0543826,12.3416822 48.0142817,12.5620611 47.932075,12.7178822 C47.8516506,12.8741678 47.6781031,12.9902789 47.4149971,13.06877 C47.1507772,13.1458678 46.8177176,13.1848811 46.3017536,13.1848811 L46.3017536,13.8297622 L52.4269324,13.8297622 L52.4269324,13.1848811 C51.8871307,13.1848811 51.5121879,13.1423844 51.2571021,13.0576233 C51.0026846,12.97263 50.8351523,12.8535 50.7571784,12.6965178 C50.6792046,12.5409289 50.6404405,12.3277489 50.6404405,12.0527978 L50.6404405,6.02686333 C50.6404405,5.73983667 50.6800957,5.52108333 50.7618569,5.36735222 C50.8431724,5.21408556 51.0160516,5.09797444 51.2798259,5.016 C51.5433775,4.93565111 51.9459452,4.88433 52.4612409,4.88433 L52.4505473,4.20670556 L48.0463624,4.20670556 L46.7702649,6.36846222 L44.0119963,10.9673911 L39.9620353,4.20670556 L39.9252762,4.20670556" id="Fill-9" fill="#1A1919"></path>
                        <path d="M65.3275918,13.8299944 L65.3275918,13.1848811 C64.9241329,13.1848811 64.6120148,13.1342567 64.3890096,13.03115 C64.1677867,12.9301333 63.9935709,12.7861556 63.8681444,12.59852 C63.7407129,12.41251 63.5435505,12.0537267 63.2728699,11.5244922 L59.5528497,4.06969444 L58.6975881,4.06969444 L55.1765125,11.2980756 C54.9290013,11.8038556 54.6993127,12.1949178 54.4865555,12.4707978 C54.2742439,12.74691 54.0487881,12.9373322 53.8159805,13.03533 C53.5813907,13.1354178 53.296452,13.1848811 52.9604962,13.1848811 L52.9604962,13.8299944 L57.1659592,13.8299944 L57.1659592,13.1848811 C56.7948038,13.1848811 56.4675364,13.1463322 56.1899496,13.0713244 C55.9092438,12.9949233 55.7704504,12.8161122 55.7704504,12.5314078 C55.7704504,12.3758189 55.8548849,12.1222322 56.0233084,11.7734344 L56.3196089,11.1485244 L60.2835759,11.1485244 L60.8596911,12.2836267 C60.9309815,12.4315522 60.9659583,12.5752978 60.9659583,12.7169533 C60.9659583,12.9201478 60.8550127,13.04787 60.6346809,13.1043 C60.4118985,13.1574789 60.0574518,13.1848811 59.5711178,13.1848811 L59.5711178,13.8299944 L65.3275918,13.8299944 Z M59.9571997,10.4613789 L56.670714,10.4613789 L58.2731877,7.12457778 L59.9571997,10.4613789 Z" id="Fill-10" fill="#1A1919"></path>
                        <g id="Group-14" transform="translate(66.834715, 0.000000)" fill="#1A1919">
                            <path d="M70.1786781,13.8299944 L70.1786781,13.1848811 C69.7752193,13.1848811 69.4631011,13.1342567 69.2405415,13.0313822 C69.0186503,12.9301333 68.8444345,12.7861556 68.7187852,12.59852 C68.592022,12.41251 68.3948596,12.0537267 68.1246246,11.5244922 L64.4048272,4.06969444 L63.54912,4.06969444 L60.0273761,11.2980756 C59.7805332,11.8038556 59.5501763,12.1949178 59.338533,12.4707978 C59.1253303,12.74691 58.9007656,12.9373322 58.6670669,13.03533 C58.4322543,13.1354178 58.1484295,13.1848811 57.811137,13.1848811 L57.811137,13.8299944 L62.0177139,13.8299944 L62.0177139,13.1848811 C61.6467813,13.1848811 61.3192912,13.1463322 61.041036,13.0713244 C60.7607757,12.9949233 60.6215367,12.8161122 60.6215367,12.5314078 C60.6215367,12.3758189 60.7050801,12.1222322 60.8735036,11.7734344 L61.1711409,11.1485244 L65.1342167,11.1485244 L65.7101091,12.2836267 C65.7816223,12.4315522 65.8172675,12.5752978 65.8172675,12.7169533 C65.8172675,12.9201478 65.7069902,13.04787 65.4853217,13.1043 C65.2629849,13.1574789 64.9083153,13.1848811 64.4215358,13.1848811 L64.4215358,13.8299944 L70.1786781,13.8299944 Z M64.8087316,10.4613789 L61.5213548,10.4613789 L63.1253879,7.12457778 L64.8087316,10.4613789 Z" id="Fill-11"></path>
                            <path d="M15.6698444,6.79714444 C15.6698444,4.63538778 14.5690767,3.20884667 14.5690767,3.20884667 C13.292088,1.19966 10.7884596,0.577304444 10.7884596,0.577304444 C9.23187913,0.0566622222 7.07066724,0.0327433333 7.07066724,0.0327433333 C6.54267299,-0.01045 4.71362964,0.0253122222 4.52894304,0.0253122222 C4.28789251,0.0253122222 4.02835103,0.0285633333 3.75009584,0.0327433333 L3.69974702,0.0380844444 C3.42082348,0.0404066667 0.175106952,0.12331 0.175106952,0.12331 L0.175106952,0.795128889 C0.930339227,0.795128889 1.41399978,0.881747778 1.61962792,1.05359222 C1.82614719,1.22404333 1.93063212,1.51571444 1.93063212,1.92489 L1.93063212,4.21854889 L1.93285995,6.76927778 L1.93285995,12.05512 C1.93285995,12.4682433 1.82525606,12.7613078 1.61249888,12.9301333 C1.39795945,13.1010489 0.920759585,13.1848811 0.176443647,13.1848811 L0.176443647,13.8299944 L6.68124364,13.8299944 C10.101176,13.8299944 11.8682858,13.0272022 11.8682858,13.0272022 C13.1439378,12.5163133 14.1252941,11.5769744 14.5695222,11.0119778 C14.7388368,10.79694 14.8301776,10.6559811 14.8301776,10.6559811 C15.8498526,9.07988889 15.6698444,6.79714444 15.6698444,6.79714444 M12.8970949,6.88446 C12.8937531,7.41253333 12.8483055,7.94037444 12.7603065,8.44940556 C12.672753,8.95820444 12.5430937,9.44796111 12.371774,9.90033 C12.1309463,10.5366189 11.7602364,11.0505267 11.3039781,11.46365 C10.847497,11.8765411 10.4631974,12.1884156 9.87995308,12.4215667 C9.2967088,12.6542533 8.672027,12.80752 8.05024137,12.90366 C7.99142682,12.9127167 7.93394897,12.9150389 7.87580277,12.9231667 C7.76062428,12.9396544 7.64544578,12.958 7.53049008,12.9703078 C7.42867853,12.9812222 7.32619863,12.9874922 7.22394152,12.9958522 C7.17002818,13.0000322 7.11633763,13.0056056 7.06264707,13.0090889 C7.02276903,13.0116433 6.98355933,13.0167522 6.94390406,13.0188422 C6.74763279,13.0306856 6.55024759,13.0381167 6.3528624,13.0429933 C6.18087441,13.0467089 5.98059304,13.0471733 5.77607882,13.0244156 C5.57201016,13.0016578 5.36370863,12.9568389 5.17701699,12.87022 C4.99077092,12.7840656 4.82568918,12.6558789 4.70716895,12.4682433 C4.5888715,12.2801433 4.51691279,12.03213 4.51691279,11.7049289 L4.51691279,1.04871556 C4.51691279,0.993214444 4.51646723,0.951646667 4.5193634,0.920761111 C4.52248235,0.889411111 4.52916583,0.868511111 4.54431503,0.855042222 C4.55946423,0.840876667 4.58307916,0.834142222 4.61961547,0.830891111 C4.65615178,0.827175556 4.70538669,0.827175556 4.7722214,0.827175556 C4.822793,0.827175556 4.87314182,0.826943333 4.92393621,0.826478889 C4.97428502,0.826014444 5.02485663,0.82555 5.07475988,0.824621111 C5.12555426,0.824156667 5.17612586,0.823227778 5.22647468,0.822763333 C5.27726906,0.822066667 5.32761788,0.821834444 5.37818948,0.822066667 C5.50517544,0.822066667 5.6321614,0.823227778 5.75937014,0.824156667 C5.88613331,0.825085556 6.01289649,0.826478889 6.14055079,0.828104444 C6.26753675,0.829962222 6.39452271,0.832748889 6.52150867,0.835535556 C6.64849463,0.838554444 6.77548058,0.841573333 6.90224376,0.84645 C7.11967936,0.853648889 7.33600106,0.868046667 7.55143162,0.89034 C7.76686218,0.912168889 7.98140162,0.941196667 8.19460436,0.977423333 C8.40825266,1.01365 8.62056427,1.05730778 8.83243032,1.10723556 C9.04340523,1.15739556 9.2537118,1.21452222 9.46268167,1.27861556 C10.0782294,1.44720889 10.8784637,1.98526778 11.1480304,2.19473222 C11.4175971,2.40442889 11.6622121,2.64570778 11.8729643,2.92321333 C12.0837164,3.20025444 12.2603828,3.51375444 12.3947206,3.86789333 C12.5658175,4.32026222 12.6930262,4.81048333 12.7765696,5.31974667 C12.8596674,5.82877778 12.8995455,6.35661889 12.8970949,6.88446 M6.23679278,13.0397422 C6.50279495,13.0385811 6.78105014,13.0278989 7.06264707,13.0090889 C7.11633763,13.0056056 7.17047375,13.0000322 7.22394152,12.9958522 C7.43892652,12.9789 7.65680769,12.9531233 7.87580277,12.9231667 C7.95489051,12.91202 8.03442382,12.9038922 8.11395713,12.8906556 C8.30822337,12.8579122 8.50204404,12.8188989 8.69586472,12.77199 L6.23679278,13.0397422" id="Fill-13"></path>
                        </g>
                    </g>
                </g>
            </g>
        </g>
    </g>
</svg>