<?xml version="1.0" encoding="utf-8"?>
<!-- Generator: Adobe Illustrator 22.1.0, SVG Export Plug-In . SVG Version: 6.00 Build 0)  -->
<svg version="1.1" id="Capa_1" xmlns="http://www.w3.org/2000/svg" xmlns:xlink="http://www.w3.org/1999/xlink" x="0px" y="0px"
	 viewBox="0 0 69.7 46" style="enable-background:new 0 0 69.7 46;" xml:space="preserve">
<path d="M68.1,19L51.6,1.8c-2.2-2.3-5.8-2.4-8.1-0.2c-2.3,2.2-2.4,5.8-0.2,8.1l7.1,7.5l-45,0.4c-3.1,0.1-5.6,2.7-5.6,5.8
	c0,1.5,0.7,2.9,1.7,3.9c1.1,1.1,2.6,1.7,4.2,1.7L51,28.4l-7.6,8c-2.2,2.3-2.1,5.9,0.2,8.1c1.1,1,2.5,1.6,3.9,1.6
	c1.5,0,3-0.6,4.1-1.8l16.5-17.4C70.3,24.7,70.3,21.2,68.1,19z"/>
</svg>
