<?xml version="1.0" encoding="UTF-8"?>
<svg width="24px" height="20px" viewBox="0 0 24 20" version="1.1" xmlns="http://www.w3.org/2000/svg" xmlns:xlink="http://www.w3.org/1999/xlink">
    <!-- Generator: Sketch 52.5 (67469) - http://www.bohemiancoding.com/sketch -->
    <title>view</title>
    <desc>Created with Sketch.</desc>
    <g id="Welcome" stroke="none" stroke-width="1" fill="none" fill-rule="evenodd">
        <g id="Mobile-Portrait-Copy-3" transform="translate(-37.000000, -516.000000)" fill-rule="nonzero">
            <g id="view" transform="translate(36.979592, 517.200000)">
                <path d="M21.2888541,11.633799 C21.1211208,11.4037122 17.1246024,6 12.0203257,6 C6.9160489,6 2.91934714,11.4037122 2.75179722,11.6335784 C2.59293834,11.8518612 2.59293834,12.1479182 2.75179722,12.366201 C2.91934714,12.5962878 6.9160489,18 12.0203257,18 C17.1246024,18 21.1211208,12.596251 21.2888541,12.3663848 C21.447933,12.1481388 21.447933,11.8518612 21.2888541,11.633799 Z M12.0203257,16.758627 C8.26048205,16.758627 5.00405829,13.1720748 4.04008703,11.9995771 C5.00281147,10.8260498 8.25241442,7.24137297 12.0203257,7.24137297 C15.7799859,7.24137297 19.0361896,10.8273001 20.0005643,12.0004229 C19.0378398,13.1739134 15.7882369,16.758627 12.0203257,16.758627 Z" id="Shape" fill="#000000"></path>
                <path d="M12.0204082,8.4 C9.99489468,8.4 8.34693878,10.0149968 8.34693878,12 C8.34693878,13.9850032 9.99489468,15.6 12.0204082,15.6 C14.0459216,15.6 15.6938776,13.9850032 15.6938776,12 C15.6938776,10.0149968 14.0459216,8.4 12.0204082,8.4 Z M12.0204082,14.3999763 C10.6699933,14.3999763 9.57145275,13.323371 9.57145275,12 C9.57145275,10.676629 10.6700296,9.6000237 12.0204082,9.6000237 C13.3707868,9.6000237 14.4693636,10.676629 14.4693636,12 C14.4693636,13.323371 13.370823,14.3999763 12.0204082,14.3999763 Z" id="Shape" fill="#000000"></path>
                <path d="M12.0204082,0 L12.0204082,3.31994" id="Line" stroke="#000000" stroke-width="1.7" stroke-linecap="round"></path>
                <path d="M2.69513477,3.76272889 L2.88794577,6.75229174" id="Line-Copy" stroke="#000000" stroke-width="1.7" stroke-linecap="round" transform="translate(2.887946, 5.737191) rotate(-38.000000) translate(-2.887946, -5.737191) "></path>
                <path d="M21.5274363,2.96667097 L21.379182,6.32345822" id="Line-Copy-2" stroke="#000000" stroke-width="1.7" stroke-linecap="round" transform="translate(21.478787, 4.757268) rotate(34.000000) translate(-21.478787, -4.757268) "></path>
            </g>
        </g>
    </g>
</svg>