<?xml version="1.0" encoding="utf-8"?>
<!-- Generator: Adobe Illustrator 22.1.0, SVG Export Plug-In . SVG Version: 6.00 Build 0)  -->
<svg version="1.1" id="Calque_1" xmlns="http://www.w3.org/2000/svg" xmlns:xlink="http://www.w3.org/1999/xlink" x="0px" y="0px"
	 viewBox="0 0 56.7 56.7" style="enable-background:new 0 0 56.7 56.7;" xml:space="preserve">
<style type="text/css">
	.st0{fill:none;stroke:#000000;stroke-width:1.7;stroke-linecap:round;}
</style>
<title>view</title>
<desc>Created with Sketch.</desc>
<g id="Welcome">
	<g id="Mobile-Portrait-Copy-3" transform="translate(-37.000000, -516.000000)">
		<g id="view" transform="translate(36.979592, 517.200000)">
			<path id="Shape" d="M39.9,30.6c-0.2-0.3-5.2-7-11.6-7s-11.4,6.7-11.6,7c-0.2,0.3-0.2,0.6,0,0.9c0.2,0.3,5.2,7,11.6,7
				s11.4-6.7,11.6-7C40.1,31.3,40.1,30.9,39.9,30.6z M28.4,37c-4.7,0-8.8-4.5-10-5.9c1.2-1.5,5.3-5.9,10-5.9c4.7,0,8.8,4.5,10,5.9
				C37.1,32.6,33.1,37,28.4,37z"/>
			<path id="Shape_1_" d="M28.4,26.6c-2.5,0-4.6,2-4.6,4.5s2.1,4.5,4.6,4.5s4.6-2,4.6-4.5S30.9,26.6,28.4,26.6z M28.4,34.1
				c-1.7,0-3.1-1.3-3.1-3c0-1.7,1.4-3,3.1-3s3.1,1.3,3.1,3C31.4,32.7,30.1,34.1,28.4,34.1z"/>
			<path id="Line" class="st0" d="M28.4,16.1v4.1"/>
			<path id="Line-Copy" class="st0" d="M15.3,21.5l2.5,2.8"/>
			<path id="Line-Copy-2" class="st0" d="M41.5,20.2L39,23.6"/>
		</g>
	</g>
</g>
</svg>
