<?xml version="1.0" encoding="utf-8"?>
<!-- Generator: Adobe Illustrator 22.1.0, SVG Export Plug-In . SVG Version: 6.00 Build 0)  -->
<svg version="1.1" id="Calque_1" xmlns="http://www.w3.org/2000/svg" xmlns:xlink="http://www.w3.org/1999/xlink" x="0px" y="0px"
	 viewBox="0 0 56.7 56.7" style="enable-background:new 0 0 56.7 56.7;" xml:space="preserve">
<title>Combined Shape</title>
<desc>Created with Sketch.</desc>
<g id="Welcome">
	<g id="Mobile-Portrait-Copy-3" transform="translate(-186.000000, -518.000000)">
		<g id="Group-2" transform="translate(177.000000, 506.131798)">
			<path id="Combined-Shape" d="M30.7,46.7c0.4,0.4,0.4,1,0,1.3c-0.4,0.4-1,0.4-1.4,0l-5.6-5.5c-0.4-0.4-0.4-0.9,0-1.3l5.6-5.7
				c0.4-0.4,1-0.4,1.4,0c0.4,0.4,0.4,1,0,1.3l-5,5L30.7,46.7z M44,36.8c-0.4-0.4-0.4-1,0-1.3c0.4-0.4,1-0.4,1.4,0L51,41
				c0.4,0.4,0.4,0.9,0,1.3L45.4,48c-0.4,0.4-1,0.4-1.4,0c-0.4-0.4-0.4-1,0-1.3l5-5L44,36.8z M36,49.1c-0.2,0.5-0.7,0.8-1.2,0.6
				c-0.5-0.2-0.8-0.7-0.6-1.2L39.8,32c0.2-0.5,0.7-0.8,1.2-0.6c0.5,0.2,0.8,0.7,0.6,1.2L36,49.1z"/>
		</g>
	</g>
</g>
<title>edit</title>
<desc>Created with Sketch.</desc>
</svg>
