<?xml version="1.0" encoding="UTF-8"?>
<svg width="22px" height="14px" viewBox="0 0 22 14" version="1.1" xmlns="http://www.w3.org/2000/svg" xmlns:xlink="http://www.w3.org/1999/xlink">
    <!-- Generator: Sketch 52.5 (67469) - http://www.bohemiancoding.com/sketch -->
    <title>Combined Shape</title>
    <desc>Created with Sketch.</desc>
    <g id="Welcome" stroke="none" stroke-width="1" fill="none" fill-rule="evenodd">
        <g id="Mobile-Portrait-Copy-3" transform="translate(-186.000000, -518.000000)" fill="#000000" fill-rule="nonzero">
            <g id="Group-2" transform="translate(177.000000, 506.131798)">
                <path d="M15.2013256,23.640155 C15.4728931,23.9051306 15.473853,24.3356818 15.2034697,24.6018179 C14.9330864,24.867954 14.4937485,24.8688948 14.222181,24.6039191 L10.1226726,20.6039191 C9.85356736,20.3413459 9.84982872,19.9155552 10.1142834,19.6484826 L14.1959161,15.5264456 C14.4627905,15.2569294 14.9020798,15.2504609 15.1770964,15.5119978 C15.4521129,15.7735347 15.4587134,16.2040383 15.191839,16.4735544 L11.5872605,20.113815 L15.2013256,23.640155 Z M24.81655,16.4818816 C24.5449825,16.216906 24.5440226,15.7863548 24.8144059,15.5202187 C25.0847892,15.2540826 25.5241271,15.2531418 25.7956946,15.5181175 L29.895203,19.5181175 C30.1643083,19.7806906 30.1680469,20.2064814 29.9035922,20.473554 L25.8219595,24.595591 C25.5550852,24.8651072 25.1157958,24.8715757 24.8407792,24.6100388 C24.5657627,24.3485019 24.5591622,23.9179983 24.8260366,23.6484821 L28.4306151,20.0082216 L24.81655,16.4818816 Z M19.025617,25.4150349 C18.9044328,25.7713163 18.5114761,25.9638651 18.1479236,25.8451046 C17.7843711,25.7263442 17.5878927,25.3412466 17.7090769,24.9849651 L21.7907095,12.9849651 C21.9118937,12.6286837 22.3048504,12.4361349 22.6684029,12.5548954 C23.0319554,12.6736558 23.2284338,13.0587534 23.1072496,13.4150349 L19.025617,25.4150349 Z" id="Combined-Shape"></path>
            </g>
        </g>
    </g>
</svg>