<svg xmlns="http://www.w3.org/2000/svg" viewBox="0 0 56.7 56.7"><path d="M39 18.3c1.3 0 2.4 1.3 2.4 2.9v14.2c0 1.6-1.1 2.9-2.4 2.9H17.5c-1.3 0-2.4-1.3-2.4-2.9V21.2c0-1.6 1.1-2.9 2.4-2.9H39zm.9 2.9c0-.7-.4-1.2-.9-1.2H17.6c-.5 0-.9.5-.9 1.2v.2H40v-.2zm0 1.8H16.6v12.3c0 .7.4 1.2.9 1.2H39c.5 0 .9-.5.9-1.2V23zM31 26.9c-.5 0-.9-.4-.9-.9s.4-.9.9-.9h6.2c.5 0 .9.4.9.9s-.4.9-.9.9H31zm-10.2 0c-.4 0-.7.4-.7.8v3.4c0 .4.3.8.7.8h4.3c.4 0 .7-.4.7-.8v-3.4c0-.4-.3-.8-.7-.8h-4.3zm0-1.8h4.3c1.4 0 2.4 1.2 2.4 2.6v3.4c0 1.4-1.1 2.6-2.4 2.6h-4.3c-1.4 0-2.4-1.2-2.4-2.6v-3.4a2.42 2.42 0 0 1 2.4-2.6zM31 30.3c-.5 0-.9-.4-.9-.9s.4-.9.9-.9h6.2c.5 0 .9.4.9.9s-.4.9-.9.9H31zm6.1 1.6c.6 0 1 .4 1 .9s-.5.9-1 .9h-.7c-.6 0-1-.4-1-.9s.5-.9 1-.9h.7z" stroke="#fff" stroke-width=".35" stroke-miterlimit="10"/></svg>