<?xml version="1.0" encoding="UTF-8"?>
<svg width="21px" height="17px" viewBox="0 0 21 17" version="1.1" xmlns="http://www.w3.org/2000/svg" xmlns:xlink="http://www.w3.org/1999/xlink">
    <!-- Generator: Sketch 52.5 (67469) - http://www.bohemiancoding.com/sketch -->
    <title>Combined Shape</title>
    <desc>Created with Sketch.</desc>
    <g id="Welcome" stroke="none" stroke-width="1" fill="none" fill-rule="evenodd">
        <g id="Mobile-Portrait-Copy-3" transform="translate(-113.000000, -518.000000)" fill="#000000" fill-rule="nonzero">
            <g id="Group" transform="translate(103.000000, 506.000000)">
                <path d="M28.6240948,12.7826087 C29.6401267,12.7840133 30.4478757,13.7784117 30.4489796,14.9885584 L30.4489795,25.8812604 C30.4478757,27.0911535 29.6401267,28.0855519 28.6240948,28.0869565 L12.1919139,28.0869563 C11.1761998,28.0855519 10.3684508,27.0911535 10.3673469,25.8810069 L10.3673471,14.9883048 C10.3684508,13.7784117 11.1761998,12.7840133 12.1922317,12.7826087 L28.6240948,12.7826087 Z M29.3271891,14.9888119 C29.3267255,14.4807239 29.0035774,14.0829048 28.6240948,14.0823799 L12.1925496,14.0823796 C11.8127492,14.0829048 11.489601,14.4807239 11.4891375,14.9888119 L11.4891375,15.1167048 L29.3271891,15.1167048 L29.3271891,14.9888119 Z M29.3271889,16.416476 L11.4891375,16.416476 L11.4891375,25.8807534 C11.489601,26.3888413 11.8127492,26.7866605 12.1922317,26.7871854 L28.6237769,26.7871856 C29.0035474,26.7866605 29.3266746,26.388904 29.3271889,25.8808735 L29.3271889,16.416476 Z M22.5170068,19.3913043 C22.1264198,19.3913043 21.7959184,19.0895422 21.7959184,18.6956522 C21.7959184,18.3017622 22.1264198,18 22.5170068,18 L27.2789116,18 C27.6694986,18 28,18.3017622 28,18.6956522 C28,19.0895422 27.6694986,19.3913043 27.2789116,19.3913043 L22.5170068,19.3913043 Z M14.6938776,19.3913043 C14.3782863,19.3913043 14.122449,19.6638267 14.122449,20 L14.122449,22.6086957 C14.122449,22.944869 14.3782863,23.2173913 14.6938776,23.2173913 L17.9591837,23.2173913 C18.274775,23.2173913 18.5306122,22.944869 18.5306122,22.6086957 L18.5306122,20 C18.5306122,19.6638267 18.274775,19.3913043 17.9591837,19.3913043 L14.6938776,19.3913043 Z M14.6938776,18 L17.9591837,18 C18.9961265,18 19.8367347,18.8954305 19.8367347,20 L19.8367347,22.6086957 C19.8367347,23.7132652 18.9961265,24.6086957 17.9591837,24.6086957 L14.6938776,24.6086957 C13.6569348,24.6086957 12.8163265,23.7132652 12.8163265,22.6086957 L12.8163265,20 C12.8163265,18.8954305 13.6569348,18 14.6938776,18 Z M22.5170068,22 C22.1264198,22 21.7959184,21.6982378 21.7959184,21.3043478 C21.7959184,20.9104578 22.1264198,20.6086957 22.5170068,20.6086957 L27.2789116,20.6086957 C27.6694986,20.6086957 28,20.9104578 28,21.3043478 C28,21.6982378 27.6694986,22 27.2789116,22 L22.5170068,22 Z M27.2108844,23.2173913 C27.6338965,23.2173913 28,23.5098762 28,23.9130435 C28,24.3162108 27.6338965,24.6086957 27.2108844,24.6086957 L26.6666667,24.6086957 C26.2436546,24.6086957 25.877551,24.3162108 25.877551,23.9130435 C25.877551,23.5098762 26.2436546,23.2173913 26.6666667,23.2173913 L27.2108844,23.2173913 Z" id="Combined-Shape"></path>
            </g>
        </g>
    </g>
</svg>