<?xml version="1.0" encoding="utf-8"?>
<!-- Generator: Adobe Illustrator 22.1.0, SVG Export Plug-In . SVG Version: 6.00 Build 0)  -->
<svg version="1.1" id="Calque_1" xmlns="http://www.w3.org/2000/svg" xmlns:xlink="http://www.w3.org/1999/xlink" x="0px" y="0px"
	 viewBox="0 0 56.7 56.7" style="enable-background:new 0 0 56.7 56.7;" xml:space="preserve">
<style type="text/css">
	.st0{stroke:#FFFFFF;stroke-width:0.35;stroke-miterlimit:10;}
</style>
<title>Combined Shape</title>
<desc>Created with Sketch.</desc>
<g id="Welcome">
	<g id="Mobile-Portrait-Copy-3" transform="translate(-113.000000, -518.000000)">
		<g id="Group" transform="translate(103.000000, 506.000000)">
			<path id="Combined-Shape" class="st0" d="M49,30.3c1.3,0,2.4,1.3,2.4,2.9v14.2c0,1.6-1.1,2.9-2.4,2.9H27.5
				c-1.3,0-2.4-1.3-2.4-2.9V33.2c0-1.6,1.1-2.9,2.4-2.9H49z M49.9,33.2c0-0.7-0.4-1.2-0.9-1.2l-21.4,0c-0.5,0-0.9,0.5-0.9,1.2v0.2
				h23.3V33.2z M49.9,35H26.6v12.3c0,0.7,0.4,1.2,0.9,1.2H49c0.5,0,0.9-0.5,0.9-1.2V35z M41,38.9c-0.5,0-0.9-0.4-0.9-0.9
				s0.4-0.9,0.9-0.9h6.2c0.5,0,0.9,0.4,0.9,0.9s-0.4,0.9-0.9,0.9H41z M30.8,38.9c-0.4,0-0.7,0.4-0.7,0.8v3.4c0,0.4,0.3,0.8,0.7,0.8
				h4.3c0.4,0,0.7-0.4,0.7-0.8v-3.4c0-0.4-0.3-0.8-0.7-0.8H30.8z M30.8,37.1h4.3c1.4,0,2.4,1.2,2.4,2.6v3.4c0,1.4-1.1,2.6-2.4,2.6
				h-4.3c-1.4,0-2.4-1.2-2.4-2.6v-3.4C28.3,38.3,29.4,37.1,30.8,37.1z M41,42.3c-0.5,0-0.9-0.4-0.9-0.9s0.4-0.9,0.9-0.9h6.2
				c0.5,0,0.9,0.4,0.9,0.9s-0.4,0.9-0.9,0.9H41z M47.1,43.9c0.6,0,1,0.4,1,0.9s-0.5,0.9-1,0.9h-0.7c-0.6,0-1-0.4-1-0.9
				s0.5-0.9,1-0.9H47.1z"/>
		</g>
	</g>
</g>
<title>edit</title>
<desc>Created with Sketch.</desc>
</svg>
