<?xml version="1.0" encoding="UTF-8"?>
<svg width="35px" height="9px" viewBox="0 0 35 9" version="1.1" xmlns="http://www.w3.org/2000/svg" xmlns:xlink="http://www.w3.org/1999/xlink">
    <!-- Generator: Sketch 52.5 (67469) - http://www.bohemiancoding.com/sketch -->
    <title>Combined Shape</title>
    <desc>Created with Sketch.</desc>
    <g id="Welcome" stroke="none" stroke-width="1" fill="none" fill-rule="evenodd">
        <g id="Mobile-Portrait-Copy-5" transform="translate(-158.000000, -260.000000)" fill="#FFFFFF" fill-rule="nonzero">
            <g id="Group-3" transform="translate(18.000000, 248.000000)">
                <g id="Group" transform="translate(19.000000, 9.000000)">
                    <path d="M153.923884,8 L122.411471,8 C122.135328,8 121.911471,7.77614237 121.911471,7.5 C121.911471,7.22385763 122.135328,7 122.411471,7 L153.923877,7 L151.643987,4.07594125 C151.452129,3.82977109 151.452129,3.43076789 151.643987,3.18471725 C151.835845,2.93842758 152.147035,2.93842758 152.338971,3.18471725 L155.356239,7.05446269 C155.45209,7.17749797 155.5,7.33877638 155.5,7.50001494 C155.5,7.66131326 155.451981,7.82259166 155.356145,7.94556718 L152.338878,11.8153724 C152.146942,12.0615425 151.835751,12.0615425 151.643893,11.8153724 C151.452036,11.5693018 151.452036,11.1702588 151.643893,10.9240687 L153.923884,8 Z" id="Combined-Shape"></path>
                </g>
            </g>
        </g>
    </g>
</svg>