<?xml version="1.0" encoding="UTF-8"?>
<svg width="19px" height="20px" viewBox="0 0 19 20" version="1.1" xmlns="http://www.w3.org/2000/svg" xmlns:xlink="http://www.w3.org/1999/xlink">
    <!-- Generator: Sketch 52.5 (67469) - http://www.bohemiancoding.com/sketch -->
    <title>edit</title>
    <desc>Created with Sketch.</desc>
    <g id="Welcome" stroke="none" stroke-width="1" fill="none" fill-rule="evenodd">
        <g id="Mobile-Portrait-Copy-3" transform="translate(-263.000000, -515.000000)" fill="#000000" fill-rule="nonzero">
            <g id="Group-4" transform="translate(251.000000, 506.131798)">
                <g id="edit" transform="translate(12.244898, 9.565217)">
                    <path d="M16.7959118,1.23826532 C17.545916,2.03320108 17.9591837,3.09311542 17.9591837,4.22233186 C17.9591837,5.35154829 17.545916,6.41146264 16.7959118,7.21047499 L6.51779267,18.1561289 C6.42212887,18.2621203 6.28819954,18.3191926 6.15427022,18.3191926 C6.02034089,18.3191926 5.88641157,18.2580437 5.79074776,18.1561289 L1.65041831,13.7452546 L1.11852756,17.9359928 L3.84303271,17.5446399 C4.12619757,17.5038739 4.38640311,17.7158568 4.42466864,18.0175247 C4.46293416,18.3191926 4.26395344,18.596401 3.98078858,18.637167 L0.582810254,19.1263582 C0.559850941,19.1304348 0.536891628,19.1304348 0.513932314,19.1304348 C0.380002988,19.1304348 0.246073662,19.0692859 0.150409858,18.967371 C0.039439845,18.8491498 -0.0179584376,18.6779329 0.0050008754,18.506716 L0.766484758,12.4978169 C0.781790967,12.3795957 0.831536145,12.2695277 0.911893741,12.1839192 L11.1900129,1.23826532 C12.73594,-0.412755106 15.2499847,-0.412755106 16.7959118,1.23826532 Z M11.3889936,2.58354122 L2.01011421,12.5752722 L3.73588924,14.4138159 L13.1147686,4.42208495 L11.3889936,2.58354122 Z M6.15809677,16.9902231 L15.5369761,6.99849212 L13.8494666,5.20071433 L4.47058726,15.1924453 L6.15809677,16.9902231 Z M16.256368,6.21170955 C16.6887684,5.65321622 16.9260146,4.96019531 16.9260146,4.22233186 C16.9260146,3.38663016 16.623717,2.59984759 16.0688669,2.01281811 C15.5140168,1.42578862 14.7793188,1.09966113 13.9948756,1.09966113 C13.3060962,1.09966113 12.6517558,1.35240994 12.1275182,1.81306502 L16.256368,6.21170955 Z" id="Shape"></path>
                </g>
            </g>
        </g>
    </g>
</svg>