<?xml version="1.0" encoding="utf-8"?>
<!-- Generator: Adobe Illustrator 22.1.0, SVG Export Plug-In . SVG Version: 6.00 Build 0)  -->
<svg version="1.1" id="Calque_1" xmlns="http://www.w3.org/2000/svg" xmlns:xlink="http://www.w3.org/1999/xlink" x="0px" y="0px"
	 viewBox="0 0 56.7 56.7" style="enable-background:new 0 0 56.7 56.7;" xml:space="preserve">
<title>edit</title>
<desc>Created with Sketch.</desc>
<g id="Welcome">
	<g id="Mobile-Portrait-Copy-3" transform="translate(-263.000000, -515.000000)">
		<g id="Group-4" transform="translate(251.000000, 506.131798)">
			<g id="edit" transform="translate(12.244898, 9.565217)">
				<path id="Shape" d="M37.7,17.3c1,1,1.5,2.4,1.5,3.8c0,1.4-0.5,2.8-1.5,3.8l-13,13.9c-0.1,0.1-0.3,0.2-0.5,0.2
					c-0.2,0-0.3-0.1-0.5-0.2l-5.3-5.6l-0.7,5.3l3.5-0.5c0.4-0.1,0.7,0.2,0.7,0.6c0,0.4-0.2,0.7-0.6,0.8L17.2,40c0,0-0.1,0-0.1,0
					c-0.2,0-0.3-0.1-0.5-0.2c-0.1-0.1-0.2-0.4-0.2-0.6l1-7.6c0-0.1,0.1-0.3,0.2-0.4l13-13.9C32.6,15.3,35.8,15.3,37.7,17.3z
					 M30.9,19.1L19,31.7l2.2,2.3l11.9-12.7L30.9,19.1z M24.2,37.3l11.9-12.7L34,22.4L22.1,35.1L24.2,37.3z M37.1,23.7
					c0.5-0.7,0.8-1.6,0.8-2.5c0-1.1-0.4-2.1-1.1-2.8s-1.6-1.2-2.6-1.2c-0.9,0-1.7,0.3-2.4,0.9L37.1,23.7z"/>
			</g>
		</g>
	</g>
</g>
</svg>
