<svg xmlns="http://www.w3.org/2000/svg" viewBox="0 0 593.79 208.96"><defs><style>.cls-1{fill:#6a7fa2;}.cls-2{fill:#667fa4;}.cls-3{fill:#c1d121;}.cls-4{fill:#d9e100;}.cls-5{fill:#c8c800;}</style></defs><title>logo</title><g id="Calque_2" data-name="Calque 2"><g id="logo"><path class="cls-1" d="M0,4.78A4.58,4.58,0,0,1,1.39,1.39,4.58,4.58,0,0,1,4.78,0,4.58,4.58,0,0,1,8.17,1.39,4.58,4.58,0,0,1,9.56,4.78v46.1Q23.74,37.15,39.93,37.15A38.13,38.13,0,0,1,68.14,48.87a38.44,38.44,0,0,1,11.8,28.3v41.54a4.54,4.54,0,0,1-1.43,3.39,4.72,4.72,0,0,1-3.43,1.39,4.75,4.75,0,0,1-4.78-4.78V77.17a28.77,28.77,0,0,0-8.94-21.44,29.13,29.13,0,0,0-21.43-9,29.38,29.38,0,0,0-21.51,9A29.07,29.07,0,0,0,9.56,77.17v41.54a4.58,4.58,0,0,1-1.39,3.39,4.58,4.58,0,0,1-3.39,1.39,4.58,4.58,0,0,1-3.39-1.39A4.58,4.58,0,0,1,0,118.71Z"/><path class="cls-1" d="M188.23,118.71a4.54,4.54,0,0,1-1.43,3.39,4.72,4.72,0,0,1-3.43,1.39,4.75,4.75,0,0,1-4.78-4.78v-8.94q-14.18,13.73-30.37,13.72a39.73,39.73,0,0,1-39.93-40V41.93a4.78,4.78,0,1,1,9.56,0V83.49a29.26,29.26,0,0,0,8.86,21.5,29.81,29.81,0,0,0,21.51,8.94,30.52,30.52,0,0,0,30.37-30.44V41.93a4.75,4.75,0,0,1,4.78-4.78,4.76,4.76,0,0,1,3.43,1.39,4.57,4.57,0,0,1,1.43,3.39Z"/><path class="cls-2" d="M293.2,107.69q-14.1,15.56-33.53,15.57a43,43,0,0,1-43.17-43A41.31,41.31,0,0,1,229.14,49.8a43.15,43.15,0,0,1,61.05,0,41.32,41.32,0,0,1,12.65,30.45v43.63a31.73,31.73,0,0,1-9.64,23,46.43,46.43,0,0,1-65.6,0,42.54,42.54,0,0,1-8.09-10.4,5.66,5.66,0,0,1-.85-2.86,4.75,4.75,0,0,1,4.78-4.78,4.74,4.74,0,0,1,3.47,1.48,4.65,4.65,0,0,1,1.08,1.45,39,39,0,0,0,6.39,8.41,36.12,36.12,0,0,0,11.92,8.05,36.66,36.66,0,0,0,14.06,2.66,35.49,35.49,0,0,0,26.06-10.79q6.78-8.16,6.78-16.26Zm-33.53-61a33.56,33.56,0,0,0-33.61,33.54,33.57,33.57,0,0,0,57.35,23.66,32.24,32.24,0,0,0,9.79-23.66,33.43,33.43,0,0,0-33.53-33.54Z"/><path class="cls-1" d="M398.71,104.92a4.57,4.57,0,0,1,3.39,1.41,4.81,4.81,0,0,1,1.39,3.44,4.63,4.63,0,0,1-1.24,3.32,43.22,43.22,0,0,1-58.66-2.24A41.58,41.58,0,0,1,331,80.32,41.58,41.58,0,0,1,343.59,49.8a43.17,43.17,0,0,1,61.06,0,41.62,41.62,0,0,1,12.64,30.52,4.75,4.75,0,0,1-4.78,4.78H340.66a36,36,0,0,0,9.72,19,33.78,33.78,0,0,0,35.45,7.82A32.88,32.88,0,0,0,395.7,106,4.56,4.56,0,0,1,398.71,104.92Zm8.78-29.38a35.15,35.15,0,0,0-9.63-19,33.49,33.49,0,0,0-47.48,0,36,36,0,0,0-9.72,19Z"/><path class="cls-1" d="M584.14,107.85q-15.55,15.65-33.52,15.64a41.58,41.58,0,0,1-30.53-12.64,41.58,41.58,0,0,1-12.64-30.53A41.58,41.58,0,0,1,520.09,49.8a43.15,43.15,0,0,1,61,0,41.59,41.59,0,0,1,12.65,30.52v38.39a4.75,4.75,0,0,1-4.78,4.78,4.74,4.74,0,0,1-3.44-1.39,4.54,4.54,0,0,1-1.43-3.39ZM550.62,46.71A33.7,33.7,0,0,0,517,80.32a32.31,32.31,0,0,0,9.87,23.74,33.52,33.52,0,0,0,57.26-23.74,33.54,33.54,0,0,0-33.52-33.61Z"/><path class="cls-3" d="M12.15,201.27a11.13,11.13,0,0,1-7.94-3v2.53h-4V171.35l4-1.8V181a12.54,12.54,0,0,1,8.48-3.21c5.63,0,10.09,3.42,10.09,11.35S18.05,201.27,12.15,201.27Zm-.49-20.67a10.35,10.35,0,0,0-7.45,3.26V195.1a9.91,9.91,0,0,0,7.62,3.38c4.67,0,7-3.21,7-9.27C18.81,183.56,16.13,180.6,11.66,180.6Z"/><path class="cls-3" d="M39.65,208.73h-4l3.87-8.19-10-22.25H33.7l6.87,16.33,1,2.32,1-2.28,6.93-16.37h4.24Z"/><path id="path3869" class="cls-3" d="M104.37,177.92l-3.23,12.57L97.32,178H90.65l-3.73,12.44-3.37-12.49H75.36l7.23,22.79h7.64l3.64-12.93,3.64,12.93h7.68l7.14-22.79Z"/><path id="path3889" class="cls-3" d="M249.13,177.87l-3.23,12.57-3.81-12.52h-6.68l-3.72,12.44-3.37-12.49h-8.2l7.23,22.79H235l3.64-12.93,3.63,12.93H250l7.14-22.79Z"/><path id="path3887" class="cls-3" d="M267,177.22c-6,0-10.2,3.9-10.2,12.43,0,7.72,3.94,11.7,9.83,11.7a8.25,8.25,0,0,0,7.47-4.12l.55,3.43h7.47v-22.8H275l-.65,3.15c-1.42-2.54-3.92-3.79-7.33-3.79Zm2.23,6.44c2.4,0,4.17,1.59,4.17,5.67,0,3.76-1.72,5.53-4.17,5.53-2.62,0-3.85-1.81-3.85-5.49C265.42,185.29,266.84,183.66,269.27,183.66Z"/><path id="path3883" class="cls-3" d="M301.35,189.31c0,8.53,4.79,12,12.11,12,5.47,0,8.88-2,10.86-5.71l-6-3.41a4.22,4.22,0,0,1-4.33,2.64c-3,0-4.1-2.09-4.1-5.5,0-4.08,1.52-5.22,4.19-5.22a3.9,3.9,0,0,1,4,2.5l6.08-4.35c-2-3.54-5.34-5-10.22-5-7.87,0-12.52,3.68-12.52,12.07"/><path id="path3881" class="cls-3" d="M365,177.22c-7.69,0-12.19,4.71-12.19,12.29,0,8,5,11.84,12.52,11.84,4.88,0,8.59-1.67,10.52-5l-5.14-3.2a4.74,4.74,0,0,1-4.59,2.37c-2.76,0-4.5-1.16-4.92-3.93h15a18.35,18.35,0,0,0,.18-2.6c0-6.49-3.22-11.79-11.36-11.79Zm-.09,6c2.12,0,3.29,1.34,3.43,3.7h-7.18C361.46,184.5,362.88,183.25,364.94,183.25Z"/><path id="path3877" class="cls-3" d="M397,184.68c0,4.4,3.36,6.71,7.69,7.71l1.93.46c1.85.41,2.72.72,2.72,1.63s-1,1.36-2.95,1.36c-2.94,0-5.62-1-7-2.81l-3.87,4.08c2,2.77,5.85,4.18,10.78,4.18,8,0,10.82-3.67,10.82-7.53,0-3.36-2.13-5.95-7.23-7.08l-2.67-.59c-1.94-.41-2.67-1-2.67-1.72,0-1,1.1-1.37,2.8-1.37a7.14,7.14,0,0,1,5.76,2.45l4.15-4.17c-2.17-2.81-5.76-4-10.13-4-7,0-10.18,3.18-10.18,7.44"/><path id="path3875" class="cls-3" d="M386.85,182.28l-.74-4.41h-7.32v22.79h8.93v-8.13c0-4.41,2.3-7.35,7.23-7l-.09-8.35a8.74,8.74,0,0,0-8,5.13"/><path id="path3873" class="cls-3" d="M285.15,171.52v21.42c0,6.49,4.15,8.39,9.08,8.39a12.9,12.9,0,0,0,6.62-1.63l-1.14-5.22a6.09,6.09,0,0,1-2.86.64c-2,0-3-1-3-3v-7.85h5.63v-6.36H293.9v-6.35Z"/><path id="path3871" class="cls-3" d="M325.92,169v31.71h8.93V189.59c0-3.18,1.66-4.68,3.86-4.68s3.32,1,3.32,4.53v11.22H351V186.32c0-5.22-2.53-9.08-8.29-9.08a8.62,8.62,0,0,0-7.82,4.68V169Z"/><path id="path3865" class="cls-3" d="M123.4,177.28c-7.68,0-12.2,4.68-12.2,12.25,0,8,5,11.84,12.52,11.84,4.88,0,8.59-1.62,10.53-4.94l-5.15-3.2c-1,1.69-2.42,2.34-4.59,2.34-2.77,0-4.54-1.12-5-3.89h15a17.67,17.67,0,0,0,.19-2.65C134.76,182.54,131.55,177.28,123.4,177.28Zm-.1,6c2.13,0,3.25,1.39,3.39,3.75H119.5C119.77,184.57,121.23,183.27,123.3,183.27Z"/><path id="path3861" class="cls-3" d="M159.19,177.28c-6,0-10.2,3.86-10.2,11.66s3.94,11.42,9.6,11.42c3.22,0,5.43-1.25,6.81-3.56v1c0,3.45-1.78,5.12-5.1,5.12a7.67,7.67,0,0,1-6.06-2.95l-4.64,4.29c1.7,2.92,6.58,4.74,11.08,4.74,7.87,0,13.63-3.67,13.63-11.38V177.92h-7.19l-.6,3.16c-1.48-2.5-4.06-3.8-7.33-3.8Zm2.18,6.4c2.44,0,4.13,1.76,4.13,5.08s-1.6,5.34-4.13,5.34-3.89-1.67-3.89-5.3C157.48,185.4,158.88,183.68,161.37,183.68Z"/><path id="path3857" class="cls-3" d="M204.72,171.57V193c0,6.49,4.14,8.4,9.07,8.4a13,13,0,0,0,6.63-1.64l-1.15-5.22a6.09,6.09,0,0,1-2.86.64c-2,0-2.94-1-2.94-3v-7.85H219v-6.36h-5.49v-6.35Z"/><path id="path3855" class="cls-3" d="M177.28,168.94v31.77h8.93V189.64c0-3.18,1.66-4.68,3.87-4.68s3.32,1,3.32,4.54v11.21h8.92V186.37c0-5.22-2.53-9.08-8.28-9.08a8.64,8.64,0,0,0-7.83,4.68v-13Z"/><path id="path3867" class="cls-3" d="M137.23,200.71h8.93V177.92h-8.93Z"/><path id="path3567" class="cls-3" d="M136.73,172.16c0,2.9,1.79,4.22,5,4.22s4.88-1.32,4.88-4.22-1.74-4.31-4.88-4.31-5,1.32-5,4.31"/><path class="cls-4" d="M459.28,157.08a66.45,66.45,0,0,1-10.11-16.2c-7.87-17.3-5.39-34.62,4.58-50.57,6.94-11.12,16.37-20.42,25.53-29.78,6.87-7,13.68-14.16,19.28-22.25,5.08-7.35,11.39-15.69,12.14-24.91a97.38,97.38,0,0,1,1.48-10c.57,3,1.3,6,1.68,9,3.32,26.29-14.85,49.87-29.09,70.09-14.83,21.08-32.08,46.43-25.6,73.59A8.5,8.5,0,0,1,459.28,157.08Z"/><path class="cls-5" d="M472.9,25.9a31.72,31.72,0,0,1-1.33,14C467.31,54.43,454,64,445.43,75.85c-13.15,18.07-13.87,38-3.27,57.64.28.52-2.43-3.05-3.84-5.06-12.24-17.48-16.68-46.32-1.81-63.56C448.06,51.49,463.38,40.91,472.9,25.9Z"/></g></g></svg>