<svg xmlns="http://www.w3.org/2000/svg" viewBox="0 0 553.16 339.6"><defs><style>.cls-1{fill:#ec1d25;}.cls-2{fill:#ee353c;}.cls-3{fill:#ec1e26;}.cls-4{fill:#ec0a16;}.cls-5{fill:#eb000e;}.cls-6{fill:#ef434b;}</style></defs><title>Fichier 1</title><g id="Calque_2" data-name="Calque 2"><g id="Calque_1-2" data-name="Calque 1"><path class="cls-1" d="M553.16,177.8a24.58,24.58,0,0,0-1.72,3.87C547.28,198,537,207.89,520.56,211.28,507.61,214,495,213,483.46,205.92c-15.82-9.68-22.33-29.06-16.35-48.2,5.33-17,21.51-27.32,41.31-26.34a36,36,0,0,1,21.6,8.24V105.86h22.13c0,21.27,0,42.54.06,63.81a28,28,0,0,0,.95,5.13ZM489,172.06c0,12.14,8.38,20.69,20.22,20.72,12.26,0,20.76-8.41,20.81-20.67s-8.38-20.94-20.54-21S489,159.57,489,172.06Z"/><path class="cls-2" d="M553.16,174.8a28,28,0,0,1-.95-5.13c-.07-21.27-.05-42.54-.06-63.81l1-.06Z"/><path class="cls-1" d="M332.21,210.72a172.42,172.42,0,0,1-47.61,81.77C218.11,357.05,109,355,44.86,287.92A171.62,171.62,0,0,1,.34,203.34C.2,202.71.19,202,0,200.23c1.39,1.61,2.15,2.45,2.87,3.32a18.49,18.49,0,0,0,14.34,7.1c16.13.23,32.27.08,48.93.08,1.07-6.47,2.14-12.94,3.29-19.92H32c-9.67,0-12.49-2.76-12.68-12.39-.07-3.63,0-7.27,0-11.36H58.89c1.14-6.56,2.2-12.71,3.36-19.37H19.72V126h47c1.07-6.84,2.06-13.2,3.14-20.14H8.62c6-10.67,10.51-20.68,16.66-29.6C61,24.51,110.61-1.23,173.47.05,241.6,1.43,304.29,49.68,324.06,114.81a5.37,5.37,0,0,1,.08,1l.21.93.75,2.08,1.74,6c.13.66.25,1.32.37,2s.46,1.35.68,2l1.14,5,1.17,11.88c-.34.49-.68,1-1,1.48-.43-.17-1.05-.2-1.27-.51-8-11.82-20.08-14.95-33.35-15.34-22.34-.67-34.64,8.68-39,29.57l-.1,1v48.76h22.93c0-13.28-.05-26.25,0-39.22a46.73,46.73,0,0,1,.82-8.93c1.49-7.36,6.54-11.24,14.29-11.37s13,3.5,14.71,10.79a48.65,48.65,0,0,1,1,10.38c.11,12.78,0,25.55,0,38.44ZM136.34,139.78c-8.82-6.13-13.22-7.76-22-8.39-17.21-1.24-33.17,7.78-39.61,22.39-7.13,16.18-3.64,35.85,8.38,47.16,15.29,14.4,44.09,15.69,60.58,2.65,11.41-9,15.21-21.51,15.35-35.35.2-19.66.06-39.31,0-59a27,27,0,0,0-.36-3.27H136.34Zm99,51.33c-8.64,3.35-17,5.37-25.75,3.55-10-2.07-16.6-8.48-17.31-17h58.56c-.2-3.16-.31-5.92-.57-8.67-1.52-15.92-8.07-28.81-23.85-34.41-16.85-6-33.35-4.84-47.45,7.35C166,153,162.7,173.21,170.29,189.69c6.37,13.83,27.33,25.93,41.88,23.86a182,182,0,0,0,18.41-3.88,4.93,4.93,0,0,0,3.13-3.07C234.49,201.69,234.78,196.71,235.31,191.11Z"/><path class="cls-3" d="M461.72,177.71H404.1c1.71,15.64,17.6,20.53,43.16,13.5-.56,5.24-.94,10.37-1.78,15.42a5,5,0,0,1-3,3.16c-13.81,4-27.66,4.29-41.06-1.43-17-7.28-25.79-24.64-22.68-43.93,2.91-18,16.34-30.85,34.63-32.62a71.64,71.64,0,0,1,14.93.09A38.65,38.65,0,0,1,461.72,177.71Zm-24.49-15.06a7.72,7.72,0,0,0,.25-2.35c-1.65-8.09-8.28-13-17.17-12.75s-15.69,6.07-17.09,15c.82.42,1.65,1.21,2.48,1.21q14.46.14,28.93,0A7.73,7.73,0,0,0,437.23,162.65Z"/><path class="cls-1" d="M332.12,210.84c0-13,.27-25.91-.21-38.84-.31-8.26-1.78-16.47-2.73-24.7.76.37,2,.59,2.17,1.12.54,2.08.72,4.25,1.24,7.8,2.89-11.72,9.05-19.16,19.56-22.53,9.78-3.13,19.63-2.84,30.09-.59L378,152.61c-2-.38-3.79-.75-5.55-1-10.67-1.71-16.9,3-17.19,13.87-.36,13.14-.14,26.31-.16,39.46,0,1.81,0,3.62,0,5.94Z"/><path class="cls-1" d="M330.2,145.7,329,133.82Z"/><path class="cls-1" d="M326.84,124.8l-1.74-6Z"/><path class="cls-1" d="M327.89,128.8c-.22-.67-.45-1.35-.68-2C327.44,127.45,327.67,128.13,327.89,128.8Z"/><path class="cls-1" d="M324.35,116.73l-.21-.93A.85.85,0,0,1,324.35,116.73Z"/><path class="cls-4" d="M255.54,160.9c0,.32-.07.65-.1,1C255.47,161.55,255.51,161.22,255.54,160.9Z"/><path class="cls-5" d="M403.22,162.52l34,.13a7.73,7.73,0,0,1-2.6,1.09q-14.46.12-28.93,0C404.87,163.73,404,162.94,403.22,162.52Z"/><path class="cls-3" d="M95,171.94c0-12.5,8.29-20.92,20.54-20.84s20.63,8.59,20.61,20.89-8.37,20.79-20.63,20.84S95,184.38,95,171.94Z"/><path class="cls-1" d="M191.51,160.72c4.16-11.35,15.21-16.8,25.23-11.54,3.53,1.86,5.67,6.34,8.45,9.62-.11.11-.32.29-.3.32a4.76,4.76,0,0,0,.49.62c.11.32.21.64.32,1l-1.63,1.51H193.25Z"/><path class="cls-6" d="M191.51,160.72l1.74,1.5Z"/><path class="cls-6" d="M224.07,162.22l1.63-1.51Z"/><path class="cls-6" d="M225.38,159.74a4.76,4.76,0,0,1-.49-.62s.19-.21.3-.32Z"/></g></g></svg>