<svg xmlns="http://www.w3.org/2000/svg" viewBox="0 0 566.93 110.2"><title>Fichier 1</title><g id="Calque_2" data-name="Calque 2"><g id="Layer_1" data-name="Layer 1"><path d="M98.88,90.81C97.8,79.53,90.55,36.12,89,25.1h-.3C82,35.77,53.47,89.47,53.47,89.47,47.63,78.79,20.64,36.73,14.24,25.55h-.3c-.68,5.25-9.46,65.26-9.46,65.26H0C1.26,84,12.58,8.52,13.35,1.73h.83C20.88,13.79,50,61.34,57.51,73.31c1-1.61,39.3-71.58,39.3-71.58h.65c1.07,8.15,12.56,81.62,13.6,89.08Z"/><path d="M249.57,21.08c10.89,0,22.15,5.46,23.36,17.13s-11.34,18.23-23.81,18.23c1.7,0,31.31,33.37,32.75,34.37H266.6C265,89.21,238.3,58.88,235,56.47h-7.32V90.81H215.28c.08-5,.08-64.18,0-69.73Zm-22.08,3.73V52.55s11,.27,16.13,0c10.17-.61,18.21-4.35,18.21-14.74,0-9.52-7-13-17.15-12.95Z"/><path d="M310.8,90.81H299V21H310.8Z"/><path d="M346.15,56.41c4.24,0,28,.14,31.25.05V52.54c-7.24,0-27.1,0-31.25,0,0-1.29-.08-24.16,0-27.48H382.8v-4H333.85V90.81h49.76v-4H346.15Z"/><path d="M518.69,19.46c-26.65,0-48.24,16.09-48.24,35.95s21.59,36,48.24,36,48.24-16.1,48.24-36S545.33,19.46,518.69,19.46Zm-.17,69.12c-19.44,0-35.19-15.31-35.19-33.08s15.75-33.07,35.19-33.07,35.19,15.31,35.19,33.07S538,88.58,518.52,88.58Z"/><path d="M429.49,106.6c7.36,0,11-3.3,12.56-8.19S443.13,77,443.13,77s.09-71.14,0-76.95h12.18l0,89.52c0,12.46-5.15,20.68-25,20.68h-4.64v-3.6Z"/><path d="M202.5,90.81c-1.17-1.52-38-67-40.11-70.65h-.82L121.33,90.81h5.16l12.72-22.42c5.93,0,28.22,0,37.38,0,6.52,11.53,12.29,21.79,12.56,22.42ZM141.4,64.53l16.51-29.11s8.41,14.8,16.5,29.11C167.55,64.54,151.89,64.57,141.4,64.53Z"/></g></g></svg>