<svg xmlns="http://www.w3.org/2000/svg" viewBox="0 0 217.87 203.98"><defs><style>.cls-1{fill:#411f13;}.cls-2,.cls-4{fill:#fff;}.cls-2{stroke:#fff;stroke-miterlimit:10;stroke-width:0.25px;}.cls-3{fill:#ddda00;}</style></defs><title>Fichier 2</title><g id="Calque_2" data-name="Calque 2"><g id="Calque_1-2" data-name="Calque 1"><path class="cls-1" d="M187.49,204H30.76C14,204,.38,191.16,0,175.57V.21L217.87,0V175.35C217.87,191.16,204.27,204,187.49,204Z"/><path class="cls-2" d="M121.48,57a26.65,26.65,0,0,0,5-.74,6.77,6.77,0,0,0,5-5.88,13.45,13.45,0,0,0-.89-6.52c-2.53-6.77-7.48-7.71-10.8-7.73-10.42-.07-15.5,8.35-15.5,18.7s5,18.71,15.93,18.71a15.07,15.07,0,0,0,8.54-3.11c1.38-1.14,3.52-4.51,1.36-5.37a2.57,2.57,0,0,0-2.85.82c-2.21,2.46-6.91,2.67-6.91,2.67h-.58c-6.3,0-8.74-5-9.18-11.49C110.58,57.07,119.27,57.12,121.48,57Zm-10.9-4.39c.38-6.47,2.53-11.45,8.9-11.45,2.66,0,5.53,1.5,6.2,6.87a5.1,5.1,0,0,1-.2,2.74c-.75,1.88-6.54,1.84-6.54,1.84Z"/><path class="cls-2" d="M103.07,70.07a1.48,1.48,0,0,0-.5-1,2.46,2.46,0,0,0-.72-.38,3.1,3.1,0,0,0-1.14-.14c-.49,0-1.06,0-1.55-.1a3.78,3.78,0,0,1-3.44-2.67,3,3,0,0,1-.1-.32,10.26,10.26,0,0,1-.29-2.65V39c0-5.21,0-10.05,0-10.14s0-.08,0-.11a4,4,0,0,0-.09-.68,3.21,3.21,0,0,0-2.7-2.67,6.75,6.75,0,0,0-1.13-.07c-1.26,0-1.7,0-1.84.42a1.44,1.44,0,0,0-.12.61v3.8c0,2,0,3.94,0,5.92V47.92c0,4,0,7.93,0,11.9v3.27c0,.78,0,1.56.09,2.33a10.79,10.79,0,0,0,.81,3.3,7.13,7.13,0,0,0,4,3.91,10.25,10.25,0,0,0,2.84.68,11.29,11.29,0,0,0,3.18,0A3.16,3.16,0,0,0,102.67,72,2.85,2.85,0,0,0,103.07,70.07Z"/><path class="cls-3" d="M113.05,134.53s1.27-12.53-11.53-10C101.52,124.48,100.09,137.24,113.05,134.53Z"/><path class="cls-4" d="M114.53,148.08v-.25c0-1,0-1.73,0-2.4a6.6,6.6,0,0,0-1.58-4.23,7.69,7.69,0,0,0-4.06-2.29,12.42,12.42,0,0,0-2.3-.18c-2.55,0-3.43,0-3.73,1.11a5,5,0,0,0-.23,1.62v10.09c0,3.72,0,7.41,0,11.1v9.72c0,.11,0,.21,0,.32a6,6,0,0,0,11.83-.14c0-.06,0-.12,0-.18v-5C114.53,156.78,114.54,148.28,114.53,148.08Z"/><path class="cls-4" d="M153.86,153.55a25.5,25.5,0,0,0-.82-4.05,18.64,18.64,0,0,0-3.35-6.54,15,15,0,0,0-6.24-4.61,17.06,17.06,0,0,0-5.46-1.14,18.34,18.34,0,0,0-5,.43,15.31,15.31,0,0,0-7.91,4.57,18.46,18.46,0,0,0-3.73,6.09,25.79,25.79,0,0,0-1.61,8,29.69,29.69,0,0,0,.08,4.11,25.62,25.62,0,0,0,.72,4.26,19.5,19.5,0,0,0,2.94,6.46,15.41,15.41,0,0,0,6.1,5.13,16.42,16.42,0,0,0,5.92,1.46,19.39,19.39,0,0,0,5.93-.48,14.78,14.78,0,0,0,9.29-6.61,20.23,20.23,0,0,0,2.62-6.44,32.32,32.32,0,0,0,.53-10.69Zm-17,15c-5.17,0-6.6-4.62-6.6-10.33s1.5-10.33,6.6-10.33c4.66,0,6.6,4.63,6.6,10.33S142.12,168.59,136.89,168.59Z"/><path class="cls-4" d="M96.8,153.55A25.5,25.5,0,0,0,96,149.5,18.64,18.64,0,0,0,92.63,143a15,15,0,0,0-6.24-4.61,14.19,14.19,0,0,0-5.55-1.12,10.15,10.15,0,0,0-4.44,1.1,6.25,6.25,0,0,0-1.83,1.44c0-.21,0-4.64,0-5.54A10.9,10.9,0,0,0,73,128.54a7.55,7.55,0,0,0-4.06-3.09,9.06,9.06,0,0,0-2.3-.23c-2.55,0-3.44,0-3.73,1.49a21,21,0,0,0-.13,2.18c0,.26,0,10,0,13.58,0,4.56-.07,16.15,0,17.42a27.38,27.38,0,0,0,.7,4.83,19.5,19.5,0,0,0,2.94,6.46,15.29,15.29,0,0,0,5.91,5,1.86,1.86,0,0,1,.19.11,16.42,16.42,0,0,0,5.92,1.46,19.39,19.39,0,0,0,5.93-.48,14.85,14.85,0,0,0,9.29-6.61,20.23,20.23,0,0,0,2.62-6.44,32.32,32.32,0,0,0,.53-10.69Zm-16,15c-5.17,0-6.6-4.62-6.6-10.33s1.5-10.32,6.6-10.32c4.66,0,6.6,4.62,6.6,10.32S86,168.54,80.75,168.54Z"/><path class="cls-4" d="M107.9,83.74a1.55,1.55,0,0,1-.63.37c-.77.23-3.47-.45-4.29-.46a8,8,0,0,0-1.62.14,4,4,0,0,0-2.72,1.86,7.79,7.79,0,0,0-1,2.7,22.8,22.8,0,0,0-.46,4.81V96.6c0,4.58,0,9.17,0,13.76,0,2,0,5.52-.14,6.24-.34,1.41-1.69,1.59-2.92,1.59-1.81,0-2.61-.54-2.86-1.73a18.12,18.12,0,0,1-.18-2.45q0-10.31,0-20.62A26.9,26.9,0,0,1,91.83,87a14.8,14.8,0,0,1,2-4.68,8.93,8.93,0,0,1,6.36-4.1,13.38,13.38,0,0,1,6.28.43c2.17.8,3.31,1.86,2.32,3.81A4.81,4.81,0,0,1,107.9,83.74Z"/><path class="cls-4" d="M194.54,83.74a1.55,1.55,0,0,1-.63.37c-.77.23-3.47-.45-4.29-.46a8.06,8.06,0,0,0-1.62.14,4,4,0,0,0-2.72,1.86,7.79,7.79,0,0,0-1,2.7,22.8,22.8,0,0,0-.46,4.81V96.6q0,6.87,0,13.76c0,2,.3,4.29-.13,6.24-.31,1.42-1.54,1.71-2.76,1.59a3.29,3.29,0,0,1-3-2.63,6.7,6.7,0,0,1-.18-1.55q0-10.31,0-20.62a26.9,26.9,0,0,1,.78-6.44,14.8,14.8,0,0,1,2-4.68,8.93,8.93,0,0,1,6.36-4.1,13.38,13.38,0,0,1,6.28.43c2.17.8,3.32,1.86,2.32,3.81A4.81,4.81,0,0,1,194.54,83.74Z"/><path class="cls-4" d="M50.48,79.74c-3.28-1-4,.87-4.31,2.13-.49,1.88-2,8.8-4,15.43-2.06,6.87-4.51,13.43-4.73,14-.12-.31-2.63-7-4.74-14-2-6.63-3.52-13.55-4-15.42-.33-1.27-1-3.15-4.3-2.14a2.54,2.54,0,0,0-1.73,3c.54,2.84,3.56,13.68,4.75,17.74,1.29,4.36,4.22,13.11,7,16.47a4.06,4.06,0,0,0,3.12,1.52,3.81,3.81,0,0,0,3-1.49c2.77-3.37,5.71-12.11,7-16.47,1.2-4.06,4.21-14.9,4.75-17.74A2.54,2.54,0,0,0,50.48,79.74Z"/><path class="cls-4" d="M140.08,110.72c0-1.37-.12-2.73-.13-4.1,0-4.45,0-8.9,0-13.35a22.74,22.74,0,0,0-.45-4.72,17,17,0,0,0-1.05-3.26,10.39,10.39,0,0,0-8.14-6.67l-.22-.06a13.65,13.65,0,0,0-2.77-.24c-8.54-.26-14.93,6.91-15.82,15.76-1.08,10.66,3.45,17.81,12.15,18.85a10.48,10.48,0,0,0,5.76-1l0,0,.29-.14.5-.26a16.48,16.48,0,0,0,3.86-3,72.52,72.52,0,0,1-.16,8.54,11.27,11.27,0,0,1-1.1,3.71,6.72,6.72,0,0,1-3.75,3.3,11.57,11.57,0,0,1-3.46.64,16.81,16.81,0,0,1-5.24-.57,13.32,13.32,0,0,1-3.11-1.25,3.47,3.47,0,0,0-2.77-.6,1.71,1.71,0,0,0-1.17,1.67c-.07,2,2.39,3.62,4,4.52a15.36,15.36,0,0,0,6.2,1.82,19.47,19.47,0,0,0,4.18,0,14.75,14.75,0,0,0,4.59-1.3,12.76,12.76,0,0,0,6-5.85,17.66,17.66,0,0,0,1.87-7.47C140.18,114,140.11,112.35,140.08,110.72Zm-14.72-3.36c-5.2,0-8-5.91-7.62-12.52s4.52-11.44,9.17-11.44c3.89,0,7.28,2.31,7.28,12.37C134.19,104.1,130,107.36,125.36,107.36Z"/><path class="cls-2" d="M160.63,83.83c2.77,0,5.76,1.57,6.46,7.16a5.41,5.41,0,0,1-.21,2.85c-.78,2-6.82,1.92-6.82,1.92h-8.7C151.76,89,154,83.83,160.63,83.83Zm9.65,30.49c1.42-1.19,3.66-4.7,1.41-5.6a2.69,2.69,0,0,0-3,.86c-2.3,2.56-7.19,2.78-7.19,2.78h-.6c-6.57,0-9.11-5.22-9.56-12,0,0,9,.06,11.34-.07a27.22,27.22,0,0,0,5.21-.77,7,7,0,0,0,5.18-6.12,14.09,14.09,0,0,0-.92-6.79c-2.63-7.05-7.8-8-11.25-8.05-10.85-.07-16.14,8.69-16.14,19.47s5.16,19.48,16.59,19.48A15.78,15.78,0,0,0,170.28,114.32Z"/><path class="cls-2" d="M70.27,83.83C73,83.83,76,85.4,76.72,91a5.41,5.41,0,0,1-.2,2.85c-.78,2-6.82,1.92-6.82,1.92H61C61.4,89,63.64,83.83,70.27,83.83Zm9.64,30.49c1.43-1.19,3.66-4.7,1.41-5.6a2.67,2.67,0,0,0-3,.86c-2.3,2.56-7.2,2.78-7.2,2.78h-.6c-6.57,0-9.11-5.22-9.56-12,0,0,9,.06,11.34-.07a27.39,27.39,0,0,0,5.22-.77,7,7,0,0,0,5.17-6.12,14,14,0,0,0-.91-6.79c-2.64-7.05-7.8-8-11.25-8.05-10.85-.07-16.14,8.69-16.14,19.47S59.59,117.55,71,117.55A15.75,15.75,0,0,0,79.91,114.32Z"/></g></g></svg>