<?xml version="1.0" encoding="utf-8"?>
<!-- Generator: Adobe Illustrator 22.1.0, SVG Export Plug-In . SVG Version: 6.00 Build 0)  -->
<svg version="1.1" id="Calque_1" xmlns="http://www.w3.org/2000/svg" xmlns:xlink="http://www.w3.org/1999/xlink" x="0px" y="0px"
	 viewBox="0 0 115 102.2" style="enable-background:new 0 0 115 102.2;" xml:space="preserve">
<style type="text/css">
	.st0{fill:#FFFFFF;}
</style>
<title>Fichier 2</title>
<g id="Calque_2_1_">
	<g id="Layer_1">
		<path class="st0" d="M82.3,50.3L70.5,30.1c-0.3-0.5-0.8-0.8-1.3-0.8h-1.8c-0.3,0-0.5,0.2-0.5,0.4c0,0.1,0,0.1,0.1,0.3l10,17.3
			c0.4,0.7,0.2,1.7-0.6,2.1c-0.2,0.1-0.5,0.2-0.8,0.2l0,0c-0.6,0-1.1-0.3-1.3-0.8L70.9,43c-0.1-0.3-0.5-0.5-0.9-0.5H58.8
			c-0.3,0-0.5,0.2-0.5,0.4c0,0.1,0,0.1,0.1,0.3l2.3,4c0.4,0.7,0.2,1.7-0.6,2.1c-0.2,0.1-0.5,0.2-0.8,0.2l0,0c-0.6,0-1.1-0.3-1.3-0.8
			l-11-19c-0.1-0.3-0.5-0.5-0.9-0.5h-0.4c-0.6,0-1.1,0.3-1.3,0.8L32.7,50.3c-0.3,0.4-0.3,1,0,1.5l0.9,1.6c0.1,0.2,0.4,0.3,0.7,0.1
			c0.1-0.1,0.1-0.1,0.1-0.1l10-17.2c0.4-0.7,1.4-1,2.1-0.6c0.2,0.1,0.4,0.3,0.6,0.6l0,0c0.3,0.5,0.3,1.1,0,1.5l-3.4,5.8
			c-0.1,0.3-0.1,0.7,0,0.9l5.6,9.7c0.1,0.2,0.4,0.3,0.7,0.1c0.1-0.1,0.1-0.1,0.1-0.1l2.3-4c0.4-0.7,1.4-1,2.1-0.6
			c0.2,0.1,0.4,0.4,0.6,0.6l0,0c0.3,0.5,0.3,1.1,0,1.5L44.2,71c-0.1,0.3-0.1,0.7,0,0.9l0.1,0.3c0.3,0.5,0.8,0.8,1.3,0.8h23.5
			c0.5,0,1-0.3,1.3-0.7l1-1.6c0.1-0.2,0.1-0.5-0.2-0.7c-0.1-0.1-0.1-0.1-0.2-0.1H51.2c-0.9,0-1.5-0.7-1.5-1.5c0-0.3,0.1-0.5,0.2-0.8
			l0,0c0.3-0.5,0.8-0.8,1.3-0.8h6.7c0.4,0,0.7-0.2,0.9-0.5l5.6-9.8c0.1-0.2,0.1-0.5-0.1-0.7c-0.1-0.1-0.1-0.1-0.2-0.1h-4.7
			c-0.9,0-1.5-0.7-1.5-1.5c0-0.3,0.1-0.6,0.2-0.8l0,0c0.3-0.5,0.8-0.8,1.3-0.8h21.9c0.4,0,0.7-0.1,0.9-0.5l0.2-0.4
			C82.6,51.4,82.6,50.8,82.3,50.3z"/>
		<path class="st0" d="M79.2,55.9H68.9c-0.4,0-0.7,0.2-0.9,0.5l-5.7,9.8c-0.1,0.2-0.1,0.5,0.2,0.7c0.1,0.1,0.1,0.1,0.2,0.1h10.3
			c0.4,0,0.7-0.1,0.9-0.4l5.6-9.8c0.1-0.2,0.1-0.5-0.1-0.7C79.4,55.9,79.3,55.9,79.2,55.9z"/>
		<path class="st0" d="M68.4,38.7l-5.1-9c-0.1-0.3-0.5-0.5-0.9-0.5H51.2c-0.3,0-0.5,0.1-0.5,0.4c0,0.1,0,0.2,0.1,0.3l5.1,9
			c0.1,0.3,0.5,0.5,0.9,0.5h11.2c0.3,0,0.5-0.2,0.5-0.5C68.4,38.9,68.4,38.8,68.4,38.7z"/>
		<path class="st0" d="M42.2,47.9c-0.1-0.2-0.4-0.3-0.7-0.2c-0.1,0.1-0.1,0.1-0.2,0.2l-5.2,9c-0.1,0.3-0.1,0.7,0,0.9l5.6,9.7
			c0.1,0.2,0.4,0.3,0.7,0.2c0.1-0.1,0.1-0.1,0.2-0.2l5.2-8.9c0.1-0.3,0.1-0.7,0-0.9L42.2,47.9z"/>
	</g>
</g>
</svg>
