<?xml version="1.0" encoding="utf-8"?>
<!-- Generator: Adobe Illustrator 22.1.0, SVG Export Plug-In . SVG Version: 6.00 Build 0)  -->
<svg version="1.1" id="Calque_1" xmlns="http://www.w3.org/2000/svg" xmlns:xlink="http://www.w3.org/1999/xlink" x="0px" y="0px"
	 viewBox="0 0 429.4 102.2" style="enable-background:new 0 0 429.4 102.2;" xml:space="preserve">
<style type="text/css">
	.st0{fill:#FFFFFF;}
</style>
<title>Fichier 2</title>
<g id="Calque_2_1_">
	<g id="Layer_1">
		<path class="st0" d="M93.7,50L77.6,22.2c-0.4-0.7-1.1-1.1-1.8-1.1h-2.5c-0.4,0-0.7,0.3-0.7,0.6c0,0.1,0,0.2,0.1,0.4l13.7,23.7
			c0.6,1,0.3,2.3-0.8,2.9c-0.3,0.2-0.7,0.3-1.1,0.3l0,0c-0.8,0-1.5-0.4-1.8-1.1L78.1,40c-0.2-0.4-0.7-0.7-1.2-0.7H61.5
			c-0.4,0-0.7,0.3-0.7,0.6c0,0.1,0,0.2,0.1,0.4l3.2,5.5c0.6,1,0.3,2.3-0.8,2.9C63,48.9,62.6,49,62.2,49l0,0c-0.8,0-1.5-0.4-1.8-1.1
			L45.3,21.8c-0.2-0.4-0.7-0.7-1.2-0.7h-0.5c-0.8,0-1.5,0.4-1.8,1.1L25.7,50c-0.4,0.6-0.4,1.4,0,2.1l1.3,2.2
			c0.2,0.3,0.6,0.4,0.9,0.2c0.1-0.1,0.2-0.1,0.2-0.2l13.7-23.6c0.6-1,1.9-1.4,2.9-0.8c0.3,0.2,0.6,0.4,0.8,0.8l0,0
			c0.4,0.7,0.4,1.5,0,2.1l-4.6,7.9c-0.2,0.4-0.2,0.9,0,1.3l7.7,13.3c0.2,0.3,0.6,0.4,0.9,0.2c0.1-0.1,0.2-0.1,0.2-0.2l3.1-5.5
			c0.6-1,1.9-1.4,2.9-0.8c0.3,0.2,0.6,0.5,0.8,0.8l0,0c0.4,0.7,0.4,1.5,0,2.1L41.5,78.3c-0.2,0.4-0.2,0.9,0,1.3l0.2,0.4
			c0.4,0.7,1.1,1.1,1.8,1.1h32.2c0.7,0,1.4-0.4,1.8-1l1.4-2.2c0.2-0.3,0.1-0.7-0.3-0.9c-0.1-0.1-0.2-0.1-0.3-0.1H51
			c-1.2,0-2.1-1-2.1-2.1c0-0.4,0.1-0.7,0.3-1.1v0c0.4-0.7,1.1-1.1,1.8-1.1h9.2c0.5,0,1-0.3,1.2-0.7l7.7-13.4
			c0.2-0.3,0.1-0.7-0.2-0.9c-0.1-0.1-0.2-0.1-0.3-0.1h-6.4c-1.2,0-2.1-0.9-2.1-2.1c0-0.4,0.1-0.8,0.3-1.1l0,0
			c0.4-0.7,1.1-1.1,1.8-1.1h30.1c0.5,0,0.9-0.2,1.2-0.7l0.3-0.5C94.1,51.5,94.1,50.7,93.7,50z"/>
		<path class="st0" d="M89.5,57.6l-14.1,0c-0.5,0-0.9,0.3-1.2,0.7l-7.8,13.4c-0.2,0.3-0.1,0.7,0.3,0.9c0.1,0.1,0.2,0.1,0.3,0.1h14.1
			c0.5,0,0.9-0.2,1.2-0.6l7.7-13.4c0.2-0.3,0.1-0.7-0.2-0.9C89.7,57.6,89.6,57.6,89.5,57.6z"/>
		<path class="st0" d="M74.6,34l-7-12.3c-0.2-0.4-0.7-0.7-1.2-0.7H51c-0.4,0-0.7,0.2-0.7,0.6c0,0.1,0,0.3,0.1,0.4l7,12.3
			c0.2,0.4,0.7,0.7,1.2,0.7H74c0.4,0,0.7-0.3,0.7-0.7C74.7,34.3,74.7,34.2,74.6,34z"/>
		<path class="st0" d="M38.7,46.7c-0.2-0.3-0.6-0.4-0.9-0.3c-0.1,0.1-0.2,0.1-0.3,0.3L30.4,59c-0.2,0.4-0.2,0.9,0,1.3l7.7,13.3
			c0.2,0.3,0.6,0.4,0.9,0.3c0.1-0.1,0.2-0.1,0.3-0.3l7.1-12.2c0.2-0.4,0.2-0.9,0-1.3L38.7,46.7z"/>
		<path class="st0" d="M240.9,65.5h0.3c1.1,0,2-0.9,2-2V38.6c0-1.1-0.9-2-2-2h-0.3c-1.1,0-2,0.9-2,2v24.9
			C238.9,64.6,239.8,65.5,240.9,65.5C240.9,65.5,240.9,65.5,240.9,65.5z M214.5,40c2.5,0,4.9,1.1,6.7,2.9c0.6,0.7,1.7,0.9,2.5,0.5
			l0,0c1-0.5,1.4-1.7,0.9-2.7c-0.1-0.2-0.2-0.4-0.4-0.5c-2.5-2.7-6-4.2-9.7-4.1c-8.4,0-15,6.1-15,15s6.6,15,15,15
			c3.7,0.1,7.2-1.4,9.7-4.1c0.8-0.8,0.8-2.1,0-2.8c-0.2-0.2-0.3-0.3-0.5-0.4l0,0c-0.8-0.4-1.9-0.2-2.5,0.5c-1.7,1.9-4.1,2.9-6.7,2.9
			c-6,0-10.6-4.6-10.6-11.1S208.5,40,214.5,40z M172.2,39.1l-9.3,23.5c-0.5,1.1,0.1,2.4,1.2,2.8c0.3,0.1,0.5,0.2,0.8,0.2h0.3
			c0.9,0,1.7-0.6,2-1.4l1.8-4.6h9.6l-0.7-2c-0.4-1.1-1.5-1.8-2.6-1.8h-4.9l5.6-14.7l8.8,23c0.3,0.8,1.1,1.4,2,1.4h0.2
			c1.2,0,2.2-1,2.2-2.2c0-0.3-0.1-0.5-0.2-0.8l-9.3-23.4c-0.6-1.5-2.1-2.5-3.7-2.5l0,0C174.3,36.6,172.8,37.6,172.2,39.1z
			 M126.2,36.6L126.2,36.6c-1.2,0-2.2,1-2.2,2.2v24.6c0,1.2,1,2.2,2.2,2.2l0,0c1.2,0,2.2-1,2.2-2.2c0,0,0,0,0,0V52.6H140v-1.1
			c0-1.5-1.2-2.8-2.8-2.8c0,0,0,0,0,0h-8.9v-10C128.4,37.5,127.4,36.6,126.2,36.6C126.2,36.6,126.2,36.6,126.2,36.6L126.2,36.6z
			 M146.6,65.6L146.6,65.6c1.2,0,2.2-1,2.2-2.2V38.8c0-1.2-1-2.2-2.2-2.2l0,0c-1.2,0-2.2,1-2.2,2.2v24.6
			C144.4,64.6,145.3,65.5,146.6,65.6L146.6,65.6z M367.6,50.8L367.6,50.8c0-1.1-0.9-1.9-1.9-1.9l0,0h-4.4c-1.5,0-2.8,1.2-2.8,2.8
			c0,0,0,0,0,0v1h7.2C366.7,52.7,367.6,51.8,367.6,50.8C367.6,50.8,367.6,50.8,367.6,50.8z M256.3,36.6L256.3,36.6
			c-0.6,0-1.2,0.3-1.5,0.7l-9.5,11.2c-0.9,1-0.9,2.5,0,3.6l10.4,12.7c0.4,0.5,1,0.7,1.6,0.7h0.1c1.1,0,2-0.8,2-2
			c0-0.5-0.2-1-0.5-1.4l-10.1-11.9l9-10.4c0.7-0.8,0.7-2.1-0.1-2.8C257.3,36.8,256.8,36.6,256.3,36.6z M349.9,65.6h17.5
			c1.1,0,1.9-0.9,1.9-1.9v0l0,0c0-1-0.8-1.9-1.8-1.9c0,0,0,0-0.1,0h-13.2V40.4h13.2c1.1,0,1.9-0.9,1.9-1.9c0,0,0,0,0,0l0,0
			c0-1-0.8-1.9-1.9-1.9c0,0,0,0,0,0h-17.5L349.9,65.6z M393.8,48.5c-3.6-0.9-6.7-1.7-6.7-4.3c0-2.4,2.2-4.1,5.4-4.1
			c2.5-0.1,4.9,0.7,6.9,2c0.9,0.6,2.1,0.4,2.8-0.4l0,0c0.7-0.9,0.6-2.1-0.3-2.8c0,0,0,0,0,0c-2.6-1.9-5.8-2.8-9-2.7
			c-6,0-10.2,3.5-10.2,8.2c0,5.9,5.4,7.2,10,8.5c3.7,1,7,1.8,7,4.9c0,2.1-1.6,4.5-6.3,4.5c-2.8,0-5.5-0.9-7.6-2.7
			c-0.9-0.7-2.1-0.5-2.8,0.3c0,0,0,0,0,0.1l-0.1,0.1c-0.6,0.8-0.5,2,0.3,2.7c2.9,2.3,6.4,3.5,10.1,3.4c7.8,0,10.9-4.2,10.9-8.7
			C404,51.2,398.5,49.7,393.8,48.5L393.8,48.5z M281.6,39.1l-9.2,23.3c-0.5,1.2,0.1,2.5,1.3,3c0.3,0.1,0.6,0.2,0.8,0.2l0,0
			c0.9,0,1.8-0.6,2.1-1.4l1.8-4.6h9.6l-0.7-2c-0.4-1.1-1.5-1.8-2.6-1.8h-5l5.6-14.7l8.8,23.1c0.3,0.9,1.2,1.5,2.1,1.5l0,0
			c1.3,0,2.3-1,2.3-2.3c0-0.3-0.1-0.6-0.2-0.8L289,39.1c-0.6-1.5-2.1-2.5-3.7-2.5l0,0C283.7,36.6,282.2,37.6,281.6,39.1z M322,54.2
			h9.3v5.2c-2,1.8-4.6,2.8-7.3,2.9c-6,0-10.5-4.7-10.5-11.2S317.9,40,323.9,40c2.6,0,5.1,1,6.9,2.8c0.6,0.6,1.6,0.8,2.4,0.3l0,0
			c1-0.5,1.3-1.8,0.7-2.7c-0.1-0.2-0.2-0.3-0.3-0.4c-2.6-2.5-6.1-3.9-9.8-3.8c-8.3,0-15,6-15,15s6.7,15,15,15
			c3.8,0.1,7.5-1.3,10.3-3.8c0.9-0.8,1.4-1.9,1.4-3.1v-6.1c0-1.5-1.2-2.8-2.8-2.8l0,0h-8c-1.5,0-2.8,1.2-2.8,2.8c0,0,0,0,0,0
			L322,54.2z"/>
	</g>
</g>
</svg>
