<svg xmlns="http://www.w3.org/2000/svg" xmlns:xlink="http://www.w3.org/1999/xlink" viewBox="0 0 141.09 116.8"><defs><style>.cls-1{isolation:isolate;}.cls-2{opacity:0.8;mix-blend-mode:multiply;fill:url(#radial-gradient);}.cls-3{fill:url(#linear-gradient);}.cls-4{fill:url(#linear-gradient-2);}.cls-5{fill:url(#linear-gradient-3);}.cls-6{fill:url(#linear-gradient-4);}</style><radialGradient id="radial-gradient" cx="39.23" cy="204.41" r="45.87" gradientTransform="matrix(1.47, -0.01, 0, 0.18, 12.03, 74.1)" gradientUnits="userSpaceOnUse"><stop offset="0"/><stop offset="0.03" stop-color="#1a1a1a"/><stop offset="0.1" stop-color="#4a4a4a"/><stop offset="0.17" stop-color="#757575"/><stop offset="0.24" stop-color="#9a9a9a"/><stop offset="0.32" stop-color="#bababa"/><stop offset="0.4" stop-color="#d3d3d3"/><stop offset="0.5" stop-color="#e7e7e7"/><stop offset="0.61" stop-color="#f5f5f5"/><stop offset="0.74" stop-color="#fdfdfd"/><stop offset="0.98" stop-color="#fff"/></radialGradient><linearGradient id="linear-gradient" x1="131.39" y1="7.25" x2="71.84" y2="120.31" gradientUnits="userSpaceOnUse"><stop offset="0" stop-color="#005996"/><stop offset="0.25" stop-color="#247bbf"/><stop offset="0.5" stop-color="#51afe2"/><stop offset="0.58" stop-color="#63b7e4"/><stop offset="0.73" stop-color="#94cae9"/><stop offset="0.95" stop-color="#e0eaf0"/><stop offset="1" stop-color="#f1f1f2"/></linearGradient><linearGradient id="linear-gradient-2" x1="9.4" y1="15.88" x2="126.5" y2="15.88" xlink:href="#linear-gradient"/><linearGradient id="linear-gradient-3" x1="69.41" y1="108.96" x2="15.43" y2="20.49" xlink:href="#linear-gradient"/><linearGradient id="linear-gradient-4" x1="128.62" y1="5.82" x2="69.39" y2="118.28" xlink:href="#linear-gradient"/></defs><title>Fichier 1</title><g class="cls-1"><g id="Calque_2" data-name="Calque 2"><g id="TXT"><path class="cls-2" d="M141.09,107.86c0,4.71-31.54,8.71-70.5,8.93S0,113.37,0,108.67,31.54,100,70.5,99.74,141.06,103.16,141.09,107.86Z"/><path class="cls-3" d="M115.67,12a7.94,7.94,0,0,0,0-8l16,27.75a7.94,7.94,0,0,1,0,8l-19.3,33.35-24-13.88Z"/><path class="cls-4" d="M25.42,4a7.94,7.94,0,0,1,6.93-4h76.38a7.94,7.94,0,0,1,6.94,4l16,27.75a7.94,7.94,0,0,0-6.94-4H16.33a7.94,7.94,0,0,0-6.93,4Z"/><path class="cls-5" d="M9.36,31.75,25.38,4a7.94,7.94,0,0,0,0,8l54.21,93.9a7.93,7.93,0,0,0,6.93,4h-32a7.93,7.93,0,0,1-6.94-4L9.36,39.76A7.94,7.94,0,0,1,9.36,31.75Z"/><path class="cls-6" d="M61.46,105.91,88.57,59l24,13.87L93.5,105.91a7.93,7.93,0,0,1-6.94,4h-32A7.93,7.93,0,0,0,61.46,105.91Z"/></g></g></g></svg>