<?xml version="1.0" encoding="UTF-8"?>
<svg width="73px" height="31px" viewBox="0 0 73 31" version="1.1" xmlns="http://www.w3.org/2000/svg" xmlns:xlink="http://www.w3.org/1999/xlink">
    <!-- Generator: Sketch 52.5 (67469) - http://www.bohemiancoding.com/sketch -->
    <title>ELLE_Magazine_Logo</title>
    <desc>Created with Sketch.</desc>
    <g id="Welcome" stroke="none" stroke-width="1" fill="none" fill-rule="evenodd">
        <g id="Mobile-Portrait-Copy-5" transform="translate(-193.000000, -720.000000)" fill="#FFFFFF">
            <g id="Group-10-Copy" transform="translate(226.000000, 735.500000) rotate(-270.000000) translate(-226.000000, -735.500000) translate(182.000000, 666.000000)">
                <g id="ELLE_Magazine_Logo" transform="translate(44.000000, 66.420886) rotate(-90.000000) translate(-44.000000, -66.420886) translate(7.480000, 51.905063)">
                    <path d="M2.66490566,28.6032558 L0.44,28.6032558 L0.44,29.0316456 L12.76,29.0316456 L12.76,21.3206296 L12.394717,21.3206296 C12.394717,21.3206296 12.394717,25.7692927 10.9003774,27.2192273 C9.63849057,28.4714436 8.31018868,28.5703027 6.15169811,28.5703027 L6.15169811,14.367534 C6.15169811,14.367534 7.64603774,14.2686748 8.37660377,14.9936422 C9.50566038,16.1140462 9.63849057,17.5639808 9.63849057,19.5741174 L10.0369811,19.5741174 L10.0369811,8.69960775 L9.63849057,8.69960775 C9.63849057,10.7097444 9.53886792,12.159679 8.37660377,13.280083 C7.64603774,14.0050504 6.15169811,13.9061912 6.15169811,13.9061912 L6.15169811,0.428389776 C8.31018868,0.428389776 9.33962264,0.560202014 10.6015094,1.77946522 C12.0626415,3.22939985 12.0958491,7.6780629 12.0958491,7.6780629 L12.4611321,7.6780629 L12.4611321,0 L0.44,0 L0.44,0.428389776 L2.66490566,0.428389776 L2.66490566,28.6032558 Z" id="Shape"></path>
                    <path d="M26.3916981,0.427904073 L26.3916981,28.5708258 C28.5501887,28.5708258 29.8784906,28.439163 31.1403774,27.2212822 C32.6015094,25.7729915 32.634717,21.3293723 32.634717,21.3293723 L33,21.3293723 L33,29.0316456 L20.68,29.0316456 L20.68,28.6037415 L22.9049057,28.6037415 L22.9049057,0.394988375 L20.68,0.394988375 L20.68,0 L28.4173585,0 L28.4173585,0.427904073 L26.3916981,0.427904073 Z" id="path14"></path>
                    <path d="M45.7516981,0.427904073 L45.7516981,28.5708258 C47.9101887,28.5708258 49.2384906,28.439163 50.5003774,27.2212822 C51.9615094,25.7729915 51.994717,21.3293723 51.994717,21.3293723 L52.36,21.3293723 L52.36,29.0316456 L40.04,29.0316456 L40.04,28.6037415 L42.2649057,28.6037415 L42.2649057,0.394988375 L40.04,0.394988375 L40.04,0 L47.7773585,0 L47.7773585,0.427904073 L45.7516981,0.427904073 Z" id="path16"></path>
                    <path d="M62.5049057,28.6032558 L60.28,28.6032558 L60.28,29.0316456 L72.6,29.0316456 L72.6,21.3206296 L72.234717,21.3206296 C72.234717,21.3206296 72.234717,25.7692927 70.7403774,27.2192273 C69.4784906,28.4714436 68.1501887,28.5703027 65.9916981,28.5703027 L65.9916981,14.367534 C65.9916981,14.367534 67.4860377,14.2686748 68.2166038,14.9936422 C69.3456604,16.1140462 69.4784906,17.5639808 69.4784906,19.5741174 L69.8769811,19.5741174 L69.8769811,8.69960775 L69.4784906,8.69960775 C69.4784906,10.7097444 69.3788679,12.159679 68.2166038,13.280083 C67.4860377,14.0050504 65.9916981,13.9061912 65.9916981,13.9061912 L65.9916981,0.428389776 C68.1501887,0.428389776 69.1796226,0.560202014 70.4415094,1.77946522 C71.9026415,3.22939985 71.9358491,7.6780629 71.9358491,7.6780629 L72.3011321,7.6780629 L72.3011321,0 L60.28,0 L60.28,0.428389776 L62.5049057,0.428389776 L62.5049057,28.6032558 Z" id="path18"></path>
                </g>
            </g>
        </g>
    </g>
</svg>