<?xml version="1.0" encoding="utf-8"?>
<!-- Generator: Adobe Illustrator 22.1.0, SVG Export Plug-In . SVG Version: 6.00 Build 0)  -->
<svg version="1.1" id="Calque_1" xmlns="http://www.w3.org/2000/svg" xmlns:xlink="http://www.w3.org/1999/xlink" x="0px" y="0px"
	 viewBox="0 0 1181 615.2" style="enable-background:new 0 0 1181 615.2;" xml:space="preserve">
<style type="text/css">
	.st0{clip-path:url(#SVGID_2_);}
	.st1{clip-path:url(#SVGID_4_);}
	.st2{clip-path:url(#SVGID_6_);fill:#005995;}
	.st3{opacity:0.8;clip-path:url(#SVGID_6_);}
	.st4{clip-path:url(#SVGID_8_);}
	.st5{clip-path:url(#SVGID_10_);fill:url(#SVGID_11_);}
	.st6{clip-path:url(#SVGID_13_);fill:url(#SVGID_14_);}
	.st7{clip-path:url(#SVGID_16_);fill:url(#SVGID_17_);}
	.st8{clip-path:url(#SVGID_19_);fill:url(#SVGID_20_);}
	.st9{clip-path:url(#SVGID_22_);fill:url(#SVGID_23_);}
</style>
<title>Plan de travail 1</title>
<g>
	<g>
		<defs>
			<rect id="SVGID_1_" x="116.1" y="3.2" width="913.3" height="645.8"/>
		</defs>
		<clipPath id="SVGID_2_">
			<use xlink:href="#SVGID_1_"  style="overflow:visible;"/>
		</clipPath>
		<g class="st0">
			<defs>
				<rect id="SVGID_3_" x="116.1" y="3.2" width="913.3" height="645.8"/>
			</defs>
			<clipPath id="SVGID_4_">
				<use xlink:href="#SVGID_3_"  style="overflow:visible;"/>
			</clipPath>
			<g class="st1">
				<defs>
					<rect id="SVGID_5_" x="116.1" y="3.2" width="913.3" height="645.8"/>
				</defs>
				<clipPath id="SVGID_6_">
					<use xlink:href="#SVGID_5_"  style="overflow:visible;"/>
				</clipPath>
				<path class="st2" d="M471.5,408.1v-2.2l5.5-1.1v3.7h14.5c2.1,0,2.6-0.5,2.6-2.4v-2c0-1.9-0.5-2.4-2.6-2.4h-9.1v-4.4h8.1
					c2.1,0,2.5-0.5,2.5-2.4v-1.4c0-1.9-0.5-2.4-2.5-2.4h-13.3v3.3l-5.3-1v-1.7c0-4.3,1.6-5.3,6.1-5.3h14.5c4.6,0,6.1,1,6.1,5.3v2.4
					c0,3.2-1.4,4.5-5.2,5.1c4.3,0.4,6.2,2.1,6.2,5.5v2.8c0,4.2-1.4,5.8-6.5,5.8h-15.6C473.1,413.3,471.5,412.4,471.5,408.1"/>
				<path class="st2" d="M507.7,386.5H525c10,0,15.4,4.9,15.4,13.3c0,5-2.2,9.2-5.9,11.5c-2.6,1.6-6.2,2.1-11,2.1h-15.7V386.5z
					 M522,408.3c7.9,0,11.9-2,11.9-8.6c0-5.5-3-8.4-8.8-8.4h-11.1v17H522z"/>
				<rect x="547.4" y="396.8" class="st2" width="12.1" height="5.4"/>
				<path class="st2" d="M574.6,391.2v5.8h16.8c5.1,0,6.7,1.3,6.7,6.3v3.7c0,5-1.7,6.3-6.7,6.3h-16.6c-5.1,0-6.7-1.3-6.7-6.3v-0.7
					l5.5-1.1v3.2h19v-6.1h-16.8c-5,0-6.7-1.3-6.7-6.3v-3c0-5,1.6-6.3,6.7-6.3h15.2c4.8,0,6.7,1.2,6.7,5.9v0.6l-5.5,1.3v-3.1H574.6z"
					/>
				<rect x="605.9" y="386.5" class="st2" width="6.2" height="26.9"/>
				<path class="st2" d="M620.6,386.5h17.3c10,0,15.4,4.9,15.4,13.3c0,5-2.2,9.2-5.9,11.5c-2.6,1.6-6.2,2.1-11,2.1h-15.7V386.5z
					 M634.9,408.3c7.9,0,11.9-2,11.9-8.6c0-5.5-3-8.4-8.8-8.4h-11.1v17H634.9z"/>
				<polygon class="st2" points="659.5,386.5 687,386.5 687,391.1 665.8,391.1 665.8,397.1 678.2,397.1 678.2,401.6 665.8,401.6 
					665.8,408.3 687.3,408.3 687.3,413.3 659.5,413.3 				"/>
				<g class="st3">
					<g>
						<defs>
							<rect id="SVGID_7_" x="502.9" y="337.4" width="153.1" height="18.5"/>
						</defs>
						<clipPath id="SVGID_8_">
							<use xlink:href="#SVGID_7_"  style="overflow:visible;"/>
						</clipPath>
						<g class="st4">
							<defs>
								<path id="SVGID_9_" d="M655.9,346.2c0,5.1-34.2,9.4-76.5,9.7c-42.3,0.2-76.6-3.7-76.6-8.8c0-5.1,34.2-9.4,76.5-9.7
									C621.6,337.2,655.9,341.1,655.9,346.2"/>
							</defs>
							<clipPath id="SVGID_10_">
								<use xlink:href="#SVGID_9_"  style="overflow:visible;"/>
							</clipPath>
							
								<radialGradient id="SVGID_11_" cx="2.2602" cy="613.8504" r="1.0849" gradientTransform="matrix(67.3306 -0.3853 -5.045890e-02 -8.3441 457.4011 5472.4858)" gradientUnits="userSpaceOnUse">
								<stop  offset="0" style="stop-color:#1D1D1B"/>
								<stop  offset="1.381961e-03" style="stop-color:#1E1E1C"/>
								<stop  offset="6.780212e-02" style="stop-color:#4D4D4B"/>
								<stop  offset="0.1378" style="stop-color:#767675"/>
								<stop  offset="0.2139" style="stop-color:#9B9B9A"/>
								<stop  offset="0.2951" style="stop-color:#BABABA"/>
								<stop  offset="0.3831" style="stop-color:#D4D4D3"/>
								<stop  offset="0.4806" style="stop-color:#E7E7E7"/>
								<stop  offset="0.5925" style="stop-color:#F5F5F5"/>
								<stop  offset="0.7317" style="stop-color:#FDFDFD"/>
								<stop  offset="0.9821" style="stop-color:#FFFFFF"/>
								<stop  offset="1" style="stop-color:#FFFFFF"/>
							</radialGradient>
							<polygon class="st5" points="502.7,337.2 655.9,336.3 656.1,356.2 502.8,357 							"/>
						</g>
					</g>
				</g>
			</g>
			<g class="st1">
				<defs>
					<path id="SVGID_12_" d="M628.3,242.3l-29.6,51.2l26.1,15.1l20.9-36.2c1.7-2.9,1.5-6.2,0-8.7l-17.4-30.1
						C629.8,236.1,630,239.4,628.3,242.3"/>
				</defs>
				<clipPath id="SVGID_13_">
					<use xlink:href="#SVGID_12_"  style="overflow:visible;"/>
				</clipPath>
				
					<linearGradient id="SVGID_14_" gradientUnits="userSpaceOnUse" x1="-0.5633" y1="616.2653" x2="0.5216" y2="616.2653" gradientTransform="matrix(-59.5451 113.0603 113.0603 59.5451 -69066.7734 -36396.6289)">
					<stop  offset="0" style="stop-color:#005996"/>
					<stop  offset="0.25" style="stop-color:#247BBF"/>
					<stop  offset="0.5" style="stop-color:#51AFE2"/>
					<stop  offset="0.5777" style="stop-color:#63B7E4"/>
					<stop  offset="0.7344" style="stop-color:#93CAE9"/>
					<stop  offset="0.9541" style="stop-color:#E0EAF0"/>
					<stop  offset="1" style="stop-color:#F1F1F2"/>
				</linearGradient>
				<polygon class="st6" points="678.3,249.9 636.8,328.6 567.8,292.3 609.3,213.5 				"/>
			</g>
			<g class="st1">
				<defs>
					<path id="SVGID_15_" d="M538,229.2c-3.3,0-6.1,1.8-7.5,4.3L513,263.7c1.5-2.5,4.2-4.3,7.5-4.3l117.6,0c3.3,0,6.1,1.8,7.5,4.3
						l-17.4-30.1c-1.5-2.5-4.2-4.3-7.5-4.3H538z"/>
				</defs>
				<clipPath id="SVGID_16_">
					<use xlink:href="#SVGID_15_"  style="overflow:visible;"/>
				</clipPath>
				
					<linearGradient id="SVGID_17_" gradientUnits="userSpaceOnUse" x1="1.2563" y1="615.1802" x2="2.3412" y2="615.1802" gradientTransform="matrix(117.1033 0 0 -117.1033 365.9294 72286.0859)">
					<stop  offset="0" style="stop-color:#005996"/>
					<stop  offset="0.25" style="stop-color:#247BBF"/>
					<stop  offset="0.5" style="stop-color:#51AFE2"/>
					<stop  offset="0.5777" style="stop-color:#63B7E4"/>
					<stop  offset="0.7344" style="stop-color:#93CAE9"/>
					<stop  offset="0.9541" style="stop-color:#E0EAF0"/>
					<stop  offset="1" style="stop-color:#F1F1F2"/>
				</linearGradient>
				<rect x="513" y="229.2" class="st7" width="132.7" height="34.4"/>
			</g>
			<g class="st1">
				<defs>
					<path id="SVGID_18_" d="M513,263.7c-1.5,2.5-1.7,5.8,0,8.7l41.4,71.8c1.7,2.9,4.6,4.3,7.5,4.3h34.8c-2.9,0-5.9-1.4-7.5-4.3
						l-58.8-101.9c-1.7-2.9-1.5-6.2,0-8.7L513,263.7z"/>
				</defs>
				<clipPath id="SVGID_19_">
					<use xlink:href="#SVGID_18_"  style="overflow:visible;"/>
				</clipPath>
				
					<linearGradient id="SVGID_20_" gradientUnits="userSpaceOnUse" x1="-0.8492" y1="613.9128" x2="0.2357" y2="613.9128" gradientTransform="matrix(-53.9787 -88.4651 -88.4651 53.9787 54849.6875 -32870.4922)">
					<stop  offset="0" style="stop-color:#005996"/>
					<stop  offset="0.25" style="stop-color:#247BBF"/>
					<stop  offset="0.5" style="stop-color:#51AFE2"/>
					<stop  offset="0.5777" style="stop-color:#63B7E4"/>
					<stop  offset="0.7344" style="stop-color:#93CAE9"/>
					<stop  offset="0.9541" style="stop-color:#E0EAF0"/>
					<stop  offset="1" style="stop-color:#F1F1F2"/>
				</linearGradient>
				<polygon class="st8" points="534.5,386.4 460.2,264.7 573.6,195.6 647.8,317.3 				"/>
			</g>
			<g class="st1">
				<defs>
					<path id="SVGID_21_" d="M569.5,344.1c-1.7,2.9-4.6,4.3-7.5,4.3h34.8c2.9,0,5.9-1.4,7.5-4.3l20.7-35.9l-26.1-15L569.5,344.1z"/>
				</defs>
				<clipPath id="SVGID_22_">
					<use xlink:href="#SVGID_21_"  style="overflow:visible;"/>
				</clipPath>
				
					<linearGradient id="SVGID_23_" gradientUnits="userSpaceOnUse" x1="-0.5663" y1="616.2724" x2="0.5186" y2="616.2724" gradientTransform="matrix(-59.2267 112.4557 112.4557 59.2267 -68697.5781 -36202.1602)">
					<stop  offset="0" style="stop-color:#005996"/>
					<stop  offset="0.25" style="stop-color:#247BBF"/>
					<stop  offset="0.5" style="stop-color:#51AFE2"/>
					<stop  offset="0.5777" style="stop-color:#63B7E4"/>
					<stop  offset="0.7344" style="stop-color:#93CAE9"/>
					<stop  offset="0.9541" style="stop-color:#E0EAF0"/>
					<stop  offset="1" style="stop-color:#F1F1F2"/>
				</linearGradient>
				<polygon class="st9" points="647.8,305.2 611.3,374.4 539.2,336.5 575.7,267.2 				"/>
			</g>
		</g>
	</g>
</g>
</svg>
