<?xml version="1.0" encoding="utf-8"?>
<!-- Generator: Adobe Illustrator 22.1.0, SVG Export Plug-In . SVG Version: 6.00 Build 0)  -->
<svg version="1.1" id="Calque_1" xmlns="http://www.w3.org/2000/svg" xmlns:xlink="http://www.w3.org/1999/xlink" x="0px" y="0px"
	 viewBox="0 0 174.2 164" style="enable-background:new 0 0 174.2 164;" xml:space="preserve">
<style type="text/css">
	.st0{fill:url(#SVGID_1_);}
	.st1{fill:url(#SVGID_2_);}
	.st2{fill:url(#SVGID_3_);}
	.st3{fill:url(#SVGID_4_);}
</style>
<title>Artboard 1</title>
<g>
	<g id="TXT">
		
			<linearGradient id="SVGID_1_" gradientUnits="userSpaceOnUse" x1="124.1237" y1="330.3447" x2="87.5572" y2="399.7805" gradientTransform="matrix(1 0 0 1 0 -278.1102)">
			<stop  offset="0" style="stop-color:#005996"/>
			<stop  offset="0.25" style="stop-color:#247BBF"/>
			<stop  offset="0.5" style="stop-color:#51AFE2"/>
			<stop  offset="0.58" style="stop-color:#63B7E4"/>
			<stop  offset="0.73" style="stop-color:#94CAE9"/>
			<stop  offset="0.95" style="stop-color:#E0EAF0"/>
			<stop  offset="1" style="stop-color:#F1F1F2"/>
		</linearGradient>
		<path class="st0" d="M114.5,55.2c0.9-1.5,0.9-3.4,0-4.9l9.8,17.1c0.9,1.5,0.9,3.4,0,4.9l-11.9,20.5l-14.7-8.5L114.5,55.2z"/>
		
			<linearGradient id="SVGID_2_" gradientUnits="userSpaceOnUse" x1="49.2379" y1="335.6777" x2="121.1609" y2="335.6777" gradientTransform="matrix(1 0 0 1 0 -278.1102)">
			<stop  offset="0" style="stop-color:#005996"/>
			<stop  offset="0.25" style="stop-color:#247BBF"/>
			<stop  offset="0.5" style="stop-color:#51AFE2"/>
			<stop  offset="0.58" style="stop-color:#63B7E4"/>
			<stop  offset="0.73" style="stop-color:#94CAE9"/>
			<stop  offset="0.95" style="stop-color:#E0EAF0"/>
			<stop  offset="1" style="stop-color:#F1F1F2"/>
		</linearGradient>
		<path class="st1" d="M59.1,50.3c0.9-1.5,2.5-2.5,4.2-2.5h46.9c1.8,0,3.4,0.9,4.2,2.5l9.8,17.1c-0.9-1.5-2.5-2.5-4.2-2.5H53.5
			c-1.8,0-3.4,0.9-4.2,2.5L59.1,50.3z"/>
		
			<linearGradient id="SVGID_3_" gradientUnits="userSpaceOnUse" x1="86.0851" y1="392.8155" x2="52.9333" y2="338.4817" gradientTransform="matrix(1 0 0 1 0 -278.1102)">
			<stop  offset="0" style="stop-color:#005996"/>
			<stop  offset="0.25" style="stop-color:#247BBF"/>
			<stop  offset="0.5" style="stop-color:#51AFE2"/>
			<stop  offset="0.58" style="stop-color:#63B7E4"/>
			<stop  offset="0.73" style="stop-color:#94CAE9"/>
			<stop  offset="0.95" style="stop-color:#E0EAF0"/>
			<stop  offset="1" style="stop-color:#F1F1F2"/>
		</linearGradient>
		<path class="st2" d="M49.2,67.3L59,50.2c-0.9,1.5-0.9,3.4,0,4.9l33.3,57.7c0.9,1.5,2.5,2.5,4.2,2.5H76.9c-1.8,0-3.4-0.9-4.2-2.5
			L49.2,72.2C48.3,70.7,48.3,68.8,49.2,67.3z"/>
		
			<linearGradient id="SVGID_4_" gradientUnits="userSpaceOnUse" x1="122.4208" y1="329.4655" x2="86.0509" y2="398.5266" gradientTransform="matrix(1 0 0 1 0 -278.1102)">
			<stop  offset="0" style="stop-color:#005996"/>
			<stop  offset="0.25" style="stop-color:#247BBF"/>
			<stop  offset="0.5" style="stop-color:#51AFE2"/>
			<stop  offset="0.58" style="stop-color:#63B7E4"/>
			<stop  offset="0.73" style="stop-color:#94CAE9"/>
			<stop  offset="0.95" style="stop-color:#E0EAF0"/>
			<stop  offset="1" style="stop-color:#F1F1F2"/>
		</linearGradient>
		<path class="st3" d="M81.2,112.8L97.8,84l14.7,8.5l-11.7,20.3c-0.9,1.5-2.5,2.5-4.2,2.5H76.9C78.7,115.3,80.3,114.4,81.2,112.8z"
			/>
	</g>
</g>
</svg>
