<?xml version="1.0" encoding="utf-8"?>
<!-- Generator: Adobe Illustrator 22.1.0, SVG Export Plug-In . SVG Version: 6.00 Build 0)  -->
<svg version="1.1" id="Calque_1" xmlns="http://www.w3.org/2000/svg" xmlns:xlink="http://www.w3.org/1999/xlink" x="0px" y="0px"
	 viewBox="0 0 243.2 201.9" style="enable-background:new 0 0 243.2 201.9;" xml:space="preserve">
<style type="text/css">
	.st0{fill:#005995;}
	.st1{fill:url(#SVGID_1_);}
	.st2{fill:url(#SVGID_2_);}
	.st3{fill:url(#SVGID_3_);}
	.st4{fill:url(#SVGID_4_);}
</style>
<title>Artboard 1</title>
<g>
	<g id="TXT">
		<path class="st0" d="M21.9,180.4v-2l5.1-1.1v3.4h13.3c1.9,0,2.4-0.4,2.4-2.2v-1.8c0-1.8-0.5-2.2-2.4-2.2H32v-4h7.4
			c1.9,0,2.3-0.5,2.3-2.3V167c0-1.8-0.4-2.2-2.3-2.2H27.2v3.1l-4.9-0.9v-1.5c0-3.9,1.4-4.8,5.7-4.8h13.4c4.2,0,5.7,0.9,5.7,4.8v2.3
			c0,2.9-1.2,4.1-4.8,4.7c3.9,0.4,5.8,1.9,5.8,5v2.7c0,3.8-1.2,5.3-6,5.3H27.5C23.3,185.3,21.9,184.4,21.9,180.4z"/>
		<path class="st0" d="M55.2,160.5h15.9c9.2,0,14.2,4.6,14.2,12.2c0,4.6-2,8.5-5.5,10.6c-2.4,1.5-5.8,1.9-10.2,1.9H55.2V160.5z
			 M68.4,180.6c7.3,0,10.9-1.8,10.9-8c0-5-2.7-7.7-8.2-7.7H61v15.7L68.4,180.6z"/>
		<path class="st0" d="M91.8,170H103v5H91.8V170z"/>
		<path class="st0" d="M116.9,164.9v5.3h15.5c4.6,0,6.2,1.2,6.2,5.9v3.4c0,4.6-1.5,5.9-6.2,5.9h-15.3c-4.7,0-6.2-1.2-6.2-5.9v-0.7
			l5.1-1.1v2.9h17.5V175H118c-4.7,0-6.1-1.2-6.1-5.9v-2.7c0-4.6,1.5-5.9,6.1-5.9h14.1c4.4,0,6.1,1.1,6.1,5.4v0.5l-5.1,1.2v-2.8
			L116.9,164.9z"/>
		<path class="st0" d="M145.7,160.5h5.8v24.8h-5.8V160.5z"/>
		<path class="st0" d="M159.3,160.5h15.9c9.3,0,14.1,4.6,14.1,12.2c0,4.6-2,8.5-5.5,10.6c-2.4,1.5-5.8,1.9-10.2,1.9h-14.4V160.5z
			 M172.5,180.6c7.3,0,10.9-1.8,10.9-8c0-5-2.7-7.7-8.1-7.7h-10.2v15.7L172.5,180.6z"/>
		<path class="st0" d="M195.2,160.5h25.3v4.2h-19.6v5.5h11.4v4.2h-11.4v6.1h19.8v4.6h-25.6V160.5z"/>
		
			<linearGradient id="SVGID_1_" gradientUnits="userSpaceOnUse" x1="182.1604" y1="179.0595" x2="122.6204" y2="65.9995" gradientTransform="matrix(1 0 0 -1 0 201.8898)">
			<stop  offset="0" style="stop-color:#005996"/>
			<stop  offset="0.25" style="stop-color:#247BBF"/>
			<stop  offset="0.5" style="stop-color:#51AFE2"/>
			<stop  offset="0.58" style="stop-color:#63B7E4"/>
			<stop  offset="0.73" style="stop-color:#94CAE9"/>
			<stop  offset="0.95" style="stop-color:#E0EAF0"/>
			<stop  offset="1" style="stop-color:#F1F1F2"/>
		</linearGradient>
		<path class="st1" d="M166.4,27.6c1.4-2.5,1.4-5.5,0-8l16,27.8c1.4,2.5,1.4,5.5,0,8l-19.3,33.4l-24-13.9L166.4,27.6z"/>
		
			<linearGradient id="SVGID_2_" gradientUnits="userSpaceOnUse" x1="60.17" y1="170.4348" x2="177.28" y2="170.4348" gradientTransform="matrix(1 0 0 -1 0 201.8898)">
			<stop  offset="0" style="stop-color:#005996"/>
			<stop  offset="0.25" style="stop-color:#247BBF"/>
			<stop  offset="0.5" style="stop-color:#51AFE2"/>
			<stop  offset="0.58" style="stop-color:#63B7E4"/>
			<stop  offset="0.73" style="stop-color:#94CAE9"/>
			<stop  offset="0.95" style="stop-color:#E0EAF0"/>
			<stop  offset="1" style="stop-color:#F1F1F2"/>
		</linearGradient>
		<path class="st2" d="M76.2,19.6c1.4-2.5,4.1-4,6.9-4h76.4c2.9,0,5.5,1.5,6.9,4l16,27.8c-1.4-2.5-4.1-4-6.9-4H67.1
			c-2.9,0-5.5,1.5-6.9,4L76.2,19.6z"/>
		
			<linearGradient id="SVGID_3_" gradientUnits="userSpaceOnUse" x1="120.188" y1="77.3486" x2="66.208" y2="165.8186" gradientTransform="matrix(1 0 0 -1 0 201.8898)">
			<stop  offset="0" style="stop-color:#005996"/>
			<stop  offset="0.25" style="stop-color:#247BBF"/>
			<stop  offset="0.5" style="stop-color:#51AFE2"/>
			<stop  offset="0.58" style="stop-color:#63B7E4"/>
			<stop  offset="0.73" style="stop-color:#94CAE9"/>
			<stop  offset="0.95" style="stop-color:#E0EAF0"/>
			<stop  offset="1" style="stop-color:#F1F1F2"/>
		</linearGradient>
		<path class="st3" d="M60.1,47.3l16-27.8c-1.4,2.5-1.4,5.5,0,8l54.2,93.9c1.4,2.5,4.1,4,6.9,4h-32c-2.9,0-5.5-1.5-6.9-4L60.1,55.3
			C58.7,52.9,58.7,49.8,60.1,47.3z"/>
		
			<linearGradient id="SVGID_4_" gradientUnits="userSpaceOnUse" x1="179.381" y1="180.4945" x2="120.161" y2="68.0445" gradientTransform="matrix(1 0 0 -1 0 201.8898)">
			<stop  offset="0" style="stop-color:#005996"/>
			<stop  offset="0.25" style="stop-color:#247BBF"/>
			<stop  offset="0.5" style="stop-color:#51AFE2"/>
			<stop  offset="0.58" style="stop-color:#63B7E4"/>
			<stop  offset="0.73" style="stop-color:#94CAE9"/>
			<stop  offset="0.95" style="stop-color:#E0EAF0"/>
			<stop  offset="1" style="stop-color:#F1F1F2"/>
		</linearGradient>
		<path class="st4" d="M112.2,121.5l27.1-47l24,13.9l-19.1,33.1c-1.4,2.5-4.1,4-6.9,4h-32C108.2,125.5,110.8,124,112.2,121.5z"/>
	</g>
</g>
</svg>
