<?xml version="1.0" encoding="utf-8"?>
<!-- Generator: Adobe Illustrator 22.1.0, SVG Export Plug-In . SVG Version: 6.00 Build 0)  -->
<svg version="1.1" id="Calque_1" xmlns="http://www.w3.org/2000/svg" xmlns:xlink="http://www.w3.org/1999/xlink" x="0px" y="0px"
	 viewBox="0 0 421.6 349" style="enable-background:new 0 0 421.6 349;" xml:space="preserve">
<style type="text/css">
	.st0{fill:#FFFFFF;}
	.st1{fill:url(#SVGID_1_);}
	.st2{fill:url(#SVGID_2_);}
	.st3{fill:url(#SVGID_3_);}
	.st4{fill:url(#SVGID_4_);}
</style>
<rect class="st0" width="421.6" height="349"/>
<title>Fichier 1</title>
<g>
	<g id="Calque_2_1_">
		<g id="TXT">
			
				<linearGradient id="SVGID_1_" gradientUnits="userSpaceOnUse" x1="254.9345" y1="628.202" x2="211.7081" y2="710.2705" gradientTransform="matrix(1 0 0 1 0 -491.7796)">
				<stop  offset="0" style="stop-color:#005996"/>
				<stop  offset="0.25" style="stop-color:#247BBF"/>
				<stop  offset="0.5" style="stop-color:#51AFE2"/>
				<stop  offset="0.58" style="stop-color:#63B7E4"/>
				<stop  offset="0.73" style="stop-color:#94CAE9"/>
				<stop  offset="0.95" style="stop-color:#E0EAF0"/>
				<stop  offset="1" style="stop-color:#F1F1F2"/>
			</linearGradient>
			<path class="st1" d="M243.5,139.9c1-1.8,1-4,0-5.8l11.6,20.2c1,1.8,1,4,0,5.8l-14,24.2l-17.4-10.1L243.5,139.9z"/>
			
				<linearGradient id="SVGID_2_" gradientUnits="userSpaceOnUse" x1="166.4348" y1="634.4838" x2="251.4358" y2="634.4838" gradientTransform="matrix(1 0 0 1 0 -491.7796)">
				<stop  offset="0" style="stop-color:#005996"/>
				<stop  offset="0.25" style="stop-color:#247BBF"/>
				<stop  offset="0.5" style="stop-color:#51AFE2"/>
				<stop  offset="0.58" style="stop-color:#63B7E4"/>
				<stop  offset="0.73" style="stop-color:#94CAE9"/>
				<stop  offset="0.95" style="stop-color:#E0EAF0"/>
				<stop  offset="1" style="stop-color:#F1F1F2"/>
			</linearGradient>
			<path class="st2" d="M178,134.1c1-1.8,3-2.9,5-2.9h55.5c2.1,0,4,1.1,5,2.9l11.6,20.2c-1-1.8-3-2.9-5-2.9h-78.7
				c-2.1,0-4,1.1-5,2.9L178,134.1z"/>
			
				<linearGradient id="SVGID_3_" gradientUnits="userSpaceOnUse" x1="209.9586" y1="702.0451" x2="170.7754" y2="637.8261" gradientTransform="matrix(1 0 0 1 0 -491.7796)">
				<stop  offset="0" style="stop-color:#005996"/>
				<stop  offset="0.25" style="stop-color:#247BBF"/>
				<stop  offset="0.5" style="stop-color:#51AFE2"/>
				<stop  offset="0.58" style="stop-color:#63B7E4"/>
				<stop  offset="0.73" style="stop-color:#94CAE9"/>
				<stop  offset="0.95" style="stop-color:#E0EAF0"/>
				<stop  offset="1" style="stop-color:#F1F1F2"/>
			</linearGradient>
			<path class="st3" d="M166.4,154.2l11.6-20.2c-1,1.8-1,4,0,5.8l39.3,68.2c1,1.8,3,2.9,5,2.9h-23.2c-2.1,0-4-1.1-5-2.9l-27.7-48
				C165.3,158.2,165.3,156,166.4,154.2z"/>
			
				<linearGradient id="SVGID_4_" gradientUnits="userSpaceOnUse" x1="252.9381" y1="627.1715" x2="209.944" y2="708.8044" gradientTransform="matrix(1 0 0 1 0 -491.7796)">
				<stop  offset="0" style="stop-color:#005996"/>
				<stop  offset="0.25" style="stop-color:#247BBF"/>
				<stop  offset="0.5" style="stop-color:#51AFE2"/>
				<stop  offset="0.58" style="stop-color:#63B7E4"/>
				<stop  offset="0.73" style="stop-color:#94CAE9"/>
				<stop  offset="0.95" style="stop-color:#E0EAF0"/>
				<stop  offset="1" style="stop-color:#F1F1F2"/>
			</linearGradient>
			<path class="st4" d="M204.2,208l19.7-34l17.4,10.1l-13.9,24c-1,1.8-3,2.9-5,2.9h-23.2C201.3,210.9,203.2,209.8,204.2,208z"/>
		</g>
	</g>
</g>
</svg>
