<?xml version="1.0" encoding="utf-8"?>
<!-- Generator: Adobe Illustrator 22.1.0, SVG Export Plug-In . SVG Version: 6.00 Build 0)  -->
<svg version="1.1" id="Calque_1" xmlns="http://www.w3.org/2000/svg" xmlns:xlink="http://www.w3.org/1999/xlink" x="0px" y="0px"
	 viewBox="0 0 1181 655.6" style="enable-background:new 0 0 1181 655.6;" xml:space="preserve">
<style type="text/css">
	.st0{fill:url(#SVGID_1_);}
	.st1{opacity:0.16;fill:url(#SVGID_2_);}
	.st2{opacity:0.77;fill:url(#SVGID_3_);}
	.st3{opacity:0.14;fill:url(#SVGID_4_);}
	.st4{fill:url(#SVGID_5_);}
	.st5{opacity:0.16;fill:url(#SVGID_6_);}
	.st6{opacity:0.77;fill:url(#SVGID_7_);}
	.st7{opacity:0.14;fill:url(#SVGID_8_);}
	.st8{clip-path:url(#SVGID_10_);}
	.st9{clip-path:url(#SVGID_12_);}
	.st10{clip-path:url(#SVGID_14_);fill:#005995;}
	.st11{opacity:0.8;clip-path:url(#SVGID_14_);}
	.st12{clip-path:url(#SVGID_16_);}
	.st13{clip-path:url(#SVGID_18_);fill:url(#SVGID_19_);}
	.st14{clip-path:url(#SVGID_21_);fill:url(#SVGID_22_);}
	.st15{clip-path:url(#SVGID_24_);fill:url(#SVGID_25_);}
	.st16{clip-path:url(#SVGID_27_);fill:url(#SVGID_28_);}
	.st17{clip-path:url(#SVGID_30_);fill:url(#SVGID_31_);}
</style>
<title>Plan de travail 1</title>
<linearGradient id="SVGID_1_" gradientUnits="userSpaceOnUse" x1="-109.8987" y1="126.5346" x2="1199.0577" y2="126.5346" gradientTransform="matrix(-1 0 0 -1 1109.7037 701.7418)">
	<stop  offset="0.1009" style="stop-color:#CFE9F9"/>
	<stop  offset="0.2509" style="stop-color:#C3E5F8;stop-opacity:0.8634"/>
	<stop  offset="0.7201" style="stop-color:#A3D9F7;stop-opacity:0.4361"/>
	<stop  offset="0.9794" style="stop-color:#97D5F6;stop-opacity:0.2"/>
</linearGradient>
<path class="st0" d="M-88.1,525.3c46.1-0.1,238.6,27.5,286.6,26.7c134.4-2.3,326.1-42,520.7-49c137.4-4.9,302.6,5.1,486.6,15.1
	c27.8,1.5,5.2,130.4,5.2,130.4l-1281.8-6.6C-70.9,642.1-95.1,552.4-88.1,525.3z"/>
<linearGradient id="SVGID_2_" gradientUnits="userSpaceOnUse" x1="1859.4279" y1="7019.2222" x2="796.0841" y2="6457.8105" gradientTransform="matrix(1 0 0 1 -762.7289 -6138.2578)">
	<stop  offset="0.2769" style="stop-color:#247BBF"/>
	<stop  offset="0.6111" style="stop-color:#50AEE1;stop-opacity:0.9"/>
</linearGradient>
<path class="st1" d="M-94.1,561c0,0,292.9,67.9,422.5,62.3c156.8-6.8,290.3-95.7,468.3-109.3c45.1-3.4,93.1-5.2,145.3-4.2
	c287.8,5.2,278.4,42.5,278.4,42.5l-4.7,103.5l-1317.6-7.7L-94.1,561z"/>
<linearGradient id="SVGID_3_" gradientUnits="userSpaceOnUse" x1="1850.5522" y1="7027.2549" x2="736.1142" y2="6438.8672" gradientTransform="matrix(1 0 0 1 -762.7289 -6138.2578)">
	<stop  offset="0.2769" style="stop-color:#0075B2"/>
	<stop  offset="0.6111" style="stop-color:#50AEE1;stop-opacity:0.9"/>
</linearGradient>
<path class="st2" d="M-136.7,509.1c0,0,309.3,79.3,512.5,52.6c101.5-13.3,205.8-58.4,490-58.8c131.3-0.2,227.5,38.6,353.3,49.9
	c27.8,2.5-8.9,104.3-8.9,104.3l-1334.1-1.3L-136.7,509.1z"/>
<linearGradient id="SVGID_4_" gradientUnits="userSpaceOnUse" x1="2674.5959" y1="6984.8506" x2="1646.9337" y2="6442.2778" gradientTransform="matrix(-1 0 0 1 2654.4089 -6138.2578)">
	<stop  offset="0.2769" style="stop-color:#247BBF"/>
	<stop  offset="0.6111" style="stop-color:#50AEE1;stop-opacity:0.9"/>
</linearGradient>
<path class="st3" d="M1125.7,527.9c0,0-166.5,25.3-292.2,19.7c-152.1-6.8-279.7-47.1-452.4-60.7c-43.7-3.4-90.3-5.2-140.9-4.2
	c-279.2,5.2-380,42.5-380,42.5l4.5,103.5l1270.2-7L1125.7,527.9z"/>
<linearGradient id="SVGID_5_" gradientUnits="userSpaceOnUse" x1="-121.5063" y1="42.7394" x2="1187.4502" y2="42.7394">
	<stop  offset="0.1009" style="stop-color:#CFE9F9"/>
	<stop  offset="0.2509" style="stop-color:#C3E5F8;stop-opacity:0.8634"/>
	<stop  offset="0.7201" style="stop-color:#A3D9F7;stop-opacity:0.4361"/>
	<stop  offset="0.9794" style="stop-color:#97D5F6;stop-opacity:0.2"/>
</linearGradient>
<path class="st4" d="M1186.2,92.6c-46.1,0.1-238.6-27.5-286.6-26.7c-134.4,2.3-326.1,42-520.7,49c-137.4,4.9-302.6-5.1-486.6-15.1
	c-27.8-1.5-5.2-130.4-5.2-130.4L1169-24.1C1169-24.1,1193.2,65.5,1186.2,92.6z"/>
<linearGradient id="SVGID_6_" gradientUnits="userSpaceOnUse" x1="1871.0354" y1="7103.0171" x2="807.6917" y2="6541.606" gradientTransform="matrix(-1 0 0 -1 1872.4326 6839.9995)">
	<stop  offset="0.2769" style="stop-color:#247BBF"/>
	<stop  offset="0.6111" style="stop-color:#50AEE1;stop-opacity:0.9"/>
</linearGradient>
<path class="st5" d="M1192.2,57c0,0-292.9-67.9-422.5-62.3C612.9,1.6,479.4,90.4,301.4,104c-45.1,3.4-93.1,5.2-145.3,4.2
	c-287.8-5.2-278.4-42.5-278.4-42.5l4.7-103.5L1200-30L1192.2,57z"/>
<linearGradient id="SVGID_7_" gradientUnits="userSpaceOnUse" x1="1854.1344" y1="7086.6201" x2="756.0589" y2="6506.8716" gradientTransform="matrix(-1 0 0 -1 1872.4326 6839.9995)">
	<stop  offset="0.2769" style="stop-color:#0075B2"/>
	<stop  offset="0.6111" style="stop-color:#50AEE1;stop-opacity:0.9"/>
</linearGradient>
<path class="st6" d="M1234.8,108.9c0,0-309.3-79.3-512.5-52.6c-101.5,13.3-205.8,58.4-490,58.8C100.9,115.3,4.7,76.5-121.1,65.2
	c-27.8-2.5,8.9-64.3,8.9-64.3l1334.1,1.3L1234.8,108.9z"/>
<linearGradient id="SVGID_8_" gradientUnits="userSpaceOnUse" x1="2662.9883" y1="7068.646" x2="1635.3262" y2="6526.0732" gradientTransform="matrix(1 0 0 -1 -1544.7051 6839.9995)">
	<stop  offset="0.2769" style="stop-color:#247BBF"/>
	<stop  offset="0.6111" style="stop-color:#50AEE1;stop-opacity:0.9"/>
</linearGradient>
<path class="st7" d="M-27.6,90.1c0,0,166.5-25.3,292.2-19.7c152.1,6.8,279.7,47.1,452.4,60.7c43.7,3.4,90.3,5.2,140.9,4.2
	c279.2-5.2,380-42.5,380-42.5l-4.5-103.5l-1270.2,7L-27.6,90.1z"/>
<g>
	<g>
		<defs>
			<rect id="SVGID_9_" x="151.8" y="13.7" width="841.9" height="595.3"/>
		</defs>
		<clipPath id="SVGID_10_">
			<use xlink:href="#SVGID_9_"  style="overflow:visible;"/>
		</clipPath>
		<g class="st8">
			<defs>
				<rect id="SVGID_11_" x="151.8" y="13.7" width="841.9" height="595.3"/>
			</defs>
			<clipPath id="SVGID_12_">
				<use xlink:href="#SVGID_11_"  style="overflow:visible;"/>
			</clipPath>
			<g class="st9">
				<defs>
					<rect id="SVGID_13_" x="151.8" y="13.7" width="841.9" height="595.3"/>
				</defs>
				<clipPath id="SVGID_14_">
					<use xlink:href="#SVGID_13_"  style="overflow:visible;"/>
				</clipPath>
				<path class="st10" d="M479.4,386.9v-2l5.1-1.1v3.5h13.3c1.9,0,2.4-0.4,2.4-2.2v-1.8c0-1.8-0.5-2.3-2.4-2.3h-8.3v-4h7.4
					c1.9,0,2.4-0.5,2.4-2.3v-1.2c0-1.8-0.4-2.3-2.4-2.3h-12.2v3.1l-4.9-0.9v-1.5c0-3.9,1.4-4.8,5.7-4.8h13.4c4.2,0,5.7,0.9,5.7,4.8
					v2.3c0,2.9-1.2,4.1-4.8,4.7c3.9,0.4,5.8,1.9,5.8,5v2.6c0,3.8-1.2,5.3-6,5.3h-14.4C480.9,391.8,479.4,390.9,479.4,386.9"/>
				<path class="st10" d="M512.8,367h15.9c9.3,0,14.2,4.6,14.2,12.2c0,4.7-2,8.5-5.5,10.6c-2.4,1.5-5.8,1.9-10.2,1.9h-14.4V367z
					 M526,387.1c7.3,0,10.9-1.8,10.9-8c0-5-2.7-7.7-8.2-7.7h-10.2v15.7H526z"/>
				<rect x="549.4" y="376.5" class="st10" width="11.2" height="4.9"/>
				<path class="st10" d="M574.5,371.3v5.3h15.4c4.7,0,6.2,1.2,6.2,5.9v3.4c0,4.7-1.5,5.9-6.2,5.9h-15.3c-4.7,0-6.2-1.2-6.2-5.9
					v-0.7l5.1-1.1v2.9H591v-5.7h-15.4c-4.7,0-6.1-1.2-6.1-5.9v-2.7c0-4.7,1.5-5.9,6.1-5.9h14.1c4.4,0,6.1,1.2,6.1,5.4v0.5l-5.1,1.2
					v-2.8H574.5z"/>
				<rect x="603.3" y="367" class="st10" width="5.8" height="24.8"/>
				<path class="st10" d="M616.9,367h15.9c9.3,0,14.2,4.6,14.2,12.2c0,4.7-2,8.5-5.5,10.6c-2.4,1.5-5.8,1.9-10.2,1.9h-14.4V367z
					 M630.1,387.1c7.3,0,10.9-1.8,10.9-8c0-5-2.7-7.7-8.2-7.7h-10.2v15.7H630.1z"/>
				<polygon class="st10" points="652.7,367 678.1,367 678.1,371.3 658.5,371.3 658.5,376.8 669.9,376.8 669.9,381 658.5,381 
					658.5,387.1 678.3,387.1 678.3,391.8 652.7,391.8 				"/>
				<g class="st11">
					<g>
						<defs>
							<rect id="SVGID_15_" x="508.3" y="321.8" width="141.1" height="17.1"/>
						</defs>
						<clipPath id="SVGID_16_">
							<use xlink:href="#SVGID_15_"  style="overflow:visible;"/>
						</clipPath>
						<g class="st12">
							<defs>
								<path id="SVGID_17_" d="M649.4,329.9c0,4.7-31.5,8.7-70.5,8.9c-39,0.2-70.6-3.4-70.6-8.1c0-4.7,31.5-8.7,70.5-8.9
									C617.8,321.6,649.4,325.2,649.4,329.9"/>
							</defs>
							<clipPath id="SVGID_18_">
								<use xlink:href="#SVGID_17_"  style="overflow:visible;"/>
							</clipPath>
							
								<radialGradient id="SVGID_19_" cx="-63.9977" cy="822.7377" r="1" gradientTransform="matrix(67.3306 -0.3853 -5.045890e-02 -8.3441 4928.6621 7173.3501)" gradientUnits="userSpaceOnUse">
								<stop  offset="0" style="stop-color:#1D1D1B"/>
								<stop  offset="1.381961e-03" style="stop-color:#1E1E1C"/>
								<stop  offset="6.780212e-02" style="stop-color:#4D4D4B"/>
								<stop  offset="0.1378" style="stop-color:#767675"/>
								<stop  offset="0.2139" style="stop-color:#9B9B9A"/>
								<stop  offset="0.2951" style="stop-color:#BABABA"/>
								<stop  offset="0.3831" style="stop-color:#D4D4D3"/>
								<stop  offset="0.4806" style="stop-color:#E7E7E7"/>
								<stop  offset="0.5925" style="stop-color:#F5F5F5"/>
								<stop  offset="0.7317" style="stop-color:#FDFDFD"/>
								<stop  offset="0.9821" style="stop-color:#FFFFFF"/>
								<stop  offset="1" style="stop-color:#FFFFFF"/>
							</radialGradient>
							<polygon class="st13" points="508.2,321.6 649.4,320.8 649.5,339.1 508.3,339.9 							"/>
						</g>
					</g>
				</g>
			</g>
			<g class="st9">
				<defs>
					<path id="SVGID_20_" d="M624,234.1l-27.3,47.2l24,13.9l19.3-33.3c1.5-2.7,1.4-5.7,0-8l-16-27.7
						C625.3,228.4,625.5,231.4,624,234.1"/>
				</defs>
				<clipPath id="SVGID_21_">
					<use xlink:href="#SVGID_20_"  style="overflow:visible;"/>
				</clipPath>
				
					<linearGradient id="SVGID_22_" gradientUnits="userSpaceOnUse" x1="-69.3894" y1="800.7919" x2="-68.3894" y2="800.7919" gradientTransform="matrix(-59.5451 113.0603 113.0603 59.5451 -94033.0703 -39610.3984)">
					<stop  offset="0" style="stop-color:#005996"/>
					<stop  offset="0.25" style="stop-color:#247BBF"/>
					<stop  offset="0.5" style="stop-color:#51AFE2"/>
					<stop  offset="0.5777" style="stop-color:#63B7E4"/>
					<stop  offset="0.7344" style="stop-color:#93CAE9"/>
					<stop  offset="0.9541" style="stop-color:#E0EAF0"/>
					<stop  offset="1" style="stop-color:#F1F1F2"/>
				</linearGradient>
				<polygon class="st14" points="670,241.1 631.8,313.7 568.2,280.2 606.4,207.6 				"/>
			</g>
			<g class="st9">
				<defs>
					<path id="SVGID_23_" d="M540.7,222.1c-3.1,0-5.6,1.7-6.9,4l-16,27.7c1.3-2.3,3.9-4,6.9-4l108.4,0c3.1,0,5.6,1.7,6.9,4l-16-27.7
						c-1.3-2.3-3.9-4-6.9-4H540.7z"/>
				</defs>
				<clipPath id="SVGID_24_">
					<use xlink:href="#SVGID_23_"  style="overflow:visible;"/>
				</clipPath>
				
					<linearGradient id="SVGID_25_" gradientUnits="userSpaceOnUse" x1="-65.3976" y1="801.6309" x2="-64.3976" y2="801.6309" gradientTransform="matrix(117.1033 0 0 -117.1033 8175.9873 94111.5703)">
					<stop  offset="0" style="stop-color:#005996"/>
					<stop  offset="0.25" style="stop-color:#247BBF"/>
					<stop  offset="0.5" style="stop-color:#51AFE2"/>
					<stop  offset="0.5777" style="stop-color:#63B7E4"/>
					<stop  offset="0.7344" style="stop-color:#93CAE9"/>
					<stop  offset="0.9541" style="stop-color:#E0EAF0"/>
					<stop  offset="1" style="stop-color:#F1F1F2"/>
				</linearGradient>
				<rect x="517.7" y="222.1" class="st15" width="122.3" height="31.8"/>
			</g>
			<g class="st9">
				<defs>
					<path id="SVGID_26_" d="M517.7,253.8c-1.4,2.3-1.5,5.3,0,8l38.2,66.1c1.5,2.7,4.2,4,6.9,4h32c-2.7,0-5.4-1.3-6.9-4l-54.2-93.9
						c-1.5-2.7-1.4-5.7,0-8L517.7,253.8z"/>
				</defs>
				<clipPath id="SVGID_27_">
					<use xlink:href="#SVGID_26_"  style="overflow:visible;"/>
				</clipPath>
				
					<linearGradient id="SVGID_28_" gradientUnits="userSpaceOnUse" x1="-66.796" y1="797.1575" x2="-65.796" y2="797.1575" gradientTransform="matrix(-53.9787 -88.4651 -88.4651 53.9787 67499.7188 -48611.8477)">
					<stop  offset="0" style="stop-color:#005996"/>
					<stop  offset="0.25" style="stop-color:#247BBF"/>
					<stop  offset="0.5" style="stop-color:#51AFE2"/>
					<stop  offset="0.5777" style="stop-color:#63B7E4"/>
					<stop  offset="0.7344" style="stop-color:#93CAE9"/>
					<stop  offset="0.9541" style="stop-color:#E0EAF0"/>
					<stop  offset="1" style="stop-color:#F1F1F2"/>
				</linearGradient>
				<polygon class="st16" points="537.5,367 469,254.8 573.5,191.1 641.9,303.2 				"/>
			</g>
			<g class="st9">
				<defs>
					<path id="SVGID_29_" d="M569.8,328c-1.5,2.7-4.2,4-6.9,4h32c2.7,0,5.4-1.3,6.9-4l19.1-33.1l-24-13.9L569.8,328z"/>
				</defs>
				<clipPath id="SVGID_30_">
					<use xlink:href="#SVGID_29_"  style="overflow:visible;"/>
				</clipPath>
				
					<linearGradient id="SVGID_31_" gradientUnits="userSpaceOnUse" x1="-69.4008" y1="800.7993" x2="-68.4008" y2="800.7993" gradientTransform="matrix(-59.2267 112.4557 112.4557 59.2267 -93530.7188 -39397.7539)">
					<stop  offset="0" style="stop-color:#005996"/>
					<stop  offset="0.25" style="stop-color:#247BBF"/>
					<stop  offset="0.5" style="stop-color:#51AFE2"/>
					<stop  offset="0.5777" style="stop-color:#63B7E4"/>
					<stop  offset="0.7344" style="stop-color:#93CAE9"/>
					<stop  offset="0.9541" style="stop-color:#E0EAF0"/>
					<stop  offset="1" style="stop-color:#F1F1F2"/>
				</linearGradient>
				<polygon class="st17" points="641.9,292.1 608.3,355.9 541.8,320.9 575.5,257.1 				"/>
			</g>
		</g>
	</g>
</g>
</svg>
