<svg xmlns="http://www.w3.org/2000/svg" viewBox="0 0 1190.55 841.89"><defs><style>.cls-1{fill:#6a7fa2;}.cls-2{fill:#667fa4;}.cls-3{fill:#c1d121;}.cls-4{fill:#d9e100;}.cls-5{fill:#c8c800;}.cls-6{fill:#cfcfcf;}.cls-10,.cls-7,.cls-8,.cls-9{fill:none;}.cls-10,.cls-8,.cls-9{stroke:#1d1d1b;stroke-miterlimit:10;stroke-width:0.92px;}.cls-9{stroke-dasharray:7.91 7.91;}.cls-10{stroke-dasharray:7.76 7.76;}</style></defs><title>Plan de travail 1</title><g id="logo"><path class="cls-1" d="M291.81,320.25a4.78,4.78,0,1,1,9.56,0v46.1q14.17-13.73,30.37-13.73a40.15,40.15,0,0,1,40,40v41.54a4.54,4.54,0,0,1-1.43,3.39,4.72,4.72,0,0,1-3.43,1.39,4.75,4.75,0,0,1-4.78-4.78V392.64a28.74,28.74,0,0,0-8.94-21.44,30.34,30.34,0,0,0-51.8,21.44v41.54a4.78,4.78,0,1,1-9.56,0Z"/><path class="cls-1" d="M480,434.18a4.54,4.54,0,0,1-1.43,3.39,4.72,4.72,0,0,1-3.43,1.39,4.75,4.75,0,0,1-4.78-4.78v-8.94Q456.23,439,440,439a39.73,39.73,0,0,1-39.93-40V357.4a4.78,4.78,0,1,1,9.56,0V399a29.3,29.3,0,0,0,8.86,21.5A29.81,29.81,0,0,0,440,429.4,30.52,30.52,0,0,0,470.4,399V357.4a4.75,4.75,0,0,1,4.78-4.78,4.76,4.76,0,0,1,3.43,1.39A4.57,4.57,0,0,1,480,357.4Z"/><path class="cls-2" d="M585,423.16q-14.1,15.55-33.53,15.57a43,43,0,1,1,43.17-43v43.63a31.75,31.75,0,0,1-9.64,23,46.43,46.43,0,0,1-65.6,0,42.73,42.73,0,0,1-8.09-10.4,5.66,5.66,0,0,1-.85-2.86,4.75,4.75,0,0,1,4.78-4.78,5.38,5.38,0,0,1,4.55,2.93,38.73,38.73,0,0,0,6.4,8.41,36.08,36.08,0,0,0,11.91,8.05,36.7,36.7,0,0,0,14.06,2.66,35.49,35.49,0,0,0,26.06-10.79q6.78-8.16,6.78-16.26Zm-33.53-61A33.43,33.43,0,1,0,575.22,372,32.52,32.52,0,0,0,551.48,362.18Z"/><path class="cls-1" d="M690.52,420.39a4.56,4.56,0,0,1,3.39,1.41,4.77,4.77,0,0,1,1.39,3.44,4.67,4.67,0,0,1-1.23,3.32,43.2,43.2,0,1,1,15-32.77,4.73,4.73,0,0,1-4.78,4.78H632.48a36,36,0,0,0,9.71,19,33.79,33.79,0,0,0,35.46,7.82,32.84,32.84,0,0,0,9.86-5.88A4.56,4.56,0,0,1,690.52,420.39ZM699.31,391a35.23,35.23,0,0,0-9.64-19,33.49,33.49,0,0,0-47.48,0,36,36,0,0,0-9.71,19Z"/><path class="cls-1" d="M876,423.32Q860.39,439,842.43,439a43.17,43.17,0,1,1,43.17-43.17v38.39a4.75,4.75,0,0,1-4.78,4.78,4.7,4.7,0,0,1-3.43-1.39,4.5,4.5,0,0,1-1.43-3.39Zm-33.53-61.14a33.56,33.56,0,1,0,23.74,9.87A32.34,32.34,0,0,0,842.43,362.18Z"/><path class="cls-3" d="M304,516.74a11.13,11.13,0,0,1-7.94-3v2.53h-4V486.82l4-1.8V496.5a12.54,12.54,0,0,1,8.48-3.21c5.64,0,10.09,3.42,10.09,11.35S309.87,516.74,304,516.74Zm-.48-20.67a10.35,10.35,0,0,0-7.46,3.26v11.24a9.91,9.91,0,0,0,7.62,3.38c4.68,0,7-3.21,7-9.27C310.62,499,307.94,496.07,303.48,496.07Z"/><path class="cls-3" d="M331.46,524.2h-4L331.3,516l-10-22.25h4.24l6.87,16.33,1,2.32,1-2.28,6.92-16.37h4.24Z"/><path id="path3869" class="cls-3" d="M396.18,493.39,393,506l-3.83-12.52h-6.67l-3.73,12.44-3.36-12.49h-8.2l7.23,22.79H382l3.64-12.93,3.64,12.93H397l7.14-22.79Z"/><path id="path3889" class="cls-3" d="M540.94,493.34l-3.22,12.57-3.82-12.52h-6.68l-3.72,12.44-3.37-12.49h-8.19l7.23,22.79h7.64l3.64-12.93,3.63,12.93h7.69l7.13-22.79Z"/><path id="path3887" class="cls-3" d="M558.86,492.69c-6,0-10.2,3.9-10.2,12.43,0,7.72,3.94,11.7,9.83,11.7A8.23,8.23,0,0,0,566,512.7l.56,3.43H574v-22.8h-7.14l-.65,3.15c-1.42-2.54-3.92-3.79-7.32-3.79Zm2.22,6.44c2.4,0,4.18,1.59,4.18,5.67,0,3.76-1.73,5.53-4.18,5.53-2.62,0-3.85-1.81-3.85-5.49C557.23,500.76,558.65,499.13,561.08,499.13Z"/><path id="path3883" class="cls-3" d="M593.16,504.78c0,8.53,4.79,12,12.11,12,5.47,0,8.88-2,10.86-5.71l-6-3.41c-.64,1.68-2.12,2.64-4.33,2.64-3,0-4.1-2.09-4.1-5.5,0-4.08,1.53-5.22,4.2-5.22a3.89,3.89,0,0,1,4,2.5l6.08-4.35c-2-3.54-5.34-5-10.22-5-7.87,0-12.52,3.68-12.52,12.07"/><path id="path3881" class="cls-3" d="M656.85,492.69c-7.7,0-12.2,4.71-12.2,12.29,0,8,5,11.84,12.52,11.84,4.89,0,8.59-1.67,10.53-5l-5.15-3.2c-1,1.68-2.42,2.37-4.59,2.37-2.76,0-4.5-1.16-4.92-3.93h15a17,17,0,0,0,.19-2.6c0-6.49-3.23-11.79-11.36-11.79Zm-.1,6c2.13,0,3.29,1.34,3.43,3.7H653C653.28,500,654.69,498.72,656.75,498.72Z"/><path id="path3877" class="cls-3" d="M688.77,500.15c0,4.4,3.36,6.71,7.69,7.71l1.93.46c1.85.41,2.72.72,2.72,1.63s-1,1.36-3,1.36c-2.94,0-5.61-1-6.95-2.81l-3.86,4.08c2,2.77,5.84,4.18,10.77,4.18,8,0,10.82-3.67,10.82-7.53,0-3.36-2.12-6-7.23-7.08l-2.67-.59c-1.93-.41-2.67-.95-2.67-1.72,0-1,1.1-1.37,2.81-1.37a7.12,7.12,0,0,1,5.75,2.45l4.15-4.17c-2.17-2.81-5.76-4-10.13-4-7,0-10.18,3.18-10.18,7.44"/><path id="path3875" class="cls-3" d="M678.66,497.75l-.74-4.41h-7.31v22.79h8.92V508c.05-4.41,2.31-7.35,7.23-7l-.09-8.35a8.74,8.74,0,0,0-8,5.13"/><path id="path3873" class="cls-3" d="M577,487v21.42c0,6.49,4.15,8.39,9.08,8.39a12.94,12.94,0,0,0,6.63-1.63L591.52,510a6.09,6.09,0,0,1-2.86.64c-2,0-2.95-1-2.95-3V499.7h5.63v-6.36h-5.63V487Z"/><path id="path3871" class="cls-3" d="M617.73,484.42v31.71h8.93V505.06c.05-3.18,1.66-4.68,3.87-4.68s3.31,1,3.31,4.53v11.22h8.94V501.78c0-5.21-2.54-9.07-8.29-9.07a8.64,8.64,0,0,0-7.83,4.68v-13Z"/><path id="path3865" class="cls-3" d="M415.21,492.75c-7.68,0-12.2,4.68-12.2,12.25,0,8,5,11.84,12.52,11.84,4.89,0,8.59-1.62,10.53-4.94l-5.15-3.2c-1,1.69-2.42,2.34-4.59,2.34-2.76,0-4.54-1.12-5-3.89h15a17.67,17.67,0,0,0,.19-2.65C426.57,498,423.36,492.75,415.21,492.75Zm-.09,6c2.12,0,3.24,1.39,3.38,3.75h-7.19C411.59,500,413,498.74,415.12,498.74Z"/><path id="path3861" class="cls-3" d="M451,492.75c-6,0-10.2,3.86-10.2,11.66s3.94,11.42,9.6,11.42c3.23,0,5.44-1.25,6.82-3.56v1c0,3.45-1.79,5.12-5.1,5.12a7.68,7.68,0,0,1-6.07-3l-4.64,4.29c1.7,2.92,6.58,4.74,11.08,4.74,7.87,0,13.63-3.67,13.63-11.38V493.39h-7.19l-.6,3.16c-1.47-2.5-4.06-3.8-7.33-3.8Zm2.18,6.4c2.44,0,4.13,1.76,4.13,5.08s-1.6,5.34-4.13,5.34-3.89-1.67-3.89-5.3C449.29,500.87,450.7,499.15,453.18,499.15Z"/><path id="path3857" class="cls-3" d="M496.53,487v21.42c0,6.49,4.14,8.4,9.08,8.4a12.9,12.9,0,0,0,6.62-1.64L511.08,510a6,6,0,0,1-2.85.64c-2,0-3-1-3-3v-7.85h5.49v-6.36h-5.49V487Z"/><path id="path3855" class="cls-3" d="M469.09,484.41v31.77H478V505.11c.05-3.18,1.66-4.68,3.87-4.68s3.32,1,3.32,4.54v11.21h8.93V501.84c0-5.22-2.54-9.08-8.29-9.08a8.65,8.65,0,0,0-7.83,4.68v-13Z"/><path id="path3867" class="cls-3" d="M429,516.18H438V493.39H429Z"/><path id="path3567" class="cls-3" d="M428.54,487.63c0,2.9,1.79,4.22,5,4.22s4.88-1.32,4.88-4.22-1.75-4.31-4.88-4.31-5,1.32-5,4.31"/><path class="cls-4" d="M751.1,472.55A66.45,66.45,0,0,1,741,456.35c-7.88-17.3-5.4-34.62,4.57-50.57,6.94-11.12,16.37-20.42,25.54-29.78,6.86-7,13.67-14.16,19.27-22.25,5.09-7.35,11.39-15.69,12.15-24.91a97.32,97.32,0,0,1,1.47-10c.57,3,1.3,6,1.68,9,3.32,26.29-14.85,49.87-29.08,70.09-14.84,21.08-32.09,46.43-25.6,73.59C751,471.76,751,472,751.1,472.55Z"/><path class="cls-5" d="M764.71,341.37a31.87,31.87,0,0,1-1.32,14c-4.27,14.56-17.55,24.14-26.15,36-13.14,18.08-13.87,38-3.27,57.65.28.52-2.43-3-3.84-5.06-12.24-17.48-16.68-46.32-1.8-63.56C739.88,367,755.19,356.38,764.71,341.37Z"/></g><g id="infos"><g id="gris"><path class="cls-6" d="M962.33,423.44q-15.55,15.65-33.52,15.64A43.17,43.17,0,1,1,972,395.92V434.3a4.71,4.71,0,0,1-4.78,4.78,4.75,4.75,0,0,1-3.43-1.38,4.56,4.56,0,0,1-1.43-3.4Zm-33.52-61.13a33.53,33.53,0,1,0,23.74,9.86A32.37,32.37,0,0,0,928.81,362.31Z"/><path class="cls-6" d="M282,423.36Q266.4,439,248.42,439a43.17,43.17,0,1,1,43.17-43.17v38.39a4.75,4.75,0,0,1-4.78,4.78,4.72,4.72,0,0,1-3.43-1.39,4.49,4.49,0,0,1-1.43-3.39Zm-33.53-61.14a33.54,33.54,0,1,0,23.75,9.87A32.36,32.36,0,0,0,248.42,362.22Z"/><path class="cls-6" d="M699.46,337q-15.56,15.64-33.53,15.65a43.18,43.18,0,0,1-30.52-73.7,43.17,43.17,0,0,1,73.69,30.53v38.39a4.75,4.75,0,0,1-4.78,4.78,4.76,4.76,0,0,1-3.43-1.39,4.52,4.52,0,0,1-1.43-3.39Zm-33.53-61.13a33.54,33.54,0,1,0,23.75,9.87A32.34,32.34,0,0,0,665.93,275.85Z"/><path class="cls-6" d="M696.46,527.25a43.17,43.17,0,0,0-73.69,30.53v.05a43.16,43.16,0,0,0,43.16,43.11q18,0,33.53-15.64v10.87a4.52,4.52,0,0,0,1.43,3.39,4.75,4.75,0,0,0,3.43,1.38,4.73,4.73,0,0,0,4.78-4.77V557.78A41.64,41.64,0,0,0,696.46,527.25Zm-6.78,54.27a33.61,33.61,0,0,1-57.35-23.69s0,0,0-.05a33.57,33.57,0,1,1,67.14,0v.05A32.36,32.36,0,0,1,689.68,581.52Z"/><path class="cls-7" d="M665.93,515.89a33.54,33.54,0,0,0,33.53-33.56H632.33a33.68,33.68,0,0,0,33.6,33.56Z"/><path class="cls-6" d="M696.46,451.75a43.17,43.17,0,0,0-73.69,30.53v.05h9.56s0,0,0-.05a33.57,33.57,0,1,1,67.14,0v.05h9.64v-.05A41.64,41.64,0,0,0,696.46,451.75Z"/></g><g id="contours"><rect class="cls-8" x="204.95" y="265.43" width="766.42" height="336.46"/><polyline class="cls-8" points="928.67 553.5 928.67 557.5 924.67 557.5"/><line class="cls-9" x1="916.76" y1="557.5" x2="256.29" y2="557.5"/><polyline class="cls-8" points="252.33 557.5 248.33 557.5 248.33 553.5"/><line class="cls-10" x1="248.33" y1="545.74" x2="248.33" y2="316.88"/><polyline class="cls-8" points="248.33 313 248.33 309 252.33 309"/><line class="cls-9" x1="260.24" y1="309" x2="920.71" y2="309"/><polyline class="cls-8" points="924.67 309 928.67 309 928.67 313"/><line class="cls-10" x1="928.67" y1="320.76" x2="928.67" y2="549.62"/></g></g></svg>