<svg xmlns="http://www.w3.org/2000/svg" viewBox="0 0 595.3 899.22"><defs><style>.cls-1{fill:#5aa5ff;}.cls-2{fill:#fff;}</style></defs><title>Fichier 1</title><g id="Calque_2" data-name="Calque 2"><g id="Calque_1-2" data-name="Calque 1"><rect class="cls-1" width="595.3" height="899.22"/><path class="cls-2" d="M470.08,453c-2.37-5.09-7.11-7.9-12.11-10.35,2.28-2.46,4.57-4.83,6.76-7.29.61-1.14,1.23-2.19,1.76-3.33a29.75,29.75,0,0,0,1.14-17c-2.46-10.09-9.83-15.18-19.05-17.64a72.1,72.1,0,0,0-16.85-2.45c-11-.35-21.93-.09-32.9-.09h0c-.27,1.14-.71,59.85-.79,88,0,1.23-.35,2.45-.44,3.68-9.83-28.52-29.75-88-29.93-89.24-.26-.62-.44-1.23-.7-1.76a27.42,27.42,0,0,0-4.56-.61c-8.69-.09-17.47-.09-26.15,0a45.09,45.09,0,0,0-5.88.61c0,.44-31.33,94.69-33.09,100.22,8,0,15.71.09,23.35-.09.7,0,1.66-1,2-1.84,1.67-4.48,3.25-8.87,4.57-13.43.61-2,1.58-2.54,3.6-2.46,9.39.09,18.78.09,28.17.09h10.44c.09,1.23,3.77,11.67,5.53,15.88.08,2.29,1.75,1.94,3.16,1.94,17.28,0,34.57-.09,51.86-.09,2.11,0,4.21-.35,6.23-.53,6.58-1.23,13.51-1.49,19.74-3.68C474.82,484.51,476.05,465.55,470.08,453Zm-134,2.46c4.21-12.38,8.34-24.57,12.81-37.74,4.48,13.17,8.69,25.28,12.9,37.74Zm86.26-43.53c5.71-.17,11.41-1.05,17.12,1.05,4,1.5,7.72,6.85,7,12.9-.53,4.66-3.16,7.46-8.69,8-5.09.53-10.27.35-15.45.53-.17-5.36-.35-10.62-.43-16C421.91,416.23,422.17,414.13,422.34,411.93Zm22.29,64.94c-7.28,2.46-14.83,2.46-22.46,2.72v-26c8.42.08,16.85-.71,24.48,3.86,4,2.37,5.18,6.14,4.83,10.53S448.76,475.47,444.63,476.87Z"/><polygon class="cls-2" points="147.41 480.12 147.41 480.12 147.23 480.2 147.41 480.12"/><path class="cls-2" d="M387.15,373.06c.71,0,1.5-.09,2.2-.09s1.23-.09,1.75-.09c0-3.86,0-7.63-.17-11.5,0-.7-.7-1.31-1.06-2-1.05-.09-2.1-.18-3.15-.18H220.6c-1.06,0-2.11.09-3.16.09-.18,0-.44-.09-.62-.09v13.95h2.81Q303.48,373,387.15,373.06Z"/><path class="cls-2" d="M260.26,494.86c13.6-1.32,25.1-6.93,33.61-17.81,9.92-12.82,12.9-27.38,9.48-43.27-.62-2.63-2.72-10.09-3.34-11.14-2.54-5.79-7.19-9.74-11.49-14.22-4.65-4.83-10.44-7.46-16.41-10.09-3.07-.79-6.15-1.84-9.22-2.37-2.1-.35-8.16-1.14-9-1.14q-30.4-.13-60.72,0c-.7,0-1.32.79-2,1.14-4.21,12.11-8.51,24.22-12.72,36.33-3.69,10.62-7.38,21.33-11.24,32.56-2.89-8.43-5.7-16.41-8.42-24.31-4.92-14.3-9.92-28.61-14.74-42.91-.71-2.11-1.67-2.9-4-2.9-7.11.18-14.13.09-21.68.09,1.14,3.33,2.11,6.49,3.25,9.65,8.42,24.49,16.85,48.88,25.18,73.37.27.79.44,1.58.71,2.37h0c1.84,5.08,3.68,10.17,5.52,15.35,9,0,18,0,26.86-.09.52,0,1.05-.79,1.58-1.31a.78.78,0,0,0,.26-.53l7.37-21.32c3.6-10.36,7.2-20.8,10.8-31.16,4.21-12.19,8.42-24.48,12.63-36.68a31.68,31.68,0,0,1,1.76-4c0,31-.09,61.87,0,92.85a6.66,6.66,0,0,0,.7,2.1h39.93C256.75,495.21,258.51,495,260.26,494.86ZM237.8,473.45V416.93c11.49-.35,22.64-.35,32.29,7.64,5.35,4.39,9.48,9.3,10.88,16.06,2.46,12.46-4.91,24.92-17.64,30.1C257.19,473.27,246.57,474.41,237.8,473.45Z"/><path class="cls-2" d="M390.58,517.68a21.23,21.23,0,0,0-3.34-.44q-85.17,0-170.24-.09v14.48H387.77c1.14,0,2.28-.18,3.42-.26-.17-4.57-.44-9.13-.61-13.69Z"/></g></g></svg>