<?xml version="1.0" encoding="utf-8"?>
<!-- Generator: Adobe Illustrator 22.1.0, SVG Export Plug-In . SVG Version: 6.00 Build 0)  -->
<svg version="1.1" id="Calque_1" xmlns="http://www.w3.org/2000/svg" xmlns:xlink="http://www.w3.org/1999/xlink" x="0px" y="0px"
	 viewBox="0 0 600 899.2" style="enable-background:new 0 0 600 899.2;" xml:space="preserve">
<style type="text/css">
	.st0{fill:#5AA5FF;}
	.st1{fill:#FFFFFF;}
</style>
<g>
	<rect x="2.4" class="st0" width="595.3" height="899.2"/>
	<g>
		<path class="st1" d="M472.4,453c-2.4-5.1-7.1-7.9-12.1-10.4c2.3-2.5,4.6-4.8,6.8-7.3c0.6-1.1,1.2-2.2,1.8-3.3
			c1.9-5.6,2.5-11.2,1.1-17c-2.5-10.1-9.8-15.2-19-17.6c-5.4-1.5-11.1-2.3-16.8-2.5c-11-0.4-21.9-0.1-32.9-0.1l0,0
			c-0.3,1.1-0.7,59.8-0.8,88c0,1.2-0.4,2.5-0.4,3.7c-9.8-28.5-29.7-88-29.9-89.2c-0.3-0.6-0.4-1.2-0.7-1.8c-1.5-0.3-3.1-0.6-4.6-0.6
			c-8.7-0.1-17.5-0.1-26.2,0c-1.9,0-3.9,0.4-5.9,0.6c0,0.4-31.3,94.7-33.1,100.2c8,0,15.7,0.1,23.3-0.1c0.7,0,1.7-1.1,2-1.8
			c1.7-4.5,3.2-8.9,4.6-13.4c0.6-2,1.6-2.5,3.6-2.5c9.4,0.1,18.8,0.1,28.2,0.1c3.4,0,6.9,0,10.4,0c0.1,1.2,3.8,11.7,5.5,15.9
			c0.1,2.3,1.8,1.9,3.2,1.9c17.3,0,34.6-0.1,51.9-0.1c2.1,0,4.2-0.4,6.2-0.5c6.6-1.2,13.5-1.5,19.7-3.7
			C477.2,484.5,478.4,465.6,472.4,453z M338.4,455.5c4.2-12.4,8.3-24.6,12.8-37.7c4.5,13.2,8.7,25.3,12.9,37.7
			C355.5,455.5,347.1,455.5,338.4,455.5z M424.7,411.9c5.7-0.2,11.4-1.1,17.1,1.1c4,1.5,7.7,6.8,7,12.9c-0.5,4.7-3.2,7.5-8.7,8
			c-5.1,0.5-10.3,0.4-15.4,0.5c-0.2-5.4-0.4-10.6-0.4-16C424.3,416.2,424.5,414.1,424.7,411.9z M447,476.9
			c-7.3,2.5-14.8,2.5-22.5,2.7c0-8.7,0-17.1,0-26c8.4,0.1,16.8-0.7,24.5,3.9c3.9,2.4,5.2,6.1,4.8,10.5
			C453.4,472.4,451.1,475.5,447,476.9z"/>
		<polygon class="st1" points="149.8,480.1 149.8,480.1 149.6,480.2 		"/>
		<path class="st1" d="M389.5,373.1c0.7,0,1.5-0.1,2.2-0.1c0.6,0,1.2-0.1,1.8-0.1c0-3.9,0-7.6-0.2-11.5c0-0.7-0.7-1.3-1.1-2
			c-1.1-0.1-2.1-0.2-3.2-0.2c-55.4,0-110.7,0-166.1,0c-1.1,0-2.1,0.1-3.2,0.1c-0.2,0-0.4-0.1-0.6-0.1c0,4.6,0,9.2,0,14
			c1.1,0,1.9,0,2.8,0C277.9,373.1,333.7,373.1,389.5,373.1z"/>
		<path class="st1" d="M262.6,494.9c13.6-1.3,25.1-6.9,33.6-17.8c9.9-12.8,12.9-27.4,9.5-43.3c-0.6-2.6-2.7-10.1-3.3-11.1
			c-2.5-5.8-7.2-9.7-11.5-14.2c-4.7-4.8-10.4-7.5-16.4-10.1c-3.1-0.8-6.1-1.8-9.2-2.4c-2.1-0.4-8.2-1.1-9-1.1
			c-20.3-0.1-40.5-0.1-60.7,0c-0.7,0-1.3,0.8-2,1.1c-4.2,12.1-8.5,24.2-12.7,36.3c-3.7,10.6-7.4,21.3-11.2,32.6
			c-2.9-8.4-5.7-16.4-8.4-24.3c-4.9-14.3-9.9-28.6-14.7-42.9c-0.7-2.1-1.7-2.9-3.9-2.9c-7.1,0.2-14.1,0.1-21.7,0.1
			c1.1,3.3,2.1,6.5,3.2,9.7c8.4,24.5,16.8,48.9,25.2,73.4c0.3,0.8,0.4,1.6,0.7,2.4l0,0c1.8,5.1,3.7,10.2,5.5,15.4c9,0,18,0,26.9-0.1
			c0.5,0,1.1-0.8,1.6-1.3c0.2-0.2,0.3-0.4,0.3-0.5c2.5-7.1,4.9-14.2,7.4-21.3c3.6-10.4,7.2-20.8,10.8-31.2
			c4.2-12.2,8.4-24.5,12.6-36.7c0.4-1.4,1.1-2.6,1.8-3.9c0,31-0.1,61.9,0,92.8c0,0.7,0.4,1.4,0.7,2.1c0.4,0,0.9,0,1.3,0
			c12.9,0,25.7,0,38.6,0C259.1,495.2,260.9,495,262.6,494.9z M240.1,473.4c0-18.8,0-37.5,0-56.5c11.5-0.4,22.6-0.4,32.3,7.6
			c5.4,4.4,9.5,9.3,10.9,16.1c2.5,12.5-4.9,24.9-17.6,30.1C259.5,473.3,248.9,474.4,240.1,473.4z"/>
		<path class="st1" d="M392.9,517.7c-1.1-0.2-2.2-0.4-3.3-0.4c-56.8,0-113.5-0.1-170.2-0.1c0,4.7,0,9.4,0,14.5c1.2,0,2.4,0,3.5,0
			c55.7,0,111.4,0,167.3,0c1.1,0,2.3-0.2,3.4-0.3C393.4,526.8,393.1,522.2,392.9,517.7L392.9,517.7z"/>
	</g>
</g>
</svg>
