<?xml version="1.0" encoding="utf-8"?>
<!-- Generator: Adobe Illustrator 22.1.0, SVG Export Plug-In . SVG Version: 6.00 Build 0)  -->
<svg version="1.1" id="Calque_1" xmlns="http://www.w3.org/2000/svg" xmlns:xlink="http://www.w3.org/1999/xlink" x="0px" y="0px"
	 viewBox="0 0 250 250" style="enable-background:new 0 0 250 250;" xml:space="preserve">
<style type="text/css">
	.st0{fill:#352B51;}
	.st1{fill:#FEFEFE;}
</style>
<circle id="Oval" class="st0" cx="125" cy="125" r="125"/>
<path id="path-1_1_" class="st1" d="M88.2,151.4c-1.4,1-3.1,1.8-5.1,2.3s-4.1,0.8-6.3,0.8c-5.7,0-10.2-1.4-13.3-4.3
	s-4.7-7.1-4.7-12.7V118h-7.4v-10.6h7.4V95.7h14v11.6h12v10.6h-12v19.3c0,2,0.5,3.5,1.6,4.6c1,1.1,2.5,1.6,4.4,1.6
	c2.2,0,4.1-0.6,5.6-1.8L88.2,151.4z M143.6,88.2v65.5h-13.3v-5.5c-3.5,4.1-8.5,6.2-15,6.2c-4.5,0-8.6-1-12.3-3
	c-3.7-2-6.5-4.9-8.6-8.6c-2.1-3.7-3.1-8-3.1-12.9c0-4.9,1-9.2,3.1-12.9c2.1-3.7,5-6.6,8.6-8.6c3.7-2,7.8-3,12.3-3
	c6.1,0,10.9,1.9,14.4,5.7v-23h13.9V88.2z M117.7,143.1c3.5,0,6.4-1.2,8.8-3.6c2.3-2.4,3.5-5.6,3.5-9.6c0-4-1.2-7.2-3.5-9.6
	s-5.2-3.6-8.8-3.6c-3.6,0-6.5,1.2-8.9,3.6s-3.5,5.6-3.5,9.6c0,4,1.2,7.2,3.5,9.6C111.1,141.9,114.1,143.1,117.7,143.1z M156.5,88.2
	h14v65.5h-14V88.2z M181.6,91.9h16.6l-2.8,40.3h-11.1L181.6,91.9z M189.9,154.4c-2.4,0-4.5-0.8-6.1-2.3c-1.6-1.6-2.5-3.5-2.5-5.7
	s0.8-4.1,2.4-5.6s3.7-2.2,6.2-2.2s4.6,0.8,6.2,2.2c1.6,1.5,2.4,3.4,2.4,5.6c0,2.2-0.8,4.1-2.5,5.7
	C194.4,153.6,192.4,154.4,189.9,154.4z"/>
</svg>
