<svg xmlns="http://www.w3.org/2000/svg" viewBox="0 0 250.51 242.66"><defs><style>.cls-1{fill:#fff;}.cls-2{fill:#060b2b;}</style></defs><title>Fichier 1</title><g id="Calque_2" data-name="Calque 2"><g id="A4"><rect class="cls-1" width="250.51" height="242.66"/><path class="cls-2" d="M148.79,154.2c-.17.44-.34.88-.5,1.33-.68,1.87-1.26,3.78-2.06,5.6s-1.83,3.51-2.77,5.26c-.08.16-.23.44-.32.43-1.08-.1-1.2.89-1.7,1.45-.16.17-.26.4-.41.59-2,2.31-3.41,5.06-5.17,7.55-.55.77-.8,1.74-1.44,2.61l-.18-1.13a4.4,4.4,0,0,0-.85,2.45,12,12,0,0,1-.61,2.18c-.05.16-.32.24-.65.47.46-1,.43-1-.16-1.87a10.48,10.48,0,0,0-1.41-2.32c-.88-.76-.89-1.88-1.51-2.73s-1.2-1.85-1.78-2.79a3.73,3.73,0,0,1-.21-.67l.66-.47c.49.12,1,.28,1.47.35s.77.48,1.1-.06a9.88,9.88,0,0,0,5.23.07c.93-.24,2.13-.49,2.65-1.6l-.07-.44c.84-.08.87-1,1.36-1.38s-.17-1.2.64-1.48a4.3,4.3,0,0,0-1.17-.06l-9.74,1-.47-.05,0,.15.43.09c-.45.57.2,1,.24,1.46h-.43l-.67-.44a.18.18,0,0,0,0-.16c-.72-1-1.64-.54-2.55-.47.27.94.27.94.91,1l-.47-.69,1.29.49,0,.3-.89.77,1.82.66c-.74,0-1.33.09-1.24,1-.7-1-1.4-1.92-2.09-2.89s-1.14-1.75-1.79-2.56a9.41,9.41,0,0,0-1.31-1.1c-.35-.3-.82-.55-.34-1.16.12-.15-.07-.61-.19-.89-.87-2-1.76-4-2.64-6.06a2,2,0,0,1,1.81,1.86,7.42,7.42,0,0,0,.48,1.47l.3,1v0l.31.31,0,0c0,.41-.19.94.56.85a.59.59,0,0,1,0,.23c.05.19.1.38.14.58l.16-.45a15.94,15.94,0,0,1-.5-1.76c0-.21.18-.48.28-.72l.57.24c.18.54.37,1.07.55,1.61l-.33.33c-.46.92.41,1.61.44,2.46,0,.17.57.34.73-.17a2.05,2.05,0,0,1,.25-.46,2.11,2.11,0,0,0,2.71,1.49,1.45,1.45,0,0,0,.26-.11.42.42,0,0,0,.12.08c4.45.55,8.83.56,13.09-1.18.85-.34,1.33-.64,1.29-1.55l.57-.31.09.22.09-.14-.2,0c.08-.31.16-.61.23-.92l0-.1c.84.06.57-.6.65-1,.2-.28.39-.57.58-.86.29.07.57.16.86.21.46.08.61-.14.49-.64L144.1,160l-.26-.1s0-.1,0-.1c.69-.16,1.33-.35,1.37-1.22a3.72,3.72,0,0,0-3.63-.06l-1.44,0-4.08.61,0,.67c-.16-.61-.56-.71-1.09-.5-.42-.58-1-.24-1.47-.18h-.76l.42,1.19-.64-.09.45.89-.62.42-.33-.64,0-.67c-.08-.4.29-1-.54-1.05-.37,0-.83-.13-.78.51l-.43,0c-.39-.25-.64-.5-.17-.94.16-.16.16-.49.22-.74,1.39,0,2.78.09,4.14,0,2.68-.26,5.34-.64,8-1a2.39,2.39,0,0,0,.73-.4c1-.3,2.14-.2,2.73-1.28l.31.58c.37-.43.72-1.05.9-1,.8.2.54-.51.78-.76s.26-.76.38-1.14c-.06-.56.48-1.15-.08-1.68,0-.61.25-1.26-.31-1.77a2,2,0,0,0,.19-.76,12.74,12.74,0,0,0-.39-1.47c-.11-.42-.21-.84-.32-1.26-.24-1-.47-2.09-.76-3.41-.24.43-.34.61-.43.8a.78.78,0,0,0-.22,0c-.69.17-.95.55-.59,1.22.17.32.37.63.56.95l.08.71-.35,0-.53-.34h0c.34-.88-.32-1.36-.7-2-1.64.42-3.24.75-4.77,1.26a6,6,0,0,1-1.61.36l-3.67.45-.3,0-4.81-.34-.32,1.16c-.63-.61-.68.72-1.23.37l-.3,0-.55-.63-.37-.82.37-.8c1.92.77,2.06.74,2.58-.66a7.25,7.25,0,0,1,1.14-.05,21.9,21.9,0,0,0,6.94-.64,18.59,18.59,0,0,0,2.36-.87,4.65,4.65,0,0,0,3.43-.64,5.33,5.33,0,0,1,2.42-.85c.06,0,.12-.13.32-.35-1.07-1.23-2.15-2.48-3.27-3.7-.13-.14-.52,0-.79-.07a.55.55,0,0,0-.17-.17c.15-.45.07-.7-.48-.52h0l-.29-.29h0l-.32-.42a2.65,2.65,0,0,0-2.12-1.27l-1.05-1.07v-1c1.63,1.09,3.27,2.18,5,3.35,1-1.72,2.74-2,4.56-1.94,2.61.07,5.21.17,7.81.33a4.88,4.88,0,0,1,1.93.56,11.57,11.57,0,0,1,3.83,3,1.55,1.55,0,0,1,0,2.3c1,2.62,2,5.25,2.91,7.94a16.81,16.81,0,0,1,.59,3.7c.22,2.29.76,4.58.19,6.9-.42,1.72-.75,3.47-1.21,5.19-.8,3-1.83,6-1.83,9.14a3.8,3.8,0,0,1-.56,1.76,1.38,1.38,0,0,0,.07,1.73c1.84,2.22,2.89,4.89,4.23,7.39.12.21.16.54.33.62,1.2.57.76,1.79,1.29,2.74-1-.06-.77-.88-1.18-1.38l-.09,1.27c-.12,0-.25,0-.28,0q-1.57-2.4-3.13-4.82a11.12,11.12,0,0,1-1.05-1.55c-.83-1.83-1.62-3.69-2.38-5.55a2.07,2.07,0,0,1-.08-1.13c1-4.12,1.95-8.23,2.94-12.35a.89.89,0,0,1,.14-.25c.14-1,.28-2,.43-3a7.18,7.18,0,0,0-.35-4.25c-1-2.93-1.24-6-1.76-9a27.77,27.77,0,0,0-1.23-4.12,1.79,1.79,0,0,0-.85-.93,17.25,17.25,0,0,0-8.66-1.88,15.72,15.72,0,0,0-2.39.52l-1.37.27a11.2,11.2,0,0,1,2.18,4.85c.44,1.69.92,3.37,1.35,5.06.1.37.15.66.62.57l-.08,3.92-.39.41Zm15.41,29.87-.16-.7-.37-.81L160.94,178a5.84,5.84,0,0,0,1.7,4,5.87,5.87,0,0,1,.7.92l.49.66.39.49.18.11Zm-11-46.42,1.13.34.71-.06c.47-.49.57.32.92.26.33.75,1,.6,1.6.61a.39.39,0,0,0,.24,0c.81.56.81.56,1.57-.26l.73.33.29.05-.19-.15a3.85,3.85,0,0,0-2.8-2.7s-.06.06-.1.1h0c-.12-.93-1-1-1.56-1.1-1-.24-2.09-.3-3.13-.45-2.51-.36-5,.09-7.47.24a2.09,2.09,0,0,0-1.6,1.11c-.3.45,0,.7.37.87,0,.54.29.85.87.8a1.81,1.81,0,0,0,1.88.22,11.21,11.21,0,0,1,4.42-.43,5.54,5.54,0,0,0,1-.1l.2.15-.22-.13c0-.29,0-.67.38-.57a4,4,0,0,1,2.58,1.13l-.59,0-1.19-.25-.14-.11Zm-19.64,39.22.15-.21-.33,0-.46.51.17.17C133.21,177.2,133.37,177,133.53,176.87Zm29.84-25.59c-.11-1.15,0-2.37-.7-3.36-.46.32.24,1-.52,1.19a6.07,6.07,0,0,1-.41-1.34c0-.46.33-1.26.18-1.35-.61-.36-.35-.93-.5-1.37-.48-1.46-.87-2.94-1.32-4.41-.18-.59-.49-1-1.2-.54a14.55,14.55,0,0,1,.76,2c.48,2,.88,4,1.33,6.06.27,1.19.59,2.37.88,3.56v0c.08.5.14,1,.25,1.48a15.31,15.31,0,0,1,.67,2.93,7.59,7.59,0,0,0,.84,3.42c.11-1.27.3-2.37.29-3.47s-.23-2.19-.36-3.28l0-.86Zm-29.81,23.56c.58,0,1-.21,1.36-1-2,.2-3.93-.14-5.84,1.12l2.93.34a.88.88,0,0,0,1.38.3C133.55,175.51,133.51,175.11,133.56,174.84Zm26.9-4.71v-1.58c.21.56.31.84.44,1.16l2.52-9.63a15.87,15.87,0,0,0-2.27,5.94c-.1.6,0,1.41-.31,1.75a2.85,2.85,0,0,0-.61,2.38l-.92,2.95.72-.23c-.64,1.13-1.57,2.15-.39,3.12.24-.64.54-1.3.73-2C160.71,172.72,161.11,171.43,160.46,170.13Zm-30.61,5.74c.7,1.14,1.11,1.18,2.17.38Zm15.94-16a.81.81,0,0,0,.1-.21s0,0-.09-.08-.07.13-.1.21S145.76,159.81,145.79,159.84ZM131,177.45l-.1.09s.06.09.1.09.07,0,.1-.08Z"/><path class="cls-2" d="M127,102.24l.48-1c0-.16.07-.31.1-.47l-.36.13c-.54.44-1.06.89-1.62,1.3-.12.09-.35,0-.53,0l.61-1,.16-.24-.27.1-.23.07h0a.82.82,0,0,0-.73-1l2.44-1.66,1.61-.25-.69-.61v-.09l2-.1c.2.84.74.49,1.35.45l-1-.5,3.49,0,.29.07c.18,1,.35,2,.54,3.13l.54-.66.59.39.61.79c.5-.42.79-.76.05-1.09l0-.45c.9.11,1,0,.67-.85.31-.19.76-.31.9-.59A16.23,16.23,0,0,0,138.7,96l-.6-1.74-.44-.36c.54-.93-.26-1.28-.75-1.77.5,0,1,.09,1.19-.59.23-.43.73-.91.75-1.21a2.89,2.89,0,0,0-1.9-2.91v.94a1.52,1.52,0,0,1-.43-.19c-.69-.63-1.34-1.3-2-1.91-.45-.41-.77-.28-1,.35-.53-.71-1.24-.57-2-.5v2.2l.22.59-.46.86-.38-.82-.07-.4a3.44,3.44,0,0,0-.31-2.31c-1.1.24-2.18.43-3.24.73-.2.06-.31.5-.5.84l-.82-.94a2.75,2.75,0,0,1-.93.25c-1-.1-1.35.65-1.57,1.38a2.66,2.66,0,0,0,.24,2.37,2.46,2.46,0,0,1,.15,2.56,40.7,40.7,0,0,1-2,4.17,2.9,2.9,0,0,0,0,3.09c0,.33,0,.66,0,1l-.21.26a4.24,4.24,0,0,1-1-3.18,3,3,0,0,0-.15-1.27,6.58,6.58,0,0,1,.45-5.14c.78-1.83,1.49-3.68,2.25-5.58l-.44-.19V85.47c.61.12,1.15.12,1.3-.67,0,0,0-.11,0-.14,1.61-1.77,1.08-4.19,1.84-6.22a5,5,0,0,1,1.26-2.39,1.69,1.69,0,0,1,1.66-.4A4.39,4.39,0,0,0,128,79a8.33,8.33,0,0,1-1,4.14l1,.68c.49-.73.6-1.7,1.58-1.66a7.17,7.17,0,0,1,2.21.38,17.47,17.47,0,0,1,2.36,1.34l1.65-.9a1.94,1.94,0,0,0-.16-.43,6.73,6.73,0,0,1-1.43-3.72,3.51,3.51,0,0,0-1-2.33,4.67,4.67,0,0,1-.49-.84,4.09,4.09,0,0,1,3,2.27,31.5,31.5,0,0,1,1.8,3.46,3,3,0,0,1,.31,2.36c-.15.44.23,1.06.39,1.64,1.61,0,3,.88,4.61.23l.38.73-4.15.53c.28,1.48.31,3.13,1.43,4.42a3.07,3.07,0,0,1,.74,2.78c-.26,1.42-.46,2.85-.68,4.28a17.21,17.21,0,0,1-2.05,4.91c-.17.33-.64.53-1,.73s-1,.48-1,1.18l-.39,0c-.28-.55-.58-1.1-.83-1.67a5.29,5.29,0,0,0-2.49-2.68c-1.21-.63-1.39-.59-2.16.53l-.57.86-.48,0,.36-1.37a2.52,2.52,0,0,0-2.13,1.38Zm8.6-21,.44.47.33.54.09.44.62.48.21-.29-.58-.39-.36-.22c-.06-.22-.11-.45-.16-.67l-.33-.58-.31-.15ZM126.74,99.3l-.32.25.41-.15.84-.16,0-.18Zm7.87-13.87v-.59c.84.08,1.65.55,2.54.2a7.25,7.25,0,0,0-1.77-.91c-.66-.23-.88.1-.75.73l-.75.3.08.25h.66l.39.28.09-.19Zm.92-5.56a1.38,1.38,0,0,0-.94-1.37c.17.59.26,1,.41,1.37,0,.07.31,0,.47.06l.24.11Zm-6.39,4.42H129s0,0-.05.06l.15-.09,3.31-.35V83.6c-1,.06-2.1.1-3.14.18C129.22,83.79,129.18,84.11,129.14,84.29Zm6.9,2a8,8,0,0,0,1.1.63,1.07,1.07,0,0,0,.74-.07c.08,0,.13-.41.05-.48a1.18,1.18,0,0,0-.68-.4,5.4,5.4,0,0,0-1.11.2l-.43-.12Zm-10.11-1.47c-.08.36-.15.73-.26,1.3l5-.36-.89-1c-.2.09-.33.14-.45.21-1,.59-1,.56-1.82-.11a3.69,3.69,0,0,0-1-.35l0-.66c-1.31.24-2.4,1.19-2.1,1.76l.39.15Zm-4.38,8.25,1,.31a3.21,3.21,0,0,0,.24-.36c.22-.4.69-.9.08-1.22s-.94.21-1.18.71A3.63,3.63,0,0,0,121.55,93.11Zm18.73.52c0-.46.25-1-.54-1.16a5.86,5.86,0,0,0-.85,0l.16,1Zm-.4,3.64c-.58.82-1.22,1.63-.62,2.74ZM129.32,83v.32h2.25A2,2,0,0,0,129.32,83Zm3,16.35c-1-.73-1.22-.71-2.5.28Zm1.21-14.15-2.31-.4C131.88,85.79,132.13,85.83,133.57,85.16Zm2.14,18.47c.73-.15,1.24-.39.53-1.23C136,102.91,135.86,103.27,135.71,103.63ZM126,82.08l.44-.06-.35-1.15-.19,0Zm-3,7.6c-.65.7-.65.7-.14,1.44Zm4-10.21h-.16v1.9H127Zm1.42,20.69c1.1-.08,1.1-.08,1.46-1Zm5.11.4c-.32-.86-.73-1-1.52-.82ZM132,97.66l0,.16h1.26v-.16Zm-3.77,2.71s-.06-.09-.09-.09-.08,0-.11.08l.14.11Z"/><path class="cls-2" d="M118.92,137.53l.86-1.35c-2.22.16-4.17.25-6.11.46a3.28,3.28,0,0,0-1.46.79,15.13,15.13,0,0,0-3.4,4.24,9.24,9.24,0,0,1-2.36,2.65h-.51l-.11-.63h-.25v2.64h-.21c-.05-.36-.1-.71-.19-1.37-.2.87-.32,1.42-.44,2l-.22.67c-.29,4.94.54,10.28,1.89,12.2l.22-.66c.82.23.85.3.45,1.13-.62.36-.6.86-.28,1.41l.29-.26c.51-.41.8,0,1.13.3l-.07.3-.91.8a1,1,0,0,1-1.17-.79,61.55,61.55,0,0,1-1.88-7.69c-.36-3.08-.62-6.25.33-9.32.2-.66,0-1.49.75-2,.06,0,0-.26,0-.38a3.48,3.48,0,0,1,1.12-3,16.76,16.76,0,0,1,4.6-4,7.09,7.09,0,0,1,1.63-.54c.7-.17,1.42-.24,2.11-.44a11.54,11.54,0,0,1,4.85-.39,22.93,22.93,0,0,0,2.56.05,3.72,3.72,0,0,1,1.83-.8,14.64,14.64,0,0,0,2.9-1.57c.52-.28,1.08-.52,1.62-.78a8.55,8.55,0,0,1-.79,1.08c-.51.53-1.08,1-1.67,1.55l1.32.34a.9.9,0,0,0-.18,1.19c.51-.42,1-.75.51-1.43a.39.39,0,0,1,.21-.17c.12,0,.25,0,0,0h0c-.08-.64.51-.69.85-1,.69-.6.59-1.21-.24-1.61.19-.35.39-.69.57-1,.39-.78.77-1.57,1.15-2.36h.28c.7.24.38.92.75,1.44l.56-1.33-1-.2c0-.31.09-.63.15-1l2.6.65-.46.82-.67-.17a7.68,7.68,0,0,0-.47,1.37c0,.24.2.52.32.78l.27.59c-.56.62-.31,1.24,0,1.85l.85-1h0c0,.45,0,.91,0,1.36l-.58.65-.6.34-.26-.28c.48-.56.13-.89-.32-1.2v-.93l-.26,0-.38,1.37.22.06c.15-.15.29-.31.44-.47,0,.39,0,.78,0,1.16l0,1.06-.26.19-1.83-.57-.38,1h2.23l-.09.3H131l-1.81.06-.38,0a2.72,2.72,0,0,0-.77.42c-.21.22-.55-.49-.62.13-.44.07-.79-.7-1.28-.18a10.88,10.88,0,0,0-.77,1l-.39.63-2,.55.66,1v.41c-.32.49,0,.71.36.92a8.5,8.5,0,0,0,1,.61c.08,0,.28-.2.42-.32l.29,0c0,.29-.1.54.33.65a3.45,3.45,0,0,0,2.53-.08v.29a.31.31,0,0,0-.07.21l-1.1.39c-1.1.15-2-.46-3-.8-.54-.18-1.14-.75-1.73-.21s.21,1,.08,1.57l-.65-.34-.5-1.48-1,1-.81-.45.26-.7h-.82v-.72c.4-.53.33-.62-.58-.84C118.62,138.68,119.28,138.18,118.92,137.53Zm-8.59-.1.3-.28a2.3,2.3,0,0,0,1.66-1l.17-.23-.32.1-1.71.87-.32.18-.3.26c-1.45.53-2.09,1.85-2.89,3a1.41,1.41,0,0,0-.65,1.58l.88-1.34A13.52,13.52,0,0,0,110,137.7Zm-2.76,4.48-.34.25-1,.53c.74.36.94,0,1.14-.38l.28-.29.19-.41Zm17.5-6.87.05.05.44-.59-.34-.06,0-.62c-.94.49-1.93.62-2.19,1.71l-.44-.53-1,.74-.82.92.22.22.61-.39,1.17-.34.31-.21,0,0,1.68-.55Zm-11,.91,6.64-.68A9.26,9.26,0,0,0,114.1,136Zm17-1.36c-.19-.77-.31-1.22-.48-1.92l-.78,1Zm-8.83,2.8-1.13.07.27,1Zm-1.88.15.21,0,.16-.75-.25-.05Zm2.4-.86-.19.21a1.43,1.43,0,0,0,.22,0s.07-.07.07-.1A.65.65,0,0,0,122.81,136.68Zm-2.58,3.43a2.24,2.24,0,0,0-.11.28s.09.09.1.08.14-.11.15-.18S120.28,140.18,120.23,140.11Z"/><path class="cls-2" d="M133.13,128.14l.46-.82-2.6-.65c-.06.38-.1.7-.15,1l-.31.09h-.28l-.82-.22-.93-.36-2.29-1.75v0l-.32-.56c-.17-1.13-.33-2.26-.52-3.38s-.4-2.07-.61-3.11a.64.64,0,0,0-.06-.18c-.62.34-1.23.62-1.78-.1l.44-.3c.15-.18.45-.39.42-.55a6.8,6.8,0,0,0-.41-1.2l-.08-.79c.48,0,.92,0,.83-.69,0-.39,0-.78,0-1.17.93.15.59.92.54,1.37-.13,1.27,0,2.38,1.19,3.11.06,0,.06.17.09.26l.14.71.16.74c.25,1.22,1.49,1.75,2,2.79l-.41,1.11c.25.17.47.34.72.48,0,0,.18-.2.27-.3l.8.25c0-.42.06-.79.08-1.16l.51.39.2.49.19-.06-.15-.61,0-.57.8-.1-.57-2.22c.57-.3.86-.13,1,.39-.06.27-.24.58-.16.79.41,1.14.54,2.35,1,3.49.31.78.6.81,1.21.57-.07-.66-.15-1.3-.23-1.94a2.12,2.12,0,0,0,.32-.66,12.68,12.68,0,0,0-.07-1.52l.92,1,.56.61c-.58.58-.3,1.11,0,1.77l.61-1.23a2.22,2.22,0,0,0,.27-2.67l.05-.06,0-.07a2.34,2.34,0,0,0,.24-2.39c.52,0,.65-.32.57-.77s-.16-.83-.25-1.25c.09-.17.26-.34.26-.5a27.38,27.38,0,0,0-.23-3.52,6.26,6.26,0,0,0-.91-1.78l0,0,.05-.6.12,0,.29,0,.28.4a1.11,1.11,0,0,0,.1-.09l-.26-.38,0-.5,0-.38c.3.67.6,1.35.91,2l.64,3a3.84,3.84,0,0,0-.4-3,19,19,0,0,0-.37-2.11c-.35-1.23-.78-2.44-1.18-3.67l.39,0c.49,1.34,1.08,2.65,1.47,4,.46,1.64.76,3.33,1.15,5.06a7.63,7.63,0,0,0,2.88-2.7l.58.56-.41.62-.09.05c-.78.7-1.56,1.38-2.32,2.08a2.52,2.52,0,0,0-.73,2.62l1-1.11.69.19c-.31.43-.52,1-.94,1.25a2.22,2.22,0,0,0-1.19,2.77,28,28,0,0,1-.07,5.42v.61l-.31.9-.28.57-.55.13-.07-.76a2.09,2.09,0,0,0-2.28.06c-.08.11-.23.22-.22.32a1.46,1.46,0,0,0,.21.46c-.53,0-.72.32-.46.73a16.67,16.67,0,0,0,1.59,2.16,14.48,14.48,0,0,0,1.49,1.32v1l-2.06-1.06v-.27l-.87-1.2c-.54-.43-.49.07-.57.36l-.29.28h-.3c0-.45,0-.9-.07-1.46l-.74,1.73-.06-1.11-.27-.59h0l.25-.35Zm4.5-6,.43,0c-.12-.45.25-1-.43-1.51Zm.37,1.2h-.39c0,.28,0,.55.07.83H138Zm-6.73-1a2.61,2.61,0,0,0-.17.64,1.34,1.34,0,0,0,.14.36l.18-.06Z"/><path class="cls-2" d="M140.61,116.54l-.69-.19a10.67,10.67,0,0,0,1.12-.89c.69-.7,1.34-1.46,2-2.19l0,0,.75-1.13-.76.23,0,0,.06-.52.53-.6c.29,0,.71.24.83.13a3.42,3.42,0,0,0,1.46-2.49l.31-.31.16.4.18-.33.25-.72-.25,0-.09.68-.26,0-.24-1.16.12-.88c.46-.93.46-.93-.47-1.66l-.55.8,0,.56,0,0c-1.13.87-1.37,2.15-1.77,3.51l1-.29.29.66,0,.11h-.26l-.65.65h0l-.7.72-.41.48-.58-.56c.56-1.43,1.06-2.88,1.68-4.28a13.46,13.46,0,0,1,1.51-2.6c.7-.92,1.5-1.8,2.9-1.34a.65.65,0,0,0,.51-.13c1.69-1.3,3.63-1.12,5.53-.86s3.69.65,5.51,1.08a6.05,6.05,0,0,1,4,3.58c.48,1,.88,2,1.31,3l-.49.69h.95a25.63,25.63,0,0,1,1.76,2.75,33.92,33.92,0,0,0,4.76,7.16,2,2,0,0,1,.61,1.71A2.42,2.42,0,0,1,170.2,121c-.81-1.69-2.27-2.83-3.3-4.32-.76-1.09-1.47-2.23-2.12-3.39-.74-1.33-1.38-2.71-2.06-4.08l1.46.83a5.41,5.41,0,0,0-.37-1c-.11-.17-.43-.39-.56-.34s-.36.36-.54.56a20.09,20.09,0,0,1-1.58-1.62,5.26,5.26,0,0,0-3.73-2.19,27.17,27.17,0,0,1-2.79-.49,7,7,0,0,0-4.22.44,9.93,9.93,0,0,1-1.47.38,40.86,40.86,0,0,1-2.44,4.35c-1.45,2-3.11,3.77-4.71,5.61A5.31,5.31,0,0,1,140.61,116.54Zm30.14,4.11.22.31.44.12-.17-.33-.28-.3-.31-.14ZM168,116.47l.12.46.12-.07-.24-.4-.25-.32a2.5,2.5,0,0,0-1.31-1.85l-.77-2.15-.49-.36c-.11.1-.32.25-.3.28.4.84.84,1.66,1.27,2.49.47.59.52,1.57,1.53,1.66ZM154.13,103l-2.76-.28,0,.4H154a2,2,0,0,0,.05.26l-.54.08c-.39-.16-.58,0-.68.39a3.09,3.09,0,0,0-3.65.87,8.87,8.87,0,0,0,3.64-.89l.6.17c.62.18,1.22.48,1.86,0a1,1,0,0,1,.67,0l4.77,1.39c.73.46.85,1.6,1.85,1.77.4-.43.19-.75-.1-1-.48-.44-1-.86-1.48-1.29a5.69,5.69,0,0,0-1.6-.83c-1.24-.2-2.51-.19-3.76-.32a14.65,14.65,0,0,1-1.6-.33h1.74v-.23ZM169,117.76c0,.27-.08.43,0,.51s.23.17.36.25l.14-.18Zm-4.33-6.24.19-.21a3.28,3.28,0,0,0-.34-.31.65.65,0,0,0-.16.13A3.79,3.79,0,0,0,164.63,111.52Zm-15.72-7.62s.07.06.09,0a.76.76,0,0,0,.09-.09l-.18-.06Z"/><path class="cls-2" d="M119.26,140.84h.33c.08.24.15.48.23.71l.81.45,1.49.5.65.34a1.31,1.31,0,0,1,.28,0A30.45,30.45,0,0,0,129,144c.15,0,.3.22.45.34-.52,1.4-.66,1.43-2.58.66l-.37.8a.33.33,0,0,1-.17,0l-1,.59c-.13-.4-.26-.8-.38-1.19l1.36-.17c-.81-.66-1.1-.28-1.38.16l-.72.25c-.15-.37-.35-.68-1-.45.1.48.19,1,.29,1.46l-1.71.2-.19.36v.12l-.1.49-.51-.11-.3-.87.58-.58c.56,0,.59-.43.58-.86l0-1.15,1.31.11c-.46-.43-.91-.6-1.31-.11l-.31.16a3.62,3.62,0,0,0-1-.15,1.37,1.37,0,0,0-.65.36s.1.34.12.33c.24-.05.46-.15.7-.21a1.31,1.31,0,0,1,.38.06l.14.62v.83c-.69-.3-.56.22-.58.59h-.58l-.38-.47c-.34.33,0,1.19-.76,1-.3-.87-.59-1.69-.87-2.52.43-1.18.36-1.44-.63-2.18-.29.95-.29.95.59,2.16-.18.87-.36,1.75-.53,2.62a.87.87,0,0,0-.11-.09s-.1,0-.1,0c.06.76.13,1.51.19,2.27v0l.29,2.19h0l.19.62c0,.47.08.94.15,1.41a2.82,2.82,0,0,0,1.31,2.21,12.6,12.6,0,0,0,4.65,1.59l3.65.5.58,0,1.94.14c-.06.25-.06.58-.22.74-.47.44-.22.69.17.94l.06.3c-.42.9.07,1.75.16,2.62h0l-.17.54c-.19-.59-.37-1.17-.55-1.76s-.21-1.12-.32-1.67-.35-.82-.86-.32l-1.88-.32-1.05.6.93,1.14c-.78-.42-.13,1-.92.65a2.11,2.11,0,0,0-1.16-2.15l.11,2.42c-.2.36-.46.34-.65,0-.32-.5-.73-.29-1.13-.23l-.57-.24c-.1.24-.31.51-.28.72a15.94,15.94,0,0,0,.5,1.76l-.3-.13a.59.59,0,0,0,0-.23c-.18-.29-.37-.57-.56-.85l0,0-.31-.31v0l-.3-1a7.42,7.42,0,0,1-.48-1.47,2,2,0,0,0-1.81-1.86c-1.23-2.23-1.47-4.72-1.73-7.17-.24-2.29-.36-4.6-.37-6.91a10.3,10.3,0,0,1,2-6.13c.07-.11.25-.13.38-.2.36.65-.3,1.15-.26,1.75,0,.14,0,.33,0,.4a3.39,3.39,0,0,0,.56.44v0l-.78.13C118.54,141.16,118.54,141.16,119.26,140.84Zm-.13,2.46h-.33a1.17,1.17,0,0,0,.33,1.53Zm3,17.13c.26,0,.48,0,.69,0s.15-.19.14-.2c-.23-.23-.47-.45-.83-.79Zm1.34-1.5c.23.34.39.57.63.9C124.28,159.2,124.27,158.86,123.47,158.93Zm.59-14.53,0-.13s-.1,0-.11,0a.25.25,0,0,0,0,.12Z"/><path class="cls-2" d="M138.4,126.59V126c.19,0,.5.16.55.09.72-1,2-1.1,2.74-2s1.4-1.93,2.09-2.91a4.09,4.09,0,0,1,.42-.58,9.51,9.51,0,0,0,2.93-4,1.33,1.33,0,0,1,.44-.56,6.86,6.86,0,0,0,2.34-2.59s.17,0,.35,0l-.27,1.14c.13.1.22.21.28.2a2.5,2.5,0,0,1,2.54,1.23c1.1,1.63,2.75,2.62,4.12,3.93a8.08,8.08,0,0,1,2.06,3.06c.91,2.45,1.9,4.87,2.86,7.3a2,2,0,0,1,0,.43l0,.36-.44-.08-.8-1.77c-.29-.93-.57-1.86-.86-2.78-.76-1.63-1.51-3.26-2.28-4.89a.63.63,0,0,0-.31-.27s-.16.15-.24.24l-.49-.71-.65-1-.6.18a1.08,1.08,0,0,0-.77-1.28l-.31-.09.1.31,1,1c.06.37-.07.91.63.7l.32.37c.21.25.14.89.77.57.2.7.92,1.31.41,2.16,0,.07.28.34.43.51l.12.13.29,1.1.33-.53.48.82a5.17,5.17,0,0,0,.85,3.46l-.34.62c-.54-1.18-1-2.39-1.62-3.53-1.11-2.07-2.19-4.18-3.47-6.15a17.33,17.33,0,0,0-2.68-2.81,4.19,4.19,0,0,0-1-.53c-.15.36-.29.61-.37.88a5.31,5.31,0,0,1-2.36,3.15,5.2,5.2,0,0,0-1,1c-1.47,1.59-3,3.16-4.38,4.8s-3,1.61-4.81,1.37l.28-.57h.68Zm3.7-.9-.14.21.31,0,.31-.27.17-.41h0l.31-.6v0c.07,0,.19.15.2.13.76-.7,1.5-1.42,2.23-2.14,0,0-.06-.21-.1-.32h0c.41.31.49,0,.59-.3h0l.29-.59h0l.3-.3h0l.3-.3v0c1.82-.68,2.57-2.25,3.13-3.93.15-.46.48-1.08-.35-1.64l-.7,1.34-.39.71-.52-.23.13-.2.39-.59-.25-.13-.36.52-.23.36-.25.92,0,.53v0c-.54.06-.76.34-.59.88h0l-.3.34-.85.39-1.91,2.48-1,1.22c0,.07,0,.15,0,.22l-.34.27-.31.31h0c-.41.09-.63.3-.28.94l.33-.63.24.26a1.87,1.87,0,0,0-.07.22Zm11.44-7.84-.27-.29c0,.14.09.29.14.43l.19.14ZM152,116.53c.13.35.26.71.82.65,0-.55-.34-.66-.71-.76l-.17-.16Zm-11.11,9.58.11-.6-.58.19-1.58.51,1.79.89Z"/><path class="cls-2" d="M122.73,85.47v1.07a10.64,10.64,0,0,1-3.39-.54,30.77,30.77,0,0,0-4.71-1.32c-2.12-.39-3-2-3.8-3.61a36.55,36.55,0,0,1-1.69-4.44c-.55-1.69-.91-3.44-1.54-5.1-.88-2.34-1.89-4.63-2.91-6.91-.76-1.71-1.63-3.38-2.41-5.08-.52-1.13-.38-1.43.94-2.37a6.07,6.07,0,0,1,3,4.45,17,17,0,0,0,1.19,3.68c.73,2,1.5,4.07,2.19,6.12,1.12,3.28,2.17,6.58,3.27,9.86A3,3,0,0,0,115,83.1c2,.61,4,1.14,5.94,1.72C121.57,85,122.14,85.25,122.73,85.47Zm-5-.59.69.24,0-.26-.67,0-.17-.1Zm-5.28-2.27a1,1,0,0,0,1.31.68l-1.06-.93-.43-.42a6,6,0,0,0-.16-1.13c-1.27-3.86-2.61-7.71-3.82-11.59-.75-2.41-2.21-4.41-3.48-6.53l-.26-.24,0,.47c.61,1.35,1.24,2.7,1.83,4.06s1.17,2.63,1.64,4c.71,2.09,1.29,4.23,2,6.32.28.86.85,1.64,1,2.51a4,4,0,0,0,1.23,2.2Zm-8.85-23.34c-.13.48-.39.89-.29,1.15.29.69.38,1.55,1.42,2A5.75,5.75,0,0,0,103.63,59.27ZM105.39,62c.15-1.63.15-1.63-.72-2.17Zm11.35,22.58.12-.43L115.51,84l0,.21ZM104.58,59.36s-.08.06-.09.1.06.06.09.1l.1-.15Z"/><path class="cls-2" d="M107.24,162.82l.91-.8a2.89,2.89,0,0,1,1.42,2,63.6,63.6,0,0,1,1.89,8.87c.22,2,.79,4,1,6,.2,2.49.2,5,.18,7.5a3,3,0,0,1-.72,1.8,5.78,5.78,0,0,0-1.73,3.38l1.18.85c-.51.25-.87.33-1.06.55a3.38,3.38,0,0,0-.38,1,3,3,0,0,1-1.56-2.07c-.27-2-.23-4,1.41-5.46a2.73,2.73,0,0,0,.85-2.46c-.24-2.25-.56-4.49-.85-6.73,0-.29-.09-.57-.14-.85l.35-.41,0,0,.24.59c.15.59.31,1.18.46,1.77a5.91,5.91,0,0,0,.37,2.11,4,4,0,0,1,.52,2.86,1.6,1.6,0,0,0,.44,1.37c0-1.29,0-2.4,0-3.5s-.22-2.28-.33-3.42c-.28-1.6-.56-3.2-.85-4.79,0,0-.19,0-.3,0a.15.15,0,0,0-.22.09l.08-.07c.63-.25.45-.77.38-1.21-.15-.89-.35-1.78-.53-2.67l-.91-4-1.11.49c.11.8.22,1.55.33,2.3v.61l0,1.17.19.35.09.52.54,2.68-.27,1.08c-.39-2.16-.76-4.33-1.19-6.48a11.58,11.58,0,0,0-.69-2.33c-.36-.82-.65-1.55.09-2.3C107.33,163.06,107.26,162.92,107.24,162.82Zm2,26v.33l.16-.17c.64-.42.52-1.1.61-1.72A1.86,1.86,0,0,0,109.25,188.86Zm-1-24.43.23-.05c0-.3-.05-.6-.08-.91h-.15Z"/><path class="cls-2" d="M128.5,127.19l.93.36c-.07.89-.89.68-1.33.76a18.34,18.34,0,0,1-3.31.2,7.64,7.64,0,0,1-1.64-.36c-.71.63-1.36,1.62-2.75,1.51a59.54,59.54,0,0,0-9.51-7.76,17.83,17.83,0,0,0-1.15,2.13c-.49,1.3-.9,2.64-1.29,4a19.27,19.27,0,0,1-3.14,6.61,9.41,9.41,0,0,0-1.8,4,18.22,18.22,0,0,1-.85,2.45h-.25v-1.3h0l.3-1.33v0l.31-.6v0l.3-.9,0,0,.38-.6.23-.92a22.21,22.21,0,0,0,1.66-2.91c.61-1.58,1-3.24,1.51-4.87l.32.32-.06.52-.38,1.08c-.09.21-.17.41-.26.61l-.19.71.19.06c.06-.2.13-.39.2-.59l.23-.63c.12-.37.23-.74.34-1.12.07-.22.14-.44.2-.67h0l.31-.69,0,0c.08-.32.16-.64.25-1l.06-.74.28-.78v0c.66-1.42,1.33-2.84,2-4.26.05-.11,0-.28,0-.42a5.21,5.21,0,0,1,4,1.22,32.27,32.27,0,0,1,2.65,2.18,9.53,9.53,0,0,0,5.57,2.38,3.79,3.79,0,0,0,1.22-.25c.59-.17,1.17-.38,1.76-.57l.59.3v0c-.54.27-1.09.5-1.59.81-.22.13-.34.42-.58.75Zm-17.22-6.5-.17.4c.72.42,1.46.82,2.16,1.28a8.51,8.51,0,0,1,2.09,1.52,17.29,17.29,0,0,0,3.75,3.14c1.46,1,2.21,1,3.92-.27-.37-.06-.63-.11-.9-.13a7.16,7.16,0,0,1-3.89-1.35c-1.37-1.06-2.72-2.15-4.06-3.25A7.31,7.31,0,0,0,111.28,120.69ZM125,127.54v.15h1.56v-.15Z"/><path class="cls-2" d="M106.48,108.64c-1,.79-2,1.6-3,2.38-.3.22-.66.36-1,.55a14.11,14.11,0,0,0-1.44.92,17.52,17.52,0,0,0-2.19,3.15c-.52,1-1.11,1.9-1.71,2.83-.47.73-1,1.42-1.5,2.12-1.69,2.32-3.38,4.64-5.15,7l-1-.7a5.42,5.42,0,0,1,1-3.07c.91-1.52,1.66-3.13,2.57-4.65.66-1.11,1.46-2.13,2.19-3.2l.3.31c-.06.24-.11.48-.17.72v0l-.3.3h0l-.3.6v0l-.37.5-.27.32-.59.87c0,.12-.06.25-.1.37a3.86,3.86,0,0,1-.52,1.43,4,4,0,0,0-.86,2l-.28.58c-.45,0-.8.16-.73,1L92,124l.43-.44c.69-1,1.74-1.85,2.13-3.17l-1-.46.2-.29.72-.75.18-.39.29-.31.7.31c-.06.17-.13.34-.19.52a3.53,3.53,0,0,0-.21.32s.1.08.15.13l.15-.38.54-.62h0l.31-.6,0,0,.46-.31.71-1.42.6-1.56v-.11c.7-.18.55-.71.61-1.17-1-.37-1,.56-1.48.89l-.46.62c0,.15-.09.3-.13.45l-.32.28-.57.28a1.85,1.85,0,0,0-.14-.14c.35-.62.67-1.26,1.06-1.86.86-1.28,2-2.3,2.89-3.63a10,10,0,0,1,2.58-2.22c1.1-.83,2.25-1.59,3.38-2.39l.1.09a1,1,0,0,1-.59,1c-.27.18-.39.57-.58.86L103,108.92l-.29.5-1.44.67c-.84-.54-.91.18-1.07.73l.72-.52c0,.24,0,.47,0,.7-.33.48-1.34.45-1.1,1.44a1.51,1.51,0,0,0,1.08-1.45,2.6,2.6,0,0,0,2.47-.64c.49-.45,1.29-.77,1.13-1.69.07-.3.14-.59.22-.89h0l.85-.11C105.5,108.34,106.25,108.26,106.48,108.64ZM90.4,125l.3.34.36-.44-.28-.27Z"/><path class="cls-2" d="M122.39,117.75c-.16-.1-.38-.16-.48-.3a12,12,0,0,0-1.32-2,6.89,6.89,0,0,1-1.65-1.67c-1.06-2-2.3-3.82-3.46-5.72-.61-1-1.21-2-1.9-3.21a23.06,23.06,0,0,0-4.18,1.63v-.77h0v-.41l-.09-.32.27-.71a4.22,4.22,0,0,0-3.24,1.43h-.71l-.1-.09A3.61,3.61,0,0,1,107.8,104a40.05,40.05,0,0,1,5-1.43,1.39,1.39,0,0,1,1.19.23,4.61,4.61,0,0,0,2,1.29c1.87.83,2.88,2.46,3.9,4.07s2,3.35,3,5a9.47,9.47,0,0,1,.43.91l-.45.3c-.67-1-1.36-2-2-3-.34-.51-.63-1-1-1.56-.16-.33-.32-.65-.49-1-.81-1.09-1.63-2.18-2.44-3.28-.83-.58-1-.52-1.21.36l.22.36,0,0,.33.22.22.38A21.91,21.91,0,0,0,118,110.5c1,1.65,2.27,3.16,3.44,4.72.06.09.28.07.43.1v0c-.34.44.07.55.31.74l.25.42,0,.37Zm-6.92-10.86.2.11-.19-.12-.12-.13Zm-.66-1.37a4.73,4.73,0,0,0,.2.47s.16,0,.24-.06l-.27-.56-.24-.34Zm-1-2c-.87-.58-2.46-.28-3.85.81Z"/><path class="cls-2" d="M102.41,141.12h.25c-.36,1.24-.75,2.48-1.09,3.73-.52,1.91-1,3.84-1.52,5.74a16.29,16.29,0,0,1-1.12,2.66c-.31.62-.85.59-1.22,0a2.77,2.77,0,0,1,.12-2.9c2-3.67,3-7.68,4.11-11.68.69-2.6,1.67-5.13,2.51-7.69.4-1.23.7-2.51,1.18-3.71.69-1.74,1.49-3.44,2.25-5.15a2.18,2.18,0,0,1,1.79-1.29c.22.21.37.37,0,.64a4.83,4.83,0,0,0-.69.79,3.51,3.51,0,0,0-1.63,2.75,2.72,2.72,0,0,0-.31.47c-.87,2.39-1.78,4.76-2.58,7.17a23.36,23.36,0,0,0-.58,2.93l-.23.92c-.69-.17-.29.37-.38.6l0,0-.3.9v0l-.31.6v0l-.3,1.33h0l-.36,1.24-.06.28.16-.18A.73.73,0,0,1,102.41,141.12Zm-2.41,6-.19.57.17.07.25-.44.35-1.08-.3-.08C100.19,146.49,100.09,146.81,100,147.13Zm-.52,3-.26-.18a1.67,1.67,0,0,0-.64,2Z"/><path class="cls-2" d="M161.88,131l0-.36a25.46,25.46,0,0,1,3.71,5.43c.94,2.06,1.8,4.16,2.7,6.24.3.7.5,1.37-.38,1.95a8.27,8.27,0,0,1-2.55-2.62c-1.47-2.6-2.81-5.27-4.16-7.93-.5-1-.89-2-1.34-3l.35,0,.91,1.48c.28.4.34,1.26,1.15.55.28-.45-.1-.48-.38-.57h0Zm3.78,9.26v-.6a.89.89,0,0,1,.6,1.16c-.41.17-.43.4-.1.67l.29.46.18-.11-.35-.46,0-.56,1,.67c-.64-1.55-1.14-2.89-1.74-4.18-.45-.95-1-1.84-1.55-2.76a4.4,4.4,0,0,0-.74-1.14c-.39-.31-.42,0-.33.35l-.18.16-.58,0c.46.9.89,1.72,1.31,2.55s.6,1.67,1.7,1.68c0,.19,0,.38,0,.57l-.26-.16.08.34.37.85.34.47a.53.53,0,0,0,0,.12s.06,0,.08,0Zm2,3,.31-.16-.36-.84-.19.06Zm-.28-1.44-.09-.11s-.08.06-.09.1.05.07.08.11Z"/><path class="cls-2" d="M107.08,160.27c.4-.83.37-.9-.45-1.13,0-.21,0-.42.05-.63.84,0,.63-.63.68-1.12h0l0-.3a12.7,12.7,0,0,0,.16-1.84c-.1-1.89-.25-3.79-.42-5.68a14.13,14.13,0,0,0-.36-1.81s-.24,0-.36,0h-.27l-.21-3.47h.51c.15.61.25,1.22.45,1.81a15.2,15.2,0,0,1,.86,3.47,62.4,62.4,0,0,1,.44,9c0,1.05,0,2.11,0,3.16-.33-.29-.62-.71-1.13-.3C107.09,161,107.08,160.65,107.08,160.27Z"/><path class="cls-2" d="M154.38,67.6c.27-1.07.48-2.16.83-3.2.44-1.37.95-2.72,1.52-4a6.28,6.28,0,0,1,1-1.3,2.43,2.43,0,0,1,.71,3.65c-.53.85-1.1,1.68-1.65,2.52l-.22-.17c-.07-.76-.15-1.52-.22-2.27l.08-.11-.07.12-1,3-.64,2Zm3-6.48.16-.58-.17,0-.17.47-.19.55.18.07C157.2,61.43,157.27,61.28,157.33,61.12Zm.31-1.15,0,.09h.16s0-.07,0-.09Z"/><path class="cls-2" d="M153.19,75c-.31-1.31.67-2.29.9-3.46.1-.49.18-1,.28-1.49h0A13,13,0,0,0,156,65.73l.58-.67.22.17c-.55,1.74-1,3.5-1.66,5.21C154.58,72,153.85,73.48,153.19,75Z"/><path class="cls-2" d="M143.1,86.32l-.38-.73,3.16-1.22.28.56.36-.39.59-.57,0,0a1.39,1.39,0,0,0,1.18-1.17h0l.55-.31a1.54,1.54,0,0,0,.19.17,7,7,0,0,1-4.82,3.6s-.07-.11-.09-.1a1.06,1.06,0,0,0-.2.12Z"/><path class="cls-2" d="M105.61,105.73h.71c.34.14.5.78,1.05.32.1-.09.37,0,.56,0l-.88.92,1.64-.32-2.21,2c-.23-.38-1-.3-.89-1,0-.14.11-.27.16-.41l-.18-.14-.83.66h0l-.31-.14c.19-.29.31-.68.58-.86A1,1,0,0,0,105.61,105.73Z"/><path class="cls-2" d="M126.44,104.56c-.56,2.83-1.11,5.65-1.67,8.48-.07.34-.09.76-.61.38.41-2.21.8-4.42,1.24-6.62.14-.75.39-1.47.59-2.21Z"/><path class="cls-2" d="M151.58,77.24a3,3,0,0,0,.8-2.37l.83.12a26.82,26.82,0,0,1-2.63,6,8,8,0,0,1-1.34,1.39l-.13-.11a15.9,15.9,0,0,0,2.58-4.73C151.71,77.43,151.62,77.32,151.58,77.24Z"/><path class="cls-2" d="M124.15,102.84l1.29.32a1.92,1.92,0,0,1-2.61,0,9.35,9.35,0,0,1-1.16-1.27l.21-.26.94.38a.17.17,0,0,1,.19.08C123.12,102.76,123.57,102.89,124.15,102.84Z"/><path class="cls-2" d="M161.88,131l0,1.1-.76,0c-.31-.49-.61-1-.91-1.48l-.67-.55a.32.32,0,0,1,0-.25l.34-.62.78-.08.8,1.77Z"/><path class="cls-2" d="M154.37,70.05,152.79,73a.14.14,0,0,1-.13,0s-.08-.05-.12-.08c.12-.4.22-.81.36-1.21.4-1.15.83-2.3,1.25-3.45l.44,0c-.08.59-.16,1.18-.23,1.77Z"/><path class="cls-2" d="M124.15,102.84c-.58,0-1-.08-1.14-.74l.55-.19.46.18c.21-.65.41-1.31.62-2l0-.06a.82.82,0,0,1,.73,1l-.08.11.08-.11.23-.07a1.34,1.34,0,0,1,.11.14l-.61,1c-.18,0-.47-.2-.51-.15A4.46,4.46,0,0,0,124.15,102.84Z"/><path class="cls-2" d="M161.94,158.34c-.15,1-.29,2-.43,3-.64-1-.18-2.18-.53-3.46Z"/><path class="cls-2" d="M110,175.94l-.35.41-.51-2.15.27-1.08.6-.07,0,0,.58.39a1,1,0,0,0-.55,1A9.66,9.66,0,0,1,110,175.94Z"/><path class="cls-2" d="M134.9,128.27a1.46,1.46,0,0,1-.21-.46c0-.1.14-.21.22-.32.77.22,1.54.52,2.28-.06l.07.76A3.16,3.16,0,0,1,134.9,128.27Z"/><path class="cls-2" d="M108.69,106.67l-1.64.32c.43-.45.65-.69.88-.92.06-.12.13-.23.2-.35h1.26v.77l-.29.12-.45.06Z"/><path class="cls-2" d="M150.76,76.88l.22-.33.25.23a2.11,2.11,0,0,1,0,.25l-1.47,2.63a.58.58,0,0,0-.14-.13C150,78.65,150.37,77.77,150.76,76.88Z"/><path class="cls-2" d="M146.37,83.82l1.73-2.07.25.28-.08.79h0c-.67,0-.89.21-1.18,1.17l0,0-.49.1Z"/><path class="cls-2" d="M148.35,81.5c.42-.66.84-1.31,1.25-2a.58.58,0,0,1,.14.13l-1.11,2.07Z"/><path class="cls-2" d="M126.44,104.56l-.45,0c.22-.61-.08-1.45.79-1.77C126.67,103.4,126.55,104,126.44,104.56Z"/><path class="cls-2" d="M148.79,154.2c.08-.16.15-.32.22-.47.13.43.25.86.37,1.29-.13.47-.27.93-.4,1.4l-.19-.07Z"/><path class="cls-2" d="M124.13,114.61c.09.66-.35.7-.83.69-.13-.29-.27-.58-.41-.88l.45-.3C123.7,114.12,123.51,115,124.13,114.61Z"/><path class="cls-2" d="M122.39,117.75l0-.92.3-.06h0l.66,1.07-.44.3Z"/><path class="cls-2" d="M146.52,84.54l-.36.39-.28-.56c.16-.18.33-.36.49-.55l.25.25C146.58,84.23,146.55,84.38,146.52,84.54Z"/><path class="cls-2" d="M149.38,155c-.12-.43-.24-.86-.37-1.29l.39-.42C149.39,153.88,149.38,154.45,149.38,155Z"/><path class="cls-2" d="M127.67,102.26a.69.69,0,0,1-.9.57l.23-.59Z"/><path class="cls-2" d="M165.31,110.68h-.95l.49-.69Z"/><path class="cls-2" d="M152,74.38l-.29.88,0,0-.06-.9Z"/><path class="cls-2" d="M159.57,130.1l.67.55-.35,0Z"/><path class="cls-2" d="M154.59,68.29l-.44,0c.07-.22.15-.44.23-.67l.34.2Z"/><path class="cls-2" d="M152,73.82c.37.21.39.4,0,.58Z"/><path class="cls-2" d="M149.24,82.33l-.23.35a1.54,1.54,0,0,1-.19-.17l.29-.29Z"/><path class="cls-2" d="M108.66,106.68l.45-.06Z"/><path class="cls-2" d="M95.31,116l.29-.28a1.85,1.85,0,0,1,.14.14,2.81,2.81,0,0,0,0,.29.36.36,0,0,1-.14.16Z"/><path class="cls-2" d="M143.9,86.3a1.06,1.06,0,0,1,.2-.12s.06.06.09.1Z"/><path class="cls-2" d="M124.71,118.24a.64.64,0,0,1,.06.18A.13.13,0,0,1,124.71,118.24Z"/><path class="cls-2" d="M148.1,81.75l.25-.25.28.23-.28.3Z"/><path class="cls-2" d="M139,137.51l1.85-.07.13-.33-2.39-2.61a2.65,2.65,0,0,1,2.12,1.27l.32.42h0l.29.29h0c-.12.43.16.49.48.52a.55.55,0,0,1,.17.17,1.3,1.3,0,0,0,.82,1.81l.4.8L143,140a8.14,8.14,0,0,1-1.38-.61,3.39,3.39,0,0,0-2.82-.84C139,138.21,139.48,137.94,139,137.51Z"/><path class="cls-2" d="M163.37,152.74l-.15.82c-.86-.42-.43-1.63-1.36-1.88v0c.09-.85.18-1.71.26-2.56.54-.1.57.29.68.66s.37,1,.56,1.47l.22.62-.73-.23-.18.22Z"/><path class="cls-2" d="M138.17,170.9a15.44,15.44,0,0,1-2.27.66,5.27,5.27,0,0,1-1.58-.26,2.13,2.13,0,0,1,.43-.31c1-.37,1.92-.74,2.88-1.08a2.58,2.58,0,0,1,.71,0l-.24.6Z"/><path class="cls-2" d="M130.3,171.91a.54.54,0,0,0,0,.25c-.85,0-1.69-.77-2.55,0l-.66.47h0c-.09-.95.5-1.08,1.24-1a2.48,2.48,0,0,0,.54-.63,2.58,2.58,0,0,0,.1-.8h.43c.09.15.24.29.26.44,0,.4.1.76.6.81Z"/><path class="cls-2" d="M146,146.34l.52,0H147l.36-.34c.11.42.21.84.32,1.26l-.84-.52-.35,1h-.18a1.63,1.63,0,0,1-.66-1.43Z"/><path class="cls-2" d="M125.46,148.32h1.36v-1.71l.55.63.07.57c.13.12.26.24.4.35l.09.43-.46.39a3.19,3.19,0,0,0-.84-.35,9.19,9.19,0,0,0-1.28.05Z"/><path class="cls-2" d="M143.92,160.86c-.26-.35,0-.59.18-.84l1.17.41c.12.5,0,.72-.49.64C144.49,161,144.21,160.93,143.92,160.86Z"/><path class="cls-2" d="M147.67,152.28l.56.69c-.12.38-.25.76-.38,1.14C147.12,153.57,147.53,152.91,147.67,152.28Z"/><path class="cls-2" d="M146.05,145.44c.45-.69-.16-1.31-.14-2a.78.78,0,0,1,.22,0c.21.61.42,1.22.68,2Z"/><path class="cls-2" d="M158.26,138.33l-.49.48a.39.39,0,0,1-.24,0l-1.62-.59c.69-.68,1.42,0,2.13-.06A1.24,1.24,0,0,0,158.26,138.33Z"/><path class="cls-2" d="M123.61,164c-.62.27-.58-.18-.61-.55l.33-.33.29.25V164Z"/><path class="cls-2" d="M127.39,169.83l.82-.3a.18.18,0,0,1,0,.16l-.9.44Z"/><path class="cls-2" d="M154.3,138l-1.13-.34,0,0,1.19.25Z"/><path class="cls-2" d="M121,161.27l.3,1Z"/><path class="cls-2" d="M145.79,159.84s-.09-.06-.09-.08.07-.14.1-.21.1.07.09.08A.81.81,0,0,1,145.79,159.84Z"/><path class="cls-2" d="M154.39,137.88l.6,0h0l-.71.06Z"/><path class="cls-2" d="M129.19,168.49a.18.18,0,0,1-.07.19l-.43-.09,0-.15Z"/><path class="cls-2" d="M131,177.45l.1.1s-.07.08-.1.08-.07-.06-.1-.09Z"/><path class="cls-2" d="M153.17,137.65l-.11-.13.14.11Z"/><path class="cls-2" d="M133.14,96.15c-.26-.44,0-.63.38-.64s.94,0,1.42.08c.45.19.87.6,1.42.28.25.12.48.26.73.38s.61.07.68-.35a1.07,1.07,0,0,0,.18-.19l.75.26A16.23,16.23,0,0,1,138,98c-.14.28-.59.4-.9.59l0-.06.4-.74c-.47-1.32-.54-1.36-2.27-1.23.15.65.65.91,1.16,1.15l0,.65c-.44.37-.33.73,0,1.08l0,.45-.66.3-.59-.39-.54.66c-.19-1.12-.36-2.12-.54-3.13l.71-.55C134.4,96,133.7,96.28,133.14,96.15Z"/><path class="cls-2" d="M126.28,110.94c.16-1.41.26-2.83.48-4.23a8.17,8.17,0,0,1,2.68-4.46l.49,0,0,.27-.84,2.52-1.2-.22c-.53,2.14-1.27,4.08-1.17,6.17Z"/><path class="cls-2" d="M130,102.48l0-.27c.18-.29.37-.58.56-.86l1.24.9c.07.68.14,1.36.22,2l-.41,0-.41-.79v2.79h-.23c-.2-.48.14-1.2-.64-1.43a2.91,2.91,0,0,1,.07-.79A1.31,1.31,0,0,0,130,102.48Z"/><path class="cls-2" d="M134.9,89.78c.78,1.1,2.08,1.24,3.2,1.73-.16.68-.69.61-1.19.59l0,0-.35-.66c-.63-.25-1.23-.86-2-.23l-.89-.11.57-.71Z"/><path class="cls-2" d="M130.85,88.91c-1.63.1-3.26.23-4.89.31a3.17,3.17,0,0,1-1.29-.26l6.11-.45Z"/><path class="cls-2" d="M131.47,88.28c.58-.11,1.14.53,1.72,0l.56.32.6.27,0,0,.3.62-2.94-.62Z"/><path class="cls-2" d="M122.43,100.21l.39,1.81-.94-.38c0-.33,0-.66,0-1Z"/><path class="cls-2" d="M127.07,98.25l-.85-.39,0-.47,1.78.07v.1C127.57,97.65,127.1,97.67,127.07,98.25Z"/><path class="cls-2" d="M135.7,100.22l.66-.3c.74.33.45.67-.05,1.09Z"/><path class="cls-2" d="M126.74,99.3l.89-.24,0,.18-.84.16Z"/><path class="cls-2" d="M126.83,99.4l-.41.15.32-.25Z"/><path class="cls-2" d="M125.57,101l.27-.1-.16.24A1.34,1.34,0,0,0,125.57,101Z"/><path class="cls-2" d="M123.62,139.23l-.66-1,2-.55h1.78l.39.44.27.44.48.46c-.31.36-1.17-.29-1.12.66l1.44.16V140h-2l-.53.88-.29,0c-.37-.59-.94-.15-1.41-.29s-.68-.43-.36-.92c.85-.12.85-.12.67-1.11Z"/><path class="cls-2" d="M133.46,131.55h.29l.29-.28c.08-.29,0-.79.57-.36.12.49-.37,1.25.61,1.35v0l-.31.33c-.28.23-.61.46,0,.7v0a4,4,0,0,1,.07,1.53s.12.13.19.19a.47.47,0,0,1,0,.2l-1.25.35a.78.78,0,0,0-.21,0l-.54-.12,0-.4c.06-.94-.52-.44-.9-.41v-.81l.6-.34c.52.08.67-.18.58-.65S133.46,132,133.46,131.55Zm.6,2.25-.18,1.12C134.66,134.38,134.66,134.38,134.06,133.8Z"/><path class="cls-2" d="M130.79,138.68,130,139c-.07-.12-.13-.34-.21-.34-.79-.06-1.59-.08-2.39-.11l-.27-.44,2.4.13c.42,0,.76-.08.67-.75a6.47,6.47,0,0,1-2.17-.21c-.7-.33-.93,0-1.29.39h-.44c-.07-.58-.57-.52-1-.62a10.88,10.88,0,0,1,.77-1c.49-.52.84.25,1.28.18.16.67.7.55,1.17.58.81.26,1.65.76,2.24-.35l.23.19c-.24.35.24,1-.41,1.16l.24.45Z"/><path class="cls-2" d="M105.58,146.34c.21.56-.45,1.29.32,1.76l-.61.58a3.73,3.73,0,0,0-.31-.74c-.1-.15-.31-.23-.46-.34l.22-.67c.5.1.6-.21.63-.6Z"/><path class="cls-2" d="M132.64,131.82l.74-1.73c0,.56.05,1,.07,1.46l-.85,1Z"/><path class="cls-2" d="M131.71,141.73l-3.24.17a.31.31,0,0,1,.07-.21Z"/><path class="cls-2" d="M123.62,139.23l.66-.7c.18,1,.18,1-.67,1.11C123.61,139.51,123.62,139.37,123.62,139.23Z"/><path class="cls-2" d="M127.38,134.16l.33-.24c.47.68,0,1-.51,1.43A.9.9,0,0,1,127.38,134.16Z"/><path class="cls-2" d="M128.53,136.79c.08-.38.15-.76.23-1.14l.38,0,.45.71Z"/><path class="cls-2" d="M107.08,160.27c0,.38,0,.77,0,1.15l-.29.26C106.48,161.13,106.46,160.63,107.08,160.27Z"/><path class="cls-2" d="M131.72,133.57l.31.05.26.28c0,.27,0,.54,0,.81l-.62-.08C131.7,134.28,131.71,133.93,131.72,133.57Z"/><path class="cls-2" d="M131.35,135.58c0,.2,0,.4.05.6l-.39.44-.23-.19c.06-.29.12-.58.17-.86Z"/><path class="cls-2" d="M127.92,133.75h0C128.17,133.79,128,133.77,127.92,133.75Z"/><path class="cls-2" d="M128.79,115.3l.6,6.24c0,.33,0,.67,0,1l-.61,1.17c-.09.1-.24.31-.27.3-.25-.14-.47-.31-.72-.48l.41-1.11a5.18,5.18,0,0,0-.54-3.07l-.1-.28.1,0,.36,0,.37.74c.37-1.7-.17-3.22-.5-4.77l.59.28A.5.5,0,0,0,128.79,115.3Z"/><path class="cls-2" d="M135.84,109.78c-.5,0-.56-.26-.65-.68-.22-1-.55-1.89-.84-2.83l-.95-1.6c0-.09,0-.53,0-1l1-.24c.28.94.52,1.9.85,2.82s.73,1.76,1.1,2.63l0,.38c-.12.17-.25.34-.37.52Z"/><path class="cls-2" d="M134.57,118.22c.21.86.43,1.72.64,2.58l.06.65.2,0-.28-.58,0-.84h.52l.35.58,0,.07-.05.06-.48,2.2-.42-.07-.56-.61c-.09-1.34-.18-2.67-.26-4Z"/><path class="cls-2" d="M135.59,122.9l.21.47-.61,1.23c-.32-.66-.6-1.19,0-1.77Z"/><path class="cls-2" d="M136.33,118.18l0-.1c0-.66-.09-1.32-.13-2l.44.08h0c.09.42.18.83.25,1.25S136.85,118.16,136.33,118.18Z"/><path class="cls-2" d="M137.63,122.1v-1.54c.68.54.31,1.06.43,1.51Z"/><path class="cls-2" d="M128.82,123.71l.61-1.17h0l.31.3v0c0,.37,0,.74-.08,1.16Z"/><path class="cls-2" d="M143.05,113.27l-1.11.1v-.6l.09-.06,1-.3,0,0v.9Z"/><path class="cls-2" d="M138,123.3l0,.83h-.28c0-.28-.05-.55-.07-.83Z"/><path class="cls-2" d="M132.32,130.11l.25-.35Z"/><path class="cls-2" d="M134,131.26l-.29.28A3.83,3.83,0,0,0,134,131.26Z"/><path class="cls-2" d="M135.22,132.25l.26-.15v.27l0,.07-.29-.17Z"/><path class="cls-2" d="M162.71,109.26c.18-.2.33-.48.54-.56s.45.17.56.34a5.41,5.41,0,0,1,.37,1l-1.46-.83Z"/><path class="cls-2" d="M145.92,108.93a.76.76,0,0,0-.26,0l0-.11v-.11l-.32-.41,0-.56h0l.31-.29H146l.24,1.16v0Z"/><path class="cls-2" d="M154,103.16h-2.66l0-.4,2.76.28Z"/><path class="cls-2" d="M154.06,103.42a2,2,0,0,1-.05-.26l.12-.12,1.66.14v.23h-1.72Z"/><path class="cls-2" d="M152.83,103.87v0c.1-.35.29-.55.68-.39l-.09.54Z"/><path class="cls-2" d="M146.48,108.6l.09-.68.25,0c-.08.24-.16.48-.25.72Z"/><path class="cls-2" d="M144.48,110.15l.3-.37c.05.27.16.58-.32.48Z"/><path class="cls-2" d="M146.22,108.64l.26,0,.09.09-.18.33-.16-.4Z"/><path class="cls-2" d="M165.65,112.14l-.49-.36Z"/><path class="cls-2" d="M121.05,151c0,.37-.07.75-.12,1.25-.24-.08-.46-.1-.52-.2s0-.34,0-.52c.31-.18.39-.36.07-.63-.1-.09,0-.34-.07-.52.47-1.13.48-2.4-.09-2.58l-.35,1-.71-.21-.3.31.29.87c-.84,1-.77,1.31.36,1.78a2.71,2.71,0,0,1,.35.24c-.15.1-.34.33-.44.3a8.87,8.87,0,0,1-1.11-.56l-.61,0h0l-.29-2.19v0c0-.73,0-1.46,0-2.2.17-.87.35-1.75.53-2.62l0,0c.28.83.57,1.65.87,2.52.73.23.42-.63.76-1l.39.47-.11,0-.08.57h.14c0-.18,0-.37.05-.56h.58l.3.87c0,.79,0,1.58,0,2.37Z"/><path class="cls-2" d="M121.61,147.13l.77.67a13.25,13.25,0,0,1,.39,1.46c0,.3-.11.59,0,.94a9.22,9.22,0,0,1,.25,1.67l-.63-1.14-.51-1.21c-.12-.63-.24-1.26-.37-1.9Z"/><path class="cls-2" d="M129.67,162.07l-.63.57-.6-2-1.1-.12c.41-.45,1.52,0,1.19-1.11.51-.5.75-.26.86.32A1.68,1.68,0,0,0,129.67,162.07Z"/><path class="cls-2" d="M118.06,144.59c-.88-1.21-.88-1.21-.59-2.16,1,.74,1.06,1,.63,2.18Z"/><path class="cls-2" d="M127.74,157.9l-.74-1.39c.64-.07.63-.56.66-1,.46.1.5.94,1.17.66l0,.34-.64.43c.05.29.1.61.15.94Z"/><path class="cls-2" d="M125,147.81l.33-1.42,1-.59a13.62,13.62,0,0,0-.78,1.58,2.66,2.66,0,0,0,0,.94c0,.12-.08.24-.11.36Z"/><path class="cls-2" d="M121.12,144.6a1.31,1.31,0,0,0-.38-.06c-.24.06-.46.16-.7.21,0,0-.15-.31-.12-.33a1.37,1.37,0,0,1,.65-.36,3.62,3.62,0,0,1,1,.15Z"/><path class="cls-2" d="M124.92,145.19c.28-.44.57-.82,1.38-.16l-1.36.17Z"/><path class="cls-2" d="M121.84,144.05c.4-.49.85-.32,1.31.11l-1.31-.11Z"/><path class="cls-2" d="M117.5,149.39l.29,2.19Z"/><path class="cls-2" d="M121.26,145.22l.6,0c0,.43,0,.83-.58.86h0Z"/><path class="cls-2" d="M121.28,146.06l-.58.58h0c0-.37-.11-.89.58-.59Z"/><path class="cls-2" d="M117.79,151.57l.61,0-.42.6C117.91,152,117.85,151.77,117.79,151.57Z"/><path class="cls-2" d="M124.06,144.4l-.1,0a.25.25,0,0,1,0-.12s.07,0,.11,0Z"/><path class="cls-2" d="M121.79,146.65l-.19.36Z"/><path class="cls-2" d="M159,125.77l-.48-.82-.33.53c-.11-.43-.2-.77-.29-1.1l.08-.23-.2.1c-.15-.17-.47-.44-.43-.51.51-.85-.21-1.46-.41-2.16l0-.07,0-.06c.08-.09.2-.26.24-.24a.63.63,0,0,1,.31.27c.77,1.63,1.52,3.26,2.28,4.89Z"/><path class="cls-2" d="M147.55,119.23c-.25.54-.49,1.08-.73,1.61v0l-.3.3h0l-.3.3h0L146,122h0l-.59.3h0l-.91.55-1.67,1,1-1.22a2.77,2.77,0,0,0,1.91-2.48l.85-.39.3-.34h0l.52-.34Z"/><path class="cls-2" d="M148.51,117.32c-.33.63-.65,1.27-1,1.91l-.23-.21c0-.18.05-.36.07-.54v0c.3-.15.38-.32,0-.53l.25-.92.32,0Z"/><path class="cls-2" d="M155.23,119.94l-1-1,.22-.22a1.08,1.08,0,0,1,.76,1.28Z"/><path class="cls-2" d="M142.8,124l.24.61v0c-.1.2-.2.4-.31.6h0l-.31,0-.24-.26,0-.31h0l.31-.31Z"/><path class="cls-2" d="M155.21,120l.6-.18.05.86c-.7.21-.57-.33-.63-.7Z"/><path class="cls-2" d="M152.07,116.42c.37.1.73.21.71.76-.56.06-.69-.3-.82-.65Z"/><path class="cls-2" d="M153.41,118l-.14-.43.27.29Z"/><path class="cls-2" d="M142.44,125.15l.31,0c-.06.13-.11.27-.17.41l-.21-.23A1.87,1.87,0,0,1,142.44,125.15Z"/><path class="cls-2" d="M154.23,118.9l-.1-.31.31.09Z"/><path class="cls-2" d="M153.54,117.85l.06.28-.19-.14Z"/><path class="cls-2" d="M152,116.53l-.06-.27.17.16Z"/><path class="cls-2" d="M142.1,125.69l.27-.32.21.23-.31.27Z"/><path class="cls-2" d="M142.27,125.87l-.31,0c0-.07.09-.14.14-.21Z"/><path class="cls-2" d="M117.82,84.81l.67,0,0,.26-.69-.24Z"/><path class="cls-2" d="M117.76,84.88l-.11-.17.17.1Z"/><path class="cls-2" d="M108.53,167.79c.16-.11.4-.19.45-.34a2,2,0,0,0,0-.7l.3,0c.09.5.17,1,.27,1.62l-1,.07Z"/><path class="cls-2" d="M110.17,171.33c.07.51.13,1,.2,1.54l-.08.08-.35.08,0,0c-.11-.58-.22-1.17-.34-1.75Z"/><path class="cls-2" d="M110,175.92l.78-.66c0,.65.57,1.27-.54,1.25Z"/><path class="cls-2" d="M108.28,164.43v-1h.15c0,.31,0,.61.08.91Z"/><path class="cls-2" d="M107.06,127.78l.3-2.79a3.51,3.51,0,0,1,1.63-2.75l-.48,2.65v0l-.28.78-.06.74c-.09.32-.17.64-.25,1l0,0c-.11.23-.21.46-.31.69h0a.36.36,0,0,0-.27,0Z"/><path class="cls-2" d="M102.41,141.12a.73.73,0,0,0-.25,0l-.1-.1.36-1.24Z"/><path class="cls-2" d="M95.75,116.17a2.81,2.81,0,0,1,0-.29l.57-.28h.31c0,.65.43.63.87.61l-.71,1.42-.46.31,0,0-.31.6h0l-.44,0-.7-.31,0-.32v0l.3-.6h0l.3-.3v0C95.54,116.76,95.64,116.46,95.75,116.17Z"/><path class="cls-2" d="M102.7,109.42l.29-.5c.58.34,1.05,0,1.54-.26.16.92-.64,1.24-1.13,1.69a2.6,2.6,0,0,1-2.47.64h0l0-.7,0,0h1l.73-.36C102.76,109.8,103.19,109.62,102.7,109.42Z"/><path class="cls-2" d="M97.48,114.73a.5.5,0,0,1,.06-.24l.55,0v.11Z"/><path class="cls-2" d="M122.93,116.74a.22.22,0,0,0-.22,0h0l-.32-.31c-.08-.14-.16-.28-.25-.42s-.21-.49-.31-.74v0l.06-.54C122.29,115.42,123.14,115.8,122.93,116.74Z"/><path class="cls-2" d="M118.89,109l.54-.06c.17.32.33.64.49,1l-.57.73L119,110l0-.25v0Z"/><path class="cls-2" d="M108.13,105.72l1.16-.71.09.32v.41h-1.25Z"/><path class="cls-2" d="M115,105.37l.27.56c-.08,0-.23.08-.24.06a4.73,4.73,0,0,1-.2-.47Z"/><path class="cls-2" d="M114.81,105.52l-.07-.49.24.34Z"/><path class="cls-2" d="M115.48,106.88l.19.12-.2-.11Z"/><path class="cls-2" d="M115.47,106.89l-.11-.14.12.13Z"/><path class="cls-2" d="M109.38,105.74v0Z"/><path class="cls-2" d="M100,147.13c.09-.32.19-.64.28-1l.3.08-.35,1.08Z"/><path class="cls-2" d="M100.23,147.33l-.25.44-.17-.07.19-.57Z"/><path class="cls-2" d="M102.16,141.16l-.16.18.06-.28Z"/><path class="cls-2" d="M162.3,132.68l-.38-.57C162.2,132.2,162.58,132.23,162.3,132.68Z"/><path class="cls-2" d="M166.28,141.38l.35.46-.18.11-.29-.46Z"/><path class="cls-2" d="M165.66,139.66v.6h0l-.34-.47a.15.15,0,0,1,.12-.13.4.4,0,0,1,.24,0Z"/><path class="cls-2" d="M166.25,140.82l0,.56-.12.11c-.33-.27-.31-.5.1-.67Z"/><path class="cls-2" d="M165.66,140.26l.11.14s-.06,0-.08,0a.53.53,0,0,1,0-.12Z"/><path class="cls-2" d="M126.79,116.45l-.5.76q0-3.13,0-6.27h.47a3.61,3.61,0,0,0,.32,2.56l.3,0,.27.7c-.55,0-.87.2-.69.83a2.41,2.41,0,0,1,0,.54Z"/><path class="cls-2" d="M105.29,148.68l.61-.58.25-.31h.27c.11,1.37.22,2.74.34,4.16-.12,0-.22-.06-.22-.09-.12-.58-.27-1.16-.34-1.75S105,149.55,105.29,148.68Z"/><path class="cls-2" d="M106.68,158.51l-.23-2.75.91,1.63C107.31,157.88,107.52,158.51,106.68,158.51Z"/><path class="cls-2" d="M107.36,157.38l0-.3Z"/><path class="cls-2" d="M151,76.55l.29-.69.2.06-.24.86Z"/><path class="cls-2" d="M151.73,75.26l-.12.24-.09-.17.23,0Z"/><path class="cls-2" d="M123.56,101.91c.28-.65.16-1.53,1.08-1.78-.21.65-.41,1.31-.62,2Z"/><path class="cls-2" d="M125.34,101.09l-.08.11.08-.11Z"/><path class="cls-2" d="M139.81,151.57c-.58-.66-.36-1.39-.21-2.18l.75.92c-.06.24-.14.61-.23,1,0,.09,0,.19,0,.29Z"/><path class="cls-2" d="M139.19,147l-.13-.5,2.55-.55.07.27-2.12.69Z"/><path class="cls-2" d="M130.27,154.76l.91.59c-.57,0-1,.09-.86.85,0,.52-.23.66-.67.32,0-.49,0-1,0-1.46l.29-.29Z"/><path class="cls-2" d="M146.27,147.79h.18c.17.53-.31,1.33.66,1.53a1.64,1.64,0,0,1,0,.22,1.23,1.23,0,0,0-.27,0l-.58.26Z"/><path class="cls-2" d="M137.55,154.19,137,154l.54-.92Z"/><path class="cls-2" d="M139.81,151.57h.38c0,.19,0,.38,0,.57s0,.59.05.88l-.41,0Z"/><path class="cls-2" d="M147.78,151.27c0,.35-.06.69-.1,1l-.24-.19c0-.31,0-.62,0-.93Z"/><path class="cls-2" d="M131.62,155.36c.4-.54.83-.33,1.25,0Z"/><path class="cls-2" d="M138.47,150.76l.08.09a.81.81,0,0,1-.22.07s-.05,0-.08-.08Z"/><path class="cls-2" d="M126.2,163.76v-1.39c.63-.17.81.48.77.72-.11.76.33,1,.86,1.25l.52-.65c.13.44.2.69.28.95s-.11.72-.19,1.27l-.92-.77-.43,1c-.38-.62-.78-1.24-1.12-1.88,0-.1.16-.34.24-.52a.41.41,0,0,0,.07.11s0,0,.07,0Z"/><path class="cls-2" d="M133.5,162.87c-.08-.44-.17-.87-.25-1.3l.73,0C133.82,162,134.32,162.66,133.5,162.87Z"/><path class="cls-2" d="M135.12,160.26l.67.59a1.93,1.93,0,0,1-.15,1.75C135.42,161.63,135.27,160.94,135.12,160.26Z"/><path class="cls-2" d="M128.77,164.63c.06-.29.15-.48.53-.33a1.77,1.77,0,0,0,.65,0l-.16.75Z"/><path class="cls-2" d="M129.79,165.05c.05-.25.1-.5.16-.75l.29-.49.14.51,0,.6-.26,1.05Z"/><path class="cls-2" d="M140.4,161.33c.68.4.23,1,.31,1.53Z"/><path class="cls-2" d="M132.08,163.13c0-.13-.05-.25-.07-.37l.29.1.15.24Z"/><path class="cls-2" d="M135.77,160.86l.24-.25Z"/><path class="cls-2" d="M148.25,135.05l5.34.44,0,.31-5.32-.13C148.24,135.46,148.25,135.26,148.25,135.05Z"/><path class="cls-2" d="M157.27,136.18a3.41,3.41,0,0,1-1,.27,18.71,18.71,0,0,1-2-.35,1.31,1.31,0,0,1,2-.22,3.52,3.52,0,0,0,1,.3Z"/><path class="cls-2" d="M147.11,135.59,145,136c.54-1,1.39-.42,2.08-.6A1,1,0,0,0,147.11,135.59Z"/><path class="cls-2" d="M147.11,135.59a1,1,0,0,1,0-.24l1.14-.3c0,.21,0,.41,0,.62Z"/><path class="cls-2" d="M158,138.15l.16-.94.24,0-.18,1.08A1.24,1.24,0,0,1,158,138.15Z"/><path class="cls-2" d="M130.3,171.91l-.08-.52,4.12-.1a11.83,11.83,0,0,1-1.79.54A18.73,18.73,0,0,1,130.3,171.91Z"/><path class="cls-2" d="M123.61,163.78v-.37l1.25.19Z"/><path class="cls-2" d="M124.22,164.92c-.69,0-.8-.22-.62-.89Z"/><path class="cls-2" d="M126.23,161.47l.24.08-.14.35a.87.87,0,0,1-.17-.22C126.14,161.62,126.2,161.54,126.23,161.47Z"/><path class="cls-2" d="M129,142.88a3,3,0,0,1,2.3-.44h1c.62,0,1.37.58,1.8-.38a4.39,4.39,0,0,0,3.47-.36l1.44-.05c.29,0,.66,0,.61.45-.51.07-1,.1-1.53.21A37.13,37.13,0,0,1,129,142.88Z"/><path class="cls-2" d="M127.35,142.28l.59.28Z"/><path class="cls-2" d="M143.17,139.77c.51.16,1.2.12,1.16,1.18L143,140Z"/><path class="cls-2" d="M140.41,141.4l.71-.27.06.22-.75.08Z"/><path class="cls-2" d="M140.43,141.43l-.46.26-.08-.2.52-.09Z"/><path class="cls-2" d="M138.09,138.81l.75-.31v.31h-.75Z"/><path class="cls-2" d="M141.66,141a1.21,1.21,0,0,1,.25-.08s.07.06.1.1l-.26.08S141.69,141,141.66,141Z"/><path class="cls-2" d="M131.51,157.31c-.16.07-.28.17-.34.14s-.16-.18-.24-.28c.09-.07.21-.2.28-.19S131.38,157.15,131.51,157.31Z"/><path class="cls-2" d="M135.21,150.71l-.64-1.16.06-.58.24,0C135,149.56,135.09,150.14,135.21,150.71Z"/><path class="cls-2" d="M135.34,150.91h0a.48.48,0,0,0-.15-.22Z"/><path class="cls-2" d="M137.23,135.89l.88-.11.73.22.21.27-.36.79h-1.47Z"/><path class="cls-2" d="M136.66,134.45c-.6,0-.81-.34-.87-.87A.81.81,0,0,1,136.66,134.45Z"/><path class="cls-2" d="M135.49,133.28l-.61.05v-.73l.31-.33.29.17Z"/><path class="cls-2" d="M137,134.74l-.3-.3Z"/><path class="cls-2" d="M137.23,134.74h-.29A.57.57,0,0,1,137.23,134.74Z"/><path class="cls-2" d="M138.84,136l.32,0-.11.3Z"/><path class="cls-2" d="M139,137.51l-.3-.46Z"/><path class="cls-2" d="M135.78,133.57l-.27-.28Z"/><path class="cls-2" d="M132.89,175l-.9.36Z"/><path class="cls-2" d="M132,162.78l-.39-.18c0-.3.05-.59.08-.88l.6-.14,0,.94Z"/><path class="cls-2" d="M131.33,161.53l-.18-.69,0,0,.37.49Z"/><path class="cls-2" d="M131.15,160.84l-.19-.09.17.11Z"/><path class="cls-2" d="M131.87,161.42l-.15.31-.39-.2.17-.18Z"/><path class="cls-2" d="M147.09,149.54a1.64,1.64,0,0,0,0-.22l.72.21C147.59,150.05,147.34,150,147.09,149.54Z"/><path class="cls-2" d="M129.11,95.26h3.53v.12c-1.23.26-2.45.51-3.67.78a6.25,6.25,0,0,1-2.21.12c-.91-.12-1.91.49-2.87.76-.38.11-.76.19-1.15.28a1.6,1.6,0,0,1,1.56-1.21C125.9,95.9,127.5,95.55,129.11,95.26Z"/><path class="cls-2" d="M136.08,92.09,137,93c-.09,0-.22.07-.27,0a5.24,5.24,0,0,0-4.1-.67l-.3-.26.47-.8-2.35-.11V91l3.9-.62-.57.71-.73.19c.44.71,1,.42,1.56.45Z"/><path class="cls-2" d="M126.2,97.39l0,.47c-1.06-.23-1.48.83-2.28,1.11-.32.11-.63.25-.94.38l.27-1.17c.34-.1.78-.1,1-.32A1.83,1.83,0,0,1,126.2,97.39Z"/><path class="cls-2" d="M124.7,92.14c1.23-.7,2-.8,4.84-.66Z"/><path class="cls-2" d="M132.28,92.08l.3.26-4.06.92c.15-.19.26-.47.46-.56A6.58,6.58,0,0,1,132.28,92.08Z"/><path class="cls-2" d="M128.53,93.25c0,.3,0,.59,0,.89-.52-.11-.78-.89-1.46-.58v-.23Z"/><path class="cls-2" d="M125.61,94l-1.2.46-.12-.3,1.16-.48Z"/><path class="cls-2" d="M127.08,93.33v.23l-1,.35-.09-.27Z"/><path class="cls-2" d="M122.72,99.63c.28.38,0,.51-.3.59Z"/><path class="cls-2" d="M123,99.33l-.31.31Z"/><path class="cls-2" d="M134.61,89.48l.29.3Z"/><path class="cls-2" d="M136.36,95.87c-.55.32-1-.09-1.42-.28a1.77,1.77,0,0,0-1.65-.89,6.84,6.84,0,0,1-1.31-.29l.62-.08.13-.18c.21-.79.76-.37,1.11-.22.87.34,1.7.78,2.54,1.18l0,.34Z"/><path class="cls-2" d="M136.35,95.45l0-.34.84.22.73.38a1.07,1.07,0,0,1-.18.19Z"/><path class="cls-2" d="M136.93,93c0,.2,0,.39,0,.58Z"/><path class="cls-2" d="M133.16,96.14l.3.6c-.63-.12-1.48.28-1.82-.89Z"/><path class="cls-2" d="M133.17,103.14l-.31-.9a1.32,1.32,0,0,1,.28,0Z"/><path class="cls-2" d="M133.46,103.72l-.31-.61Z"/><path class="cls-2" d="M133.14,102.26a1.32,1.32,0,0,0-.28,0l-.14-.57C133.33,101.54,133.15,102,133.14,102.26Z"/><path class="cls-2" d="M132,102l-.3.3Z"/><path class="cls-2" d="M132.39,101.65,132,102Z"/><path class="cls-2" d="M136.39,97.74l1.11.08-.4.74-.73-.17Z"/><path class="cls-2" d="M133.75,88.63l-.56-.32.56-.31,1.54.54,1.45.62c.08-.34.14-.59.21-.85.75.27.11.91.28,1.52l-1.36-.45-1.54-.51,0,0Z"/><path class="cls-2" d="M125.92,84.86l.59-.31C126.41,84.84,126.31,85.13,125.92,84.86Z"/><path class="cls-2" d="M133.45,86.57l.31.61Z"/><path class="cls-2" d="M133.73,87.16l.22.09-.17.15A.47.47,0,0,0,133.73,87.16Z"/><path class="cls-2" d="M131.13,106.31c.15.71.29,1.42.44,2.14l-.39.06c-.1-.74-.19-1.47-.28-2.21Z"/><path class="cls-2" d="M132,104.29l.11.81-.26.25c-.08-.35-.17-.7-.26-1Z"/><path class="cls-2" d="M136.94,92.12l-.35-.66Z"/><path class="cls-2" d="M134.56,91.76l.05-.54,1.47.87Z"/><path class="cls-2" d="M131.16,139.73l-1.76.25c-.13-.51.14-.68.58-.7l1.09.18A.62.62,0,0,0,131.16,139.73Z"/><path class="cls-2" d="M128.83,140.82l-.3.6Z"/><path class="cls-2" d="M128.39,139.22a.78.78,0,0,1,.24-.09c.05,0,.09.1.13.15a.47.47,0,0,1-.22.07S128.44,139.27,128.39,139.22Z"/><path class="cls-2" d="M129.12,140.84h0Z"/><path class="cls-2" d="M135.75,137.91l.31,1a2.39,2.39,0,0,0-3.1-.18s-.09,0-.13,0h-.51l-1.53-.11c0-.15,0-.3.05-.45l2-.54,1.11-.27.29-.07h.38C134.65,138.21,135.32,137.82,135.75,137.91Z"/><path class="cls-2" d="M132.63,140.3h-.36c-.29-.23-.53-.46,0-.73l1.21.28v.07Z"/><path class="cls-2" d="M133.16,135.52c-.29.23-.33.79-.89.68l-.12-.88,1-.2C133.19,135.25,133.17,135.39,133.16,135.52Z"/><path class="cls-2" d="M133.91,135.6l.12.59h0c-.11-.18-.23-.36-.35-.54A.78.78,0,0,1,133.91,135.6Z"/><path class="cls-2" d="M132.34,112.37c-.06-1.28-.11-2.55-.17-3.94l.7-.27c-.12-.47-.24-1-.42-1.68l1,.42c.18.55.37,1.1.55,1.64l0,1.59L133,109c-.06.91-.28,1.62.17,2.33l.09,1.13Z"/><path class="cls-2" d="M132.34,112.37l.89,0a11.88,11.88,0,0,1-.58,1.43,2.12,2.12,0,0,0,.14,2.49l-.62.52c-.06-.09-.15-.15-.15-.22-.08-1.33-.15-2.65-.22-4H132C132.4,113,132.26,112.53,132.34,112.37Z"/><path class="cls-2" d="M132.82,117.66v2.74h-.68a8.09,8.09,0,0,0-.06-1.56c-.13-.58.23-.86.52-1.21Z"/><path class="cls-2" d="M129.11,105v2.36l.58-.76-.27,1.75H129a3.65,3.65,0,0,1-.28-3A2.14,2.14,0,0,1,129.11,105Z"/><path class="cls-2" d="M129.74,116.18l.51-.28c.11.76.23,1.51.35,2.27l-.09.08Z"/><path class="cls-2" d="M129,108.35h.38c0,1.16,0,2.32,0,3.48h-.29Z"/><path class="cls-2" d="M129.68,106.61c0-.65,0-1.32.6-1.76A1.88,1.88,0,0,1,129.68,106.61Z"/><path class="cls-2" d="M130.34,110l.25,1.19-.28.08-.36-1.17Z"/><path class="cls-2" d="M133.19,123.14l-.7.92.12-1.21Z"/><path class="cls-2" d="M132.06,105.1l.54,1.15-.34.14c-.15-.35-.3-.7-.46-1Z"/><path class="cls-2" d="M132,112.66h-.15l-.15-1.48.3,0Z"/><path class="cls-2" d="M131.64,109.06v1.19h-.15l-.06-1.2Z"/><path class="cls-2" d="M132.82,117.66l-.22,0V117h.16Z"/><path class="cls-2" d="M134,107.48l-.38-.6.36-.27Z"/><path class="cls-2" d="M130.71,119.19c-.06-.32-.13-.63-.2-.94l.09-.08.35.81Z"/><path class="cls-2" d="M134,117h.32c0,.17-.05.33-.08.49h-.14Z"/><path class="cls-2" d="M131,119l.09.58-.33-.37Z"/><path class="cls-2" d="M133.48,123.44l-.32-.32Z"/><path class="cls-2" d="M129.71,122.84l-.31-.3Z"/><path class="cls-2" d="M134.57,118.22h-.22l.11-.18Z"/><path class="cls-2" d="M118.89,109l.06.81-1.46-2c.18,0,.45-.09.52,0C118.33,108.15,118.6,108.58,118.89,109Z"/><path class="cls-2" d="M116.41,106.54a.25.25,0,0,0-.11-.23c0-.25,0-.61.42-.37.16.42.33.83.49,1.25l-.56-.31Z"/><path class="cls-2" d="M120.27,111.84l1,1.11C120.62,113,120.2,112.82,120.27,111.84Z"/><path class="cls-2" d="M119.41,111.33c.14-.13.24-.28.33-.29s.2.15.3.23c-.08.08-.15.22-.23.23S119.58,111.41,119.41,111.33Z"/><path class="cls-2" d="M117.2,107.18c.37.07.65.17.3.59Z"/><path class="cls-2" d="M118.94,109.79l0,.25A.53.53,0,0,1,118.94,109.79Z"/><path class="cls-2" d="M134,108.54c0-.36,0-.72,0-1.08a5.58,5.58,0,0,1,.34.85,15.13,15.13,0,0,1,.75,4.11h-.54c-.19-.76-.37-1.53-.56-2.29Z"/><path class="cls-2" d="M135.72,116.19l-.24-1.77.75.11.44,1.64-.44-.08c0,.67.09,1.33.13,2C136.14,117.45,135.93,116.82,135.72,116.19Z"/><path class="cls-2" d="M134.58,112.42h.54l.09,1.15c-.1.31-.19.62-.29.93C134.81,113.81,134.69,113.11,134.58,112.42Z"/><path class="cls-2" d="M135.77,110.36v2.11c-.25-.71-.68-1.42,0-2.09Z"/><path class="cls-2" d="M135.5,114.45l-.31-.9Z"/><path class="cls-2" d="M135.83,113.1l.09-.09s.07.07.07.1-.05.06-.08.09Z"/><path class="cls-2" d="M127,115.63c.21.58.42,1.16.61,1.74s.3,1.12.45,1.67l-.36,0c-.3-.88-.6-1.76-.91-2.64Z"/><path class="cls-2" d="M145.06,108.9l-.88.61a1.77,1.77,0,0,1,.6-1.74l.57,0,0,.56-.28.61Z"/><path class="cls-2" d="M145.34,107.76v-.31l.3,0Z"/><path class="cls-2" d="M145.06,109.23v-.31l.6-.2v.11l0,.11Z"/><path class="cls-2" d="M144.77,109.8l.3-.45Z"/><path class="cls-2" d="M121.05,149.88l.83-.36.51,1.21-1.34.3Z"/><path class="cls-2" d="M124.14,153.63l0,.83-1.27-1,.13-.17.2-.53.31-.29Z"/><path class="cls-2" d="M124.74,155.05l.89,1.17C125.18,155.94,124.54,155.81,124.74,155.05Z"/><path class="cls-2" d="M123.54,152.47l-.31.29-.21-.89.81.24Z"/><path class="cls-2" d="M126.23,156.16l.71.35c-.45-.06-1,.3-1.33-.3Z"/><path class="cls-2" d="M122.9,153.46l-.64-.25.06-.18.71.26Z"/><path class="cls-2" d="M124.49,154.77l.27.29Z"/><path class="cls-2" d="M120.11,151.57h0Z"/><path class="cls-2" d="M127.62,149.92l.53.65L126,150.4v-.79l1.16.5.47-.5Z"/><path class="cls-2" d="M124.16,145.74c.1.17.28.34.29.52,0,.51,0,1,0,1.54l-.54.69a2.65,2.65,0,0,1-.47-.71c-.07-.28-.5-.69.13-.88l.32.59h.24Z"/><path class="cls-2" d="M125.65,153l-1.48-.84c.9-.42,1.24-.37,1.82.25Z"/><path class="cls-2" d="M127.81,153l-.41.09-1.15-.66C127,152,127.31,152.79,127.81,153Z"/><path class="cls-2" d="M128,155l.83-.53.35.55-.06.33Z"/><path class="cls-2" d="M128.28,153.56l-.2-.54h1.15l-.69.62Z"/><path class="cls-2" d="M122.38,147.07l-.08.07s-.07-.06-.06-.09,0-.05.07-.08Z"/><path class="cls-2" d="M120.13,146.64l-.06.56h-.14l.08-.57Z"/><path class="cls-2" d="M157.79,124.25l.2-.1-.08.23Z"/><path class="cls-2" d="M110.37,174l.51,1C110.14,175,110.17,174.63,110.37,174Z"/><path class="cls-2" d="M102,110.35l.73-.36Z"/><path class="cls-2" d="M100.94,110.35l.33-.28v.15l0,.14Z"/><path class="cls-2" d="M97.19,115l.3-.31Z"/><path class="cls-2" d="M96.9,115.31V115h.3Z"/><path class="cls-2" d="M96.61,115.6v-.3h.3Z"/><path class="cls-2" d="M165.68,139.67a.4.4,0,0,0-.24,0c0-.15,0-.31,0-.47h.17Z"/><path class="cls-2" d="M162.89,133.76l.19.51-.18.07c-.06-.14-.12-.28-.19-.42Z"/><path class="cls-2" d="M135.2,136.9l2,.15a5.88,5.88,0,0,1-.51.36c-.32.18-.65.33-1,.5-.43-.09-1.1.3-1.12-.57Z"/><path class="cls-2" d="M136.94,139.49l-.58,0-.88-.14.59-.45a5.34,5.34,0,0,1,.8.13C136.93,139.08,136.92,139.34,136.94,139.49Z"/><path class="cls-2" d="M136.81,140.82h.43v.61Z"/><path class="cls-2" d="M137.53,141.72l-.31-.31Z"/><path class="cls-2" d="M137.24,135.92c-.49.08-.82-.06-.89-.6Z"/><path class="cls-2" d="M128.45,111.79c-.51-1.88-.51-1.88,0-2.41Z"/><path class="cls-2" d="M129.11,111.8a7.32,7.32,0,0,1,0,1.24c0,.19-.29.35-.45.53C128.8,113,129,112.39,129.11,111.8Z"/><path class="cls-2" d="M128,115l-.31-.76Z"/><path class="cls-2" d="M132.85,137.69l-1.29-.13c.57-.29.57-.29,2.4-.14Z"/><path class="cls-2" d="M134.25,137.35h0Z"/><path class="cls-2" d="M133.54,139.54l2-.16-2.06.53v-.08Z"/><path class="cls-2" d="M134,136.19l.21.33c-.06-.11-.12-.23-.19-.34Z"/><path class="cls-2" d="M127.73,155.07l-.07.43-.44-.74Z"/></g></g></svg>