<svg xmlns="http://www.w3.org/2000/svg" viewBox="0 0 136.93 110.38"><defs><style>.cls-1{fill:#15162b;}</style></defs><title>Fichier 8</title><g id="Calque_2" data-name="Calque 2"><g id="A4"><rect class="cls-1" x="111.7" y="85.19" width="8.59" height="0.88"/><rect class="cls-1" x="15.85" y="85.19" width="8.59" height="0.88"/><path class="cls-1" d="M32.06,81.45h4.35a3.1,3.1,0,0,1,1.93.56,2.21,2.21,0,0,1,.39,2.82,2.07,2.07,0,0,1-.94.74v0a2,2,0,0,1,1.25.78,2.64,2.64,0,0,1,.43,1.52,2.68,2.68,0,0,1-.19,1,2.05,2.05,0,0,1-.59.79,3,3,0,0,1-1,.52,5,5,0,0,1-1.49.2H32.06Zm1.57,3.75h2.56a1.4,1.4,0,0,0,.93-.32A1.11,1.11,0,0,0,37.5,84a1.14,1.14,0,0,0-.34-.95,1.46,1.46,0,0,0-1-.28H33.63Zm0,3.92H36.4a1.57,1.57,0,0,0,1.11-.37,1.37,1.37,0,0,0,.39-1,1.32,1.32,0,0,0-.39-1,1.66,1.66,0,0,0-1.11-.35H33.63Z"/><path class="cls-1" d="M47.72,81.24a4.09,4.09,0,0,1,3.14,1.39,4.56,4.56,0,0,1,.85,1.49,5.79,5.79,0,0,1,0,3.62,4.46,4.46,0,0,1-.85,1.49,4,4,0,0,1-1.35,1,4.54,4.54,0,0,1-3.59,0,4,4,0,0,1-1.35-1,4.44,4.44,0,0,1-.84-1.49,5.61,5.61,0,0,1,0-3.62,4.54,4.54,0,0,1,.84-1.49,4.13,4.13,0,0,1,1.35-1A4.17,4.17,0,0,1,47.72,81.24Zm0,1.28a2.45,2.45,0,0,0-1.24.29,2.39,2.39,0,0,0-.84.77,3.26,3.26,0,0,0-.48,1.09,5,5,0,0,0,0,2.51,3.26,3.26,0,0,0,.48,1.09,2.3,2.3,0,0,0,.84.77A2.77,2.77,0,0,0,49,89a2.33,2.33,0,0,0,.85-.77,3.72,3.72,0,0,0,.48-1.09,5.33,5.33,0,0,0,0-2.51,3.72,3.72,0,0,0-.48-1.09,2.41,2.41,0,0,0-2.08-1.06Z"/><path class="cls-1" d="M56.39,81.45h1.66L62.13,88h0V81.45h1.49v9H62l-4.07-6.58h0V90.4H56.39Z"/><path class="cls-1" d="M68.53,81.45h3.7A4.22,4.22,0,0,1,74,81.8a3.47,3.47,0,0,1,1.23,1A4.21,4.21,0,0,1,76,84.18a6.73,6.73,0,0,1,0,3.49,4.21,4.21,0,0,1-.71,1.42,3.47,3.47,0,0,1-1.23,1,4.22,4.22,0,0,1-1.78.35h-3.7Zm1.56,7.67h1.54a4,4,0,0,0,1.5-.24A2.21,2.21,0,0,0,74,88.2a2.49,2.49,0,0,0,.45-1,6.1,6.1,0,0,0,.12-1.25,6.2,6.2,0,0,0-.12-1.26,2.49,2.49,0,0,0-.45-1,2.11,2.11,0,0,0-.91-.67,3.79,3.79,0,0,0-1.5-.25H70.09Z"/><path class="cls-1" d="M80.6,81.45h1.56v9H80.6Z"/><path class="cls-1" d="M87.1,81.45h6.44v1.36H88.67v2.34h4.51v1.28H88.67V89h5V90.4H87.1Z"/><path class="cls-1" d="M97.92,81.45h1.57v5.21c0,.31,0,.61,0,.92a2,2,0,0,0,.25.83,1.61,1.61,0,0,0,.63.61,2.39,2.39,0,0,0,1.18.24,2.46,2.46,0,0,0,1.19-.24,1.65,1.65,0,0,0,.62-.61,2,2,0,0,0,.25-.83c0-.31,0-.61,0-.92V81.45h1.56v5.73a4,4,0,0,1-.26,1.5,3,3,0,0,1-.75,1.07,3,3,0,0,1-1.16.65,5.46,5.46,0,0,1-3,0,3.07,3.07,0,0,1-1.16-.65,3,3,0,0,1-.75-1.07,4,4,0,0,1-.26-1.5Z"/><path class="cls-1" d="M30.34,33.31c1.81-3.25,3.65-7.19,2.22-9.06C30.93,22.1,29.68,21.65,25,21s-7.58-.91-8.06-1.22c-.95-.61-2.54-2-4.61-.82S10.3,22.08,10,23s-4.7,12.4-6,18.54C2.82,47.38.43,60.46.23,62.11s-.57,3.45.48,5.57C1.84,70,2.83,72.45,4.92,73.87c1.4,1,2.4,1.42,5.08.41,5-1.89,8.28-3.44,12.4-8.37,3.7-4.44,6.28-9,6.73-13.51.39-3.88-2.76-5.4-5-6.33s-4.44-1.88-4.44-1.88S28,37.61,30.34,33.31ZM20.84,51.5c.1.54-2,4.13-5.18,6.62s-7.51,5.95-9.36,5.7c-.36,0,1.19-10.88,2.8-12.45,1-.63,7.15-.66,8.12-.6S20.74,51,20.84,51.5Zm1.37-22.84a31.61,31.61,0,0,1-4.06,3.88c-1.5,1.24-3.38,3.22-4.63,3.19-.63,0,1.46-6.79,2.11-7.4.87-.8,4.4-.4,5.46-.39S22.45,28.18,22.21,28.66Z"/><path class="cls-1" d="M43.68,25.15c2.17-2.4,9.67-2.79,11.72-2.83s9.23.27,11.86.11a15.66,15.66,0,0,1,3.63-.11c.57.2,1.53.41,1.13,1.83a13,13,0,0,1-7.48,8.05c-5,2.08-7.22,2.67-16.19.53-.59,1.77-2.35,6.66-2.31,9,1.88.94,6.8.86,8.89.66s6.76-.63,8.42-1.05,4.23,0,4.52,1.18,1,3.56-7.14,7.57C53.48,53.6,51,53.53,44.42,53c-.81,1.68-2.16,7.07-1.84,9.56a4.93,4.93,0,0,0,3.81,4.07c1.22.12,7.84-1.59,10.46-2.46s5.39-2.2,5.56-1.39.17,2.84-5.66,7.51S49.5,75.42,46.16,75,36.84,69.13,34.8,63.67,26.3,44.36,43.68,25.15Z"/><path class="cls-1" d="M62.19,0c1.5-.47,13,6.32,14.09,8.71s-.46,3.16-.89,3.33a9,9,0,0,1-6.89-.23c-3.76-1.54-6.42-3.37-7.57-3.17s-4.42,2-7.87,5S44.87,19.19,43.88,19s-1.11-1-.49-1.77S55.3,2.23,62.19,0Z"/><path class="cls-1" d="M96.8,19.51c.56-.31,2.29,1.88,3,2.14s6.79.46,9.81,1c3.84.69,7.21,1.57,8.14,2.44s1.07,1.65.47,2.19a31.49,31.49,0,0,1-11.15,3.85c-5.49.8-6.19,1-6.3,1.71s-1.33,9.68-2.59,14.2-2.7,10.43-4.65,15c-1.07,2.5-2.25,6.72-2,7,.65-.26,2.18-1.19,2.68-.48S96,72.9,91.91,74.73s-6.74-3-7.27-4.58-2.51-7-.49-15.77,4.91-19.85,5.26-21.05c-.62,0-7.14,1.32-12.85-.49s-4.12-5.56-3.1-6.94,3.08-2.84,13-3.68C92.17,21.53,92,22.12,96.8,19.51Z"/><path class="cls-1" d="M133.81,19.9c-1.66-2-3.6-2.88-5.47-2.69a3.81,3.81,0,0,0-3.41,2.08c-1.41,2.57-5.38,11.1-8,15S110,49.35,109.7,50.51s-.3,2-1.41,2.25-3.29.62-3.93,2.14-.59,3.05.49,5.25c1.38,2.8-.1,6.29-.27,7.83-.14,1.24-.43,3.74.18,4.84a.76.76,0,0,0,1.17.18c.56-.51,1.57-1.76,3-4.86,2.7-5.87,4.59-5.66,7-6.31,2.18-.59,4.53-1.11,4.53-1.11s.58,7.28,1.09,9.17,1.33,5,4.16,4.76c2.63-.24,3.56-.56,4.34-4.5S135.91,42,136.8,35.28C137.33,31.33,136.15,22.72,133.81,19.9ZM122.59,42.75c0,.66-.42,7.93-1.42,8.6s-3.58-.32-3.69-.91,1.83-7.5,5-12.58C123,37,122.61,42.09,122.59,42.75Z"/><path class="cls-1" d="M87.46,109.62a3.12,3.12,0,0,1-.84-.26,2.6,2.6,0,0,0-1.45-.17,5.73,5.73,0,0,1-2.4-.27,8.42,8.42,0,0,0-1.23-.27.79.79,0,0,0-.46,0,3.06,3.06,0,0,1-2.51-.19,2.75,2.75,0,0,0-2.41.06A8.47,8.47,0,0,1,75,109c-1-.21-1.84-.78-2.82-.34a3.17,3.17,0,0,1-3.21-.24,1.73,1.73,0,0,0-1.87-.08,2.15,2.15,0,0,1-1.82.07c-.42-.13-.84-.3-1.26-.42a2.35,2.35,0,0,0-2,.33,2.24,2.24,0,0,1-2.24.22,1.82,1.82,0,0,0-2.15.38,1.37,1.37,0,0,1-1.08.18,8.85,8.85,0,0,1-1.76-.64,2.57,2.57,0,0,0-2.05-.07,2.15,2.15,0,0,1-1,.17,20.57,20.57,0,0,0-3.84-.15,6.06,6.06,0,0,1-3.2-.94c-.52-.29-1-.56-1.56-.83a2.5,2.5,0,0,1,0-2.37c.32-.26.8-.65,1.27-1l1.06-.5.33-.22.74-.24.18.42-.35.36-.13.23-.24.42h0l-.45.07c0-.07,0-.16,0-.21a1.63,1.63,0,0,1,.29-.23l.14-.18-.26.06a1.93,1.93,0,0,0-1.27,1.12L45,104a3.88,3.88,0,0,0,.09.58c.13.44.28.87.42,1.3-.39,0-.46-.26-.56-.52s-.26-.5-.58-.34-.27.41-.17.68a1.45,1.45,0,0,0,1.26.94l.15-.4c.12.41.41.19.63.15s.47-.13.71-.19l0,.14-1,.44c.57.16,1,.26,1.39.4s1,0,1.44.31a1.29,1.29,0,0,0,1.62-.25l-1.18,0c.48.32.55-.85,1.29-.47-.05-.6-.07-1.06-.12-1.53,0-.25,0-.41.29-.44,0,.33.05.65.08,1,.08-.34.29-.71-.08-1-.18-.33.06-.41.3-.5l.32,2,.06.8L52,107c.13.1.28.29.39.27a6.44,6.44,0,0,1,2.35.25,1.13,1.13,0,0,0,.31-.06l.26,0-.18-.19v-.18l.06-.16v-.16l-.06-.31,0-.47,0-.29.17-.19.25.84.34-.66.11,0c-.08.31-.17.62-.25.93s-.21.35.08.54l.09-.44a1.09,1.09,0,0,0,.4-1.29c-.06-.2-.15-.48.21-.54l.06.27.27-.17a7.89,7.89,0,0,0,0,2.52c0,.21.11.38.33.32a.45.45,0,0,0,.25-.32c0-.42,0-.83,0-1.24l.31,0a2.3,2.3,0,0,0,.14,1.52l.23-.91.26,0-.07.66a2.28,2.28,0,0,0,.49-.17,1.14,1.14,0,0,1,1.44,0,1,1,0,0,0,.49.11,1.2,1.2,0,0,0,1.15-.74l.11.47c.6-.33.63-.47.27-1l-.38.53,0-.46h0c.62-.61.25-1.33.15-2.15l.31.41.06-.66c.5.84.33,1.79.52,2.72l.51-.49.18.1-.27.57c.7.22,1.35.47,2,.63s.73,0,1-.57c.15-.37.34-.73.51-1.1l.25,0-.07,1.36h-.1l-.18-.54-.13.74a1.81,1.81,0,0,0,1.44-.11c.5-.28.62-.2.91.44l.81-.06h0c.35.32.73.11,1.1.08l.17.33.12-.07-.29-.26-.12-1.73.51.88.29-.86c.25.61-.11,1.18-.2,1.81l2.39-.18a8.67,8.67,0,0,1-.1-.91,4.69,4.69,0,0,1,.09-.73l.27,1.45c.63.07,1.16.14,1.7.18a1,1,0,0,0,.38-.13c.27.26.55.47.78.26l.38-1.63c0,.51.34,1,0,1.6a4.32,4.32,0,0,0,.8-.07c.46-.16,1.09,0,1.36-.59a.39.39,0,0,1,.08.1l-.05.55,1.65.48.61-1.41.1,0,0,.52-.09.3.08,0,.17-.19.82-.5.17.76c-.24.09-.66-.42-.76.23l1,0h0c.11.05.26.17.33.13.36-.18.69-.43,1-.6.11,0,.29,0,.49.1l-.48.46.57.35.38-.63,0,.93a.92.92,0,0,0,.26.08l1.77,0s.07.13.1.19-.23.36,0,.52Zm-5.75-1.7-.06.12s0,0,.07,0a.7.7,0,0,0,.1-.08s-.07,0-.14.12c0,0,0,0,0,0s0,0-.06,0l0,.07S81.66,108.11,81.71,107.92Zm-11.55.32a.65.65,0,0,0-.85-.1l.77.2.4.08,0-.1Zm-7.88-.81-.09.11.19,0,.68-.19-.06-.21C62.72,107.07,62.51,107.28,62.28,107.43Zm-2.37.62a1.31,1.31,0,0,0,1.55-.18c-.48.33-1,0-1.42,0l-.43-.07,0,.11Zm24.89.64c-.73-.59-1.42-.34-2.07-.36A3.08,3.08,0,0,0,84.8,108.69ZM78.65,108a1.27,1.27,0,0,0,1.32.23C79.57,108.12,79.22,107.74,78.65,108Zm-34.82-2.76.19-.4.19-.41C43.63,104.6,43.58,104.7,43.83,105.26Zm.38,1-.65-.93C43.57,105.9,43.77,106.18,44.21,106.29Zm31,1.81L74,108A1.08,1.08,0,0,0,75.25,108.1Zm-8.48-.19-.09-.19c-.24.07-.54,0-.77.44Zm4.35.13-.06.15c.08,0,.15.13.24.14a1,1,0,0,0,.28-.07v-.12Zm-18.85,0,0-.12-.55.07v.09Zm-.81-.06c-.1-.07-.14-.13-.16-.12a1,1,0,0,0-.17.1ZM67,107.55c.07.11.08.13.09.13a.07.07,0,0,0,.06,0Zm-16.2-1.35,0,0v0Zm.59,1.16-.05,0s0,0,.05,0,0,0,0,0Z"/><path class="cls-1" d="M46.62,102.63l-.18-.42.9-.39a20.69,20.69,0,0,1,3.75-.55l1.59-.16,1.84-.65a7.2,7.2,0,0,1,3.62.33,3.49,3.49,0,0,0,2.3,0,5.4,5.4,0,0,1,4,.1,2.74,2.74,0,0,0,1.53.06,7.63,7.63,0,0,1,2-.12c.44,0,.87.12,1.31.18a3.05,3.05,0,0,0,1.68-.29,2.71,2.71,0,0,1,1.84-.16c.59.13,1.16.29,1.75.4a2,2,0,0,0,.84,0,8.31,8.31,0,0,1,3.1-.23,6.73,6.73,0,0,0,1.18-.11l0-.22-.71.23v.16a2,2,0,0,0,.45.2,4.11,4.11,0,0,0,.86.08,8.3,8.3,0,0,1,3.16.41,5,5,0,0,0,1.15.24,2.8,2.8,0,0,1,1.42.52,5.39,5.39,0,0,0,1.79.5l0,.4a3.33,3.33,0,0,1-2.34-.67.8.8,0,0,0-.34-.18c-.91-.18-1.82-.34-2.72-.5l-.16,1.55a6.25,6.25,0,0,1-.11-1.29c0-.33-.17-.47-.48-.48s-.53,0-.79,0a9.66,9.66,0,0,1-2.39-.25,5.66,5.66,0,0,0-2.17,0,7,7,0,0,1-2.4.18h0a3.14,3.14,0,0,0-3.11-.08,3.13,3.13,0,0,1-1.51.17,10,10,0,0,1-1.07-.19,3.84,3.84,0,0,0-2,.15l.58.26-.15.13c-.2-.07-.48.13-.61-.19a.35.35,0,0,0-.3-.14A3.56,3.56,0,0,1,64,101.3a4.1,4.1,0,0,0-3.06-.08,1.17,1.17,0,0,1-.38,0l-.17.06c0,.06-.06.07-.12,0l-.12-.09,0,.12a4.38,4.38,0,0,1-2.06-.21,4.69,4.69,0,0,0-2.28-.36l-.31,0c-.33.07-.65.14-1,.23-.69.2-1.28.73-2.06.69-.07,0-.15.12-.23.19l-.06,0c-.36-.32-.75-.08-1.13-.07l.39,1.2a1.34,1.34,0,0,1,.06.44,1.17,1.17,0,0,1-.2.36l-.17-1-.6.19-.05-.11.44-.56c-.53-.52-.54-.55-.93-.51-.59.08-1.19.17-1.78.3S47.15,102.49,46.62,102.63Z"/><path class="cls-1" d="M87.46,109.62l0-.26.16,0,.78.1.34,0,.94.13c.39.41.48.42,1,.17l-.51-.23,1.38-.42c.18.32.18.32.44.08l-.44-.08c.3-.28.6-.56.91-.83s.08-.9.67-.92a7.88,7.88,0,0,0-.61-1.3,3.49,3.49,0,0,0-2.32-1.46,2.41,2.41,0,0,1-.91-.41c-.38-.27-.72-.61-1.07-.91l.12-.33a2,2,0,0,1,.39.26,4.7,4.7,0,0,0,2.08,1.13,3.61,3.61,0,0,1,2.47,2.22,3.87,3.87,0,0,0,.59.82,2.53,2.53,0,0,1,.69,1.46,1.52,1.52,0,0,1-1.19,1.45c-1,.32-2-.1-2.94.17-.15,0-.35-.07-.53-.11l-.81-.18-.23-.17.55-.14c-.41-.06-.86-.18-1.06.34a2.84,2.84,0,0,1-.31,0C88,109.72,87.67,109.73,87.46,109.62Zm6-2.06-.08.91C93.87,108.18,93.9,108,93.47,107.56Zm-.3,1.22c-.11,0-.22-.12-.24-.1a.94.94,0,0,0-.15.28s.13.11.16.09S93.05,108.92,93.17,108.78Zm.8.14a1.19,1.19,0,0,0,0-.28s-.15-.09-.15-.08a.72.72,0,0,0-.12.23S93.86,108.86,94,108.92Z"/><path class="cls-1" d="M88.31,110.11c.2-.52.65-.4,1.06-.34l-.55.14.23.17Z"/><path class="cls-1" d="M87.76,103.14l0-.4.57.12-.12.33Z"/><path class="cls-1" d="M66.69,105.71,66,104.56c.14-.25.27-.51.41-.77.15.21.31.19.52-.06,0,0,.37.08.52.19a4.46,4.46,0,0,1,.49.57V105l-1,.73Z"/><path class="cls-1" d="M58,104.78c.06-.18.12-.37.17-.55a.06.06,0,0,0,.06,0,4.68,4.68,0,0,1,0,2,1.79,1.79,0,0,0,.05.6l-.26,0-.24-.62a1.38,1.38,0,0,1,.16-1C58,105.11,58,104.93,58,104.78Z"/><path class="cls-1" d="M87.41,108.84l.68.11a.61.61,0,0,0,.77-.44l.13.11-.24.64h-.22a.69.69,0,0,0-.93.07l-.16,0C87.18,109.2,87.38,109,87.41,108.84Z"/><path class="cls-1" d="M46.27,103a.56.56,0,0,1,.8.45c0,.19.09.39.13.59h0c-.1-.08-.25-.13-.28-.23a.73.73,0,0,0-.8-.57Z"/><path class="cls-1" d="M54.91,105.65l0-.78a.26.26,0,0,1,.15,0l.2.61-.17.19Z"/><path class="cls-1" d="M55.81,100.84a2.47,2.47,0,0,1,.75,2l-1.06-2Z"/><path class="cls-1" d="M60.3,101.38a.21.21,0,0,1-.15,0l0-.12Z"/><path class="cls-1" d="M60.59,101.27l-.17.06Z"/><path class="cls-1" d="M89.66,109.5l.47-.06.51.23C90.14,109.92,90.05,109.91,89.66,109.5Z"/><path class="cls-1" d="M91.51,109l.44.08c-.26.24-.26.24-.44-.08Z"/><path class="cls-1" d="M88.38,109.42l.15-.17h.22a.45.45,0,0,1,0,.11Z"/><path class="cls-1" d="M71.37,105.91l-.72-.61-.07.59-.26-1.07v-.32l.09-.33.11.46c.25-.08.44-.17.63-.22s.25-.28.19-.49l0-.94.4.94,1.38.58-.56,1.36-.47-.07,0,.74-.11,0-.21-.73Z"/><path class="cls-1" d="M77.07,106a1.25,1.25,0,0,0-.33-.25,4.07,4.07,0,0,0-.61-.06l-.39-.22c-.17-.15-.51-.27-.1-.55.07,0,0-.27,0-.42l.15-.23c.5,0,.52,0,.59-.61l0-1.08c.39.23.39.23.32,1.22.56.31,1.22.55,1.33,1.38a.51.51,0,0,0-.69.31A3.09,3.09,0,0,1,77.07,106Zm.05-1.44.28.24.07-.13-.34-.11-.12-.08Z"/><path class="cls-1" d="M69.62,107.53a5.45,5.45,0,0,1-.67-3.42,8.34,8.34,0,0,0,.85,3.12c.12.18,0,.28-.2.29Z"/><path class="cls-1" d="M70.33,104.5v.32c0,.45-.08.91-.16,1.35a1,1,0,0,1-.34.52c.37-1,0-2-.1-3l.16,0c0,.2.06.4.1.6S70.05,104.61,70.33,104.5Z"/><path class="cls-1" d="M63.34,105.81s0-.13,0-.15c.73-.69.07-1.54.32-2.15a5.3,5.3,0,0,1,.15,2.85l-.31-.24Z"/><path class="cls-1" d="M79.21,106.82l.06-2.32a.85.85,0,0,1,.24.86,2.75,2.75,0,0,0,0,.81l.24-.62c.1.55.12,1.07-.4,1.41Z"/><path class="cls-1" d="M73.84,105.89c0-.57-.06-1.14-.08-1.71,0-.3,0-.61,0-.92l.23,0c.06.68.11,1.36.17,2a.66.66,0,0,1-.23.7Z"/><path class="cls-1" d="M61.75,106.24a3.6,3.6,0,0,1-.34-.68c-.18-.76-.32-1.53-.46-2.29a.84.84,0,0,1,0-.31h.18c.13.74.27,1.47.4,2.21.06.36.11.72.16,1.08Z"/><path class="cls-1" d="M74.94,106c0-.55.08-1.1.11-1.64a2.42,2.42,0,0,1,.23-1l.09,1.23c-.18.68-.16.75.28.93-.18.61-.2.63-.63.52Z"/><path class="cls-1" d="M71.83,103.61c-.2-.43-.39-.87-.59-1.3l-.33-.57A1.63,1.63,0,0,1,71.83,103.61Z"/><path class="cls-1" d="M61.18,103H61a5.2,5.2,0,0,1-.39-.64,4.06,4.06,0,0,1-.15-.71C61,101.86,61.11,102.05,61.18,103Z"/><path class="cls-1" d="M68,105v-.47l.14-1c.33.5.33.5.32,1.31l-.18.16Z"/><path class="cls-1" d="M60.86,106.86l-.35.32-.63-.51C60.33,106.44,60.33,106.44,60.86,106.86Z"/><path class="cls-1" d="M86.26,103.7a1.38,1.38,0,0,1,.33,1.55l-.44-1.43Z"/><path class="cls-1" d="M89,108.28l.26-1.55a1.86,1.86,0,0,1-.11,1.54Z"/><path class="cls-1" d="M90.7,106.88l-.23-1.6c.47.44.39,1,.4,1.58Z"/><path class="cls-1" d="M59.72,106.24l.05-1.34h.08l.1,1.32Z"/><path class="cls-1" d="M55.42,102.29l-.72.36c0-.21,0-.39.09-.49S55.18,102,55.42,102.29Z"/><path class="cls-1" d="M65.06,107.08c.16-.68.42-.41.69-.13Z"/><path class="cls-1" d="M66.88,101.93a1.31,1.31,0,0,1,.55,1.13l-.66-1Z"/><path class="cls-1" d="M84.83,104.31l-.33-.46c.2-.14.35-.31.52,0S85.15,104.2,84.83,104.31Z"/><path class="cls-1" d="M78.55,102.46c0-.57,0-.57.68-.61Z"/><path class="cls-1" d="M52,106.71l-.22-.36,0-.69C52.18,105.92,52.21,106,52,106.71Z"/><path class="cls-1" d="M89.72,107.78l-.15,1C89.25,108.41,89.55,108.11,89.72,107.78Z"/><path class="cls-1" d="M74,103.24l-.23,0c0-.58.07-1.17.1-1.75h0C73.91,102.08,74,102.66,74,103.24Z"/><path class="cls-1" d="M68.54,105.68l.26.92-.2.06-.2-.79Z"/><path class="cls-1" d="M75.37,107.22l-.2-1,.16,0,.25,1Z"/><path class="cls-1" d="M88.33,108.22c-.5.38-.61.2-.7-.25Z"/><path class="cls-1" d="M52.63,105.17l-.08,0c0-.42-.07-.85-.1-1.27h.08Z"/><path class="cls-1" d="M81.31,105.44l-.14.55h-.1c0-.08-.07-.15,0-.22a2.83,2.83,0,0,1,.14-.41Z"/><path class="cls-1" d="M83,107.7c0-.35,0-.69,0-1l.18,0,.06,0A1.13,1.13,0,0,1,83,107.7Z"/><path class="cls-1" d="M68.54,105.68l-.14.19-.17-.9.18-.16Z"/><path class="cls-1" d="M83.34,106.3l.2-.85a.83.83,0,0,1-.09.92A.21.21,0,0,0,83.34,106.3Z"/><path class="cls-1" d="M57.4,105.16c0,.23.07.45.08.68,0,.08-.1.16-.16.24Z"/><path class="cls-1" d="M90.58,108.36c.12-.1.19-.21.25-.2a.24.24,0,0,1,.19.16c0,.07-.06.17-.1.25Z"/><path class="cls-1" d="M81.57,104.59l-.17.77a.69.69,0,0,1,.07-.84Z"/><path class="cls-1" d="M72.56,102.31l-.39.19-.09-.27.37-.12Z"/><path class="cls-1" d="M90.7,106.88l.17,0-.23.53,0,0Z"/><path class="cls-1" d="M80.65,106.89l-.24.18.13-.28Z"/><path class="cls-1" d="M55.88,105.37l0-.28h.06l0,.27Z"/><path class="cls-1" d="M63.34,105.81l.15.31,0,.06-.18-.1Z"/><path class="cls-1" d="M86.66,106.79l-.13.17.07-.25Z"/><path class="cls-1" d="M86.6,106.71l.2-.17.08.08-.22.17Z"/><path class="cls-1" d="M81.47,104.52l.18-.23-.08.3Z"/><path class="cls-1" d="M82.82,106.68l-.32.19Z"/><path class="cls-1" d="M83.26,106.64c0-.12.06-.23.08-.34a.21.21,0,0,1,.11.07c0,.1-.08.21-.13.32Z"/><path class="cls-1" d="M89,108.28h.15l-.13.35-.13-.11A2.4,2.4,0,0,1,89,108.28Z"/><path class="cls-1" d="M66.76,101.82l.12.11-.11.17-.16-.15Z"/><path class="cls-1" d="M86,103.69l0-.2.12.08Z"/><path class="cls-1" d="M86.08,103.57l.18.13-.11.12-.17-.13Z"/><path class="cls-1" d="M83,106.68l-.17,0,0-.12Z"/><path class="cls-1" d="M90.64,107.39l-.13,0,.08-.09Z"/><path class="cls-1" d="M79.21,106.82l.15.14a.18.18,0,0,1-.1.09.39.39,0,0,0-.08-.1A.11.11,0,0,1,79.21,106.82Z"/><path class="cls-1" d="M73.94,106l-.14.08a1,1,0,0,1,0-.17Z"/><path class="cls-1" d="M75,106l-.12.14a1.6,1.6,0,0,1,0-.21Z"/><path class="cls-1" d="M80.54,106.79l.16-.08,0,.18Z"/><path class="cls-1" d="M80.76,106.45l0-.06s0,0,0,.06,0,0,0,.06Z"/><path class="cls-1" d="M48.14,106l.42,0c.28-.56-.18-1.35.52-1.85l-.11,2.1-.09.11-.68.5a2.1,2.1,0,0,0,.15-.5c0-.06-.13-.14-.2-.21V106Z"/><path class="cls-1" d="M47.2,104l.33-.62a1.25,1.25,0,0,1-.05,1c-.09.32-.21.63.17.91l-.7-.22c.1-.39.18-.71.27-1Z"/><path class="cls-1" d="M49.59,104.9l.35-1.06c.14.49.13.57-.21,1.18Z"/><path class="cls-1" d="M48.14,106v.11l-.78.12v-.2Z"/><path class="cls-1" d="M49.59,105.18l-.2.2.06-.31Z"/><path class="cls-1" d="M51.3,103.86l-.14.34Z"/><path class="cls-1" d="M45.13,103.87c0-.16.1-.32.31-.18Z"/><path class="cls-1" d="M45,104l.16-.18Z"/><path class="cls-1" d="M47.36,106.06v.2l-.18-.05Z"/><path class="cls-1" d="M49.45,105.07l.14-.17.14.12-.14.16Z"/><path class="cls-1" d="M49,106.24l.11.13-.2,0Z"/><path class="cls-1" d="M51.17,104.19l-.15.18Z"/></g></g></svg>