<svg xmlns="http://www.w3.org/2000/svg" viewBox="0 0 250.51 242.66"><defs><style>.cls-1{fill:#fff;}.cls-2{fill:#060b2b;}</style></defs><title>Fichier 5</title><g id="Calque_2" data-name="Calque 2"><g id="A4"><rect class="cls-1" width="250.51" height="242.66"/><path class="cls-2" d="M108.25,140.65l1-.94c.65-.41,1.37-.76,1.59-1.6.8,0,.06.48.21.68l-.22.24-.14.15.26,0,.25-.19,1.45-1.19a8.53,8.53,0,0,0-1.12-.06,2.9,2.9,0,0,0-.67.26,4.87,4.87,0,0,1-.93.37,1.75,1.75,0,0,1-.66-.19l3.15-1.85a4.12,4.12,0,0,0-.64-.28c-.77-.2-1.55-.35-2.31-.56-1.38-.4-2.77-.78-4.12-1.26a2.7,2.7,0,0,1-1.59-3.94l.42-.89a8.85,8.85,0,0,0,1-2.67l.43.45.13.35.2,0,.15-1.08,0-.1.22-1a1.75,1.75,0,0,0,.48-1.42,10.85,10.85,0,0,1,.26-1.36h.18l.46,1-.23,1.57c-.15.54-.32,1.07-.44,1.62-.08.33.13.46.45.45l-.54,1.12-.92.48a3.36,3.36,0,0,1,.5.81c.08.31,0,.69.42.8l-.12.45H106a.61.61,0,0,1-.19,0l0-.46.12-.07s-.06,0-.06,0a.25.25,0,0,0,0,.09c-.33.31-.42.62,0,.92H106v0l.15.76h-.57l0,.18.73.39-.08-.57.07-.71.54.15a.45.45,0,0,0,.16,0,3.94,3.94,0,0,1,.45.36,6.55,6.55,0,0,1,.49.56l.44,1.08.21-.06v-.57c.06,0,.18,0,.18,0,.16.93.75,1.28,1.65,1.39.61.08,1.3.17,1.61.87h-.91l.81.34.4.05-.25-.22a.24.24,0,0,0-.07-.18,7.89,7.89,0,0,1,3.46,1.24,1.22,1.22,0,0,0,.86.14,1.81,1.81,0,0,0-.28-1.74c-.23-.48.05-1.18,0-1.77,0-.22-.7-.25-.31-.73-.52-.34.14-.58.07-.86a10.65,10.65,0,0,0-.38-1.08c0-.06,0-.16,0-.2.5-.68.07-1.4.09-2.09l.81,0c.24-.43-.19-1.06.53-1.19l.07,1.11-.14.21.28-.07.47,0a1.34,1.34,0,0,0,0,.2l-.4.22-.39.26.38.17,1.83.2a.39.39,0,0,0,0,.18c-.66,0-1.27.43-2.12,0,.61,1,1.59.53,2.15,1l.7.17c.78.08,1.55.19,2.33.21a6.74,6.74,0,0,0,1.32-.22l.87.05a1.11,1.11,0,0,1,0,.19l-.45.22-2.69.13.29.34c-.42-.06-.73-.09-1-.16-.73-.16-1.46-.35-2.19-.52,0,0-.09.05-.16.09l.89.52-.59.54-1.52-1c.34.94.34.94,1.53.93-.06.22-.38.57.22.47l1.14.26v.23l-.77.06v.21l2.13.35.08.44c-.74.07-1.52-.5-2.38.1l.48.19v.19l-.26.17.5.1h0l.64.2.31,0,1.25,0,.32.34-.2.27,1.38.1,3.16.08a.42.42,0,0,0,0,.16h-2.79c2.89,1.23,6,1.56,9,2.11v.19c-.82-.06-1.63-.11-2.45-.19s-1.55-.2-2.32-.3l-1.24-.23,0,.28h1a1.5,1.5,0,0,0,0,.2l-.92.46a28,28,0,0,1-7.85-1.39l-.48.62c.76.54,1.7.4,2.56.59.23.2.46.4.7.59a4.9,4.9,0,0,0,.48.31h0l-.45.25-.41.42-.85-1.05-.28,0,.12.22.28,1.32.48.68c.6.74,1.08,1.59,2,2a.59.59,0,0,0,.45.69c0,.87.81.45,1.24.65l-.28.43c.5.31.93.59,1.38.82a2,2,0,0,0,.66.05c.1.58.48.53.89.38l.21.43h1.59c-.44-.49-.44-1.06-1.09-.86h-1.15V145l0-.21.53-.25c1.11.31,2.23.63,3.35.92.38.1.72.2.77.74-.45.2-.86.61-1.4.1l.36-.4-.17-.11-.2.51c0,.11.12.27.08.32-.22.25-.48.47-.79.76a20.46,20.46,0,0,0,3.9,2.47l-.21.46-1.89-1.19a7.89,7.89,0,0,0-1-.55c-.07,0-.23.16-.35.24a6.82,6.82,0,0,0-3.09-1.28.77.77,0,0,1-.41-.16c-1.14-.81-2.27-1.64-3.4-2.47a2.14,2.14,0,0,1-.47-.48c-1.09-1.5-2.16-3-3.25-4.51a8.15,8.15,0,0,0-2.48-2.58,5.6,5.6,0,0,0-1.55-.32c-.43.73-.86,1.48-1.33,2.27a1.42,1.42,0,0,0-1.58,1.11,9.37,9.37,0,0,1-.7,1q-1.12,2-2.19,4c-.65,1.24-1.26,2.51-1.89,3.77a4.5,4.5,0,0,1-2,2.1l-1.14.6c-.43-.24-.43-.53-.12-.9.48-.59,1-1.17,1.41-1.79a22.08,22.08,0,0,0,1.37-2.22c.36-.67.24-1-.34-1.6l.63-.43c1-.61,1.08-.65,1.31-1.43l-1.43.13a1.92,1.92,0,0,1,.27-.44c.28-.24.59-.45.88-.67a4.37,4.37,0,0,0,1.87-1.87l-1.66.51Zm.28,4.13.08-.06s0,0,0-.06l-.07.14-.35.06-.69.41-.1,1.58-.2.34.14.05,0-.41,1-1.76Zm.5-.87c.29-.82,1-1.45,1-2.41-.53.7-1.27,1.29-1.17,2.29l-.09.26Zm2.11-3.83-.2-.15c-.63.45-.63.45-.5,1.27Zm-6.8-8v-1.49C104,131.2,103.76,131.6,104.34,132.11Zm.85-3.3c.06,0,.15.09.19.07s.06-.12.09-.18-.15-.1-.19-.08S105.22,128.74,105.19,128.81ZM111,135.1V135l-.49,0v.1Zm-1.53,5.15.08.08a1.63,1.63,0,0,0,.09-.19s-.05,0-.07-.08Zm-2.79,7.92.08.18c0-.07.13-.13.15-.2s-.07-.1-.11-.16Zm.28-.52.07.08s.07,0,.07-.08,0-.06-.06-.09Zm3.2-8s0,.06.07.07.05,0,.07-.06,0-.06-.06-.06S110.2,139.6,110.17,139.62ZM105,129.24s-.07.06-.07.08,0,.06.06.09.07,0,.07-.08S105,129.28,105,129.24Zm1.36,19.7-.07.07s0,.06.06.08.07,0,.07-.07S106.37,149,106.35,148.94Z"/><path class="cls-2" d="M123.5,103.56l3.31-3.92c.35,0,.48.27.51.6a6.14,6.14,0,0,0,.18.74h-.08l-.46,0,.3.26.07.42a.71.71,0,0,0,0,.2c-.59.48-.38.86.17,1.27l1-.54-.45-.45,1.8-.24.51.25-.81.69c1.1.27,2-.16,2.86-.16.07.24.15.48.23.72l-.79.11-.79.15-1.61.28c-.06-.37-.18-.55-.47-.13-.34.11-.68.24-1,.33l-4.21,1-1,.25.06.22,1-.3,1-.13,3.8-.55a1.87,1.87,0,0,0,2.09-.14h.64c.29.68.9.3,1.37.4l-.93.43-.65,0c-.69-.31-.83-.25-.93.33.24.59.76.26,1.16.36a1.48,1.48,0,0,1,0,.21l-.21.46,0,.28-.66-.07c-.2-.22-.35-.16-.46.09a.16.16,0,0,1-.14.08c-.34-.2-.52-.08-.56.29l-2.46.29.71.36a2.51,2.51,0,0,1-.62.37,19.53,19.53,0,0,1-2.52.44,11.16,11.16,0,0,0-5,1.53h0l-.47.25v0l-.46.24h0l-.49.24a2.51,2.51,0,0,0-1.35,2.13l-.22.37-.24.47h0l-.23.25a.3.3,0,0,0,0,.13l-.28.3-.65.33-.82-.58a7.72,7.72,0,0,1,.62-2.63,7.22,7.22,0,0,0,.63-2.86c-.27-.18-.79-.11-.64-.67v0a1.12,1.12,0,0,0,1-.32l-.81-.28-.91-.52a5.18,5.18,0,0,1,1.23-.09,4.15,4.15,0,0,0,2.7-.69,11.47,11.47,0,0,1,1.31-.66,10.5,10.5,0,0,0,3.9-1.86c.15.27.36.28.54.06S123.8,103.61,123.5,103.56ZM119,106.71l-.49.11,0,.14.53-.16.39-.13-.07-.16Zm.12,1.73.73-.09-.05-.23-.87.15,0,.25Zm6.59-2.51c.94.25,1.76-.15,2.86-.48A4.05,4.05,0,0,0,125.73,105.93Zm-6.06.32.1.37,1.81-.68-.11-.31Zm6.89-4.36-.29-.12-.35.87C126.43,102.53,126.69,102.3,126.56,101.89Zm-9.93,6.2,1.15-.27C117.37,107.78,116.93,107.53,116.63,108.09Zm10.3-1.21,0,.25.87-.2,0-.18Zm-2.74,1.64v-.25l-1.09.16,0,.18Zm-8.13,2,.22.09.27-.72-.21-.08Zm13.55-4.63c-.13-.13-.19-.22-.21-.21a1.43,1.43,0,0,0-.27.15Zm.13-.59,0,.06h.05Z"/><path class="cls-2" d="M104.14,129.37l-.42.89a1.54,1.54,0,0,0-.43,0c-1.87.77-2.74,0-3.84-1.4-.21-.27-.37-.56-.59-.89-.59.51-.47,1.44-1.25,1.68,0-.11-.16-.24-.13-.32.13-.33.3-.64.52-1.07l-1.1.14a2.53,2.53,0,0,1,.22.86c-.09.49.4.18.47.41.11.82-.46.84-1.14.95l.18-.67-.72-.08v-.23s.07,0,.09,0,0,0,0-.06l-.07.13c-.2,0-.51,0-.24.34-.06,0-.1,0-.1.1h-.82l0-.51c1.22-.63,2.14-1.77,3.53-2-.52-1.34-1.1-2.59-1.49-3.89a7.39,7.39,0,0,1,.28-5.88c.32-.59.74-1.13,1.19-1.81a6.55,6.55,0,0,1-3-1.43l1.12-.13,0-.14H95.25a7.5,7.5,0,0,1-2.79-1.76,39.31,39.31,0,0,0-3.51-2.3c-.9-.65-1.69-1.47-2.53-2.21l.13-.15.22-.17-.24,0v0c0-.2,0-.48-.06-.59-.59-.63-1.21-1.23-1.84-1.81-.08-.08-.26-.07-.49-.12l.17.61-.19.17a12.15,12.15,0,0,1-2.26-2.53c-1.6-2.94-1.07-5.69.63-8.36a2.63,2.63,0,0,1,2.1-1.17c.56-.06.76.16.85.72-.26.15-.53.33-.83.47a3.3,3.3,0,0,0-1.75,2.22c-.09.29-.22.56-.31.84a3.25,3.25,0,0,0-.11,2.11c.16.54.32,1.09.43,1.64a4.86,4.86,0,0,0,2.06,3,7.38,7.38,0,0,1,1.91,1.91,7.83,7.83,0,0,0,2,1.7A18.88,18.88,0,0,0,91.07,110c1.32.7,2.31,1.94,3.84,2.3a.79.79,0,0,1,.35.29c.29.37.57,1.09.84,1.08.7,0,.62.58.94.8.53.36,1.12.63,1.76,1,.16-.19.51-.42.5-.62-.07-1,.63-1.31,1.27-1.72.35-.22.72-.41,1.09-.61a2.26,2.26,0,0,1,.45,0c.88.15,1.17.61.93,1.45a2.22,2.22,0,0,1-2.2,1.6c-.41,0-.82-.07-1.31-.12.21.84-.41,1.51-.22,2.3a2.41,2.41,0,0,1-.39.17l-.63-.39c-.13.59-.2,1-.33,1.47a11,11,0,0,1-.43,1.08c0-.25,0-.49,0-.74h-.19l-.23,1.08.48-.34a3.13,3.13,0,0,1,0,.44,14.33,14.33,0,0,0,0,2.27c.13.83.74,1.54.74,2.45,0,.25.34.19.48-.06l.5,0,0,.43c-.32.27-.13.39.14.5l0,.37c-.25.07-.48.14-.29.47l.26,1.08,3.15-.26.35-.78h.26c-.17.92.43,1.64.68,2.45C103.93,129.39,104.07,129.37,104.14,129.37ZM93.22,112.21l-.35-.14.24.27.39.16.06-.14ZM88,108.51l-.35-.09.1.28.57.4.54.56,1.76,1,1.73,1.13.14-.2a3.15,3.15,0,0,0-1.69-1.11l-1.68-1.08-.69-.47C88.27,108.83,88.13,108.67,88,108.51Zm-4.56-3.89.5.39.13-.18-.46-.4c-.1-.35-.32-.5-.82-.41Zm-.47-9,.81-.61a.65.65,0,0,0-.93.51l-.27.43c-1.52,2.66-1.61,5.62.12,7.39-.23-1-.41-1.87-.66-2.73a4.64,4.64,0,0,1,0-2.48c.19-.69.49-1.35.74-2Zm17.73,33.23c.17.33.35.52.55,0,.57.11.59-.32.68-.71a2.75,2.75,0,0,0-1.87.49C100.25,129.05,100.44,129.09,100.69,128.83Zm.51-15-1.44.87c.64.06,1.25.61,1.8-.06a1.57,1.57,0,0,0,.16-.49Zm-7.42-.82a2.12,2.12,0,0,0,1.59.57C95,112.89,94.35,113.15,93.78,113.06Zm-6.71-5.16-.14.2.49.27.08-.14Zm-4.37-4.21.07.08.08-.08-.11-.08Z"/><path class="cls-2" d="M104.14,115.48a4.36,4.36,0,0,1-.63-3c.28-.32.53-.65.09-1a3.32,3.32,0,0,0,.75-.34c2.52-2,3-2.44,6.14-3.28-.09-1.09-1.49-.79-1.9-1.71l2.1-.33c.18-.84,0-1.19-.81-1.57a5.51,5.51,0,0,1-.68-.36c-.07,0-.08-.18-.15-.35l1.49.32-1.08-1.46h1a1.41,1.41,0,0,0,1.13.6c.08-.73-.47-.53-.8-.63l.14-.25.8-.12-.38-1c-.25.38-.67.62-.44,1.08-.86,0-.88-.05-1-1l.45-.14c0-.15,0-.3,0-.45l1,.12-.86-1-.18.11v.81l-.25.06a8.89,8.89,0,0,1-.42-.81c-.17-.43.08-1-.43-1.33a12.08,12.08,0,0,1-1.09-.93l.62-.35c-.28-1.38-1.48-1.87-2.44-2.42a5.37,5.37,0,0,0-3.45-.38.83.83,0,0,1,1-.62,12.72,12.72,0,0,0,2-.09,3.78,3.78,0,0,1,2.22.27c.17.09.46,0,.91-.07a4.2,4.2,0,0,0,.71.57,1.83,1.83,0,0,1,1,1.43.51.51,0,0,0,.06.22c1,1.38,1.07,3.07,1.5,4.64a34.48,34.48,0,0,1,.58,3.82c.13.82.27,1.64.4,2.45l.44.89c-.43.07-.94,0-1.06.62l-.32-.07-.11,0h-.1c-.29-.4-.6-.3-.92,0l-2.74.69v1.17l-.53,0-.07-.75c-1.43.69-2.65,1.49-2.86,3.21l-.72-.31-.3.08a1.14,1.14,0,0,1,.22,1.42c0,.07.22.27.35.41l.13,1.13Zm4.67-20-.26-.2-.33-.15.2.28.26.21.31.19c0,.47.39.4.7.4l1,.93-.37-1.32c0-.33-.09-.51-.43-.52l-.59-.56-.28,0,.11.23.35.33a.7.7,0,0,0-.06.19l-.33.06v0Zm2.08,1.6-1.25,1,1.46,1.15a4.88,4.88,0,0,0-.27-1A6,6,0,0,1,110.89,97.08Zm.78,9.82v-2.57l-.81.21C111.88,105.09,111.32,106,111.67,106.9Zm-.16-2.89.18-.06-.12-.55-.3.09Zm.28,3.77c.06-.15.15-.25.14-.34s-.14-.22-.18-.21a1.08,1.08,0,0,0-.28.21Z"/><path class="cls-2" d="M169.51,128.45a25.72,25.72,0,0,1-2.84,4.79,6.72,6.72,0,0,1-1,1.21c-2,1.57-3.93,3.37-6.49,4.16-1,.31-1.88.82-2.84,1.19a10.77,10.77,0,0,1-1.91.58c-1.81.35-3.62.74-5.45.94a87.32,87.32,0,0,1-11.09.32c-.29,0-.59,0-1.17.08,1.49,1.1,2.75,2.1,4.08,3a13.77,13.77,0,0,0,4.86,2.18,4.93,4.93,0,0,1,.93.44v.39l-.25.06a13.39,13.39,0,0,0-5-.87l-.08-.11,1.05-.33a2,2,0,0,0-1.72-.38l-.45-.4c-.45-.12-.9-.22-1.33-.37-.13,0-.22-.22-.45-.46l1.42.21.07-.24c-.47-.19-.95-.35-1.4-.57-.62-.31-1.22-.66-1.84-1l.14-.14.54.19.29,0-.15-.15-1.71-1.3.28-.72,2.56-.26c2.11.07,4.23.25,6.34.18,2.3-.08,4.6-.37,6.89-.61.36,0,.85,0,1-.56a.89.89,0,0,0-.08-.17h0l.29.05c.2.48.49.12.74.09.47-.13,1-.22,1.4-.39s1.06-.48,1.6-.71c1-.39,2.07-.55,2.73-1.39l-.24-.32a.79.79,0,0,0,.22-.06c1.14-.72,2.05-1.85,3.55-1.92.1,0,.19-.12.28-.19l-.09.77a7.72,7.72,0,0,0,2.25-2,2.83,2.83,0,0,1,.42-.77,10.33,10.33,0,0,0,2.37-3.64l.33-.78a.33.33,0,0,1,0-.14l0-.45A.81.81,0,0,1,169.51,128.45ZM161,136.51l-.13.16.27,0,.1-.25Z"/><path class="cls-2" d="M169.51,128.45a.81.81,0,0,0-1-.61l-.64-1.48a1.92,1.92,0,0,0-.32,1.93h1a.33.33,0,0,0,0,.14c-.56.53-1.08-.06-1.71,0a1.46,1.46,0,0,0-.2-1.67l-1.3.15,0-.23.92-.93.44-.44.24-.25a.61.61,0,0,1,.19,0l.07.78c.34-.42.46-.69.18-1l.26-.48c.74-.34.25-1.12.8-1.71l-1,.1h0l-.54,0-.31,0,.22-.48-.87-.42a3.44,3.44,0,0,1,2.27.45l-.23-1.5v-.37l-.22-.19v0l.09-.4a3,3,0,0,0,.34-.6,2.2,2.2,0,0,0,0-.63l.39.5a11.32,11.32,0,0,0,0-1.43c0-.16-.29-.29-.45-.43l-.35.45-.28-.15-.17-.3-.52-.82-.19.08v1.14l-1.37-.18a1.36,1.36,0,0,0-1.13-1.22c-.13-.09-.32-.16-.36-.27-.41-1.32-1.46-1.62-2.65-1.72v-.23l1.4-.21.36.27.27.21.35.17-.08-.2,1-.43-1.25-1.15,0-.55c.1,0,.24.07.29.15.44.82,1.32,1,2,1.46.06,0,.21-.11.32-.16v.08H166l0,.58-.58,0c.22.42.36.76.92.78.34,0,.85.16.68.77l-.36.15.31.34.05-.49c.47,0,.79.13.71.67h1.07c.14.21.28.41.43.61s0,.59,0,1l.57-.41.5.29a18.69,18.69,0,0,0,.23,1.92,6.94,6.94,0,0,1,0,3.91c0,.05,0,.13.06.22l.85-.12.07.21-1,.4c.76.68.41,1.24,0,1.88A18.69,18.69,0,0,0,169.51,128.45ZM165,115.09l.19.11,0-.26-.45-.26-.65-.1,0,.13.54.12Zm3.34,10.73c.23-.26.53-.52,0-.94-.09.31-.15.54-.22.77l-.22.54Zm1.67-3.94a4,4,0,0,0-.12,2.84A7.16,7.16,0,0,0,170,121.88Zm-.76,4.87.29,0,.14-1.45-.21,0Zm.56-8.21-.28,0,.19.6.17,0Z"/><path class="cls-2" d="M127.5,101a6.14,6.14,0,0,1-.18-.74c0-.33-.16-.55-.51-.6a4.36,4.36,0,0,1,2.62-2,2,2,0,0,1,2.06.44c.55-.7,1.06-1.34,1.56-2a3.57,3.57,0,0,0,1.19-1.92c0-.08,0-.15,0-.23l-.15.12-.19-.18a20.08,20.08,0,0,1,3.4-4.17c.64-.58,1.32-1.12,2-1.68l.15.16-1.14,1.22.8.46,1-.6.19.17c-.2.29-.85.35-.45,1,0,.08-.15.37-.28.53-.58.78-1.19,1.54-1.76,2.33-.09.12,0,.36-.06.51s.3.64-.27.68c-.05,0-.15.11-.15.16.07,1-.85,1.11-1.39,1.54a10.8,10.8,0,0,0-2.7,2.86,1,1,0,0,0,1.23.65c.44-.11.89-.2,1.33-.32s.59,0,.68.46a21.77,21.77,0,0,1-6.18,2.33l-.51-.25-.64-.44c.43,0,.87,0,1.31,0a2.1,2.1,0,0,0,.52-.21.5.5,0,0,0,.21,0l1.34-.26,0-.16-2-.29h0v-.25a.55.55,0,0,0,0-.22l-.15-.19.41,0c.64.15,1.22.75,2,.32-1.39-1.42-1.39-1.42-2.69-1.65-.83-.14-1.22.18-1.38,1.14a.61.61,0,0,0,0,.19c-.37-.05-.69-.06-.44.47l-.49.21,0,.26Zm5.9-4.41-.19.28-.21.26-.21.24-.07.22.13-.16.29-.14.27-.26a2.2,2.2,0,0,0,.17-.25l.08-.26Zm.76.09-.41.51.13.12c.16-.17.31-.34.47-.5l.05-.28ZM133,98l-.83.23c.5.31.77.33,1-.07l.2-.28Zm1-2.27c.38.6.76.64,1.13.34s.91-.69.46-1.32a4.33,4.33,0,0,0,2.14-2.49c-.62-.48-1.71-.44-1.78.12a7.48,7.48,0,0,1-.78,1.8c0,.13.08.32.1.4Zm.22,4.76,0-.28-.82-.07,0,.14Z"/><path class="cls-2" d="M152.69,95l-.33-.28a3.35,3.35,0,0,1,.52-.41,15.2,15.2,0,0,0,2.2-1.13,11,11,0,0,1,5.34-1.77,17.92,17.92,0,0,1,5,.19c.55.07.55.08,1.36,1a2.86,2.86,0,0,1-.71.2c-.91,0-1.82-.06-2.73,0a13.09,13.09,0,0,0-1.77.35l.76.87-5.7,1.32c.27.56.19.87-.43.89s-1.12-.2-1.47.49c-.08.15-.58.1-.88.11a1.59,1.59,0,0,0-1.43.52L151.8,97a6.22,6.22,0,0,1,2.41-1.13c.58-.08.58-.27.22-.89l-1,.07.48-.46.71-.23,1.26.21-.38.42.07,0c1,.1,1.15-.75,1.44-1.46l1.25.27h2.94v-.12l-.9-.35,0-.2,1.59-.54V92.5l-1.15-.17c-.39-.51-.68,0-1,.1a4.1,4.1,0,0,0-2.67.37c-.92.42-1.8.94-2.7,1.41l-.52.36Zm10.6-3.23h-1.67A1.32,1.32,0,0,0,163.29,91.75Z"/><path class="cls-2" d="M151.8,97l.58.31a.49.49,0,0,1,.1.15s0,.06,0,.09a9.77,9.77,0,0,1-.83,1.35c-.7,0-1.39.08-2.08.09-.05,0-.11-.14-.16-.22l.66-.13c-.63-.12-.63-.12-1,.24l.34-.11a1,1,0,0,1-.85,1.1c-.43.11-.86.18-1.3.26-.22-.06-.46-.21-.67-.17-.62.11-1.24.29-1.86.45l-.48.36,0,0-.94,0c.16-.42.06-.61-.41-.44a1.57,1.57,0,0,0-.26.19l-.24.13-.68.07-.67-.1-.47-.1c1.32-.78,2.65-1.55,4-2.34.66-.39,1.31-.82,2-1.23l.57.15h.12c.1.41.28.47.68.07l-.64-.11.21-.41a11.39,11.39,0,0,1,1.59-.44,2.38,2.38,0,0,0,1.61-.87,9.75,9.75,0,0,1,1-.5c.27-.1.5,0,.53.33l-1.62,1.08-1.12.47c.41.53.85.13,1.27.12C151,97.33,151.42,97.11,151.8,97Zm-8.19,3.18s.06.12.09.12a.7.7,0,0,0,.19-.06s-.06-.11-.1-.12A.32.32,0,0,0,143.61,100.22Zm7-2.1,0-.09h-.13s0,.07,0,.09Zm-.69-.42.16,0s0-.06-.07-.06S149.94,97.69,149.91,97.7Z"/><path class="cls-2" d="M146.56,147.73v-.39a10.53,10.53,0,0,0,4.11,0c-.14.45-.45.88-.06,1.37,0,.05-.1.25-.16.38l-.27,0a3.55,3.55,0,0,0-.63.36c-.33.31-.62.67-.92,1l.92,1L147.7,151c0-.2-.08-.4-.15-.73l-.94.71h1.1c-.41.08-1,.37-1.22.2a4.72,4.72,0,0,0-1.7-.42,1.93,1.93,0,0,1-.63-.25c-1.51-1-3-2-4.51-3l.91-.23,1.41.78c.4.48.77.32,1.2-.07l-1.06-.05-.1-.42,3.68.43c.07.52-.35.31-.59.4-.4.15-1-.19-1.27.5,1.07.52,1.85-.24,2.78-.44l-.55-.46.25,0c.28,0,.58.35.95-.06Z"/><path class="cls-2" d="M140.6,100.58l.47.1.67.1-3.15,1.59c.5.35,1,0,1.44-.1s1-.22,1.48-.33l.21.16V102c.48.32.77-.19,1.15-.27l1.39-.89,0,0c.28,0,.49,0,.48-.36.62-.16,1.24-.34,1.86-.45.21,0,.45.11.67.17-1.23.54-2.48,1-3.69,1.64a5.69,5.69,0,0,0-1.51,1.17,58,58,0,0,0,6.78,1.33l-.32.45c-.59-.1-1.18-.2-1.78-.28a34.47,34.47,0,0,1-4.06-.56,10.86,10.86,0,0,0-3.93-.46c-1.32.15-2.55-.78-3.93-.07-.6.31-1.49,0-2.25,0l-.23-.72,3.82-.34a3.23,3.23,0,0,0,1.08-.19C138.38,101.68,139.48,101.12,140.6,100.58Z"/><path class="cls-2" d="M148.52,104.76l.32-.45a35.58,35.58,0,0,1,7.24,2.34c1.15.55,2.42.9,3.55,1.5s2.14,1.4,3.21,2.12c.28.19.55.41.84.58a15.39,15.39,0,0,1,4.78,4.79,4.77,4.77,0,0,1,.41.92H167.8c.08-.54-.24-.7-.71-.67h0c.17-.61-.34-.76-.68-.77-.56,0-.7-.36-.92-.78l.58,0a.55.55,0,0,1,.18,0l.27.15,0-.17-.26,0-.22-.61h-.09v-.08a14.84,14.84,0,0,0-1.11-1.27,2.72,2.72,0,0,0-2-1.05h0c0-.3-.15-.47-.47-.24h0c0-.06.06-.17,0-.19-1.15-.79-2.06-1.93-3.41-2.44-2.42-.91-4.82-1.86-7.24-2.74C150.72,105.34,149.61,105.08,148.52,104.76Z"/><path class="cls-2" d="M87.37,135.53A22.33,22.33,0,0,0,85,138.18a10.34,10.34,0,0,0-1.73,4.65,13.58,13.58,0,0,0,.45,5.74c0,.12,0,.28-.06.48A1.25,1.25,0,0,1,82.41,148a11.78,11.78,0,0,1,.08-6.18c.42-1.26.79-2.53,1.25-3.78a6.63,6.63,0,0,1,3.13-3.49l.19.26c-.16.15-.32.3-.47.46a5,5,0,0,0-2.35,2.9l-.22.23-.3.86c0,.21-.09.42-.13.62l.15,0,.11-.54.17-.63.29-.52c.83-.92,1.67-1.83,2.51-2.74l.32-.15Zm-5,9.44.24,0,.25-2.19-.19,0Zm1-4.68-.07.18s0,.05.06.08.09-.08.09-.12S83.46,140.34,83.43,140.29Z"/><path class="cls-2" d="M149.55,151.46l-.92-1c.3-.34.59-.7.92-1a3.55,3.55,0,0,1,.63-.36c0,.37-.08.76.59.7l-.32-.72c.06-.13.21-.33.16-.38-.39-.49-.08-.92.06-1.37,1.06-.11,1.05-.11,1,.9,0,.11,0,.25,0,.32.59.81.8,1.87,1.72,2.47a2.21,2.21,0,0,0,1.13.4,17.41,17.41,0,0,1,2,.41l-2.85,0,0,0,0,0c.28.26.51.56,1,.56.88,0,1.76.08,2.78.13l-1,.44-.24.4c-.62-.08-1.43.06-1.82-.28-.72-.65-1.62-.48-2.36-.87a15.73,15.73,0,0,0-1.74-.75A2.45,2.45,0,0,0,149.55,151.46Zm1.59-1.41.15.12-.16-.11-.11-.15L151,150Zm-.91.68-.35-.19-.06.15.38.08.39.28.26.2,1,.62c-.08-.77-.61-.58-.86-.79l-.3-.14Zm1.52-.83.17.07-.09-.16c-.06-.3-.14-.59-.72-.4Z"/><path class="cls-2" d="M136,141.13l-.28.72a3.69,3.69,0,0,0-2,.05l4.94,4.09,1.45-.29.45.4a4.15,4.15,0,0,0-.79.08c-.12,0-.2.23-.3.35l-.57.35-3.28-2.38a1.88,1.88,0,0,1-.26-.22,8.36,8.36,0,0,0-3.31-2.64c-.21-.09-.71-.29-.32-.74l.35,0h1l2,0Z"/><path class="cls-2" d="M166,152.15c1-.06,2-.1,2.94-.2a9.79,9.79,0,0,0,1.44-.34l.11.44.88.24v.19a5.49,5.49,0,0,0-.81.14c-.28.08-.71.15-.78.34-.45,1.17-1.46,1.1-2.42,1.26l-.06.47c-.08,0-.2,0-.21,0a1.93,1.93,0,0,0-1.92-.92,5.14,5.14,0,0,1-.55-.06l.27-.24c1,.18,1.88-.51,2.85-.78l-.84-.09Z"/><path class="cls-2" d="M94.76,129.61l0,.51c.22.55.26.55.82,0,0-.06,0-.09.1-.1l.21-.13.72.08A17.19,17.19,0,0,1,95,131a2.44,2.44,0,0,1-.91.11c-.51.22-1,.38-1.43.62a14.69,14.69,0,0,0-1.74,1.06c-1,.71-1.92,1.47-2.88,2.22l-.15-.17,3.6-3,.24-.29-.45.06a.22.22,0,0,0-.12.05l-.11-.27Z"/><path class="cls-2" d="M123.18,143.52a.59.59,0,0,1-.45-.69l.19-.05.38.1-.26-.25c-.48-.6-1.24-.92-1.51-1.74-.12-.35-.55-.28-.84,0l-.48-.68,1,.26-.25-.72.41-.42.86,1.1,1.9.13h0l-1.75.22a1.74,1.74,0,0,0,.91,1.17c1.29.86,2.57,1.74,3.85,2.61l-.53.25L124,143.28Z"/><path class="cls-2" d="M129.59,148.81c.12-.08.28-.27.35-.24a7.89,7.89,0,0,1,1,.55l1.89,1.19L134,151h0l.23.23h0l.34.24h0l.36.24h0l.24.23-.24.46a3.36,3.36,0,0,0-.64-.2c-.32,0-.37.19-.29.45h0l-.66-.15c0-.33.44-.68-.07-.84-.19-.05-.45.13-.77.23a7.86,7.86,0,0,0-2.23-2.09A3.8,3.8,0,0,1,129.59,148.81Z"/><path class="cls-2" d="M158.23,153.23l-.11-.34c2.18,0,4.32.77,6.48.11l.34.05v.41l-.27.24-.36.05-.35.12c0,.43-.39.43-.68.39-1.69-.21-3.37-.45-5.05-.68Z"/><path class="cls-2" d="M131.34,140.89c.23.23.14.45-.13.47a6.48,6.48,0,0,1-1.15-.11c-1.16-.17-2.33-.35-3.5-.51-.43-.06-.86-.05-1.3-.07l-.94-.46-2.52-1.14h0l.71-.06.44.1,2.06.54h0l.2.27,1,.26.89,0h0l.93.21a1.35,1.35,0,0,0,.36.21Z"/><path class="cls-2" d="M138.32,153.05l2,1.35c-.68,1.26-.87,1.34-2.07.8a5.91,5.91,0,0,1-.76-.46l.18-.18a1.8,1.8,0,0,0,1.6-.15l-1.87-.75,1-.08Z"/><path class="cls-2" d="M139.33,88.08c.48-.76,1.38-.62,2.07-.93.09,0,.28.23.44.27a.71.71,0,0,0,.52-.15c-.88.4-1.87.73-1.82,2,0,.07-.16.14-.25.21l-.19-.17c-.54-.3-.24-.65,0-1l.32-.34.08-.19-.14.13-.47.21-.37.1Z"/><path class="cls-2" d="M138.32,153.05l.07.53-1,.08a5.89,5.89,0,0,0-.64-.37c-.07,0-.19.06-.28.09l0,.34-.45-.24h0l-.51-.75.11-.43,1.57.27Z"/><path class="cls-2" d="M109.91,101.1c.16,1,.18,1,1,1h0l-.14.25-.33,0h-1a11,11,0,0,0-.71-1.07,3.72,3.72,0,0,1-.76-1,7.58,7.58,0,0,0,.84.45A10.22,10.22,0,0,0,109.91,101.1Z"/><path class="cls-2" d="M113.79,107.85l-.44-.89.68.3.91.52-.22.6v0c-.51.22-1.07.36-1.2,1.06a.42.42,0,0,1-.64.33c.29-.5.58-1,.86-1.5A1,1,0,0,0,113.79,107.85Z"/><path class="cls-2" d="M151.6,98.94a9.77,9.77,0,0,0,.83-1.35l.33.41.19.47v.64Z"/><path class="cls-2" d="M134,93.93l.19.18.1.11a3.57,3.57,0,0,1-1.19,1.92l-.55,0Z"/><path class="cls-2" d="M165.33,152.8l.3-.5-2.81.27c.18-.12.36-.34.55-.35.89-.06,1.78-.05,2.67-.07l.9.44Z"/><path class="cls-2" d="M86.87,134.52c.78-.68,1.57-1.35,2.36-2a2.11,2.11,0,0,0,.23.19l-2.4,2.09Z"/><path class="cls-2" d="M138.93,146.88l.57-.35,1.76.28.08.11-.78.39-.91.23Z"/><path class="cls-2" d="M160.24,152.14a3.11,3.11,0,0,1-1.05.23c-.9-.11-1.79-.32-2.68-.49Z"/><path class="cls-2" d="M136,153.48l-.26.66-1.8-1.57h0c.39.23.76.49,1.17.68a4.33,4.33,0,0,0,.91.22Z"/><path class="cls-2" d="M137.2,152.57l-1.57-.27-.11.43-.18-.17-.22-.69-.24-.23Z"/><path class="cls-2" d="M134,151l-1.17-.64.21-.46Z"/><path class="cls-2" d="M158.23,153.23v.35l-2-.17.24-.4Z"/><path class="cls-2" d="M85.26,107.13,84.13,106l.19-.17L85.43,107Z"/><path class="cls-2" d="M86.42,108l-1.16-.91.17-.18,1.11.74v0a1.64,1.64,0,0,0,0,.22Z"/><path class="cls-2" d="M124.32,140.21l.94.46c-.39,0-.81.3-1.15-.13h0Z"/><path class="cls-2" d="M89.23,132.5l1.15-.6.05,0-1,.74Z"/><path class="cls-2" d="M169.92,117.76l-.57.41c0-.41,0-.71,0-1Z"/><path class="cls-2" d="M123.5,103.56c.3,0,.4.22.21.46s-.39.21-.54-.06Z"/><path class="cls-2" d="M149.41,98.81l-.34.11c.32-.36.32-.36,1-.24l-.66.13Z"/><path class="cls-2" d="M153,98.47l-.19-.47h1C153.63,98.62,153.26,98.48,153,98.47Z"/><path class="cls-2" d="M88,135.05l-.65.48-.23-.23.73-.42Z"/><path class="cls-2" d="M129.83,146.3l.2-.51.17.11-.36.4Z"/><path class="cls-2" d="M91,131.41l.11.27-.71.27-.05,0Z"/><path class="cls-2" d="M110.16,100.56l.25-.06h0c0,.15,0,.3,0,.45Z"/><path class="cls-2" d="M137,154.36l-.25-.29.19-.16.22.23Z"/><path class="cls-2" d="M137.28,154.58l-.24-.22.16-.22.25.2Z"/><path class="cls-2" d="M137.51,154.74a1.88,1.88,0,0,1-.23-.16l.17-.24.24.22Z"/><path class="cls-2" d="M134.21,151.18,134,151Z"/><path class="cls-2" d="M134.54,151.42l-.34-.24Z"/><path class="cls-2" d="M134.89,151.65l-.36-.24Z"/><path class="cls-2" d="M162.56,152.56l-.2-.34Z"/><path class="cls-2" d="M164,153.87l.35-.12Z"/><path class="cls-2" d="M136.79,154.07l-.22-.23.19-.18.22.25Z"/><path class="cls-2" d="M136.47,153.72l0-.34.26.28-.19.18A.15.15,0,0,1,136.47,153.72Z"/><path class="cls-2" d="M131.3,140.89h.5l-.25.37Z"/><path class="cls-2" d="M108.86,117.75a22.92,22.92,0,0,1-.7,5,11.67,11.67,0,0,1-.51,1.76l0-1c-.16-.32-.31-.65-.46-1,.39-.57.17-1.06-.25-1.54l.07,1.54a10.85,10.85,0,0,0-.26,1.36,1.75,1.75,0,0,1-.48,1.42c-.08.33-.15.65-.22,1l0,.11-.48.74-.43-.45a11.35,11.35,0,0,0,0-6.92c-.41-1.41-.67-2.87-1-4.3l.62,0c.37,1.34.74,2.68,1.12,4a1.07,1.07,0,0,0,.24-1.4,2.06,2.06,0,0,1-.1-.76h0a.3.3,0,0,0,.16,0c0,.12.1.24.14.36l.13,0-.11-.45c-.08-.29-.17-.58-.23-.87-.11-.6-.21-1.21-.31-1.81.1-.18.29-.37.28-.55,0-.66-.14-1.31-.23-2a3.72,3.72,0,0,0,2.17-1.74c0,.14,0,.28.07.42v.91a2.52,2.52,0,0,0-.91,1.84c-.6-.1-.72,0-.6.44s.27.92.41,1.38c-.17,2.06.57,4,.75,6,.84-1.26.76-2.69,1-4.06Zm-2-5.27a2,2,0,0,0,.12-.27l-.16-.09a1,1,0,0,0-.13.23S106.83,112.42,106.91,112.48Zm1,10h.14l-.06-.56h-.11Z"/><path class="cls-2" d="M121,134l-.08-.44-.9-.66a6.78,6.78,0,0,1,.9,0,39.81,39.81,0,0,0,6.89.67v.23l-.08.21-.41,0-4-.25c.51.63,1.11.48,1.67.5l2.15,0-.21.42h-2.24V135h1.09v.22l-1.62.05a2.5,2.5,0,0,0-.66-.36,2.89,2.89,0,0,0-1-.1c-.42,0-.08.39-.18.55s-.3-.05-.47-.09l-.32-.34a1,1,0,0,0-1.25,0l-.31,0-.64-.2h0l-.24-.27v-.19l2.93.26v-.13Z"/><path class="cls-2" d="M137.17,139.25l-.48-.11c-.14-.1-.28-.28-.42-.3-.93-.09-1.85-.15-2.78-.23l-.9-.22-.24-.26v-.19l4.09.26,1.21.13,1.12.1c.1.67.82.19,1.18.67-.83-.08-1.53-.14-2.23-.23C137.39,138.83,137.2,138.91,137.17,139.25Z"/><path class="cls-2" d="M132.59,138.39l.9.22V139a40.19,40.19,0,0,1-7.09-.63l.92-.46a4.8,4.8,0,0,0,1,.26C129.72,138.25,131.15,138.31,132.59,138.39Z"/><path class="cls-2" d="M115.43,128.07l.06-1.63c.76.19.93-.43,1.15-1l.36.77-.23.69c-.72.13-.29.76-.53,1.19Z"/><path class="cls-2" d="M121.81,135.22c.17,0,.44.14.47.09s-.24-.51.18-.55a2.89,2.89,0,0,1,1,.1,2.5,2.5,0,0,1,.66.36l-1.1.37-1.38-.1Z"/><path class="cls-2" d="M119.78,129.63l-1-.28a.39.39,0,0,1,0-.18l3.6.09a.33.33,0,0,0,0,.14Z"/><path class="cls-2" d="M106.85,128.27v2.09c-.45-.11-.34-.49-.42-.8a3.36,3.36,0,0,0-.5-.81Z"/><path class="cls-2" d="M127.78,145.42c.65-.2.65.37,1.09.86h-1.59s-.11-.23-.21-.43Z"/><path class="cls-2" d="M126.15,135.67c0-.08.06-.22,0-.24a2.59,2.59,0,0,0-.46-.26V135a.31.31,0,0,0,0-.21H126a2.28,2.28,0,0,0,1.55.7v.43l-1.39,0A.42.42,0,0,1,126.15,135.67Z"/><path class="cls-2" d="M118.85,130.4l.69-.53,1.59.25c-.22.08-.44.16-.66.22s-.62.16-.92.23Z"/><path class="cls-2" d="M104.34,132.11c-.58-.51-.37-.91,0-1.49Z"/><path class="cls-2" d="M118.11,128.41l-.67-.09a1.34,1.34,0,0,1,0-.2l.69,0Z"/><path class="cls-2" d="M105.55,127.15l.48-.74-.15,1.07-.2,0Z"/><path class="cls-2" d="M127.58,137.64l-.28.05h-1l0-.28Z"/><path class="cls-2" d="M126.63,145.43l-.47,0-.35-.48h.81Z"/><path class="cls-2" d="M106,126.3c.07-.33.14-.65.22-1C106.15,125.65,106.08,126,106,126.3Z"/><path class="cls-2" d="M105.19,128.81c0-.07,0-.16.09-.19s.12,0,.19.08,0,.16-.09.18S105.25,128.84,105.19,128.81Z"/><path class="cls-2" d="M117,128.54V129l-.38-.17Z"/><path class="cls-2" d="M106.17,132.08h0l-.15-.76.26.05C106.21,131.61,106.19,131.85,106.17,132.08Z"/><path class="cls-2" d="M106.78,131.52l-.07-.72.25.22c0,.16,0,.31,0,.47A.45.45,0,0,1,106.78,131.52Z"/><path class="cls-2" d="M119.29,134.7l.64.2Z"/><path class="cls-2" d="M119.06,134.44l.24.27-.5-.1Z"/><path class="cls-2" d="M107.38,146.83l0,.41-.14-.05.2-.34Z"/><path class="cls-2" d="M105.8,131.28c0-.16,0-.32,0-.48a.61.61,0,0,0,.19,0l0,.48Z"/><path class="cls-2" d="M120,132.87l-.47,0v-.23Z"/><path class="cls-2" d="M109.48,140.25l.1-.19s.08.07.07.08a1.63,1.63,0,0,1-.09.19Z"/><path class="cls-2" d="M106.69,148.17l.12-.18c0,.06.12.12.11.16s-.1.13-.15.2Z"/><path class="cls-2" d="M116.84,128l.11,0,0,.11-.28.07Z"/><path class="cls-2" d="M107,147.65l.08-.09s.07.06.06.09,0,.06-.07.08Z"/><path class="cls-2" d="M110.17,139.62s0-.05.08-.05,0,0,.06.06,0,.06-.07.06S110.19,139.64,110.17,139.62Z"/><path class="cls-2" d="M105,129.24s.07.07.06.09,0,0-.07.08-.06-.06-.06-.09S105,129.27,105,129.24Z"/><path class="cls-2" d="M106.35,148.94s.06.06.06.08,0,0-.07.07-.06-.05-.06-.08Z"/><path class="cls-2" d="M119.57,114.13l.87,0v.62l-.45.05c-.35.07-.83-.14-.93.45h0l-.66.23c-.59-.58-1.09.07-1.63.15-.13,0-.2.51-.35.93l1.27-.39.14.17a.27.27,0,0,1-.12.09c-.61.18-1.22.37-1.44,1.07l-.06.16.14-.07.56-.3.82-.49a15.58,15.58,0,0,1,2.86-.57,11.32,11.32,0,0,0,2.83-.72l.22.41c-.75.29-1.68.14-2.26.89-.05.08-.29,0-.44,0-.52.07-1,.12-1.55.24-.76.19-1.33.85-2.25.75-.38-.05-.81.44-1.14.86a7.81,7.81,0,0,1,1-.14c.27,0,.75-.33.7.35a1.44,1.44,0,0,0,.5.08c.45,0,.91,0,1.36-.08v.23l-2.21.49c-.42.09-.84.17-.76.76l.5.63c.14.5,0,1.2.88,1.15l.47.71-1.34.69h1c0,.13,0,.37,0,.37a2.41,2.41,0,0,0,1,0,.91.91,0,0,1,1.08.26,13.5,13.5,0,0,0-1.69.06c-.56.07-1.22,0-1.49.69,0,.38.06.67.51.69a3.19,3.19,0,0,0,.71.21c.81.06,1.62.07,2.43.1v.51c-.37,0-.74,0-1.11,0-.64,0-1.3.29-1.91-.22-.1-.09-.42.06-.64.1l-.36-.77c-.22.55-.39,1.17-1.15,1,.05-.45.09-.9.14-1.35a1.28,1.28,0,0,0,0-.19c.54-.51.32-1-.12-1.6l.66.06a4.7,4.7,0,0,0,.3-.84c.07-.45,0-.92-.52-1-.74-.15-.87-.74-1.09-1.28s-.41-1-.62-1.55h0l-.25-.83v0l0-2.43c0-.31.08-.62.13-.93l.82.58.65-.33c0,.14,0,.27,0,.41s-.07.23-.11.34l.27-.2.14-.85a.3.3,0,0,1,0-.13l.23-.25h0l.24-.47c.07-.13.15-.25.22-.37s.38-.26.45-.44a1.06,1.06,0,0,1,1-.66l.16.8c-.22.39-1,.24-.91.9l0,.44-.35.67,2.13-.55C119.3,114.54,119.52,114.52,119.57,114.13ZM116,119l.05.18.89,0V119Z"/><path class="cls-2" d="M118.15,112.94l-.16-.8a1.06,1.06,0,0,0-1,.66c-.07.18-.3.29-.45.44a2.51,2.51,0,0,1,1.35-2.13l.49-.24h0l.46-.24v0l.47-.25h0c.28,0,.62.19.82.08a6.15,6.15,0,0,1,2.88-.3l-3.3,1a16,16,0,0,0,3-.29c.49-.08,1-.22,1.45-.33.82-.06,1.64-.13,2.47-.18,1.68-.1,3.37-.18,5-.27v.25l-.67.08h-2.38v.18H131l0,0a.33.33,0,0,0,0,.14c-.87,0-1.74.06-2.61.11a2.89,2.89,0,0,0-1.73.41c-.21.15-.63,0-1,0-.6,0-1.19-.06-1.79,0C121.83,111.37,120,112.25,118.15,112.94Z"/><path class="cls-2" d="M138.75,107.83l-2-.11-.9-.09-1-.19v.15l.84.22,1,.12c-.23.47-.64.25-1,.2-.51-.07-1-.19-1.52-.29a2.3,2.3,0,0,0-2.78-.29c-.44-.13-1,.2-1.33-.32l.87-.2,0-.28c.37.33.75,0,1.13,0l2.75.23c.3-.11.77.55.92-.21h1.13l.47.25.05.27,1.33.17Z"/><path class="cls-2" d="M131.19,104.54a13.86,13.86,0,0,1,4.36-.12l1.35.08,0,.18-2.28.24-.11,0h-.1l-.69-.21-1.19.21C132.09,104.84,131.48,105.22,131.19,104.54Z"/><path class="cls-2" d="M131.2,106.29a1.48,1.48,0,0,0,0-.21v-.26c.62.18,1.07-.25,1.59-.44.29.25.29.86.89.7.18.16.36.37,0,.43a5,5,0,0,1-1.09,0c0-.32-.23-.42-.54-.35Z"/><path class="cls-2" d="M128.46,104.69a3.13,3.13,0,0,1,2.09-.14A1.87,1.87,0,0,1,128.46,104.69Z"/><path class="cls-2" d="M131.2,106.29l.85-.16c.31-.07.5,0,.54.35l-.47.28c-.38,0-.76.32-1.13,0Z"/><path class="cls-2" d="M131.63,105.37l-.41.45v.26c-.4-.1-.92.23-1.16-.36l.93-.33Z"/><path class="cls-2" d="M126.56,101.89c.13.41-.13.64-.64.75l.35-.87Z"/><path class="cls-2" d="M131,105.39l-.93.33C130.15,105.14,130.29,105.08,131,105.39Z"/><path class="cls-2" d="M126.93,106.88l.88-.13,0,.18-.87.2Z"/><path class="cls-2" d="M119,108.27l.87-.15.05.23-.73.09Z"/><path class="cls-2" d="M127.42,101l-.16.29L127,101Z"/><path class="cls-2" d="M129.38,104l-.47-.13C129.2,103.42,129.32,103.6,129.38,104Z"/><path class="cls-2" d="M131.78,103.54l-.79.15Z"/><path class="cls-2" d="M131,107l-.87.2a.12.12,0,0,1-.07-.15l.28-.12Z"/><path class="cls-2" d="M129.69,107.13l-.56.29C129.17,107.05,129.35,106.93,129.69,107.13Z"/><path class="cls-2" d="M129.61,105.84l-.48-.06a1.43,1.43,0,0,1,.27-.15S129.48,105.71,129.61,105.84Z"/><path class="cls-2" d="M115.57,115.18c0-.14,0-.27,0-.41l.28-.3c-.05.29-.09.57-.14.85Z"/><path class="cls-2" d="M130.29,107l-.28.12a.27.27,0,0,1-.18,0C129.94,106.8,130.09,106.74,130.29,107Z"/><path class="cls-2" d="M116.32,113.61l-.24.47Z"/><path class="cls-2" d="M118.38,110.87l-.49.24Z"/><path class="cls-2" d="M118.83,110.64l-.46.24Z"/><path class="cls-2" d="M119.14,108.44l-.24.08c0-.09,0-.17,0-.25Z"/><polygon class="cls-2" points="129.74 105.25 129.75 105.32 129.7 105.31 129.74 105.25"/><path class="cls-2" d="M127.55,102l-.24-.07a.71.71,0,0,1,0-.2Z"/><path class="cls-2" d="M116.08,114.09l-.23.25Z"/><path class="cls-2" d="M98.81,125.15a4.27,4.27,0,0,1-.52-2.78c.06.13.14.25.19.38s.17.51.25.76a1.8,1.8,0,0,1,.34.47c.11.37.16.76.24,1.14Z"/><path class="cls-2" d="M103,126.93c-.69-.06-.41-.5-.32-.85l.61,0a.13.13,0,0,0,.1.12l-.13.69Z"/><path class="cls-2" d="M100.69,128.83c.2-.41.39-.41.55,0C101,129.35,100.86,129.16,100.69,128.83Z"/><path class="cls-2" d="M99.34,125.55l.14.5C99.21,125.94,99,125.82,99.34,125.55Z"/><path class="cls-2" d="M99.52,126.42c-.09.16-.19.32-.29.47C99,126.56,99.27,126.49,99.52,126.42Z"/><path class="cls-2" d="M93.22,112.21l.34.15-.06.14-.39-.16Z"/><path class="cls-2" d="M93.11,112.34l-.24-.27.35.14Z"/><path class="cls-2" d="M100,118.83c.14-.64.14-1.35.89-1.8.26.59-.15,1-.2,1.45s-.16,1-.25,1.45l-.37-1Z"/><path class="cls-2" d="M103.86,121.23l.38-.19a2.88,2.88,0,0,1-.38,2.56Z"/><path class="cls-2" d="M102.16,122.65a1.75,1.75,0,0,1,0-1.74A1.85,1.85,0,0,1,102.16,122.65Z"/><path class="cls-2" d="M100.74,125.15l.5,2C100.63,126.55,100.6,126.4,100.74,125.15Z"/><path class="cls-2" d="M103.28,126.11l.19-1.73.17-.47a3.62,3.62,0,0,1-.26,2.32A.13.13,0,0,1,103.28,126.11Z"/><path class="cls-2" d="M103.05,118.77l-.16-.89.32,0,.09.9Z"/><path class="cls-2" d="M100.27,123.49h.11l.11,0,.13,1.19C100.18,124.37,100.22,123.93,100.27,123.49Z"/><path class="cls-2" d="M99.8,120h-.3c.17-.4.33-.8.49-1.21l.07.08C100,119.28,99.89,119.65,99.8,120Z"/><path class="cls-2" d="M103.33,119.69v-.48h.1v.48Z"/><path class="cls-2" d="M100.09,123.29l.19.21Z"/><path class="cls-2" d="M104.85,113.8l-.22.51c-.13-.14-.38-.34-.35-.41a1.14,1.14,0,0,0-.22-1.42l.3-.08.72.31.06.44Z"/><path class="cls-2" d="M111,108.82l.24-.48c.32-.26.63-.36.92,0C111.87,108.68,111.54,109,111,108.82Z"/><path class="cls-2" d="M110.33,95.82c-.47.28-.63-.17-.9-.38a.7.7,0,0,1,.06-.19l.41,0C110.24,95.31,110.37,95.49,110.33,95.82Z"/><path class="cls-2" d="M109.1,95.5l.59.71c-.31,0-.67.07-.7-.4l.11-.29Z"/><path class="cls-2" d="M108.54,110.2v.45l-.46,0c0-.14,0-.28-.07-.42h0Z"/><path class="cls-2" d="M141.49,140.45c-.13.44-.48.22-.74.24l-2.19.18-2.56.26-.89-.21-.47-.25v-.19Z"/><path class="cls-2" d="M153.2,139.51l-.21.24-.29-.05Z"/><path class="cls-2" d="M152.77,139.88h-.2l.12-.16A.89.89,0,0,1,152.77,139.88Z"/><path class="cls-2" d="M164.19,126.91l-.22.24h-.45v-.44l.44-.46,0-.44,1-.14a4.44,4.44,0,0,0-2.35-.27l-1-.58a2.38,2.38,0,0,0,2-.78l-8.63-.89.72-.56c-.41,0-.71-.08-1-.14,0,0,0-.2,0-.3l1.49,0,.69.38-.24.24-.41,0V123h.4l.44,0,2.34,0c.79.12,1.58.26,2.38.35.2,0,.48-.07.16-.36l-.06-.31a2,2,0,0,0,1.81-.16.32.32,0,0,0,.12.08c-.1.56.29.38.56.37l.34,0-.59.49c.72-.06,1.41.13,1.92-.47.22.09.46.23.45-.19a.45.45,0,0,1,.19,0l.31,0,.43.21c-.19.5.08.92.25,1.36l-.26.48-.25.23a.61.61,0,0,0-.19,0c-.12-.15-.23-.42-.36-.43-.38,0-.57.2-.6.64l.72,0-.44.44c-.07-.07-.16-.22-.2-.2-.57.15-1,.41-1,1.1h0l-.22,0-.46.23Zm0-2.16.06.32c.42-.15,1.11.39,1.28-.73Z"/><path class="cls-2" d="M159.15,111.32c-.3-.24-.12-.49,0-.73s0-.39,0-.59a9.85,9.85,0,0,1,3.24,1.09h0l.47.24h0l.46.87,0,.55-1.3-.52,0,0-.69-.44-.24-.46.58,0c-.38-.36-.38-.36-.57,0-.41.09-1-.17-1.15.46Zm2.9.15-.06,0v0Z"/><path class="cls-2" d="M166.72,117.7v-.64l.71.24.17.3a2.3,2.3,0,0,0,0,.45c0,.35,0,.7.07,1l-.66.7-1.62,0,0-.24.24,0,.57-.07a2.58,2.58,0,0,0-1.75-1.06V118l.68.17.24-.17.22.15c.25.27.47.61.94.31.08-.06.3.1.46.14s.24.08.31,0,.08-.19.09-.21Z"/><path class="cls-2" d="M162.62,113.87l-1.4.21v.23c0,.09,0,.18,0,.28-.92.06-1.45-.79-2.26-1a.6.6,0,0,1,0-.23l1.52.21c.47,0,.88,0,.83-.69,0-.13.1-.26.16-.4h.46l.94,1.1-.24.25Zm-.62-.34s-.05-.08-.06-.07l-.18.06s.05.07.07.07A.85.85,0,0,0,162,113.53Z"/><path class="cls-2" d="M170,121.88a7.16,7.16,0,0,1-.12,2.84A4,4,0,0,1,170,121.88Z"/><path class="cls-2" d="M168.06,120.83l-1.39.18-1.09-.3c.28-.42.71-.33,1.12-.34s.63-.07,1-.11l.21,0v0l.22.19Z"/><path class="cls-2" d="M169.28,126.75l.22-1.44.21,0-.14,1.45Z"/><path class="cls-2" d="M169.84,118.54l.08.58-.17,0-.19-.6Z"/><path class="cls-2" d="M165.09,126.68l.27,0,0,.23-.14.28-.1-.31v-.24Z"/><path class="cls-2" d="M163.25,114.35l.27,0,.08.2Z"/><path class="cls-2" d="M163,113.84c0,.1,0,.2-.05.3l-.36-.27h0Z"/><path class="cls-2" d="M167.39,123c0-.09.08-.17.13-.26h0Z"/><path class="cls-2" d="M129.36,100.34l.6.13.57.1h0l.66.71a.5.5,0,0,1-.21,0,4.08,4.08,0,0,1-2.78-.62c-.11-.08-.28-.06-.43-.09l.49-.21,1.25.55Z"/><path class="cls-2" d="M134.25,100.5l-.8-.21,0-.14.82.07Z"/><path class="cls-2" d="M130.36,99.91l-.55-.45a.91.91,0,0,1,1,.41Z"/><path class="cls-2" d="M129.16,100.12l-.47-.25a.61.61,0,0,1,0-.19Z"/><path class="cls-2" d="M130.53,100.32l-.46,0,.44-.24A.55.55,0,0,1,130.53,100.32Z"/><path class="cls-2" d="M134.14,94.11l.15-.12c0,.08,0,.15,0,.23Z"/><path class="cls-2" d="M147.26,97.12l.64.11c-.4.4-.58.34-.68-.07Z"/><path class="cls-2" d="M147.1,97.16c0-.26,0-.51.37-.45l-.21.41,0,0Z"/><path class="cls-2" d="M150.6,98.12h-.08s0-.06,0-.09h.13Z"/><path class="cls-2" d="M149.91,97.7s.06,0,.09,0,.05,0,.07.06Z"/><path class="cls-2" d="M142.11,148l1.06.05c-.43.39-.8.55-1.2.07C142,148,142,148,142.11,148Z"/><path class="cls-2" d="M134.64,140.48v.19l-1.56.2h-1l-.22-.43a1.48,1.48,0,0,1,0-.21Z"/><path class="cls-2" d="M165.34,152.8l-.4.25-.34-.05Z"/><path class="cls-2" d="M135.34,152.56l-.46-.23.24-.46C135.19,152.1,135.26,152.33,135.34,152.56Z"/><path class="cls-2" d="M125,139.28l3.67.71-.05.26H128l-.91,0h0c-.29-.32-.58-.37-.89,0l-1-.26-.2-.27h0Zm.62.37-.06,0v.06Z"/><path class="cls-2" d="M128.64,140.25l.05-.26,3.21.25a1.48,1.48,0,0,0,0,.21Z"/><path class="cls-2" d="M150.68,96.92l.06-.41a13.4,13.4,0,0,0,1.24-.67c.15-.1.21-.35.3-.53l.53-.14.61-.08c0,.59-.59.59-.91.82A20.28,20.28,0,0,1,150.68,96.92Z"/><path class="cls-2" d="M163,127.14l-3.85.3-1.36.14-1.1-.63a17.71,17.71,0,0,0,1.91.14,4.69,4.69,0,0,0,1-.25.73.73,0,0,1,.41,0,.93.93,0,0,0,1.29-.35,1.88,1.88,0,0,1,2-.71l.67.06,0,.44-.88.17,0,.21.4.08c0,.15,0,.3,0,.44H163Zm-.81-.82s0,.06.06.06,0,0,.08,0,0-.06-.07-.06S162.2,126.3,162.18,126.32Z"/><path class="cls-2" d="M118.39,122.83l-.47-.71c2.38-.11,4.76-.25,7.14-.33,2.2-.07,4.4-.08,6.6-.12,0,.08,0,.15,0,.22l-1.85,0-2.48.09-.49.07-4.57.26A10.26,10.26,0,0,0,118.39,122.83Z"/><path class="cls-2" d="M125.93,132l2.29.42-.69.44-6.34-.54c.13-.11.24-.28.38-.32.69-.2,1.39-.36,2.09-.53C124.4,131.71,125.08,132.21,125.93,132Z"/><path class="cls-2" d="M144.84,122.33a3.47,3.47,0,0,1,.87-.22c1.59,0,3.18,0,4.77-.06.31,0,.63,0,.66-.4l.45-.2c0,.56.37.43.69.43l1.8.24a17.38,17.38,0,0,1-2,.29c-.89,0-1.78-.07-2.66-.11l-.1.48a7.58,7.58,0,0,0-3.31-.3A3.89,3.89,0,0,1,144.84,122.33Z"/><path class="cls-2" d="M120.66,126.38v-.51l2.76-.3a.91.91,0,0,0,0,.17c-.14.41.15.43.43.43l2.81,0,1.12,0v.17Z"/><path class="cls-2" d="M123.18,124.36l.7,0c-.1.09-.18.25-.28.27-1.42.16-2.84.28-4.26.46a16.74,16.74,0,0,0-1.83.43c-.45,0-.54-.31-.51-.69.75,0,1.5,0,2.25-.1C120.56,124.66,121.87,124.5,123.18,124.36Z"/><path class="cls-2" d="M118.1,123.52l4.19-.55.24.1a.77.77,0,0,1,0,.15c-.33.75-.9.46-1.5.3,0,.24-.07.45-.1.66l-.73-.06a.91.91,0,0,0-1.08-.26,2.41,2.41,0,0,1-1,0S118.11,123.65,118.1,123.52Z"/><path class="cls-2" d="M135.8,122.21c-.7-.09-1.4-.21-2.1-.26s-1.35,0-2-.06c0-.07,0-.14,0-.22l.47-.06c.6,0,1.2,0,1.79,0l3.25.2v.23Z"/><path class="cls-2" d="M141.05,128.46a13.88,13.88,0,0,0,5.95-.15,1.4,1.4,0,0,1,.45,0v.11a12.56,12.56,0,0,1-6.38.27Z"/><path class="cls-2" d="M152.65,123.66a12.2,12.2,0,0,0,4,.51l0,.39-4.33-.24v-.59Z"/><path class="cls-2" d="M118.11,128.41l0-.33,1-.05-.14-.42,1.22.24v.22l.77.54Z"/><path class="cls-2" d="M127.76,126.42v-.17l4.14-.26a.58.58,0,0,0,0,.19Z"/><path class="cls-2" d="M154.11,130.36,154,130c.7-.64,1.66-.48,2.46-.8-.1.18-.17.46-.32.52C155.47,130,154.79,130.15,154.11,130.36Z"/><path class="cls-2" d="M136.51,132.26V132l4.79,0a1.18,1.18,0,0,1,0,.2l-3.94.16-.29,0Z"/><path class="cls-2" d="M148.62,123.55c-.79,0-1.58,0-2.37-.07a4.26,4.26,0,0,1-1.12-.21h3.48Z"/><path class="cls-2" d="M137.17,122.07v-.23l2.54-.1,1.34,0,.9.32Z"/><path class="cls-2" d="M136.66,122.6l-.88.22-2.46-.06c.51-.06,1-.1,1.5-.2a7.91,7.91,0,0,0,1-.33Z"/><path class="cls-2" d="M150,131v.38l-.41.32-.8-.13-.81,0-.44-.26Z"/><path class="cls-2" d="M128.69,128.52l-.7.26-1.92.15c.48-.58,1-.35,1.37-.4A10.41,10.41,0,0,1,128.69,128.52Z"/><path class="cls-2" d="M152.27,123.73v.59l-.44-.08c-.33-.39-.28.23-.48.18l-.38-.69Z"/><path class="cls-2" d="M148.62,123.55v-.28l1.64.2,0,.3Z"/><path class="cls-2" d="M149.3,128.09a1,1,0,0,1,0,.17l-1.83.2v-.11Z"/><path class="cls-2" d="M125.66,127h1.18c-.45.49-.8.47-1.17.26Z"/><path class="cls-2" d="M143.13,122.1c.63-.3,1.23-.46,1.71.25Z"/><path class="cls-2" d="M123.22,128.56h1.89v.13h-1.92Z"/><path class="cls-2" d="M159.43,124.81a.23.23,0,0,0,0-.14l2.17.19-.59,0Z"/><path class="cls-2" d="M144.45,123.22h-1.29v-.14h1.37Z"/><path class="cls-2" d="M153.87,129.9a.6.6,0,0,0-.23,0l-1.56,0,1.36-.26Z"/><path class="cls-2" d="M141.05,128.46l0,.27-1.07-.29,0-.17Z"/><path class="cls-2" d="M123.86,129.85l.19.24-.9.22-.38-.37Z"/><path class="cls-2" d="M143,131.9v-.1l1.52,0a.3.3,0,0,1,0,.16Z"/><path class="cls-2" d="M122.51,123.22a.77.77,0,0,0,0-.15c.48.11,1-.34,1.47.18Z"/><path class="cls-2" d="M128.7,122.81h1.18V123h-1.29Z"/><path class="cls-2" d="M126.59,128.27h-1.11v-.19h1.13A.41.41,0,0,1,126.59,128.27Z"/><path class="cls-2" d="M120.21,128.07v-.22h1.22v.22Z"/><path class="cls-2" d="M124,125.35l1.07,0v.21l-1.07,0Z"/><path class="cls-2" d="M151.34,124.42c.2,0,.15-.57.48-.18C151.77,124.6,151.64,124.73,151.34,124.42Z"/><path class="cls-2" d="M123.4,125.74a.91.91,0,0,1,0-.17l.16.07Z"/><path class="cls-2" d="M111.48,116.16c.06.21.21.45.17.64a16,16,0,0,0-.16,4.15,11.69,11.69,0,0,1-.47,4.51c-.17.52-.26,1.07-.38,1.6l-.22,0c.14-1,.33-2.08.41-3.13.12-1.6.16-3.2.23-4.79a1.22,1.22,0,0,0-.13-.67,2.69,2.69,0,0,1-.32-1.75l.39,1.18c.36-1.26.36-1.26-.4-1.73l0-.39Z"/><path class="cls-2" d="M111.05,132.42c.14-.13.37-.23.41-.38a3.13,3.13,0,0,1,.23-.95l.26,3.15-.7-.76c-.28.21-.56.59-.87.08a1.43,1.43,0,0,1-.21-.64q0-2.44,0-4.89a.65.65,0,0,1,.31-.49,2.18,2.18,0,0,1,.08.71,4.6,4.6,0,0,0,.44,3.86c.06.08,0,.22,0,.33l-.41-.35c0,.39-.29,1,.52,1Z"/><path class="cls-2" d="M114,117.88v0l.25.83h0c.11.72.2,1.45.32,2.17s.48,1.19,0,1.77a.35.35,0,0,0-.21-.07l-.12-1.29-.17-.52-.54-2.19,0-1.24-.12-.92,0-.7.07-1.8a.82.82,0,0,0,.22,0c0,.54,0,1.08,0,1.62A3.7,3.7,0,0,0,114,117.88Z"/><path class="cls-2" d="M110.81,111.82a.7.7,0,0,1,.79-.77l.15.36-.11,1.61.82.52-.38.12c-.2,0-.49-.37-.61.12l-1.56-.58V113c.11-.27,0-.69.53-.65l-.31.54h1Z"/><path class="cls-2" d="M111.56,130.38c.07-1.54.15-3.08.22-4.63h.2c0,.93,0,1.86,0,2.79a4.41,4.41,0,0,0,.17.85l-.19,1h0Z"/><path class="cls-2" d="M109.66,121.18l.25-2.62a3.63,3.63,0,0,1-.25,3.54l-.26,0-.06-.24C109.44,121.62,109.55,121.4,109.66,121.18Z"/><path class="cls-2" d="M113.46,117.3l0,1.24c-.11.08-.29.15-.33.27-.11.33-.17.67-.25,1h-.22l.25-3C113.35,116.67,112.75,117.72,113.46,117.3Z"/><path class="cls-2" d="M113.51,131.3l.78,3.4a1.83,1.83,0,0,1-.8-1.46c-.06-.67-.2-1.34-.3-2Z"/><path class="cls-2" d="M110.56,114.75a.39.39,0,0,1,0-.21h0l.69-.25.2,1.86-.93-.43,0,0C110.53,115.39,111.07,115.06,110.56,114.75Z"/><path class="cls-2" d="M114.32,122.54a.35.35,0,0,1,.21.07c-.15.75.15,1.59-.44,2.4A4.52,4.52,0,0,1,114.32,122.54Z"/><path class="cls-2" d="M113.51,131.3l-.32-.08a3.88,3.88,0,0,1,.33-2.25h.25Z"/><path class="cls-2" d="M109.64,117.54c0-.85-.1-1.7-.16-2.54l.65.55c-.08.64-.14,1.29-.24,1.93a5.25,5.25,0,0,1-.23.74l0-.48A.67.67,0,0,0,109.64,117.54Z"/><path class="cls-2" d="M114,120.73l.17.52-.81,1.81A2.91,2.91,0,0,1,114,120.73Z"/><path class="cls-2" d="M110.13,115.55l-.65-.55a.36.36,0,0,1-.07-.17l0-.33.81.61c.09-.1.19-.23.29-.36.51.31,0,.64,0,1Z"/><path class="cls-2" d="M112,130.37l.19-1,.09-1.07.26,0c-.05.52-.06,1-.15,1.56C112.33,130.1,112.11,130.23,112,130.37Z"/><path class="cls-2" d="M108.07,127.26l-.23,0a8.21,8.21,0,0,1-.2-1.06,2.14,2.14,0,0,1,.22-.66l.36-.17c0,.23,0,.45,0,.68C108.2,126.43,108.14,126.84,108.07,127.26Z"/><path class="cls-2" d="M109.4,122.08l.26,0-.23,2.29-.37,0Z"/><path class="cls-2" d="M112.51,128.37l-.26,0,.23-1.65.19,0Z"/><path class="cls-2" d="M113.77,129h-.25c0-.83,0-1.66.08-2.5h.25Z"/><path class="cls-2" d="M108.41,129.22l.15-1.59.55-.26C108.87,128,109,128.74,108.41,129.22Z"/><path class="cls-2" d="M112.69,119.83h.22c0,.52-.06,1-.09,1.63C112,120.89,112.88,120.33,112.69,119.83Z"/><path class="cls-2" d="M109.06,124.43l.37,0v1.26A1,1,0,0,1,109.06,124.43Z"/><path class="cls-2" d="M113,115.3l-.68-1.5C113.12,114.42,113.12,114.42,113,115.3Z"/><path class="cls-2" d="M108.32,131.72c-.47-.28-.61-.64-.38-1,0,0,.2,0,.3.05Z"/><path class="cls-2" d="M113.61,113.86a.82.82,0,0,1-.22,0l.4-1.63h0Z"/><path class="cls-2" d="M113.85,126.46h-.25l.26-1.06.17,0Z"/><path class="cls-2" d="M111.75,111.41l-.15-.36.6-.63Z"/><path class="cls-2" d="M113.32,115.68l0,.7C112.76,116.16,113,115.92,113.32,115.68Z"/><path class="cls-2" d="M112,134l.71.64C112.14,134.87,112,134.68,112,134Z"/><path class="cls-2" d="M113.79,112.25l0-.83.2,0-.24.81Z"/><path class="cls-2" d="M108.51,124.16V125a.56.56,0,0,1,0-.87Z"/><path class="cls-2" d="M111.56,130.38l.42,0-.09.56h-.19Z"/><path class="cls-2" d="M108.54,132.88l-.26-.7.23,0Z"/><path class="cls-2" d="M115.64,124.9a1.28,1.28,0,0,1,0,.19l-.27-.14Z"/><path class="cls-2" d="M114.11,110.71s.12.08.12.12a.45.45,0,0,1-.07.18s-.11-.07-.11-.11A.82.82,0,0,1,114.11,110.71Z"/><path class="cls-2" d="M112.43,110.2l.23-.23C112.78,110.25,112.66,110.27,112.43,110.2Z"/><path class="cls-2" d="M112.66,110l.23-.23C113,110,112.93,110.1,112.66,110Z"/><path class="cls-2" d="M112.19,110.43l.24-.23Z"/><polygon class="cls-2" points="108.52 124.16 108.55 124.14 108.51 124.16 108.52 124.16"/><path class="cls-2" d="M137.17,139.25c0-.34.22-.42.55-.38.7.09,1.4.15,2.23.23-.36-.48-1.08,0-1.18-.67,1.78,0,3.56,0,5.34-.09a8.56,8.56,0,0,0,4-.87c.09.1.19.29.25.28,1.09-.26,2.18-.52,3.26-.83.23-.06.44-.44.59-.4.83.18,1.43-.33,2.11-.58a7.25,7.25,0,0,1,2.51-.63l.25.08-1.73,1.15a31.12,31.12,0,0,1-5.75,1.78,9.67,9.67,0,0,0-1.72.51h0c-.38-.42-.78-.16-1.17,0-1.62.15-3.23.35-4.85.42S138.75,139.26,137.17,139.25Z"/><path class="cls-2" d="M159.13,131.05c.84-.41,1.51-1.18,2.54-1.16v.57c-.84.85-2.26.82-2.93,1.77,0,.41.65.47.18.85l.47.26-.68.31a.63.63,0,0,0-.84-.25c-.22.07-.47.09-.7.14l.18-.53c-.61-.43-1,.15-1.61.14a6.54,6.54,0,0,1,.72-.49c.85-.42,1.71-.81,2.55-1.23C159.1,131.39,159.1,131.18,159.13,131.05Z"/><path class="cls-2" d="M143.35,134.23c0-.32-.17-.46-.49-.39s-.42.1-.63.15l-1.2,0a.17.17,0,0,1,0-.14c.75-.2,1.5-.42,2.26-.58a18.6,18.6,0,0,1,3.36-.43l-2.16.81-.4.09C144.21,134.39,143.72,134.21,143.35,134.23Z"/><path class="cls-2" d="M132.37,135.66l-.93-.38s0-.05,0-.05l.22-.07,1.15,0,4.49.1c-.06.11-.13.22-.19.34-.78,0-1.55-.12-2.33-.1S133.17,135.59,132.37,135.66Z"/><path class="cls-2" d="M132.35,135.8l2.23.27,2.14.26a.43.43,0,0,1,0,.16l-4.37-.39v-.3Z"/><path class="cls-2" d="M127.55,135.44c.73.07,1.46.13,2.18.23a3.12,3.12,0,0,1,.62.23l-2.8,0Z"/><path class="cls-2" d="M139.21,137.47a1.64,1.64,0,0,0,0-.22c.4-.24.79-.35,1.17.17Z"/><path class="cls-2" d="M143.54,135l.16.18-1.72.2a1.64,1.64,0,0,1,0-.22l.48-.3a.66.66,0,0,0,.93.18Z"/><path class="cls-2" d="M141.06,133.81a.17.17,0,0,0,0,.14l-.64.11c-.33,0-.66,0-1,0-.14,0-.27-.16-.41-.24Z"/><path class="cls-2" d="M140.13,133.14a.61.61,0,0,0,0,.13l-1.34.06Z"/><path class="cls-2" d="M132.35,135.89v.21l-1.59,0C131.24,135.56,131.83,136,132.35,135.89Z"/><path class="cls-2" d="M153.43,134.71l-.72.56-.16-.27.88-.3Z"/><path class="cls-2" d="M160.18,129.22l.75-.31.18.21-.78.54Z"/><path class="cls-2" d="M137.85,134.71a.94.94,0,0,1,1.32,0Z"/><path class="cls-2" d="M136.72,136.49a.43.43,0,0,0,0-.16h1.22v.16Z"/><path class="cls-2" d="M153.65,134.47l.87-.51.16.18-1,.34Z"/><path class="cls-2" d="M151.8,135.45l.39-.29.28.29-.37.28Z"/><path class="cls-2" d="M154.52,134l.38-.11c-.07.09-.14.19-.22.28Z"/><path class="cls-2" d="M156.64,134l-.43.24Z"/><path class="cls-2" d="M151.37,135.81a.4.4,0,0,0,0-.15l.08.12Z"/><path class="cls-2" d="M153.43,134.7l.22-.23h0l-.23.23Z"/><path class="cls-2" d="M156.86,133.77l-.24.25Z"/><path class="cls-2" d="M157.2,133.54l-.35.24Z"/><path class="cls-2" d="M148.84,139.49l1.85-.05c-.1.1-.18.25-.3.28-1.23.26-2.46.53-3.7.75-.19,0-.41-.18-.62-.28Z"/><path class="cls-2" d="M133.49,139v-.37c.93.08,1.85.14,2.78.23.14,0,.28.2.42.3Z"/><path class="cls-2" d="M145.65,140.36c-.12.55-.64.48-1,.52a13.9,13.9,0,0,1-2.14,0c-.11,0-.22-.23-.33-.36Z"/><path class="cls-2" d="M147.92,138.83l.22.45-1.4.16L147,139l.95-.16Z"/><path class="cls-2" d="M124.35,139.06l-.93-.24Z"/><path class="cls-2" d="M125,139.29l-.71-.24Z"/><path class="cls-2" d="M106.91,112.48c-.08-.06-.18-.11-.17-.13a1,1,0,0,1,.13-.23l.16.09A2,2,0,0,1,106.91,112.48Z"/><path class="cls-2" d="M132.8,134.93l-1.13.06a1,1,0,0,0-.34,0,10.23,10.23,0,0,1-4.47-.24l.21-.42.21-.27.41,0a1.57,1.57,0,0,0,1.43.5c1.06,0,2.12,0,3.18,0C132.56,134.53,132.85,134.51,132.8,134.93Z"/><path class="cls-2" d="M131.1,133.56l-3.33.24v-.23h1.8v-.09l-1.32-.42c.54-.43,1.06,0,1.58,0S130.89,132.85,131.1,133.56Z"/><path class="cls-2" d="M129.84,133.1c-.52,0-1-.47-1.58,0l-.73-.18.69-.44c.2-.09.4-.27.58-.26,1.38.12,2.76.28,4.13.43a.52.52,0,0,1,.41.27c-.9,0-1.8,0-2.7,0A3.06,3.06,0,0,0,129.84,133.1Z"/><path class="cls-2" d="M107.86,127.35c0,.52.06,1,.1,1.55l-.33.06,0-1.55A.31.31,0,0,0,107.86,127.35Z"/><path class="cls-2" d="M137.44,107.28l-.05-.27-.47-.25h0c-.61-.21-1.21-.42-1.83-.59-.05,0-.17.23-.26.36l-.31-.11.06-.77.15-.18,1.05.12c.63.27,1.34.26,1.87.89a1,1,0,0,0,1.52.07c.15-.14.58,0,.86.06.8.23,1.57.55,2.38.74s1.29.38,1.46,1.16l-5.14-.69,0-.38Z"/><path class="cls-2" d="M159.6,118.43c.38.22.75.44,1.14.64s.64.28,1,.42l.66.78c.29.12.61.4.86.35a10.22,10.22,0,0,0,1.66-.58l.46-.22,1.62,0a.56.56,0,0,1,.69.47c-.32,0-.63.1-1,.11s-.84-.08-1.12.34h-1.13l0,.16c.39.13.78.25,1.16.39s.38.32.18.6c-.49,0-1,.09-1.06.71l-.88,0a.29.29,0,0,1-.13-.08l-.19-.4h0l.89-.11a1.69,1.69,0,0,0-1.58-.36l0,0-.45-.3L163,121l-.81-.31c-.4-.85-1.37-1-2-1.59C160,118.93,159.8,118.67,159.6,118.43Z"/><path class="cls-2" d="M120.44,114.71v-.12l.71-.28,2.69-.3c.29.07.52,0,.51-.33h.46l.49.14c2-.08,4-.18,5.93-.23,1,0,2,0,3,0l0,.23c-3.39.19-6.79.35-10.18.6a22.28,22.28,0,0,0-3.09.63l-.45-.28Z"/><path class="cls-2" d="M120.42,121.37l-2.48.28c0-.68,0-.68-.9-.68l-.5-.63,1.38,0,.71.11,5.21-.28c.39,0,.79,0,1.18,0l0,.27-6,.54v.14l1.36.1A.57.57,0,0,0,120.42,121.37Z"/><path class="cls-2" d="M162.14,120.73l.81.31-.57.32-.21.26-.38,0a5.2,5.2,0,0,1-3.19-1,.57.57,0,0,0-.26-.1c-.34.6-.72,0-1.08,0l.71-.17-1.21-.42,0-.16c.23,0,.47,0,.69.08,1.36.32,2.71.66,4.07,1C161.73,120.93,161.94,120.79,162.14,120.73Z"/><path class="cls-2" d="M158.93,113.63l-2.92-.69.05-.25,1.71.26c-.63-.89-1.54-.65-2.23-1l.63-.45a6.75,6.75,0,0,0,3.24.7h0l.06.17.14-.13.46.68-1.75-.31-.23,0,.12.13.73.65A.6.6,0,0,0,158.93,113.63Z"/><path class="cls-2" d="M132.08,108.78a52,52,0,0,0-5.29,1,3.12,3.12,0,0,1-1.94.21l-.06-.29.64-.2.35,0c1.47-.25,2.94-.52,4.42-.75.63-.09,1.26-.09,1.89-.13A.45.45,0,0,1,132.08,108.78Z"/><path class="cls-2" d="M160.05,113l-.46-.68-.09,0h-.09l-1.49-1.13,1.23.2.69.48,1.59.72c-.06.14-.17.27-.16.4,0,.64-.36.7-.83.69C160.82,113.09,160.15,113.19,160.05,113Z"/><path class="cls-2" d="M126.38,115.4a6.87,6.87,0,0,1,1-.18c1.69,0,3.38,0,5.21,0-.53.42-1,.44-3.05.38-1,0-2.09,0-3.14.07Z"/><path class="cls-2" d="M132.81,105.38c.05-.66.61-.33.93-.48l.7,0h.1l.11,0h1.67l.05.27-.57.22-1.26-.27,0,.16.24.18-.15.18c-.34.06-.86-.28-.9.42C133.1,106.24,133.1,105.63,132.81,105.38Z"/><path class="cls-2" d="M151.81,111.75h1.42l.89.43.41.14c.3.29,1.09-.07,1,.84a8.29,8.29,0,0,0-3.64-.93c-.15,0-.3-.27-.46-.42Z"/><path class="cls-2" d="M145.88,106v-.23A15.08,15.08,0,0,1,151.4,107Z"/><path class="cls-2" d="M125.69,120.08c.79,0,1.58-.07,2.37,0a2.74,2.74,0,0,1,1.33.38H125.7Z"/><path class="cls-2" d="M137.36,121c-.69.08-1.38.2-2.08.22-1.05,0-2.1,0-3.16,0h-1.86a5.38,5.38,0,0,1,1.16-.26C133.4,120.92,135.38,121,137.36,121Z"/><path class="cls-2" d="M159.15,110c0,.2,0,.4,0,.59a7.59,7.59,0,0,1-2.88-1.77C157.54,108.83,158.2,109.76,159.15,110Z"/><path class="cls-2" d="M156.15,110.23c-1.22-.3-1.64-.56-2-1.34,1-.17,1.41.61,2,1Z"/><path class="cls-2" d="M131.41,107.55a2.3,2.3,0,0,1,2.78.29Z"/><path class="cls-2" d="M126.62,116.38a1.11,1.11,0,0,1,0,.19l-3.32.41c-.1-.48.16-.57.5-.57Z"/><path class="cls-2" d="M131.66,110.39v-.25a2.59,2.59,0,0,1,.75-.16,20.33,20.33,0,0,1,3.46.43h-2.23Z"/><path class="cls-2" d="M159.38,122.72l-1.33-.36a8.25,8.25,0,0,1,2.85.17l0,.31Z"/><path class="cls-2" d="M146.08,109.93l-.67,0-.2-.42-.42-.74a1.37,1.37,0,0,1,1.29,1.14Z"/><path class="cls-2" d="M122.27,118.37l0,.27-2.74.45v-.23Z"/><path class="cls-2" d="M126.38,115.4v.26l-2.76.23-.22-.41Z"/><path class="cls-2" d="M126.89,112.57l2-.42,0,.26a3.61,3.61,0,0,1-2.06.2Z"/><path class="cls-2" d="M123.34,112.14c.77,0,1.52-.58,2.55-.09-.92.46-1.72,0-2.44.24Z"/><path class="cls-2" d="M154.05,107.8a3.57,3.57,0,0,1-2.13-.72A3.47,3.47,0,0,1,154.05,107.8Z"/><path class="cls-2" d="M121,113l-2.16.79a.27.27,0,0,1,0-.12l2-.85A.57.57,0,0,0,121,113Z"/><path class="cls-2" d="M124.79,109.74l.06.29-.26,0-.51,0,.24-.69c.48.22,1-.5,1.46.23l-.35,0-.63,0Z"/><path class="cls-2" d="M134.16,110.69a2,2,0,0,1,0,.23l-3.22-.09a.33.33,0,0,1,0-.14Z"/><path class="cls-2" d="M120,114.76l.45-.05v.08l0,.47-1.56.5-.07-.07.22-.47h0C119.46,115.24,119.92,115.4,120,114.76Z"/><path class="cls-2" d="M133.26,120.23h-2.81v-.17h2.82A1,1,0,0,0,133.26,120.23Z"/><path class="cls-2" d="M156.15,110.23l0-.37,1.39.89-.15.15Z"/><path class="cls-2" d="M151.12,121c0,.06,0,.13,0,.19l-1.61-.21,0-.23Z"/><path class="cls-2" d="M130.11,121.2c-.77,0-1.54,0-2.31,0a1.43,1.43,0,0,1-.47-.18c.75,0,1.49,0,2.24,0C129.75,121,129.93,121.11,130.11,121.2Z"/><path class="cls-2" d="M153.72,109.13l-1.29-.5.08-.24,1.32.42Z"/><path class="cls-2" d="M118.84,113.68a.27.27,0,0,0,0,.12l-1.59.48,0-.44Z"/><path class="cls-2" d="M145.21,109.54l.2.42-1.32-.1v-.32Z"/><path class="cls-2" d="M129.38,113.16a.61.61,0,0,1,0-.19c.41.07.82-.41,1.33.07C130.24,113.34,129.79,113.12,129.38,113.16Z"/><path class="cls-2" d="M130.34,116.54a.37.37,0,0,0,0-.11h2a.42.42,0,0,1,0,.16Z"/><path class="cls-2" d="M120.42,121.37a.57.57,0,0,1,0-.13l2,0Z"/><path class="cls-2" d="M122.54,117.26l-1.19.31,0-.19,1.13-.29Z"/><path class="cls-2" d="M133.26,120.23a1,1,0,0,1,0-.17l1.33-.18,0,.36Z"/><path class="cls-2" d="M148.79,121.46a1.85,1.85,0,0,1-1.78,0Z"/><path class="cls-2" d="M156.39,116.37c.46,0,.85.18.94.71Z"/><path class="cls-2" d="M124.08,110l.51,0-.47.27-1.17,0Z"/><path class="cls-2" d="M153.19,113.86l.93.72A.87.87,0,0,1,153.19,113.86Z"/><path class="cls-2" d="M161.87,122.68l.06.31-.7-.14,0-.23Z"/><path class="cls-2" d="M118.9,115.76l-.76.38-.24-.24.44-.25.49,0Z"/><path class="cls-2" d="M155.5,108.35l.72.25-.12.26-.69-.39Z"/><path class="cls-2" d="M157.31,117.06c.37,0,.68,0,.7.48Z"/><path class="cls-2" d="M158.46,117.75l.7.47A.52.52,0,0,1,158.46,117.75Z"/><path class="cls-2" d="M161.79,121.66l.38,0,.66,0,0,0,0,.21-.1.11Z"/><path class="cls-2" d="M122.51,112.56v-.29l.83-.13.11.15Z"/><path class="cls-2" d="M125.69,120.08v.33l-.51-.08a1.43,1.43,0,0,1,0-.28A1.71,1.71,0,0,1,125.69,120.08Z"/><path class="cls-2" d="M153.27,121.33l.74.11,0,.22-.78-.22Z"/><path class="cls-2" d="M152.28,121.39c0-.06,0-.12,0-.17l1,.11-.09.11Z"/><path class="cls-2" d="M163.49,122.12l-.75-.16.1-.11.66.26Z"/><path class="cls-2" d="M152.72,113.87l.1-.55.38.54Z"/><path class="cls-2" d="M154.68,108c-.05,0-.09.1-.13.09s-.1-.06-.14-.09.05-.07.07-.07A.8.8,0,0,1,154.68,108Z"/><path class="cls-2" d="M155.41,108.47l-.31-.27.4.15Z"/><path class="cls-2" d="M154.43,114.81l.38.2Z"/><path class="cls-2" d="M156.17,115.91l.24.48Z"/><path class="cls-2" d="M117.9,115.9l.24.24-.32.17-.14-.17Z"/><path class="cls-2" d="M158,117.52l.48.24Z"/><path class="cls-2" d="M155.71,115.69l.48.24Z"/><path class="cls-2" d="M159.14,118.21l.48.24Z"/><path class="cls-2" d="M155,115.23l.47.24Z"/><path class="cls-2" d="M157.57,110.75l.19.31-.34-.16Z"/><path class="cls-2" d="M155.48,115.46l.24.24Z"/><path class="cls-2" d="M154.79,115l.24.24Z"/><path class="cls-2" d="M115.73,115.32l-.27.2c0-.11.07-.22.11-.34Z"/><path class="cls-2" d="M135.08,106.6l.71.18c-.15.76-.62.1-.92.21v-.23Z"/><path class="cls-2" d="M127.77,100.79l1.39.71a12.61,12.61,0,0,1-1.25-.28C127.82,101.2,127.81,100.94,127.77,100.79Z"/><path class="cls-2" d="M128,102.18l-.48-.23C127.81,101.78,128,101.83,128,102.18Z"/><path class="cls-2" d="M107.84,113.3l.22-1.74c.23.21.44.42.67.61s.33.21.49.32l.69.48v.23l-.45,1.3,0,.33-.14,0-.56,0,0-.43.47-.19c.11-.29.34-.6-.16-.92l-.09.66h-.25a2.63,2.63,0,0,0-.44-.5C108.18,113.29,108,113.32,107.84,113.3Z"/><path class="cls-2" d="M109.45,111.78c0-.26.06-.62-.37-.52-.63.16-.63-.18-.55-.62.36.29.64.22,1-.09a11.08,11.08,0,0,1,1.09-.82l.27.71Z"/><path class="cls-2" d="M112.73,108.47l-.13.49-.16,0,0-.54Z"/><path class="cls-2" d="M110.82,109.27l.23-.46Z"/><path class="cls-2" d="M110.59,109.74c-.17-.27-.1-.43.22-.46Z"/><path class="cls-2" d="M112,109.75l0-.42.16.07-.21.33Z"/><path class="cls-2" d="M112,109.73l-.06.08.08-.06Z"/><path class="cls-2" d="M104.85,113.8l.29-.65.34.49a.18.18,0,0,0-.14.16Z"/><path class="cls-2" d="M105.79,114.55c-.38,0-.35-.22-.24-.47Z"/><path class="cls-2" d="M105.34,113.8a.18.18,0,0,1,.14-.16l.08.45Z"/><path class="cls-2" d="M106,117.29l-.23-.28.15-.09.07.38Z"/><path class="cls-2" d="M153.43,138.87l1.14-.28c-.12.15-.23.3-.36.45s-.38.46-.57.69l-.44-.21Z"/><path class="cls-2" d="M164,133.1l-.69-.32c0,.09-.16.3-.28.52l-.64-.2h0c.06-.59.74-1,.48-1.67l-.72-.41h0c.51,0,.78-.18.78-.7l.07,0c.59.15.62.12.52-.47h0l.23-.22h0c.64.15.41.59.23.91a3.45,3.45,0,0,1-.67.71l-.18-.23.18.23v.62l1.08-.7-.17,1.67h0l-.24.23Z"/><path class="cls-2" d="M159,135.2l-.23.39.42,0-2.11,1.53-.42.07a7.34,7.34,0,0,1,2.19-2.18A.75.75,0,0,0,159,135.2Z"/><path class="cls-2" d="M160.29,133.89l.7-.78h0c.08.81.54.09.8.2h.06l0,0c-.23.31-.46.61-.7.91l-.78-.24A.15.15,0,0,1,160.29,133.89Z"/><path class="cls-2" d="M159.14,135.63a1.09,1.09,0,0,1,1.25-.7C160,135.25,159.79,135.8,159.14,135.63Z"/><path class="cls-2" d="M162.36,133.1l-.45.25,0,0h-.06l.55-.21Z"/><path class="cls-2" d="M136.61,143.27l-.06-.31.2.17Z"/><path class="cls-2" d="M163,130.36l-.07,0-.23-.33-.55,1h0l-.45-.57v-.57c.5-.27,1.06-.45,1.18-1.11l.72-.29-.3-.66h0l.5-.07c.62.66,1.49.54,2.26.76h0V129h0a.87.87,0,0,1-.41.06c-1.07-.36-1.25-.3-1.89.63h0l-.23.22h0Z"/><path class="cls-2" d="M167.3,129.67c-.27.42-.53.85-.8,1.28-.06-.26.11-.6-.31-.75-.12,0-.14-.38-.2-.59l0-.64h0l.9-.18-.16.77Z"/><path class="cls-2" d="M163.77,127.76l-.5.07.24-.68H164Z"/><path class="cls-2" d="M166,128.52l.3-.38.12.2-.43.17Z"/><path class="cls-2" d="M164.19,126.91h0Z"/><path class="cls-2" d="M154.56,138.6l1.38-.7.32.42Z"/><path class="cls-2" d="M156,137.25l.68,0-.69.69Z"/><path class="cls-2" d="M166,129.61c.06.21.08.54.2.59.42.15.25.49.31.75a6.05,6.05,0,0,0-1.43,2.6c-.34,0-.66-.59-1,.1,0-.27,0-.41-.05-.55h0l.24-.23h0a1.12,1.12,0,0,0,.73-.87,18.22,18.22,0,0,1,.87-2.29C165.82,129.66,165.92,129.65,166,129.61Z"/><path class="cls-2" d="M166,123l-.25-.24.7,0C166.49,123.25,166.25,123.11,166,123Z"/><path class="cls-2" d="M156.86,122.57l.19.39-.44,0s0-.11,0-.17Z"/><path class="cls-2" d="M164.36,123l.28-.17a.17.17,0,0,1,.06.2Z"/><path class="cls-2" d="M162.21,116.77c.41,0,1,.42,1.06-.4.38.09.34.84.93.6.09.09.17.19.26.29l-.05,0-1,.09,1.07.62v.41l1.18,1.13-.24,0c-.85,0-1.7,0-2.54.12a.45.45,0,0,1-.56-.37l.37-.36c.55.6,1.27.26,2,.41-.57-1.24-1.82-.81-2.71-1.33l1.24,0-1-1.14Z"/><path class="cls-2" d="M163,113.84l-.44,0,.24-.25Z"/><path class="cls-2" d="M162,113.53a.85.85,0,0,1-.17.06s0,0-.07-.07l.18-.06S162,113.5,162,113.53Z"/><path class="cls-2" d="M163.28,116.39,161.89,115C162.75,115.08,163.06,115.69,163.28,116.39Z"/><path class="cls-2" d="M161.67,114.79l-.47-.23Z"/><path class="cls-2" d="M161.89,115l-.23-.24Z"/><path class="cls-2" d="M164.46,117.26l.08.13-.13-.08Z"/><path class="cls-2" d="M164.79,122.81l0-.25,1.11-.18-.07.42Z"/><path class="cls-2" d="M167.87,117.75l.23.46Z"/><path class="cls-2" d="M168.1,118.21l.23.46Z"/><path class="cls-2" d="M129.38,100.35l-.24-.24Z"/><path class="cls-2" d="M159.85,92.79c-.14.29-.29.24-.44,0Z"/><path class="cls-2" d="M159.83,92.55h.59l-.58.23Z"/><path class="cls-2" d="M160.4,92.57l.37-.25Z"/><path class="cls-2" d="M141.61,101.6l.36,0-.18.21Z"/><path class="cls-2" d="M141.75,102h-.25c0-.12.08-.23.11-.35l.18.16A1.42,1.42,0,0,1,141.75,102Z"/><path class="cls-2" d="M136.82,133.55l.2.43a17,17,0,0,1-4.67-.42v-.18Z"/><path class="cls-2" d="M132.35,133.38v.18h-1.27C131.43,133,131.92,133.42,132.35,133.38Z"/><path class="cls-2" d="M137.86,133.56h-1.05A.71.71,0,0,1,137.86,133.56Z"/><path class="cls-2" d="M163.51,127.15l-.24.68h0c-.42,0-.44.31-.46.62-.48.3-.3-.39-.58-.38l.76-.93Z"/><path class="cls-2" d="M162.81,128.45c0-.31,0-.62.46-.62l.3.66-.72.29Z"/><path class="cls-2" d="M160.93,128.91l.6-.21.07.2-.49.22Z"/><path class="cls-2" d="M123.17,124.21l-.91,0,.92-.23Z"/><path class="cls-2" d="M122.06,124.18h-.73C121.58,123.83,121.82,123.76,122.06,124.18Z"/><path class="cls-2" d="M108.71,114.75l.56,0c0,.49,0,1,0,1.46s-.12.59-.59.55A3.67,3.67,0,0,1,108.71,114.75Z"/><path class="cls-2" d="M107.15,113.4h.58l-.36.65C106.65,114.05,107.33,113.59,107.15,113.4Z"/><path class="cls-2" d="M109.22,114.13l-.47.19,0-.45H109Z"/><path class="cls-2" d="M110.6,114.54l-.12-.07h.06l0,.07Z"/><path class="cls-2" d="M151.89,138.65l-1.71.23,0-.15,1.68-.37Z"/><path class="cls-2" d="M161.92,116.77a7.36,7.36,0,0,1-3-1.91,4.86,4.86,0,0,1,3,1.74A.33.33,0,0,1,161.92,116.77Z"/><path class="cls-2" d="M157.68,114.18l-.47-.18.06-.15.53.22Z"/><path class="cls-2" d="M158.08,114.25l.26.23-.37-.12Z"/><path class="cls-2" d="M158,114.36l-.29-.18.12-.11.28.18Z"/><polygon class="cls-2" points="158.82 114.7 158.78 114.64 158.86 114.65 158.82 114.7"/><path class="cls-2" d="M161.92,116.77a.33.33,0,0,0,0-.17l.3.17-.09.09A.34.34,0,0,1,161.92,116.77Z"/><path class="cls-2" d="M135.08,106.6l-.21.16a1.93,1.93,0,0,1-.42,0c-.07,0-.12-.12-.18-.19l.27-.1.31.11Z"/><path class="cls-2" d="M162.36,120.27l2.52-.23a10.22,10.22,0,0,1-1.66.58C163,120.67,162.65,120.39,162.36,120.27Z"/><path class="cls-2" d="M159.39,133.35l.69-.81c-.21-.41-.25-.79.44-.84l.26.5,0,.44C160.27,132.83,160.06,133.52,159.39,133.35Z"/><path class="cls-2" d="M160.08,134.26a1.64,1.64,0,0,1-.26.33c-.07.07-.18.09-.4,0l.55-.45Z"/><path class="cls-2" d="M161,133.11l.23-.23h0c-.07.08-.13.17-.19.25Z"/><path class="cls-2" d="M158.82,135l.27-.08-.12.24A.75.75,0,0,1,158.82,135Z"/><path class="cls-2" d="M160,134.15l.32-.26a.15.15,0,0,0,.14.13l-.35.24Z"/><path class="cls-2" d="M162.12,131l.55-1,.23.33C162.9,130.86,162.63,131.08,162.12,131Z"/><path class="cls-2" d="M163.29,131.28l-.18-.23.18.23Z"/><path class="cls-2" d="M160.78,132.2l-.26-.5.61-.23C161.35,131.92,161.17,132.12,160.78,132.2Z"/><polygon class="cls-2" points="161.77 131.43 161.75 131.37 161.81 131.38 161.77 131.43"/><path class="cls-2" d="M164.73,129.7c.34.2.49.41.19.71a.3.3,0,0,1-.29,0C164.32,130.14,164.5,129.93,164.73,129.7Z"/></g></g></svg>