<svg xmlns="http://www.w3.org/2000/svg" viewBox="0 0 250.51 242.66"><defs><style>.cls-1{fill:#fff;}.cls-2{fill:#060b2b;}</style></defs><title>Fichier 4</title><g id="Calque_2" data-name="Calque 2"><g id="A4"><rect class="cls-1" width="250.51" height="242.66"/><path class="cls-2" d="M138.59,72c1-.4,2.1-.77,3.13-1.2A4.44,4.44,0,0,0,144,69c.62-1.14,1.17-2.32,1.78-3.46a10,10,0,0,1,.78-1.06l0,.37c-.18.44-.39.88-.53,1.33a6.7,6.7,0,0,1-1.16,2.27c-.23.29-.41.62-.61.93l-.45.87L148,69.12l4.53-.73.9.08,0,.43A14.8,14.8,0,0,0,148.06,70l1.7,0c-1.13.6-2.3.55-3,1.41l-1.23-.21c-.23-.64-.23-.64-1-.39l-1.64.37a3.07,3.07,0,0,0-2,1.85l6.06-.46a1.27,1.27,0,0,0,0,.2c-.77.11-1.53.24-2.3.34-1.28.16-2.56.3-3.85.45a.6.6,0,0,0-.71.43l-.63-.28-1.1.33c.19-.68.73-.66,1.15-.74.69-.12,1-.51,1.24-1.28a28.54,28.54,0,0,0-3.5,1.79,3.7,3.7,0,0,0-2,3.53,20.76,20.76,0,0,1-.3,2.42c.4,0,.66.06.91.11a1.48,1.48,0,0,0,1.71-.93l.59-1.2.28,0-.74,2,.79,0L140,80l.23.22-2.49.36c-.8-.44-.84-.42-1.08.43l-1.31.54,0,.16.92.19-.91.18-1-.1-1,3.44,1.24.2,6,.79-.48.43-6.95-.74-.41,1.74c.14.09.2.16.27.16,3.52.12,7,.66,10.5,1,2.74.29,5.44,1,8.21,1a13,13,0,0,1,2.4.56c1.72.38,3.42.86,5.16,1.08a15.91,15.91,0,0,0,4.36,0,58.15,58.15,0,0,1,8.84-.55c1.31,0,2.53-.09,3.11-1.53l0,.33-.3,1a31,31,0,0,0,3.63-.06,39.35,39.35,0,0,1,6-.27,50.05,50.05,0,0,0,6.69-.68c4.19-.45,8.36-1.25,12.61-.89,1.82.15,3.65.15,5.47.27a24,24,0,0,1,2.66.38,8.5,8.5,0,0,1,3.62,2.16,6.78,6.78,0,0,1,.67.74l-.46.43c-.37-.37-.72-.77-1.11-1.11a6.37,6.37,0,0,0-2.82-1.57,47.06,47.06,0,0,0-10.4-.74c-.82,0-1.65-.13-2.46,0-2.34.25-4.67.64-7,.87-2.91.3-5.82.51-8.74.72-.78.06-1.57,0-2.36,0-2,.14-4,.33-6,.51a1.15,1.15,0,0,0-.7.23,16.91,16.91,0,0,0-1.19,1.44l1.17.29-1.71-.28.75-.88.41-.62c-.91,0-1.69-.14-2.47-.11-1.81.09-3.62.24-5.43.37l-5.57.47-.91-.06-2.19-.59-1.41-.26a8.31,8.31,0,0,1-1.75-.28,21.93,21.93,0,0,0-5.12-1,1.22,1.22,0,0,0-1.38,0l-2.18-.55h-.53a13.15,13.15,0,0,1-1.66-.17,47,47,0,0,0-8.18-1c-.81,0-1.63.07-2.44.11-1.26.7-.92,1.82-.77,2.93h.42l.15.28-.19.49a9.21,9.21,0,0,0,1.1,5.32l-.07.25c-.35.21-.32.53-.23.86L133,99l-.42-.71-.61,2c-.22.42-.47.82-.66,1.25s-.42,1.11-.63,1.66l-.15-.93a7.34,7.34,0,0,1,.53-1.58,2.49,2.49,0,0,0,.24-2.46c-.32,1.17-.66,2.39-1,3.6a8.27,8.27,0,0,1-.88,2.49,2.15,2.15,0,0,0-.37,1.59l-.12.59-.38-.74-.31-1-.13,0,0,1-.25.48-1.06-1.65-.16-.36a3.92,3.92,0,0,0-.25,1.73c.09.91.29,1.8.45,2.7a3.72,3.72,0,0,0,0,3.2l.34-.92,0,.43-.07,1.38c0,.79-.27,1.66.51,2.28l.67.69c.11-.15.28-.28.31-.45a2.12,2.12,0,0,0-.07-.65l.59-.19a.69.69,0,0,0,.11.13c-.48.42-.05.59.29.81l.14-.69.69-.42c-.33.68-.2,1.51-.7,2.17-.13.17.1.62.17.94l-.5.21c-.32-.25-.55-.17-.72.19l-.63.61-.63.21-.28-.94-.18,0-.32,1.59-.32-1h-.21l-.16,1.48c-.06.45-.09.9-.17,1.34a25.9,25.9,0,0,0-.26,6.81l.45.29c1.12-.07,2.23-.16,3.34-.19.87,0,1,0,1-.86s0-1.35,0-2l.3-.3c.09.69.23,1.38.27,2.07,0,.36,0,.87-.18,1.07-.7.64-.54,1.44-.56,2.22l-.74,0h0c-.21-.4-.5-.55-.91-.27-.1.11-.28.2-.3.32a3.08,3.08,0,0,0,0,.74c-.2-.19-.36-.27-.46.09,0,.17-.12.34-.18.52l-.17-.72-.19,0-.39,1.42c-.15.6-.29,1.19-.43,1.77-.2,0-.11-.75-.53-.2a10.16,10.16,0,0,0-.25,1.53c0,1.49,0,3,0,4.46a1.43,1.43,0,0,0,0,.55,1.89,1.89,0,0,0,.44.4c.11-.13.28-.25.31-.39a6.65,6.65,0,0,0,.06-.89l.21-.22.24.42c.36.16.3.82.88.74l.44,0c.41,0,.57-.19.56-.63,0-.81,0-1.62.06-2.44l.41.26-.09,1.82.93.56c.47-.8.21-1.68.29-2.51l.44,0A11.34,11.34,0,0,1,131,139a2.13,2.13,0,0,1-1.42,2.23l-.93.93a.29.29,0,0,1,0,.16h-.28l-.44.19-.22.18-.25.27c-.21-.08-.43-.15-.49.18l-.48.62c-.16.11-.41.34-.47.31-.48-.35-.64.07-.87.33l.09-1.33c.18.18.39.38.59.06,0-.07-.15-.3-.25-.45s-.11-.08-.17-.12a2.09,2.09,0,0,0-.34-1.6,1.35,1.35,0,0,1-.2-.83c0-1.24.14-2.47.16-3.7,0-1.65,0-3.3,0-4.94,0-.48.08-1,.07-1.44a2.85,2.85,0,0,0-.18-1.29,2.48,2.48,0,0,1-.3-1.39,55.14,55.14,0,0,1,.82-9.17,4.63,4.63,0,0,0,.12-.89,2.43,2.43,0,0,1,.69-2,3.61,3.61,0,0,1-.52-2.56c.11-1.45.12-2.91.11-4.36a14.83,14.83,0,0,0-.26-2.83c-.18-.91-.59-1.77-.81-2.68-.31-1.26-.48-2.56-.8-3.83a17.77,17.77,0,0,0-1.24-4.51c-.2-.36-.26-.81-.52-1.22a13.13,13.13,0,0,0-1.59,5.06c-.13-.56-.27-1.11-.4-1.67.21-1,.35-1.92.64-2.84a23.33,23.33,0,0,1,1-2.35l.43-.24c.67.24,1.21.5,1.07,1.43-.08.47.42.51.82.43.27.92.54,1.83.8,2.75l-.25.66.23.69.36,1.79a16.29,16.29,0,0,0,.72,3.78c-.26-.76.28-1.29.51-1.89l.44.23a6,6,0,0,1,.15.83c0,.51,0,1-.07,1.52.72,0,.72-.45.74-.86.14-2.9.26-5.81.39-8.72,0-.14,0-.29,0-.44-.07-.65-.15-1.31-.22-2,.25-.53.45-.11.67,0,.36-.06.44-.31.35-.62,0,0-.26,0-.4,0a4.78,4.78,0,0,0,.28-.61,1.46,1.46,0,0,0,0-.42c.3-.12.84.23.85-.45l.79-.69,1.23-.39,0-.16-.94-.13a1,1,0,0,1,0-.17c.17-.15.46-.29.48-.46.08-.65.08-1.3.11-2,.31.07.38.28.37.58,0,.48,0,1,0,1.46.79-1.07.36-2.21.3-3.32,0-.12-.4-.21-.61-.32l-.19-.07a4.1,4.1,0,0,0,.48-.21c.31-.19.19-.3-.08-.38l-1.95-.17s0-.1,0-.15l1.72,0c.13-.1.38-.22.37-.31,0-.54-.16-1.09-.26-1.63h0a1.25,1.25,0,0,0-.17-1.37l0-.47.58-1.32.71-1.09.51-.54c.31-.34.1-.5-.21-.62l-.87-.47-.48-.53-.18-.17a3,3,0,0,0-.26-.42s-.19,0-.29,0l.06.37h-2.44l-.67-.11V74h.93l1.85.09a4.28,4.28,0,0,1-.54-1.08c-.09-.91-.21-1.07-1.22-1.19l-.23-.07v-.23l.2-.3a2.88,2.88,0,0,1-1-1.9l-.19-.53-.27-1.3-.18,1-.51.88.05-.93-.18-.06-1.39,2.36-.06-.06-.2-.68a9.08,9.08,0,0,0,2-4.14.81.81,0,0,0-.31-1l.85-.13c.43-.21.15-.44,0-.67.44-.3.8-.23.92.3s.56.78,1.11.88a5,5,0,0,1,1,.5c-1,0-1,0-1.15.85-.14-.1-.4-.2-.41-.31,0-.57-.52-.65-.87-.87s-.56-.11-.54.27a11.1,11.1,0,0,0,.24,1.28c.16.75.3,1.5.49,2.23A3.41,3.41,0,0,0,130,71.39l.38.45A12.07,12.07,0,0,1,131.3,73c.27.45.63.43,1,.34A2.07,2.07,0,0,0,134,75.4l1.07-1-.12-1.18c0-.84-.06-1.68-.12-2.52a3.77,3.77,0,0,0-1-2.72,1.92,1.92,0,0,0-1.15-1.1c.29.48.53,1,1.17,1.08-.12.34-.37.38-.59.16-.39-.37-.72-.8-1.09-1.2-.18-.2-.39-.39-.58-.59a4.65,4.65,0,0,1,.61-.36,8.52,8.52,0,0,1,.86-.26l.91,1.36,1.23,1.87c.14,1.72.28,3.44.43,5.34ZM130.1,92.62c.46-1,.46-1.14-.07-1.81l-.09,1.8-.29.88c-.7.3-.54.89-.47,1.44s.19,1.31.3,2c-.5-.19-.5-.19-.66.12a34.61,34.61,0,0,0-.2,3.52l.25.06.28-.61a2.78,2.78,0,0,0,.33-.64c.17-.69.29-1.39.42-2.08h0a1.69,1.69,0,0,0-.15-2.27,1,1,0,0,1-.09-1.4l.2.25s0,.07.05.09,0,0,.13,0Zm2.7-9.11,0,1.2a16.51,16.51,0,0,0,1-2.67c.17-.51-.41-.53-.5-.86.81-.43,1-.55.86-.9s.1-.61.17-.91c.29-1.21.4-2.47.6-3.82a7.27,7.27,0,0,0-2.07,2,7.17,7.17,0,0,0-.61,1.87,19.91,19.91,0,0,0,.19,3.08A4.76,4.76,0,0,0,132.8,83.51Zm-4.48,15h.13l.15-3h-.13ZM130.76,94c-.27.49-.44,1,.13,1.44Zm-1.42,8.43c-.44.67-.44.67-.23,1.25Zm-4.18,0,.23-.12-.27-.62-.18.07Zm10.43-22,0-.26-.8.09,0,.25Zm-6,20.72.16.09a1.6,1.6,0,0,0,.22-.31,1,1,0,0,0,0-.34l-.17,0ZM132,96.67l-.18,0a2.79,2.79,0,0,0-.07.4.88.88,0,0,0,.1.3l.12,0Z"/><path class="cls-2" d="M126.21,195.46a5.53,5.53,0,0,1-.38-5.13,3.78,3.78,0,0,0,.09-3,8.84,8.84,0,0,0-.11-1.55,19.45,19.45,0,0,1,0-5.65s.06,0,.1,0,.08,0,.08,0c0,.41,0,.82,0,1.22,0,.06.24.1.37.15l.07.87h.3l.13-1.54.21,0c.28.12.29.11.33-.37.53.43.23,1.05.34,1.57.06.3,0,.61.08.91a32.53,32.53,0,0,0,.83-3.45.22.22,0,0,0,0-.11c-.16-1.22-.31-2.44-.47-3.66a14.88,14.88,0,0,0-.53,2.85c0,.29-.13.57-.2.86l-.2-2.21c.35-.21.37-.5.13-1L127,177l-.13,1.51c-.06,0-.18-.08-.18-.11,0-1.05,0-2.1.12-3.14a2.6,2.6,0,0,0,0-1.3l-.41.7a9,9,0,0,0-1.16-3.29,23.24,23.24,0,0,1-.21-3c.07-1.56.3-3.1.43-4.66a7,7,0,0,0-.11-1.28c0-.81,0-1.63,0-2.44,0-2.19.55-4.36.28-6.56l-.36-1.79.28-.95.14.06.19,1.22.48-.31a.67.67,0,0,0,1,0l.63-.39a1.94,1.94,0,0,1,1.61.26l.23,0h.45l.42.47-.24.21-2.53,1a7.34,7.34,0,0,0-1.09,2.57,20.15,20.15,0,0,0-.46,5.52,1.18,1.18,0,0,0,.08.39c.23.11.58-.32.62.3s.43.34.69.07c.79-.06.79-.06.91-.89.64-.18.49-.83.82-1.25l.16,1.48c.19-.38.12-.92.33-1.06.73-.5.48-1.16.46-1.81,0-.44,0-.89,0-1.33l.63,1.15c0,1,.06,2.08.07,3.12a.8.8,0,0,1-.17.53,2.9,2.9,0,0,0-.58,2.42c.08,2.43.2,4.85.29,7.28a3.32,3.32,0,0,1-.22,1.86,1.65,1.65,0,0,0,0,1c.12.7.29,1.39.43,2.08l.25.71c-.07,1.51-.12,3-.22,4.53a2.08,2.08,0,0,1-.36,1.14,2.61,2.61,0,0,0-.48,1.43c-.39-.36-.78-.77-1.36-.3l.21,1.54-.1.89-.25.47c-.11-.87-.21-1.74-.33-2.7l-.8.24c.14.74.31,1.38.4,2a2.76,2.76,0,0,0,.65,1.9c0-.61.05-1.06.07-1.5l.36,1.26H129l.16-.48a2.76,2.76,0,0,0,.5-.46,8.22,8.22,0,0,0,.42-.84,3.39,3.39,0,0,1,0,.78,5.2,5.2,0,0,0,.26,2.18,31.37,31.37,0,0,1,.5,4.54c0,.74-.19.92-1.44,2.15l-1-.79.94-2.78c.44-.92-.22-1.73-.13-2.61H129l-.07,1.42-.44,1.55-.74.24-.61-1.78-.21,0,.12.91c-.42.14-.63-.15-.84-.42-.47.26-.18.72-.27,1.09Zm.19-26.1c-.06,1-.37,2.09.51,2.95l.89.16c-.17.46.15.71.43,1a8,8,0,0,0,.28-1.27c.08-1.29.11-2.59.16-3.89h0c.08.42.15.85.25,1.27.22,1,.46,1.92.71,2.87,0,.07.18.1.33.18,0-3.05-.09-6.05-.13-9.14a5.93,5.93,0,0,0-1.19,1.28,6,6,0,0,0-.12,1.73L128,165.2c0,1-.08,1.76-.12,2.56l-.2.22-.29-1.69-.15,0-.51,2.1Zm2.67,10.18L129,180.9l.7-1.7c.08,1.27-.56,2.52,0,3.81l.15-.94c.57-.16.6-.24.37-1.11l-.29.17a10.54,10.54,0,0,0,.22-5.2c-.06-.28,0-.62-.61-.59,0,1,.08,1.93.11,2.88l-.27.63-.33-3.17-.22,0Zm-1.62,2.4-.31,0,0,1h.24Zm-1.19-14.76-.36,0-.09.91.25,0Zm3.63,25.53h.27a5.46,5.46,0,0,0,0-.7c0-.05-.14-.09-.33-.21ZM127.42,188c-.45.57-.28.84.18,1.06Zm2.17,6.38.26,0,.09-.76-.17,0Z"/><path class="cls-2" d="M130.54,65.79a5,5,0,0,0-1-.5c-.55-.1-1-.26-1.11-.88s-.48-.6-.92-.3l-.49,0-.23.26.69.44-.85.13c-.35-.4-.49-.07-.65.18l-2.06,3.3-.31,0,.62-1.56-1.13.73c0-.59-.54-.67-1-.83a4.85,4.85,0,0,0-1-.79,1.83,1.83,0,0,0-1.16-.17,3.42,3.42,0,0,1-1.74-.06c-.75-.19-1.53-.28-2.29-.41l-.15-.45h.89c-.43-.71-1.1-.27-1.59-.5a.76.76,0,0,0,0-.15h1.32l1.55.33,1,.21.2-1.26.55.34c-.6-.88-.35-1.86-.38-2.79.42-.76.42-.76,1-.71-.33,1-.8,2,.23,2.85a2.55,2.55,0,0,1,.1-2.44c.54-.71.95-1.46,2-1.63s1.51.68,2.36.72a3.66,3.66,0,0,0-1-.72,3.78,3.78,0,0,0-3.25,0l-.23-.44a11.65,11.65,0,0,1,1.62-.41,8.9,8.9,0,0,1,1.54.06c.26-.39.45-.84.11-1.14a1.83,1.83,0,0,1-.5-1.84,5.82,5.82,0,0,0,0-.68c.81.51.34,1.61,1,1.92l1.72-.44c.89.12,1.77.25,2.66.36a2,2,0,0,0,.53-.1l1.06-1.23c.1.2.27.39.27.58a1.1,1.1,0,0,1-.25.59,2.3,2.3,0,0,0-.3,2.08l-.43,0-1.31-.59.95-.31c-.8-.44-1.4-.71-2.23-.12a4,4,0,0,0,.67.78,9.72,9.72,0,0,0,1.14.63l-.21.64-.76.78.19.2.71-.72,1.62-.31c-.22.63-.39,1-.49,1.44s-.51.77-.2,1.24c0,.64,0,.64.57,1l-.21-.54.44,0c1.48,1,2,.74,2.77-.09l.42,0-.32.62.2.45.25.44-.38.52.12.11.5-.35c.12.31.27.54.64.3l1.76-.26.25.4,1.56-.72.26.25a3.44,3.44,0,0,1-2.89,1.13,5.08,5.08,0,0,0-2,.36,2.34,2.34,0,0,1-.54.09,8.52,8.52,0,0,0-.86.26,4.65,4.65,0,0,0-.61.36l-.55,0-.46.16Zm-5-8.39-.86.08,1.15.66.4-.69c-.22-.24-.09-1-.81-.59Zm-2.08,5.43A3.17,3.17,0,0,0,122,60.36a1.68,1.68,0,0,0-1.37,1.72c.1.64.83,1,1.79,1C122.74,63,123.08,62.89,123.43,62.83Zm-1.69-3c1.18.06,1.25,1.24,2.07,1.72l.29-1.25C123.47,59.61,122.82,59.17,121.74,59.87Zm3.81,4.39c.42-.05.78-.16.62-.68-.14.05-.27.05-.32.12A5,5,0,0,0,125.55,64.26ZM127,62.62h.21l.05-1.13h-.15ZM127,58.45l.11-.23-.4-.25-.16.28Z"/><path class="cls-2" d="M54.39,83.07l-2.67-.83c-1.61-.5-3.23-1-4.81-1.52a8.64,8.64,0,0,1-3.67-2,3.21,3.21,0,0,0-.74-.5A22.77,22.77,0,0,1,37,73.66a2.53,2.53,0,0,1-.43-.51c-.75-1.75-2.15-3.16-2.66-5-.13-.45-.47-.86-.55-1.31a3.36,3.36,0,0,1,2.13-3.6A30.3,30.3,0,0,1,40,61.81a8.39,8.39,0,0,1,2.35,0,40.23,40.23,0,0,1,7,.69c.8.19,1.6.38,2.39.61a42.94,42.94,0,0,0,6.84,1.19c1.82.22,3.61.57,5.43.8,2.15.26,4.32.4,6.47.68a12.44,12.44,0,0,1,5.25,1.82,27.86,27.86,0,0,1,4.58,3.2c-.2.61-.56.47-1,.2a8.66,8.66,0,0,0-3.95-2.7l-.23,0c-.08-.12-.13-.3-.25-.35a12,12,0,0,0-4.36-1.41c-.88-.15-1.76-.34-2.66-.43a4.76,4.76,0,0,0-2.74.22l-.29-.5c-1.78-.22-3.56-.46-5.34-.64a16.53,16.53,0,0,0-2,0l0,0c0-.23,0-.43-.36-.4s-.9.16-1.08,0c-.42-.41-.89-.31-1.35-.38s-.74-.1-1.11-.18c-1.57-.33-3.14-.7-4.72-1a38.23,38.23,0,0,0-8.61-.44,15.35,15.35,0,0,0-4.13.94,2.63,2.63,0,0,0-1.89,2,27.45,27.45,0,0,1,8.38-1l1,.22a11.58,11.58,0,0,1,3.41.44,9.53,9.53,0,0,0,1.6.5c2,.35,4.05.65,6.07,1,1,.18,2,.42,2.94.63l-.74.18c-1.71-.19-3.42-.34-5.13-.58a26.89,26.89,0,0,1-4.4-.82A24,24,0,0,0,43,65.33a9.9,9.9,0,0,0-4.23.18,4,4,0,0,1-.77.14l-4,.45a8.52,8.52,0,0,0,1.07,3.55l1.36-.41,1.29-.37.06.09c-.35.19-.69.39-1,.56s-.86.35-1.26.52c1.85,4.38,5.56,6.62,9.19,8.83l3-.93.46.23a7.93,7.93,0,0,0-2.91,1.22c1.23.47,2.29.92,3.38,1.29s1.94.52,2.9.83a2.27,2.27,0,0,0,1.62-.07,12.51,12.51,0,0,1,2.06-.4l0,0c-.52.43-1.38.2-1.82,1,.42.09.77.18,1.13.24,3.86.68,7.73,1.28,11.56,2.06a4.19,4.19,0,0,0,3.48-.53l.2.21-1.19.78a14.6,14.6,0,0,1,2,.55,2.32,2.32,0,0,0,2.32,0c.06,0,.19,0,.33.07l-.62.63c.56.34,1.07.63,1.55,1a13.19,13.19,0,0,0,3.83,1.76,1.5,1.5,0,0,0,1.26-.17c.45-.24.93-.43,1.4-.65l-1.39,1.2a25.89,25.89,0,0,0,3.15.45c1.79,0,3.58-.08,5.37-.13l.42.45A22.28,22.28,0,0,1,80,90c-1.64-.58-3.29-1.14-4.93-1.75a7.25,7.25,0,0,1-1.59-.82,12.34,12.34,0,0,0-4.06-1.81c-1.12-.28-2.25-.55-3.39-.74-2.5-.42-5-.8-7.52-1.19Z"/><path class="cls-2" d="M33.38,101.64a2.33,2.33,0,0,1-.55-2,4.24,4.24,0,0,1,1.68-3,20.74,20.74,0,0,1,9.55-3.92,30.19,30.19,0,0,1,6.37-.4c.78,0,1.57,0,2.35-.07A21.77,21.77,0,0,1,58.1,93a38.14,38.14,0,0,0,10.72.58,18.66,18.66,0,0,1,3.58.1,53.36,53.36,0,0,0,12,.3c2.23-.26,4.45-.6,6.67-.92a29.17,29.17,0,0,1,6.8-.4,32.26,32.26,0,0,0,3.8-.14l.73.53a36.3,36.3,0,0,1-4,.25,39.21,39.21,0,0,0-9.49.68c-1.72.35-3.45.6-5.18.91a.79.79,0,0,0-.46.26,2.31,2.31,0,0,0-.48,2.37c.35,0,.71-.07,1.08-.09,1-.06,2-.1,3-.15v.17L82.77,98a4.64,4.64,0,0,0,2,1.43l.53,1.93L87,102l.35-1a.82.82,0,0,1-.91-.63c-.12-.32-.7-.46-1.07-.68.42.1.85.18,1.26.3s.94.33,1.41.5l-.24.48-.33,1.16a3.55,3.55,0,0,0,2.72.28l-.64-1.12,0,0h.25L91,102.27l-.19.58v.31c-.89-.06-1.78-.17-2.67-.16-.64,0-1.28.26-1.49-.66,0-.09-.24-.18-.38-.21l-1.64-.27c-.24-.67-1-.93-1.69-1.26a6,6,0,0,1-1.26-.72,2.53,2.53,0,0,0-1.45-.47c-.85-.08-1.69-.25-2.53-.38a.86.86,0,0,1,0-.16h.9l1.37.3L80,99l-1.4-.27-1.42-.31.56-.22,1.32.21.09-.23L78,97.5l-.75-1.42a4.79,4.79,0,0,0,3.89,1.46c-.16-.59-1-.52-.9-1.22a3.8,3.8,0,0,0,1.77.91,8.94,8.94,0,0,1,.18-1c.08-.35.22-.68.37-1.12A9,9,0,0,0,81.16,95c-.73.09-1,.52-.86,1.34-.78-.33-.14-1-.28-1.45-4.92-.17-9.79-.76-14.69-.48l-7-.55-.88-.12A10.78,10.78,0,0,0,52.09,93c-2.24,0-4.48,0-6.72.17a20,20,0,0,0-9.47,3.23c-.26.16-.49.36-.84.62l2,0a1.49,1.49,0,0,0,0,.21c-.56.07-1.11.13-1.66.21a2.3,2.3,0,0,0-.85.15,3,3,0,0,0-.83,3.19l2.54-.53,0,.31L35,101l-1.16.38Zm46.44-3.78-.09.27c1.1.9,2.61.85,3.81,1.58l-1.17.11c.85.44,1.41,1,2.21.93,0-1.12-.4-1.52-2.19-2.06l-.3-.72Z"/><path class="cls-2" d="M56.89,67.62l.74-.18c1.55.27,3.1.51,4.64.81a3.28,3.28,0,0,0,2.53-.08l-.18.55c3.49,1.8,7,3.59,10.52,5.41a10.81,10.81,0,0,1,3.7-2.3l1.58-.37c.63,0,1.27,0,1.9,0,1.9,0,3.8-.07,5.69-.12,1,0,2-.08,3-.12L92.93,71c3.1.06,6.21.09,9.32.2,1.23,0,2.45.26,3.68.39a7.09,7.09,0,0,0,.76,0c-.65-1.28-1.9-1.56-2.87-2.17s-2.17-1-3.21-1.55-2.29-.38-3.66-.36c.59-.87,1.34-.42,1.77-.67l-.14-2.21a2.59,2.59,0,0,1,.37.72,2.35,2.35,0,0,0,1.71,2c.77.26,1.52.58,2.27.87l.21.09,1.58,1a7.77,7.77,0,0,1,2.7,2.13c.14.21.49.28.75.41a19.32,19.32,0,0,1,5.61,1.19l-.75.41-3.76-.64-1.21-.27.83,1.69c.15.84.83.64,1.37.69l-.88.44.59.72.78.64c.75.47,1.49,1,2.26,1.42,1.1.62,2.26,1.12,3.32,1.8a10.28,10.28,0,0,0,4.11,1.11s.11-.07.2-.13l0-.75.46,0,.37,1-1.35.34-.62,0,0,.15,1.22.36-.62.42c-.3-.13-.6-.25-.9-.39-1.21-.54-2.35-1.3-3.77-1.25,0,0,0-.08,0-.13s-.15-.38-.28-.46c-1.64-.88-3.29-1.74-4.94-2.61l-.1-.74-1.47-.45-.69-.22.94-.27c0-.74-.53-.51-.86-.63,0-.05,0-.1,0-.15l.54-.16a2.24,2.24,0,0,0-1-1.67c-.08,0-.21-.17-.2-.19.34-.59-.17-.58-.48-.64-.55-.09-1.1-.13-1.65-.19a15.45,15.45,0,0,0-2.08-.38c-2.25-.08-4.49-.1-6.74-.12-1,0-2.09,0-3.13.08a36.89,36.89,0,0,1-3.92.2,57.62,57.62,0,0,0-8.31.1,8.17,8.17,0,0,0-4.89,2c-.47.43-1,.82-1.46,1.22-.06,0-.21,0-.38,0l0-.72A36.29,36.29,0,0,0,67.82,71c-.74-.34-1.39-.9-2.15-1.17a45.36,45.36,0,0,0-4.39-1.35C59.83,68.15,58.36,67.91,56.89,67.62Z"/><path class="cls-2" d="M120.2,96.77l.4,1.67c0,2.16.12,4.33.09,6.5a17.19,17.19,0,0,1-.4,2.64c-.37,2.07-1.7,3.63-2.88,5.26a2,2,0,0,1-1,.63,1.31,1.31,0,0,0-1,1.06c-.17.77-.38,1.53-.52,2.3a3.41,3.41,0,0,0,.68,2.52c-.58.32-.75-.26-1.12-.48l-1,.91-.22-.13c1.22-1.41,1.13-3.16,1.41-4.81L115,114l-9,2c-3.5.1-7,.17-10.51.32-1.47.06-2.93-.13-4.4-.14s-3-.15-4.47-.24c-.3,0-.6-.06-.89-.09l.91-.41,1.12.09.59-.15a3,3,0,0,0,.71.27c2,.1,4.12.4,6.15-.25l.42.31c.49,0,1,.07,1.45,0,1.71-.07,3.42-.16,5.12-.25a10.33,10.33,0,0,0,1.67,0q4-.72,8-1.51c.94-.19,1.86-.51,2.79-.76s.86-1.08.94-1.73c.15-1.26.18-2.53.26-3.8,0-.81.08-1.61.12-2.44l-.68-.08v-.51c.14-.18.21-.34-.06-.48l.1-.22.81,0,0-.8-1.8.16-2.1.13a.86.86,0,0,1,0-.16c.33,0,.66-.08,1-.15.89-.2,2,0,2.38-1.22,0,0,.14-.06.21-.06.58,0,.66-.42.73-.8.11-.62.15-1.25.22-1.88l.33,1.36v1.27l.41.16-.66.31,0,.19,2.89.47c0-1.4,0-2.6-.08-3.81L119,99v-.23l.79-.27ZM116,112.64c2.78-1.44,4.46-6.29,3.51-9.28-.87-.08-1.72-.57-2.75-.25l-.09,1.78,1.14.3,0,.17-1.23-.06Z"/><path class="cls-2" d="M133.66,62.36l-.42,0-.25-.67,0-.26c.08-.14.25-.33.21-.43a10.57,10.57,0,0,0-.57-1.12,8.48,8.48,0,0,1-1,.55c-1.32.52-1.37.59-1.22,2l-.44,0-.36-.42c-.31-.47.11-.84.2-1.24s.27-.81.49-1.44l-1.62.31c0-.09-.09-.17-.14-.26l.21-.64.78-.39.43,0c.81.1,1.63.18,2.44.3a3.23,3.23,0,0,1,2.74,3.49c0,.23-.06.45-.09.67s0,.35-.08.65a6.74,6.74,0,0,0,2.73-.6,1.66,1.66,0,0,0,.75-.8,14.86,14.86,0,0,0,.7-3,13.43,13.43,0,0,0-.2-3.35,4.31,4.31,0,0,1,1.2-3.69,15.4,15.4,0,0,1,4.47-3.3,5.39,5.39,0,0,0,1.44-1,10.64,10.64,0,0,0,1-1.7,1.5,1.5,0,0,1,.25.31c.43,1,.57,1.1,1.66,1l.56-.06c-.09.27-.1.53-.21.6a1.67,1.67,0,0,1-.85.25,2.49,2.49,0,0,0-2,1,11.53,11.53,0,0,1-1.62,1.34c-1.08.73-2.2,1.38-3.3,2.08a1.3,1.3,0,0,0-.61,1.34,1.55,1.55,0,0,1-.09.77c-.56,1.36-.28,2.78-.33,4.18a8.63,8.63,0,0,1-2.1,5.43l-.26-.25-.14-.24c-.51.27-1.16.33-1.42,1l-.25-.4-1.83-.08.07.34c-.37.24-.52,0-.64-.3l-.24-.28-.25-.44-.2-.45c1.06-.08,1.28-.35.9-1.14ZM146.45,48A3.62,3.62,0,0,0,145,49.37c.92-.1,1.21-.74,1.59-1.26.3-.15.61-.3.51-.79Zm-6.73,12.21c.51-1.11.51-1.18.09-2Zm.83-6.48c-.56.53-.52.93-.08,1.55Zm-.78.44h-.34v1.2h.18Zm2.83-3.59.2.23.68-.62-.17-.19Zm-1.33.91.15.2.64-.5-.11-.15Zm-6.82,9.78.21-.08-.24-.62-.16.05Z"/><path class="cls-2" d="M120.09,81.46l1.35-.34a2.69,2.69,0,0,1,.25.29c-.35.42-.12.86-.07,1.28.1.78.25,1.55.34,2.32a.92.92,0,0,0,1.05.91c.45,0,.49.15.22.47l-1-.27-.17.2.65,1.18c.25.55.7.54,1.29.39l-.14-2.08.75-.47c.39.86.39.86.86.32.14.14.27.36.43.38a12.67,12.67,0,0,0,1.38,0l.57-.06h1l.48,0,.47,0,.4,0a1.5,1.5,0,0,1,0,.22c-.16.16-.41.29-.45.47a5.55,5.55,0,0,0,0,1.08l-.31.23V86.4l-3.09.12-.77.06.13.82c-.45.24-.37.69-.37,1.06a1.72,1.72,0,0,1-.46,1.17l-.36-.64c-.59.37-.55.73-.11,1.11l-.93.36c.06-.32.24-.67-.33-.84l.33.83-.66.44-.57-2.33c-.37-.58-.57-1.28-1.24-1.65s-1.79-.14-1.85.35-.32.61-.66.71-.48.51-.59.86l-.25-1.27-1.07.78c-.78.48-1.74.71-2.32,1.51a7,7,0,0,0-.82.19c-.49.17-1,.37-1.44.55l-.45-.47,4.69-2.31,0-.15c-.6.12-1.22.2-1.81.37a22,22,0,0,1-6.21.69c-2.43,0-4.85.2-7.28.36-3.36.22-6.72.49-10.08.73l-2.71.06-.42-.45c1.41-.09,2.83-.22,4.25-.26a60.47,60.47,0,0,0,8.49-.67,28.18,28.18,0,0,1,3.45-.34c2.12-.07,4.25-.05,6.38-.12a32.85,32.85,0,0,0,8.31-1.71,6.13,6.13,0,0,0,.88-.45l-1.13-.2v-.18l3.24.16c-.25-1,.08-2-.86-2.54a.86.86,0,0,0,.31-1C120.87,81.52,120.47,81.55,120.09,81.46Zm4.59,5.89.23-.15-.36-.45-.14.12Z"/><path class="cls-2" d="M115.76,64.81l.15.45c-.9,0-1.79-.11-2.69-.12a1.28,1.28,0,0,1-1.36-1.07c-.14-.62-.26-1.24-.34-1.87-.15-1.22-.19-2.46-.43-3.67a20.19,20.19,0,0,0-1-3.3,4.9,4.9,0,0,0-1.8-2.11c-1.89-1.38-3.79-2.75-5.68-4.14a6.51,6.51,0,0,1-.7-.69c.36-.34.81-.59,1-1a4.81,4.81,0,0,0,.11-1.49c.61.43.78,1.08,1.16,1.54a11.86,11.86,0,0,0,1.29,1.16c0,.87.15,1.05,1.07,1.18,1.25.46,2.07,1.54,3.17,2.22a5.12,5.12,0,0,1,2.08,2.56,6.55,6.55,0,0,1,.33,1.39c.35,2.1.67,4.2,1,6.29A.88.88,0,0,0,114,63c.81.12,1.61.28,2.42.42.51.09,1,.16,1.51.23,0-.58-.06-1.2-.11-1.81a1.83,1.83,0,0,1,.59-1.52c.68-.62,1.44-1.16,2.16-1.73l.23.44c-.63.59-1.52,1-1.71,1.93-.55.86-.16,1.67.12,2.49l-.2,1.26-1-.21a1.2,1.2,0,0,0-1.51-.49c-.46,0-1-.32-1.36.17a.76.76,0,0,1,0,.15l-.77.07ZM103.85,49l-.83-.87c0,.68,0,.68.82,1,.13.45.37.71.89.56l1.45,1,.15-.2-1.59-1.17C104.51,49,104.29,48.67,103.85,49ZM112,61.51c.1.52-.1,1.12.31,1.56l.27,0-.3-2.33c-.15-.87-.31-1.75-.47-2.62l-.33-2.28a3.48,3.48,0,0,0-1-2.52l-.41-.43-.12.13.46.58a5.9,5.9,0,0,0,.84,2.71,2.85,2.85,0,0,0,.54,2.15Zm-4.49-10.26-.14.21L109,52.77l.19-.24A3.86,3.86,0,0,0,107.49,51.25Z"/><path class="cls-2" d="M212.69,60a2.22,2.22,0,0,1,1.86.88c.38.46.82.88,1.17,1.36a2,2,0,0,1,.47,1,18.28,18.28,0,0,1,0,3.47,3.7,3.7,0,0,1-1,1.82c-1.29,1.35-2.63,2.66-4,3.9a33.82,33.82,0,0,1-6.09,4.4c-.62.34-1.27.63-1.9,1a6.15,6.15,0,0,1-2.52,1.08,6.6,6.6,0,0,0-2.45,1.06,40.38,40.38,0,0,1-4.32,1.77c-.93.39-1.87.76-2.81,1.12-.53.2-1.07.34-1.6.51l-.47-.46,2.49-1-3-2.58.3,0,1.32,1c1.2,1,2.46,1.49,4,.67.26-.14.56-.2.84-.32.46-.2.91-.43,1.44-.68a9.34,9.34,0,0,0-2.48-2.07c-.7-.49-1.37-1-2.05-1.53a5.76,5.76,0,0,1,1,.48c1.11.74,2.21,1.49,3.28,2.3a1.34,1.34,0,0,0,1.6.23c1-.5,2-.9,3.05-1.34l.72-.15L205.26,76l-.32-.76a1,1,0,0,0,1.24.11c.37-.24.77-.44,1.12-.71,1.25-1,2.51-2,3.73-3,.93-.8,1.84-1.63,2.71-2.5a10.51,10.51,0,0,0,1-1.42c.23-.37.62-.71.68-1.1.35-2.12.27-4.13-1.73-5.53-.15-.11-.28-.24-.42-.36Z"/><path class="cls-2" d="M113,73.46l.75-.41c1.41.45,2.83.89,4.24,1.35.38.13.75.29,1.25.47,0-.72,0-1.35.1-2,.13-1.11.3-2.21.46-3.32a2.75,2.75,0,0,1,1.25-2c.38-.08.86,0,.79-.65l.21-.22c.43.16.92.24,1,.83a.83.83,0,0,0,0,.15,3.8,3.8,0,0,0-1.66,2.25l.42-.07a.58.58,0,0,0,.19,0l-1.07,1.4a1.45,1.45,0,0,0,1.44-.79,18.64,18.64,0,0,0,.87-1.66l.36-.48.31,0-2.21,4.41-.54.44c-.66.16-.79.56-.57,1.13.13,0,.22,0,.28,0,.26-.15.5-.31.76-.47l.24,0-.35.6a1,1,0,0,0,1.08-.81.61.61,0,0,0,.19,0l.19-.12-.07.48,1,.09-1,.53.15.24.79-.47.3,0a4.85,4.85,0,0,1-.55.56.77.77,0,0,0-.2,1.2l1.3-.35.22.21-1.39.61-.46.17-.32-1.16c-.79.44-.5,1.08-.63,1.58l-.27,0,.1-1h-.38l-.26.27-.49-.43c-.5.09-.54.48-.47.86s.24.78.34,1.17c.15.65.28,1.31.42,2l-.46,0a9,9,0,0,1-.61-1.53,5.61,5.61,0,0,0-4-4.3C115.06,74,114,73.75,113,73.46Zm8.66-1.59c-1-.13-1-.1-.75,1Zm-.94,4,.33,0L121,75C120.57,75.3,120.42,75.57,120.75,75.85Zm-.49-3.54.18,0,.14-1-.17,0ZM122.33,75l-.13.13.33.3.13-.14Z"/><path class="cls-2" d="M216.26,93l.46-.43a5.28,5.28,0,0,1-2,7.83,35.94,35.94,0,0,1-4.46,1.76c-1.4.51-2.82,1-4.22,1.48s-3.07,1.16-4.61,1.74a8.05,8.05,0,0,0-1,.27,57.13,57.13,0,0,1-8.21,2.89,6.19,6.19,0,0,0-.92.39l-3.9.88-.43-.37.25-.22,5.19-1.39a12.4,12.4,0,0,0,1.51-.4c1.09-.41,2.14-.89,3.22-1.3,2.25-.83,4.5-1.63,6.75-2.44,3-1.09,6-2.16,9.06-3.26a8.36,8.36,0,0,0,1.49-.76,4.54,4.54,0,0,0,2.14-5.49C216.51,93.75,216.38,93.36,216.26,93Z"/><path class="cls-2" d="M187,109.41l.43.37c-2.29.34-4.57.76-6.87,1a37.54,37.54,0,0,0-7.12,1.48c-.85.26-1.74.41-2.61.61-.14,0-.27.08-.43.13l.31.71a6.62,6.62,0,0,0-4.11-.11,32.33,32.33,0,0,1-10.84,0c-2.7-.45-5.41-.81-8.12-1.2l.24-.43c.64,0,1.28,0,1.9.1,2.11.28,4.2.62,6.31.9,1.4.19,2.81.37,4.21.47a26,26,0,0,0,2.79,0c.57,0,1.2.14,1.64-.42,1.2.48,2.28,0,3.46-.34l-1.8-1.59a4.39,4.39,0,0,1,1.26.64,2.56,2.56,0,0,0,2.77.61c.32-.09.66-.14,1-.24a56.14,56.14,0,0,1,12.19-2.21l.49-.15,2-.17Z"/><path class="cls-2" d="M147.9,111.94l-.24.43L145,112c-.87-.18-1.74-.35-2.61-.54l-4.89-1.06a9,9,0,0,0,.14,1.27c.12.54.32,1.07.49,1.6.12.93.21,1.86.38,2.78a3,3,0,0,0,.54.91c.12.46.91.56.7,1.34l-1.33-.86c-.13.5-.25,1-.36,1.39l-.69-.2a10.09,10.09,0,0,0,.5-2.71c-.19-2-.6-4-.95-6a1.41,1.41,0,0,0-.38-.67,8,8,0,0,1-1.5-2.59c-.32-1.35-.61-2.7-1-4-.32-1.18-.71-2.35-1.07-3.53l.22-.25c.69.46.62,1.22.76,1.89.11.26.11.64.71.66l-.44-.9.24-.85c.27.36.23,1.11,1.07.81l-.11-1h.19l.21.25c0,.51,0,1.12.55,1.2.93.13,1.68.88,2.68.71l.27.25-3.77.09-.49.16-.47-.2c.74,4,1.48,6.21,2,5.82v-.32l.22-.44c.11.47.23.94.33,1.42a1.57,1.57,0,0,0,1.11,1.29c1.75.5,3.52,1,5.28,1.41.15,0,.31,0,.45,0Zm-12.56-11-.14.27c.29.54.82.35,1.33.25Z"/><path class="cls-2" d="M162.47,67.53l2.32-.06L169,67.4l1.63.14c1.29-.19,2.6-.34,3.87-.6,1.91-.4,3.81-.82,5.68-1.33,3.14-.86,6.27-1.74,9.36-2.72a37.2,37.2,0,0,1,6.58-1.38l.21.45-1.36.25-3.69.67a3,3,0,0,0,3-.22c.11-.08.29,0,.44-.06.34.5.75-.09,1.11.07-.36.13-.73.26-1.09.41-1,.46-2.22.18-3.23.71h0c-.18-.1-.36-.29-.54-.29a7.77,7.77,0,0,0-2.66.28c-2,.71-4.12,1.34-6.18,2-.32.08-.64.17-1,.24l-3.39.69a4.49,4.49,0,0,0-.9,0c-1.64.37-3.29.72-4.91,1.15a8.57,8.57,0,0,1-4.12,0,6.27,6.27,0,0,0-2.66.07,10,10,0,0,1-1.09.23c-1.56.16-3.12.34-4.69.43s-3.21.08-4.81.11l-1-.33a5.07,5.07,0,0,1,.76-.14c2.2-.14,4.4-.24,6.59-.4A9,9,0,0,0,162.47,67.53Z"/><path class="cls-2" d="M189,82.82l.47.46a51.24,51.24,0,0,1-8.36,2.13c-.59.09-1.17.25-1.76.35-.88.15-1.77.27-2.66.41-2.47.36-4.94.74-7.42,1.09-.7.1-1.42.1-2.12.16l-1.33.13c-2.08,0-4.15,0-6.23,0-1.67,0-3.34-.06-5-.09l-.68-.47c1.87,0,3.75,0,5.6.12a46.8,46.8,0,0,0,8.62-.33c2.41-.24,4.81-.66,7.21-1,4.17-.65,8.37-1.19,12.36-2.68A9.22,9.22,0,0,1,189,82.82Z"/><path class="cls-2" d="M128.56,105.77c.12.25.25.49.38.74,0,.86-.3,1.76.32,2.61,0-1,0-1.88-.06-2.79a1.25,1.25,0,0,0-.14-.41,2.15,2.15,0,0,1,.37-1.59,8.27,8.27,0,0,0,.88-2.49l.24.44.15.93a11.14,11.14,0,0,0-.87,4.48c.08,1.48.24,3,.38,4.45.06.71.12,1.41.19,2.12l-.69.42-.43-.12a.69.69,0,0,1-.11-.13,4.92,4.92,0,0,1-.11-1.07,14.38,14.38,0,0,0-.55-4.88c0-.18-.35-.31-.57-.48l0-1.76.25-.48Z"/><path class="cls-2" d="M83.81,115.6a46.81,46.81,0,0,1-8.65-1.37c-1.78-.41-3.62-.6-5.42-.9l-5.3-.91.25-.44c.38,0,.75,0,1.12.08l10,1.58a1.68,1.68,0,0,0,.3.15,51,51,0,0,0,8.68,1.59.9.9,0,0,1,.21.08s0,.05.07.2Z"/><path class="cls-2" d="M54.35,111.63a39.13,39.13,0,0,1-8.81-2.41c-1.65-.78-3.39-1.35-5.07-2.06a15.7,15.7,0,0,1-4.7-3l0-.37a20,20,0,0,0,4.58,2.83c.41.18.81.37,1.22.53,1.9.76,3.79,1.52,5.7,2.25.73.28,1.48.49,2.23.73a1,1,0,0,0,.93-.17c1.09-.7,2.24-1.33,3.36-2l.24.25c-1,.71-2.22,1.1-3.09,2.15l1.28.36,2.11.65C54.36,111.49,54.35,111.56,54.35,111.63Z"/><path class="cls-2" d="M154.54,87.49l-2.3.3c-3.16.32-6.27-.3-9.41-.44a18.82,18.82,0,0,1-2.73-.54l.48-.43c1.86.17,3.71.31,5.57.52a23.37,23.37,0,0,0,6.14.12,9.15,9.15,0,0,1,1.57,0Z"/><path class="cls-2" d="M212.69,60l.61.71a33.74,33.74,0,0,0-4-.62,26.74,26.74,0,0,0-8.27,1.27l-3.27.36-.73-.28a6,6,0,0,1,1.82-.37,31,31,0,0,0,4.4-.82A18.87,18.87,0,0,1,212.69,60Z"/><path class="cls-2" d="M126.29,151.71l-.48.31-.19-1.22-.14-.06-.28.95a5.23,5.23,0,0,1-.13-.87c0-2.13,0-4.26.06-6.39.23-.26.39-.68.87-.33.06,0,.31-.2.47-.31l0,.07c-.14.95-.29,1.91-.42,2.87-.07.55-.11,1.11-.14,1.67A9.72,9.72,0,0,0,126.29,151.71Z"/><path class="cls-2" d="M130.6,152.14l-.42-.47a8.38,8.38,0,0,0,.17-1.64c-.07-.78-.39-1.54-.4-2.32a27.25,27.25,0,0,0-.92-5.07c0-.17-.25-.31-.39-.46l.93-.93a18.37,18.37,0,0,1,.53,2c.3,1.87.55,3.74.78,5.62A11.58,11.58,0,0,1,131,151,4.46,4.46,0,0,1,130.6,152.14Z"/><path class="cls-2" d="M127.83,153.33l2.53-1c-.47.28-.32.7-.24,1.09.22,1,.5,1.94.67,2.93a21,21,0,0,1,.17,2.1l-.63-1.15-.91-3.15-.21.05.08.64-.33-.13c-.09,0-.24-.08-.27,0a3.23,3.23,0,0,0-.27.44C128.37,154.43,128.58,153.74,127.83,153.33Z"/><path class="cls-2" d="M111.55,90.12l.45.47-9.17,2.46c.1-.52-.43-.43-.63-.66,1.89-.43,3.78-.85,5.67-1.31C109.1,90.79,110.32,90.44,111.55,90.12Z"/><path class="cls-2" d="M126.21,195.46l-.3-2.31c.1-.07.28-.13.28-.2a6.63,6.63,0,0,0,0-.89c.21.27.42.56.84.42.26,1,.51,1.92.77,2.88l.09.32c.1.44.25,1-.28,1.13-.31.08-.79-.27-1.1-.54S126.3,195.74,126.21,195.46Z"/><path class="cls-2" d="M130.83,137.49l-.44,0c0-.4-.12-.8-.15-1.2a22.76,22.76,0,0,0-.85-6.08l.74,0a6.59,6.59,0,0,1,.5,1.58C130.74,133.69,130.77,135.59,130.83,137.49Z"/><path class="cls-2" d="M130.6,124.85l-.3.3a8.56,8.56,0,0,1-.32-1.28c-.22-2.09-.41-4.19-.61-6.29l.5-.21a10.28,10.28,0,0,1,.21,1.08C130.26,120.58,130.43,122.72,130.6,124.85Z"/><path class="cls-2" d="M54.35,111.63c0-.07,0-.14,0-.21l4,.22.7,0,5.58.36-.25.44-6.25-.32-.93-.08Z"/><path class="cls-2" d="M128.68,186.69l.1-.89c.14.52.29,1,.44,1.55a10.42,10.42,0,0,0-.09-2.68c0-.16-.36-.28-.56-.41.58-.47,1-.06,1.36.3l.1,2.06a8.22,8.22,0,0,1-.42.84,2.76,2.76,0,0,1-.5.46C129,187.51,128.82,187.1,128.68,186.69Z"/><path class="cls-2" d="M146.62,64.81l0-.37-.49-2.29c.42.33.42.33.77,1.3L148.77,62c-.1.89-.8,1-1.12,1.45S147,64.37,146.62,64.81Z"/><path class="cls-2" d="M197.06,61.39l.73.28-.09.6,1.57-.11a1.23,1.23,0,0,1,0,.2,3.16,3.16,0,0,1-2.62.16s-.13,0-.2.06c.12-.23.51-.5-.09-.62l-.21-.45Z"/><path class="cls-2" d="M138.64,133.09a2.89,2.89,0,0,1-.63.82c-.16.11-.51-.07-.78-.11.08-.26.09-.65.26-.75a3,3,0,0,1,1-.19Z"/><path class="cls-2" d="M57.26,112l.93.08a14.18,14.18,0,0,1-2.63,1.41l-.14-.22a4.87,4.87,0,0,1,.5-.4C56.36,112.59,56.81,112.3,57.26,112Z"/><path class="cls-2" d="M83.81,115.6l1.24.06c0-.15,0-.19-.07-.2a.9.9,0,0,0-.21-.08c.66-.69,1.25-.14,1.86.08l-.91.41Z"/><path class="cls-2" d="M35.8,103.83l0,.37a7.33,7.33,0,0,1-2.39-2.56l.48-.24C34.11,102.53,35,103.12,35.8,103.83Z"/><path class="cls-2" d="M106.53,49.72c-.92-.13-1.08-.31-1.07-1.18Z"/><path class="cls-2" d="M131,177.46l-.25-.71.39-.93A2.22,2.22,0,0,1,131,177.46Z"/><path class="cls-2" d="M125.39,142.59c.06,0,.14.07.17.12s.3.38.25.45c-.2.32-.41.12-.59-.06Z"/><path class="cls-2" d="M102.2,92.39c.2.23.73.14.63.66h-.45l-.73-.53Z"/><path class="cls-2" d="M121.87,66.91c.07.62-.41.57-.79.65Z"/><path class="cls-2" d="M175.63,89.9l0-.33.25-.62L176,89Z"/><path class="cls-2" d="M122.81,90.89l.66-.44h0l.93-.36.47-.47a1.72,1.72,0,0,0,.46-1.17c0-.37-.08-.82.37-1.06l.62.28,0,.64,1.06.5,1.65-.16.23,0,1.33.08-.79.69-1.43-.09-.84.19.55.83.43-.58.44.1a1.46,1.46,0,0,1,0,.42,4.78,4.78,0,0,1-.28.61l0,.67c-.22-.14-.42-.56-.67,0-.51-.38-.79-.18-.93.37l-.54,1.36,0-1.53-1.19-.06-.73.25-.35,1.23c-.4.08-.9,0-.82-.43.14-.93-.4-1.19-1.07-1.43Zm3.46-1,0,.2c.06,0,.13.12.18.11a1.69,1.69,0,0,0,.29-.17Z"/><path class="cls-2" d="M127.91,106.24l0,1.76c.22.17.54.3.57.48a14.38,14.38,0,0,1,.55,4.88,4.92,4.92,0,0,0,.11,1.07l-.59.19c-.05-.47-.08-.93-.16-1.4s-.22-1-.34-1.57a3.17,3.17,0,0,0-.32-2.25l.12,1.62-.67-.08-.34.92a3.72,3.72,0,0,1,0-3.2,18.37,18.37,0,0,0,.23-2.08,15.09,15.09,0,0,0-.27-2Z"/><path class="cls-2" d="M136.39,94.24a5.91,5.91,0,0,0-.74-.76,8.85,8.85,0,0,0-1-.63l-.22-.49-.61-.58,1.22-.49c-.36-1.11-1.4-1.13-2.19-1.64l-.34,1.94h-.42c-.15-1.11-.49-2.23.77-2.93a.65.65,0,0,0,.38.84c.6.29,1.21.55,1.88.86.29-.43.54-.85.82-1.23s.32-.33.86.14c-.51.25-1,.51-1.05,1.21.41.24.8.57,1.3.19l.2.26.16.42-2-.49a7.66,7.66,0,0,0,1.23,2.6.84.84,0,0,0,.34.28l2.14.88v.25c-.4-.13-.8-.27-1.21-.38a1,1,0,0,0-.42,0l-.4,0h0Zm-1.29-2,.16-.22-.54-.28-.11.19Z"/><path class="cls-2" d="M172,94.18c-.12-.72.44-.74.9-.87l1.71.28,8.3.22,9.74.29.78.05a1.15,1.15,0,0,1,0,.19c-2,0-3.95,0-5.92-.06-2.32-.07-4.62-.26-6.94-.29a12.27,12.27,0,0,0-2.5.44l-.44-.2a9.33,9.33,0,0,0-1.27-.29c-.81-.07-1.63,0-2.44-.12a1.91,1.91,0,0,0-1.87.67Z"/><path class="cls-2" d="M126.84,132.34c.08,1.81.15,3.62.23,5.42a8.73,8.73,0,0,0,.72,2.75c-.58.08-.52-.58-.88-.74l-.12-1.38-.21,0,.09.93-.21.22c-.07-1-.1-2-.2-3s-.25-1.8-.38-2.7c.42-.55.33.2.53.2Z"/><path class="cls-2" d="M131.57,81l-1.95.23-.21,1.14c-.18-.56-.51-.6-1-.55s-1.25.26-1.81-.2l-.47-.28L126,81.1l.64-.47.33.52c.14.52.49.21.72.21l-.31-.4a11.36,11.36,0,0,0,1.19-.19,5.91,5.91,0,0,0,.88-.37c.37.84,1,0,1.61.34.16-.46.28-.8.39-1.14A1.25,1.25,0,0,1,131.57,81Zm-3.1.27,0,.17.49-.07,0-.2Z"/><path class="cls-2" d="M129.9,97.32c-.13.69-.25,1.39-.42,2.08a2.78,2.78,0,0,1-.33.64c-.1-1,.22-2-.33-3,.16-.31.16-.31.66-.12-.11-.71-.22-1.36-.3-2s-.23-1.14.47-1.44v.17a1,1,0,0,0,.09,1.4,1.69,1.69,0,0,1,.15,2.27c0-.43.05-.87.07-1.3l-.25,0Z"/><path class="cls-2" d="M148.76,71.63c-1.21.18-2.42.38-3.63.53-.41.06-.86.34-1.33-.16l1.06-.37-.6-.34.25-.57c.77-.25.77-.25,1,.39l1.23.21-.49.38Z"/><path class="cls-2" d="M128.11,65.46c0,.52.08,1,.17,1.55.05.29,0,.72.54.66.07,0,.19.13.22.21.21.79.4,1.58.61,2.37a4.66,4.66,0,0,1-.78-.9c-.4-.76-.71-1.56-1.06-2.34a11.1,11.1,0,0,1-.24-1.28C127.55,65.35,127.82,65.33,128.11,65.46Z"/><path class="cls-2" d="M125.84,98.47l.38.71.36,1.82v0c-.23.6-.77,1.13-.51,1.89a16.29,16.29,0,0,1-.72-3.78l.26-.66Z"/><path class="cls-2" d="M151.79,69.55l2-.42,0-.14-.4-.09,0-.43a.38.38,0,0,1,.21,0l1,.33.23.55,1,0a12.8,12.8,0,0,1-4.08.38C151.78,69.69,151.78,69.62,151.79,69.55Z"/><path class="cls-2" d="M125.19,70.77c0,.31-.06.67.31.73a.61.61,0,0,0,.75-.51c.08-.36.2-.72.31-1.08l.4.43-.48,1.07,2.2.11v.23l-.25,0-1.34-.06c-.38-.06-.74-.08-.85.42-.38-.2-.76-.4-1,.18l-.39-.75-.19-.48,0-.31.43-.09Z"/><path class="cls-2" d="M140,80a10.48,10.48,0,0,1,4.32,0,1.49,1.49,0,0,1,0,.21l-4.07,0Z"/><path class="cls-2" d="M148,91.89c-.08-.37-.17-.74-.23-1.11a2,2,0,0,1,.07-.47,1.22,1.22,0,0,1,1.38,0c-.69.13-.7.15-.34.7.08.52.17,1,.25,1.56l-.89-.27c.49,0,.48-.31.36-.72l-.36.55Z"/><path class="cls-2" d="M128.42,132.42c-.1.56-.21,1.12-.29,1.69,0,.26.16.6-.26.73-.1-1.06-.19-2.12-.28-3.18.06-.18.13-.35.18-.52.1-.36.26-.28.46-.09Z"/><path class="cls-2" d="M135.06,74.39c-1.07.25-1.73-.42-2.39-1.07l-.22-.24.46-.41c.64.31,1,1.11,1.86,1.17l.17-.63Z"/><path class="cls-2" d="M126.61,119.27l.1,2.53-.18,0c-.2-.68-.41-1.36-.61-2l.16-1.48h.21Z"/><path class="cls-2" d="M140,73.9c-.56,1.25-1.11,2.51-1.67,3.77l-.28,0c.4-1,.82-2,1.18-3,.12-.31.49-.63.14-1Z"/><path class="cls-2" d="M131.26,83.83l-1.65.09-.87-.21-.44-.26a1.13,1.13,0,0,0,0-.18l.25-.42,1.15.07s0,.1,0,.15l0,.29,2-.12c.27.08.39.19.08.38A4.1,4.1,0,0,1,131.26,83.83Z"/><path class="cls-2" d="M129.73,87.81l1.1.11a1,1,0,0,0,0,.17,7.49,7.49,0,0,0-1.07.2c-.2.06-.35.26-.53.4l-.23,0c-.46-.27-1.12-.24-1.34-.88a2,2,0,0,0,.76,0c.22-.07.37-.33.52-.48l.49.7Z"/><path class="cls-2" d="M133.67,98.17l.84,1.42-.24.85-.27.24c-.14-.67-.07-1.43-.76-1.89-.09-.33-.12-.65.23-.86Z"/><path class="cls-2" d="M132,77.81c.05-.9.09-1.81.14-2.72l.87.47-.3,1.16Z"/><path class="cls-2" d="M128.91,132.19c-.13-.73-.27-1.47-.41-2.2.41-.28.7-.13.91.27-.34,0-.47.15-.44.44s.11.85.17,1.28Z"/><path class="cls-2" d="M127,70.34l-.4-.43.15-.51.51-.88c0,.3,0,.65.45.27l.19.53Z"/><path class="cls-2" d="M136.27,81.87c.62,0,1.31-.41,1.85.27l-.47.2-2.29-.29Z"/><path class="cls-2" d="M128.32,98.51l.15-3h.13l-.15,3Z"/><path class="cls-2" d="M130.92,71.86l-.5,0-.38-.45-.4-1.16,1.3,1.23Z"/><path class="cls-2" d="M128.39,119.32a3.63,3.63,0,0,1-.28-.51,2.05,2.05,0,0,1-.09-.43l.63-.61c.07.3.13.61.19.91Z"/><path class="cls-2" d="M125.84,98.47l-.24,0c-.14-.41,0-1-.62-1.13l-.23-.69.45,0A2.66,2.66,0,0,1,125.84,98.47Z"/><path class="cls-2" d="M133.67,98.17l-.2-.24.07-.25.9-.8C134.39,97.73,134.37,97.75,133.67,98.17Z"/><path class="cls-2" d="M129.94,92.61l.09-1.8c.53.67.53.79.07,1.81Z"/><path class="cls-2" d="M128.85,137.4c0-.46-.07-.92-.1-1.38l.13,0,.49,1.13-.11.48Z"/><path class="cls-2" d="M132.63,91.87c.43.18.86.39,1.31.55.13,0,.3,0,.46-.06l.22.49-2.18-.49C132.5,92.2,132.56,92,132.63,91.87Z"/><path class="cls-2" d="M130.76,94l.13,1.44C130.32,95,130.49,94.51,130.76,94Z"/><path class="cls-2" d="M131.45,82.9c0-.65.07-1.29.11-1.94.1.54.21,1.09.26,1.63C131.83,82.68,131.58,82.8,131.45,82.9Z"/><path class="cls-2" d="M145.64,89.76c.38,1.08.36,1.15-.35,1.78a1.65,1.65,0,0,0-.18-1.79Z"/><path class="cls-2" d="M128.43,71.8l.25,0,.23.07L128.82,74h-.28Z"/><path class="cls-2" d="M127.67,115l.19-1c.44.55.26,1.18.48,1.68Z"/><path class="cls-2" d="M125.13,70.71l-.43.09-.53-.43.48-.88.14.13.14.41Z"/><path class="cls-2" d="M126.75,73.74l1.14.24v.22l-1.36-.26Z"/><path class="cls-2" d="M128.63,142.34c.14.6.46,1.18.12,1.8l-.4-1.79Z"/><path class="cls-2" d="M126,126.18l-.06,2-.45-.29c.17-.58.34-1.15.52-1.73Z"/><path class="cls-2" d="M127,143.17v1.34l-.22.2-.2-.85,0-.07Z"/><path class="cls-2" d="M146.91,72.48l1.11-.14v.35H146.9A1.27,1.27,0,0,1,146.91,72.48Z"/><path class="cls-2" d="M128.56,105.77h-.4c0-.32,0-.65,0-1l.13,0Z"/><path class="cls-2" d="M125.16,102.41l-.22-.67.18-.07.27.62Z"/><path class="cls-2" d="M127.34,143.89l.1-.9.25-.27c0,.11,0,.21,0,.31l-.06,1.21h-.18Z"/><path class="cls-2" d="M127.68,143c0-.1,0-.2,0-.31l.22-.18.24,1.27-.19.05Z"/><path class="cls-2" d="M128.64,91.61l0-.67c.14,0,.39,0,.4,0C129.08,91.3,129,91.55,128.64,91.61Z"/><path class="cls-2" d="M129.61,101.13l.26-.6.17,0a1,1,0,0,1,0,.34,1.6,1.6,0,0,1-.22.31Z"/><path class="cls-2" d="M125.2,96.64l-.45,0L125,96Z"/><path class="cls-2" d="M127.23,111.37l.23.25-.3,1.13C127.18,112.29,127.21,111.83,127.23,111.37Z"/><path class="cls-2" d="M125.84,180.11c.09-1.17.17-2.35.28-3.53,0-.63.15-1.25.24-1.88l.41-.7a2.6,2.6,0,0,1,0,1.3c-.1,1-.09,2.09-.12,3.14,0,0,.12.07.18.11.1.76.19,1.53.29,2.29l-.21,0-.36-.65-.14,1.31c-.13,0-.36-.09-.37-.15,0-.4,0-.81,0-1.22,0,0-.06,0-.08,0S125.87,180.1,125.84,180.11Z"/><path class="cls-2" d="M127.26,151.76c-.06-.43-.15-.87-.18-1.31-.13-1.91-.24-3.82-.36-5.74l.22-.2.15.06c.09,1.9.16,3.8.29,5.7a3.76,3.76,0,0,0,.51,1.1Z"/><path class="cls-2" d="M127.67,162.18c-.12-.7-.27-1.39-.36-2.09a6,6,0,0,1,0-1.69c.07.21.15.42.21.64.23.73.45,1.46.7,2.19,0,.05.2,0,.31.06C128.46,162.12,128.46,162.12,127.67,162.18Z"/><path class="cls-2" d="M127.8,171.77c0-1.27-.11-2.53-.16-3.79l.2-.22a4.43,4.43,0,0,1,.33,2.48,22.85,22.85,0,0,0,.06,3.2c-.28-.26-.6-.51-.43-1Z"/><path class="cls-2" d="M126.91,172.31l0-1,.25-.2c.19.21.39.41.59.62v.7Z"/><path class="cls-2" d="M129.07,179.54l.27-.69.27-.63.09,1-.7,1.7Z"/><path class="cls-2" d="M127,171.37l-.56-2c.1-.33.19-.66.29-1Z"/><path class="cls-2" d="M126.26,167.18l-.2.91-.25,0,.09-.91Z"/><path class="cls-2" d="M129.89,192.71l-.08-.9c.19.12.32.16.33.21a5.46,5.46,0,0,1,0,.7Z"/><path class="cls-2" d="M129.6,150.12l.13,1.54-.23,0Z"/><path class="cls-2" d="M129.59,194.35l.18-.76.17,0-.09.76Z"/><path class="cls-2" d="M132,68.12a2.6,2.6,0,0,1-1.46-1.68l.46-.16Z"/><path class="cls-2" d="M116.43,64a1.2,1.2,0,0,1,1.51.49l-1.55-.33A.42.42,0,0,1,116.43,64Z"/><path class="cls-2" d="M128.6,59.32c.05.09.1.17.14.26l-.71.72-.19-.2Z"/><path class="cls-2" d="M55.38,77.24c-.77.07-1.55.12-2.32.22-1.67.22-3.33.47-5,.71l-.46-.23,5.64-.85c.4-.07.81-.12,1.21-.17l.48.08Z"/><path class="cls-2" d="M69.45,83.75a13.92,13.92,0,0,1,4.42-2.26l-1.46.88L69.65,84Z"/><path class="cls-2" d="M46.07,63.92c-.67.19-1.33.38-2,.6a1.6,1.6,0,0,0-.47.36l-1-.22,0-.44,3.38-.3Z"/><path class="cls-2" d="M65.13,66.26l-1.25,1c.23-.57.29-1.25,1-1.54Z"/><path class="cls-2" d="M74.1,68.24h1l.23,0-.17.26Z"/><path class="cls-2" d="M88.67,96.65l.9.34a1,1,0,0,1,0,.16,4.61,4.61,0,0,1-.73.19.78.78,0,0,0-.8.75c1,1,1.2,1,2.22.25.27-.2.59-.32.86-.51a3.87,3.87,0,0,0,.46-.53l-.66-.12a1.36,1.36,0,0,1,0-.2l1.17-.3-1.35-1.27a1.36,1.36,0,0,1,1.45.25,1.84,1.84,0,0,0,1.46.37l.18,1.07c-.3.64.27.87.6,1.15.75.62,1.55,1.18,2.32,1.76l1.44,1.89a2.47,2.47,0,0,0,1.54-.88l1-.86.51-.4,1.77.06-.73.28c.06.12.08.24.16.3s.46.36.7.54c.49.36.57.75.16,1.2a2.79,2.79,0,0,1-.9.62c-.75.34-1.52.6-2.27.91a10.72,10.72,0,0,0-1,.5.92.92,0,0,1,0,.16l-.69,0,.25-.61c.36-.38.66-.77,0-1l-1.19.64-.41-.19.8-.36,0-.22-.93-.09a1.23,1.23,0,0,1,0-.2l.69-.12c-1-1.19-1.68-2.49-3-3.26a2.48,2.48,0,0,1-1.43-1.8L91.74,98,93,100.52l-.45.18-1.17.11-.19,0v-.38l1.22-.23-1.14-2.12-1.44,1,.67.56-.85-.13c-.27.37-.26.65.16.83l-.26.86,0,0-.38-.32-.06-.7,0-.9-1.72-1,.34-.86-1,0v-.17a3.61,3.61,0,0,0,1.85-.61Zm12.87,3.54-2.59,2,.88,1.19c1.13-.5,2.46-.57,3.28-1.68Z"/><path class="cls-2" d="M75.48,98.09l-7.12-.66.44-.35,8.09.8.51.21.38.09-.56.22L76,98.32Z"/><path class="cls-2" d="M36.2,100.27c1.33-.53,2.65-1.08,4-1.57a6.12,6.12,0,0,1,1.29-.24.4.4,0,0,1,0,.15l-5.29,2Z"/><path class="cls-2" d="M90.85,102.85l.39,0,.35-.25.83.31.49.41-.27.24-1.8-.42Z"/><path class="cls-2" d="M91.2,100.79l-1.38.42h-.25l.26-.86,1.38.06Z"/><path class="cls-2" d="M89.17,100.91H87.8l.24-.48,1.07-.22Z"/><path class="cls-2" d="M38.14,97.12,37,97.25A1.49,1.49,0,0,1,37,97l1.16-.11A.43.43,0,0,1,38.14,97.12Z"/><path class="cls-2" d="M76.4,98.76l1.34.11a.86.86,0,0,0,0,.16L76.4,99Z"/><path class="cls-2" d="M108,75.26l-2.89.8c-.25.07-.51.12-.76.17h-1.07L103,76l5-.86S108,75.21,108,75.26Z"/><path class="cls-2" d="M114.89,77c-1.13-.14-2.24-.29-3.37-.39a2.43,2.43,0,0,0-.77.17l-.78-.64.48,0,4.44.73Z"/><path class="cls-2" d="M108.59,76.38l-1,.29-.1-.18.39-.33Z"/><path class="cls-2" d="M114.07,80.58l1.31.06s0,.09,0,.13H114A1.16,1.16,0,0,0,114.07,80.58Z"/><path class="cls-2" d="M119,99l-.45,0c-.92,0-1,.1-1.24,1a5.38,5.38,0,0,1-.2.51l-.33-1.36,0,0,.24-.38.7-1.53-.2-.19-1.12.53,0-.47c.73-.27.73-.84.6-1.62l-.61.49-.17-.21.47-.62.92-.22.68.1.69-.71.64-.37.14.12-.32.75.63.33c-1.43.23-1.87.87-1.55,2.16-.64.21-.82.72-.88,1.43l1.35.06Zm-.73-3.53c-.87.12-1,.36-.54,1.28Z"/><path class="cls-2" d="M113.75,104.63l1.57.06v.51a.41.41,0,0,0,0,.16,4.28,4.28,0,0,0-1.43,2.2l-.53-.06,1.33-2.2-.69-.39Z"/><path class="cls-2" d="M112.24,103.43l-2,.2v-.27l.48-.2.46.19,1.09-.08A.86.86,0,0,0,112.24,103.43Z"/><path class="cls-2" d="M87.75,115.55l-.48-.43c.47,0,.84-.19,1.07.28Z"/><path class="cls-2" d="M139.72,60.22l.09-2C140.23,59,140.23,59.11,139.72,60.22Z"/><path class="cls-2" d="M133,61.64a1.58,1.58,0,0,1-1.07-1.18c.61.15.78.63,1.1.92Z"/><path class="cls-2" d="M139.77,54.18l-.16,1.2h-.18v-1.2Z"/><path class="cls-2" d="M134.45,61.28l-.19-.65.16-.05.24.62Z"/><path class="cls-2" d="M123,85.92l-.84-2.75-.26-.83.46-.52.43,0-.22.65.85-.4.06.08a2.15,2.15,0,0,0,.48,1.93c0,.41.21.61.52.76l.13.46-.75.47.14,2.08c-.59.15-1,.16-1.29-.39l.51-1.11C123.5,86.07,123.46,85.9,123,85.92Z"/><path class="cls-2" d="M114.41,91.89a.49.49,0,0,0,.78,0,3.38,3.38,0,0,0,1.19-2c.07-.52.14-1,.2-1.56l1.07-.78.25,1.27L117.7,90l-.25,0,0-1.54c-.27.39-.53.59-.53.8A7,7,0,0,1,116,91.9l-.91.85a2.62,2.62,0,0,0-.5.13c-.49.2-.48,0-.36-.38Z"/><path class="cls-2" d="M116.07,85.14l2.24.35v.18l-2.25-.31A1.7,1.7,0,0,1,116.07,85.14Z"/><path class="cls-2" d="M130.23,86l.71-.12,0,.28-.76.06A1.5,1.5,0,0,0,130.23,86Z"/><path class="cls-2" d="M129.36,86l0-1,.11,0c.09.27.17.55.26.82a.44.44,0,0,0,.06.16Z"/><path class="cls-2" d="M128.66,86l0-.73.2,0,0,.76h-.22Z"/><path class="cls-2" d="M111.18,56.26l.28-.47.33,2.28c0,.11-.05.23-.07.35A2.88,2.88,0,0,1,111.18,56.26Z"/><path class="cls-2" d="M112.26,60.69c-.09.28-.19.55-.28.82-.09-1-.17-2.06-.26-3.09,0-.12,0-.24.07-.35C112,58.94,112.11,59.82,112.26,60.69Z"/><path class="cls-2" d="M104.73,49.64c-.52.15-.76-.11-.89-.56V49c.44-.32.66,0,.89.31Z"/><path class="cls-2" d="M110.41,53.27l-.07.28c-.15-.19-.31-.38-.46-.58l.12-.13Z"/><path class="cls-2" d="M177.72,73.72A27,27,0,0,1,182,75a30,30,0,0,1,6.8,4.21l-.3,0-2.71-1.75A30.26,30.26,0,0,0,178.22,74C178.05,73.9,177.89,73.8,177.72,73.72Z"/><path class="cls-2" d="M200.72,78a5.24,5.24,0,0,1-.54-.51s.09-.23.15-.36l1.11.72Z"/><path class="cls-2" d="M124.66,71.11l.19.48-.64,1.75.16.09.87-1.09c.24-.58.62-.38,1-.18-.25.48-.5,1-.76,1.43-.48,0-1,0-1,.71l-.4.2-.3,0,0-.3-1-.09.07-.48c.42-.71.83-1.42,1.25-2.12Z"/><path class="cls-2" d="M124.66,71.11l-.47.37a13.8,13.8,0,0,0-1.32,1.33c-.16.21-.09.6-.12.91a.61.61,0,0,1-.19,0l-.73.21-.24,0-.47-.67.54-.44.25.23c.61-1,1.59-1.71,2.26-2.66l.53.43C124.69,70.9,124.67,71,124.66,71.11Z"/><path class="cls-2" d="M122.17,80.47c-.24-.81-.48-1.62-.74-2.43-.13-.42-.31-.82-.47-1.23l.31-.22.26-.27c.09.32.19.64.28,1l.27,0c.11.45.18,1,.88.74l0,.4c-.52,0-.75.31-.73.85,0,.39,0,.79-.06,1.18Z"/><path class="cls-2" d="M127.1,76.22l-2.22-.1-.22-.21,2.44.1Z"/><path class="cls-2" d="M121.77,69.85l1-1.15c-.27.39-.53.79-.79,1.18A.58.58,0,0,1,121.77,69.85Z"/><path class="cls-2" d="M123.21,77.63,123,76.9l.46-.17Z"/><path class="cls-2" d="M121.27,76.59l-.31.22-.18-.65Z"/><path class="cls-2" d="M122.33,75l.33.29-.13.14-.33-.3Z"/><path class="cls-2" d="M186.09,109.52c-.18-.76-.92-1-1.41-1.48s-1.24-1-1.85-1.43a6.65,6.65,0,0,1-.64-.66l.15-.17.58.4c1.24.93,2.48,1.88,3.73,2.8a1.82,1.82,0,0,0,.62.21l-.25.22Z"/><path class="cls-2" d="M183.61,109.84,181,107.77l-.44-.32c1,.11,1.74.89,2.56,1.41a10,10,0,0,1,1,.83Z"/><path class="cls-2" d="M139.1,101.56l6.88-.94v.24l-4.74.66-1.87.29Z"/><path class="cls-2" d="M136.61,107.36l-1.5-5.3.49-.16c.23,1,.45,2.07.7,3.1.15.65.35,1.28.53,1.92Z"/><path class="cls-2" d="M135.76,98.1l-.1,1.3h-.19l-.15-2Z"/><path class="cls-2" d="M59.63,105.62l-5.57,2.64-.24-.25a2.47,2.47,0,0,1,.44-.55c.75-.48,1.53-.92,2.33-1.39l-.28.66,3.07-1.37Z"/><path class="cls-2" d="M129.29,154.86a3.26,3.26,0,0,1,.23,2.83c-.21-1.12-.38-2-.56-3Z"/><path class="cls-2" d="M58.41,111.64a41.54,41.54,0,0,1,7.48-3.29L69,107.4c0,.06,0,.12,0,.18-1.94.73-3.9,1.42-5.82,2.2-1.37.55-2.7,1.22-4,1.84Z"/><path class="cls-2" d="M199.27,62.16l2.06-.58a1.32,1.32,0,0,1,1.32.88c-.21,0-.33,0-.4,0a2.41,2.41,0,0,0-2.24-.21,4.85,4.85,0,0,1-.76.14A1.23,1.23,0,0,0,199.27,62.16Z"/><path class="cls-2" d="M172,94.18l0,.31,1.07.13,1,.13c-.62.11-1.24.2-1.84.36a1.71,1.71,0,0,0-.95.47c-1.4,2-3.55,2.5-5.68,3-1.19.3-2.42.45-3.62.72-.73.16-1.43.41-2.14.61l-.49-.47c.38-.12,1.07-.22,1.09-.37.06-.78.63-.63,1.06-.69a16.71,16.71,0,0,0,4.23-1,3.66,3.66,0,0,1,.76-.12l-1.49.92c1.84-.41,3.74-.61,5.37-2.14l-3.91,1.24.4-.3c.23-.19.25-.34-.09-.4l.61-.59-.35-.83L162.31,95c.67.75,1.62.63,2.37,1l-.15.53,1.51.16a3.74,3.74,0,0,1-.73.19c-1.57,0-3.15,0-4.73,0l.4-.31-1-1.76-5-.49,1,1.63h-.23a10.79,10.79,0,0,0-.95-1.08c-.48-.43-.94-1-1.71-.85l.46-.4,6.21.77-.61-.61a3.53,3.53,0,0,1,3.18-.2,1.69,1.69,0,0,1-.08.39,4.29,4.29,0,0,1-.39.51c2.14.17,4.11.34,6.08.46.19,0,.4-.26.69-.46a2.66,2.66,0,0,0,1,.3,6.31,6.31,0,0,0,1.45-.56c-.55-.5-.55-.5-1.68-.64a1.26,1.26,0,0,1,1.46-.12c.56.21.43.76.24,1.44Zm-8.71,1.89L161,94.7C160.71,96,161.31,96.32,163.28,96.07Zm4.8.41,1.8-.82-.06-.25-1.76.1Zm-6.27-2.85a1.21,1.21,0,0,0-1.45.27C161,94.33,161.29,93.91,161.81,93.63Z"/><path class="cls-2" d="M146,100.86v-.24l3.11-.18a2.11,2.11,0,0,0-1.89-.75,7.59,7.59,0,0,1-3.16-.38l.28-.19c.91,0,1.82.34,2.73,0l.39,0,.7-.5-.43-1.29,1.13,1.44-.78.63a4.17,4.17,0,0,0,2.14.54c.13,0,.27-.28.4-.43l.18-.22c.33.53.29,1.45,1.31,1.24l.69.25-1.73.24a1.52,1.52,0,0,0,1.56.65l1.22-.15,0,.37h-1.36c.23.27.29.4.4.47,1.59,1,3.17,2.1,4.77,3.13a3.22,3.22,0,0,0,.72.25l.19,1a1.8,1.8,0,0,0-2.39.5c-.13.15-.09.45-.13.68l-.22.21-.43-.88,1.78-1.24c-.52-.33-1-.68-1.49-.94-1-.5-1.59-1.47-2.53-2s-1.85-1.14-2.74-1.75a2,2,0,0,0-1.26-.35C148.08,100.9,147,100.86,146,100.86Z"/><path class="cls-2" d="M171.66,99.81c1.3.58,2.62,1.09,3.87,1.75,1.72.9,3.39,1.91,5.07,2.9a2.27,2.27,0,0,1,.69.69c-4.33-2.46-8.57-5.09-13.66-6.09.36-.56.65-.55,1-.39,1,.42,2,.78,3,1.17Z"/><path class="cls-2" d="M198.14,94.35l4.47,0,5.93-.07c.3,0,.59,0,.89,0l.7.24c-1.83.08-3.66.21-5.49.21-2.17,0-4.34-.11-6.51-.17C198.13,94.47,198.14,94.41,198.14,94.35Z"/><path class="cls-2" d="M189.83,98.86l7.86,2.93c1,.35,1.91.74,3.09,1.2-.36.12-.47.19-.54.17l-10.06-3.77a4.8,4.8,0,0,1-.6-.3v-.21Z"/><path class="cls-2" d="M201.64,92a7.48,7.48,0,0,1,1.33-.12c2.11.14,4.22.31,6.33.47,0,.07,0,.15,0,.22-1.66-.11-3.32-.22-5-.31-.88-.05-1.77-.05-2.66-.07C201.63,92.16,201.64,92.09,201.64,92Z"/><path class="cls-2" d="M172.66,103.78l-8.77-3a.85.85,0,0,1,1-.06c1.51.55,3,1.11,4.52,1.65l3.36,1.2Z"/><path class="cls-2" d="M179.75,92.3c-1.27.08-2.54.18-3.81.24a5.81,5.81,0,0,1-1.07-.2c.67-.76,1.31-.3,1.87-.36s1.2-.07,1.8-.08,1.27,0,1.91,0Z"/><path class="cls-2" d="M192,91.8l7.66.17a1.49,1.49,0,0,1,0,.21c-1.15,0-2.29,0-3.44,0-1.41,0-2.81-.12-4.22-.19Z"/><path class="cls-2" d="M153.81,101.83l0-.37a8.53,8.53,0,0,0,5-1.39l.5.06a6.82,6.82,0,0,1-4.42,1.58A6.61,6.61,0,0,0,153.81,101.83Z"/><path class="cls-2" d="M158.53,106.64l-.19-1c1.67-.41,3.26-1.19,5-1.09l-3,.84-1.56.44,1,.85-.58.14-.7-.25Z"/><path class="cls-2" d="M173.32,104l-2.27.4-1.46.23,1.61,1.3h0a2.45,2.45,0,0,1-1.79-1l-.43-.49A13.61,13.61,0,0,1,173.32,104Z"/><path class="cls-2" d="M179.75,92.3l.7-.39c.65,0,1.31-.13,2-.14s1.11.06,1.66.1a.71.71,0,0,0,0,.21Z"/><path class="cls-2" d="M184.05,92.08a.71.71,0,0,1,0-.21l4.73,0s0,.1,0,.15Z"/><path class="cls-2" d="M210.13,94.49l-.7-.24,5.15.25a.81.81,0,0,0,0,.16Z"/><path class="cls-2" d="M175.12,104.58c-.44-.26-1.13-.12-1.29-.81l2.41-.22,0,.24-1.4.22Z"/><path class="cls-2" d="M174.91,94.56l2.7-.33.44.2c-.86.11-1.71.24-2.58.33C175.29,94.78,175.1,94.63,174.91,94.56Z"/><path class="cls-2" d="M198.14,94.35c0,.06,0,.12,0,.18l-4.72-.19a1.15,1.15,0,0,0,0-.19Z"/><path class="cls-2" d="M186.14,95.12l.45.46-2.93-.32V95Z"/><path class="cls-2" d="M210.61,92.51l2.45.57a.47.47,0,0,0,0,.17l-3.37-.57Z"/><path class="cls-2" d="M185.3,95.82h1.16l0,.12-.43.2.59.26-.21.28-1.23-.56Z"/><path class="cls-2" d="M169,104.39l.43.49-2.88-.4a.38.38,0,0,0,0-.15Z"/><path class="cls-2" d="M178,106l-2.55-1.27A3.8,3.8,0,0,1,178,106Z"/><path class="cls-2" d="M176.19,100.48l.4.07-.19.19-2.4-.41v-.09l1.3,0,.68.26A.64.64,0,0,0,176.19,100.48Z"/><path class="cls-2" d="M179.62,99.58l-1.44-.31c.58-.37,1,0,1.52,0Z"/><path class="cls-2" d="M174.35,97.46l-1.14-.24.06-.29,1.15.2Z"/><path class="cls-2" d="M166.56,104.33a.38.38,0,0,1,0,.15c-.67,0-1.34.09-2,.11a1.38,1.38,0,0,1-.48-.19Z"/><path class="cls-2" d="M214.57,94.66a.81.81,0,0,1,0-.16l1.57.22-.06.31Z"/><path class="cls-2" d="M179.72,107.07,178,106A2.35,2.35,0,0,1,179.72,107.07Z"/><path class="cls-2" d="M192,91.8l0,.22-1.14.14,0-.24Z"/><path class="cls-2" d="M199.6,92.18a1.49,1.49,0,0,0,0-.21l2,.06c0,.06,0,.13,0,.19Z"/><path class="cls-2" d="M190.82,91.92l0,.24-2-.09s0-.1,0-.15Z"/><path class="cls-2" d="M171.69,99.84c.45-.7.93-.17,1.4-.18v.22l-1.43-.07Z"/><path class="cls-2" d="M159.31,100.13l-.5-.06-.21-.46.74-.14.49.47Z"/><path class="cls-2" d="M193.5,101.34l-1.44-.07c.66-.29.66-.29,1.43.09Z"/><path class="cls-2" d="M207.36,97.45l1,.37-.08.24-1-.33Z"/><path class="cls-2" d="M198.19,99.77l-.85-.19,0-.23.84.23Z"/><path class="cls-2" d="M179.08,97.66l-1.14,0C178.49,97.41,178.49,97.41,179.08,97.66Z"/><path class="cls-2" d="M180.6,99.17c.08.2.16.34.13.37a.78.78,0,0,1-.33.19s-.11-.08-.16-.12Z"/><path class="cls-2" d="M210.61,92.51l-.91.17-.42-.08c0-.07,0-.15,0-.22Z"/><path class="cls-2" d="M193.49,101.36l1.1,0c-.61.15-.61.15-1.09-.07Z"/><path class="cls-2" d="M166.55,81.26A17.47,17.47,0,0,0,164.8,81c-.85,0-1.7,0-2.54,0L160.63,81c-.23-.53-.74-.42-1.15-.43-1.63,0-3.27,0-4.9-.07-.52,0-1-.07-1.56-.11l-1.79-.29,3.8,0c1.09,0,2.17,0,3.26,0s2,0,3,.15c2.08.25,4.15.56,6.22.84Z"/><path class="cls-2" d="M158.61,71.63c1.07-.15,2.13-.35,3.2-.44,1.52-.12,3.05-.16,4.57-.24l.77.29-6.72.52-1.56.09Z"/><path class="cls-2" d="M158.61,71.63l.26.22-1.12.22-5.21.43-.9,0-.42-.27a.52.52,0,0,0,.21,0Z"/><path class="cls-2" d="M167.15,71.24l-.77-.29a41.27,41.27,0,0,1,5.21-.42l1.16.28-1.43.33c-.83,0-1.67,0-2.51,0C168.26,71.14,167.7,71.2,167.15,71.24Z"/><path class="cls-2" d="M137.65,82.34l.47-.2,10.75.57a.39.39,0,0,0,0,.15c-2-.06-4-.12-5.94-.21C141.15,82.57,139.4,82.44,137.65,82.34Z"/><path class="cls-2" d="M147.87,75.45c.5.5,1.21.26,1.79.49a1.49,1.49,0,0,0,0,.21l-5.31-.26,0-.57A9.38,9.38,0,0,0,147.87,75.45Z"/><path class="cls-2" d="M167.38,83.1c-1.15-.07-2.3-.16-3.46-.22-1,0-1.92-.06-2.89-.08l0-.23c.59,0,1.18-.11,1.77-.09,1.16,0,2.32.1,3.47.19a5.66,5.66,0,0,1,1.06.26A1.11,1.11,0,0,1,167.38,83.1Z"/><path class="cls-2" d="M176.18,82.85,171.42,82l.71-.18,5,.84Z"/><path class="cls-2" d="M166.55,81.26l1-.18,1.25-.16.53.08a3.61,3.61,0,0,0,.7.42,11.61,11.61,0,0,0,1.3.29l-.72.19Z"/><path class="cls-2" d="M144.27,80.23a1.49,1.49,0,0,0,0-.21l5.62,0v.21Z"/><path class="cls-2" d="M148.85,82.86a.39.39,0,0,1,0-.15l3.87,0a.57.57,0,0,1,0,.18A11.37,11.37,0,0,1,148.85,82.86Z"/><path class="cls-2" d="M154.69,78.88l1-.27c.42.2-.54.7.32.62,0,.35-1.46.4-2.28.12C154.13,79.3,154.58,79.44,154.69,78.88Z"/><path class="cls-2" d="M144,79.46a22.73,22.73,0,0,1,4.58-.39v0l-2.25.41-1.84.29Z"/><path class="cls-2" d="M166,74.56,169.9,74l0,.24-4,.64C166,74.75,166,74.65,166,74.56Z"/><path class="cls-2" d="M182.2,83.71a8.67,8.67,0,0,1-2.79-.3A3.8,3.8,0,0,1,182.2,83.71Z"/><path class="cls-2" d="M173.54,76.71c.08-.2.11-.39.19-.43a7.14,7.14,0,0,1,3-.67Z"/><path class="cls-2" d="M171.57,79.67c-.46.82-.56.85-1.62.44C170.4,79.53,171,79.73,171.57,79.67Z"/><path class="cls-2" d="M154.52,82.74a6.22,6.22,0,0,1,3.06.08l-3.08.11C154.51,82.87,154.51,82.8,154.52,82.74Z"/><path class="cls-2" d="M165,77.14c-.56-.67-.4-1.09.76-1.78Z"/><path class="cls-2" d="M160.63,81l1.63.09-2.64.45C159.91,80.85,160.31,81,160.63,81Z"/><path class="cls-2" d="M171.2,83.33l2.39.44A2.55,2.55,0,0,1,171.2,83.33Z"/><path class="cls-2" d="M176.18,82.85l.94-.17,1.54.26,0,.23A11.92,11.92,0,0,1,176.18,82.85Z"/><path class="cls-2" d="M177,84.55l-2.51-.27,0-.31c.46.08.92.17,1.39.22s1,.09,1.56.13Z"/><path class="cls-2" d="M152.82,75.9l.5-.2,2.91,0s0,.09,0,.14l-3.42.29A1.1,1.1,0,0,1,152.82,75.9Z"/><path class="cls-2" d="M172.86,71.68l2.91,1.25-.36,0A4.69,4.69,0,0,1,172.86,71.68Z"/><path class="cls-2" d="M177,84.55l.47-.23,1.5.12C178.16,84.87,178,84.87,177,84.55Z"/><path class="cls-2" d="M167.38,83.1a1.11,1.11,0,0,0,0-.17,5.28,5.28,0,0,1,2.76.48Z"/><path class="cls-2" d="M149.91,80.28v-.21h1.32l1.79.29Z"/><path class="cls-2" d="M156.22,75.79c0-.05,0-.09,0-.14l1.74-.22.44.16-.85.28Z"/><path class="cls-2" d="M159,75.32l2.28-.09c-.77.55-1.42.27-2,.34Z"/><path class="cls-2" d="M175.41,73l.36,0,.64.07.27.19,1.06.54-2.24-.53,0,0A.66.66,0,0,0,175.41,73Z"/><path class="cls-2" d="M166,74.56c0,.09,0,.19,0,.29l-1.79.2c.17-.49.54-.31.81-.36S165.64,74.6,166,74.56Z"/><path class="cls-2" d="M159,75.32l.25.25c-.48.46-1.07.3-1.64.3l.85-.28-.44-.16Z"/><path class="cls-2" d="M177.91,78.91a2.24,2.24,0,0,1-1.86.37,2.8,2.8,0,0,1,1.88-.35Z"/><path class="cls-2" d="M155.12,81.67l-1.86.59-.08-.28,1.91-.52A.39.39,0,0,0,155.12,81.67Z"/><path class="cls-2" d="M175.61,79.46l-1.57.22,0-.2,1.56-.25Z"/><path class="cls-2" d="M149.64,76.15a1.49,1.49,0,0,1,0-.21.69.69,0,0,1,0-.2l1.36.1a1.16,1.16,0,0,1,0,.18Z"/><path class="cls-2" d="M161.06,82.57l0,.23-1.85-.09v-.15Z"/><path class="cls-2" d="M173.47,73.53l2-.38,0,0-2,.31Z"/><path class="cls-2" d="M156.52,78.56l1.2-.37.08.24-1.15.35Z"/><path class="cls-2" d="M173.46,73.51l-1.65.42c.47-.58,1.08-.42,1.66-.4Z"/><path class="cls-2" d="M139.75,78.27l1-.09c-.36.52-.65.54-1,.36Z"/><path class="cls-2" d="M176.4,77.73l1.35.18-.05.23a1.6,1.6,0,0,1-1.29-.42Z"/><path class="cls-2" d="M177.93,78.93a6.4,6.4,0,0,1,.79-.69c.11-.07.32,0,.65,0a1.53,1.53,0,0,1-1.46.65Z"/><path class="cls-2" d="M164.07,74.42l-1,.08C163.49,74.08,163.8,74.13,164.07,74.42Z"/><path class="cls-2" d="M154.52,82.74c0,.06,0,.13,0,.19l-1.79-.06a.57.57,0,0,0,0-.18Z"/><path class="cls-2" d="M151,76a1.16,1.16,0,0,0,0-.18h1.32l.45.07a1.1,1.1,0,0,0,0,.18Z"/><path class="cls-2" d="M170.59,81.9l.72-.19.82.13-.71.18Z"/><path class="cls-2" d="M144,79.46l.48.29a1.17,1.17,0,0,1-1.15-.37Z"/><path class="cls-2" d="M154.69,78.88c-.11.56-.56.42-.93.47,0-.08,0-.22,0-.23C154.08,79,154.39,79,154.69,78.88Z"/><path class="cls-2" d="M161.79,75.2l.53-.09,0,.18-.54.1Z"/><path class="cls-2" d="M154.5,73.43l.86.3-1.25.16C154,73.54,154.22,73.46,154.5,73.43Z"/><path class="cls-2" d="M148.61,79.07l.88-.24,0,.27-.93,0Z"/><path class="cls-2" d="M169.31,81l-.53-.08.7-.38.11.13Z"/><path class="cls-2" d="M172.75,70.81l-1.16-.28,4-.31.7.3Z"/><path class="cls-2" d="M176.31,70.52l-.7-.3.95-.14.25.24,1.37.45a1,1,0,0,0-.1.17l-.86-.15.58.9c-.46-.17-.93-.33-1.39-.51S176.08,70.78,176.31,70.52Z"/><path class="cls-2" d="M168.57,69.14l-.88.22.63.47c-1.12.06-1.8-.68-2.64-1.07a6.17,6.17,0,0,0,2.83.18s.07,0,.08.06S168.58,69.07,168.57,69.14Z"/><path class="cls-2" d="M161.37,69.28l3.44-.45a7.2,7.2,0,0,1-3.37.67Z"/><path class="cls-2" d="M173.45,68.29A2.39,2.39,0,0,1,176,68l0,0-1.15.19-1.31.2Z"/><path class="cls-2" d="M157.72,69.75c-.47.54-1,.88-1.7.45Z"/><path class="cls-2" d="M178.44,67.94l-.21.21L176,68l0,0c.16-.11.32-.31.48-.3C177.13,67.75,177.79,67.86,178.44,67.94Z"/><path class="cls-2" d="M176.81,70.32l-.25-.24,1.36-.23.18,0,.48.24Z"/><path class="cls-2" d="M160.56,70.57l-1.93-.09v-.12l1.93.1Z"/><path class="cls-2" d="M173.51,68.38l-1.44.39-.06-.24,1.44-.24Z"/><path class="cls-2" d="M178.28,67.18l.17.26L177,67.5l0-.16Z"/><path class="cls-2" d="M151.79,69.55c0,.07,0,.14,0,.22a4.91,4.91,0,0,1-.63.17.62.62,0,0,1-.55-.21Z"/><path class="cls-2" d="M178,68.52l.35.44-.61.28C177.31,68.91,177.31,68.89,178,68.52Z"/><path class="cls-2" d="M160.21,69.6l-.78.23C159.65,69.5,159.65,69.5,160.21,69.6Z"/><path class="cls-2" d="M151,71.08l-.24.41h-.89Z"/><path class="cls-2" d="M119.4,91.15l-.25-.42a4.93,4.93,0,0,0-1.91,1.88l-.21-.25c.48-.56.92-1.15,1.44-1.66a1.13,1.13,0,0,0,.43-1,3.72,3.72,0,0,1,.19-1.51,1.38,1.38,0,0,1,.68-.67.84.84,0,0,1,.68.11c.1.07.08.42,0,.59a9.49,9.49,0,0,1-.74,1.5,1.18,1.18,0,0,0,0,1.25Zm.68-3.1c-.75.12-.88.58-.62,1.22Z"/><path class="cls-2" d="M116.7,95.13l-.47.62-.43,0-1,.15c-.89-.51-1.53-.36-2,.42-.23.4-.51.77-.76,1.15l.25-1.2c.18-.25.29-.47-.15-.52,0-.06,0-.13,0-.19l.43-.22.33-.8.18-.06h.23c0,.27-.5.63.18.71.44.11.88.21,1.32.33s.61-.14.75-.47l.29,0Z"/><path class="cls-2" d="M115.89,95l-.29,0a6.4,6.4,0,0,0-.41-.5c-.8-.81-.8-.81-.13-1.79l.91-.85.42.08L115,93.59Z"/><path class="cls-2" d="M117,92.36l.21.25-.67,2.08A3.24,3.24,0,0,1,117,92.36Z"/><path class="cls-2" d="M118.3,95l-.68-.1L118.8,93l.22.13-.44.92C118.38,94.35,117.91,94.56,118.3,95Z"/><path class="cls-2" d="M119.4,91.15l.27-.23.12.9-.29.06Z"/><path class="cls-2" d="M150.78,99.23l-.18.22-.51-2.56a3.24,3.24,0,0,1-2.32-2l.76-1.87-.81-.23,0-.25.28-.62.24.26v.17l.89.27.42.06A10.58,10.58,0,0,0,151,93c.18,0,.4-.21.6-.32.47.18.86.56,1.45.44.14,0,.34.25.51.38l-.46.4c-.08.12-.16.25-.23.38a2,2,0,0,0,1.4,3.1l-.8.16-2.85-.51Zm-1.62-3.67-.68.1c.73.49,1.19,1.09,2,.62l.25-.39a2.21,2.21,0,0,0,1.81,1c-.44-1.46-.44-1.46-.07-3.38-.33.55-.54.92-.78,1.27,0,0-.19,0-.29,0l.56-1.14-2.17-.39c-.92-.17-1-.12-1.31.73a6.59,6.59,0,0,0-.16.9Z"/><path class="cls-2" d="M168.27,93.46c-3.4.81-3.4.81-4,.4C165.57,93.24,166.94,93.6,168.27,93.46Z"/><path class="cls-2" d="M151.57,92.72c-.2.11-.42.34-.6.32a10.58,10.58,0,0,1-1.44-.39.64.64,0,0,1,.82-.36C150.76,92.41,151.17,92.57,151.57,92.72Z"/><path class="cls-2" d="M126,126.2c.09-.77.19-1.54.28-2.31a2.71,2.71,0,0,1,.34-1.22c0,.39,0,.79,0,1.18s0,.9-.06,1.34-.09.89-.16,1.63c-.21-.35-.29-.49-.37-.64Z"/><path class="cls-2" d="M139.47,90.79a10,10,0,0,0,3.54.88c.31,0,.62.31.93.47v0c-.47-.1-.93-.21-1.4-.3-.24,0-.46,0-.39.34l-.13.11a3,3,0,0,0-2.1-.58l-.5,0c-.44-.17-1.06.08-1.31-.55l.17-.08-.39-.19Z"/><path class="cls-2" d="M147.72,92.76c-.81-.12-1.63-.22-2.43-.38a2.42,2.42,0,0,1-.75-.44l.76-.42c-.11.55.32.59.66.67.58.13,1.16.22,1.74.32Z"/><path class="cls-2" d="M138.32,90.24a9.48,9.48,0,0,1,3.86-.14l-3.12.43Z"/><path class="cls-2" d="M138.32,90.24l.74.29.41.26-1.59.12-.66,0-.2-.26C137.27,90,137.89,90.38,138.32,90.24Z"/><path class="cls-2" d="M123,78.06l.49-.21c1-.1,1.91-.19,2.86-.3.55-.06,1.1-.16,1.65-.24l0,.28-.31.2a3,3,0,0,0-2.24.78c-.54-.78-1.1-.14-1.65-.08l-.45.08-.09,0h-.1l-.23-.09Z"/><path class="cls-2" d="M131.37,76.22c0,.63,0,1.26,0,1.89,0,.1-.2.19-.3.29,0-.08,0-.17,0-.22-.12-.21-.25-.4-.38-.59l-.43.64-.77-.3.25-.43.84-.23c.38-.11.42-.34.28-.7l-.85,0C130.4,76.3,130.8,76,131.37,76.22Z"/><path class="cls-2" d="M123.43,82.11l-.85.4.22-.65-.43,0c-.07-.45-.13-.9-.2-1.35l0,0,.67-.59a3.2,3.2,0,0,0,.62,1.93Z"/><path class="cls-2" d="M126.56,79.5l2.27-.66.08.27-2.2.7Z"/><path class="cls-2" d="M129.73,77.5l-.25.43-1.78-.14.31-.2.84-.14Z"/><path class="cls-2" d="M126.23,80l-1.06.44-.1-.24,1.05-.46Z"/><path class="cls-2" d="M124.58,81.51a.79.79,0,0,1,.06-.22L126,81.1l.21.21-1.11.25Z"/><path class="cls-2" d="M130.17,79h-.48l0-.21.51-.08Z"/><path class="cls-2" d="M123.43,82.11v-.28l.25-.24v.09l.43.5h-.62Z"/><path class="cls-2" d="M135.76,98.1l-.44-.74a4.24,4.24,0,0,1,.39-.8,3.45,3.45,0,0,0,.68-2.32l.64.27c-.31,1.07-.62,2.14-1,3.2C136,97.86,135.87,98,135.76,98.1Z"/><path class="cls-2" d="M127,92a2.94,2.94,0,0,1,.53,2.08c-.07,1.07,0,2.15-.09,3.22a5.73,5.73,0,0,1-.33,1.12c-.09-.37-.35-.82-.23-1.1a2.17,2.17,0,0,0-.27-2.08l-.43-.11.28-1.77Z"/><path class="cls-2" d="M126.32,87.68h.89l.44.09c.22.64.88.61,1.34.88l-1.65.16c-.11-.14-.19-.36-.34-.41a2.45,2.45,0,0,0-.72-.09Z"/><path class="cls-2" d="M128.33,89.37l.14.44-.43.58-.55-.83Z"/><path class="cls-2" d="M124.94,93.42,124.55,92l.73-.25c0,.58-.1,1.17-.16,1.75Z"/><path class="cls-2" d="M128.85,144.38c.22.88.49,1.75.65,2.64.11.6.39,1.23-.05,1.82Z"/><path class="cls-2" d="M128.74,148.59l-.43-2,.29-.06.36,2Z"/><path class="cls-2" d="M127.77,146.9l-.08-1.15C128,146.26,128,146.26,127.77,146.9Z"/><path class="cls-2" d="M130.92,71.86l0-.4a1.57,1.57,0,0,0,0-.58c-.48-1-1-2-1.47-3-.19-.39-.41-.82-.06-1.26.79,1.07,1.57,2.15,2.39,3.2a7,7,0,0,0,.95.84l.21-.12-.06-.82.67-.19v0c0,.09,0,.19,0,.28-.55.51.19.94.09,1.42-1,.27-1.13.22-1.67-.52a23,23,0,0,0-1.51-1.91,5.47,5.47,0,0,0,1.38,2.65c.38.41.75.83,1.12,1.25l-.46.41C131.75,72.91,131.47,72.21,130.92,71.86Z"/><path class="cls-2" d="M133.54,69.52l-.67.19L132,68.1c.19.07.44.08.56.21C132.91,68.69,133.22,69.11,133.54,69.52Z"/><path class="cls-2" d="M133.5,69.78c0-.09,0-.19,0-.28l.69.39-.12.23Z"/><path class="cls-2" d="M133.79,72.31l-.41-.3.1-.14.42.28Z"/><path class="cls-2" d="M150.54,72.17c-.29.7-.92.31-1.39.43l-.11-.3Z"/><path class="cls-2" d="M126.22,95.08l.43.11-.34,2.27h-.18Z"/><path class="cls-2" d="M126.58,101l-.36-1.82C127,99.65,126.62,100.36,126.58,101Z"/><path class="cls-2" d="M125.74,67.35l.13-.89.27.09-.42.79Z"/><path class="cls-2" d="M125.19,68.39l.55-1h0c-.14.38-.29.76-.44,1.15Z"/><path class="cls-2" d="M125.28,68.49c-.16.37-.32.75-.49,1.13l-.14-.13.54-1.1Z"/><path class="cls-2" d="M124.51,74.3c-.05-.75.49-.68,1-.71l1.31.1,0,0-.22.2C125.83,73.92,125.11,73.74,124.51,74.3Z"/><path class="cls-2" d="M127.1,76.22V76l1.56.28-.23.28Z"/><path class="cls-2" d="M128.22,136a.79.79,0,0,1,0,1.12Z"/><path class="cls-2" d="M137.42,94.55a4,4,0,0,1,1,3.64l-.48-.08a3.54,3.54,0,0,0-.92-3.59Z"/><path class="cls-2" d="M139.45,96.45c.16-.6.44-1.22-.4-1.57v-.25c.36.19.73.35.94-.19h.23c-.17.71.38.91.83,1.18l0,.25-.88-.29-.49.87Z"/><path class="cls-2" d="M128.91,132.19l.23-.21c.11.9.23,1.81.34,2.71l-.29.26-.22-.25Z"/><path class="cls-2" d="M129.55,136.78l-.36-1.83.29-.26A3.19,3.19,0,0,1,129.55,136.78Z"/><path class="cls-2" d="M125.88,83.36c.16-.43.54-.43.9-.45l1.8-.06-.25.42Z"/><path class="cls-2" d="M129.6,76.78l-.75.67-.84.14c0-.09,0-.19,0-.28l.68-.4Z"/><path class="cls-2" d="M127.59,111.63l.48,0-.08.74-.15,0Z"/><path class="cls-2" d="M129,134.7c0,.45-.06.9-.1,1.35l-.13,0c-.12-1.21-.23-2.41-.34-3.62Z"/><path class="cls-2" d="M129.9,97.32l-.19-1.27.25,0c0,.43-.05.87-.07,1.3Z"/><path class="cls-2" d="M124.48,83.52a1.05,1.05,0,0,1,1.17-.17,7.48,7.48,0,0,0,1.13.21c.5,0,1-.07,1.52-.11l.44.26-1.79.17-1.37.11Z"/><path class="cls-2" d="M128.67,168.28l-.24-1,.26,0,0,1Z"/><path class="cls-2" d="M132.08,61.75c-.36.19-.69.27-.83-.31.39-.16.73-.29.8.34Z"/><path class="cls-2" d="M132.05,61.78c.43.11.64.34.32.94-.12-.4-.21-.68-.29-1Z"/><path class="cls-2" d="M121.14,62.25c0-1,.12-1.13,1.11-1.09Z"/><path class="cls-2" d="M122.77,62.33a2.77,2.77,0,0,1-.35.38,2.42,2.42,0,0,1-.46.17C122,62.27,122.24,62.18,122.77,62.33Z"/><path class="cls-2" d="M97.5,72.66a11.59,11.59,0,0,1,3.94-.11l.33.64-.67-.07v-.29a7.78,7.78,0,0,0-4.29.53,4.65,4.65,0,0,0-1.51-.12c-1.72.48-3.41,1.05-5.11,1.6l-2,.65-.1-.16a33,33,0,0,1,6.33-2.22A26.91,26.91,0,0,1,97.5,72.66Z"/><path class="cls-2" d="M86,76.44c-.71.19-1.44.34-2.14.57a1.55,1.55,0,0,0-.65.55c-.43.56-.81,1.15-1.24,1.7-.09.13-.32.16-.48.23l-.16-.2a6.25,6.25,0,0,0,.71-.75c.22-.33.75-.59.34-1.12a2.72,2.72,0,0,0,1.12-1.31c.06-.19.34-.31.72-.63l-.11,1,3.94-1.16.1.16c-.61.35-1.42.3-1.84,1Z"/><path class="cls-2" d="M67.55,76.24l-1.2-.14.6-.66.32.33.3-.48a.65.65,0,0,0-.35-.84,8.17,8.17,0,0,1-.71-.49l.26-.18a1.52,1.52,0,0,1,.42.16c1.84,1.36,4,2.08,6,3.17l.48.27-.42.05-3.4-1.6c-.53-.25-1.06-.47-1.75-.78-.08.49-.13.83-.18,1.16Z"/><path class="cls-2" d="M52.54,69.67c2,.52,4.06,1,6.08,1.58a3.47,3.47,0,0,1,1,.43A22.93,22.93,0,0,1,56,70.8l-3.7-.9Z"/><path class="cls-2" d="M40.26,68.41a21.32,21.32,0,0,1,5.64.19l-.28.24a2.9,2.9,0,0,1-1.08.09,16.33,16.33,0,0,0-3.82-.29Z"/><path class="cls-2" d="M54.1,70.87a5.72,5.72,0,0,1,3.11.7c.13.06.33.12.36.23a1.37,1.37,0,0,0,1.74,1c-.87.5-1.38.42-1.89-.26-.28-.38-.55-.69-1.08-.64-.24,0-.5.05-.51-.37,0-.12-.39-.29-.63-.35s-.73-.09-1.1-.14Z"/><path class="cls-2" d="M71.26,79.38a2.92,2.92,0,0,1-1.45-.26c-.94-.33-2-.42-3-.66A7.87,7.87,0,0,1,65.7,78c1.23.24,2.45.49,3.68.71.54.1,1.09.13,1.64.18Z"/><path class="cls-2" d="M83.12,73.15c-.78.62-1.45,1.16-2.14,1.69,0,0-.2,0-.54-.12l2.09-1.55-1.89-.45C81.43,72.69,82.26,72.4,83.12,73.15Z"/><path class="cls-2" d="M71.26,79.38,71,78.84l1.92-.55-1.29.78,3.85,1.39Z"/><path class="cls-2" d="M54.1,70.87V71a12.82,12.82,0,0,1-4.52-.67.76.76,0,0,1,0-.21l.89-.57,1,.26-.83.36A9.19,9.19,0,0,0,54.1,70.87Z"/><path class="cls-2" d="M51.46,69.83l-1-.26-2-.34c0-.07,0-.15,0-.22,1.21.14,2.42.28,3.63.44.13,0,.25.14.37.22l-.26.23Z"/><path class="cls-2" d="M67.55,76.24l.38,0c1,.7,2.11.6,3.34.68A3.18,3.18,0,0,1,67.55,76.24Z"/><path class="cls-2" d="M77.08,79.93a4.85,4.85,0,0,0-2.39-1.58l.22-.4.21,0,2.67,1.48a.45.45,0,0,0,0,.16Z"/><path class="cls-2" d="M62.77,73c-.07,0-.18.06-.22,0a2.81,2.81,0,0,0-2.24-.51c.54-.18,1.07-.4,1.62-.54.71-.18.74-.12.57.72,0,0,.18.11.28.17A.57.57,0,0,0,62.77,73Z"/><path class="cls-2" d="M43.09,69.62l.09.48-3.55.51a4.25,4.25,0,0,1,2.11-.83C42.24,70.17,42.63,69.61,43.09,69.62Z"/><path class="cls-2" d="M60.31,77.18l.22.12v.14l-5.15-.2L54.94,77l5.15.18Z"/><path class="cls-2" d="M65,73.6l-.25-.13v-.28a2.79,2.79,0,0,1,2.73,0l-2,.18Z"/><path class="cls-2" d="M62.77,73a.57.57,0,0,1,0-.13l1.42.22-.5.26-1.87.82L61.69,74a6.59,6.59,0,0,0,.72-.44C62.57,73.39,63,73.42,62.77,73Z"/><path class="cls-2" d="M77.76,79.61a.45.45,0,0,1,0-.16L81,77.9c-.21.2-.37.47-.61.58C79.55,78.89,78.65,79.24,77.76,79.61Z"/><path class="cls-2" d="M40.26,68.41l.46.23L37.77,69l-.06-.09A4.88,4.88,0,0,1,40.26,68.41Z"/><path class="cls-2" d="M62.56,77.37l1.34.19.23,0,.87.15.23.17a5.34,5.34,0,0,1-2.68-.35A1.41,1.41,0,0,1,62.56,77.37Z"/><path class="cls-2" d="M74.91,78l-.22.4-.89-.25-.54-.67.42-.05,1.27.33Z"/><path class="cls-2" d="M43.09,69.62c-.46,0-.85.55-1.35.16a3.13,3.13,0,0,1,2-.5Z"/><path class="cls-2" d="M65,73.6l.47-.23,1.27.41-.26.18Z"/><path class="cls-2" d="M74.91,78l0-.24,1.42-.43.06.21L75.12,78Z"/><path class="cls-2" d="M48.54,69c0,.07,0,.15,0,.22L47.18,69a1.49,1.49,0,0,1,0-.21Z"/><path class="cls-2" d="M49.61,70.14a.76.76,0,0,0,0,.21l-1.52.5A1.69,1.69,0,0,1,49.61,70.14Z"/><path class="cls-2" d="M47.2,68.74a1.49,1.49,0,0,0,0,.21l-1.56-.11.28-.24Z"/><path class="cls-2" d="M63.7,73.36l.5-.26.58.09v.28Z"/><path class="cls-2" d="M114.07,80.58a1.16,1.16,0,0,1,0,.18,7.94,7.94,0,0,1-1,.18A18.41,18.41,0,0,1,111,81a13.25,13.25,0,0,0-4.15.61,4.54,4.54,0,0,1-1,0c0-.44-.3-.64-.62-.84a4.85,4.85,0,0,1,1.52,0,22.05,22.05,0,0,0,3.43-.29,15.44,15.44,0,0,1,2-.34l-.81.51Z"/><path class="cls-2" d="M92.29,87.11a21.43,21.43,0,0,1-5.42,1.18c-.05,0-.11-.09-.22-.19.29-.41.52-.72,1.2-.62a11.17,11.17,0,0,0,2.44-.13c.67-.06,1.34-.15,2-.22Z"/><path class="cls-2" d="M110.85,85.08c-1.85,0-3.71,0-5.56,0-1.07,0-2.13.19-3.2.3l0,0a10.06,10.06,0,0,1,1.25-.4,27.66,27.66,0,0,1,7.1-.11Z"/><path class="cls-2" d="M100.23,81.64l3.19-.28c-1.24.3-2.42.91-4,.69Z"/><path class="cls-2" d="M105.23,80.81c.32.2.64.4.62.84l-2.46-.28Z"/><path class="cls-2" d="M92.3,87.13a14.68,14.68,0,0,1,3.89-.66,10.18,10.18,0,0,1-3.9.64Z"/><path class="cls-2" d="M80.52,87.92a4.32,4.32,0,0,1,2.57-1.47A8.22,8.22,0,0,1,80.52,87.92Z"/><path class="cls-2" d="M95.46,82.31l2-.31.42.13a4.66,4.66,0,0,1-2.47.41Z"/><path class="cls-2" d="M92.54,82.65a2.81,2.81,0,0,1,1.79.07l-1.83.36h0Z"/><path class="cls-2" d="M86.32,85.08l1.6-.42-2.56,1.06.49-.51Z"/><path class="cls-2" d="M100.3,85.77a8.94,8.94,0,0,1-2.53.58l0-.27,2.51-.4Z"/><path class="cls-2" d="M90,83.87l.5-.43h0l2.07-.36h0Z"/><path class="cls-2" d="M87.9,84.67A3.46,3.46,0,0,1,90,83.86Z"/><path class="cls-2" d="M100.23,85.68l1.84-.33,0,0-1.79.39Z"/><path class="cls-2" d="M83.07,86.46l1.64-.6A2.15,2.15,0,0,1,83.07,86.46Z"/><path class="cls-2" d="M95.46,82.31v.23l-1.14.19c.07-.12.14-.32.24-.34A5.5,5.5,0,0,1,95.46,82.31Z"/><path class="cls-2" d="M115.15,83l-1,.82c.1-.81.57-.82.9-1Z"/><path class="cls-2" d="M79.44,82.42c3.61-1.4,7.22-2.82,10.84-4.19a17,17,0,0,1,2.26-.57l0,.23c-1.94.65-3.89,1.24-5.81,2-1.46.55-2.85,1.27-4.3,1.85-1,.38-2,.66-3,1Z"/><path class="cls-2" d="M86.33,76.48l-.63.75a6.94,6.94,0,0,1,4.22-1.66,4.63,4.63,0,0,0,1-.39c.22-.09.44-.17.8-.29l-.31.51-.4.18-1,.57.19.15a3.33,3.33,0,0,0-1.2-.26,4,4,0,0,0-2.42,1c-.32.32-.61.66-1,1a2.22,2.22,0,0,1-.66.27,2,2,0,0,1,1-1.83Z"/><path class="cls-2" d="M79.44,82.42v.25c-1.8.78-3.42,2-5.35,2.44l-.1-.23Z"/><path class="cls-2" d="M101.77,73.19l-.33-.64a1.43,1.43,0,0,1,1.69,0l-.51.06v.14l1.67.08v.24C103.46,73.07,102.67,73.65,101.77,73.19Z"/><path class="cls-2" d="M92.52,77.89l0-.23,4.54-.9.19.21Z"/><path class="cls-2" d="M91,75.58l.4-.18c.41-.13.83-.25,1.23-.39s1.09-.42,1.63-.64c-.84.52-1.66,1.06-2.51,1.55C91.43,76.14,91.15,76,91,75.58Z"/><path class="cls-2" d="M103,76l.25.26c-1,.15-2,.3-3,.42-.14,0-.31-.13-.46-.2Z"/><path class="cls-2" d="M101.09,72.83v.29l-2.67.7C98.87,73.14,99,73.11,101.09,72.83Z"/><path class="cls-2" d="M97.27,77l-.19-.21a2.83,2.83,0,0,1,1.86-.12l-.51.26Z"/><path class="cls-2" d="M73.85,81.5l1.64-1C75.2,81.32,74.47,81.3,73.85,81.5Z"/><path class="cls-2" d="M59.92,80.58a.83.83,0,0,1,.21-.06,33.28,33.28,0,0,1,7.46.47,2.09,2.09,0,0,1,.44.26l-8.12-.46C59.91,80.72,59.92,80.65,59.92,80.58Z"/><path class="cls-2" d="M59.92,80.58c0,.07,0,.14,0,.21l-2.44,0C58.08,80.46,58.1,80.46,59.92,80.58Z"/><path class="cls-2" d="M70.23,81.79,69,81.61l0-.24,1.44.21Z"/><path class="cls-2" d="M55.12,81l1.36-.32c-.4.5-.9.3-1.38.3Z"/><path class="cls-2" d="M62.56,77.37a1.41,1.41,0,0,0,0,.2l-2-.13V77.3Z"/><path class="cls-2" d="M70.23,81.79l.21-.21a1.44,1.44,0,0,1,.31,0c.09,0,.15.13.17.37Z"/><path class="cls-2" d="M73.63,69.17,72,70l.35.24a3.83,3.83,0,0,0-1-.34,14.94,14.94,0,0,0-1.89.08L69,69.72a7.46,7.46,0,0,1,1.33-.11A4.67,4.67,0,0,0,73.53,69Z"/><path class="cls-2" d="M68.12,69.48,68,68.61l2-.68.13.2c-.83.27-1.59.6-1.61,1.6Z"/><path class="cls-2" d="M74.1,68.24l1.1.28-1.57.65-.1-.13c-.06-.13-.1-.34-.19-.37a3,3,0,0,0-.67,0l0-.24.64,0Z"/><path class="cls-2" d="M54.79,65.68a1.84,1.84,0,0,1-1.85.15,3.34,3.34,0,0,1,1.85-.15Z"/><path class="cls-2" d="M68.12,69.48l.47.25H69l.45.27a10.81,10.81,0,0,1-1.27-.07C67.88,69.87,67.89,69.66,68.12,69.48Z"/><path class="cls-2" d="M57,65.79l-.43.15c-.06-.69.43-.74.92-.79l0,0Z"/><path class="cls-2" d="M54.79,65.68l1-.23,0,.27-1.06,0Z"/><path class="cls-2" d="M110.22,103.36v.27l-.84,0,.39.37-.06.22-.83.2v.16l.78.08.68.27c-.93.11-1.85.2-2.77.33a.91.91,0,0,0-.8.8,6.78,6.78,0,0,1-.65,1.29c-.46.89-1,1.77-1.37,2.68a3.24,3.24,0,0,0-.08,1.11c-.44,0-.63-.21-.62-.62l.19-.46,2.13-4.15a1.74,1.74,0,0,1-2.17-.47c0-.07-.21-.05-.32-.07l-2.08-.11c.42-.07.85-.12,1.27-.22.12,0,.21-.23.31-.35l0-.3.11-.53-.75-.26c.63-.1,1.16-.2,1.21-1l.23.25.14.62v.22l-.69.56,1.26.14.28.27.62.45-1.1.15c.78.29.78.29,1.32.1l.13-.64a12.66,12.66,0,0,0,1.38-.15c.15,0,.26-.26.39-.41a3,3,0,0,0,.72-.4c.28-.28,0-.44-.23-.55,0-.06,0-.13,0-.2l2.56-1.54a.63.63,0,0,0,.64.58c.31.42.11.68-.26.89l-.2-.22.2-.39a1.73,1.73,0,0,0-1.7.55Z"/><path class="cls-2" d="M101.8,105.22l2.08.11-.34.4-1.4.12a1.18,1.18,0,0,0-1.3-.06l-3.67.49a.21.21,0,0,0-.17,0l-2.74.24A78.06,78.06,0,0,0,85.68,108l-1.41.35-1.16.32-1.57.27v-.25l2.52-.8h0c1.73-.31,3.46-.64,5.19-.93,2.44-.39,4.88-.77,7.32-1.12C98.31,105.63,100.05,105.44,101.8,105.22Z"/><path class="cls-2" d="M59.63,105.62l-.25-.26c1-.3,1.92-.59,2.87-.91,1.51-.49,3-1.07,4.52-1.48,2.4-.65,4.83-1.2,7.25-1.79,0,0,0,.11,0,.17a5.73,5.73,0,0,1-1,.38,42.57,42.57,0,0,0-8.26,2.37c-1.1.4-2.27.65-3.4,1C60.76,105.24,60.2,105.44,59.63,105.62Z"/><path class="cls-2" d="M59,99.26l1.07-.69-1-.24-.21-.23h3.44l.89.29a11,11,0,0,0-1.83.2c-.8.23-1.55.6-2.33.91Z"/><path class="cls-2" d="M74.89,105.4a29.64,29.64,0,0,1,6.43-2.15l.25.24-5.3,1.69c-.43.13-.86.22-1.3.33A.44.44,0,0,0,74.89,105.4Z"/><path class="cls-2" d="M69,107.58c0-.06,0-.12,0-.18l2.12-1,1.09-.49,0,0,1.35-.31,1.37-.27a.44.44,0,0,1,.08.11Z"/><path class="cls-2" d="M74,101.35c0-.06,0-.12,0-.17,1.24-.23,2.48-.47,3.73-.68a8.42,8.42,0,0,1,1-.08l.68.24c-1.44.22-2.87.44-4.31.64A10.19,10.19,0,0,1,74,101.35Z"/><path class="cls-2" d="M48.7,98.36l-2.39.07c-.36,0-.72.08-1.09.13l-1.49,0a2.64,2.64,0,0,1,.88-.36c1.36,0,2.72,0,4.09,0Z"/><path class="cls-2" d="M81.55,108.72V109c-1.05.32-2.11.63-3.16,1a8.24,8.24,0,0,0-.81.35l-1.51.54v-.32A20.84,20.84,0,0,1,81.55,108.72Z"/><path class="cls-2" d="M53.92,101.91l-.09.68c-.56.44-1.1.88-1.67,1.3-.31.23-.66.42-1.18.75.21-1,.94-1.17,1.44-1.55Z"/><path class="cls-2" d="M92.64,103.58l.27-.24h.94l-.74-.6.37-.26L94,103a.23.23,0,0,1,0,.18l0,.27,2.47.56-.24.21Z"/><path class="cls-2" d="M81.57,103.49l-.25-.24c1.29-.46,3.71-.88,4.44-.62Z"/><path class="cls-2" d="M43.08,101.41l2.12-1.55C45,101.15,45,101.15,43.08,101.41Z"/><path class="cls-2" d="M67.14,98.8c.06-.4-.08-.53-.45-.32l-1.56-.09a1.48,1.48,0,0,1,0-.21c.59,0,1.17-.09,1.75-.1s1.1,0,1.65.06l-.26.41Z"/><path class="cls-2" d="M68.28,98.55l.26-.41,2.68.36-.2.18Z"/><path class="cls-2" d="M103.4,104.35l0,.3-4.24-.32a.92.92,0,0,0,0-.16Z"/><path class="cls-2" d="M71,98.68l.2-.18,3.14.15.21.22-.66.07L73,98.85Z"/><path class="cls-2" d="M84.07,107.92l-2.24-.57a1,1,0,0,1,0-.17,3.36,3.36,0,0,1,2.24.75Z"/><path class="cls-2" d="M81.82,107.18a1,1,0,0,0,0,.17l-2.22,0-.48.36,0-.61Z"/><path class="cls-2" d="M65.14,98.18a1.48,1.48,0,0,0,0,.21h-2l-.89-.29Z"/><path class="cls-2" d="M96.21,104.21l.24-.21c.77,0,1.56.23,2.25-.32l-.25.61Z"/><path class="cls-2" d="M66.61,106.17l-1.42,1.23c.13-.67.13-.67,1.13-1.27Z"/><path class="cls-2" d="M57,103.44l.24,0-1.55,1c.12-.19.18-.45.35-.56A6.52,6.52,0,0,1,57,103.44Z"/><path class="cls-2" d="M76.05,110.51v.32l-1.27.75-.15-.24Z"/><path class="cls-2" d="M74.57,98.87l-.21-.22.69-.24a1.45,1.45,0,0,0,1.37.28l0,.07V99Z"/><path class="cls-2" d="M79.43,100.66l-.68-.24,1.55-.2C80.09,100.83,79.73,100.66,79.43,100.66Z"/><path class="cls-2" d="M41.45,98.61a.4.4,0,0,0,0-.15l1.69.05Z"/><path class="cls-2" d="M45.45,103.53l.86-.75.13.14-.91.7Z"/><path class="cls-2" d="M54.87,105.16l0,.41-.89.68A1.36,1.36,0,0,1,54.87,105.16Z"/><path class="cls-2" d="M60.15,104.32l1.11,0C60.88,104.48,60.51,105,60.15,104.32Z"/><path class="cls-2" d="M72.19,106h-.37c.12-.49.52-.36.76-.52l.13.18-.54.37Z"/><path class="cls-2" d="M62.58,108l.46-.27.1.13-.42.34Z"/><path class="cls-2" d="M49.86,97.65l-9.51-.47L40.17,97,42,96.88a3.57,3.57,0,0,0,2.41.12l4.13-.24a.76.76,0,0,1,0,.15l1.31.52Z"/><path class="cls-2" d="M68.8,97.08l-.44.35c-1.31-.06-2.61-.11-3.91-.19A5,5,0,0,1,63.6,97l1.14-.16Z"/><path class="cls-2" d="M63.23,97c-.71,0-1.41.07-2.11.06-1.18,0-2.37-.07-3.55-.11l-.22-.22,1.34,0,1.87-.07,2.41.14Z"/><path class="cls-2" d="M54.19,97l-2.75,0a1.23,1.23,0,0,0,0-.2L54,96.79Z"/><path class="cls-2" d="M57.35,96.74l.22.22-1.85.09-.23-.24Z"/><path class="cls-2" d="M51.46,96.86a1.23,1.23,0,0,1,0,.2l-2.89-.15a.76.76,0,0,0,0-.15Z"/><path class="cls-2" d="M44.43,97A3.57,3.57,0,0,1,42,96.88Z"/><path class="cls-2" d="M40.17,97l.18.21-2.21-.06a.43.43,0,0,0,0-.19Z"/><path class="cls-2" d="M78.05,97.48l-.65.61-.51-.21Z"/><path class="cls-2" d="M63.23,97,63,96.79l1.77.08L63.6,97Z"/><path class="cls-2" d="M55.49,96.81l.23.24H54.19L54,96.79Z"/><path class="cls-2" d="M105.42,95.94l.46-.23.73.19c.68.17.84-.26.89-.79h.18l.12.69,3.24-.34-.06.71,0,.9-.43-.68a2.83,2.83,0,0,0-.9-.25c-.91,0-1.82.16-2.72.25Z"/><path class="cls-2" d="M105.42,95.94l1.55.44-2.68.08-.54.48-.44,0-.49-.26c-.34,0-.68,0-1-.1s-.66-.13-1-.19l.78-1,0,.81Z"/><path class="cls-2" d="M106.61,95.9l-.73-.19.53-1.84-3.2.34c.53-.59,1.3-.46,2-.58,1.66-.3,1.73-.21,1.31,1.48C106.41,95.41,106.3,95.68,106.61,95.9Z"/><path class="cls-2" d="M93.83,97.1,93.65,96a21,21,0,0,1,3.22-1L96,96.15c-1.11-.41-1.47-.33-2,.48l.53.11c0,.07,0,.14,0,.21Z"/><path class="cls-2" d="M98.52,94.59c1.69-.12,1.69-.12,3.74-1.2a2.66,2.66,0,0,1-1.77,1.5C99.85,94.93,99.13,95.29,98.52,94.59Z"/><path class="cls-2" d="M100.41,96.33c-.12.51-.55.38-.9.43l-2.28.32L95.85,97a.45.45,0,0,1,0-.16l.47-.44c1,.53,2,0,3.06.08A6.78,6.78,0,0,0,100.41,96.33Z"/><path class="cls-2" d="M110.86,94.16a2.11,2.11,0,0,1,0-2.53l.25,2.29Z"/><path class="cls-2" d="M110.86,94.16l.26-.24.21,1.33.85.29c0,.06,0,.13,0,.19l-1,.17-.24.26.06-.71Z"/><path class="cls-2" d="M107.68,95.1h-.18a2.86,2.86,0,0,1,.73-1.89A4.55,4.55,0,0,1,107.68,95.1Z"/><path class="cls-2" d="M85.79,95.13a2.6,2.6,0,0,1,2.26.15v0l-1.83.12Z"/><path class="cls-2" d="M110.12,91.67c0,1-.6.84-1.09.87Z"/><path class="cls-2" d="M85.79,95.13l.44.25-1.29.48C85,95.4,85,95.4,85.79,95.13Z"/><path class="cls-2" d="M103.23,94.2l-1.54,1.07A2.12,2.12,0,0,1,103.23,94.2Z"/><path class="cls-2" d="M88.05,95.28c1,.29,1,.42.62,1.37h0a1.73,1.73,0,0,0-.63-1.4Z"/><path class="cls-2" d="M89.55,97.15a1,1,0,0,0,0-.16h1.35a1.36,1.36,0,0,0,0,.2Z"/><path class="cls-2" d="M48.7,98.36v-.24l5.41,0,.27.25c-.4,0-.81.09-1.22.09C51.67,98.46,50.18,98.41,48.7,98.36Z"/><path class="cls-2" d="M49.86,97.65v-.22l4.43.22v.21Z"/><path class="cls-2" d="M58.82,98.1l.21.23-3.37,0-.27-.24Z"/><path class="cls-2" d="M55.39,98.14l.27.24-1.28,0-.27-.25Z"/><path class="cls-2" d="M97,102.48c-.65,0-1.29.11-1.93.14-.4,0-.82-.07-1.06.37l-.49-.52.23-1.07.29.89h3A1.23,1.23,0,0,0,97,102.48Z"/><path class="cls-2" d="M96.25,103.23l.89-.08.41.19-1.31-.14Z"/><path class="cls-2" d="M92.56,100.7l-.24.44-.26-.26-.67-.07Z"/><path class="cls-2" d="M92.06,100.88l.26.26-.73,1.48-.35.25C91.51,102.2,91.79,101.54,92.06,100.88Z"/><path class="cls-2" d="M113,73.85a1.47,1.47,0,0,1-1.89.94C111.56,74.05,112.25,74.1,113,73.85Z"/><path class="cls-2" d="M118,77.84l-1.49-.59v0l1.59.47Z"/><path class="cls-2" d="M114.89,77v-.18l1.57.5v0Z"/><path class="cls-2" d="M118.05,77.74l.8.28-.1.23-.79-.41Z"/><path class="cls-2" d="M104.24,110l-.19.46a4.94,4.94,0,0,0-4,.07c-.33.14-.67,0-.87.13s-.49.43-.86.2l-.27-.28a4.23,4.23,0,0,0,1.72-1.2c.21.17.42.47.65.49C101.71,110,103,110,104.24,110Z"/><path class="cls-2" d="M96.54,111a5.11,5.11,0,0,1-4.05-.62l0,0,4,.46C96.55,110.89,96.55,111,96.54,111Z"/><path class="cls-2" d="M106.28,114.42c-.63.16-1.27.3-1.91.47a.85.85,0,0,1-1-.19l.66-.37h0a3.68,3.68,0,0,0,.8.08c.5,0,1-.14,1.5-.22Z"/><path class="cls-2" d="M113.34,107.5l.53.06.52.38c-.15.43-.57.49-.71.31-.57-.72-1.38-.42-2.07-.58,0-.06,0-.11,0-.17Z"/><path class="cls-2" d="M91.38,110.33l-2.21-.81a8.13,8.13,0,0,1,3.35.84l0,0Z"/><path class="cls-2" d="M113.75,104.63l.23.28h-.42l-1.42-.08-.16,0-1.1-.28Z"/><path class="cls-2" d="M110.88,104.54l1.1.28-1.64.07-.68-.27Z"/><path class="cls-2" d="M95.74,114.15l.45-.4.42,0-1.42,1.34Z"/><path class="cls-2" d="M96.54,111c0-.07,0-.13,0-.2l.23-.08,1.29-.14.27.28Z"/><path class="cls-2" d="M96.8,113.73h-.17l.05-.63.67-.74c0,.19.09.41,0,.55A5.66,5.66,0,0,1,96.8,113.73Z"/><path class="cls-2" d="M91,114.36l1.4-.64A1.53,1.53,0,0,1,91,114.36Z"/><path class="cls-2" d="M112.14,104.84l1.42.08A1.11,1.11,0,0,1,112.14,104.84Z"/><path class="cls-2" d="M93.69,112.9l.32-.38a2.56,2.56,0,0,1,.36,0C94.42,112.9,94.15,113,93.69,112.9Z"/><path class="cls-2" d="M89.8,114.51l1.17-.16C90.62,114.65,90.25,114.88,89.8,114.51Z"/><path class="cls-2" d="M108.43,103c0,.07,0,.14,0,.2a1,1,0,0,0-1.07.85l.58.1c-.13.15-.24.38-.39.41a12.66,12.66,0,0,1-1.38.15c-.3-.38-.64-.16-1-.06l-.28-.27.93-.61-.1-.2-1.4.11v-.22c.47,0,.94-.11,1.4-.13.73,0,1-.6,1.26-1.1a.83.83,0,0,0-.29-1.15,2.63,2.63,0,0,1-.42-.64l.2-.21,1.18,1.24.77-.8c.51-.53.5-.83,0-1.48.69.16.76-.41,1-.82l.19.21-.29,1.5c1.2-.12,1.2-.12,1.54-.75l-.89-.18c1.29-.12,1.29-.12,1.81-1.17.1-.19.22-.38.33-.57l.15.81.27,0-.18.61c.54,0,1-.07,1.48-.08,1.28,0,1.28,0,1.54-1.32a.9.9,0,0,1,.08-.21l.24,0c.14.22-.28.63.25.7h.24l-.09.83.93-.08-.24.38a1.05,1.05,0,0,0-1.26.64,3.23,3.23,0,0,1-.58.71l-.22-.11.16-1.07-.61.19-.13-.25c-1.11-.08-2.25-.26-3,.86a.53.53,0,0,1-.4.19c-1.18,0-1.58,1.14-2.41,1.65C107.83,102.21,108,102.71,108.43,103ZM106,104l.16.27.51-.38a1,1,0,0,0-.1-.17Z"/><path class="cls-2" d="M111,101.48c.61-.33,1-1,1.86-.94-.41.32-.85.62-1.22,1-.09.09,0,.36,0,.55A.63.63,0,0,1,111,101.48Z"/><path class="cls-2" d="M111.17,102.73l.2.22-.21.4-.46-.19-.25-.46Z"/><path class="cls-2" d="M113.29,100.15c.28-.3.55-.6.82-.91l.13.25Z"/><path class="cls-2" d="M116.37,97.56l-.22.44h-.24l-.11-2v-.28l.43,0,.17.21v1.13Z"/><path class="cls-2" d="M109.71,104.18l.06-.22,1.74.34Z"/><path class="cls-2" d="M113,104.13l-1.05,0Z"/><path class="cls-2" d="M124.48,83.52l1.1.47-.65.27c-.62-.13-.62.19-.44.62-.31-.15-.57-.35-.52-.76Z"/><path class="cls-2" d="M178.58,70.13l-.48-.24.28-.17,4.54-.6A72.24,72.24,0,0,0,195,66.2c1.13-.34,2.29-.6,3.44-.9l0-.25,2,0,.26.26-.48.35h0a14.14,14.14,0,0,0-1.85.19c-2.57.63-5.16,1.23-7.69,2A71.25,71.25,0,0,1,178.58,70.13Z"/><path class="cls-2" d="M182.13,66.57l-.92,0,0-.19,1-.31a3.49,3.49,0,0,0,.65,0,5,5,0,0,1,2.48,0v.42l-2.52.78a2.44,2.44,0,0,1-.62-.09c-.25-.1-.28-.29-.06-.48.82.48,1.43-.2,2.14-.32l0-.22Z"/><path class="cls-2" d="M198.45,65.05l0,.25-3.56-.67-.42-.23-1-.05,0-.11,3.19-.38-.72.47Z"/><path class="cls-2" d="M200.68,65.35l-.26-.26,3-.43.48.25-1.51.38.71.67-.25.27-.43-.07-.9-.29h0l.52-.63Z"/><path class="cls-2" d="M208.88,63.75l1.2-.13.06.16-2.47.82,1.13.92a.74.74,0,0,1,0,.21l-1.55-.87-.24-.58,1-.31Z"/><path class="cls-2" d="M188.91,66.93l-3.49.17v-.22A5.89,5.89,0,0,1,188.91,66.93Z"/><path class="cls-2" d="M211.46,66.6l3-1.28c0,.09.11.24.08.25a4.61,4.61,0,0,1-3.06,1.29Z"/><path class="cls-2" d="M194.43,64.4l.42.23c-.67.92-1.09,1.11-2.91,1.21.36-.19.56-.3.76-.38s.49-.18.74-.26C193.88,65.06,194.31,64.93,194.43,64.4Z"/><path class="cls-2" d="M191.53,63.79,188.73,65l-.23-.24,3-.94Z"/><path class="cls-2" d="M211.46,66.6v.26l1.39,1.38c-.86,0-1.29-.77-1.91-1.19l-.17-.44Z"/><path class="cls-2" d="M206.74,61.13l-1.35.41-.47-.73,1.57.08Z"/><path class="cls-2" d="M206.6,64.13a.57.57,0,0,0,0,.14l-1,.18c.22-.39-.14-.43-.33-.57l-.91-.58,0,0C205.26,63.22,205.83,63.94,206.6,64.13Z"/><path class="cls-2" d="M206.74,61.13l-.25-.24a10.72,10.72,0,0,1,1.47-.24c.18,0,.38.24.57.36h0Z"/><path class="cls-2" d="M205.65,64.45l1-.18H207l.24.58-2-.13V64.5Z"/><path class="cls-2" d="M189.88,66.44l1.35-.63C190.73,66.44,190.73,66.44,189.88,66.44Z"/><path class="cls-2" d="M205.24,64.5v.23l-1.31.18-.48-.25Z"/><path class="cls-2" d="M184.89,67.16l-1.2.38-.08-.26,1.18-.42Z"/><path class="cls-2" d="M188.5,64.74l.23.24-1.18.24-.06-.3Z"/><path class="cls-2" d="M204.41,63.3l-1.13-.55c.56-.11.95,0,1.11.57Z"/><path class="cls-2" d="M185.31,66.44V66l1,0,0,.11Z"/><path class="cls-2" d="M204.23,61.9l-.56.24-.06-.17.56-.21Z"/><path class="cls-2" d="M207.56,67.75l-1.14.51c.82,1.46,2.23,2.32,3.4,3.54l-.41,0a37.8,37.8,0,0,0-3-2.64,3.78,3.78,0,0,0-3.62-.29s0,.13,0,.2l-.22.2c-.42-.43-.94-.28-1.44-.23s-1.15.16-1.72.24a1.48,1.48,0,0,1,0-.21l1.72-.45-.53-.15.46-.23,2-.06h1l0-.22-1,.23-.83-.52.64,0c.41-.08.71-.21.22-.6a3.28,3.28,0,0,0-.58-.32l-.25-.16.26-.28,1.95,1a1.74,1.74,0,0,0,1.79.49l.85-.18.28-.13h.25C207.57,67.62,207.57,67.69,207.56,67.75Z"/><path class="cls-2" d="M196.38,74.86l-2.47-1c1,.53,1.81-.06,2.69-.35l.16.26-.45.14C196.12,74.33,197,74.49,196.38,74.86Z"/><path class="cls-2" d="M191.49,73.09l-4-1.31v-.24l4.21,1.32Z"/><path class="cls-2" d="M193.27,70.23l-4.55.69-.05-.1L193,70Z"/><path class="cls-2" d="M195.71,69.64l3.66-.53a1.48,1.48,0,0,0,0,.21c-1,.16-2,.33-3,.46A2.06,2.06,0,0,1,195.71,69.64Z"/><path class="cls-2" d="M199.51,75.86c-.82.64-.87.64-1.63,0l.07-.46A2,2,0,0,1,199.51,75.86Z"/><path class="cls-2" d="M203.51,73.33l-1.2.92c.08-.93.72-.8,1-1.09Z"/><path class="cls-2" d="M199.4,72.31c-.46.49-.81.68-1.37.14Z"/><path class="cls-2" d="M191.33,71,192.6,71s0,.06.15.23l-1.4.09Z"/><path class="cls-2" d="M204.74,69.91l1.07.51-.07.18-1.13-.44Z"/><path class="cls-2" d="M188.72,70.92l-1.59.53-.26-.2,1.8-.43Z"/><path class="cls-2" d="M186.87,71.25l.26.2.39.09v.24L186,71.47v-.3Z"/><path class="cls-2" d="M198,75.41l-.07.46a4.06,4.06,0,0,1-.77-.33c-.15-.09-.22-.29-.33-.44Z"/><path class="cls-2" d="M202.52,69.31l.22-.2,1,.53A1.32,1.32,0,0,1,202.52,69.31Z"/><path class="cls-2" d="M195,69.7l.48.17c.14.2.28.4.55.81l-1-.41Z"/><path class="cls-2" d="M195,69.7v.57l-1.12-.11,0-.34Z"/><path class="cls-2" d="M191.49,73.09l.24-.23,1.47.73Z"/><path class="cls-2" d="M202,70.48l.78,0,0,.16-.79.13Z"/><path class="cls-2" d="M193.93,69.82l0,.34-.64.07L193,70l.17,0,.28-.15Z"/><path class="cls-2" d="M191.38,75.34l2,.29,0-.12L191.63,75c1.31-.25,2.15,0,2.41.86-.42,0-.8,0-1.18.05s-.84.12-1.26.18l-.65-.32Z"/><path class="cls-2" d="M179.55,72.27a4.85,4.85,0,0,0-.69-.26c-.37-.07-.44-.3-.4-.61l-.38-.46a1,1,0,0,1,.1-.17,5.1,5.1,0,0,0,1.23,1,8.15,8.15,0,0,0,1.81.29l.18.52-1.35-.07Z"/><path class="cls-2" d="M181.38,72.55l4.51,1,0,.27-4.13-1C181.6,72.76,181.5,72.63,181.38,72.55Z"/><path class="cls-2" d="M187.61,74.2a3.52,3.52,0,0,1,2.45,1l-.7.19c0-.47-.41-.52-.71-.68S188,74.38,187.61,74.2Z"/><path class="cls-2" d="M189.36,75.42l.7-.19,1.32.11-.43.45a9.83,9.83,0,0,1-1.08-.09A1.72,1.72,0,0,1,189.36,75.42Z"/><path class="cls-2" d="M185.85,73.84l0-.27,1.75.65Z"/><path class="cls-2" d="M182.8,71.72l1.39-.17,0-.67a1.13,1.13,0,0,0,1.34.1l.48.19v.3c-.83.17-1.65.37-2.49.49C183.28,72,183,71.81,182.8,71.72Z"/><path class="cls-2" d="M209.3,68.75a2.45,2.45,0,0,1,1.9.45C210.29,69.7,209.69,69.59,209.3,68.75Z"/><path class="cls-2" d="M210.77,66.61l.17.44-1.81.5-.27-.23c.58-.25,1.3-.19,1.71-.79h0Z"/><path class="cls-2" d="M208.86,67.32l.27.23-1.57.2c0-.06,0-.13,0-.19Z"/><path class="cls-2" d="M158.52,106.61l.7.25,3.48,2.27c.34.21.68.47,1.11.21a12.39,12.39,0,0,0,3.95,1.38l-.21.19-1.11.15a.84.84,0,0,1-.32-.08,4.55,4.55,0,0,0-3.24-.79l0-.25c-.22-.18-.43-.37-.66-.54Z"/><path class="cls-2" d="M141.7,106.91a4.84,4.84,0,0,0-2.45-1.28,3.45,3.45,0,0,1-2.19-.91l2.14-2.12c0,.08.15.21.13.31a2.24,2.24,0,0,0,.9,2.28c.47.42,1,.83,1.44,1.24Zm-4.09-2.38a2.92,2.92,0,0,0,2.2.84l-1.13-1.61Z"/><path class="cls-2" d="M146.55,102a18.45,18.45,0,0,1,2.22.55,2.11,2.11,0,0,1,1.53,1.84h0a4,4,0,0,0-3.28-1.94,2.87,2.87,0,0,1-.72-.23Z"/><path class="cls-2" d="M149.51,101.69l1.55.51-.05.18-.57-.11a1.11,1.11,0,0,0-.57,0l.87.56a3.45,3.45,0,0,1-2-.7Z"/><path class="cls-2" d="M149.51,101.69l-.72.45-1.84-.67.06-.26Z"/><path class="cls-2" d="M143.37,103.18c-.47,0-1,.08-1.42.1a1.21,1.21,0,0,1-1.24-.58l2.66.27Z"/><path class="cls-2" d="M158,109.66l2.16.22a.86.86,0,0,0,0,.16c-.15,0-.35,0-.44,0-.74.7-1.31.33-1.87-.26Z"/><path class="cls-2" d="M152.9,111.2a3.19,3.19,0,0,1-1.93-2.26h0l1.92,2Z"/><path class="cls-2" d="M160.16,110a.86.86,0,0,1,0-.16l2.68.06,0,.25-1.37.22Z"/><path class="cls-2" d="M143.1,107.89c.48-.39-.13-.61-.14-.92.72.15,1,.64,1,1.52Z"/><path class="cls-2" d="M143.37,103.18V103l1.12.22-.06.27Z"/><path class="cls-2" d="M152.9,111.2v-.3l1.55.92h0Z"/><path class="cls-2" d="M155.79,108l.22-.21.64.83-.22.17Z"/><path class="cls-2" d="M150.3,104.4l.46,1.18a1.05,1.05,0,0,1-.44-1.19Z"/><path class="cls-2" d="M162.8,111.55c.18,0,.42,0,.53,0a6.37,6.37,0,0,1,.66.71Z"/><path class="cls-2" d="M157.85,109.82l-.92-.57.1-.21a2.88,2.88,0,0,1,1,.63Z"/><path class="cls-2" d="M154.45,111.82l.89.05,0,.23a.76.76,0,0,1-.85-.28Z"/><path class="cls-2" d="M146.55,102l-.23.21-.83-.1C145.84,101.82,146.19,102,146.55,102Z"/><path class="cls-2" d="M162.7,109.13l-1.35-1.5,2.46,1.71C163.38,109.6,163,109.34,162.7,109.13Z"/><path class="cls-2" d="M174.84,107.88c-.08.3-.18.6-.23.9a9.73,9.73,0,0,0-.06,1C173.8,109.22,173.8,109.22,174.84,107.88Z"/><path class="cls-2" d="M171.2,105.88l.94.53-.06.17-2.56-.55,0-.14,1.69,0Z"/><path class="cls-2" d="M173.3,107.12l-.59-.3.06-.14.61.23Z"/><path class="cls-2" d="M167.55,110.91l.21-.19.78.26A1,1,0,0,1,167.55,110.91Z"/><path class="cls-2" d="M141,95.86l0-.25c.3-.49.62-1,.88-1.49a1.85,1.85,0,0,0,.09-1.78l.13-.11c.62.43.45,1,.27,1.59a9.94,9.94,0,0,1-.57,1.19.85.85,0,0,0,.07,1.09c-.11.14-.34.29-.33.42a2.49,2.49,0,0,0,2.17,2.15c.47,0,.95,0,1.65.09l-1.08.36-.28.19c-1.13-.63-2.41-.43-3.61-.62v-.13l1.9,0A3.45,3.45,0,0,1,141,95.86Z"/><path class="cls-2" d="M140.43,98.56v.13l0,.21,1.56.18a3.28,3.28,0,0,1,.57.21v.24c-.25,0-.53.21-.75.15-1.32-.37-2.75-.32-3.94-1.16-.25-.18-.64-.14-1-.21l-.21-.4,1.26.2.48.08.6.08.43-1.82h.18c0,.29,0,.58-.08.87C139.39,98.34,139.38,98.34,140.43,98.56Z"/><path class="cls-2" d="M154.24,97.42c1.35,0,1.62-.33,1.49-1.55H156c.09.38.19.76.32,1.29l4.33-.38c-.08.08-.22.15-.23.23a1.29,1.29,0,0,1-1.22,1.19,2.78,2.78,0,0,1-1.74.1c-.32-.14-.77,0-1.42.06l1-.54s-.07-.13-.1-.13a9.11,9.11,0,0,1-3.45-.11Zm5.33.17,0-.19-.95.25,0,.2Z"/><path class="cls-2" d="M153.84,100.69l-1.06,0-.69-.25h1.29Z"/><path class="cls-2" d="M147.05,99.1l-.75-.32v-.24l1.13.52Z"/><path class="cls-2" d="M149.75,74.16a1.37,1.37,0,0,0,0-.19,4.13,4.13,0,0,1,2.14.22A2.12,2.12,0,0,1,149.75,74.16Z"/><path class="cls-2" d="M112.23,98.24a5.22,5.22,0,0,1,2.57-2.36l1-.15V96l-.14,1.28-.24,0,0-1.18a6.2,6.2,0,0,0-2.88,2.18Z"/><path class="cls-2" d="M113.12,94.46c.12-.29.26-.54.8-.35l-.36.84-.21-.48Z"/><path class="cls-2" d="M113.35,94.47l.21.48,0,.23C112.85,95.1,113.3,94.74,113.35,94.47Z"/><path class="cls-2" d="M147.73,97.3c-1.29-.91-2.75-1.59-3.71-2.91.07,0,.16,0,.21,0,1,.73,2,1.45,3,2.2A3.72,3.72,0,0,1,147.73,97.3Z"/><path class="cls-2" d="M144,94.41a1.15,1.15,0,0,1-.94-1.17.86.86,0,0,1,.83-1,1.1,1.1,0,0,1-.17.4.78.78,0,0,0,.07,1.25A1.75,1.75,0,0,1,144,94.41Z"/><path class="cls-2" d="M145.28,94.23l-.69-.08V94l.71,0Z"/><path class="cls-2" d="M124.6,81.49c-.23.18.07.74-.49.69l-.43-.5Z"/><path class="cls-2" d="M104.26,100.56a2.8,2.8,0,0,1-.06,2.3l-.23-.25Z"/><path class="cls-2" d="M106,105.37l-.22-.25-.62-.45c.33-.1.67-.32,1,.06C106.11,104.94,106.07,105.16,106,105.37Z"/><path class="cls-2" d="M85.68,108l2.93,1.22c.2.08.38.19.57.28-1-.25-1.91-.51-2.87-.74-.67-.17-1.36-.28-2-.41Z"/><path class="cls-2" d="M101,106.21a1,1,0,0,1,0-.16l1.09-.2,1.4-.12-1.82.81-.64-.19A.64.64,0,0,0,101,106.21Z"/><path class="cls-2" d="M96.25,103.23v0c-.7.6-1.5.26-2.26.24l0-.27Z"/><path class="cls-2" d="M100.69,100.18c-.74-.18-.79.4-1,.86l-.69-.83L97.14,100c.86.15,1-.66,1.52-1h.47a3.6,3.6,0,0,0,2-1.43,2.24,2.24,0,0,1,1.69-.92l.49.26A2.3,2.3,0,0,0,101,98.81c-.86,0-.86,0-1.48.86Z"/><path class="cls-2" d="M99.13,99h-.47l-1.45-1.9L99,98.42l.59-.36.12.07Z"/><path class="cls-2" d="M109.19,97c.5-.14,1.11,0,1.4-.64l.43.68c-.07.1-.11.26-.21.3a2.52,2.52,0,0,1-.56.1H110l-.85-.25A1.36,1.36,0,0,0,109.19,97Z"/><path class="cls-2" d="M104.29,96.46l1.59.15c-.19.59-.63.42-.94.51s-.86-.05-1,.49h-.19v-.67Z"/><path class="cls-2" d="M95.85,97H94.52c0-.07,0-.14,0-.21l1.34.05A.45.45,0,0,0,95.85,97Z"/><path class="cls-2" d="M104.19,99.63l.44.07-.36.88a1.12,1.12,0,0,0-1.33-.74l1-.18Z"/><path class="cls-2" d="M104.19,99.63l-.3,0-.15-2h.19Z"/><path class="cls-2" d="M107.69,99.42c-.21,0-.42.12-.63.15a.61.61,0,0,0-.57.68l-.2.21-.44-.77A4.18,4.18,0,0,1,109.19,97a1.36,1.36,0,0,1,0,.2,9.47,9.47,0,0,0-1.46.73A9.58,9.58,0,0,0,106.58,99l.09.26Z"/><path class="cls-2" d="M109.39,98.39l.63-.92h.23c-.23.38-.45.76-.67,1.14Z"/><path class="cls-2" d="M106,104l.57-.28a1,1,0,0,1,.1.17l-.51.38Z"/><path class="cls-2" d="M208.8,65.73a.74.74,0,0,0,0-.21l1.75,1h0Z"/><path class="cls-2" d="M200.2,65.7l1.37.18h0l-.7.4-.63-.58Z"/><path class="cls-2" d="M207.05,67.68l-1.42-.45,2.05-.16-.35.48Z"/><path class="cls-2" d="M193.2,69.94l-1.95-.71.05-.18,2.15.51,0,.23Z"/><path class="cls-2" d="M185.51,71a1.13,1.13,0,0,1-1.34-.1Z"/><path class="cls-2" d="M153.84,100.69l-.46-.23,5.06-.85c0,.56-.53.5-.84.55C156.35,100.38,155.09,100.52,153.84,100.69Z"/><path class="cls-2" d="M155.13,98.5a1.71,1.71,0,0,1-1.95.48Z"/><path class="cls-2" d="M146.31,98.54v.24c-.9-.47-1.81-.92-2.68-1.42a6.86,6.86,0,0,1-.93-.78Z"/><path class="cls-2" d="M150.49,96.3a1.66,1.66,0,0,1-1.34-.76Z"/><path class="cls-2" d="M100.55,107.2c0-.54-.43-.23-.67-.29l1.12-.7a.64.64,0,0,1,.08.14c-.14.23-.12.38.19.37Z"/><path class="cls-2" d="M99.9,106.9l-1,.66Z"/></g></g></svg>