<svg xmlns="http://www.w3.org/2000/svg" viewBox="0 0 250.51 242.66"><defs><style>.cls-1{fill:#fff;}.cls-2{fill:#060b2b;}</style></defs><title>Fichier 2</title><g id="Calque_2" data-name="Calque 2"><g id="A4"><rect class="cls-1" width="250.51" height="242.66"/><path class="cls-2" d="M80.69,142.37l1.32-.14.62,0a6.18,6.18,0,0,0,.38,2.32c1.37.11,1.59,0,2.21-1.28s1.29-2.63,2-3.93a3.57,3.57,0,0,1,.47-.74,26.92,26.92,0,0,0,3.21-4.84,9,9,0,0,0,.74-1c.21-.39.06-.56-.53-.73-.11-.06-.22-.18-.33-.18-.5,0-.61.45-.84.76l-.5-.24.56-1.23a7.72,7.72,0,0,0-4-1.73,4.2,4.2,0,0,1-2,1.77,2.51,2.51,0,0,1-3.41-2.42,3.2,3.2,0,0,0-.59-2.27c-.35,0-.75.08-1.16.1-.1,0-.22-.13-.33-.21l.1-.18h-.09v.21H78.2l-.37.11h0l-.27,0-.32,0,.54-.42c.68-.51.7-.79.1-1.4-.09-.1-.2-.17-.34-.3l.32-.55-.45-.89.4-.42.16.15-.06-1.41c-.82-.27-1.65-.53-2.48-.82-.42-.16-.82-.39-1.23-.59v-.31l.08-.23-.49,0h0v-.22l.25-.21,5.28,1.75c.07-.34.17-.7.21-1.06a16.39,16.39,0,0,1,.16-2.12,2.43,2.43,0,0,1,2.1-2.15,6.46,6.46,0,0,0,.76-.18,2,2,0,0,1,1.91.49,1.9,1.9,0,0,0,1.21.56A9,9,0,0,0,91,115.05a2.7,2.7,0,0,0-.35-.64c-.72-.65-1.47-1.28-2.21-1.91s-1.51-1.31-2.3-1.93-1.88-1.4-2.82-2.1A2.82,2.82,0,0,1,82,106.71c-.17-1.1-1-1.37-1.87-1.5a17.44,17.44,0,0,1-1.92-.3,7.44,7.44,0,0,1-1.59-.75c-.13-.08-.15-.36-.22-.54a8.86,8.86,0,0,0,3.12.79c.43.3.54,0,.58-.34,1,0,1.1-.19,1.06-1.1l-3-.49-.42-.22,0-.5a10.45,10.45,0,0,0,4,.68l.21.78.65,1.22a3.14,3.14,0,0,0,.82,3.33c.89.71,1.81,1.37,2.7,2.08,1.46,1.15,2.89,2.33,4.34,3.48a1.36,1.36,0,0,0,1.86.13,18.15,18.15,0,0,0-2.36-3l.25-.27,1.45,1.28c.78.68,1.55,1.37,2.36,2.1,4.27-1.54,8.54-3.14,13.3-3.42.72-1,1.46-2,2.29-3a6.14,6.14,0,0,1,1.1-.72,5.33,5.33,0,0,0,.87-.77,44.77,44.77,0,0,0,2.91-3.41c1-1.35,2.45-1.9,3.76-2.72.54-.34,1.14,0,1.69.17.85.33,1.71.64,2.54,1a4,4,0,0,0,2.38,0,7.49,7.49,0,0,1,.82,0l-.54.5a4.69,4.69,0,0,1-.64.09,7.06,7.06,0,0,1-2.11-.05A35.34,35.34,0,0,1,119,99.87a2.16,2.16,0,0,0-.57,0c-.08,0-.2.25-.17.3a1.05,1.05,0,0,0,.34.22v0l.21.26a.25.25,0,0,0,0,.12l.83,1.13-.23.46-.63-.46-2.18,1.43-.13,0-.14-.15,1.68-1.36c-.72-.2,0-.53-.1-.84l-.45-.41a5.76,5.76,0,0,0-2.42,1.67c-.53.66-1.15,1.24-1.69,1.89s-1.28,1-1.37,1.95c-.27.22-.69.32-.69.79a.54.54,0,0,0,.85-.07c.22-.27.47-.51.71-.76l.3.28a8.7,8.7,0,0,0-.6.76,4,4,0,0,0-.4.87c-.19.65-.33,1.31-.49,2l0,.3.22-.06c1.36-.27,2.72-.58,4.09-.8,1.53-.25,3.07-.42,4.61-.63l.3.32-.33.56c-.06.1-.13.2-.2.3l-.28,0-.19-.54-.22.52a3.51,3.51,0,0,0-2.51.39l1.21.06c0,.25-.12.41-.45.36a3.39,3.39,0,0,0-.83.06,23.24,23.24,0,0,0,2.86.18c1.41.09,2.83,0,4.24,0,.61,0,1.31-.23,1.87.29.07.07.25,0,.37.06a4.72,4.72,0,0,0,2.39,0h.64l.24.18-.84.06,0,.18.82-.24c.15,0,.34-.09.44,0a2.52,2.52,0,0,0,1.66.23c.29.32.49.3.61-.13l2.15-.09a5.23,5.23,0,0,1,1.05,0,7.61,7.61,0,0,1,1.12.43l-1.58.4-1.79.07v.23l1.48.08c.05.41-.24.41-.5.39-1.3-.08-2.6-.18-3.9-.28-1.56-.11-3.12-.24-4.69-.33-.9,0-1.83.05-2.73,0a48.39,48.39,0,0,0-7,0c-1.85.08-3.7.38-5.54.56a20.6,20.6,0,0,0-2.62.77,2.81,2.81,0,0,0,1,0c.45,0,.9-.14,1.35-.14,1.54,0,3.07,0,4.61,0a11.07,11.07,0,0,1,1.5.22c-1.46,0-2.93,0-4.39,0-.94,0-1.88.09-2.82.13l-.25,0-.39.06c-.34,0-.73-.18-.86.34h-.23c-.3-.35-.55-.19-1,.14l.9.09.19.54c-.21.31.18.13.2.25s0,.43.17.51c.44.31.92.56,1.39.83v.4h-.59c-.34-.29-.66-.6-1-.87-.06,0-.25.1-.38.15a6.43,6.43,0,0,1-1.07-.76,2.68,2.68,0,0,0-1.45-.88l.23-.21.09-.18h-.12l-1-1.13a14.66,14.66,0,0,1-1.88.43,39.69,39.69,0,0,0-6.2,1.29c-.36.11-.8.11-.93.58l-.26.09.06.08.2-.16,4.52-.33,0,.3,0,0a19,19,0,0,0-2.71.25l0,.22.72,0v.33a21.34,21.34,0,0,0-2.13.24c-1.84.41-3.66.88-5.49,1.31a2,2,0,0,0-1.35.87l-.66.3c-1.5.68-2.84,1.71-4.49,2.08l-.42.25-.42.2-.72.18v1.26l-.2,0c0-.45-.08-.91-.15-1.36s0-.82.57-.84a.76.76,0,0,0,.83-.69l-2-.23-.08.38-.41,0a3.2,3.2,0,0,0,.17-.64,1.48,1.48,0,0,0-.17-.47l-.19.06.08,1,0,.48a3.11,3.11,0,0,1-.54.35c-.26.11-.56.13-.82.25-.42.19-.42.35-.11.83l1.67-1.06.2.22a.75.75,0,0,1,0,.16h0c-.29.19-.64.31-.6.76.06.73.11,1.45.17,2.18l-.4,0-.49-2c-.22.13-.44.21-.36.63.11.63.09,1.29.14,1.94,0,.27.08.54.14.92l.87-.28.4.15.35.42c-.4.15-.22.38,0,.54s.4.25.41-.15l1.88-.3.51.09,2.28,1.29.1.28.28.78a9.31,9.31,0,0,1,4,1.7A5.24,5.24,0,0,0,91,131a10.12,10.12,0,0,0,3.66.73c1.88-.05,3.76,0,5.64-.06l.82.11-.38.31c-.45.46-.45.65,0,.76s1,.18,1.52.26l0,.51-2.32-.27L99.68,132l-7.07.17A12.14,12.14,0,0,0,91,134.89a8.08,8.08,0,0,1-.64,1.1c-1.35,2-2.73,4-4,6.13a11.78,11.78,0,0,0-.68,1.92,6.88,6.88,0,0,1-.61,1.09c-.19.28-.46.28-.78.2a11.18,11.18,0,0,0-3.58-.72,2.27,2.27,0,0,1-.74-.2l.24-.42c.64-.06,1.28.34,1.94,0l0-.68-1.18-.21c.06-.16.48-.35,0-.48C80.78,142.57,80.74,142.44,80.69,142.37Zm1.56-12.48-.18-.2-.07-.37-.14.07c.06.1.13.2.2.3l.2.19,0,.06h0Zm28.65-22.22-.22.16-.31.41c.06,0,.14.08.15.07s.2-.22.3-.34l.17-.22.3-.12-.05-.13ZM86.75,119.06l-.14.17.24-.08.4-.14,0-.13Zm-5.22-.44-.12-.58-.18,0c.07.22.13.44.2.66l.71.16,0-.13ZM106.21,115l.15.52.21-.1-.35-.42-.15-.2Zm-22.13,4.23,0,.23.24-.08c.25-.09.53-.16.5-.75Zm.93.48-.45.14a3,3,0,0,0-1.68,1,3.18,3.18,0,0,0,1.86-.84l.28-.31c.46,0,1,.17,1.35-.39A2,2,0,0,0,85,119.67Zm-2.94-2.15-.63-.69c-.42.89.36.94.65,1.42l.16-.54c.48-.39.18-.77.08-1.16h-.22Zm-6.88,2.36a7.88,7.88,0,0,0,3.18.88,6.81,6.81,0,0,0-3.17-1l-.22,0ZM83,128.3c0-.3-.07-.49-.36-.28a1,1,0,0,0-.38.63,3.13,3.13,0,0,0,.29.95l1.27-.66c-.4,0-.27-.7-.71-.53Zm24-15.9-1.28.35c0,.45.29.47.6.43q1.68-.21,3.36-.45c.32,0,.63-.09,1-.15l.91-.19a2.39,2.39,0,0,0-1.13-.17l-3.43.2-.13-.16-.09.11Zm3.69-2.17a3.15,3.15,0,0,0,.81-2.18C110.75,108.65,110.87,109.5,110.7,110.23Zm-1.58.1c.86.1,1.11-.36.9-1.74Zm-22.06,6.85a1.61,1.61,0,0,0,1.86,0Zm5.54-1.64c.91.18,1.12.07,1.33-.6Zm9.7-2.63a1.36,1.36,0,0,0,1.46-.56A3.71,3.71,0,0,0,102.3,112.91Zm-16.15,5.93,1.49-.48C86.92,118.21,86.46,118.33,86.15,118.84Zm-1.34-.46c.34.23.61.17.71-.16,0-.11-.2-.3-.37-.52Zm23-7.17L108,111l-.46-.36-.12.14Zm-22,5.49c-.55,0-.7.06-.55.48Zm-4.13,12.35.22,0-.06-.47h-.13Zm12.61-14.22v.08h.31v-.08ZM82.58,119s0-.05,0-.06,0,0-.06-.07l0,.13Zm.22-2.59s0,0-.06,0,0,0-.06,0,0,0,.06,0S82.78,116.47,82.8,116.45Zm1,3.1s-.05,0-.07,0,0,0-.06,0l.13,0Zm-9.1.09.08-.06s0-.06-.07-.06,0,0-.07,0Z"/><path class="cls-2" d="M156.89,115.08l5.68,0,.4,0c1.42.15,2.84.32,4.27.44,1.69.13,3.4.11,5.07.34,2.26.3,4.53.38,6.8.53,1.69.11,3.38.29,5.07.43.61,0,1.24.07,1.86.05,2.29-.06,4.53.52,6.81.59s4.57.74,6.87,1a46.3,46.3,0,0,0,5.77.19c2.22-.07,4.42-.33,6.64-.48s4.22-.22,6.33-.39a7.76,7.76,0,0,1,4,1,3.63,3.63,0,0,0,.07.39c.21.83,0,1.29-.83,1.43a16.86,16.86,0,0,1-2.82.29c-1.47,0-2.94-.12-4.41-.14a31.55,31.55,0,0,0-6.71.59c-.71.14-1.4.43-2.12.58-1.07.21-2.15.35-3.23.53h0c-.49-.37-.74-.29-1,.27l-3.65.54,0,.18,2.25.35a21,21,0,0,0,4.48-.19c1.62-.12,3.24-.21,4.87-.32,1.26-.09,2.53-.13,3.78-.32a9.52,9.52,0,0,1,3.11.12,19.55,19.55,0,0,1,3.86,1,4.84,4.84,0,0,1,3.1,3.45c-.5.69-1,1.27-2,1v-.35a.55.55,0,0,0,.57-.41c.2-.06.46.41.62-.09-.23-.11-.48-.41-.63.09-.55.19-.79-.14-1-.58l0-.5.56,0,0-.21a6.14,6.14,0,0,0-3-1.08,7.31,7.31,0,0,0-1-.19c-.69-.06-1.38-.08-2.07-.11l-.64-.54,0-.23,2.41.33,1.44.47c.5.15.78,0,.84-.56.42.09.58.73,1.15.54-.43-.72-.43-.72-1.15-.53a6.86,6.86,0,0,0-.77-.24c-.27,0-.55,0-.83-.08a.14.14,0,0,1-.06-.07c-.23-.66-.82-.49-1.31-.55l-.36-.05-.38-.16h-2.53a3.39,3.39,0,0,1-2.06.22s-.09.08-.14.12c-.94,0-1.88.12-2.82.15-1.22,0-2.45,0-3.67.08a33.37,33.37,0,0,0,3.6.17,10.39,10.39,0,0,1,1.33.19,7.5,7.5,0,0,1-3.3.07,5.35,5.35,0,0,1-1,.2c-1.69,0-3.38.11-5.07.07-1.84,0-3.69-.15-5.53-.31-1.42-.12-2.83-.44-4.25-.53s-3.06-.06-4.59-.08v-.39l1.21.16c.36,0,.63,0,.49-.56l-.64.08c-.4,0-.86-.33-1.06.31-.43,0-.83,0-1,.53h-.37c-.15-.1-.3-.28-.44-.28a1.18,1.18,0,0,1-1.27-.63l-.05.52a6.51,6.51,0,0,1-1.17,0,4.74,4.74,0,0,0-1.72,0,2.83,2.83,0,0,1-2.64-.55l6-.19c1.17,0,2.35,0,3.51-.12,1,0,2-.21,3-.25a8,8,0,0,1,3,0,.74.74,0,0,0,.29,0l1.33-.19a.41.41,0,0,1,0,.19l-.19.13s0,.06.07.06a7.94,7.94,0,0,0,4.48-.15l.4-.19.38,0,2.16-.37.43,0,1.28-.2a5.25,5.25,0,0,0,1,0c.17,0,.31-.23.46-.36a4.92,4.92,0,0,0,.94,0c1.7-.25,3.4-.53,5.1-.82a22.65,22.65,0,0,1,5.64-.08,3.46,3.46,0,0,0,2.24-.19c-.23-.34-.78.06-.9-.54h3.09c-.83-.68-1.64-.39-2.38-.42a15.21,15.21,0,0,0-2.24.08c-.73.08-1.53-.29-2.18.34a2.51,2.51,0,0,0-2-.27c-1.06.2-2.1.5-3.16.62-1.65.18-3.32.29-5,.35-1.08,0-2.11-.48-3.22-.4a4,4,0,0,1-1,0,17.56,17.56,0,0,0-2.35-.5c-2.28-.1-4.56-.11-6.84-.16v-.2h3.49v-.13l-.74-.1v-.09l.76-.06,1.71.21c-.6-.54-1.18-.33-1.71-.34a2.39,2.39,0,0,0-.88,0,5.41,5.41,0,0,1-2.88,0l-1-.07-2.19-.22,0-.49h.95c.11.49.48.33.77.29.08,0,.13-.19.19-.29l-.56-.23c-.8-.07-1.61-.14-2.42-.19a1.46,1.46,0,0,0-.51.17h-.12l-3.79-.31c-.87,0-1.75-.13-2.62-.08s-1.69-.28-2.51.2l5.13.12c.45.54,1.09.15,1.61.32l-.05.3c-1.59,0-3.18-.06-4.77-.11-2.23-.08-4.46-.19-6.7-.27-.76,0-1.52,0-2.28,0-.4-.31-.8,0-1.19,0l-1.52,0c-.32,0-.71,0-.95-.14a1.55,1.55,0,0,0-1.83.16l-.4-.06v-.15a.55.55,0,0,0,0-.22,1.77,1.77,0,0,0-.15-.31c.63,0,1.27.07,1.91.08,1.51,0,1.51,0,2-.34-.51,0-.85.06-1.18.06s-.82,0-1.23-.06l-.79-.45c.41-.06.82-.13,1.23-.16s.77,0,1.16,0V116l-2.12-.24c-.47,0-.94-.06-1.41,0a2.21,2.21,0,0,0-.65.26h-.36c-.4-.66-1-.66-1.39,0l-.31,0-1.45,0s0-.11,0-.17c-.08-.29-.18-.3-.58,0h-.59a1.67,1.67,0,0,0-1.71-.3l-4,0c-1.07-.06-2.14-.16-3.21-.18a8.2,8.2,0,0,0-1.38.2l0,.06,4.57.24a6.88,6.88,0,0,1,2.54.42l-.48.34.29,1-.58,0h-.8l-.94-.42-.06.11.24.25,0,.06-.38.38,0,0-.78.2-.77-.21c0-.58,0-.58.57-.4l.68.12.07-.18-.72-.33c-.43-.43-.77-.42-1.41,0-1.09-.57-2.2-1.1-3.26-1.71a5,5,0,0,0-2.41-.73l-.6-.14-.51-.07-2.24-.5-.35,0-1.2-.22-.68-.1-.93-.1-1.95-.32,0-.35,0-.09a44.37,44.37,0,0,1,6.37,1,4,4,0,0,0,2,.21c.12,0,.29.09.45.14a15.82,15.82,0,0,0,4.32.72c.87,0,1.75,0,2.62,0Zm38.25,8.66,2.27.41.05-.26a9.44,9.44,0,0,0-2.19-.34,9.19,9.19,0,0,0-3.9-.34,4.16,4.16,0,0,0,1.18.29C193.41,123.6,194.28,123.66,195.14,123.74Zm5.26-4.59c2.6.7,5.21.34,7.81,0Zm-28.2-2.27a15.44,15.44,0,0,0-3.62-.08c.21.16.29.25.35.25Zm15.88,6a1.74,1.74,0,0,0,2,0Zm1.56-4.94,2.24.17v-.2A3,3,0,0,0,189.64,118ZM175,117.29c-.85-.41-1-.41-1.77,0Zm35.79,1.76,0-.11h-2v.11Zm-12.15-.33,0,.29h.78l0-.2Zm-5.69-.53V118h-.52v.1Zm18.77.62,0-.12-.51.06a.33.33,0,0,0,.26.1A1.26,1.26,0,0,0,211.68,118.81Zm-10.24,3.78,0-.24-.67.12,0,.18Zm2.17-.28v-.19h-.56v.13Zm-13,.57V123h.33v-.08Zm-30.72-7.26-.08,0v.11a.12.12,0,0,0,.08,0S159.88,115.64,159.89,115.62Zm33.71,2.62.08,0s-.05,0-.07,0-.06,0-.08,0Zm-4.21,5.22,0,.05h0Z"/><path class="cls-2" d="M221.3,128.14v.35c-1.47,0-2.93.06-4.4,0-2.28-.08-4.56-.16-6.83-.36a40.44,40.44,0,0,1-4.06-.57c-2-.39-4-.53-5.95-.82a47.43,47.43,0,0,0-7.81-.38c-1.24,0-2.47.15-3.71.23-1.85.13-3.71.23-5.56.37l-8.87.68c-1.11.08-2.22.12-3.32.24-3.11.32-6.2.71-9.31,1-1.33.13-2.67.16-4,.2-1.69.07-3.38.12-5.07.14s-3.13-.06-4.69,0c-2.81.07-5.61.17-8.42.28a14.43,14.43,0,0,0-1.45.2l-1.78.16v-.51a61.31,61.31,0,0,1,10.68-.69,3.11,3.11,0,0,0-2.42-.22,1.72,1.72,0,0,1,.64-.28c1.06-.22,2.13-.43,3.19-.66a1.72,1.72,0,0,0,.65-.21c.14-.09.21-.3.42-.64h-2.73v-.26a7.09,7.09,0,0,1,2.22-.19,7.42,7.42,0,0,0,2.49,0l0,0a2.92,2.92,0,0,0,.49.1c.14-.43.43-.4.78-.31.1,0,.23-.09.35-.15l2.23-1.21-.88-.21v-.13l.58,0H156c.26.69.76,0,1.11.2l0,0,1,.22c-.16.1-.31.28-.47.29a7.66,7.66,0,0,0-3,1.18l.73.12-.18.33-2.89.72-.43-.06v.15l.42-.1c.53.34-.13.4-.15.75l1.47.13c.06.14.11.28.16.42h-1.11l0,.21,1.07-.22.33,0a10,10,0,0,0,1.44.15,34.41,34.41,0,0,1,5-.16,3.11,3.11,0,0,0,.68,0l3.21-.32.42-.38c.65,0,1.3,0,1.94-.06,2.09-.16,4.17-.35,6.25-.52s4.3-.33,6.45-.47c1.85-.13,3.71-.22,5.56-.34,3.06-.19,6.12-.4,9.18-.57.52,0,1,.15,1.56.1a16,16,0,0,1,4.09.21,8.9,8.9,0,0,0,1.55,0c.37,0,.75-.08,1.12-.12v.2s.06.14.1.15c1.28.22,2.55.51,3.83.61a23,23,0,0,0,3.1-.17v.14l-1.75.31,0,.11h8.83v.18l-3.15.07h-3.34v.1l3.37.2,6.68.21Zm-69.39-1.23,0-.11h-1.31v.11Zm-2.11,1.64v.09h1v-.09Zm6.17-3.79-.09-.25-.76.27.07.21Zm-7,3c.1,0,.16.09.21.08s.07-.07.11-.12Zm-1.55.75.15-.07c-.06,0-.1-.11-.16-.13s-.09.06-.14.1Zm2.17-1.46.17-.06s0-.06-.05-.06a1,1,0,0,0-.17,0Zm.18.55-.06,0v.06Z"/><path class="cls-2" d="M121.77,142.56a1.13,1.13,0,0,1,1.19.2l1.63,1.08a18.81,18.81,0,0,0,5.24,2.53,4.64,4.64,0,0,1,.77.39,3.07,3.07,0,0,0,1.93.66c1-.13,1.54.8,2.07,1.51.26.33,0,.56-.65.76,0-.21.09-.43.14-.68l-1.66-.63c-.3-.1-.34,0-.2.26a9.68,9.68,0,0,0,.77.64,7.3,7.3,0,0,0,.87.47c-.17.55-.25.6-.66.32l-1.7-1.16c-.09.61-.1.62.93,1.25.47.28,1,.49,1.7.83l-.81.17c-.37-.09-.8-.35-1.09-.24-.5.2-.62-.11-.84-.36s-.26-.35-.4-.53a.83.83,0,0,0-.87-.61,1.4,1.4,0,0,1-1.5-.65c-.08-.16-.39-.2-.59-.3l-3.9-1.92a9.93,9.93,0,0,1-2.29-1.73h.62l.37.23,0,0,.15.2.47.13h0l.12.19.16-.2a.09.09,0,0,0,.1,0c.81.5,1.77.72,2.4,1.57.26.36.9.42,1.37.62l1.17.34.27.2.06-.13-.35,0v-.22a3.54,3.54,0,0,1,.46,0c.4.08.35-.17.32-.41h.52l-.42-.29-1.76-.79c-.57-.4-1.08-1-1.87-.88h0l-.41-.21,0,0-.22-.27c-.34-.26-.52-.1-.63.24-.1-.3-.7-.25-.52-.75l.15-.07-.18-.12-.38-.2c-.13-.29-.26-.32-.39,0l-1.23-.71c-.43-.25-.64-.12-.78.49l0,.73a1.91,1.91,0,0,1-.77-1.51l.46-.14.11-.15-.24,0-.32.28a1.54,1.54,0,0,0-.34.39c-.28.73-.84,1.25-1.34,1.11A5.61,5.61,0,0,1,118,144c.48,0,1,.19,1.37-.32h-1.55l.19.33-2.15-.63a15.66,15.66,0,0,1-1.93-.94,25.07,25.07,0,0,1-5.81-4.71,9.38,9.38,0,0,0-1.5-1.52c-.61-.47-.71-1.2-1.11-1.77-.14-.2-.05-.56-.07-.85l.29-.56.52-.13c0,.77.1.8.94.5l1.13-.15c.63-.07,1.27-.19,1.77.36.15.06.3.28.45,0h0c0,.12,0,.29,0,.36a2,2,0,0,1,.48,2,1.66,1.66,0,0,0,.52,1.59,11.06,11.06,0,0,0,6.6,3.28,20.17,20.17,0,0,1,2.18.48,1.71,1.71,0,0,1,1.21,1.15Zm-10.45-2.85h0l.2.2h0l.2.21h0l.4.2h0l.2.19c.2.36.4,0,.6,0l1,.4,1.33.42a3.45,3.45,0,0,0,2.37,1.34l-.25-.61a3.08,3.08,0,0,1,2.18,1.11l1.45-.86c-.41-.18-.76-.46-1-.38-.47.19-.79,0-1.19-.15-1.12-.34-2.25-.61-3.39-.9l-.25,0-1.39-.92-.29-.18-1.55-1.1a6.5,6.5,0,0,1-1.88-2.64c-.23-.7-.59-.95-1.31-1.37-.07,0-.25.08-.37.12l-1.22.16c.18.21.39.57.5.54.65-.17.76.44,1.11.69v0l.21.21h0l.21.41v0a1.13,1.13,0,0,0,0,1l.21.36.58.38h0l.41.4h0l.2.2h0l.2.21h0l.39.21h0Zm18.87,8.23.26.21.06-.13-.34-.06-.3-.15,0,.13Zm-12-5.34-.14.18c.2.41.2.41.84.24Z"/><path class="cls-2" d="M170.22,139.85a6.45,6.45,0,0,1-3.64-.87,12.72,12.72,0,0,0-3.8-1.5c-1.59-.16-3.18-.29-4.77-.41-1.4-.11-2.8-.26-4.2-.25-4.32,0-8.61-.45-12.91-.77-2-.14-4-.29-5.94-.5-1.27-.13-2.52-.39-3.78-.55s-2.26-.23-3.39-.35l-2.53-.28v-.55c1.69.13,3.39.23,5.07.38.84.07,1.68.29,2.52.35,2.05.16,4.1.28,6.15.38a9.47,9.47,0,0,0,1.84-.1,19.33,19.33,0,0,1,4.16.28c1.53.11,3,.37,4.57.51,1.06.1,2.12.11,3.18.16V136l-.57.09,0,.11h2.52l1.2.06a10.61,10.61,0,0,0,3.77,0l-.45-.12V136c.89,0,1.79,0,2.68.08a3.8,3.8,0,0,1,.86.33l-1,.26,0,.18,1.11-.25,1.37-.26-.41-.22c.17-.35.37-.4.62-.08l.69.35,1.08.57a22.69,22.69,0,0,1,2.7.68l-.05.22-2.66-.48-.46-.16,0,.15.46.06c.19.16.37.4.59.46a15.32,15.32,0,0,0,2.58.45,2,2,0,0,1,1,.38Zm-9.62-3.32c-.13-.08-.18-.14-.22-.13a1.09,1.09,0,0,0-.23.09Z"/><path class="cls-2" d="M176.13,109.5l-2.17.32c.09-.34.14-.71.6-.75a1.83,1.83,0,0,0,.59.1c1.8-.28,3.59-.59,5.38-.9.75-.13,1.58.29,2.28-.3,0,0,.18,0,.18,0,.08.53.49.24.73.26.81.06,1.62,0,2.43.08a33.5,33.5,0,0,0,5.84,0l.25-.53.38-.66a4.77,4.77,0,0,0-1.49.1,5.39,5.39,0,0,1-2.19,0l.2-.26c-1.26-.1-2.48-.22-3.7-.28-.87,0-1.75,0-2.62,0a1.4,1.4,0,0,0-.28-.06,48.3,48.3,0,0,0-6.79.54l.29-.63c.09-.19.18-.36.28-.55a3.7,3.7,0,0,1,.9-.22c2,.09,4,.23,6,.33.91,0,1.81.07,2.72.07a3.28,3.28,0,0,0,.73-.19,8,8,0,0,0,1.18.25c.35,0,.71-.1,1.07-.08a6.6,6.6,0,0,0,2.73-.58c.93-.26,1.85-.55,2.79-.78a9,9,0,0,1,1.28-.13,4.82,4.82,0,0,1-.38.51c-.24.24-.51.46-.77.69l-1.74.55c.43.52.8.17,1.16.17a4.8,4.8,0,0,1,1.1.26,13.58,13.58,0,0,1,1.48-.74,17.93,17.93,0,0,0,2.07-1.2l.35-.22.47-.33-.09-.15-.53.3-.36.24h-.75c.54-.39.93-.65,1.29-.93s.45-.41.67-.62h0l1.61-.71a2.74,2.74,0,0,1,.7-.27c.27,0,.28.17.2.38l-.15.2-1.54.81c-.47.11-.76.31-.42,1l1-.74.89-.48.26.22-4,2.76c-.2.14-.39.29-.58.44l.06.19,1.47-.18-.07.32c-.41,0-.82,0-1.23,0a1.6,1.6,0,0,0-1.35.56l-.14.12a1.91,1.91,0,0,1-1.91.7c-.16,0-.36.1-.55.12-.34,0-.68.07-1,.09a5.06,5.06,0,0,0-.78,0,31.69,31.69,0,0,1-6.16.09c-1.53,0-3.06-.06-4.59,0s-2.79.27-4.18.44A9.75,9.75,0,0,0,176.13,109.5Zm16.61-2.92a1.53,1.53,0,0,0-1.23.27A1.38,1.38,0,0,0,192.74,106.58Zm.69.72c.67.18.67.18,1-.29Z"/><path class="cls-2" d="M164.55,136c-.25-.32-.45-.27-.62.08a6.21,6.21,0,0,0-2-.54,2.48,2.48,0,0,1-1.5-.57,4,4,0,0,0-2.14-.79l-1.19-.57-1.61-.48c.18-.32.45-.31.75-.24l1.38.29-.49-.64c1.57.4,3.13.81,4.7,1.2s2.9.73,4.35,1a3.23,3.23,0,0,0,1.35,0,20.16,20.16,0,0,0,2.12-.69,3.12,3.12,0,0,1,3.65.8,3.78,3.78,0,0,0,.9.52L174,136l0,.55c-.23.11-.29.24,0,.4.14.41.49.36.8.35l2.34-.11c-.21.56-.76.44-1.16.52-.85.17-1.75.15-2.4.88a.43.43,0,0,1-.27.1,2.64,2.64,0,0,0-1.46.63l-1.6.53c.07-.39.13-.78.19-1.17l.85-.5a3.83,3.83,0,0,1-1.06-.72,3.73,3.73,0,0,1-.32-1.19l-4.39-.24Zm7.42,1.48c.55-.94.56-1.1.13-1.86C171.45,136.23,172.31,136.89,172,137.48Zm-12.78-4-.07.22.52.09,0-.14Zm1.58.7.15-.07-.06-.06a.46.46,0,0,0-.16.07Z"/><path class="cls-2" d="M171.82,139.32a2.64,2.64,0,0,1,1.46-.63.43.43,0,0,0,.27-.1c.65-.73,1.55-.71,2.4-.88.4-.08,1,0,1.16-.52a.36.36,0,0,1,.18-.07l4.4-.07v-.15l-.82-.32c2-.11,4,.33,6.06.08l7.88-.15c.57,0,1.18.14,1.59-.46,0,0,.24,0,.36,0a8.64,8.64,0,0,0,2.58,1.64s.09-.12.14-.18l.29-.12v0l.2.18h0l.4.26,3.35,2.34,1.26.66a2.9,2.9,0,0,0,.44.69c.71.68,1.46,1.33,2.2,2,.11.21.22.41.32.62l-.45.22a8.92,8.92,0,0,0-2.86-2.31c-1.21-.71-2.32-1.57-3.48-2.35-.81-.55-1.66-1-2.44-1.62a6.72,6.72,0,0,0-4.55-1.07c-2.44.1-4.88.14-7.32.24-1.82.07-3.64.2-5.46.29a15.62,15.62,0,0,0-4.25.53,1.26,1.26,0,0,0-1.53.54.47.47,0,0,1-.36.14,8.84,8.84,0,0,0-3.14.55C172,139.4,171.91,139.34,171.82,139.32Z"/><path class="cls-2" d="M136.06,129.35v.51l-1,.25-.58-.24-.07.21.69.17c.61.06,1.23.16,1.85.18,1,0,2.07,0,3.11,0l1.63.07c1.77.06,3.55.14,5.33.18.4,0,.78,0,1,.4s.71.3,1.11.13,1,.06,1.44.06c.07.58.67.22.94.55l.05.52-.42,0a1.48,1.48,0,0,0-1.43,0,4.4,4.4,0,0,1-.8.26l-.87.07.54-.62-.95-.09c-.11,0-.22-.15-.33-.16-1,0-2,0-3,0a1.29,1.29,0,0,0-.47.21l-.14,0c-.07-.46-.44-.39-.74-.39-.7,0-1.39,0-2.08,0a9.62,9.62,0,0,1-2.87-.36c-.17-.06-.41.08-.61.12h-.17c-.13-.37-.29-.4-.46,0l-1.15-.27c-.12-.56-.25-.6-.86-.3l-.33,0c-.11-.12-.2-.32-.34-.36a3.08,3.08,0,0,0-2,.19l-1.2.19c-.43.08-1,0-1.27.29a1.19,1.19,0,0,1-.73.28c-.57.08-1.14.18-1.87.31l.92.16.07.2c-.37.39-.8.18-1.21.14l-.08-.31-.83.28-.89.25-1.16.16c-.16.09-.32.19-.49.27-.4.2-.5,0-.56-.36l.67-.34-1.4-.37,2.56-.4c0,.4.31.42.62.4s.35-.3.36-.56c1.55-.34,3.08-.73,4.64-1C132.21,129.92,134.14,129.65,136.06,129.35Zm14.14,2.49,0-.11c-.06,0-.13-.09-.17-.07a1.07,1.07,0,0,0-.22.15Zm-2.29-.32-.08,0v.12a.15.15,0,0,0,.09,0S147.91,131.54,147.91,131.52Z"/><path class="cls-2" d="M207.48,144.44l.45-.22c.26.27.51.55.76.82h0l.07-.48,0-.07c.28,0,.46-.1.34-.41s-.32-.37-.28-.48c.24-.65-.28-.82-.63-1.1-.12-.11-.26-.19-.39-.29.16-.23.1-.39-.15-.52s-.65-.57-1.1-.19c-.14-.47-.4-.74-.94-.61,0-.49-.31-.69-.72-.81l-1.93-1.47-4.4-3a3.15,3.15,0,0,0-.48-.26c-.37.57-.6,0-.87-.1s-.42-.19-.64-.24-.32.2-.36.41l-.33-.13-.39.65-.9-1-2.5.6,0-.72a12.13,12.13,0,0,0,3.28-1.37,2.09,2.09,0,0,1,2.8.25V134h-.24v.27l0,0,.21.34.4.21.38.25.62.31a63.46,63.46,0,0,1,6.26,4.53c.84.66,1.82,1.15,2.72,1.74a7.34,7.34,0,0,1,1.41,1,4.76,4.76,0,0,1,.91,1.47,1.39,1.39,0,0,1-.73,1.73,1.55,1.55,0,0,1-1.87-.29A9.73,9.73,0,0,1,207.48,144.44Z"/><path class="cls-2" d="M150.6,106.54H151c.59.77,1.11.78,1.57,0l1.57,0s0,.07,0,.09c.64.58,1.41.17,2.12.28.29,0,.68.13.8-.33a29,29,0,0,0,6.25.2,20.85,20.85,0,0,0,3.27-.54,20.48,20.48,0,0,0,2.58-1.17c.47-.21,1-.36,1.44-.53,0,.61.06,1.21-.8,1.28-.06,0-.11.2-.17.31l-.21.15.21-.15.39.2h0l-.18.59-.61.2h0l-.22,0a1.13,1.13,0,0,0-1.25.45l1.26-.34.39.24a1.09,1.09,0,0,1,0,.18l-.94.32,0,.16,1.13.14h0l.18.17c0,.57-.45.4-.77.43-.39-.27-.78-.59-1.25-.14l.1.81a9.58,9.58,0,0,0-.92-.65c-.39-.21-.6,0-.68.39-.29-.11-.59-.25-.89-.33s-.6-.1-.67.32l-.45-.3.06-.45c.56-.08,1.12-.14,1.67-.25.12,0,.18-.26.27-.39l.8.2c.36.44.36.44,1.07,0h-1.08l.7-.58a1.75,1.75,0,0,0-1.48.39,12.38,12.38,0,0,0-2.75.59l-.61-.18-1-.13-2.34-.41-2.77-.17c-.67-.17-.68-.16-.78.48l-.47-.44c-.16-.11-.33-.29-.51-.31a18.75,18.75,0,0,0-3.35,0l-1.18-.09Zm11.24,1.2,0,.12h1.54v-.12Z"/><path class="cls-2" d="M80.69,142.37c0,.07.09.2.15.21.52.13.1.32,0,.48l-.39,0-.24-.22a2,2,0,0,0-2.25-.4l-.54,0c-.52,0-.74.36-1,.68l-.42.41.14.13.46-.37.25-.09.28,0,.17.13,0-.14h.79l.4.58c-.35,0-.56.59-1,.21,0-.39-.21-.48-.57-.29s-.67.3-1,.45l-.38-.36c-.31.35-.77.59-.71,1.23l.89-.45.17.13v-.14l.81-.12.25.37a10.71,10.71,0,0,0-3.11,2.89c-1,1.21-2.1,2.31-3.25,3.55.24.18.5.34.73.53.47.39.4,1-.18,1.13a2.83,2.83,0,0,1-1,.06c-.44,0-.88-.12-1.37-.2-.05-.09-.09-.31-.22-.41-.52-.39-.42-.91-.39-1.43a1.83,1.83,0,0,1,1.13-1.65,9.19,9.19,0,0,0,1.9-1.65c.57-.53,1.13-1.08,1.71-1.6a11.18,11.18,0,0,0,1.57-1.72,13.91,13.91,0,0,1,2.24-2.3c.89-.77,1.91-.35,2.89-.11A7,7,0,0,1,80.69,142.37Zm-9.25,6h0l-.88.91-.06.23.23-.08.34-.12-.85,1-1.56.46a4,4,0,0,0,.23,1.19c.19.37,1.58.58,2.11.44-.23-.53-.67-.45-1-.34v-1.08l.51-.42,2.39-2.43-.77-.1.37-.51-.17-.13-.55.59a.15.15,0,0,0-.11.14Z"/><path class="cls-2" d="M150.6,106.54l0,.71-6.23.31-.24.11h-1.76c-.21-.2-.41-.22-.59,0H140.4l-.58.2.17.31.39-.28,1.35-.1c.12.06.43,0,.24.28-.36,0-.82-.3-1,.29l-2.12.06.8-.4c-.11-.35-.15-.68-.61-.4h-1.38l-1.21-.14-4,.2-.78,0c-2,.19-4.08.35-6.12.59-1.57.19-3.14.49-4.71.74l-.3-.32c1.3-.31,2.58-.69,3.89-.91,1.61-.26,3.24-.41,4.86-.55s3.45-.27,5.18-.37c2.51-.14,5-.3,7.53-.37,2.68-.08,5.36-.06,8-.09C150.21,106.49,150.4,106.53,150.6,106.54Zm-8.47.71v-.11h-1.57v.11Z"/><path class="cls-2" d="M169.86,106.91l.18-.59.21-.15-.21.15-.39-.2h0c.06-.11.11-.31.17-.31.86-.07.84-.67.8-1.28a1.63,1.63,0,0,1,1.69.34,3.61,3.61,0,0,0,2.28.89,14.84,14.84,0,0,1,1.73.21c-.1.19-.19.36-.28.55l-.29.63-.17.34-.43.2-.81.72.22.66c-.46,0-.51.41-.6.75l-.56.1-.45-.28v-1l.67.09c-.16-.47-.09-.92-.58-1.09l-.3-1.12c-.63.59-.63.59-.32,1.3-.34.52,0,.67.42.82l-.6.39c-.68,0-1.37,0-2.06,0-.27,0-.31.18-.11.38l1.06,1.14a3,3,0,0,0-.93.26,1.53,1.53,0,0,1-1.37.27c-.34-.08-.8-.07-.94.44l-.78,0,.39-.9.2-.41V110L168,110c.16.3.4.44,1,.3l-.79-.61.78-.78c.32,0,.76.14.77-.43l-.18-.17h0l-.21-.62a1.09,1.09,0,0,0,0-.18l-.18-.38h0Zm4.37.36s0,.13.07.15.1,0,.16,0l-.1-.19Z"/><path class="cls-2" d="M74.07,118.85l-.25.21-.36.08v.09l.36,0h0l.41.28v.31a11.37,11.37,0,0,1-3.49-1.45c-1.38-.64-2.73-1.35-4.07-2.07-1.9-1-3.83-2-5.65-3.08-1.58-1-3-2.14-4.53-3.22-.29-.21-.56-.44-.85-.65l.16-.16,1.09.49a4,4,0,0,0,.52.56,41.28,41.28,0,0,0,5.35,3.54c.7.39,1.45.67,2.18,1l1.13.66a.58.58,0,0,0,.79.18l-.63-.37-1.15-.63c-2.84-1.46-5.39-3.36-8.06-5.08-1.16-.78-2.31-1.55-3.48-2.32a2.18,2.18,0,0,0-.53-.16h0c0-.38-.25-.48-.6-.4h0l-.4-.41h0c-.18-.3-.38-.57-.79-.39h0c.09-.49-.26-.53-.6-.6h0c-.26-.26-.51-.53-.78-.78s-.58-.49-.86-.73l.17-.19c1.41,1,2.81,2.1,4.23,3.12.48.35,1,.59,1.51.9,1.56,1,3.12,2,4.67,3,.87.57,1.69,1.23,2.58,1.76,1.93,1.15,3.9,2.22,5.83,3.36a37.64,37.64,0,0,0,5.36,2.75Zm-3.42-.93.42.19.05-.13-.41-.12-.2-.18a.71.71,0,0,0-1-.18l.85.28Zm-3-1.52.18-.19-.83-.5-.13.22ZM73,119.06l.16-.07s0-.06-.07-.06l-.17,0Z"/><path class="cls-2" d="M192,134.78l0,.72a8.42,8.42,0,0,1-3.1.6,19.39,19.39,0,0,0-2,.13c-.85,0-1.69,0-2.53,0-1.63-.05-3.25-.14-4.88-.17-1.84,0-3.69,0-5.54,0l.18-.62a51,51,0,0,0,8.29-.36,4.32,4.32,0,0,1,.88,0,43.68,43.68,0,0,0,7-.07C190.93,135,191.48,134.84,192,134.78Z"/><path class="cls-2" d="M110.09,133.63c-.5-.55-1.14-.43-1.77-.36l-1.13.15v-.54l1.38-.1c.48-.05,1-.13,1.44-.16l5.75-.35,3.21-.15.27.58c1.14.15,2-.78,3.12-.34l-.09.65a3.39,3.39,0,0,1-2.2.08c-.27-.09-.45,0-.51.28l-.39,0c-.27,0-.59-.28-.85.19h.87l.37,0v.53c-1.24-.06-2.48-.12-3.71-.2l-5.33-.35h0C110.39,133.34,110.24,133.24,110.09,133.63Zm6.15-.41,0-.2-1.22.12,0,.28Zm2.22-.34c.06,0,.12.08.16.06s0-.1.08-.15-.12-.08-.16-.06S118.49,132.83,118.46,132.88Z"/><path class="cls-2" d="M76.3,103.55c-.71.1-1.13-.44-1.59-.8a6.28,6.28,0,0,1-2.19-2.3A3.21,3.21,0,0,0,70.83,99a2,2,0,0,0-2.38.14.77.77,0,0,1-.27.08s-.06,0-.14,0c-.59-.94.08-1.7.44-2.54l-.39-.53c-.39-.47-.43-.88-.11-1.22a1.08,1.08,0,0,1,1.26,0,5.65,5.65,0,0,1,1.06,1,14.2,14.2,0,0,0,3.58,3.16,13.78,13.78,0,0,1,1.49,1.26c.1.1.07.34.09.5a35.63,35.63,0,0,1-5.52-4.55c-.64.2-.35.47-.18.74l-.09.09a.33.33,0,0,1-.17,0l-.32-.24.12.24-.35,1,.24.05,1,0h0l.27,0a.18.18,0,0,0,.16,0,9.53,9.53,0,0,1,1.11.77c.53.5,1,1,1.51,1.59.28,1,1.21,1.53,1.94,2.18Z"/><path class="cls-2" d="M196.56,104.21c.79-.45,1.57-.91,2.37-1.34,1.2-.64,2.4-1.28,3.61-1.9a7.45,7.45,0,0,1,1.34-.56A4.12,4.12,0,0,0,206,99.15a11.59,11.59,0,0,1,1.35-1.27,2.62,2.62,0,0,1,.59-.33,8.47,8.47,0,0,1,.95.49c.62.38.62.95.08,1.43a21.14,21.14,0,0,1-3.81,2.38l-1.71.91-.05-.57.33-.19c.68-.46,1.48-.77,1.88-1.56l.45-.28.94-.39-.41-.27c.33,0,.64-.12.53-.75l-.68.56c-.17.23-.35.45-.53.68l-.58.41-2,.56a2.23,2.23,0,0,0-.45.18c-.83.43-1.67.84-2.46,1.33-.28.16-.77.2-.73.71h0a3.22,3.22,0,0,0-.77.19c-.85.43-1.68.9-2.52,1.35Z"/><path class="cls-2" d="M77.84,126.54h0l.38-.11c.06.1.18.27.16.28-1,.86-2.1,1.71-3.16,2.54-.09.07-.25.05-.36.1a9.25,9.25,0,0,0-1,.49c-1,.58-2,1.19-3,1.77a1.51,1.51,0,0,1-.57,0h0c.67-.43,1.34-.86,2-1.31.47-.32.93-.67,1.39-1,0-.07.07-.13.1-.19l-.23.05c-1,.5-2,.95-3,1.5a21.42,21.42,0,0,0-1.83,1.34h0l-1,.79h0l-.2.2h0c-.37-.12-.48.15-.6.4h0c-.26,0-.61-.06-.59.4h0l-.2.2h0l-.2.2h0l-.21.2h0l-.41.21,0,0-.21.21h0L65,135h0l-.21.21h0l-.21.2h0l-.2.21h0l-.41.2h0l-.2.21h0c-.37,0-.6.21-.6.6h0l-.6.6h0l-1.19,1.19h0a.8.8,0,0,0-.79.6h0l-.22,0h-.39l1.57-1.42c1.56-1.44,3-3,4.68-4.28a28.93,28.93,0,0,1,6.94-4.32,6.17,6.17,0,0,0,1-.5l3.06-1.88.32,0Zm-1.12.75-.23.16-.37.21-.4.2-.4.19-.22.16-.27.19.06.11.36-.14.23-.15.37-.22.4-.18.33-.27.26-.13.1-.2Zm.51-.2.07-.06s0-.06-.06-.06,0,0-.07,0Z"/><path class="cls-2" d="M132.55,97.59l.57.27L132.33,99a2.5,2.5,0,0,0-1.71.52l1.48.13c.29.25.52.57.93,0,.13-.16.73.07,1.33.15-.66.82-1.4.47-2,.61l-1.06-.18-1.14-.29-.41-.81v-.57l-.58.8h0l-.41.2h0c-.58.27-1.16.54-1.75.79a.42.42,0,0,0-.26.6h-.54l-.63-.29c0-.08,0-.22.1-.24,1.4-.42,2.47-1.43,3.72-2.1a2,2,0,0,0,1.32-1.69,1,1,0,0,0,.81-.58,3.16,3.16,0,0,1,.57-.59c.62.15.62.15,1.21.84l-.82.14a3,3,0,0,0-1.31,1.68c0,.08,0,.16,0,.24l.14-.12Z"/><path class="cls-2" d="M45.13,101.42c-1.12-.23-1.85-1.12-2.78-1.67a7,7,0,0,1-1.16-.88c-.67-.6-1.31-1.23-2-1.87.24-.34.44-.38.73-.1a14.94,14.94,0,0,0,3.79,2.65,10,10,0,0,1,1.24.79l3.44,2.54-.17.15c-.76-.31-1.29-1.06-2.39-1.25.34.36.5.66.73.75,1,.36,1.5,1.39,2.35,2l-.17.19a2.51,2.51,0,0,1-.56-.38,21.13,21.13,0,0,0-2.71-2.3,2.33,2.33,0,0,1-.36-.59l.79.35.1-.16L45.2,101Zm-1-.94.37.25.24,0-.11-.2-.38-.21-.25-.14-.3-.18-.06.11.3.12Z"/><path class="cls-2" d="M48.16,155.42c-.4.53-.78,1.07-1.19,1.58s-.7.78-1,1.19a2.06,2.06,0,0,0-.5.83,3.41,3.41,0,0,1-1.64,2.36l.09-.94-.45-.37c.46-.24.5-1,1.22-.76.07,0,.24-.2.32-.33q1.09-1.68,2.16-3.36c.63-1,1.2-2,1.85-3s1.29-1.78,1.93-2.67l.15.2-.44,1.13h0L49.22,153l-.47.69c-.2.23-.52.4-.37,1l.52-.84.48-.67a10.1,10.1,0,0,1,.68-.77,3.12,3.12,0,0,1,.59-.34h0c-.75,1.08-1.49,2.15-2.25,3.22,0,.06-.16.07-.24.1,0-.19.06-.39.1-.59l0-.17-.15.17-.4.69Z"/><path class="cls-2" d="M89.39,132.39l.5.24,0,.2-.14.58c-.36.57-.73,1.14-1.08,1.71l-1.88,2.2-.77.5-.21.31h0l-.21.4v0c-.06,0-.15,0-.18,0a12.73,12.73,0,0,0-2.77,3.74l-.62,0a5.56,5.56,0,0,1,1.49-2.7c1.4-1.54,2.85-3.05,4.21-4.63A27.42,27.42,0,0,0,89.39,132.39Z"/><path class="cls-2" d="M126.25,101h.54a3.49,3.49,0,0,0,1.79-.91c.12-.09.15-.32.22-.48h0l.41-.2h0l.58-.23.41.81a3.17,3.17,0,0,0-1.64.7,20.51,20.51,0,0,1-5.48,2.88,3.08,3.08,0,0,1-2.58-.43c-.38-.23-.73-.53-1.09-.79l.23-.46,1,.62.37.06h0c.46.79,2,.81,3,0h0a.63.63,0,0,0,.83-.41h.12l.63-.2h0l.29-.2Z"/><path class="cls-2" d="M90.14,110.23l-.25.27-2.14-2.28c-1.34-1.41-2.69-2.83-4-4.23a2.42,2.42,0,0,0-1.82-.77l-.21-.78a2.83,2.83,0,0,1,2.22,1C86,105.68,88.06,108,90.14,110.23Z"/><path class="cls-2" d="M151.58,132.35l-.05-.52c-.27-.33-.87,0-.94-.55a17.55,17.55,0,0,1,2.3.21c1.41.3,2.8.7,4.2,1l.49.64-1.38-.29c-.3-.07-.57-.08-.75.24l-.34-.11-.5-.18Z"/><path class="cls-2" d="M124.84,102.2h-.12c-.34,0-.68,0-.83.41h0c-.25,0-.5.07-.75.13a2.61,2.61,0,0,1-2-.16l.5-.12.31.08-.18-.23a2.32,2.32,0,0,1-1.66-1.29.92.92,0,0,1,.29,0,8.24,8.24,0,0,0,3.61.58,1.12,1.12,0,0,0,1-.42l.54-.5v0l.64.29-.5.8-.25-.22,0,.42h0Z"/><path class="cls-2" d="M119.57,133.37c.06-.3.24-.37.51-.28a3.39,3.39,0,0,0,2.2-.08l.09-.65c-1.07-.44-2,.49-3.12.34l-.27-.58,3.14-.28,1.4.37-.67.34c.06.32.16.56.56.36.17-.08.33-.18.49-.27a.7.7,0,0,0,.78.43,1.52,1.52,0,0,1,.53.13,2.23,2.23,0,0,1-1,.18c-.69.06-1.37.14-2.06.22l-.62.54h-.21c0-.34-.07-.57-.5-.48a1.51,1.51,0,0,1-.55-.07Z"/><path class="cls-2" d="M69.79,132l-6.47,5.12-.17-.19.07-.34h0c.33-.07.63-.16.6-.6h0l.2-.21h0l.41-.2h0l.2-.21h0l.21-.2h0L65,135h0l.21-.21h0l.21-.21,0,0c.27.19.35,0,.41-.21h0l.21-.2h0l.2-.2h0l.2-.2h0c.26,0,.58,0,.59-.4h0c.37.13.54-.05.6-.4h0l.2-.2h0c.52,0,.92-.2,1-.79h0l1-.23Z"/><path class="cls-2" d="M60.05,138.91h.39l.14.21.08-.19h0c.5.11.73-.13.79-.6h0l.55-.06.15.15-1.36,1.07a4.24,4.24,0,0,0-.49.46l-3.45,3.78-.17-.17.07-.33h0c.19-.16.58-.19.41-.59h0l.49-.2a.17.17,0,0,0,.1-.1l.2-.5h0l.2-.21v0c.27,0,.47-.07.4-.4h0c.42-.37,1-.56,1.18-1.18h0c.21-.2.21-.2,0-.34l-.07-.36Z"/><path class="cls-2" d="M54,147.2a20.1,20.1,0,0,1-1.1,1.91c-.71,1-1.5,2-2.25,3h0v-.81h0a5.22,5.22,0,0,0,1.38-2h0c.24-.05.41-.13.2-.39h0c.43.07.55-.3.73-.54.31-.44.59-.9.89-1.35Z"/><path class="cls-2" d="M113.12,106.37l-.3-.28c.12-.18.25-.36.37-.55a3.72,3.72,0,0,0,.7-.33c.67-.49,1.32-1,2-1.52l.37.08A12.18,12.18,0,0,1,113.12,106.37Z"/><path class="cls-2" d="M121.55,134.14l.62-.54a.12.12,0,0,1,.15,0l.31.37.28-.31h.59l.2.25.19-.26,1.37.15v.55Z"/><path class="cls-2" d="M56.84,143.74c-.68.83-1.36,1.65-2,2.48-.27.32-.53.65-.8,1l-.17-.16c0-.22.11-.43.16-.65h0l.2-.2h0c.2-.15.57-.19.4-.59h0l.21-.21h0c.62-.27,1.17-.59,1.19-1.38h0s0,.07,0,.06l.14,0,.22-.22v-.18h0l.33-.07Z"/><path class="cls-2" d="M102.28,133.58l0-.51,2.19,0v.41A3,3,0,0,1,102.28,133.58Z"/><path class="cls-2" d="M198.11,134.6l-.21-.34c.52-.17,1.13.2,1.61-.26h.31a1,1,0,0,0,1.23,0h.41l-.07.37-.12.2-2.05-.11c-.4,0-.45.16-.33.48v.11l-.38-.25-.06-.36Z"/><path class="cls-2" d="M196.36,107.79l.14-.12c.67,0,1.34.06,2,0a5.92,5.92,0,0,1,1.63.1v.24c-.33,0-.65,0-1,0-.74,0-1.48,0-2.21-.07A2.38,2.38,0,0,1,196.36,107.79Z"/><path class="cls-2" d="M77.56,144c.42.38.63-.23,1-.21l1,.06v.48a4,4,0,0,0-2.48.49l-.25-.37Z"/><path class="cls-2" d="M198.89,135.06V135h3.59l0,.21a2.82,2.82,0,0,1-.57.09c-.62,0-1.24-.09-1.86-.09a1.88,1.88,0,0,0-.57.21Z"/><path class="cls-2" d="M199.82,134h-.31l-1.4,0v-.31c1,0,2,0,3,0,.18,0,.49,0,.36.34h-.41Z"/><path class="cls-2" d="M196.56,104.21l-.15.5-.74.65.84-.07.16.18-2.09.37c.26-.23.53-.45.77-.69a4.82,4.82,0,0,0,.38-.51Z"/><path class="cls-2" d="M157.08,106.57c-.12.46-.51.37-.8.33-.71-.11-1.48.3-2.12-.28,0,0,0-.06,0-.09Z"/><path class="cls-2" d="M53.19,147.15l-.44.8c-.18.33-.35.66-.53,1h0c-.22.05-.39.13-.2.39h-.55A5.56,5.56,0,0,1,53.19,147.15Z"/><path class="cls-2" d="M203.42,102.19l.05.57-1.23.79-.26-.22c0-.18.05-.37.07-.55l.15-.2a1.48,1.48,0,0,0,.47,0A7.63,7.63,0,0,0,203.42,102.19Z"/><path class="cls-2" d="M57.72,142.36a.17.17,0,0,1-.1.1l-.29-.11,0-.35,1.31-1.41.17.16-.26.53h0c-.31-.05-.38.15-.4.4v0l-.2.21h0C57.68,142,57.43,142.05,57.72,142.36Z"/><path class="cls-2" d="M55.62,109.39l-1.86-1.28.08-.09,1.94,1.21Z"/><path class="cls-2" d="M93.39,103.94c-.16.08-.25.17-.32.16-.23,0-.44-.14-.66-.21a1.14,1.14,0,0,1,.19-.4c.25-.21.48-.1.66.12A1.24,1.24,0,0,1,93.39,103.94Z"/><path class="cls-2" d="M152.56,106.56c-.46.76-1,.75-1.57,0Z"/><path class="cls-2" d="M59.63,139.41l.07.36,0,.34h0l-.92.65-.17-.16Z"/><path class="cls-2" d="M120.29,133.59a1.51,1.51,0,0,0,.55.07c.43-.09.5.14.5.48l-1.17,0c0-.18,0-.37,0-.55A.15.15,0,0,1,120.29,133.59Z"/><path class="cls-2" d="M53.2,107.69,52,106.78l.11-.12.34.06h0l.6.4h0l.2.6Z"/><path class="cls-2" d="M52,106.78c-.49-.19-1-.33-1.26-.87l.53,0h0a.65.65,0,0,0,.79.39h0l.06.35Z"/><path class="cls-2" d="M50,105.42l-1.22-.73.17-.19,1.17.78Z"/><path class="cls-2" d="M104.46,133.45V133l1.27,0-.69.49Z"/><path class="cls-2" d="M120.16,133.62c0,.18,0,.37,0,.55h-.6v-.53Z"/><path class="cls-2" d="M77.64,101.79s0,.09,0,.09c-.3.19-.34.21-.68,0-.18-.1-.54-.14-.3-.5Z"/><path class="cls-2" d="M149.15,131.22c-.4.17-.8.42-1.11-.13Z"/><path class="cls-2" d="M54.06,145.7l.63-.76.16.13-.08.34h0l-.21.21h0l-.36.23Z"/><path class="cls-2" d="M201.27,134.58l.12-.2.65-.07v.27Z"/><path class="cls-2" d="M57.28,142l0,.35-.2.31h0l-.35.23-.15-.13Z"/><path class="cls-2" d="M79.5,144.36v-.48l.65.11-.24.42Z"/><path class="cls-2" d="M105,133.55l.69-.49h0l-.29.56Z"/><path class="cls-2" d="M63.15,137.26l-.45.56-.15-.14.08-.53h0l.37,0Z"/><path class="cls-2" d="M76.67,101.4c-.37.18-.5.11-.79-.39C76.37,100.67,76.46,101.15,76.67,101.4Z"/><path class="cls-2" d="M56.29,143.39c.12-.21.24-.42.35-.63l.15.13-.06.36h0l-.41.19Z"/><path class="cls-2" d="M50.63,105.33v.49l-.66-.4.12-.14.55.06Z"/><path class="cls-2" d="M53.76,108.11l-.56-.42h0c.33-.14.5.06.65.32Z"/><path class="cls-2" d="M202.05,134.58v-.27l.24.05Z"/><path class="cls-2" d="M116.24,103.77l-.37-.08c.14-.15.29-.3.43-.46l.14.15a.27.27,0,0,0,0,.12Z"/><path class="cls-2" d="M70.28,131.65l-.49.32-.12-.15.61-.16Z"/><path class="cls-2" d="M78.49,126.42v-.21h.09l-.1.18Z"/><path class="cls-2" d="M51.14,149.82l.24-.34.1.09c-.07.12-.15.24-.23.36Z"/><path class="cls-2" d="M53.39,146.76l-.21.41Z"/><path class="cls-2" d="M54,146.19c0-.16,0-.32.07-.48a.61.61,0,0,1,.16.12l0,.36H54Z"/><path class="cls-2" d="M53.59,146.54l-.21.23Z"/><path class="cls-2" d="M51.47,149.33h.17l-.15.24-.11-.09A.16.16,0,0,1,51.47,149.33Z"/><path class="cls-2" d="M55.66,143.93l.38-.12L56,144h0a.58.58,0,0,0-.19,0Z"/><path class="cls-2" d="M55.41,144.11l.25-.18.11.12-.18.2Z"/><path class="cls-2" d="M55.21,144.31l.2-.2.18.14-.17.23Z"/><path class="cls-2" d="M55,144.51l.19-.2.21.17-.2.2Z"/><path class="cls-2" d="M54.84,144.71l.18-.2.2.17-.21.18Z"/><path class="cls-2" d="M54.69,144.94l.15-.23.17.15-.16.21Z"/><path class="cls-2" d="M54,146.39h-.19l.18-.19h0l0,.21Z"/><path class="cls-2" d="M48.41,102.88l.21.19-.19.16-.19-.2Z"/><path class="cls-2" d="M48.62,103.07l.2.2-.18.14-.21-.18Z"/><path class="cls-2" d="M48.82,103.27l.16.2-.14.13-.2-.19Z"/><path class="cls-2" d="M49,103.47l.2.17-.17.19-.17-.23Z"/><path class="cls-2" d="M50.93,150l.21-.14.11.11-.17.23Z"/><path class="cls-2" d="M63.32,137.09c-.06,0-.11.11-.17.17l-.16-.14.16-.22Z"/><path class="cls-2" d="M62.7,137.82l-.17.25-.17-.2.19-.19Z"/><path class="cls-2" d="M62.53,138.07l-.2.17-.14-.15.17-.22Z"/><path class="cls-2" d="M62.33,138.24l-.19.19-.15-.15.2-.19Z"/><path class="cls-2" d="M56.36,143.65l-.23.07.16-.33,0,0v.21Z"/><path class="cls-2" d="M78.21,126.43l-.38.11.37-.11Z"/><path class="cls-2" d="M121.77,142.56l-.24-.1Z"/><path class="cls-2" d="M116.41,103.5a.27.27,0,0,1,0-.12l.13,0Z"/><polygon class="cls-2" points="202.44 122.42 202.42 122.45 202.43 122.42 202.44 122.42"/><path class="cls-2" d="M104.21,129.7a1.6,1.6,0,0,0,1.34-.67c.6-.73,1.18-1.48,1.77-2.21a17.75,17.75,0,0,0,2.8-4.07c.14-.3.37-.55,0-.87-.06-.06,0-.24,0-.37s.18-.52.1-.69a8.78,8.78,0,0,0-1.67-2.7c-.51-.47-1-1-1.45-1.53.13,0,.32-.19.38-.15.36.27.68.58,1,.87l.3.37.29-.37h0c.09,0,.22,0,.27.08.34.47.62.29.89-.07h0l.39.74c-.46.14-1-.32-1.44.13.72.9.72.89,1.85.7l.38,0a1,1,0,0,0,1,.15l.06,0c-.06.12-.11.34-.18.35a2.73,2.73,0,0,1-.86,0,1.52,1.52,0,0,0-1.26.35h3v.13l-2.07.29a2.08,2.08,0,0,0,.9.15l1,0-.17.36h0l-.91,0,0,.18.29.21c.36.18.81.24,1,.68,0,0,.18,0,.27,0l2.26.2.82.08,0,.21v.13c.26,0,.57,0,.61.36l-.78.06-2.44.26,0,.16v.44c-.51,0-1,0-1.4-.09a1.51,1.51,0,0,1-.72-.18c-.44-.33-.89-.16-1.35,0l1.06.28-.79.28a2.08,2.08,0,0,0,.94.24c.43.06.86.14,1.3.22a.2.2,0,0,0-.15,0l-.93.15-1.43-.18,0,.18,1.21.22.17,0v.2l-.39,0-2-.36.17.57-.67.45,1.72.31s0,.09,0,.14c-.39,0-.85.13-1.15,0-.59-.3-.83.25-1.23.37-.11,0-.13.32-.19.49l.51.18-.89.31v.15l1.68.21c-.56.05-.91.09-1.26.11s-.58,0-.87,0,0,.5-.37.58c-.23,0-.4.37-.6.56l.05.57-.78.25a3.62,3.62,0,0,0,1.51.18c1.13-.06,2.25-.15,3.38-.23l.81,0,0,.45-.23.15-1.06-.06c-.57,0-1.14,0-1.71,0l-3.49.18-.82,0v.2h.81a20.06,20.06,0,0,0,4.71,0l-.4.42h-1.85c-1.33,0-2.66-.11-4-.13a6.54,6.54,0,0,0-1.15.18l0,.22a9.41,9.41,0,0,0,2.25,0v.35a8.28,8.28,0,0,1-3.09-.25c-.06,0-.17.06-.26.1l-.82-.11.25-.17.19-.59a3.39,3.39,0,0,0,2.12-.43c.35-.14.91,0,1-.56Zm6.76-8c.57.36,1.15.12,1.72.09v-.22l-1,.1-.57-.75L111,121Zm0,.49c.22.64.72.4,1.22.48C111.67,122,111.67,122,111,122.16Z"/><path class="cls-2" d="M107.59,115.58l2,.2v.09l-.9.09c1.13.64,2.31.23,3.47.22l.22.17c.09.42-.16.41-.45.36s-.91-.22-1.19.31h-.36c-.35-.59-.77-.3-1.19-.11-.47-.27-1-.52-1.39-.83C107.64,116,107.64,115.75,107.59,115.58Z"/><path class="cls-2" d="M81.47,125.37c-.26,0-.51,0-.59-.38a8.31,8.31,0,0,1-.39-3.36h0l0-.16-.2-.22-.2-.37c0-.16,0-.32,0-.48a.14.14,0,0,0,.11,0l.41,0a2.54,2.54,0,0,1,.22,1.41,9.36,9.36,0,0,0,.59,3.51Z"/><path class="cls-2" d="M99.35,115.42l5.5-.85h0a1.16,1.16,0,0,0,0,.18l-.23.21-5.32.77Z"/><path class="cls-2" d="M90.85,133.79l-.31.06-.09-.1.11-.83-.84.49c0-.19.09-.39.14-.58l1.2-.78c.59.17.74.34.53.73A9,9,0,0,1,90.85,133.79Zm.35-1.48,0,.06h0Z"/><path class="cls-2" d="M99.74,116.11l2.9-.24,0,.21a.78.78,0,0,1-.3.13l-5,.31v-.33Z"/><path class="cls-2" d="M85.75,127.81c.19-.11.43-.35.56-.3.78.33,1.53.73,2.29,1.1l-.56.1c-.4-.09-.8-.18-1.2-.29s-.66-.22-1-.33C85.82,128,85.78,127.91,85.75,127.81Z"/><path class="cls-2" d="M108.79,115.37l-1.4,0-.19-.54.1-.23h.23c.29.38.57-.06.85,0l.53-.08-.13-.3.25,0,.51.41a.35.35,0,0,1,0,.08s0,.08,0,.08l-1.21.3Z"/><path class="cls-2" d="M77.34,102.94a6.82,6.82,0,0,0,2.77,1.14c0,.37-.15.63-.58.33s-.79-.36-1.2-.53l-1.2-.48Z"/><path class="cls-2" d="M119,110.27h1.74l-.41-.31c.07-.1.14-.2.2-.3l.29,0,2.15.23a.4.4,0,0,1,0,.15l-1.37.19-2.55.19A.33.33,0,0,0,119,110.27Z"/><path class="cls-2" d="M82.25,125l.56-.35.66,1.89-.51-.09C83.19,125.71,82.49,125.46,82.25,125Z"/><path class="cls-2" d="M109.15,116.92c.42-.19.84-.48,1.19.11l0,.3c-.27.36-.55.54-.89.07-.05-.06-.18-.06-.27-.08Z"/><path class="cls-2" d="M131.17,111.23l-1.78.19h-.64l-1.19-.32,2.83-.1Z"/><path class="cls-2" d="M80,125.77c-.47-.3-.18-.79-.3-1.17l.4,0c.36.11.65.28.63.78l-.59-.06.26.63Z"/><path class="cls-2" d="M120.17,101l-1.39-.21a.25.25,0,0,1,0-.12l-.21-.26v0l.4-.23Z"/><path class="cls-2" d="M81.7,123.21l.16,1-.36-1Z"/><path class="cls-2" d="M88.41,118.94l-.4.79-.15-.15-.11-.34Z"/><path class="cls-2" d="M109.16,117.31l-.29.37-.3-.37Z"/><path class="cls-2" d="M131.74,111.8l.61-.13C132.23,112.1,132,112.12,131.74,111.8Z"/><path class="cls-2" d="M120,110l-.41,0,.22-.51Z"/><path class="cls-2" d="M129.64,111.6l-.82.24,0-.18.84-.06Z"/><path class="cls-2" d="M106.22,115l.35.42-.21.1-.15-.52Z"/><path class="cls-2" d="M86.75,119.06l.46-.18,0,.13-.4.14Z"/><path class="cls-2" d="M106.21,115l-.14-.2.15.2Z"/><path class="cls-2" d="M86.85,119.15l-.24.08.14-.17Z"/><path class="cls-2" d="M77.84,126.54l-.27,0Z"/><path class="cls-2" d="M162.19,118.88a1.82,1.82,0,0,1-.45.21c-.9.07-1.8.11-2.72.24.73.44,1.35,1,2.32.86a7.52,7.52,0,0,1,1.63.08v.19c-.39,0-.78,0-1.17,0a1.93,1.93,0,0,0-1.6.46c-.16.16-.46.18-.77.29a2.47,2.47,0,0,0,1.59.73c.21,0,.42.14.71.24a1.65,1.65,0,0,1-1.5.65l-.66-.23-.87-.29-3-1.23a4.34,4.34,0,0,0-2.9-1v-.2c.12,0,.25,0,.37,0a.84.84,0,0,0,.23-.12,2.13,2.13,0,0,0-1.18-.64l-.61-1.15,0,0,.38-.38,0-.06.76.06h.8a1.89,1.89,0,0,0,2.26,0c1,0,1,0,1-.7l.41,0c.37.25.37.25.75.12l-.74-.12,1.33-.21v-.13h-2.51c-.52-.22-.48.28-.78.5l.92.25-.64.12-1.45.1-.29-1,.48-.34.23-.19.16-.16c.38,0,.79-.24,1.12.14l1.63-.18h.59l.58,0c0,.06,0,.12,0,.17.43.39.94.14,1.42.17a4.19,4.19,0,0,0,.9.21c1,0,2,0,3,0l.79.45h-2.93c-.33-.06-.58,0-.6.41h-1.09v.22a3.67,3.67,0,0,0,1.44.08l1.81.08v.15l-.52,0H160.7l-1.87.17,0,.18h1.93l2-.18c.09.11.19.33.26.32.74-.09,1.47-.21,2.21-.33.5-.08,1,.41,1.51,0h.34v.32l.25-.31a.23.23,0,0,1,.14,0l.44.33h1.16c.81,0,1.62-.07,2.42-.06s1.43.08,2.14.09c2.2,0,4.41,0,6.62,0a.47.47,0,0,0,0,.17l-11.15,0c-2.28,0-4.57.05-6.85.07a1.59,1.59,0,0,0-1.46.32Zm-5.3-.95c-.48-.34-.36.1-.4.32a2,2,0,0,0-1.91,1.32l1.91-.31-.86-.51.07-.24h1.6c.36.12.77.47,1-.21l.16-.37Zm1.8,2.21c-.82-.79-1.06-.8-1.78-.17Zm-3.78-1.64-.06-.18h-1.56l1,.58Zm3.84,3.08c.25-.51,0-.56-.29-.57-.07,0-.15.08-.31.16Z"/><path class="cls-2" d="M212.87,124.66a14.16,14.16,0,0,1-1.93.25,34.83,34.83,0,0,0-5.37.82,1.09,1.09,0,0,0,0-.18l1.6-.54c-.23-.28-1,.24-1-.55a7.66,7.66,0,0,0,3.3-.08c.15-.06.33-.21.44-.17.58.24,1.14,0,1.71,0h0l1.37.24Z"/><path class="cls-2" d="M220.89,127.15a1,1,0,0,1-.78.26,16.06,16.06,0,0,0-2.77,0l-.77.05v-.18l3.18-.28-.24-.5.78-.41.61.51Z"/><path class="cls-2" d="M201.46,121.83c.11-.28-.05-.34-.28-.35l-1.71,0v-.22c.75,0,1.5,0,2.25,0s1.42-.11,2.13-.13a3.33,3.33,0,0,1,.74.18c-.15.13-.29.33-.46.36a5.25,5.25,0,0,1-1,0l-1.18-.09s-.07.19-.1.29Z"/><path class="cls-2" d="M183.05,117.76a10.08,10.08,0,0,0,1.45.09,2.4,2.4,0,0,0,.73-.34h.12l1.58.24,0,.49-3.89-.18Z"/><path class="cls-2" d="M161.81,116.76c.1.07.2.18.31.19.37,0,.74,0,1.11.07a1.77,1.77,0,0,1,.15.31.55.55,0,0,1,0,.22l-1.81-.08-.34-.3C161.23,116.77,161.48,116.7,161.81,116.76Z"/><path class="cls-2" d="M166.72,117.94c-.51.37-1-.12-1.51,0l-1.45-.14a1.55,1.55,0,0,1,1.83-.16c.24.16.63.1.95.14Z"/><path class="cls-2" d="M151.57,117.91l.61,1.15a2.33,2.33,0,0,1-1.39-1Z"/><path class="cls-2" d="M149.62,117.49v-.17l-.41-.19v0c.64-.46,1-.47,1.41,0l0,.39c-.59-.18-.59-.18-.57.4h-.41Z"/><path class="cls-2" d="M161.8,116h-1.39C160.79,115.35,161.4,115.35,161.8,116Z"/><path class="cls-2" d="M188.08,122.89h2A1.74,1.74,0,0,1,188.08,122.89Z"/><path class="cls-2" d="M169.25,117.71l-.17.43-1.18.14-.44-.33.6-.23C168.45,117.66,168.85,117.4,169.25,117.71Z"/><path class="cls-2" d="M189.64,118a3,3,0,0,1,2.25,0v.2Z"/><path class="cls-2" d="M195.14,123.74l.13-.19a9.44,9.44,0,0,1,2.19.34l-.05.26Z"/><path class="cls-2" d="M164.22,115.79a2.28,2.28,0,0,1-2.06.23,2.21,2.21,0,0,1,.65-.26C163.28,115.73,163.75,115.78,164.22,115.79Z"/><path class="cls-2" d="M175,117.29h-1.77C173.92,116.88,174.11,116.88,175,117.29Z"/><path class="cls-2" d="M155.84,115.92c0-.16-.05-.32-.08-.48a1.67,1.67,0,0,1,1.71.3Z"/><path class="cls-2" d="M214.22,124.72c-.18-.22-.68-.14-.59-.62l1.2.24,0,.23-.19.08Z"/><path class="cls-2" d="M185.75,123.8l-1,.13c.16-.49.56-.54,1-.53h0Z"/><path class="cls-2" d="M185.75,123.4c.2-.64.66-.35,1.06-.31l.15.48-1.21-.16Z"/><path class="cls-2" d="M187.88,117.76l.4-.23.56.23c-.06.1-.11.27-.19.29C188.36,118.09,188,118.25,187.88,117.76Z"/><path class="cls-2" d="M198.6,118.72l.78.09,0,.2h-.78Z"/><path class="cls-2" d="M150.59,117.5l0-.39.72.33-.07.18Z"/><path class="cls-2" d="M160.1,116a.5.5,0,0,0,0,.13c-.47,0-1,.21-1.41-.18Z"/><path class="cls-2" d="M152.76,117.51l-.76-.06-.24-.25.06-.11Z"/><path class="cls-2" d="M192.91,118.19l-.51-.12V118h.52Z"/><path class="cls-2" d="M189.85,118.84l.42.21v.2h-.35C189.9,119.11,189.87,119,189.85,118.84Z"/><path class="cls-2" d="M152,117.51l-.38.38Z"/><path class="cls-2" d="M158.64,115.77l-.58,0C158.46,115.47,158.56,115.48,158.64,115.77Z"/><ellipse class="cls-2" cx="190.77" cy="122.92" rx="0.23" ry="0.06"/><path class="cls-2" d="M159.89,115.62s0,0,0,.06a.12.12,0,0,1-.08,0v-.11Z"/><path class="cls-2" d="M134.78,112.79l.32.07,0,.35C134.76,113.23,134.57,113.15,134.78,112.79Z"/><path class="cls-2" d="M193.6,118.24l-.07,0s.05,0,.08,0,0,0,.07,0Z"/><polygon class="cls-2" points="189.39 123.46 189.41 123.51 189.36 123.51 189.39 123.46"/><path class="cls-2" d="M157.86,115.74h0Z"/><path class="cls-2" d="M149.46,110.08c1.71,0,3.43,0,5.15,0,.54,0,1.08-.06,1.63-.09l2-.12c.4.17.68.42.58.91-1.21,0-2.41,0-3.62,0-2.68.12-5.35.27-8,.41-1,.06-2,.11-2.93.18l-5.46.41.18-.49q4.29-.57,8.61-.73l2.78-.2Zm1.29.23v.06h.3v-.06Z"/><path class="cls-2" d="M160.08,110.3l1.15-.75a4.2,4.2,0,0,1,2.45.47,11.45,11.45,0,0,0,3,.63l-.34-.41.66.19c.18.06.34.14.52.21l-.39.9-2.81-.28-4.06-.46Z"/><path class="cls-2" d="M170.06,109.47c-.2-.2-.16-.37.11-.38.69,0,1.38,0,2.06,0,.07.12.11.26.21.33a2.34,2.34,0,0,0,.51.23l.45.28a1.89,1.89,0,0,1-1.39,1.24,9.8,9.8,0,0,1-4.13.42c.14-.51.6-.52.94-.44a1.53,1.53,0,0,0,1.37-.27,3,3,0,0,1,.93-.26,1.25,1.25,0,0,0,1.57-.78Z"/><path class="cls-2" d="M158.85,110.79c.1-.49-.18-.74-.58-.91a2,2,0,0,1,1.67.42l-.12.47Z"/><path class="cls-2" d="M139,111.32l-.18.49-2.07.21c-.23-.34,0-.35.26-.39Z"/><path class="cls-2" d="M159.82,110.77l.12-.47h.14l.15.5Z"/><path class="cls-2" d="M146.49,126.65c-.94.09-1.87.24-2.81.27-3.13.1-6.22.62-9.33,1l-4,.41V128l2.26-.38h0a16.59,16.59,0,0,0,3.06-.43c2.46-.21,4.93-.37,7.4-.55,1.13-.08,2.27-.14,3.4-.2Z"/><path class="cls-2" d="M164.32,128.11c-.68-.12-1.36-.29-2-.36s-1.3,0-1.95,0c-.34,0-.71-.11-1,.25-.06.08-.3.08-.44,0a10.43,10.43,0,0,0-3.48.2c-.47.06-.94.18-1.4.27l-.33,0h0l-.16-.42a2.76,2.76,0,0,1,.54-.16c1.87-.18,3.74-.42,5.62-.5,1.56-.06,3.12.08,4.68.13a1.38,1.38,0,0,1,.36.15Z"/><path class="cls-2" d="M155.29,126.19l4.48,0,2.23,0v.09l0,.08a2.53,2.53,0,0,1-.64.17c-2.08,0-4.16,0-6.24,0Z"/><path class="cls-2" d="M205.58,125.55a1.09,1.09,0,0,1,0,.18l-3.12.45V126Z"/><path class="cls-2" d="M151.91,126.91h-1.29v-.11h1.31Z"/><path class="cls-2" d="M149.8,128.55h1v.09h-1Z"/><path class="cls-2" d="M154.14,124.36l-.49.08,0-.17.51,0Z"/><path class="cls-2" d="M152.22,127.24h0l-.42.1v-.15Z"/><path class="cls-2" d="M149,127.8l.32,0s-.07.12-.11.12S149.05,127.84,149,127.8Z"/><polygon class="cls-2" points="149.75 127.64 149.68 127.66 149.69 127.6 149.75 127.64"/><path class="cls-2" d="M108.76,135.55l.4-.12c.61,1.07,1.23,2.13,1.83,3.2a2.2,2.2,0,0,1,.17.45l0,.2-.4,0h0l-.2-.21h0l-.2-.2h0c0-.31-.11-.43-.41-.4h0c0-.41-.33-.34-.58-.38l-.21-.36.63-.31-.63-.72v0l-.21-.41h0l-.21-.21v-.61Z"/><path class="cls-2" d="M117.33,142.05v0l.25.61a3.45,3.45,0,0,1-2.37-1.34l.26,0,1.76.57-.11.13Z"/><path class="cls-2" d="M112.69,140.08l.21.4c-.2,0-.4.36-.6,0l-.2-.19h0l-.4-.2h0l-.2-.21h0l-.2-.2h0l-.2-.2h0v-.24l0-.2.93.46v0Z"/><path class="cls-2" d="M122.63,144.41c.26.11.53.21.32.58l-.48-.18h-.62l-.34-.27,0-.73.25-.13.42.33.17.12Z"/><path class="cls-2" d="M126.45,146c-.7,0-1.07-.58-1.63-.81.11-.34.29-.5.63-.24l.22.27,0,0,.41.21h0Z"/><path class="cls-2" d="M106.25,132.92l1,0v.54C106.35,133.72,106.3,133.69,106.25,132.92Z"/><path class="cls-2" d="M109.16,136.75l.63.72-.63.31A1.13,1.13,0,0,1,109.16,136.75Z"/><path class="cls-2" d="M118.16,142.6l.7.42c-.64.17-.64.17-.84-.24Z"/><path class="cls-2" d="M109.37,138.14c.25,0,.57,0,.58.38Z"/><path class="cls-2" d="M123.53,145.17l.34.24a.09.09,0,0,1-.1,0h-.27Z"/><path class="cls-2" d="M121.2,142.9l-.46.14h0l.32-.28Z"/><path class="cls-2" d="M121.07,142.77l.24,0-.11.15Z"/><path class="cls-2" d="M155.9,135.8l-.19-.08v-.2l3.52.44v.17Z"/><path class="cls-2" d="M192,108.27a2.17,2.17,0,0,0-.59-.2,7.47,7.47,0,0,1-1.87-.19l2.71-.14Z"/><path class="cls-2" d="M200.51,103.59l.58.22-1,.74C199.75,103.9,200,103.7,200.51,103.59Z"/><path class="cls-2" d="M156.28,134.4H157c-.21-.51-.93-.16-1.07-.79h1.16l1.19.57c.1.5.49.59,1,.6A3.77,3.77,0,0,1,156.28,134.4Z"/><path class="cls-2" d="M174,136.55c.83,0,1.65,0,2.48,0a4.05,4.05,0,0,1,.82.19v.13l0,.09L174,137C173.72,136.79,173.78,136.66,174,136.55Z"/><path class="cls-2" d="M159.19,133.47l.48.17,0,.14-.52-.09Z"/><path class="cls-2" d="M160.77,134.17l-.07-.06a.46.46,0,0,1,.16-.07l.06.06Z"/><path class="cls-2" d="M200,137.65l.4.26Z"/><path class="cls-2" d="M199.77,137.47l.19.18Z"/><path class="cls-2" d="M199.47,137.55a.12.12,0,0,1-.09-.08l.17-.18.21.14Z"/><path class="cls-2" d="M137.82,132.49a20.41,20.41,0,0,1-5.5-.56l-.78-.11-.16-.4,1,.18,1,.08c1.25.12,2.5.26,3.76.36a2.49,2.49,0,0,0,.73-.17l3.07-.19c.69,0,1.38,0,2.08,0,.3,0,.67-.07.74.39,0,.07,0,.13,0,.2l-4.11-.23v.23a10.84,10.84,0,0,1,1.14,0,6,6,0,0,1,.79.18Z"/><path class="cls-2" d="M152.39,133.4l-2.45-.36c-.35-.06-.8.13-1-.36a4.4,4.4,0,0,0,.8-.26,1.48,1.48,0,0,1,1.43,0c.06.54.47.42.81.47,1.23.19,2.45.4,3.66.7-.35.43-.68.14-1,.07s-.7-.12-1.06-.16S152.78,133.42,152.39,133.4Z"/><path class="cls-2" d="M148.06,132.75l-1.15,0c-.1-.42-.38-.34-.67-.23l-.24-.08c-.46-.48-1-.14-1.51-.18l-.55,0-.21-.05c0-.07,0-.13,0-.2l.14,0c.89,0,1.78.13,2.67.16a6.12,6.12,0,0,0,1.1-.17l.95.09Z"/><path class="cls-2" d="M126.86,132.26c-.29.34.14.36.44.53a4.09,4.09,0,0,1-2.24-.31l.89-.25.83-.28Z"/><path class="cls-2" d="M147.65,132a6.12,6.12,0,0,1-1.1.17c-.89,0-1.78-.11-2.67-.16a1.29,1.29,0,0,1,.47-.21c1,0,2,0,3,0C147.43,131.89,147.54,132,147.65,132Z"/><path class="cls-2" d="M132.84,131l1.63-.18.33,0c-.18.47-.61.19-.91.31a3,3,0,0,1-.59.14h-.38Z"/><path class="cls-2" d="M124.68,131.44l1-.16c0,.26,0,.53-.36.56S124.71,131.84,124.68,131.44Z"/><path class="cls-2" d="M135.1,130.11a.23.23,0,0,0,0,.14l-.69-.17.07-.21Z"/><path class="cls-2" d="M150.2,131.84l-.37,0a1.07,1.07,0,0,1,.22-.15s.11,0,.17.07Z"/><path class="cls-2" d="M128,131.92l.41.12-.34.08Z"/><path class="cls-2" d="M147.91,131.52s0,.06,0,.07a.15.15,0,0,1-.09,0v-.12Z"/><path class="cls-2" d="M207.76,142.22l-1.25-.71c.45-.38.75,0,1.1.19S207.92,142,207.76,142.22Z"/><path class="cls-2" d="M205,140.89a4.46,4.46,0,0,1-.34-.42c-.16-.23,0-.32.2-.38.41.12.73.32.72.81Z"/><path class="cls-2" d="M208.75,144.57l-.22-.55.19.48Z"/><path class="cls-2" d="M197.87,134v0Z"/><path class="cls-2" d="M164.29,109c-.37-.1-.74-.23-1.11-.31a.92.92,0,0,0-.57,0,4.6,4.6,0,0,1-3.42.15,8.9,8.9,0,0,0-1.73-.17h0l-1.36-.18,0-.43c.1-.64.11-.65.78-.48.18.1.36.27.54.27.74,0,1.49,0,2.24,0v.34c.5.11,1,.25,1.5.31a2.34,2.34,0,0,0,1.79-.2l.61.18.8,0Z"/><path class="cls-2" d="M156.09,108.07l0,.43h0l-.25,0a7.67,7.67,0,0,0-2.33-.33,15.66,15.66,0,0,1-3.75-.14v-.12l2-.31a12.3,12.3,0,0,0,3.83.06Z"/><path class="cls-2" d="M169.86,106.91l-.61.2Z"/><path class="cls-2" d="M169.05,107.24v-.11l.22,0,.18.38Z"/><path class="cls-2" d="M169.65,106.12l-.21.15.21-.15Z"/><path class="cls-2" d="M80.49,143c-.08.15-.5-.22-.4.26a1.19,1.19,0,0,1-.52.17c-.48-.05-1-.15-1.43-.23h0c-.27-.19-.54-.38-.81,0h0a.25.25,0,0,0-.19,0l-.28,0c.2-.25.39-.51.58-.76l.54,0a4.94,4.94,0,0,0,1,.41,7.58,7.58,0,0,0,1.26,0Z"/><path class="cls-2" d="M135.67,108.67a5.74,5.74,0,0,0,.9.18c1.28,0,2.57.05,3.85.07l.36.27c-.74.08-1.47.16-2.21.22a1.85,1.85,0,0,1-.46-.08,7.52,7.52,0,0,0-.92-.19c-.89-.1-1.79-.17-2.68-.25,0-.6.56-.28.81-.46l-.67-.44,1.78-.47,1.21.14-1.55.6Z"/><path class="cls-2" d="M147.44,108.25a5.73,5.73,0,0,1-1,.18c-1.44,0-2.88,0-4.33-.05-.05,0-.11,0-.17-.08s0-.12,0-.18c.19-.32-.12-.22-.24-.28l0-.13c.18-.25.38-.23.59,0a.62.62,0,0,0,1,0h.58c.35.37.76.21,1.17.17s.83,0,1.24,0a2,2,0,0,0,.41.3A5.25,5.25,0,0,0,147.44,108.25Z"/><path class="cls-2" d="M138.2,108.24l.43-.34.39-.23c.46-.28.5,0,.61.4l-.8.4-.4,0Z"/><ellipse class="cls-2" cx="141.34" cy="107.2" rx="1.11" ry="0.08"/><path class="cls-2" d="M140.38,107.94l-.39.28-.17-.31.58-.2Z"/><path class="cls-2" d="M142,108.12c0,.06,0,.12,0,.18l-1,.11C141.15,107.82,141.61,108.17,142,108.12Z"/><path class="cls-2" d="M144.35,107.56l-.24.11Z"/><path class="cls-2" d="M172.41,107.87l.19.18.23.22.2-.58c.49.17.42.62.58,1.09l-.67-.09a.2.2,0,0,1-.11,0C172.44,108.54,172.07,108.39,172.41,107.87Z"/><path class="cls-2" d="M168,110v-.3h.23l.79.61C168.44,110.4,168.2,110.26,168,110Z"/><path class="cls-2" d="M175.58,107.49a.26.26,0,0,1,.15,0l0,.4c-.34.32-.43-.06-.6-.22Z"/><path class="cls-2" d="M166.89,109.67c.4-.19.59.1.8.35v.21Z"/><path class="cls-2" d="M174.23,107.27l.13-.09.1.19c-.06,0-.12.06-.16,0S174.26,107.32,174.23,107.27Z"/><path class="cls-2" d="M170,106.32l.21-.15-.21.15Z"/><path class="cls-2" d="M116.24,133.22l-1.21.2,0-.28,1.22-.12Z"/><path class="cls-2" d="M119.2,133.61h-.87c.26-.47.58-.17.85-.19v.1Z"/><path class="cls-2" d="M118.46,132.88s0-.14.08-.15.1,0,.16.06,0,.14-.08.15S118.52,132.9,118.46,132.88Z"/><path class="cls-2" d="M69.76,97l.09.2-.18-.11Z"/><path class="cls-2" d="M155.11,133l-.5-.18Z"/><path class="cls-2" d="M122.32,133.61l.59.06-.28.31Z"/><path class="cls-2" d="M123.5,133.68h.39l-.19.26Z"/><path class="cls-2" d="M110.73,126.14s0-.09,0-.14l1.77,0-.13.38,1.33-.17.77-.06,1.57-.41.19.05h.4l3.08-.19a2.46,2.46,0,0,0,.52-.21.17.17,0,0,0,.1,0c.28-.07.56-.15.84-.2s.69-.12,1-.17c.77-.1,1.53-.21,2.3-.29.45,0,.89-.06,1.34-.09V125c-.22,0-.44.06-.66.07s-.66-.07-.85.07a2.64,2.64,0,0,1-1.86.28,7.67,7.67,0,0,0-1.06.13l-2.41.36.7.23c0,.09-.08.16-.11.17a1.1,1.1,0,0,1-.47,0,7,7,0,0,0-3.53,0l-1.31.12,0,.09h1.35l.37.06c0,.06,0,.12,0,.18-1.45.15-2.91-.19-4.38.15a18.71,18.71,0,0,1-3,.26c.14-.44.51-.4.87-.42.65,0,1.3-.06,2-.09l0-.2Z"/><path class="cls-2" d="M131.38,117.29l8.9,1v.23c-.45,0-.89-.06-1.33-.11-2.56-.27-5.12-.55-7.68-.8-1.2-.12-2.41-.15-3.61-.26-2-.18-4.09-.4-6.13-.6-.39,0-.78,0-1.17,0l.2-.17a14.62,14.62,0,0,1,4.28.22c.3,0,.56.21.89-.06.14-.11.57.25.94.26,1.23,0,2.46.12,3.69.2a1.6,1.6,0,0,1,.37.12Z"/><path class="cls-2" d="M113.55,121.79c-.09,0-.25,0-.27,0-.2-.44-.65-.5-1-.68l.09-.08c.64-.05,1.31.26,1.91-.17.43.12.24-.3.31-.37a3.19,3.19,0,0,0,1,0,.68.68,0,0,0,.52-.85l.68.06.17.14a1.82,1.82,0,0,0,1.38.85v.5c-1,.34-1.94-.07-2.91,0-.35,0-.91,0-1,.17C114.21,121.84,113.68,121.31,113.55,121.79Z"/><path class="cls-2" d="M111.32,129.88l-.81,0c-.09-.58-.53-.35-.84-.35-1.09,0-2.18.1-3.27.15l-.05-.57a1.84,1.84,0,0,0,1.72-.06l-.43-.32,4.86.17.13.74C112.16,129.76,111.6,129.2,111.32,129.88Zm-2.75-.77-.14-.06.15,0h.19l.64,0-.06-.2-.57.25Z"/><path class="cls-2" d="M155.67,121.08l3,1.23c-1,0-2-.08-3-.14-.59,0-1.17-.13-1.75-.14a39,39,0,0,1-4.58-.19h1.56a1.18,1.18,0,0,0,.38,0c1.43-.52,2.88-.17,4.32-.18l.33-.07Z"/><path class="cls-2" d="M126.14,123.39a6,6,0,0,0-1.77-.62c-1.14-.11-2.28-.24-3.42-.36l1.18-.34h2.72l0-.08-.79-.2.38-.39c.34,0,.69,0,1,0a.45.45,0,0,1,.52.41c-.46-.07-.67.1-.57.58l.45.18.87.41Z"/><path class="cls-2" d="M132.13,114.78l4.36.59c.83.11,1.67.23,2.51.38a9.82,9.82,0,0,1,1,.32v.25c-1.32-.21-2.64-.42-4-.61-.48-.08-1-.13-1.44-.19s-1.07-.18-1.61-.23-.89,0-1.32,0l.47-.31A1.28,1.28,0,0,0,132.13,114.78Z"/><path class="cls-2" d="M124.48,121.4l-.38.39a6.66,6.66,0,0,1-1.69-.32c-.21-.09-.33-.28-.66-.26-1.12.05-2.24,0-3.37,0v-.5c1.09,0,2.18.09,3.27.09a11.89,11.89,0,0,0,1.57-.17c.09.27.2.66.73.59C124.12,121.21,124.3,121.34,124.48,121.4Z"/><path class="cls-2" d="M130.37,128v.33a82.91,82.91,0,0,1-9.82,1v-.18l3.26-.38Z"/><path class="cls-2" d="M140,116.32v-.25l5,.76c1,.17,2,.37,3.05.56v.31a18.91,18.91,0,0,1-2.38-.32l-.21,0c-.87-.2-1.74-.42-2.61-.58S141,116.47,140,116.32Z"/><path class="cls-2" d="M145.27,121.86a11.27,11.27,0,0,1-3.47.36c-1.34,0-2.67,0-4,0a4.58,4.58,0,0,1-.94-.18v-.18a2,2,0,0,0,1.32.07,5,5,0,0,1,1.34-.09c1.67,0,3.35,0,5,0a6.39,6.39,0,0,1,.75.09Z"/><path class="cls-2" d="M152.76,119.85v.2a7.29,7.29,0,0,1-2.54-.34c-1.75-.32-3.52-.49-5.23-.72C145.8,118.72,150.9,119.27,152.76,119.85Z"/><path class="cls-2" d="M122.13,122.07l-1.18.34-3,.35v-.63a3.92,3.92,0,0,1,.66-.15c.83-.06,1.66-.11,2.49-.11A4.55,4.55,0,0,1,122.13,122.07Z"/><path class="cls-2" d="M111.32,129.88c.28-.68.84-.12,1.31-.26l-.13-.74,1.37,0,.06.25-.58.25c.45.43.91.06,1.31.15v.3l-1.09.19h0l-2.23.27Z"/><path class="cls-2" d="M132.13,114.78a1.28,1.28,0,0,1,0,.19l-2.42-.18c-1.17-.1-2.33-.19-3.49-.32a4.59,4.59,0,0,1-1-.3A30,30,0,0,1,132.13,114.78Z"/><path class="cls-2" d="M125.85,125v-.32a7.63,7.63,0,0,1,3.08-.23.64.64,0,0,0,.39,0c.92-.63,1.94-.24,3-.22a2.14,2.14,0,0,1-.52.18c-.81.07-1.62.09-2.43.18C128.17,124.66,127,124.82,125.85,125Z"/><path class="cls-2" d="M113.09,116.34h-.75l-.22-.17,2.35-.1c1.87.08,3.74.15,5.6.24.17,0,.32.14.48.21l-.2.17a34.92,34.92,0,0,0-6.38-.35Z"/><path class="cls-2" d="M119.28,119.67c1.87-.46,3.77-.11,5.65-.13A21.81,21.81,0,0,1,119.28,119.67Z"/><path class="cls-2" d="M125.46,122.42c-.1-.48.11-.65.57-.58.25,0,.51,0,.76.07a4.88,4.88,0,0,0,2.57-.07,2.44,2.44,0,0,1,1.6,0V122Z"/><path class="cls-2" d="M112.71,118.1l1.18-.45,2.09.49a.75.75,0,0,0,0,.16l-.17.45-.5,0-.2.09,0-.23-.44-.36-.4,0Z"/><path class="cls-2" d="M117.89,129.63l-2.23.15-.4-.06v-.21l.38-.35-.44-.13s.07-.13.1-.13a7.65,7.65,0,0,0,1.07,0c.61-.06,1,.53,1.57.51Z"/><path class="cls-2" d="M116.91,114.12c0-.35.23-.34.45-.33l3.37,0v.28Z"/><path class="cls-2" d="M108.79,115.37l-.44-.36,1.21-.3s0-.06,0-.08a.35.35,0,0,0,0-.08l1.55-.15c-.08.65-.73.47-1.09.69A3.63,3.63,0,0,1,108.79,115.37Z"/><path class="cls-2" d="M117,119.87l-.17-.14a1,1,0,0,0-1.36-.09H115l.42-.58h.4l1.3.07a1,1,0,0,0,.12.25,1.1,1.1,0,0,0,.2.23l.15-.3h.14l.43.37v.18Z"/><path class="cls-2" d="M144.38,118.92l-3.61-.28v-.21A8.22,8.22,0,0,1,144.38,118.92Z"/><path class="cls-2" d="M118,122.13v.63h-.76c0-.39-.35-.34-.61-.36a.57.57,0,0,1,0-.13l0-.21.23-.37A1,1,0,0,1,118,122.13Z"/><path class="cls-2" d="M117.2,125.13c.51,0,1-.12,1.52-.16.3,0,.59,0,.7-.36a8,8,0,0,1,.82.44c.07,0,.06.22.08.34a.17.17,0,0,1-.1,0,6.11,6.11,0,0,1-1-.08,3.63,3.63,0,0,0-2,.07Z"/><path class="cls-2" d="M145.27,121.86v0c.73-.09,1.47-.2,2.2-.26.45,0,.9,0,1.35,0v.18c-.69.07-1.39.16-2.09.19C146.25,122.05,145.72,122.24,145.27,121.86Z"/><path class="cls-2" d="M149.65,124.35a.53.53,0,0,0,0-.13,2,2,0,0,1,.56-.14,19,19,0,0,1,2.71.27Z"/><path class="cls-2" d="M126.55,125.88a1.81,1.81,0,0,1-1.62.09,2.88,2.88,0,0,1,1.7-.37Z"/><path class="cls-2" d="M143.53,125.35s0-.09,0-.13l3.51-.24a.5.5,0,0,1,0,.17Z"/><path class="cls-2" d="M128.63,127.38H132v.17h-3.35Z"/><path class="cls-2" d="M116,126.75c0-.06,0-.12,0-.18l2.46.25c-.2.5-.43.59-.72.37A2.65,2.65,0,0,0,116,126.75Z"/><path class="cls-2" d="M136.85,121.84V122l-3.92,0v-.15Z"/><path class="cls-2" d="M150.45,124.88a3.55,3.55,0,0,1,2.23.13C151.92,125.3,151.19,124.91,150.45,124.88Z"/><path class="cls-2" d="M120.55,129.1v.18l-2.1.11a4.32,4.32,0,0,1,.86-.28C119.72,129.07,120.14,129.1,120.55,129.1Z"/><path class="cls-2" d="M123.69,114a2.36,2.36,0,0,1,1.59.16l-1.6.06Z"/><path class="cls-2" d="M118.57,116.92h1.83c-.23.55-.55.27-.81.24l-1-.08C118.62,117,118.59,117,118.57,116.92Z"/><path class="cls-2" d="M120.72,114.1v-.28l1.4.09v.24Z"/><path class="cls-2" d="M120.13,128.33a1.16,1.16,0,0,1-1.45-.15Z"/><path class="cls-2" d="M121.76,123.18v-.13a1.42,1.42,0,0,1,1.35.69Z"/><path class="cls-2" d="M148.05,117.7v-.31l1.56.1v.41Z"/><path class="cls-2" d="M157.64,123.57l-.35-.33h1.21c-.13.45-.52.31-.78.42Z"/><path class="cls-2" d="M132.93,121.85V122h-2v-.14Z"/><path class="cls-2" d="M142.16,124.22h1.58v.13h-1.58Z"/><path class="cls-2" d="M139.63,124.36a1.13,1.13,0,0,1,0-.18l1.75,0v.12Z"/><path class="cls-2" d="M122.13,114.15v-.24l1.56.11v.22Z"/><path class="cls-2" d="M121.52,126.5l-.7.46-.09-.61Z"/><path class="cls-2" d="M155.83,123.07h1.1v.09h-1.14Z"/><path class="cls-2" d="M159.57,122.6l.66.23-.38.31a1.93,1.93,0,0,1-.27-.3C159.54,122.78,159.57,122.69,159.57,122.6Z"/><path class="cls-2" d="M115.25,129.51v.21c-.14.33-.36.28-.6.15v-.3Z"/><path class="cls-2" d="M108,128.35h.84v.1h-.88Z"/><path class="cls-2" d="M126.79,127.39l.71,0v.13h-.72Z"/><path class="cls-2" d="M125.6,119.49l.55,0v.13l-.54,0Z"/><polygon class="cls-2" points="156.91 123.89 156.82 123.89 156.91 123.9 156.91 123.89"/><path class="cls-2" d="M151.19,126.16l.29-.18.05.13-.36,0Z"/><path class="cls-2" d="M157.72,123.66l-.36.14-.05-.12.33-.11Z"/><path class="cls-2" d="M158.85,123l.32-.18,0,.15h-.35Z"/><path class="cls-2" d="M118.19,119.68l.21-.11.11.21-.32.08v-.18Z"/><path class="cls-2" d="M148.83,121.84v-.18l.14.06Z"/><path class="cls-2" d="M158.84,123l-.07.13.08-.11Z"/><path class="cls-2" d="M157.09,124.4l0-.15.1.07-.15.06Z"/><path class="cls-2" d="M113.93,129.17l-.06-.25.15.06Z"/><polygon class="cls-2" points="128.16 127.44 128.08 127.47 128.09 127.4 128.16 127.44"/><path class="cls-2" d="M141.35,124.34v-.12l.16.07Z"/><path class="cls-2" d="M132.62,127.57h0l0-.08Z"/><path class="cls-2" d="M100.53,131.46c-.11-.06-.21-.18-.31-.18L94.58,131l-3.49-.17c.37-.41.85-.18,1.27-.17,1.17,0,2.33.14,3.49.16,1.63,0,3.25,0,4.87,0Z"/><path class="cls-2" d="M94.73,119.85c0,1.42-.1,2.85-.16,4.43a8.78,8.78,0,0,1-.11-4.4Z"/><path class="cls-2" d="M96.24,128.29c-1.15-.06-1.24-1.31-2.09-1.47.56,0,.51-.59.78-.94a7.78,7.78,0,0,0,.39,1.32A7.4,7.4,0,0,0,96.24,128.29Z"/><path class="cls-2" d="M90.94,123.2a12.28,12.28,0,0,1-.42-3.32,7.63,7.63,0,0,1,.57,3.33Z"/><path class="cls-2" d="M102.31,129.46c0-.07,0-.15,0-.22.48-.12,1-.34,1.47,0,.09.07.32-.08.56-.15l-.18.6-.35.18-.59-.19-.21-.18Z"/><path class="cls-2" d="M97,121.44v3h-.21l0-2.94Z"/><path class="cls-2" d="M91.68,129.31v.28l-2.75-.5.37-.34Z"/><path class="cls-2" d="M97.93,126.51l1.62.94A1.4,1.4,0,0,1,97.93,126.51Z"/><path class="cls-2" d="M87.18,124.18a4.86,4.86,0,0,1-.05-3l.11.1c.05,1,.11,1.93.16,2.89Z"/><path class="cls-2" d="M96.79,124.39H97l.34,1.19h-.2C96.73,125.26,96.77,124.82,96.79,124.39Z"/><path class="cls-2" d="M99.51,129.14a.66.66,0,0,0,0,.14l-1.82.08A2.78,2.78,0,0,1,99.51,129.14Z"/><path class="cls-2" d="M89.3,128.75l-.37.34-.89-.38.56-.1Z"/><path class="cls-2" d="M106,126.33l.12-.66c.37.34.37.34,0,.76Z"/><path class="cls-2" d="M97,121.44h-.19l.14-.8.26.06Z"/><path class="cls-2" d="M102.32,123.21l-.2,0c-.07-.3-.15-.59-.22-.88l.23,0Z"/><path class="cls-2" d="M97.14,125.57h.2l.36.64-.16.17Z"/><path class="cls-2" d="M104.63,127.12l.62-.45.13.23-.72.25Z"/><path class="cls-2" d="M87.88,120l-.42.76c-.2-.47.07-.67.25-.91Z"/><path class="cls-2" d="M103.08,127.72v-.18h.65v.14Z"/><path class="cls-2" d="M87.13,121.21l.1-.34.12,0c0,.13-.07.26-.11.4Z"/><path class="cls-2" d="M97.3,120.41l-.1-.09s0-.09,0-.09a.3.3,0,0,1,.13,0Z"/><path class="cls-2" d="M97.7,126.22l.26.33-.42-.16Z"/><path class="cls-2" d="M104.66,127.15l-.36.23-.08-.08.41-.18Z"/><path class="cls-2" d="M105.89,126.62l-.22.06.11-.18Z"/><path class="cls-2" d="M106.11,126.43l-.22.19-.11-.12.22-.17Z"/><path class="cls-2" d="M104.3,127.38l-.19.08a.91.91,0,0,1,.11-.16Z"/><path class="cls-2" d="M87.71,119.82l.15-.24.15.15-.13.24Z"/><path class="cls-2" d="M91.72,120.49l-.17.12.1-.19A.46.46,0,0,0,91.72,120.49Z"/><path class="cls-2" d="M91.4,121l-.06,0,.06-.09s0,0,0,.07S91.42,121,91.4,121Z"/><path class="cls-2" d="M91.65,120.42l.13-.06-.06.13A.46.46,0,0,1,91.65,120.42Z"/><path class="cls-2" d="M134,113.93h-2.5v-.11h2.54Z"/><path class="cls-2" d="M128,113.73h-1.95v-.1H128Z"/><path class="cls-2" d="M149.21,117.13l.41.19Z"/><path class="cls-2" d="M110.76,131.43c.46.1.93.23,1.4.29a6.1,6.1,0,0,1,1.26.15h-5.23c-.93,0-1.86.09-2.79.11a7.63,7.63,0,0,1-1-.09c0-.12,0-.23,0-.35l1.07-.06,3.62-.09Z"/><path class="cls-2" d="M114.46,125.59l-2.16-.2-.39-.39v-.2a15.49,15.49,0,0,0,5.3.33v.22c-.2.12-.7-.16-.59.41h-.4c.09-.23,0-.39-.22-.4s-.51,0-.77,0Z"/><path class="cls-2" d="M113.27,119.71l1,0v-.07l-.66-.19.18-.27.61,0,.42.53-.2.2h-1.41Z"/><path class="cls-2" d="M111.91,118.09l-1.19,0-.39-.74c.31,0,.6-.13.85.23A2.69,2.69,0,0,0,111.91,118.09Z"/><path class="cls-2" d="M111,122.16c.69-.12.69-.12,1.22.48C111.7,122.56,111.2,122.8,111,122.16Z"/><path class="cls-2" d="M113.05,124.39l1.23,0,1.07.07a4.14,4.14,0,0,1-2.45,0A.2.2,0,0,1,113.05,124.39Z"/><path class="cls-2" d="M111.71,121.64l-.74,0V121l.17-.08Z"/><path class="cls-2" d="M115.81,122c.23-.52.65-.36,1-.29l-.23.37Z"/><path class="cls-2" d="M112.91,120.67a.57.57,0,0,1,0,.14l-.59.2-.09.08-.29-.21,0-.18Z"/><path class="cls-2" d="M113.07,120.31l.68.14v.15l-.85.07Z"/><path class="cls-2" d="M116.6,122.28a.57.57,0,0,0,0,.13Z"/><path class="cls-2" d="M87.89,110.71l-.32-.27h0l.44.14Z"/><path class="cls-2" d="M88,110.59l.12.15-.23,0Z"/><path class="cls-2" d="M87.57,110.44s-.06,0-.07,0a.07.07,0,0,1,0-.05l.07.1Z"/><path class="cls-2" d="M132,109.7c1.81-.45,3.62,0,5.43,0,1.36,0,2.72-.1,4.08-.15.21,0,.5-.06.42.33l-3.47,0H138l-6.07,0Z"/><path class="cls-2" d="M149,109.31l1.21-.1-2-.43h0l.79-.13c.31.07.61.16.92.2s.69,0,1,.06c.52,0,1.08-.13,1.46.38a1.91,1.91,0,0,1-.5.19l-2.89,0A.57.57,0,0,0,149,109.31Z"/><path class="cls-2" d="M149,109.31a.57.57,0,0,1,0,.13l-5.71.32c.14-.1.27-.28.41-.28.68,0,1.36,0,2,0Z"/><path class="cls-2" d="M153.39,109.24a4.65,4.65,0,0,1,.72-.16l2.25,0c.11,0,.21-.11.32-.17h.2a1.43,1.43,0,0,0,.41.17c.29,0,.28.18.19.38Z"/><path class="cls-2" d="M157.48,109.43c.09-.2.1-.34-.19-.38a1.43,1.43,0,0,1-.41-.17h0l.19-.18h.38a4.32,4.32,0,0,0,2.12.77l-.06.26Z"/><path class="cls-2" d="M134.08,110.67a.76.76,0,0,1,0,.15h-3.73l-.41-.2.61-.17a6,6,0,0,0,1,.18C132.41,110.67,133.24,110.66,134.08,110.67Z"/><path class="cls-2" d="M134.31,111.43c-.95,0-1.9,0-2.84,0-.11,0-.21-.12-.32-.18.91,0,1.82-.07,2.73-.13C134.14,111.08,134.34,111.09,134.31,111.43Z"/><path class="cls-2" d="M147.45,110.15v.29h-3.31v-.12Z"/><path class="cls-2" d="M138.06,110.81v-.14a.47.47,0,0,0,.17,0h1.61v.18Z"/><path class="cls-2" d="M165.51,109.85c.36,0,.67,0,.8.41Z"/><path class="cls-2" d="M165.12,109.66c.27-.2.39-.09.41.2Z"/><path class="cls-2" d="M164.73,109.26l.21.21Z"/><path class="cls-2" d="M164.93,109.46c.18,0,.35-.07.2.21Z"/><path class="cls-2" d="M87,137.54l1.77-2.36.57,0h0a10.65,10.65,0,0,1-2,3.2s-.24-.07-.37-.11C87,138.05,87,137.79,87,137.54Z"/><path class="cls-2" d="M85.19,139.79l.2.29v.21h0l-.2.2h0l-.2.2h0l-.2.4v0l-.72.43A3.13,3.13,0,0,1,85.19,139.79Z"/><path class="cls-2" d="M85.4,140.49l.43.2-.94,1.45-.09-1.08v0l.2-.4h0l.2-.2h.2Z"/><path class="cls-2" d="M83.93,143.15l.38-.65c.21.44-.09.58-.25.78A.8.8,0,0,0,83.93,143.15Z"/><path class="cls-2" d="M83.91,143.52l-.32.53c-.24-.4,0-.52.18-.67A.93.93,0,0,1,83.91,143.52Z"/><path class="cls-2" d="M83.32,142.79s-.08-.1-.08-.14.06-.1.09-.15.08.1.08.15S83.35,142.74,83.32,142.79Z"/><path class="cls-2" d="M84.6,142.39l-.07.06s0,0,0-.07,0,0,.06-.06Z"/><path class="cls-2" d="M84.06,143.28l-.15.24a.93.93,0,0,0-.14-.14l.16-.23A.8.8,0,0,1,84.06,143.28Z"/><polygon class="cls-2" points="83.57 142.18 83.52 142.2 83.53 142.13 83.57 142.18"/><path class="cls-2" d="M90.21,133.92l.24-.17.09.1-.17.22Z"/><path class="cls-2" d="M90.15,134.24l-.13.1,0-.2Z"/><path class="cls-2" d="M90,134.14a1.84,1.84,0,0,0,.17-.22l.16.15-.22.17Z"/><path class="cls-2" d="M126.05,109.64l-.71,0-.08.43-1.36.06-.29-.24.06-.07h.27v0l-.27,0c0-.46.23-.64.65-.67l2.32-.22-.67.32Z"/><path class="cls-2" d="M125.27,110.2l1.37.06a2.12,2.12,0,0,1-.57.19c-.79,0-1.59,0-2.38,0v0l.19-.23Z"/><path class="cls-2" d="M122.93,109.91l-2.15-.23c.58,0,1.16-.07,1.73,0a4,4,0,0,1,.89.22Z"/><path class="cls-2" d="M127.45,110.4l.76-.06c0,.13,0,.25.1.5l-.93-.28a.14.14,0,0,1,0-.09A.16.16,0,0,1,127.45,110.4Z"/><path class="cls-2" d="M121.53,110.25l1.37-.19Z"/><path class="cls-2" d="M119,110.27a.33.33,0,0,1,0,.17h-.7Z"/><path class="cls-2" d="M123.69,110.44l-.1.11.11-.09Z"/><path class="cls-2" d="M82.06,124.58l.2.4Z"/><path class="cls-2" d="M81.86,124.19l.2.4Z"/><path class="cls-2" d="M81.7,125.53c.08.12.16.24.23.36l-.11.12-.22-.37Z"/><path class="cls-2" d="M80.9,126.54l-.21-.2Z"/><path class="cls-2" d="M81.09,126.75l-.2-.22Z"/><path class="cls-2" d="M81.6,125.64l-.13-.27h0a1.88,1.88,0,0,1,.23.16Z"/><path class="cls-2" d="M82,126.19l-.21-.18.11-.12.14.25Z"/><path class="cls-2" d="M82.07,126.14l.08.12-.12-.07Z"/><path class="cls-2" d="M116.79,101.57l.58-.46c0,.47-.26.49-.46.59Z"/><path class="cls-2" d="M116.91,101.7l-.54.29-.08-.14.5-.28Z"/><path class="cls-2" d="M103.1,114.2l-.66.26,0-.17.67-.13Z"/><path class="cls-2" d="M103.06,114.16l.1-.12-.06.16Z"/><path class="cls-2" d="M126.05,109.64l-.08-.46.67-.32h0l1-.23,1.21-.12c0,.17.09.35.14.52l-1.31,0,0,.27,1.33-.25a2.71,2.71,0,0,0,1.43-.19c.13-.08.37,0,.55,0-.23.16-.45.45-.69.47C128.9,109.54,127.47,109.58,126.05,109.64Z"/><path class="cls-2" d="M131,109c-.18,0-.42-.12-.55,0a2.71,2.71,0,0,1-1.43.19L129,109l-.14-.52.35,0,.34.33.29-.51.75,0c.05.11.11.31.16.3.54,0,1.09,0,1.64-.07l.78-.24c.29,0,.67.14.82-.29h.69l.67.44c-.25.18-.79-.14-.81.46l-1.41.07-1.8,0Z"/><path class="cls-2" d="M134,108c-.15.43-.53.25-.82.29l-1.33,0-.13-.11A4.65,4.65,0,0,1,134,108Z"/><path class="cls-2" d="M132.36,108.52c-.55,0-1.1.07-1.64.07-.05,0-.11-.19-.16-.3l1.12-.07.13.11Z"/><path class="cls-2" d="M129.81,108.32l-.29.51-.34-.33Z"/><path class="cls-2" d="M127.62,108.64l-1,.23Z"/><path class="cls-2" d="M108.19,132.18l.85-.07,0,.13-.51.23-6.47-.06c0-.06,0-.11,0-.16Z"/><path class="cls-2" d="M102.09,132.25c0,.05,0,.1,0,.16-.41,0-.82,0-1.22-.07-.07,0-.12-.19-.18-.29Z"/><path class="cls-2" d="M111.89,116.71c-.27.58-.74.4-1.19.32C111,116.49,111.49,116.8,111.89,116.71Z"/><path class="cls-2" d="M82.27,122.39l-.06.82h-.08v-.91Z"/><path class="cls-2" d="M83.14,128.41l-.29,0,.18-.14Z"/><path class="cls-2" d="M82.05,117.51l.21.21Z"/><path class="cls-2" d="M166.89,126c2.22-.07,4.43-.17,6.65-.22,1.88,0,3.78,0,5.66-.07,2.6-.09,5.2-.23,7.8-.38,1.23-.07,2.46-.22,3.69-.3.49,0,1,0,1.46,0l4.45-.07a24.39,24.39,0,0,1,3.41.15c-.83.08-1.66.2-2.5.21-2.83,0-5.67,0-8.5.06-1.47,0-2.93.18-4.4.27-1.27.08-2.55.07-3.81.23-3.29.44-6.6.11-9.89.26-1.34.06-2.68.09-4,.13Z"/><path class="cls-2" d="M171.42,123h-2.35a.71.71,0,0,0-.92,0l-.11,0-.81-.09c0-.35-.3-.26-.52-.27l-4.62-.33v-.22l9.34.57Z"/><path class="cls-2" d="M180.54,118.49c.74,0,1.48-.15,2.23-.14.91,0,1.82.1,2.73.19,1.17.1,2.33.23,3.5.37.1,0,.19.12.29.18-2-.13-4.06-.28-6.1-.4-.71,0-1.42,0-2.13,0A1.65,1.65,0,0,1,180.54,118.49Z"/><path class="cls-2" d="M181.43,120.85v.21l-8.73,0v-.16Z"/><path class="cls-2" d="M166.89,126v.32l-4.9,0,0-.08v-.09Z"/><path class="cls-2" d="M189.09,120.85a1,1,0,0,1,0-.17c1,0,2.06,0,3.09,0a5.1,5.1,0,0,1,.83.17V121Z"/><path class="cls-2" d="M175.58,124.73H172C173.2,124.8,174.38,124,175.58,124.73Z"/><path class="cls-2" d="M163,120.46v-.19h3A4.33,4.33,0,0,1,163,120.46Z"/><path class="cls-2" d="M165.73,123.81h3.89V124h-3.88A.76.76,0,0,1,165.73,123.81Z"/><path class="cls-2" d="M166.71,124.59h3.13a17.41,17.41,0,0,1-3.14.23Z"/><path class="cls-2" d="M171.42,123l0-.32,3.48.16L173,123Z"/><path class="cls-2" d="M196.2,121.07H199v.13h-2.76Z"/><path class="cls-2" d="M193,121v-.22h2.4V121Z"/><path class="cls-2" d="M162.19,118.88H160.8a1.59,1.59,0,0,1,1.46-.32Z"/><path class="cls-2" d="M178.15,124.48l-2,.14v-.26h1.87A.47.47,0,0,1,178.15,124.48Z"/><path class="cls-2" d="M168,123l0,.19c-.62,0-1.27.18-1.85-.2l.34-.08h.66Z"/><path class="cls-2" d="M168.3,120.62h-1.19v-.1h1.2Z"/><path class="cls-2" d="M178.3,124.23c.39,0,.83-.27,1.17.16l-1.21,0Z"/><path class="cls-2" d="M166.57,122.93l-.34.08,0-.18Z"/><path class="cls-2" d="M180.24,118.34l.32.16h-.3A.47.47,0,0,1,180.24,118.34Z"/><path class="cls-2" d="M178.3,124.23l0,.21a.1.1,0,0,1-.11,0,.47.47,0,0,0-.09-.12.25.25,0,0,1,.05-.15Z"/><path class="cls-2" d="M155.82,117.52l-.23-.15.64-.12-.92-.25c.3-.22.26-.72.78-.5l0,.22c.13.41.46.11.68.19a.13.13,0,0,1,.07-.09C156.78,117.5,156.78,117.5,155.82,117.52Z"/><path class="cls-2" d="M157.3,118.51l-.81-.26c0-.22-.08-.66.4-.32l1.37.37C158.07,119,157.66,118.63,157.3,118.51Z"/><path class="cls-2" d="M160.78,118.09c0-.12-.05-.23-.08-.35h2.14l-.1.17Z"/><path class="cls-2" d="M157.27,116.84h0l.73.12C157.64,117.09,157.64,117.09,157.27,116.84Z"/><path class="cls-2" d="M167.06,117.93h.26c-.09.1-.17.21-.25.31Z"/><path class="cls-2" d="M154.56,115.94l.16-.16Z"/><path class="cls-2" d="M212,126.43h1.51v.07l-1.49.18Z"/><path class="cls-2" d="M214.62,126.32l-.5,0v-.13h.5Z"/><path class="cls-2" d="M219.32,126.35l.2.21Z"/><path class="cls-2" d="M112.6,131.17c.07-.1.13-.27.22-.29a6.26,6.26,0,0,1,.87,0l1.3.13h0a3.63,3.63,0,0,1-.86.29A13,13,0,0,1,112.6,131.17Z"/><path class="cls-2" d="M110.72,131.25l-.77-.38,1,0a2.06,2.06,0,0,1,.56,0c.08,0,.1.22.15.33Z"/><path class="cls-2" d="M129,147.32h-.18l-1-.52a.37.37,0,0,0-.18-.05l-.49-.38.64.05,1.23.63Z"/><path class="cls-2" d="M127.14,146.39h-.31l-.4-.41Z"/><path class="cls-2" d="M122.16,144l-.42-.33Z"/><path class="cls-2" d="M123.13,145.18A1.27,1.27,0,0,1,123,145c.25-.15.41-.06.51.2Z"/><path class="cls-2" d="M122.63,144.41l-.3-.27Z"/><path class="cls-2" d="M123.49,144l.19.19Z"/><path class="cls-2" d="M117.33,142.05l-.21-.09.11-.13Z"/><path class="cls-2" d="M113.49,140.07a.34.34,0,0,0,.17.05l.23.36C113.48,140.61,113.36,140.47,113.49,140.07Z"/><path class="cls-2" d="M113.88,140.48l.5.4h-.51Z"/><path class="cls-2" d="M128.77,147.57l0,.18-.2-.19Z"/><path class="cls-2" d="M128.77,147.57h-.16a.22.22,0,0,1,.09-.1h0A.36.36,0,0,1,128.77,147.57Z"/><path class="cls-2" d="M129,147.32v-.26l.55.13,0,.18Z"/><path class="cls-2" d="M155.72,135.52v.2l-.2.06h-.2l-2-.38-2.61-.24.29-.2,0-.13a10.51,10.51,0,0,1-1.45.34,5.15,5.15,0,0,1-1.65-.11l.72-.12s0-.11-.06-.11l-5.67-.24a2.36,2.36,0,0,1-.56-.16.86.86,0,0,1,0-.16c2.09.05,4.19.09,6.28.15.94,0,1.88.05,2.81.16.57.07,1.11.4,1.72.25l.29.18c.67.09,1.35.17,2,.27C155.56,135.29,155.64,135.43,155.72,135.52Z"/><path class="cls-2" d="M153.45,135l-.29-.18c.17-.13.3-.32,0-.42a15,15,0,0,0-1.72-.55,7,7,0,0,0-1-.11c-.14-.17-.27-.34-.41-.5a4.12,4.12,0,0,0,2.32.33,16.74,16.74,0,0,1,4,.84l-2.31-.14Z"/><path class="cls-2" d="M150,133.24c.14.16.27.33.41.5a4.18,4.18,0,0,1-2-.15,6,6,0,0,0-1.73,0l.77-.2v-.11c-.3,0-.69-.06-.87.09-.34.29-.61.09-.91,0V133Z"/><path class="cls-2" d="M130.45,132.94a29.32,29.32,0,0,0,3.75.3c.48,0,.63.24.45.65l-4.86-.68Z"/><path class="cls-2" d="M130.45,132.94l-.66.27-2.26-.2,0-.16.71-.21h.2c.48,0,1,0,1.45.05A2.13,2.13,0,0,1,130.45,132.94Z"/><path class="cls-2" d="M140.38,132.86c.79,0,1.57,0,2.36,0a1.47,1.47,0,0,1,.5.19h-2.85A1,1,0,0,0,140.38,132.86Z"/><path class="cls-2" d="M136.44,133.64l2,.24a3,3,0,0,1-2,0C136.45,133.77,136.45,133.7,136.44,133.64Z"/><path class="cls-2" d="M145.68,133v.35c-.51,0-1-.08-1.53-.15a7.67,7.67,0,0,1-.92-.22Z"/><path class="cls-2" d="M142.35,134.26a.86.86,0,0,0,0,.16l-2.14,0a.25.25,0,0,1,0-.17Z"/><path class="cls-2" d="M136.44,133.64c0,.06,0,.13,0,.19l-1.47-.18,0-.26Z"/><path class="cls-2" d="M140.38,132.86a1,1,0,0,1,0,.17l-1.9,0C139.1,132.68,139.75,132.9,140.38,132.86Z"/><path class="cls-2" d="M129.79,132.23c0-.33.2-.35.43-.38s.52.05.54.39Z"/><path class="cls-2" d="M140.2,134.22a.25.25,0,0,0,0,.17l-1.29-.23A1.2,1.2,0,0,1,140.2,134.22Z"/><path class="cls-2" d="M128.21,132.64a.84.84,0,0,1,.14-.06s0,0,.06.06h-.2Z"/><path class="cls-2" d="M159.53,134.73l-.05,0s0,0,.06,0a.12.12,0,0,1,.05.05Z"/><path class="cls-2" d="M163,136.57l-.21-.21Z"/><path class="cls-2" d="M167.9,136.62c.31,0,.63-.07.94-.06.09,0,.18.14.27.22-.09.1-.19.29-.28.29a7.34,7.34,0,0,1-.94-.14Z"/><path class="cls-2" d="M167.9,136.62v.31l-1.58-.19v-.08l0-.08Z"/><path class="cls-2" d="M169.73,137.88h-.41v-.1l.41-.05Z"/><path class="cls-2" d="M178.48,107.31l0,.33-.39.26-.2-.05a2.9,2.9,0,0,0-2.11.06l0-.4Z"/><path class="cls-2" d="M177.86,107.85l.2.05-.66.27-.07-.19Z"/><path class="cls-2" d="M177,108.24h-.41v-.1l.41-.08Z"/><path class="cls-2" d="M196.51,105.29l.5-.18.06.17-.4.19Z"/><path class="cls-2" d="M179,136.72c-.14.08-.28.24-.42.25-.41,0-.83-.05-1.24-.07v-.13C177.87,136.72,178.41,136.43,179,136.72Z"/><path class="cls-2" d="M202.81,138.75c.2.2.43.38.61.58a4.6,4.6,0,0,1,.4.58l-1.37-1.2v0Z"/><path class="cls-2" d="M203.81,139.9a1.1,1.1,0,0,1,.36,0c.08,0,.16.08.22.24l-.54-.05A.94.94,0,0,1,203.81,139.9Z"/><path class="cls-2" d="M196.73,136v-.26l.26,0Z"/><path class="cls-2" d="M196.56,135.59l-.42-.21Z"/><path class="cls-2" d="M199.05,137.21l-.35-.25.07-.06.42.15Z"/><path class="cls-2" d="M199.19,137.05l.36.24-.17.18-.33-.26Z"/><path class="cls-2" d="M202.45,138.71l-.28,0,.27.06Z"/><path class="cls-2" d="M198.7,137l-.13-.15.19.09Z"/><path class="cls-2" d="M196.75,135.79l-.21-.22Z"/><path class="cls-2" d="M192.11,136.05l2-.22C193.64,136.39,193.07,136.5,192.11,136.05Z"/><path class="cls-2" d="M208.54,144l-.75-.64-.17-.48A1.66,1.66,0,0,1,208.54,144Z"/><path class="cls-2" d="M130.17,131.25l1.21.17.16.4c-.45-.08-.9-.15-1.34-.25C130.17,131.56,130.18,131.36,130.17,131.25Z"/><path class="cls-2" d="M146,132.47l-1.61.1s0,0-.06,0l.16-.11Z"/><path class="cls-2" d="M149.8,108l-.78.3-1.58,0a5.25,5.25,0,0,1-.71-.16,2,2,0,0,1-.41-.3l3.48.09Z"/><path class="cls-2" d="M151.43,108.65a9,9,0,0,1,2.93-.16c.51,0,1,0,1.52,0l.25,0,.75.21a1,1,0,0,0,0,.17h-.21c-1.2-.07-2.4-.14-3.6-.19C152.53,108.66,152,108.66,151.43,108.65Z"/><path class="cls-2" d="M166.3,109.27c.42-.12.61,0,.59.4Z"/><path class="cls-2" d="M76,144.62h-.21l.2-.21Z"/><path class="cls-2" d="M143.73,109l-2.95.15-.36-.27,3.31-.06Z"/><path class="cls-2" d="M138.2,108.24l.23.25-2.76.18.42-.41Z"/><path class="cls-2" d="M148.22,108.77h0l-3.15.13c.06-.07.12-.19.17-.19C146.25,108.72,147.24,108.75,148.22,108.77Z"/><path class="cls-2" d="M143.73,109v-.18a3,3,0,0,1,.66-.1c.09,0,.17.18.25.27Z"/><path class="cls-2" d="M172.83,108.27l-.23-.22Z"/><path class="cls-2" d="M112.36,121l.59-.2,1.32,0C113.67,121.27,113,121,112.36,121Z"/><polygon class="cls-2" points="113.56 130.06 113.57 130.15 113.58 130.06 113.56 130.06"/><path class="cls-2" d="M114.88,119.64a.16.16,0,0,0,.15,0h.44l.35.06.08.21-1.22-.07Z"/><path class="cls-2" d="M113.85,119.13l-.18.27a2.38,2.38,0,0,1-.65,0c-.16,0-.29-.22-.43-.34Z"/><path class="cls-2" d="M112,118.53l-.53.2-.34-.11v-.09Z"/><path class="cls-2" d="M115.9,119.91l-.08-.21.32,0Z"/><path class="cls-2" d="M109.8,130.87h0Z"/><path class="cls-2" d="M131.3,108.93l1.8,0A1.35,1.35,0,0,1,131.3,108.93Z"/><path class="cls-2" d="M156.89,108.87a1,1,0,0,1,0-.17h.2Z"/><path class="cls-2" d="M129,109.11l-1.33.25,0-.27,1.31,0Z"/><path class="cls-2" d="M156.11,116.72l.68.19C156.57,116.83,156.24,117.13,156.11,116.72Z"/></g></g></svg>