<svg xmlns="http://www.w3.org/2000/svg" viewBox="0 0 250.51 242.66"><defs><style>.cls-1{fill:#fff;}.cls-2{fill:#060b2b;}</style></defs><title>Fichier 6</title><g id="Calque_2" data-name="Calque 2"><g id="A4"><rect class="cls-1" width="250.51" height="242.66"/><path class="cls-2" d="M104.44,131.37c.52-.3,1-.57,1.55-.9a9,9,0,0,0,.88-.77c-.17-.14-.25-.23-.27-.22-1,.57-2.11.21-3.16.3a3.62,3.62,0,0,1-1.51-.61c-.34-.16-.64-.39-1-.58a15,15,0,0,1-5.17-4.78c-.63-1-1.32-2-1.94-3a1.53,1.53,0,0,1-.11-.83,1.78,1.78,0,0,0-.49-1.62c-.11,0-.21,0-.24,0-1.1,1.31-2.16,2.66-3.3,3.94A6.51,6.51,0,0,1,87,124.47c.23-.28.45-.57.7-.82.64-.64,1.51-1.06,2.06-2.13l-2.7,2.09a.51.51,0,0,0,0,.86l-.44.37-.26-1.5A12.13,12.13,0,0,0,90,120.45c.53-.57,1.18-1,1.75-1.55,1-.92,1.1-1.44.53-2.62a1.86,1.86,0,0,1-.1-.2,2.07,2.07,0,0,0-1.61-1.65c-.1,0-.18-.11-.3-.19.16-.83.33-1.65.48-2.48s.78-1.25,1.26-1.8.57-.83.06-1.45a6.57,6.57,0,0,0-.84-.73A12.14,12.14,0,0,1,90,106.69a10.23,10.23,0,0,0-2.63-2.41c-.11,0-.15-.23-.23-.36,1.21-.59,1.24-.6,2,.2,1.22,1.2,2.42,2.43,3.63,3.65a3.54,3.54,0,0,0,.41.28c.15-.2.28-.37.4-.55,1.08-1.6,2.09-3.27,3.29-4.78a8.25,8.25,0,0,1,2.47-1.89,31.65,31.65,0,0,1,3.27-1.42c.24-.1.49-.17.77-.27-.2-.52-.61-.54-1-.57A7.51,7.51,0,0,0,98,99.5a5.47,5.47,0,0,1-5.06.39c.43-.63,1.06.16,1.55-.24,0-.7-.6-.87-1.09-1.07a4.22,4.22,0,0,1-2.16-1.51,6.88,6.88,0,0,0-3.41-2.59l-.08.16.72,1.14-1.83-1.2a2.27,2.27,0,0,1,2.42,0A5.82,5.82,0,0,1,91.74,97c.2.4.8.63,1.25.89.63.38,1.29.71,1.93,1.08a.55.55,0,0,0,.85-.18c1.27-2.09,3.33-2,5.36-1.9.59,0,1.19.09,1.78.13a1.06,1.06,0,0,0,1.43.4l1.07.39,1.09.59,2.61-2.64,1.21-1.15,2.53-2.33,2-1.2,2.29-1c.32-.15.64-.32,1-.48l1.82-1a6.13,6.13,0,0,0,2.5-.77,15.64,15.64,0,0,0,2.45-1A3.78,3.78,0,0,0,126.59,85l-1.85.91a4.27,4.27,0,0,0-1,.17c-.37.14-.68.21-1-.08a16.83,16.83,0,0,0,3.7-2.24.92.92,0,0,0,.31-.55,1,1,0,0,0-.08-.54c-.8-2.53-.4-5.08-.14-7.63a6.07,6.07,0,0,1,.59-1.5,2.61,2.61,0,0,1,1.7,3.28,2.69,2.69,0,0,0,.12,1.73,2.53,2.53,0,0,1,.11.88,26.57,26.57,0,0,0,.07,2.68A3.09,3.09,0,0,1,127.93,85c-1,.88-2.07,1.68-3.12,2.52l-2.12.89,1.7,0-.48.47a7.43,7.43,0,0,0-4.24,1.22l-.64,1,1.65-.07a4.67,4.67,0,0,0-2.56,1.28c-.06.08-.19.1-.29.15-.63-.24-1.06.3-1.59.41l.16-.53c-.67-.13-.93.24-1.21.68l.41.26h.06l-1.31,1.29c-.52-.42-.66-.37-.95.37a5.22,5.22,0,0,0-1.14,2.74l-.24.48-1.15.74a1.58,1.58,0,0,0-1.74.94l.07.89.11,2.44c-.52-.68-.73-.46-.91-.11a11.59,11.59,0,0,0-1-1.71c-.15-.19-.4-.26-.51-.59s-.54-.44-.86-.58c-.07,0-.27.26-.39.38.42.43.77.81,1.14,1.17s.07,1.07.83,1l.6,1.43,0,.28c.18.72.31,1.46.55,2.17a27.69,27.69,0,0,1,1.22,7.61.68.68,0,0,1-.2,0s-.06,0-.1,0-.08,0-.08,0c0,.76,0,1.52,0,2.28,0,.14.16.27.25.4h.16c-.09.82-.19,1.65-.29,2.47l0-1.21c-.28,1.16-.79,2.28-.48,3.49l-.49.5-.09-.7L108,122a4.63,4.63,0,0,1,.26-.74,13.53,13.53,0,0,0,1-6.34,5.32,5.32,0,0,0-.18-.91c-.5.47-.33.89-.34,1.28a11.59,11.59,0,0,1-.54,4.52,3,3,0,0,0-.35,2.17l-.24,1.36.16.06.93-1.24,0,.47-.9,1.57-.56-.2c-.67,1.45-.9,3-2.16,4a.77.77,0,0,0,1.16.17c.34-.22.7-.41,1-.62,0,.39,0,.78.07,1.17,0,.19,0,.49.09.55.48.29,1,.52,1.51.78a2.88,2.88,0,0,0,.68.34c.15,0,.33-.14.5-.21h0l.25.19v.5c-.33,0-.6.05-.29.46.1.14.22.27.33.4l.52.87-.21,0a1.82,1.82,0,0,0-1.36-.78,1.62,1.62,0,0,0,1.25.91c.12.19.19.47.37.56,1,.52,2,1,2.93,1.49.2.19.65.19.47.65a10.62,10.62,0,0,1-4.71-2.59,5.33,5.33,0,0,0-.8-.59c-.23-.34-.28-1-1-.56a1,1,0,0,0-1.38.12,5.1,5.1,0,0,1-1.25.65l0-.62c.45-.17,1-.24,1.16-.81a1.55,1.55,0,0,0-.9.23,3.41,3.41,0,0,1-2.29.6Zm1.21-13.59.16-1.58H106l.12.45,0,1.32-.15.56-.57,4.37-.53,1.49.24.07.39-1.47c.19-.6.36-1.2.57-1.8a4.85,4.85,0,0,1,.4-.74v.23c0,.53,0,1-.07,1.58a8.81,8.81,0,0,0-.61,3c.71-.82.66-1.9,1-2.85.21.14.42.19.45-.15a3.72,3.72,0,0,0,0-.74,14.59,14.59,0,0,0,.93-4.57,5.13,5.13,0,0,0,.09-.86c-.09-1.12-.2-2.24-.31-3.36l-.29-2.29a6.93,6.93,0,0,1-.22-.87c-.22-1.4-.45-2.8-.62-4.21a5.64,5.64,0,0,1,.12-1.21,2.45,2.45,0,0,0,.34-.26c-.19-.36-.41-.69-.62-1l-.53-.27a1.93,1.93,0,0,0-.09-.73c-.17-.29-.34-.18-.38.12-.72.18-1.45.32-1.69,1.18l-.43.28-.59,1.46-.76-.74-.42.23c-.64-.28-.64-.28-1.11.51l-.9.94-.15.67h0c-.64,0-.38-.54-.48-.87.61-.7,1.23-1.38,1.81-2.1a1.6,1.6,0,0,0-.35-2.31,6.74,6.74,0,0,0-1.71.88A15.89,15.89,0,0,0,95.05,107l-.76.88h.81a.19.19,0,0,1,0,.15l.05,1.27c.08.31.17.63.24,1,.17.8.34,1.61.5,2.41L96,114a2.92,2.92,0,0,0-.53.91,8.31,8.31,0,0,1-.94,2.47l-.4.94.19.07.27-.73c.82-.87,1-2,1.41-3.08.08-.15.23-.3.22-.45,0-1.21-.08-2.43-.09-3.64a5.16,5.16,0,0,1,.22-1.16s.18,0,.32-.09l-.28,1c.63,0,.63,0,1,.61l-.33.18a2.06,2.06,0,0,0-.24,2.23l.3.9.21.67.25.56.22.32c-.06.29-.12.58-.17.86l-.4,1h-.15l-.19-.91-.12.7-.62-.2-.14-.42.5-.51c-.52,0-.64.17-.55.54l-1.51,2.65c.42.86.71,1.48,1,2.1.4.79.81,1.56,1.22,2.35a6.93,6.93,0,0,0,2.78,2.77l.57-.88a.94.94,0,0,0,.14-1.13c-.22-.51-.43-1-.65-1.54l.41-.45,1.46,2.73.48-.13-.41,1,.18.17.73-.29.4-.42.46-.34c.2.69-.62.9-.68,1.55l.78.36a12.32,12.32,0,0,0,1-3.46c.18-.61.39-1.2.53-1.82s.25-1.53.38-2.3C105.4,119,105.52,118.38,105.65,117.78Zm9.84-25.93-.9.63.19.23.83-.74a3.27,3.27,0,0,0,1.44-1C116.21,91,115.93,91.55,115.49,91.85Zm-3.37,4.27c.14-.22.49-.4.14-.72-.65.24-.87.37-.94.73,0,.13.18.31.28.46-.27.44-.93.72-.6,1.46A2.19,2.19,0,0,0,112.12,96.12Zm-3.6,11.2-.27-.77-.12,0,0,.74a5.48,5.48,0,0,0-.16,1.19c.06.77.2,1.54.33,2.31s.27,1.46.43,2.18c0,.16.21.29.33.44A31.85,31.85,0,0,0,108.52,107.32Zm-9.81-9.48c-.26-.18-.54-.5-.83-.1s.2.35.34.51L97.09,99a1.74,1.74,0,0,0,1.08-.24,6.36,6.36,0,0,1,4.44-.65c.41.06.81.16,1.21.19a3.28,3.28,0,0,0,.75-.13A6.45,6.45,0,0,0,98.71,97.84Zm28.83-14.66c-.06-1.34-.07-2.45-.17-3.54s-.26-2.26-.4-3.39a1.07,1.07,0,0,0-.3.69c0,1.14.44,2.28-.1,3.41,0,.05,0,.14,0,.21C126.89,81.38,127.18,82.2,127.54,83.18ZM105.25,125l-1.37,2.41c.5.18.5.18,1.53-1C105.37,126.06,105.32,125.66,105.25,125Zm4.15-28c-.36.48-.64.8-.87,1.15a1.75,1.75,0,0,0-.11.57c.22,0,.51,0,.65-.15a2.45,2.45,0,0,0,.51-.83C109.63,97.61,109.49,97.38,109.4,97.05Zm-19.58,8.31a3.27,3.27,0,0,0,2.11,2.13Zm38.63-24h.11l-.12-2.79a.17.17,0,0,0-.09-.07s0,0-.17.06C128.27,79.5,128.36,80.44,128.45,81.39ZM104.62,98.52a2,2,0,0,0,1.55.36C105.65,98.58,105.37,98.22,104.62,98.52Zm.54,2.64-1-.57C104.16,101.37,104.82,101.06,105.16,101.16Zm3.22,29.4c.12.51.34.85,1.13.66Zm18.56-55.25c.54-.15,1-.38.4-1Zm.41,1.57.17.06.15-1.2-.2,0Zm1.17,6.57-.22-.19-.69.81.23.2Zm-21,21.3-.34,0,.26.92.22,0Zm-18.66,0,.13-.13-.44-.43-.13.13Zm2.28,9,.18,0c0-.15.06-.29.08-.43s-.12-.05-.18-.08Zm26.52-22.17-.1-.2-.43.26a.71.71,0,0,0,.08.15Zm10.53-15.85.18,0-.09-.68h-.12Z"/><path class="cls-2" d="M137.12,142.51a5.91,5.91,0,0,0-4.86-2.7,8.37,8.37,0,0,1-1-.17c-.27,0-.54-.24-.81.11-.09.11-.48,0-.72,0-1.16-.26-2.32-.55-3.47-.83s-2.32-.53-3.48-.83c-.54-.14-1.19-.08-1.52-.74-.06-.12-.38-.12-.59-.17l-5.51-1.46c-.07,0-.12-.08-.19-.12l.93,0c.82.24,1.63.5,2.46.72a1.61,1.61,0,0,0,.6-.08l0-.22c-1,.16-1.76-.42-2.63-.68l.23-.21,2.25.55c.13-.27.23-.46.31-.66a3.69,3.69,0,0,1,2.6-2.25l1.5-.37a.17.17,0,0,0,.14,0,5.81,5.81,0,0,0,1.1.14c.13,0,.26-.26.39-.39l2.4,1.22.44.65.14,1.28v.49l.07.58c.2,0,.38,0,.56,0,2.87,0,5.61-.85,8.4-1.37a22.71,22.71,0,0,0,3.17-.71,37.21,37.21,0,0,0,4.67-1.86,20.51,20.51,0,0,0,4.67-3.24c.79-.92,1.57-1.84,2.36-2.75a2.25,2.25,0,0,1,.41-.34c.14,0,.34.14.41.08a2.91,2.91,0,0,0,.47-.57c.71-1,1.45-2,2.14-3,.23-.34.55-.77.49-1.11-.17-1.07.53-1.91.64-2.9l.15-1.66.2-.72-.27,0-.07.81c0,.39-.17.48-.5.41l-.25-.23a11.32,11.32,0,0,0-.07-1.43c-.17-1.09-.36-1.21-1.62-1.19l-.34.06a1.08,1.08,0,0,0,.09-1.39c.48-.27,1.11-.39,1.07-1.15a2.78,2.78,0,0,0,.52-.81c.1-.47.58,0,.68-.37a4.39,4.39,0,0,0,.39-1.49,2.37,2.37,0,0,1,.31-1.47l.09,0c.07.53-.28,1.12.2,1.6l-.19.65,0,1,.17,0,.23-.81c.13-.35.22-.72.38-1a6.62,6.62,0,0,0-.12-5l-.47,0a1.52,1.52,0,0,0,0-.21c0-.28.11-.63,0-.81-.68-.92-1.38-1.84-2.15-2.69s-1.49-1.46-2.24-2.17c-.16-.15-.35-.38-.53-.38a3.3,3.3,0,0,0-2.46.63l.82.49-1.49.19c-.31-.09-.65-.32-.91-.24a2,2,0,0,1-1.83-.45l-.45-1.16-1-.09-1.26-1.08a2,2,0,0,1-.64-1.81,1.59,1.59,0,0,1,2.4-1.32,3.09,3.09,0,0,0,.75.12,3.83,3.83,0,0,0,3,1.17l1.09.65,2.74,2.63a2.42,2.42,0,0,0,1.08.72c.9.25,1.4,1.08,1.92,1.8.64.88,1.16,1.83,1.82,2.69a5.06,5.06,0,0,1,1,2.37,8.26,8.26,0,0,1-.47,4.84,1.89,1.89,0,0,0,.63,2.62c-.55.71-.3,1.51-.35,2.26,0,.17.15.38.11.53-.35,1.41-.73,2.81-1.12,4.21-.12.43-.34.83-.48,1.26a5.53,5.53,0,0,1-1.68,2.73,1.5,1.5,0,0,0-.36.43,39.83,39.83,0,0,1-3.63,4.26,13.67,13.67,0,0,1-2.81,2.51l-.86.47.15.22.76-.64a8.36,8.36,0,0,0,3.33-1.23,12.08,12.08,0,0,1,2.81-1.05,2.76,2.76,0,0,0,1.31,1c.32.1.58.52.81.84.36.5.68,1,1,1.55a15.08,15.08,0,0,0,.64,1.54c.46.85,1,1.65,1.46,2.49a3,3,0,0,1,.37,1.13c.05.47-.3.65-.74.46a.76.76,0,0,1-.19-.12c-.87-.65-1.76-1.27-2.59-1.95a5.48,5.48,0,0,1-1.61-3.26c-.17-.77-.23-1.57-.35-2.49a22.35,22.35,0,0,1-10.7,4.37l-.36-.45c-2.72.63-5.36,1.29-8,1.83s-5.35,1-8,1.46c.55.53,1.45.77,4.06,1.07.86.21,1.71.48,2.57.64s1.75.36,1.87,1.51l1.05-.15,2.29,2.76c1,1.17,1.25,2.69,1.93,4,0,.07-.05.21-.1.39a3,3,0,0,1-2.08-2.63c.22.28.43.56.63.85s.46.7.69,1.05l.2-.11a2.43,2.43,0,0,0-.17-.6c-.51-1-1-2-1.57-2.94a2.63,2.63,0,0,0-1.52-1.2l.29.66ZM145.2,96c-.1-.91-.63-.29-1-.38.24.69.64.5,1,.37.13.17.21.51.55.07Zm-14.13,42.76a6.89,6.89,0,0,0-2.34-.35l0,.23,2.17.33,3,.47A5.24,5.24,0,0,0,131.07,138.77Zm20-7.88c.67-.21,1.36-.38,2-.62.4-.15.95-.18,1-1l-3.39,1.57-1.8.63.86.31a5.61,5.61,0,0,1-1.07.53c-.48.13-1,0-1.46.38a7.74,7.74,0,0,1-1.37.72l.08.2c.63-.21,1.25-.41,1.87-.63a5.66,5.66,0,0,1,1.13-.45,4.54,4.54,0,0,0,2.3-1l1.32-.54-.07-.16Zm-27.54,4.37a4.78,4.78,0,0,0-2.65-.08,7,7,0,0,0-1.24.34c.77.68,1.36.9,2.14.42a6.76,6.76,0,0,1,1.35-.48l-.29.49,1.26-.37,0,.46c.26-.06.44-.11.62-.14a1.71,1.71,0,0,1,1.82.52c.35.42.71.18,1.17-.14-.21-.7-.42-1.39-.64-2.08s-.34-.72-1.12-.46l1.14.44c0,.3.05.61-.37.68s-1.09.21-1.64.32C124.51,134.66,124,135.26,123.49,135.26Zm32.11-2.53c.48,2.46,2.16,3.38,3.81,4.33l.19-.17-1-1.19c-.87.3-1-.51-1.39-.94S156.22,133.54,155.6,132.73Zm-33.37.48.52,0c.63,0,1.29-.16,1.84.49.25.3.65,0,.84-.51A3.57,3.57,0,0,0,122.23,133.21Zm1.2.48a6.16,6.16,0,0,0-2.88.09A2.64,2.64,0,0,0,123.43,133.69ZM150,97.15l-3.12.45,0,.23A3.13,3.13,0,0,0,150,97.15ZM148,95.45c-.84-.82-1.12-.79-2.19.14A3.45,3.45,0,0,0,148,95.45Zm9.18,19-.38,3.8A5.53,5.53,0,0,0,157.15,114.4Zm0,18.13-.24.11c.17.78.24,1.61,1.08,2.1Zm-7.6-36.2,0-.24c-.64.06-1.36-.49-2,.44ZM145,94.05l0,.33c.35.41.73.31,1.34-.18Zm-.3.7-.44-.75-.21,0,0,1.27Zm10.75,36-.27.06.24,1.35.16,0Zm-3.95-33.27c-.56-.32-.56-.32-.88.33ZM145.2,133c.72.21.89-.29,1.22-.5a2.3,2.3,0,0,0-.88.16C145.45,132.73,145.39,132.84,145.2,133ZM143.66,94l-.26-.09c-.06.28-.13.56-.18.85a1.52,1.52,0,0,0,.3.11Zm-18.44,42.49v-.26l-1.19.15,0,.16Zm-4.5-2c-.53-.27-.74-.16-.83.19,0,0,0,.12.11.23Zm3.08,2.91,0,.27.86-.24v-.07Zm32.63-4.87-.19.08.32.81.19-.07Zm-29,5.73-.09-.19-.35.14s.06.16.08.16Zm-2-1-.09.25.63.08,0-.17Z"/><path class="cls-2" d="M142.83,87.8c.8-.28,1.47-.9,2.4-.84a9.49,9.49,0,0,1,4.7,1.24A16.21,16.21,0,0,1,152.51,90a5.43,5.43,0,0,0,1.83.79c.58.21,1.18.39,1.87.63l1.14-1.34A8.41,8.41,0,0,0,159,86.88a9,9,0,0,1,1.09-2.19,1.85,1.85,0,0,1,.88-.63,5.3,5.3,0,0,1,1.15-.19c0,.24.15.49.07.65a23.44,23.44,0,0,1-1.81,3.21,5.56,5.56,0,0,0-1.15,2.35c0,.26,0,.68-.52.63-.13,0-.36.37-.43.61a1.29,1.29,0,0,1-1.23,1,5.85,5.85,0,0,1-2.09-.13,19.22,19.22,0,0,1-5.47-2.78,10,10,0,0,0-2.7-1,1.48,1.48,0,0,0-.74.16,7.45,7.45,0,0,1-1.6.47,2.82,2.82,0,0,0-2,.87l-.8.49-.77-.18c.28-.42,1.09-.22,1.17-1l-1.55.79-.34-.29.48-.4.62-.31Zm.47.85c1-.35,1-.35,1.06-1.05a1.44,1.44,0,0,0-1.25.72c-.41,0-.4.27-.54.68Zm16-1.44.24.13c.6-.71,1.2-1.42,1.78-2.13.16-.19.39-.4.1-.66s-.6-.08-.74.16C160.21,85.53,159.77,86.37,159.32,87.21Zm-2.38,4.35.22.17a3.41,3.41,0,0,0,1.24-1.83l-.19-.14Zm-10.62-4.18c.5.5.5.5,1.14.27Zm5.22,2.88.14-.18c-.23-.15-.47-.3-.71-.43,0,0-.07.07-.15.15ZM145.85,88c-.6-.09-.79.1-.76.61Z"/><path class="cls-2" d="M140.91,90.17l.77.18c.44.18.88.38,1.34.55a23,23,0,0,1,5.8,3.57,3.83,3.83,0,0,1-3-1.17,11.16,11.16,0,0,0-1.25-.92,26.24,26.24,0,0,0-7.11-2.53A47.23,47.23,0,0,0,124,89l-.1-.17.48-.47c.52,0,1-.11,1.56-.11a61.87,61.87,0,0,1,12.67,1l.65.23.92.12.34.29Z"/><path class="cls-2" d="M104.44,131.37l-1.1.47a.5.5,0,0,0,.66.41c.47-.12.91-.29,1.37-.43l0,.62-1.14.25c-.4-.06-.8-.1-1.19-.19-.81-.2-1.72.09-2.45-.51l.13-.35a9.85,9.85,0,0,0-1.69-.25c-.31,0-.61.3-.92.46a9.79,9.79,0,0,0,1.49.36,1.6,1.6,0,0,1,1.25.6c-.81.05-1.62.11-2.43.14a1.77,1.77,0,0,0-1.26.59c-1.08,1.1-2.22,2.15-3.33,3.23l.11-.91a9.43,9.43,0,0,0,2.44-2.44,1.8,1.8,0,0,0-1.27.93c-.12.21-.28.36-.51.1L96,133.14c.57-.56,1.15-1.11,1.7-1.69a1.91,1.91,0,0,1,1.73-.53A24.77,24.77,0,0,0,104.44,131.37Z"/><path class="cls-2" d="M119.9,88.61l-1.82,1a2,2,0,0,0-1.65.3c-.28.17-.53.57-1,.25h0c1.1-.68,2.2-1.38,3.31-2s2-1.22,3-1.82l.9-.26c.31.29.62.22,1,.08a4.27,4.27,0,0,1,1-.17,2.64,2.64,0,0,1-.39.48c-.72.49-1.46,1-2.19,1.43C121.2,87.49,120.61,88.21,119.9,88.61Zm1.94-1.77.08.23c.22-.13.68.13.62-.6Z"/><path class="cls-2" d="M94,135.86l-.11.91-1,1.1-.37-.81a5.71,5.71,0,0,1,.49-.69,3.26,3.26,0,0,0,1-1.88l.59-1.22.15.15-.29.81A5.09,5.09,0,0,1,94,135.86Z"/><path class="cls-2" d="M100.9,132.81a1.6,1.6,0,0,0-1.25-.6,9.79,9.79,0,0,1-1.49-.36l2.48.14c.73.6,1.64.31,2.45.51.39.09.79.13,1.19.19A9,9,0,0,1,100.9,132.81Z"/><path class="cls-2" d="M115.92,135.54l-.93,0-.48-.17c.18-.46-.27-.46-.47-.65,0-.1.1-.26.06-.29-.24-.21-.51-.4-.77-.59l0,0,3.18,1.23-.23.21Z"/><path class="cls-2" d="M94.55,133.27a1.84,1.84,0,0,1,1.8-.76l-1.65.91Z"/><path class="cls-2" d="M137.61,142.49l.66.88c-.7.13-1-.27-1.15-.86Z"/><path class="cls-2" d="M69,55.06l.52.74c-.14.08-.3.25-.42.23a.49.49,0,0,1-.32-.35C68.77,55.54,68.9,55.37,69,55.06Z"/><path class="cls-2" d="M108.05,131.67c.67-.42.72.22,1,.56Z"/><path class="cls-2" d="M138.27,143.35l.86,1.11C138.51,144.34,138.43,143.81,138.27,143.35Z"/><path class="cls-2" d="M95.18,109.31,95.13,108c1.24.34,1.66.16,2.16-.91.31-.1.63-.21.95-.29.57-.14.56-.49.36-.92l.44-.22c.1.33-.16.85.48.87-.07.2-.13.4-.22.68.48-.11.59-.38.64-.8l-.41.11c0-.22.1-.44.16-.67a1.05,1.05,0,0,0,.89-.94c.47-.79.47-.79,1.11-.51.07.51-.7.89-.14,1.63l.56-1.86.76.74.59-1.46a.49.49,0,0,0,.67.33,2,2,0,0,1,.15.65,1.82,1.82,0,0,0,.86,1.8,5.19,5.19,0,0,0-1-2.61l-.25-.45c.24-.86,1-1,1.69-1.18l.47.61.53.27c.1.43.19.86.28,1.29a5.64,5.64,0,0,0-.12,1.21c.17,1.41.4,2.81.62,4.21a6.93,6.93,0,0,0,.22.87h-.48c0-.56,0-1.11-.07-1.67s-.14-1-.2-1.42l-.11-.85-.39-.05c.07.45.14.89.2,1.34l.12.68c.09.66.19,1.32.28,2,0,.22.06.5-.05.65a3.87,3.87,0,0,0-.26,2.57c0,1.49,0,3,0,4.46l-.28,0v-1.5a4.57,4.57,0,0,0-.13-2.9l0-.28a4.7,4.7,0,0,0-.11-3l-.32-1-.18,0c-.11-.48,0-1-.52-1.5.13,1,.24,1.8.35,2.64l0,1.17h-.11l-.18-1.1,0-.93h-.14v.71l-.2,0-.37,1.33-.15-1.23-.21-.8a1.51,1.51,0,0,0-.33,1.56c.07.37.23.73-.22,1l0-1h-.2l-.07,1.1-.39-.77c0-.7,0-1.39.09-2.29a4.88,4.88,0,0,0-.4,2.72l.27-.37-.12,1.34c-.24.92-.56,1.84-.71,2.78-.22,1.33-.32,2.67-.45,4a4.31,4.31,0,0,1-.88,2c.32-2.3,1.08-4.54.92-6.75l-.56,1.18c.09-1,.15-1.92.29-2.88a2.14,2.14,0,0,0-.54-2c.83-.68.83-.68.28-1.43l-.42,1.45c-.11.89-.24,1.77-.32,2.66-.1,1.26-.14,2.52-.25,3.78a2.8,2.8,0,0,1-.32.77l-.43,0v-1.35a1.81,1.81,0,0,0,.3-2l.15-1.78L99.32,112c.14-.67.12-.85-.28-2.1l-.05,1-.38.26L98.48,110a1.51,1.51,0,0,0-.51,1.52c0,1.38.38,2.77-.13,4.13l-.22-.32c0-.28,0-.57,0-.85h-.11l-.1.28-.21-.67.27-3.31c-.39-.57-.39-.57-1-.61l.28-1c-.14,0-.3,0-.32.09a5.16,5.16,0,0,0-.22,1.16c0,1.21.08,2.43.09,3.64,0,.15-.14.3-.22.45V114c0-.42-.07-.85-.1-1.28a7.37,7.37,0,0,0-.06-1.63C95.71,110.45,95.9,109.69,95.18,109.31Zm10.62-3.22c-.42-.37.22-1.07-.58-1.54.14.72.25,1.24.35,1.77l.12.74.15,0Zm-6,5.45c.18-.92.18-.92-.22-1.37Zm1.93-2.38h.11l-.06-1.37h-.11Zm1.54-.31.12,0,0-1-.12,0Zm-3.22-.32c-.23.61-.23.61,0,1.1Zm2.26-.08c.07,0,.09.09.12.09s.09,0,.09,0c0-.2,0-.41.07-.61h-.18Z"/><path class="cls-2" d="M107.48,128.72c0-.39,0-.78-.07-1.17.29-.59.57-1.18.84-1.75l-.52-.84a1.53,1.53,0,0,0,1.1-1.45l.57.54c.31-1.23.6-2.34.95-3.71l-.73.39.16-.84c.4.32.57,0,.6-.29a19.94,19.94,0,0,0,.26-3.68,54.85,54.85,0,0,0-1.18-8.65c-.19-.76-.31-1.54-.46-2.31-.09-.42-.28-.69-.77-.53l0-.28c.34,0,.47-.17.39-.49a6.6,6.6,0,0,0-.2-.63c.18-.35.39-.57.91.11,0-1-.08-1.74-.11-2.44.2.18.44.21.39-.12s-.3-.51-.46-.77a1.58,1.58,0,0,1,1.74-.94l0,.45h0c-.58.1-.52.52-.45.94l.23.66.2,1.54c-.19-.39-.38-.79-.56-1.18.08,1.38.08,1.38,1,1.89l.21-.26c0,.75-.13,1.59.78,2l-.22.22h-.24c-.37.69,0,1.31.14,2-.07.25-.13.49-.2.73-.07.08-.21.17-.2.24.06.46.15.91.23,1.36l.09,2.24a13.27,13.27,0,0,0,0,1.89c.07.58-.5,1.18,0,1.8a6.8,6.8,0,0,0,.47-3.24,5.39,5.39,0,0,1,0-.9l.18,0,.06.64,0,.51c0,.39,0,.77,0,1.16l.84.17-.18.36-.6.14.06,1.44,3.09-.07-1.6.31-1.52.09-1.15-.1c0,.74.05,1.32.08,1.9l0,.46h-.12l-.1-.31c-.09.75-.59,1.43-.33,2.3l.65-1.11c0,.36-.35.74.07,1.16l.4-.72h0c.1.28,0,.7.51.68.35,0,.67,0,.65-.51h0l.64.56a8.22,8.22,0,0,0-1.25.15,2.76,2.76,0,0,0-.68.47h-.18c-.37-.49-.71-.47-1.2.07l-.15.47-1.19,3.64c-.15.71-1,1.12-1,2.06A4.53,4.53,0,0,0,110,125c.23-.46.45-.92.67-1.38l.25.46-.62,1.88v0l-1.54,2,1.64,1.51c-.71.09-.25.41-.14.67h0l-.88-.19a4.43,4.43,0,0,1-.78-.78,3.77,3.77,0,0,1-.31-1Zm3.57-16.57.11,2.64h.19l-.12-2.63-.12-.67-.21,0Zm-.38-6.85-.3.07a1.34,1.34,0,0,0,.58,1.34Zm-.34-2.06-.22,0,.2,1.52.27,0C110.5,104.25,110.42,103.75,110.33,103.24Zm.62,5.6c.28-.56.28-.56-.16-1.25C110.84,108,110.89,108.34,111,108.84Z"/><path class="cls-2" d="M110.7,100.91c-.07-.22-.15-.44-.23-.66l.45-.94h0c.52,0,1-.15,1-.77a3.1,3.1,0,0,1,.08-.42l.24-.48,1.67-2.74.43-.39c.19.21-.35.77.35.72A9.2,9.2,0,0,0,114,96c-.52.66-1,1.33-1.49,2-.09.12-.26.46.19.4l-.25.42c-.89.63-.62,1.63-.93,2.44l.21.07c.12-.37.23-.75.35-1.12l.25,0c-.2.61-.41,1.22-.62,1.83l-.22.91-.21.26c-.89-.51-.89-.51-1-1.89.18.39.37.79.56,1.18C111.23,101.7,111.19,101.4,110.7,100.91Z"/><path class="cls-2" d="M99.58,123c-1-1.57-2.54-2.39-4.41-3.23l1.06-.35,0-2.35.62.2c0,.32-.06.64-.1,1l0,1.44c1.06,1,2.58,1.5,3.31,2.88Z"/><path class="cls-2" d="M106.3,118.13l.28,0a.73.73,0,0,0,.62-.9c0-.3,0-.59-.07-.89l.42-.38.13,1.11c0,.51-.06,1-.12,1.53-.12,1-.27,2-.4,2.93a3.72,3.72,0,0,1,0,.74c0,.34-.24.29-.45.15l-.34-.18a7.09,7.09,0,0,0,.66-3.21l-.44.69-.4-.39-.28-.83.15-.56Z"/><path class="cls-2" d="M111.06,132.61l-.52-.87.21-.23.92.42c1,.15,1.4,1.1,2.29,1.54l-.58.37,0,0Z"/><path class="cls-2" d="M106.62,113.71a3.87,3.87,0,0,1,.26-2.57c.11-.15,0-.43.05-.65a.47.47,0,0,0,.17,0h.48l.29,2.29-.19.42c-.72,0-.27-.77-.67-1-.07.49-.14,1-.22,1.47Z"/><path class="cls-2" d="M110.5,130.88v-.5c.38.16.75.31,1.11,0l3.16.8-.64.41c-.87-.15-1.74-.3-2.62-.42-.15,0-.33.08-.5.13l-.26,0Z"/><path class="cls-2" d="M102.43,126a5.94,5.94,0,0,1,1.16-3.88l.2.29-1,3.17Z"/><path class="cls-2" d="M109.4,97.05c.09.33.23.56.18.74a2.45,2.45,0,0,1-.51.83c-.14.13-.43.1-.65.15a1.75,1.75,0,0,1,.11-.57C108.76,97.85,109,97.53,109.4,97.05Z"/><path class="cls-2" d="M106,116.21h-.19l-.2,0-.22-.42.11-.94.27,0a.74.74,0,0,1,.21,0,.39.39,0,0,1,.15-.06C106.09,115.25,106,115.73,106,116.21Z"/><path class="cls-2" d="M97.73,116.8l.35-.55.11.07v.9h0l-.59,1.59,0,0-.45,0,0-1.35h.15l.3.08Z"/><path class="cls-2" d="M112.12,96.12l-.52.47c-.1-.15-.31-.33-.28-.46.07-.36.29-.49.94-.73C112.61,95.72,112.26,95.9,112.12,96.12Z"/><path class="cls-2" d="M111.6,130.34c-.36.35-.73.2-1.11,0l-.25-.19c-.11-.26-.57-.58.14-.67Z"/><path class="cls-2" d="M116.24,92.85l-.64.41-.41-.26c.28-.44.54-.81,1.21-.68Z"/><path class="cls-2" d="M106,116.21c0-.48.09-1,.13-1.43s0-.7,0-1a4.57,4.57,0,0,1,.13,2.9.57.57,0,0,1-.18,0Z"/><path class="cls-2" d="M112,98.13a3.1,3.1,0,0,0-.08.42c-.08.62-.51.75-1,.77l0-.45Z"/><path class="cls-2" d="M115.49,91.85c.44-.3.72-.86,1.56-.93a3.27,3.27,0,0,1-1.44,1Z"/><path class="cls-2" d="M109.91,116.91c0-.89-.07-1.79-.11-2.68a.68.68,0,0,0,.2,0c0,.9,0,1.8.07,2.69Z"/><path class="cls-2" d="M98.71,97.84l-.49.41c-.14-.16-.61-.14-.34-.51S98.45,97.66,98.71,97.84Z"/><path class="cls-2" d="M97.1,111l-.24,2.23A2.06,2.06,0,0,1,97.1,111Z"/><path class="cls-2" d="M105.65,117.78c-.13.6-.25,1.21-.37,1.82h0l.38-1.83Z"/><path class="cls-2" d="M110.5,130.88l.24.4v.23l-.21.23c-.11-.13-.23-.26-.33-.4C109.9,130.93,110.17,130.89,110.5,130.88Z"/><path class="cls-2" d="M109.13,99.81c.16.26.42.5.46.77s-.19.3-.39.12C109.18,100.4,109.15,100.11,109.13,99.81Z"/><path class="cls-2" d="M115.61,92l-.83.74-.19-.23.9-.63Z"/><path class="cls-2" d="M106.63,119.76l-.17.93v-.23c-.07-.37-.14-.73-.22-1.09Z"/><path class="cls-2" d="M88.83,104.78l-.44-.43.13-.13.44.43Z"/><path class="cls-2" d="M91.11,113.79l.08-.47c.06,0,.18.06.18.08s-.05.28-.08.43Z"/><path class="cls-2" d="M109.08,130.05l.3-.06.88.19c-.17.07-.35.23-.5.21A2.88,2.88,0,0,1,109.08,130.05Z"/><path class="cls-2" d="M105.61,116.22l.2,0-.16,1.58h0l-.08-.24Z"/><path class="cls-2" d="M100.58,105a1.05,1.05,0,0,1-.89.94Z"/><path class="cls-2" d="M94.55,117.33l.06.28-.27.73-.19-.07Z"/><path class="cls-2" d="M117.63,91.62l-.45.21a.71.71,0,0,1-.08-.15l.43-.26Z"/><path class="cls-2" d="M97.37,114.76l.1-.28h.11c0,.28,0,.57,0,.85C97.54,115.13,97.45,115,97.37,114.76Z"/><path class="cls-2" d="M153.62,113.19c-1.2.25-2.4.51-3.61.74s-2.64.54-4,.69c-3.45.4-6.9.83-10.36,1.06s-7,.22-10.52.32l3-.35c3.49-.22,7-.41,10.48-.68,1.7-.13,3.39-.42,5.09-.63l4-.52a26.16,26.16,0,0,0,6.57-1.7,2.14,2.14,0,0,1,.44-.08C154.73,112.8,154.1,112.92,153.62,113.19Z"/><path class="cls-2" d="M146,98.64l-3.87-1.24.06-.27c.35.08.7.19,1.06.26s.89.39,1.34,0l1,.09Z"/><path class="cls-2" d="M156.78,104.75c.1.16.26.3.29.47.15.85.28,1.69.36,2.54a2.05,2.05,0,0,1-.2.73c-.18-.21-.36-.41-.55-.61l-.09,0-.23-.94.56-.14c-.07-.39-.15-.77-.22-1.15l0-.93Z"/><path class="cls-2" d="M151.25,131.52c-.58-.32-1,.3-1.48.3l-.86-.31,1.8-.63H151l1.47-.07.07.16Z"/><path class="cls-2" d="M155.81,117.37a11.45,11.45,0,0,1-1.83,4.38c.18-.56.34-1.13.53-1.69.34-1,.7-2,1.05-2.92Z"/><path class="cls-2" d="M153.59,122.87c-.15.58-.31,1.17-.43,1.76-.07.32-.52.59-.13,1a2.91,2.91,0,0,1-.47.57c-.07.06-.27,0-.41-.08a1.22,1.22,0,0,0,.07-.17C152.68,124.89,153.14,123.88,153.59,122.87Z"/><path class="cls-2" d="M156.68,107.88c.19.2.37.4.55.61-.11.33-.23.66-.35,1C156.4,109,156.75,108.41,156.68,107.88Z"/><path class="cls-2" d="M155.91,104.32l.94,0,.47,0-.54.45h-.07l-.8-.2Z"/><path class="cls-2" d="M156.45,116.91a.34.34,0,0,1-.14,0l.07-.81.27,0Z"/><path class="cls-2" d="M153,115.48l.5-.9.34-.06Z"/><path class="cls-2" d="M145.2,96l.55.06c-.34.44-.42.1-.55-.07Z"/><path class="cls-2" d="M143.11,88.32a1.44,1.44,0,0,1,1.25-.72c0,.7,0,.7-1.06,1.05Z"/><path class="cls-2" d="M151.54,90.26l-.72-.46c.08-.08.14-.16.15-.15.24.13.48.28.71.43Z"/><path class="cls-2" d="M143.11,88.32l.19.33-.73.35C142.71,88.59,142.7,88.3,143.11,88.32Z"/><path class="cls-2" d="M121.84,86.84l.7-.37c.06.73-.4.47-.62.6Z"/><path class="cls-2" d="M103.43,117.88l-.24-.41c-.36-.33-.26.21-.43.22l-.28-.22h-.18c.14-1.51.28-3,.43-4.53l.5,1.68c.06-.86.12-1.63.17-2.39.45-.24.29-.6.22-1a1.51,1.51,0,0,1,.33-1.56c.1.35.16.57.21.8l-.24,2.66c-.11,1.56-.21,3.13-.31,4.7Z"/><path class="cls-2" d="M98.08,116.25l.59-3.57a1.1,1.1,0,0,0-.07-1.36.5.5,0,0,1,0-.21l.38-.26.33,1.13.27,1.36a2.09,2.09,0,0,0-.41,2l.26-.21a1.81,1.81,0,0,1-.3,2l-.25-.45c-.64,1-.58,2.19-1.25,3.14-.41-.43-.23-.74,0-1l0,0a2.08,2.08,0,0,0,.59-1.59h0l.47-1.18-.47.28Z"/><path class="cls-2" d="M104.31,111.74l.37-1.33.33,2.43,0,1-.15,2-.39.5-.09-.27-.22-1.72Z"/><path class="cls-2" d="M95.09,107.9l0-.7,2.38-.91c.38-.14.77-.25,1.16-.37.2.43.21.78-.36.92-.32.08-.64.19-.95.29Z"/><path class="cls-2" d="M103.4,112.24c-.05.76-.11,1.53-.17,2.39l-.5-1.68-.19,0,.12-1.34,0-.07.39.78.07-1.1h.2Z"/><path class="cls-2" d="M106.17,113.73c0,.35,0,.7,0,1a.39.39,0,0,0-.15.06l-.18-3.35c0-.68-.06-1.36-.08-2l.32,1c0,1,.07,2,.11,3Z"/><path class="cls-2" d="M104.13,103.82a.29.29,0,0,1,0-.16,5.19,5.19,0,0,1,1,2.61,1.82,1.82,0,0,1-.86-1.8A2,2,0,0,0,104.13,103.82Z"/><path class="cls-2" d="M102.66,111.65l-.27.37a4.88,4.88,0,0,1,.4-2.72c0,.9-.06,1.59-.09,2.29Z"/><path class="cls-2" d="M105.39,112.82l-.15-1.1h.34l.19,3.11-.27,0c0-.22,0-.44,0-.67Z"/><path class="cls-2" d="M106.15,113.45c0-1-.07-2-.11-3A4.7,4.7,0,0,1,106.15,113.45Z"/><path class="cls-2" d="M99.58,118.49a.7.7,0,0,1-.06.19,10.38,10.38,0,0,1-.59,1c-.09.12-.31.14-.69.31l.91-1.5Z"/><path class="cls-2" d="M105.57,106.32c-.1-.53-.21-1-.35-1.77.8.47.16,1.17.58,1.54Z"/><path class="cls-2" d="M99.32,112,99,110.85c0-.29,0-.58.05-1C99.44,111.13,99.46,111.31,99.32,112Z"/><path class="cls-2" d="M99.79,111.54l-.22-1.37C100,110.62,100,110.62,99.79,111.54Z"/><path class="cls-2" d="M99.53,106.56l.41-.11c0,.42-.16.69-.64.8.09-.28.15-.48.22-.68Z"/><path class="cls-2" d="M103.26,108.85l0-1,.12,0,0,1Z"/><path class="cls-2" d="M106.72,106.54c-.44.38-.14.86-.19,1.29-.06-.45-.13-.89-.2-1.34Z"/><path class="cls-2" d="M102.3,108.45l.1-.56h.18c0,.2,0,.41-.07.61,0,0-.06,0-.09,0S102.37,108.5,102.3,108.45Z"/><path class="cls-2" d="M105.06,110.62l-.18-.23v-.71H105Z"/><path class="cls-2" d="M106.84,108.5c0-.37,0-.74,0-1.11.06.47.13.94.2,1.42C107,108.7,106.9,108.6,106.84,108.5Z"/><path class="cls-2" d="M120.5,118c.22.34.45.67.67,1a1.27,1.27,0,0,1,.12,1.44l-.2.67a3.7,3.7,0,0,0-.29.47,1.51,1.51,0,0,1-1.62.82c-1.58,0-3-.61-4.57-.79l.65-.37a.21.21,0,0,0,.1,0,.12.12,0,0,0,.07,0c.14-.73-.52-.7-.9-.94s-.49-.95-1.16-.63h0l-.82-.62-.34.45h0l-.25-.44c-.25-.25-.62-.43-.44-.88h.12l.31.37a1.32,1.32,0,0,0,.28-.4c0-.12,0-.28-.08-.42l.56-1,.83-.47.71-.44,1.6-.31,2,.18c-.39.28-1,.05-1.43.67l1.32,0A4,4,0,0,1,120.5,118Zm-7.24-.29a1.28,1.28,0,0,0-.23.14s0,.11.06.17l.25-.09Z"/><path class="cls-2" d="M112.37,111.2l-.07-.65-.11,0c-.1.37-.19.75-.29,1.12l-.09-2.24c.4-.54.07-1.07,0-1.6.07-.24.13-.48.2-.73l.66.06a4.58,4.58,0,0,0-.25,2.39c.06.55.1,1.1.16,1.65Z"/><path class="cls-2" d="M111.74,102a2.84,2.84,0,0,0,.44,2.07l.43-1.17h.2a4.88,4.88,0,0,1,0,.76,7.36,7.36,0,0,1-.25,1.13c0,.06-.19.08-.29.11-.91-.41-.74-1.25-.78-2C111.59,102.6,111.66,102.29,111.74,102Z"/><path class="cls-2" d="M112.76,116.75l-.56,1,0-.29-.08-.82h-.18l0,.86-.23.23-.08-1.9,1.15.1Z"/><path class="cls-2" d="M110.64,123.64c.27-.68.53-1.36.79-2,.15-.24.31-.48.47-.72h.18c0,.29,0,.58,0,.87-.22.37-.47.73-.66,1.12s-.33.82-.49,1.24Z"/><path class="cls-2" d="M110.33,103.24c.09.51.17,1,.25,1.51l-.27,0-.2-1.52Z"/><path class="cls-2" d="M112.08,105.12c0,.47,0,1,.7.82l-.18.52c-.36.16-.58,0-.66-.35a7.74,7.74,0,0,1-.1-1Z"/><path class="cls-2" d="M113.53,113.66l1,.13a1.35,1.35,0,0,1-1.14.23Z"/><path class="cls-2" d="M113.27,112.32h-.63l0-.51,1.08.23Z"/><path class="cls-2" d="M111.23,112.15h-.18l-.15-.63.21,0Z"/><path class="cls-2" d="M110.7,120.94c.19.28.82.06.74.65l-.89-.18Z"/><path class="cls-2" d="M110.92,99.31l-.45.94C110.4,99.83,110.34,99.41,110.92,99.31Z"/><path class="cls-2" d="M102.3,117.48h.18c0,.37,0,.74,0,1.11a1.24,1.24,0,0,0-.17,1.32l.15-1.33a.52.52,0,0,0,.21,0l.25.26a17.37,17.37,0,0,1-1.12,4.88c-.8-.94-.78-.68-.47-2S102,118.9,102.3,117.48Z"/><path class="cls-2" d="M103.43,117.88h.18l.28.67h0a7.49,7.49,0,0,0,0,2.87l-.28.06-.3-.44Z"/><path class="cls-2" d="M99.88,118.73c.53.22.35-.38.57-.51h.22l-.58,2.45C99.58,120,100,119.36,99.88,118.73Z"/><path class="cls-2" d="M100.67,118.22h-.22l.41-1.8a5.28,5.28,0,0,1,.07,1A3.79,3.79,0,0,1,100.67,118.22Z"/><path class="cls-2" d="M103,118.79l-.25-.26,0-.84c.17,0,.07-.55.43-.22C103.11,117.91,103,118.35,103,118.79Z"/><path class="cls-2" d="M112.73,98.38l1-.31c-.28.56-.53,1.14-.83,1.68-.1.18-.33.28-.5.41l-.25,0c.2-.45.59-.84.37-1.39Z"/><path class="cls-2" d="M107.13,116.38c-.11-.89-.22-1.79-.34-2.68.08-.49.15-1,.22-1.47.4.2-.05,1,.67,1l.15,3.8a.42.42,0,0,0-.15.11c0-.33-.08-.65-.13-1.11Z"/><path class="cls-2" d="M98.61,111.32l-.17,1.37A1.43,1.43,0,0,1,98.61,111.32Z"/><path class="cls-2" d="M111,131.26l.67.67-.92-.42v-.23Z"/><path class="cls-2" d="M103.57,121.47l.28-.06a19,19,0,0,0,.6-5.15l.07,0,.39-.5c0,1,0,2-.07,3H105c.17-.4.33-.79.49-1.19l.14,0,.08.24c-.13.61-.25,1.22-.38,1.83s-.4,1.24-.61,1.87-.39,1.19-.59,1.78c-.1-.27-.19-.54-.29-.82-.06-.1-.13-.19-.2-.29Z"/><path class="cls-2" d="M126.4,91.91c.16.51.33,1,.49,1.52l0,.23c-.28.24-.25.47,0,.7l-.13.68a4.8,4.8,0,0,1-3.43.39,4.93,4.93,0,0,0-1.09-.13L121,94.87a3.58,3.58,0,0,1-.83-.7,7,7,0,0,1-.56-1.28v-.46l1.61-1.25-.56-.16a1.62,1.62,0,0,1,0-.22l4.62-.71.28.22c-.33.13-.55.32-.22.65s.46.36.69.55Zm-5.34,1.68c-.16-1.13-.3-1.22-1.06-.67Zm2.75.8v.3c.49.09,1,.33,1.47,0v-.27Zm1.36-1.72-.11.19a1.24,1.24,0,0,0,.34.22,1.8,1.8,0,0,0,.4,0l0-.18Zm-2.46-1.35c0,.08.08.19.1.19a1.57,1.57,0,0,0,.29-.08c0-.08-.08-.22-.12-.22A.77.77,0,0,0,122.71,91.32Z"/><path class="cls-2" d="M119.62,92.89l-1.32.25c.21-.67.86-.52,1.33-.71Z"/><path class="cls-2" d="M114.76,131.14l2.48.1a3.3,3.3,0,0,1-3.12.31Z"/><path class="cls-2" d="M104.09,123.24l.07.25c-.22.5-.45,1-.68,1.49Z"/><path class="cls-2" d="M116.37,93.89l-1.13,1L115,95C115.14,94.23,115.75,94.05,116.37,93.89Z"/><path class="cls-2" d="M123.32,89.28c.2.36,0,.44-.32.51l-3.24.8v-.41l2.58-.71C122.66,89.39,123,89.34,123.32,89.28Z"/><path class="cls-2" d="M105.44,117.57c0-.59,0-1.18,0-1.77l.22.42,0,1.32Z"/><path class="cls-2" d="M98.19,116.32l.47-.28-.47,1.18Z"/><path class="cls-2" d="M131.32,103.78a4.9,4.9,0,0,1,.55-2.43l.47-.51a3.48,3.48,0,0,1,2.34-.81c.31,0,.68-.33,1-.51l1.22,1.31a1.4,1.4,0,0,0,1.36.65l2.08,3.1-.06,1.12c-.29.82-.59,1.65-.88,2.48l-.21.45-.62.3-1.13.46c-.7.06-1.39.14-2.08.19a1.22,1.22,0,0,1-.53-.13c-.59-.28-1.05-.8-1.8-.78-.21,0-.48-.43-.63-.71s-.22-.78-.42-1.12a6.11,6.11,0,0,1-.62-2.78Zm2.81,1.06c.14-.39.83-.52.53-1.19l-.61.56c-.38.18-.47.46-.25.89Zm-1.47.65c-.17-.69-.32-1.13-.38-1.58a13.88,13.88,0,0,1-.07-1.44H132c0,.88.07,1.75.13,2.62C132.1,105.19,132.3,105.26,132.66,105.49Zm2.43,3.52.16-.23a1.16,1.16,0,0,0-1.47-.55Zm.67-8.07a3.07,3.07,0,0,0-.43-.27,7,7,0,0,0-.61.82,3,3,0,0,0,.36.31Zm3.65,5.31c-.91.07-.95.18-.59,1.26C139,107.07,139.18,106.73,139.41,106.25Zm-3.58-1.15-.3-.2-.69,1.08.21.13Zm-3.53.85a1,1,0,0,0,.7.91C133,106.39,132.92,106,132.3,106Zm5.35-1.18-.24-.2-.51.69.18.15Zm-1.58,3.59-.15.24.53.21.08-.16Zm1.32-5.75-.22-.16-.31.51.18.12Zm-.23,3.34.19.18.32-.43-.12-.11Zm-1.4-1.5c.15.1.26.21.31.19a.39.39,0,0,0,.2-.25c0-.06-.1-.15-.16-.23Z"/><path class="cls-2" d="M150,102l0,.52-.94-.18a5.68,5.68,0,0,0-2.72-1l-.44-.23h0a1.09,1.09,0,0,0,0-.18l3.12.79C149.34,101.84,149.65,102,150,102Z"/><path class="cls-2" d="M119.77,95.85l-.48-.12,1.72-.86,1.22.43c-.31.49-.82.4-1.28.43Z"/><path class="cls-2" d="M115.24,95.1a.37.37,0,0,1,.28.57c-.14.33-.3.66-.47,1l.49.39a1,1,0,0,0-1.12.52c-.1.2-.4.3-.61.45,0-.14,0-.35,0-.42C114.6,97,114.66,95.88,115.24,95.1Z"/><path class="cls-2" d="M123.47,115.9c-.13.07-.25.2-.37.2-1.41,0-2.82,0-4.24,0l.77-.25,4.82-.17Z"/><path class="cls-2" d="M135.61,92.34a5.4,5.4,0,0,1,3.46.54l-3.66-.29Z"/><path class="cls-2" d="M119.63,115.8l-.77.25-1,.28-1.32,0c.4-.62,1-.39,1.43-.67Z"/><path class="cls-2" d="M123.47,115.9l1-.27,3.68,0-3,.35Z"/><path class="cls-2" d="M125.59,90.31l-.28-.22c.66-.33,1.28-.79,2.09-.49A3.19,3.19,0,0,1,125.59,90.31Z"/><path class="cls-2" d="M135.06,95.33a6.34,6.34,0,0,1,3.36.76.58.58,0,0,0-.21.07l-3.43-.79Z"/><path class="cls-2" d="M142.36,101.55a7.2,7.2,0,0,1-3.43-.53A8.18,8.18,0,0,1,142.36,101.55Z"/><path class="cls-2" d="M152.62,105.82l1.6.38s0,.11,0,.11a8.29,8.29,0,0,1-2.24-.21Z"/><path class="cls-2" d="M135.06,95.33l-.28,0-1.91-.26,0-.22A4,4,0,0,1,135.06,95.33Z"/><path class="cls-2" d="M154.21,106.21c.06-.12.12-.35.15-.34.47.06.93.16,1.39.25-.22,0-.54,0-.63.13C154.77,106.72,154.51,106.34,154.21,106.21Z"/><path class="cls-2" d="M148.81,106.66l1.58-.35.73,0C150.4,106.83,149.58,106.59,148.81,106.66Z"/><path class="cls-2" d="M112.94,110.76l1.55.15C114,111.05,113.43,111.38,112.94,110.76Z"/><path class="cls-2" d="M138.6,101.06l-.33.42a1.4,1.4,0,0,1-1.36-.65Z"/><path class="cls-2" d="M129.13,104.15c0-.07,0-.14,0-.22l2.18-.15.05.28Z"/><path class="cls-2" d="M129.65,94.87l0-.41,1.46.2C130.51,95,130.06,94.82,129.65,94.87Z"/><path class="cls-2" d="M141.78,93.62l-.92-.32.07-.21.92.34Z"/><path class="cls-2" d="M147.26,106.78l1.58-.12-1.55.26Z"/><path class="cls-2" d="M149.44,105.9l-1.08-.15a2.07,2.07,0,0,0,0-.22l1.14,0Z"/><path class="cls-2" d="M134.1,130,133,128.69l-.56-.83c-.82-.94-.49-1.8.15-2.65l.42-.49h0a5,5,0,0,1,3.89-1.12.2.2,0,0,0,.11,0,3.11,3.11,0,0,1,2.86.81l.3.43.34.65-.47,1.59-.15.25-1.62,1.88-.79.9A4.18,4.18,0,0,1,134.1,130Zm4-5.83c-1.67-.31-2-.13-2,1.18C136.75,125.05,137.75,125.32,138.08,124.2Zm1.41,2.67c-.31.1-.48.12-.49.17a1.8,1.8,0,0,1-1.14,1.27,1.42,1.42,0,0,0-.77,1.33A6.5,6.5,0,0,0,139.49,126.87Zm-6-1.46a1.36,1.36,0,0,0-1,1.17.9.9,0,0,0,.42.69c.29.14.73.33.93-.31l-.82-.49Zm1.48,3.14,1.12.63C136.05,128.32,135.67,128.4,135,128.55Zm-.44.24-.19.28.88.53.14-.23Zm4.91-2.86.38-.1-.27-.77-.3.09Zm-5.08-1.24.08.21.58-.23-.1-.23Zm.45,2.85-.2.1a1,1,0,0,0,.19.22s.11,0,.16-.07Z"/><path class="cls-2" d="M148,120.21l3.14-2.64A7,7,0,0,1,148,120.21Z"/><path class="cls-2" d="M151.93,116.89a1,1,0,0,0,0-.17l-.62-.45a2.18,2.18,0,0,0,1.73-.8A1.46,1.46,0,0,1,151.93,116.89Z"/><path class="cls-2" d="M140.5,127.49l-.63-.16.15-.25,1-.28.07.14Z"/><path class="cls-2" d="M141.34,125l0-.41.87-.31.45.24Z"/><path class="cls-2" d="M154,121.72l-.41,1.17Z"/><path class="cls-2" d="M134.25,118.08c-.11.38-.81.37-.65.94-.55,0-1.1.06-1.64,0s-.87-.06-1.31-.1l.24-.27.45-.22Z"/><path class="cls-2" d="M148.18,117.3l-.25-.25,3.39-.78.62.45c-.86.12-1.72.22-2.58.35C149,117.13,148.58,117.22,148.18,117.3Z"/><path class="cls-2" d="M118,133.18l-2.34-.23,0-.24,2.35.18Z"/><path class="cls-2" d="M152.77,103.76l.66,0c.35.19.71.36,1,.58.16.1.25.3.38.45-.28-.07-.55-.14-.82-.23s-.69-.23-1-.36l-.63-.23Z"/><path class="cls-2" d="M156,103.18l-.3.61-.49-.9v-.82Z"/><path class="cls-2" d="M155.18,102.07v.82l-1-1.36C154.79,101.43,154.92,101.85,155.18,102.07Z"/><path class="cls-2" d="M103.89,118.54c.06-.78.11-1.56.2-2.33,0-.08.22-.14.34-.2l.09.27-.07,0-.18.72c-.13.52-.27,1-.4,1.56Z"/><path class="cls-2" d="M110.27,126c.06,0,.15-.14.17-.13.67.36,1.39.13,2.08.2.5.81-.59.48-.68.83l.51.49.49.48,0,.77-.85-.22c-1-.31-1.09-.31-1-1.41,0-.57-.46-.69-.7-1Z"/><path class="cls-2" d="M115.84,124.08v.22l-2.25-.37C114.38,123.58,115.1,124,115.84,124.08Z"/><path class="cls-2" d="M113.57,128h2.31v.13l-2.56.11Z"/><path class="cls-2" d="M141.1,120.53c.08-.15.15-.31.23-.46l1.95-.6.07.08Z"/><path class="cls-2" d="M113.57,128l-.25.24.71.52-.06.15-1.1-.27,0-.77Z"/><path class="cls-2" d="M125.06,118.76l1.53-.07v.12l-1.49.06Z"/><path class="cls-2" d="M121.09,121.14l.2-.67,1,.61Z"/><path class="cls-2" d="M144.39,118.76l.46.22-1.5.57-.07-.08Z"/><path class="cls-2" d="M130.89,118.7l-.24.27h-1.16v-.21Z"/><path class="cls-2" d="M113.26,117.74l.08.22-.25.09c0-.06-.08-.15-.06-.17A1.28,1.28,0,0,1,113.26,117.74Z"/><path class="cls-2" d="M112.16,117.45l-.22,0,0-.86h.18Z"/><path class="cls-2" d="M125.17,92.67l.65.22,0,.18a1.8,1.8,0,0,1-.4,0,1.24,1.24,0,0,1-.34-.22Z"/><path class="cls-2" d="M139.41,106.25c-.23.48-.39.82-.59,1.26C138.46,106.43,138.5,106.32,139.41,106.25Z"/><path class="cls-2" d="M134.05,104.21l.61-.56c.3.67-.39.8-.53,1.19Z"/><path class="cls-2" d="M136.07,108.36l.46.29-.08.16-.53-.21Z"/><path class="cls-2" d="M137.16,106l.39-.36.12.11-.32.43Z"/><path class="cls-2" d="M152.36,104c-1.22-.27-2.44-.54-3.66-.79-.66-.13-1.33-.26-1.81.41l-1.1-.08,1.3-.68-.93-.45,0-.14,2.22.34c.72.24,1.44.52,2.17.71a12.83,12.83,0,0,0,1.39.14,4.74,4.74,0,0,1,.79.3Z"/><path class="cls-2" d="M134.36,124.69l.56-.25.1.23-.58.23Z"/><path class="cls-2" d="M134.81,127.54l.15.25c-.05,0-.14.09-.16.07a1,1,0,0,1-.19-.22Z"/></g></g></svg>