<svg xmlns="http://www.w3.org/2000/svg" viewBox="0 0 1372.2 384.77"><defs><style>.cls-1{fill:#fff;}.cls-2{fill:#12284c;}.cls-3{font-size:17px;font-family:Montserrat-SemiBold, Montserrat;font-weight:700;}.cls-13,.cls-3{fill:#1d1d1b;}.cls-10,.cls-11,.cls-12,.cls-4,.cls-7,.cls-8,.cls-9{fill:none;stroke:#1d1d1b;stroke-miterlimit:10;}.cls-4{stroke-width:0.75px;}.cls-5{font-size:4px;font-family:DINPro-Regular, DINPro Regular;letter-spacing:0em;}.cls-6{fill:#e6e6e6;}.cls-10,.cls-11,.cls-12,.cls-7,.cls-8,.cls-9{stroke-linecap:round;stroke-width:0.5px;}.cls-8{stroke-dasharray:2 2;}.cls-9{stroke-dasharray:1.98 1.98;}.cls-10{stroke-dasharray:2 2;}.cls-11{stroke-dasharray:2 2;}.cls-12{stroke-dasharray:1.99 1.99;}</style></defs><title>Fichier 1</title><g id="Calque_2" data-name="Calque 2"><g id="Calque_1-2" data-name="Calque 1"><rect class="cls-1" width="1372.2" height="384.77"/><rect class="cls-2" x="615.55" y="166.02" width="73.5" height="73.5" rx="4.84" ry="4.84"/><text class="cls-3" transform="translate(615.55 262.57)">Pantone Solid Coated <tspan x="0" y="27">2767C</tspan></text><rect class="cls-2" x="322.9" y="257.02" width="15.88" height="1.62"/><rect class="cls-2" x="145.73" y="257.02" width="15.88" height="1.62"/><path class="cls-2" d="M175.71,250.11h8a5.77,5.77,0,0,1,3.57,1,4.15,4.15,0,0,1,.73,5.22,3.94,3.94,0,0,1-1.75,1.38v0a3.6,3.6,0,0,1,2.31,1.45,4.75,4.75,0,0,1,.79,2.81,4.58,4.58,0,0,1-.35,1.82,3.67,3.67,0,0,1-1.08,1.46,5.57,5.57,0,0,1-1.9,1,9.33,9.33,0,0,1-2.76.36h-7.59ZM178.6,257h4.73a2.54,2.54,0,0,0,1.73-.59,2.08,2.08,0,0,0,.7-1.7,2.15,2.15,0,0,0-.63-1.76,2.78,2.78,0,0,0-1.8-.51H178.6Zm0,7.25h5.12a2.91,2.91,0,0,0,2.05-.68,2.56,2.56,0,0,0,.73-1.94,2.43,2.43,0,0,0-.73-1.88,3,3,0,0,0-2.05-.66H178.6Z"/><path class="cls-2" d="M204.64,249.72a7.73,7.73,0,0,1,3.32.69,7.52,7.52,0,0,1,2.49,1.88A8.27,8.27,0,0,1,212,255a10.45,10.45,0,0,1,0,6.69,8.32,8.32,0,0,1-1.56,2.76,7.21,7.21,0,0,1-2.49,1.86,8.33,8.33,0,0,1-6.64,0,7.21,7.21,0,0,1-2.49-1.86,8.32,8.32,0,0,1-1.56-2.76,10.45,10.45,0,0,1,0-6.69,8.27,8.27,0,0,1,1.56-2.75,7.52,7.52,0,0,1,2.49-1.88A7.7,7.7,0,0,1,204.64,249.72Zm0,2.36a4.68,4.68,0,0,0-2.28.53A4.47,4.47,0,0,0,200.8,254a6.37,6.37,0,0,0-.89,2,9.39,9.39,0,0,0,0,4.63,6.43,6.43,0,0,0,.89,2,4.44,4.44,0,0,0,1.56,1.42,5.17,5.17,0,0,0,4.56,0,4.44,4.44,0,0,0,1.56-1.42,6.43,6.43,0,0,0,.89-2,9.39,9.39,0,0,0,0-4.63,6.37,6.37,0,0,0-.89-2,4.47,4.47,0,0,0-1.56-1.43A4.68,4.68,0,0,0,204.64,252.08Z"/><path class="cls-2" d="M220.68,250.11h3l7.55,12.18h0V250.11h2.76v16.53H231l-7.52-12.15h-.07v12.15h-2.75Z"/><path class="cls-2" d="M243.1,250.11H250a7.75,7.75,0,0,1,3.29.65,6.07,6.07,0,0,1,2.27,1.77,7.64,7.64,0,0,1,1.31,2.63,12.23,12.23,0,0,1,0,6.43,7.55,7.55,0,0,1-1.31,2.63,6.07,6.07,0,0,1-2.27,1.77,7.61,7.61,0,0,1-3.29.65H243.1ZM246,264.28h2.85a7.26,7.26,0,0,0,2.77-.45,4.05,4.05,0,0,0,1.69-1.25,4.53,4.53,0,0,0,.83-1.88,12.4,12.4,0,0,0,0-4.65,4.59,4.59,0,0,0-.83-1.88,4.14,4.14,0,0,0-1.69-1.25,7.26,7.26,0,0,0-2.77-.45H246Z"/><path class="cls-2" d="M265.41,250.11h2.89v16.53h-2.89Z"/><path class="cls-2" d="M277.44,250.11h11.9v2.5h-9v4.33h8.34v2.36h-8.34v4.84h9.17v2.5H277.44Z"/><path class="cls-2" d="M297.43,250.11h2.9v9.63a16.06,16.06,0,0,0,.08,1.69,3.85,3.85,0,0,0,.46,1.54,2.92,2.92,0,0,0,1.16,1.12,4.42,4.42,0,0,0,2.19.44,4.36,4.36,0,0,0,2.18-.44,2.85,2.85,0,0,0,1.16-1.12,3.86,3.86,0,0,0,.47-1.54c.05-.57.08-1.13.08-1.69v-9.63H311v10.58a7.16,7.16,0,0,1-.49,2.78,5.29,5.29,0,0,1-1.37,2,5.81,5.81,0,0,1-2.14,1.19,9.86,9.86,0,0,1-5.56,0,5.73,5.73,0,0,1-2.14-1.19,5.2,5.2,0,0,1-1.38-2,7.35,7.35,0,0,1-.49-2.78Z"/><path class="cls-2" d="M172.52,161.13c3.34-6,6.74-13.3,4.11-16.76-3-4-5.33-4.8-13.92-6.07s-14-1.68-14.9-2.25c-1.76-1.13-4.69-3.72-8.52-1.52s-3.8,5.84-4.28,7.6-8.69,22.91-11.09,34.26c-2.27,10.75-6.69,34.92-7.06,38s-1,6.38.9,10.29c2.08,4.23,3.92,8.82,7.78,11.45,2.58,1.77,4.43,2.62,9.39.75,9.25-3.49,15.29-6.36,22.91-15.47,6.85-8.2,11.61-16.58,12.44-25,.72-7.19-5.09-10-9.25-11.72s-8.21-3.46-8.21-3.46S168.11,169.07,172.52,161.13ZM155,194.74c.18,1-3.77,7.64-9.57,12.24s-13.89,11-17.31,10.53c-.66,0,2.2-20.1,5.18-23,1.77-1.17,13.22-1.22,15-1.11S154.78,193.73,155,194.74Zm2.53-42.21c-.44.89-4.71,4.86-7.49,7.16s-6.26,6-8.56,5.9c-1.18,0,2.69-12.54,3.9-13.66,1.6-1.49,8.12-.75,10.08-.73S157.94,151.64,157.49,152.53Z"/><path class="cls-2" d="M197.18,146c4-4.43,17.86-5.16,21.67-5.23s17.05.51,21.91.21c2.92-.18,5.66-.59,6.71-.21s2.83.76,2.09,3.39a24.08,24.08,0,0,1-13.82,14.87c-9.19,3.84-13.36,4.94-29.93,1-1.1,3.27-4.34,12.3-4.26,16.54,3.46,1.73,12.57,1.59,16.42,1.22s12.49-1.17,15.57-1.95,7.81,0,8.36,2.19,1.86,6.58-13.2,14c-13.4,6.58-18.08,6.46-30.15,5.49-1.5,3.11-4,13.08-3.4,17.67s4.78,7.3,7,7.52,14.49-2.93,19.34-4.54,10-4.06,10.28-2.57.32,5.25-10.47,13.89-13.39,9.46-19.56,8.7-17.24-10.86-21-20.95C176.93,207,165.06,181.54,197.18,146Z"/><path class="cls-2" d="M231.4,99.6c2.76-.88,23.95,11.68,26,16.09s-.85,5.84-1.64,6.15-5.79,2.44-12.74-.41-11.86-6.23-14-5.87-8.16,3.76-14.54,9.23-15.13,10.25-17,9.82-2.05-1.77-.92-3.26S218.66,103.68,231.4,99.6Z"/><path class="cls-2" d="M295.36,135.61c1-.56,4.23,3.48,5.53,4s12.55.84,18.14,1.85c7.09,1.29,13.32,2.92,15,4.52s2,3.05.88,4.05-10.46,5.64-20.61,7.12-11.45,1.87-11.65,3.15-2.46,17.89-4.78,26.26-5,19.26-8.6,27.69c-2,4.64-4.17,12.43-3.63,12.86,1.22-.46,4-2.19,5-.87s3.21,8.09-4.3,11.48-12.46-5.48-13.44-8.47-4.64-12.88-.91-29.14,9.08-36.69,9.72-38.92c-1.15,0-13.2,2.45-23.75-.91s-7.61-10.27-5.72-12.83,5.68-5.24,24-6.79C286.81,139.35,286.4,140.44,295.36,135.61Z"/><path class="cls-2" d="M363.76,136.35c-3.05-3.68-6.64-5.33-10.11-5s-5.11,1.66-6.3,3.84c-2.6,4.75-9.93,20.52-14.75,27.65-5,7.36-12.83,27.92-13.39,30.06s-.56,3.68-2.61,4.15-6.08,1.16-7.26,4-1.1,5.62.91,9.69c2.55,5.18-.19,11.63-.51,14.48-.26,2.29-.79,6.91.34,8.94a1.39,1.39,0,0,0,2.15.34c1-.94,2.92-3.26,5.55-9,5-10.84,8.49-10.46,12.94-11.66,4-1.09,8.36-2.06,8.36-2.06s1.09,13.46,2,17,2.45,9.28,7.69,8.8c4.85-.44,6.58-1,8-8.33s10.83-52,12.48-64.45C370.27,157.46,368.1,141.55,363.76,136.35ZM343,178.58c0,1.22-.79,14.66-2.63,15.89s-6.62-.59-6.82-1.67,3.39-13.87,9.26-23.27C343.79,168,343.07,177.36,343,178.58Z"/><rect class="cls-2" x="445.46" y="257.52" width="2.4" height="0.25"/><rect class="cls-2" x="418.66" y="257.52" width="2.4" height="0.25"/><path class="cls-2" d="M423.2,256.48h1.21a.87.87,0,0,1,.54.15.54.54,0,0,1,.21.47.58.58,0,0,1-.1.32.61.61,0,0,1-.26.21h0a.61.61,0,0,1,.35.22.75.75,0,0,1,.12.43.6.6,0,0,1-.06.27.44.44,0,0,1-.16.22.62.62,0,0,1-.29.15,1.22,1.22,0,0,1-.41.06H423.2Zm.44,1h.71a.37.37,0,0,0,.26-.09.37.37,0,0,0,0-.52.41.41,0,0,0-.27-.08h-.71Zm0,1.1h.77a.48.48,0,0,0,.31-.1.41.41,0,0,0,.11-.3.36.36,0,0,0-.11-.28.43.43,0,0,0-.31-.1h-.77Z"/><path class="cls-2" d="M427.57,256.42a1.19,1.19,0,0,1,.51.1,1.29,1.29,0,0,1,.37.28,1.24,1.24,0,0,1,.24.42,1.7,1.7,0,0,1,.08.51,1.64,1.64,0,0,1-.08.5,1.24,1.24,0,0,1-.24.42,1.13,1.13,0,0,1-.37.28,1.19,1.19,0,0,1-.51.11,1.18,1.18,0,0,1-.88-.39,1.22,1.22,0,0,1-.23-.42,1.38,1.38,0,0,1-.08-.5,1.44,1.44,0,0,1,.08-.51,1.22,1.22,0,0,1,.23-.42,1.34,1.34,0,0,1,.38-.28A1.18,1.18,0,0,1,427.57,256.42Zm0,.35a.74.74,0,0,0-.34.08.73.73,0,0,0-.24.22,1,1,0,0,0-.13.31,1.34,1.34,0,0,0-.05.35,1.48,1.48,0,0,0,.05.35,1,1,0,0,0,.13.3.73.73,0,0,0,.24.22.74.74,0,0,0,.34.08.75.75,0,0,0,.35-.08.84.84,0,0,0,.24-.22,1,1,0,0,0,.13-.3,1.45,1.45,0,0,0,0-.35,1.34,1.34,0,0,0,0-.35,1,1,0,0,0-.13-.31.84.84,0,0,0-.24-.22A.75.75,0,0,0,427.57,256.77Z"/><path class="cls-2" d="M430,256.48h.46l1.14,1.84h0v-1.84H432V259h-.47l-1.13-1.84h0V259H430Z"/><path class="cls-2" d="M433.39,256.48h1a1.22,1.22,0,0,1,.49.09,1.06,1.06,0,0,1,.35.27,1.25,1.25,0,0,1,.2.4,1.88,1.88,0,0,1,.06.49,1.86,1.86,0,0,1-.06.48,1.25,1.25,0,0,1-.2.4,1.06,1.06,0,0,1-.35.27,1.22,1.22,0,0,1-.49.1h-1Zm.44,2.14h.43a1,1,0,0,0,.42-.07.62.62,0,0,0,.25-.19.56.56,0,0,0,.13-.28,2,2,0,0,0,0-.35,2,2,0,0,0,0-.36.56.56,0,0,0-.13-.28.62.62,0,0,0-.25-.19,1.22,1.22,0,0,0-.42-.07h-.43Z"/><path class="cls-2" d="M436.77,256.48h.43V259h-.43Z"/><path class="cls-2" d="M438.59,256.48h1.79v.37H439v.66h1.26v.36H439v.73h1.39V259h-1.82Z"/><path class="cls-2" d="M441.61,256.48h.44v1.45a2.26,2.26,0,0,0,0,.26.62.62,0,0,0,.07.23.46.46,0,0,0,.17.17.75.75,0,0,0,.34.07.74.74,0,0,0,.33-.07.46.46,0,0,0,.17-.17.62.62,0,0,0,.07-.23,2.26,2.26,0,0,0,0-.26v-1.45h.44v1.6a1.09,1.09,0,0,1-.07.42,1,1,0,0,1-.21.3.92.92,0,0,1-.32.18,1.42,1.42,0,0,1-.42.06,1.44,1.44,0,0,1-.43-.06.92.92,0,0,1-.32-.18,1,1,0,0,1-.21-.3,1.09,1.09,0,0,1-.07-.42Z"/><path class="cls-2" d="M422.72,243c.5-.91,1-2,.62-2.54s-.81-.72-2.11-.92a19.36,19.36,0,0,1-2.25-.34,1.14,1.14,0,0,0-1.29-.23,1.47,1.47,0,0,0-.65,1.15c-.07.27-1.31,3.47-1.68,5.19s-1,5.28-1.06,5.74a2.44,2.44,0,0,0,.13,1.55,4.28,4.28,0,0,0,1.18,1.74,1.27,1.27,0,0,0,1.42.11,7.1,7.1,0,0,0,3.47-2.34,7.38,7.38,0,0,0,1.88-3.78c.11-1.08-.77-1.51-1.4-1.77l-1.24-.52A15.87,15.87,0,0,0,422.72,243Zm-2.66,5.08a4.42,4.42,0,0,1-1.45,1.85c-.87.7-2.1,1.67-2.62,1.59-.1,0,.34-3,.79-3.47a8.67,8.67,0,0,1,2.27-.17C419.32,247.91,420,248,420.06,248.1Zm.38-6.38a8.74,8.74,0,0,1-1.13,1.08c-.42.35-.95.9-1.3.89a5.34,5.34,0,0,1,.59-2.07c.25-.22,1.23-.11,1.53-.11S420.51,241.58,420.44,241.72Z"/><path class="cls-2" d="M426.45,240.73c.6-.67,2.7-.78,3.27-.79s2.58.08,3.32,0a4.74,4.74,0,0,1,1,0c.16.06.43.12.32.52a3.69,3.69,0,0,1-2.09,2.25c-1.39.58-2,.74-4.53.15a10.07,10.07,0,0,0-.64,2.5,6.43,6.43,0,0,0,2.48.18c.58-.06,1.89-.18,2.35-.29s1.19,0,1.27.33.28,1-2,2.11a6.71,6.71,0,0,1-4.56.83,7.19,7.19,0,0,0-.51,2.68,1.36,1.36,0,0,0,1.06,1.13,15.68,15.68,0,0,0,2.93-.69c.73-.24,1.5-.61,1.55-.38s.05.79-1.58,2.1-2,1.43-3,1.31S424.53,253,424,251.5,421.59,246.1,426.45,240.73Z"/><path class="cls-2" d="M431.62,233.71c.42-.13,3.62,1.77,3.94,2.43s-.13.89-.25.93a2.5,2.5,0,0,1-1.93-.06,10.19,10.19,0,0,0-2.11-.89,6.92,6.92,0,0,0-2.2,1.4A6.55,6.55,0,0,1,426.5,239c-.3-.07-.31-.27-.14-.5S429.7,234.33,431.62,233.71Z"/><path class="cls-2" d="M441.3,239.16c.15-.09.64.52.83.6s1.9.12,2.74.28a6.35,6.35,0,0,1,2.28.68c.26.24.3.46.13.61a8.66,8.66,0,0,1-3.12,1.08c-1.53.22-1.73.28-1.76.48s-.37,2.7-.72,4a36.57,36.57,0,0,1-1.3,4.19,6.63,6.63,0,0,0-.55,1.94c.18-.07.61-.33.75-.13a1.2,1.2,0,0,1-.65,1.74c-1.14.51-1.89-.83-2-1.28a7.53,7.53,0,0,1-.14-4.41c.56-2.46,1.37-5.55,1.47-5.89a8.91,8.91,0,0,1-3.59-.14c-1.6-.5-1.15-1.55-.87-1.94s.86-.79,3.64-1A5.32,5.32,0,0,0,441.3,239.16Z"/><path class="cls-2" d="M451.64,239.27a1.75,1.75,0,0,0-1.53-.75,1.06,1.06,0,0,0-.95.58c-.39.71-1.5,3.1-2.23,4.18a28.46,28.46,0,0,0-2,4.55c-.08.32-.08.55-.39.62s-.92.18-1.1.6a1.62,1.62,0,0,0,.14,1.47,3.66,3.66,0,0,1-.08,2.19,2.92,2.92,0,0,0,0,1.35.21.21,0,0,0,.33.05,4.21,4.21,0,0,0,.84-1.36c.75-1.64,1.28-1.58,1.95-1.76s1.27-.31,1.27-.31.16,2,.3,2.56.38,1.41,1.17,1.33,1-.15,1.21-1.26,1.64-7.86,1.89-9.74A7.63,7.63,0,0,0,451.64,239.27Zm-3.13,6.39c0,.18-.12,2.21-.4,2.4a1,1,0,0,1-1-.25,11.19,11.19,0,0,1,1.4-3.52C448.62,244.06,448.51,245.47,448.51,245.66Z"/><line class="cls-4" x1="459.54" y1="233.7" x2="459.54" y2="259.07"/><line class="cls-4" x1="457.36" y1="233.33" x2="461.54" y2="233.33"/><line class="cls-4" x1="457.36" y1="259.41" x2="461.54" y2="259.41"/><text class="cls-5" transform="translate(467.29 247.42)">9 mm</text><rect class="cls-6" x="904.84" y="62.82" width="324.01" height="239.09"/><line class="cls-7" x1="941.5" y1="237.83" x2="942.5" y2="237.83"/><line class="cls-8" x1="944.5" y1="237.83" x2="1291.77" y2="237.83"/><line class="cls-7" x1="1292.77" y1="237.83" x2="1293.77" y2="237.83"/><line class="cls-7" x1="941.5" y1="249.83" x2="942.5" y2="249.83"/><line class="cls-8" x1="944.5" y1="249.83" x2="1291.77" y2="249.83"/><line class="cls-7" x1="1292.77" y1="249.83" x2="1293.77" y2="249.83"/><line class="cls-7" x1="872.33" y1="62.82" x2="873.33" y2="62.82"/><line class="cls-9" x1="875.32" y1="62.82" x2="1052.85" y2="62.82"/><line class="cls-7" x1="1053.84" y1="62.82" x2="1054.83" y2="62.82"/><line class="cls-7" x1="872.33" y1="98.82" x2="873.33" y2="98.82"/><line class="cls-9" x1="875.32" y1="98.82" x2="1052.85" y2="98.82"/><line class="cls-7" x1="1053.84" y1="98.82" x2="1054.83" y2="98.82"/><line class="cls-7" x1="1192.88" y1="162.32" x2="1192.88" y2="161.32"/><line class="cls-10" x1="1192.88" y1="159.32" x2="1192.88" y2="36.32"/><line class="cls-7" x1="1192.88" y1="35.32" x2="1192.88" y2="34.32"/><line class="cls-7" x1="1228.88" y1="162.32" x2="1228.88" y2="161.32"/><line class="cls-10" x1="1228.88" y1="159.32" x2="1228.88" y2="36.32"/><line class="cls-7" x1="1228.88" y1="35.32" x2="1228.88" y2="34.32"/><line class="cls-7" x1="904.84" y1="336.4" x2="904.84" y2="335.41"/><line class="cls-11" x1="904.84" y1="333.41" x2="904.84" y2="218.49"/><line class="cls-7" x1="904.84" y1="217.49" x2="904.84" y2="216.49"/><line class="cls-7" x1="939.84" y1="336.4" x2="939.84" y2="335.41"/><line class="cls-11" x1="939.84" y1="333.41" x2="939.84" y2="218.49"/><line class="cls-7" x1="939.84" y1="217.49" x2="939.84" y2="216.49"/><line class="cls-7" x1="1126.34" y1="265.9" x2="1127.34" y2="265.9"/><line class="cls-12" x1="1129.33" y1="265.9" x2="1259.88" y2="265.9"/><line class="cls-7" x1="1260.88" y1="265.9" x2="1261.88" y2="265.9"/><line class="cls-7" x1="1126.34" y1="301.9" x2="1127.34" y2="301.9"/><line class="cls-12" x1="1129.33" y1="301.9" x2="1259.88" y2="301.9"/><line class="cls-7" x1="1260.88" y1="301.9" x2="1261.88" y2="301.9"/><path class="cls-13" d="M1212.35,57.44l-1.73-3-1.74,3H1208l2.18-3.65-2-3.47h.88l1.58,2.81,1.58-2.81h.88l-2,3.47,2.2,3.65Z"/><path class="cls-13" d="M1241.25,286.93l-1.73-3-1.73,3h-.86l2.17-3.65-2-3.46h.88l1.57,2.8,1.58-2.8h.88l-2,3.46,2.2,3.65Z"/><path class="cls-13" d="M1271.83,247l-1.73-3-1.74,3h-.86l2.18-3.65-2-3.47h.88l1.58,2.81,1.58-2.81h.88l-2,3.47,2.2,3.65Z"/><path class="cls-13" d="M924.25,315.43l-1.73-3-1.73,3h-.86l2.17-3.65-2-3.46H921l1.57,2.8,1.58-2.8H925l-2.05,3.46,2.2,3.65Z"/><path class="cls-13" d="M896.25,83.93l-1.73-3-1.73,3h-.86l2.17-3.65-2-3.46H893l1.57,2.8,1.58-2.8H897l-2.05,3.46,2.2,3.65Z"/><path class="cls-13" d="M1274.75,247.72H1274l2.85-8.6h.71Z"/><path class="cls-13" d="M1282.1,247.05a1.89,1.89,0,0,1-2.09-1.88h.72a1.26,1.26,0,0,0,1.37,1.24,1.3,1.3,0,0,0,1.37-1.38,1.24,1.24,0,0,0-1.4-1.38h-.15V243h.15a1.15,1.15,0,0,0,1.27-1.29,1.19,1.19,0,0,0-1.24-1.3,1.21,1.21,0,0,0-1.28,1.19h-.72a1.89,1.89,0,0,1,2-1.83,1.85,1.85,0,0,1,2,1.93,1.6,1.6,0,0,1-1,1.58,1.67,1.67,0,0,1,1.09,1.74A1.93,1.93,0,0,1,1282.1,247.05Z"/><rect class="cls-13" x="1146.25" y="256.28" width="15.88" height="1.62"/><rect class="cls-13" x="969.08" y="256.28" width="15.88" height="1.62"/><path class="cls-13" d="M999.06,249.37h8a5.77,5.77,0,0,1,3.57,1,3.64,3.64,0,0,1,1.34,3.08,3.74,3.74,0,0,1-.61,2.14,3.92,3.92,0,0,1-1.75,1.38V257a3.55,3.55,0,0,1,2.31,1.44,5.19,5.19,0,0,1,.44,4.63,3.6,3.6,0,0,1-1.09,1.46,5.42,5.42,0,0,1-1.89,1,9.38,9.38,0,0,1-2.76.36h-7.59Zm2.89,6.92h4.72a2.55,2.55,0,0,0,1.74-.59,2.11,2.11,0,0,0,.7-1.7,2.15,2.15,0,0,0-.63-1.76,2.81,2.81,0,0,0-1.81-.51H1002Zm0,7.25h5.12a2.91,2.91,0,0,0,2-.68,2.56,2.56,0,0,0,.73-1.94,2.43,2.43,0,0,0-.73-1.88,3,3,0,0,0-2-.66H1002Z"/><path class="cls-13" d="M1028,249a7.73,7.73,0,0,1,3.32.69,7.52,7.52,0,0,1,2.49,1.88,8.27,8.27,0,0,1,1.56,2.75,10.45,10.45,0,0,1,0,6.69,8.32,8.32,0,0,1-1.56,2.76,7.21,7.21,0,0,1-2.49,1.86,8.33,8.33,0,0,1-6.64,0,7.21,7.21,0,0,1-2.49-1.86,8.52,8.52,0,0,1-1.57-2.76,10.63,10.63,0,0,1,0-6.69,8.47,8.47,0,0,1,1.57-2.75,7.52,7.52,0,0,1,2.49-1.88A7.7,7.7,0,0,1,1028,249Zm0,2.36a4.68,4.68,0,0,0-2.28.53,4.47,4.47,0,0,0-1.56,1.43,6.39,6.39,0,0,0-.9,2,9.39,9.39,0,0,0,0,4.63,6.45,6.45,0,0,0,.9,2,4.44,4.44,0,0,0,1.56,1.42,5.17,5.17,0,0,0,4.56,0,4.44,4.44,0,0,0,1.56-1.42,6.43,6.43,0,0,0,.89-2,9.39,9.39,0,0,0,0-4.63,6.37,6.37,0,0,0-.89-2,4.47,4.47,0,0,0-1.56-1.43A4.68,4.68,0,0,0,1028,251.34Z"/><path class="cls-13" d="M1044,249.37h3.06l7.55,12.18h0V249.37h2.76V265.9h-3.06l-7.52-12.15h-.07V265.9H1044Z"/><path class="cls-13" d="M1066.45,249.37h6.85a7.75,7.75,0,0,1,3.29.65,6.15,6.15,0,0,1,2.27,1.77,7.82,7.82,0,0,1,1.31,2.63,12.55,12.55,0,0,1,0,6.44,7.77,7.77,0,0,1-1.31,2.62,6.15,6.15,0,0,1-2.27,1.77,7.61,7.61,0,0,1-3.29.65h-6.85Zm2.89,14.17h2.85a7.26,7.26,0,0,0,2.77-.45,4.12,4.12,0,0,0,1.69-1.25,4.53,4.53,0,0,0,.83-1.88,12.4,12.4,0,0,0,0-4.65,4.49,4.49,0,0,0-.83-1.87,4,4,0,0,0-1.69-1.25,7.05,7.05,0,0,0-2.77-.46h-2.85Z"/><path class="cls-13" d="M1088.76,249.37h2.89V265.9h-2.89Z"/><path class="cls-13" d="M1100.79,249.37h11.9v2.5h-9v4.33H1112v2.36h-8.34v4.84h9.17v2.5h-12.06Z"/><path class="cls-13" d="M1120.78,249.37h2.9V259a16.06,16.06,0,0,0,.08,1.69,3.85,3.85,0,0,0,.46,1.54,2.94,2.94,0,0,0,1.16,1.13,5.65,5.65,0,0,0,4.37,0,2.94,2.94,0,0,0,1.16-1.13,3.7,3.7,0,0,0,.46-1.54,16.06,16.06,0,0,0,.08-1.69v-9.63h2.9V260a7.16,7.16,0,0,1-.49,2.78,5.29,5.29,0,0,1-1.37,2,5.77,5.77,0,0,1-2.15,1.19,9.83,9.83,0,0,1-5.55,0,5.65,5.65,0,0,1-2.14-1.19,5.2,5.2,0,0,1-1.38-2,7.16,7.16,0,0,1-.49-2.78Z"/><path class="cls-13" d="M995.87,160.39c3.34-6,6.74-13.29,4.11-16.76-3-4-5.34-4.79-13.92-6.07s-14-1.68-14.9-2.25c-1.76-1.13-4.69-3.72-8.52-1.52s-3.8,5.84-4.28,7.6-8.69,22.92-11.09,34.26c-2.27,10.75-6.69,34.92-7.06,38s-1,6.37.89,10.29c2.09,4.22,3.93,8.81,7.79,11.44,2.58,1.77,4.43,2.62,9.39.75,9.25-3.49,15.29-6.35,22.91-15.47,6.85-8.2,11.61-16.58,12.44-25,.72-7.19-5.09-10-9.25-11.72s-8.21-3.46-8.21-3.46S991.45,168.33,995.87,160.39ZM978.31,194c.18,1-3.77,7.64-9.57,12.25s-13.89,11-17.31,10.52c-.66,0,2.2-20.1,5.17-23,1.77-1.16,13.23-1.22,15-1.11S978.13,193,978.31,194Zm2.53-42.21c-.44.89-4.71,4.86-7.49,7.17s-6.26,5.95-8.56,5.9c-1.18,0,2.69-12.55,3.9-13.67,1.6-1.49,8.12-.75,10.08-.73S981.28,150.91,980.84,151.79Z"/><path class="cls-13" d="M1020.53,145.3c4-4.43,17.86-5.16,21.67-5.23s17,.51,21.9.21c2.92-.18,5.67-.59,6.72-.21s2.83.76,2.08,3.39a24,24,0,0,1-13.81,14.88c-9.19,3.83-13.36,4.93-29.93,1-1.1,3.27-4.34,12.3-4.26,16.54,3.46,1.74,12.57,1.6,16.41,1.22s12.5-1.17,15.58-2,7.81,0,8.35,2.19,1.87,6.58-13.19,14c-13.4,6.58-18.08,6.46-30.15,5.49-1.5,3.11-4,13.08-3.4,17.67s4.77,7.3,7,7.52,14.49-2.93,19.34-4.54,10-4.06,10.28-2.57.32,5.25-10.47,13.89-13.39,9.47-19.56,8.7-17.24-10.86-21-21C1000.28,206.26,988.41,180.8,1020.53,145.3Z"/><path class="cls-13" d="M1054.75,98.86c2.75-.88,24,11.68,26,16.1s-.85,5.83-1.64,6.15-5.79,2.43-12.74-.42-11.86-6.23-14-5.87-8.16,3.77-14.54,9.23-15.14,10.25-17,9.82-2-1.77-.92-3.26S1042,102.94,1054.75,98.86Z"/><path class="cls-13" d="M1118.71,134.87c1-.55,4.23,3.48,5.53,4s12.54.84,18.13,1.85c7.1,1.29,13.33,2.92,15,4.52s2,3,.88,4-10.46,5.64-20.61,7.12-11.45,1.87-11.65,3.15-2.46,17.89-4.78,26.26-5,19.26-8.6,27.69c-2,4.64-4.17,12.43-3.63,12.86,1.21-.46,4-2.19,5-.87s3.21,8.09-4.31,11.48-12.46-5.47-13.43-8.47-4.65-12.88-.91-29.14,9.08-36.69,9.72-38.92c-1.15,0-13.2,2.45-23.76-.91s-7.6-10.27-5.71-12.83,5.68-5.23,24-6.79C1110.16,138.62,1109.74,139.7,1118.71,134.87Z"/><path class="cls-13" d="M1187.11,135.61c-3-3.67-6.64-5.33-10.11-5s-5.11,1.65-6.3,3.83c-2.6,4.75-9.93,20.52-14.75,27.65-5,7.36-12.83,27.92-13.39,30.06s-.56,3.68-2.61,4.15-6.08,1.16-7.27,4-1.09,5.63.91,9.69c2.56,5.18-.18,11.63-.5,14.48-.26,2.29-.79,6.91.33,8.94a1.4,1.4,0,0,0,2.16.34c1.05-.94,2.92-3.26,5.55-9,5-10.85,8.49-10.47,12.93-11.67,4-1.09,8.37-2,8.37-2s1.09,13.45,2,16.95,2.46,9.28,7.7,8.8c4.85-.44,6.58-1,8-8.33s10.83-52,12.48-64.45C1193.62,156.73,1191.44,140.81,1187.11,135.61Zm-20.73,42.23c0,1.22-.79,14.66-2.63,15.9s-6.62-.6-6.82-1.68,3.39-13.86,9.26-23.27C1167.14,167.26,1166.42,176.62,1166.38,177.84Z"/></g></g></svg>