<svg xmlns="http://www.w3.org/2000/svg" viewBox="0 0 250.51 242.66"><defs><style>.cls-1{fill:#fff;}.cls-2{fill:#060b2b;}</style></defs><title>Fichier 3</title><g id="Calque_2" data-name="Calque 2"><g id="A4"><rect class="cls-1" width="250.51" height="242.66"/><path class="cls-2" d="M97.75,133a3.37,3.37,0,0,1,1.91-.33,1.8,1.8,0,0,0,1.84-.94,2.4,2.4,0,0,1,2.65-1c1.33.41,2.63.94,4,1.28a3.7,3.7,0,0,0,3.32-.76l.43.63c-.26.06-.63-.1-.73.38l1.57-.16c.28-.09.58.4.86,0,.64,0,1.28.06,1.92.06.09,0,.18-.16.27-.25a.11.11,0,0,0,.11,0c.43.37.84,0,1.25,0,.16.3.39.3.65.16l.84-.08.21.3.23-.28,1.11-.1v-.25a11.12,11.12,0,0,0-1.16-.06c-.4,0-.8.11-1.21.17v-.39l1.44-.35c.2.42.46.13.71.06a3.56,3.56,0,0,1,2.81.38,4.06,4.06,0,0,0,1.19.39c1.26.28,2.52.56,3.79.78.61.11,1.24.12,1.87.18.2.79.43.91,1.06.53l3.37.3h0l.65.24.41.09.23-.12h.36c.41.13.7.61,1.21.42.31,0,.66.05.77-.37a5.37,5.37,0,0,0,2.5.39c.06.59.51.61,1,.63l2.22.44.46.17c.82.28,1.63.55,2.46.81.05,0,.16-.14.24-.21l-.42-1a3.38,3.38,0,0,1,2.2.75H147l0,.14,1,.14c-.09.42.15.55.51.58l1.11.12.82-.1h1.26l0-.18-.38-.24c.35-.18.68-.37,1-.52s.48-.07.47.29c-.56.1-.56.47-.47,1l2.71.43c.1,0,.2.1.29.09a6.15,6.15,0,0,1,3.07.2s.06,0,.1-.05l-.09-.4c.14,0,.31,0,.42,0a2.71,2.71,0,0,0,2.18.11c2.06-.36,4.12-.7,6.19-1a3.21,3.21,0,0,1,1.33.19,2.63,2.63,0,0,0,2.32-.1,3.13,3.13,0,0,1,.75-.25,2.36,2.36,0,0,0,2,.65,1.83,1.83,0,0,1-1.77,0c-.46-.22-.46-.21-1,.14a5.52,5.52,0,0,0,3.68.39l1.47.36c-.21.43-.41.87-.62,1.3l-2.39.28a21.42,21.42,0,0,0-5-.11,6.86,6.86,0,0,0-.34,1.86,5.26,5.26,0,0,1-.22,2.06,8.13,8.13,0,0,0-.23,3.33,2,2,0,0,0,.34,1,1,1,0,0,1,.11,1.34,1.84,1.84,0,0,0-.1,1.72,9.16,9.16,0,0,0,1,2.29,5.15,5.15,0,0,1,.55,1.56,7.67,7.67,0,0,1,.16,1c.82-.15,1.64.39,2.29-.42.08.18.11.34.16.35,1.13.2,2.26.42,3.4.54.41,0,.6-.3.41-.74a7.61,7.61,0,0,0-.78-1.36,1.67,1.67,0,0,1,0-2.14,4.28,4.28,0,0,0,.83-3.06v-.52l1.21-2.73.1.51a3,3,0,0,1-.28.66c-.79,1-.59,2.24-.61,3.61l.46-.72h0l.05.63c-.15.36.07.88-.47,1.07v-.78l-.11,0-.17.72c-1.19,1.66-1.27,1.41-.22,3,0,0,.06,0,.09.05s0,.18,0,0c.09.09,0,0,0,0l.24-3a.34.34,0,0,1,.2,0,3.5,3.5,0,0,1,0,.86,3.65,3.65,0,0,0,.28,2.5c.05.49-.21,1,.17,1.55.41-.1.81-.18,1.19-.31.11,0,.16-.25.24-.38h.28a19,19,0,0,0,3.74.83l0,1.2c-.19-.22-.11-.61-.55-.67a26,26,0,0,1-2.66-.5c-.28-.07-.27.61-.64.15-.11-.13-.59.07-.89.08a15.93,15.93,0,0,1-2.29.07,11.33,11.33,0,0,1-2.77-.37,2.17,2.17,0,0,0-1.61.2,4.63,4.63,0,0,1-1.6.3,3.5,3.5,0,0,0-1.83.3c-.21.11-.71.15-.76.07-.4-.79-1.23-.55-1.82-.84.31-.06.64-.11,1-.19s.49-.15.73-.23h1.48c.75.5,1.52.89,2.42.23l-2.43-.21-1.49-.27-1.64-.37-.06-.23a1.28,1.28,0,0,1,.33-.06l2.86.26.89.25a2.28,2.28,0,0,0-.39-2.08,9.71,9.71,0,0,1-.71-1.26c-.14-.27-.29-.54-.43-.82v0c.06-.16.2-.35.16-.47a3.08,3.08,0,0,1,.23-2.31l-.67-1.9-.15,0v3.3h-.31c0-1.76.07-3.53.14-5.3,0-.88.15-1.77.23-2.65a.12.12,0,0,0-.09-.09l.47-1.3-.15-.05-.69.56-.07-.24.71-1-.13-.1-.52.26-.28-.35c-.83.57-.83.57-.63,1.32l.7-.56c0,.15,0,.29,0,.44l-.81,1c0,.17,0,.33-.07.49l-.34.17h0l-.37.31-.37-.29.48-1.91c-.79.12-.59.76-.88,1.06h0l-.12-.7c-.14.26-.27.37-.27.49a4.73,4.73,0,0,1-.84,2.64,2.23,2.23,0,0,0-.25.9c-.21,1.44-.41,2.89-.58,4.34a1.72,1.72,0,0,0,.18.79,29.25,29.25,0,0,0,1.45,4.29s0,.06,0,0l1.07.52-.87.23h0c-.2-.29-.4-.41-.61,0l-.55.05-1.16-.27.62-.19.28.08-.28-.08v-.61l.54.07h.27l-.11-.16-.72-2.62a1.88,1.88,0,0,0-.24-.69,2.24,2.24,0,0,1-.29-2c.13-1,.2-2,.38-3,.15-.82.4-1.62.62-2.42s.49-1.64.77-2.58c-.86,0-1.5-.69-2.23,0-.07.08-.32,0-.49,0-2.12-.25-4.22-.76-6.38-.41-.15,0-.33-.13-.51-.21a5.35,5.35,0,0,1-.4.61,5.15,5.15,0,0,0-1.17,2.65c-.21,1.41-.58,2.8-.85,4.21a5.7,5.7,0,0,0,0,1.24c0,.63.08,1.26.12,1.88l0,.26-.46-.21a14.44,14.44,0,0,0,0-1.47,10.42,10.42,0,0,1,.31-3.33c.29-1.11.39-2.27.57-3.41.28-.92,1-1.64,1.17-2.63a2.06,2.06,0,0,0-.69.65,3.85,3.85,0,0,1-.88,1.34c-.16.13-.39.47,0,.67l-.2.28-.29-.1-.36.13-.08-.38-.39-1.15a10.3,10.3,0,0,0-.32,1.05c-.07.37-.07.76-.54.89l.21-2.44.21-.53-.17-.05,0,.58a9.11,9.11,0,0,0-1,4.43l-.32.84-.5.18a7.28,7.28,0,0,0,.25-1.94,4.36,4.36,0,0,1,.07-1.53c.23-1,.79-1.94.62-3,.2,0,.48.22.46-.21.07-.15.13-.3.19-.46l-.15,0-.05.49-.61.25-.59.67-.18-.13.15-1.26-1.77.75-1.25-1.08-2.06.44c1.12-.77,2.6-.56,3.6-1.64l-1.63.2-.1-.12c-1.2-.64-2-.43-2.59.68-.39.71-.85,1.38-1.17,2.11a11.15,11.15,0,0,0-1.17,4.11c-.06,1.22-.1,2.44-.14,3.67h-.32a10.66,10.66,0,0,0,.09-1.25,14.14,14.14,0,0,1,.91-6.28c.12-.29.21-.6.31-.89l.6-.89-.53-.69a1.81,1.81,0,0,0-.45,1.58l-.81,2.1h0l0-.43.24-2.31.05-.18-.08.16a2.58,2.58,0,0,0-.87,1.69l-.4-.23c.12-.4.22-.8.36-1.19s.33-.88.49-1.32l.15-.05-.06-.1-.07.17-.37,0a1,1,0,0,1,.1-.26c.08-.13.18-.25.27-.37v-.22a.66.66,0,0,0,.7-.53.85.85,0,0,1,0-.17l-.16,0-.77.27-.45-.42a.19.19,0,0,0,.05-.16l.67-.13,0-.14-.72.17-1.13.06.32.42-2.93-.63-.44,0a7.16,7.16,0,0,1-.93-.12c-.11,0-.19-.2-.28-.31.36-.06.79.15,1.2-.3-.58-.12-1-.25-1.47.08-.83-.05-1.66-.14-2.49-.14a8.92,8.92,0,0,1-3-.09,1.63,1.63,0,0,0-.47,0c-.47,1.77-.94,3.52-1.4,5.27a.64.64,0,0,0,0,.41,1,1,0,0,1-.11,1.07,1.07,1.07,0,0,0-.19.69A34.48,34.48,0,0,1,125,146a24.41,24.41,0,0,0,1.36,4.08l4,.22.45.63,1,.18h0c.22.73.79.48,1.28.48V152a6.06,6.06,0,0,1-3-.24,5.47,5.47,0,0,0-3.15-.21V151a.21.21,0,0,1,.17,0c.36.16.72.42,1.09,0l.79.06.37,0-.22-.2-.93-.1c-.36-.16-.71-.41-1.06,0l-3.32,0-.34-.47.1,0c.64.35.56-.19.64-.52a1.26,1.26,0,0,0,1.44.35c-.45-2.21-1.63-4.23-1.37-6.53a2,2,0,0,0-.06-.42,5.93,5.93,0,0,1,0-.73c.06-1,.12-2.08.19-3.12h0l.22-.44v0a10.51,10.51,0,0,0,1.2-3.79,2.32,2.32,0,0,0-.75,1.38,4.61,4.61,0,0,1-.25.71l-.1-.54-.16,0c-.2.82-.41,1.64-.61,2.45H124l-.27-1h0a.22.22,0,0,1,.09-.1l.33-1.88.42-.44a4,4,0,0,0,.49-.61c0-.09-.07-.32-.18-.39s-.25.07-.38.12c-.85,0-.5.66-.6,1.07-.55.12-.45.64-.59,1a8.21,8.21,0,0,0-.24,1c-.32-.34.31-.93-.44-1,.18-.55.65-1,.48-1.67l.06-.16-.09.14h-.19l.25-1.22c-.86.54-.58,1.42-.67,2-.32.21-.55.28-.64.44a7.65,7.65,0,0,0-.44,1l-.34.93c0,.82.11,1.65.08,2.47a8.61,8.61,0,0,1-.34,1.55l-.2,0a22,22,0,0,0-.06-2.81,5,5,0,0,1,1-3.7,2.19,2.19,0,0,0,.39-1.85l-.57,0a.58.58,0,0,0,0-.19c.4-.09,1,.18,1-.68a8.72,8.72,0,0,0-1.17-.15c-2.4,0-4.8-.05-7.2.17a1.06,1.06,0,0,0-1,.82.3.3,0,0,0-.16,0l-.65-.3a5.4,5.4,0,0,0-.51.74c-.05.09.08.27.13.41-.17.55-.33,1.09-.49,1.64-.12.06-.32.1-.34.19a7.09,7.09,0,0,0-.16.94h-.2l-.1-1-.39-.55-.08-.36-1.45,2.26a1.78,1.78,0,0,1,.4-1.49c.43-.91,1.23-1.61,1.45-2.64a.69.69,0,0,0-1,.29,3.59,3.59,0,0,0-.64,2.35l-.41.08.27-1.4-.2-.05a7.35,7.35,0,0,1-.3.94c-.08.18-.29.3-.45.44l.62-2.59H107v-.5c1.19-.08,2.38-.16,3.56-.26.27,0,.6,0,.75-.44-.49,0-.91.07-1.33.08a34.12,34.12,0,0,1-4,.2c-.57,0-1.36-.13-1.8.55h-2l-.49.18-.1,0c-.31,0-.62,0-.93,0-.56,0-.83.25-.81.81-.11.09-.26.15-.31.26a6.65,6.65,0,0,0-.26.75l-.49-.35-.07-.28-.14.29h0l-.21,0a.79.79,0,0,0-.52-.91,2.35,2.35,0,0,0-2.05.16l-1.39,0h-.31l-3.33,0v-.35c0-.09-.1-.23-.16-.24-.3,0-.61,0-.92-.06-.87-.27-.87-.26-1.3.45a2.54,2.54,0,0,1-.28.29c-.25.07-.61.06-.71.21a1.57,1.57,0,0,0-.17.95,18.16,18.16,0,0,0,.47,1.9h-.28l-.42-.25-.1-.9-.19,0v2h-.09l-.17-.84-.4,2.11-.34-.58a.17.17,0,0,0-.19,0c0-.28.07-.55.11-.82.55-.43.59-.61.27-1.28.09-.36.16-.73.27-1.09a1.19,1.19,0,0,0-.46-1.56v2.24h-.22a3.6,3.6,0,0,0-.6-1.77,3.18,3.18,0,0,0-.09,2.18l-.39,0h-.13l-.3,0a4.76,4.76,0,0,0-.2-2.25,3.5,3.5,0,0,1,0-.74,23.1,23.1,0,0,1-3,0,2.45,2.45,0,0,0-2.3.9l-.28-.31.18-.48c-.5-.19-.64-.06-.88.41s-.84.56-1.29.82v-.6c-.66.07-.65.07-.86.41-.41.7-.82,1.4-1.24,2.1l0-.63a4.9,4.9,0,0,0,.93-1.85c-.64-.17-.91.06-.94.64,0,.38,0,.75-.08,1.13s0,.47.07.71c-.14.27-.28.54-.43.81,0-.52,0-1,0-1.54s-.28-.43-.72-.31l.35,2.21.37-.39-.23,1.1-.57-.65a11.3,11.3,0,0,0-.23-1.65,1.21,1.21,0,0,0-2.12-.35l1,.25A1.12,1.12,0,0,0,71,138c.09.51.15,1,.22,1.55-.38.66-.32,1,.22,1.27l.2,0,.18.64-.36.27.49.39c.27.6.2,1.36.84,1.79l-.13.24c-1.31,1.45-.16,3.43,1.3,4.1l.21.18,0,.09v.1c-.09.53-.38.47-.71.24s-.49-.22-.62.14l-1.39-.9-.09.89a1,1,0,0,1-1-.51,25.38,25.38,0,0,0-2.39-2.9,14.38,14.38,0,0,1-1.5-2.44c-.36-.63-.67-1.31-1-1.94a2.36,2.36,0,0,1,.14-2.64,11.08,11.08,0,0,0,1.39-2.18,10.31,10.31,0,0,1,1.65-2.14c.39-.49.63-1.09,1.21-1.4.86.22,1.35.05,1.68-.62l-1.72.17c0-.13-.12-.35-.08-.38.4-.27.82-.5,1.24-.75l.25.23.68.27,1.12-.25,1.62.1,1.21.13a6.58,6.58,0,0,1,1.91.26,5.47,5.47,0,0,0,2.29.61c.4,0,.67.16.7.6-.08.71.42.29.69.33l-.29-.26c.19-.3.44-.24.71-.13s.53.06.59-.31l1.37,0h0a1.45,1.45,0,0,0,.45.19c1,.05,2,.08,3.08.12v-.52l.22,0c.12.12.22.32.35.34.78.12,1.57.19,2.36.28h0l.2.21.22-.14,1.25.14c.33,0,.63,0,.66-.43l.63,0-.43.76-1.29.11V134h2.71l3.42,0c.46,0,.92,0,1.06-.61a13.22,13.22,0,0,0,5.69-.9h-1.74a6.59,6.59,0,0,1,2.58,0,4.13,4.13,0,0,0,2.58-.14,3.21,3.21,0,0,0-.35-.24,10.13,10.13,0,0,0-3.5-.42l.68-.43a2.47,2.47,0,0,0-2.5.33s0,.2,0,.3l-.25.19a2.51,2.51,0,0,1-1.6.89c-.64.12-1.3.14-2,.21Zm-28,1.3.06-.14-.15.05-.41.23-.06.14.14-.06Zm96.52,22.14c.35.24.35.24.86,0l-.78-.08-.14-.05Zm-39.2-22.18-.45,0,0,.15.44-.18.46,0a.83.83,0,0,0,.82.49c.84,0,1.68,0,2.51-.05l.55.16,0-.15h-.6c-.07-.06-.13-.17-.21-.18l-3.14-.43C127.19,133.74,127.12,134,127.06,134.27Zm-59.8,2.46v.36l.17-.24c.21-.22.47-.43.25-.93Zm79.15,2.3.42-.24,0-.12-.6.17-.78.24C145.79,139.39,145.79,139.39,146.41,139Zm-74.63-3.55c.18.25.36.41.57,0l-.57-.09c-.38-.39-.64-.05-.92.21Zm78,4.4-.1.41.12,0,.11-.34c.61-.93.61-.93.19-1.35C150,139.08,149.85,139.48,149.74,139.88Zm-77.31-5.14.2.37c.3.68.3.68,1.26.47l-.08-.89.06-.46-1.42.27S72.44,134.66,72.43,134.74ZM69,136.5v.26l.14-.13c.3-.25.93-.14.9-.83C69.35,135.59,69.18,136.09,69,136.5Zm89.3,3.4.86.06v-.14l-.87-.23-.94-.15a3.76,3.76,0,0,0-.31-.25,5.22,5.22,0,0,0-2.54-.27l-.14-.11.16.1.35.58-.64.16,0,.06h1.34Zm-87.93,3.65v-.42l.49.27c-.06-.76-.07-1.38-.17-2a11.76,11.76,0,0,1-.39-3.5.81.81,0,0,0-.34-.67c-.21-.11-.53,0-.86,0a3.74,3.74,0,0,1,.06,1.4,3.44,3.44,0,0,0,.58,3v.53l-.48-.23c.3,1,.08,1.94.84,2.74a2,2,0,0,1,.29-1.19l.14.49c.14,1.5.26,1.75,1.11,2.2a18.54,18.54,0,0,1,.28-1.84,1.58,1.58,0,0,0-.85-1.85,4.7,4.7,0,0,1,0,1c0,.15-.26.25-.4.37Zm98-4.48a46.71,46.71,0,0,0,6.41-.12,25.37,25.37,0,0,0-3-.21c-1,0-2,0-3,0C168.64,138.72,168.57,138.85,168.35,139.07Zm-99.86,3.42a3.27,3.27,0,0,0-.83-2.6A2.28,2.28,0,0,0,68.49,142.49ZM71,133.65l0,.28c1.1.38,2.1-.15,3.13-.49L72,133.22v.16l.46.16Zm49.52-2.4c0,.31,0,.52.06.55a3.75,3.75,0,0,0,2.05.34C122.08,131.46,121.34,131.54,120.54,131.25Zm14.61,4.22a2.06,2.06,0,0,0,2.26.24Zm28.13,4.11,0-.22a2.52,2.52,0,0,0-2.13,0Zm-86.57-6v-.12h-2v.12ZM167.19,142l-.19,0-.29,1.55.26,0Zm.09-3.35-.77.1.36.79Zm-92-4.28v-.24a.66.66,0,0,0-1,.32Zm48-1.15-.25,0-.11.52.36,0Zm-55.16,5.43c-.61.44-.13.69.06,1ZM66,140.77c0-.13.13-.25.1-.29s-.17-.12-.27-.18-.08.19-.06.27S65.87,140.68,66,140.77Zm1.63-2.39.2.15a1.36,1.36,0,0,0,.16-.35,1.75,1.75,0,0,0,0-.39h-.14Zm78-.08.13.26.69-.35-.06-.15Zm3-.19c-.66-.17-.55.21-.48.55,0,0,.09.05.19.1Zm16.06,3.77.1,0v-.71h-.1Zm-14.11-1.56-.2-.15-.26.66.16.07Zm-74.62-6v.22l.64-.05v-.13Zm77.32,5.07c.22.12.31.21.41.22s.16-.08.24-.13c-.08-.1-.13-.24-.23-.3S153.47,139.22,153.24,139.34Zm-12.15-2v-.1h-.4v.1Zm-41.71-3.56.05-.13s-.07,0-.1,0l-.13.1Zm-26.2-1.17c.1.06.16.13.19.12s.08-.1.11-.15ZM70.2,147a.8.8,0,0,0,.16.08s0,0,.06-.07l-.16-.08S70.22,147,70.2,147Zm-.31-.34.15-.06s0-.07-.06-.07l-.16.06ZM67.77,144l-.08-.16s-.07,0-.07.06,0,.11.07.17Zm.39-8.15-.07,0v.06Zm82.4,4,0,0v-.06Zm-.63,1.31.13-.07s-.05-.07-.07-.07a.33.33,0,0,0-.13.07Z"/><path class="cls-2" d="M94.12,134.5h.31a1.34,1.34,0,0,0,1.39,0,2.35,2.35,0,0,1,2.05-.16.79.79,0,0,1,.52.91l-.43,0-.41.09c-.22-.61-.33-.62-.85-.11a4.88,4.88,0,0,0-.73.62c-.27.35,0,.55.3.68l-.24.23c-.64-.24-.36.45-.62.61l-.67-.09.28.53c0,.17.06.39,0,.5a3.22,3.22,0,0,0-.37,3.1c-.17,1.28-.29,2.56-.51,3.83a3.41,3.41,0,0,0,.94,3.45,2,2,0,0,1,.43.69c.36.88.35.89,1.4.81l-.2-.58a5.05,5.05,0,0,1,.51.28c.21.17.4.37.66.61l.28-1.22.19,1.08h2.36c0-.13,0-.23,0-.26a2.91,2.91,0,0,1-1.29-2.38c0-.11-.15-.22-.22-.34-.36-.64-.78-1.25-1.07-1.91-.53-1.21-1.08-2.44-.37-3.8a2,2,0,0,0,.06-.7h0l.16-.41.28-.34c-.06.44-.09.89-.18,1.33a4.58,4.58,0,0,0,.15,3.28c.46.85,1,1.67,1.5,2.51.09.15.22.32.2.47-.1,1.12.72,1.58,1.47,2.1.19.13.4.23.63.36l1.13-.73.07.93,6.22-.5c-.76-.63-.76-1.53-1-2.3s-.41-1.55-.61-2.33c0,0,.07-.11.1-.17.61.33.65.92.71,1.51a3.71,3.71,0,0,0,2,3.25l.94-.18c-.17-.43-.34-.81-.48-1.2s-.27-.85-.4-1.27l.42.19.48,1.21.23,0a2,2,0,0,0,0-.64c-.14-.43-.35-.83-.52-1.25l.62-.11.61.24-.2-1.31.56.44a1.73,1.73,0,0,0-.19-1,5.8,5.8,0,0,1-.62-3.54c0-.51-.08-1-.09-1.56,0-.94,0-1.88,0-2.82a5.82,5.82,0,0,0,0-2.2c0-.14-.18-.32-.13-.41a5.4,5.4,0,0,1,.51-.74l.65.3a15.71,15.71,0,0,0-.66,5c0,.14,0,.28.06.42.05.8.15,1.6.16,2.4a5,5,0,0,0,.6,2.83,2.38,2.38,0,0,1,.38,1.08c.05,1,0,2.08,0,3a3.37,3.37,0,0,0,2.62,1.24,31.23,31.23,0,0,1,6.41.27l.31.43-.56.11.06.2.68-.26.57-.46h0l.34.47a4.14,4.14,0,0,0,3.11.2v.57a6.93,6.93,0,0,1-1.2,0,17.11,17.11,0,0,0-3.65-.12c-.93.08-1.85.22-2.78.34a14.65,14.65,0,0,1-1.87,0v-.19h1.68v-.23c-1.06-.2-2.1-.43-3.16-.58a11.13,11.13,0,0,0-3.36-.06,1,1,0,0,1-.51,0c-1-.45-1.77.19-2.64.37h3.13v.29a46.22,46.22,0,0,1-7.44-.11,1.17,1.17,0,0,0-1.07.28,1.92,1.92,0,0,1-1.56.46,23,23,0,0,0-4.68.4,15.15,15.15,0,0,1-3.56,0,12.58,12.58,0,0,0-2.39-.16,2.88,2.88,0,0,1-1.28-.32,7,7,0,0,0-3.64-.67,1,1,0,0,0-.31.05,9.89,9.89,0,0,1-4.14.53,5,5,0,0,1-1.45-.16,3.33,3.33,0,0,0-2.16-.07.94.94,0,0,1-.62,0c-1.41-.53-2.83-1.06-4.22-1.65a10,10,0,0,1-1.4-.89c.13-.36.35-.33.62-.14s.62.29.71-.24l.43-.2H75l-.32.59a3.16,3.16,0,0,0,2.21.41l.24-1.12c-.62,0-1-.25-.88-.84l.6.41c.09-.66.2-1.22.24-1.79s0-1.39.06-2.09h.32c-.12,1.87.39,3.77-.37,5.67a25.16,25.16,0,0,1,2.62,0,23.37,23.37,0,0,1,2.34.5l1.38-.71c0-.2,0-.48-.07-.75s-.09-.38,0-.45a1.3,1.3,0,0,0,.21-1.29,4.74,4.74,0,0,1,.31-2.47,1.47,1.47,0,0,0,.09-.9,4.1,4.1,0,0,1,0-2.17,2.58,2.58,0,0,0-.14-1.83A2.56,2.56,0,0,1,84,137l.3,0a2.72,2.72,0,0,1-.14,1,1,1,0,0,0,0,1.09,3.65,3.65,0,0,1,.21,2.24,17,17,0,0,0,0,1.75,5.38,5.38,0,0,1-.17,1.62,3.18,3.18,0,0,0-.25,2.12,4.28,4.28,0,0,1,0,1.24v.82h.22l.5-2h.17c.17.4-.25.91.22,1.27h.16l-.06.74h-.15l-.28-.63c0,.34-.14.56-.08.73s.28.15.47.24l-.55.84c.44.25.68.32,1-.15a7.17,7.17,0,0,1,1.07-1.44,2.85,2.85,0,0,0,.59-1.61c.15-1,.19-2.07.28-3.11l.31-.05c0,1,0,2,0,3a3.5,3.5,0,0,1-.9,2.4,6.48,6.48,0,0,0-.72,1.28c2.91.27,8.16.18,9.1-.18a6.36,6.36,0,0,0-.85-1.42,3.17,3.17,0,0,1-.87-3.09c.07-.35.18-.68.25-1a7.43,7.43,0,0,0,0-4.33,1.57,1.57,0,0,1,0-.8c.21-1,.42-1.91.66-2.85.13-.47.31-.92.46-1.36-1.14-.06-2.37-.07-3.58-.2s-2.2-.37-3.3-.57a2.54,2.54,0,0,0,.28-.29c.43-.71.43-.72,1.3-.45l1.08.3v.35s0,.07,0,.1,0,.07.06.07l3.1.06C94,134.7,94.05,134.57,94.12,134.5ZM78.32,151c.12.25.26.45.69.21l-.58-.33-.3-.1a1.73,1.73,0,0,0-1.34-.54c.41.54.9.48,1.35.53Zm-3.16-1a2.17,2.17,0,0,0,1.33.38l.05-.22-1.31-.24-.31-.13,0,.1Zm24.1,1.61-2.27,0c.82.64,1.52.25,2.22.17Zm.4-.38c1.23.7,2.56.32,3.85.34.17,0,.35-.26.52-.4l-.06-.21-4.32.28c-.56-.31-.56-.31-1.25,0Zm-3.32.22v-.28H90.07A12.22,12.22,0,0,0,96.34,151.36Zm-13.54-.51c-1.42,0-2.77-1-4.39-.45C79.93,150.77,81.28,151.46,82.8,150.85Zm38.55-.08a8.83,8.83,0,0,0-3.43-.19A7.12,7.12,0,0,0,121.35,150.77Zm-9.18-1.29c.49.52.83.19,1.22.12l-.44-.69Zm-3.44,1.59.66-.5h-1.46ZM84,151.12l1.47.23,0-.28A2,2,0,0,0,84,151.12Zm23.5-.22v-.12H106v.12Zm5.33-2.65c.1-.29.36-.71-.3-.67Z"/><path class="cls-2" d="M175.38,139.23l.62-1.3c.78,0,1.56.07,2.34.16a3.72,3.72,0,0,1,.88.38l-.38.24.08.14.53-.19,2.71,2.76c0,.21,0,.43,0,.65l.21.22h0l.21.21h0l.21.21.36-.07.73,1.05a2,2,0,0,0,.12.7,11.47,11.47,0,0,0,1,1.71,3.77,3.77,0,0,0,.9.62c.6.92,1.16,1.87,1.82,2.75,1.14,1.51.84,3.07.26,4.65-.13.36-.41.66-.55,1a4.47,4.47,0,0,1-2.26,2,1.43,1.43,0,0,1-.6.17c-.91,0-1.82,0-2.74,0l.06-1.2h0c.47.07.7-.14.65-.62a2.6,2.6,0,0,0,.43-1.67c.46-.58.64-1.4,1.49-1.64.12,0,.23-.36.22-.55a7.13,7.13,0,0,0-.24-1,2.51,2.51,0,0,1,.53-2.09c.07-.07,0-.3-.06-.45l-.12-.81.66.14c-.13-.62-.42-.57-.77-.39l-.07,0a3.44,3.44,0,0,0-1.28-1.9c-.33-.7-.4-1.56-1.22-1.95l-.39-.41-.23-.6-.94-1.14-.33.51-.21,0v-.4a2.2,2.2,0,0,0-1.72-1.72c-.52-.16-1.08-.21-1.62-.32Zm12,13-.13-.49-.16-.34-.14.07.18.38.26.37.07.06Zm-3.32,2.11c.38,0,.23-.23.16-.42l.51-.25-.19-.19-.32.44H184c-.39.29-.17.68-.17,1-.72.14-.62.93-1,1.34-.08.08.14.45.25.75l.52-.38c.31-.15.8,0,.81-.57.17-.06.34-.1.51-.17s.26-.12.4-.19c.31-.8.29-1-.3-1.67l.12,1.12-1.11-.22Zm2.84-3.51h-.08v.3h.08Z"/><path class="cls-2" d="M133.18,152v-.35a.2.2,0,0,1,.18-.06l.7-.32,1.29.19c-.68-1.46-.29-2.84-.14-4.19.26-2.39.65-4.76,1-7.15a4.35,4.35,0,0,1,1.36-2.85s0-.12,0-.19l-.21-.23.24-.17.43-.26.45.42.19.38v.22c-.19,0-.45-.06-.57,0a3.17,3.17,0,0,0-1.34,2c-.1.62-.15,1.25-.3,1.86a34.73,34.73,0,0,0-1,8.12,10,10,0,0,0,.4,2.14.5.5,0,0,0,.4.23c.1,0,.17-.24.26-.37a2,2,0,0,0,.1-.21l.23.76,1.15-.27c-.1.52.25.56.62.58,1.39.09,2.78.13,4.17.3,1.75.21,3.49.52,5.24.78l.21,0-.12-.1c-.41-1.92-1.27-3.75-1.11-5.78,0-.4.08-.8.12-1.2l.5-.18c-.05.47-.1.95-.14,1.42-.17,1.75.68,3.32.93,5a2.53,2.53,0,0,0,.75,1.1c.08.1.37,0,.53,0l.09-.56.49.47,1.94.15c-.12-.43-.13-.83-.74-.85-.23,0-.45-.5-.67-.78l.61-.22.2-.19,1.32,2,2-.14,4.17-.23.22.78a20.45,20.45,0,0,0-5.3.18c-.93.13-1.88.14-2.79.33a8.65,8.65,0,0,0-2,.7,2.3,2.3,0,0,1-1.53.05,21.61,21.61,0,0,0-4.28-.91l-2.28-.12v-.22h4a3.21,3.21,0,0,0-1.21-.35l-1.51-.27-1.87-.18-1-.09-.21,0,.12.12,0,.24a22.68,22.68,0,0,1-4.18-1.36A3.83,3.83,0,0,0,133.18,152Zm15.19,2.34-1.74.22c.85.05,1.59.95,2.5.36l-.35-.37c.52-.11,1.12.48,1.66-.27C149.71,154.13,149,153.85,148.37,154.31Zm-.21-.27c-1.53-.71-1.77-.7-2,0Zm-3.58-.56,0-.2-1.38-.23,0,.28Zm-3.86-.6v.1h1.07v-.1Z"/><path class="cls-2" d="M90.57,133.28l-.22.14-.2-.21h0l-2.71-.62-.22,0-3.53.21h0l-1.68-.46-.06.17.37.31c-.06.37-.28.44-.59.31s-.52-.17-.71.13l-.4-.07c0-.44-.3-.6-.7-.6a5.47,5.47,0,0,1-2.29-.61,6.58,6.58,0,0,0-1.91-.26l-1.22-.38-2-.61.47-.22c.44.09.89.17,1.32.29a7.86,7.86,0,0,0,3.08.47,1.11,1.11,0,0,1,.84.26.67.67,0,0,0,.92.21,3.36,3.36,0,0,1,2.84.14,6.14,6.14,0,0,0,3.37.45,4.25,4.25,0,0,0,2.73-1.27c.17-.18.62-.1.94-.15l.16.33-.09,0,0-.09-.23.32-.68.51,0,.19h1c0,.37.08.64.56.62a11.65,11.65,0,0,1,1.32,0Zm-9-.86c-.88-.54-.88-.54-1.77-.3Zm5.48-.24.1.21.58-.22-.07-.2Z"/><path class="cls-2" d="M130.66,133.35c-.63.38-.86.26-1.06-.53a11.29,11.29,0,0,1,4.27-.64c.16,0,.31.14.47.22l3.3,1.51c-.11.42-.46.35-.77.37-.24-.19-.48-.4-.74-.57s-.39-.15-.47.15h-.36l.06-.36-.16,0-.13.52-.41-.09-.65-.24h0v-.22l.74-.09,0-.16-1.05-.46.28.72c-.41.1-.65-.13-.85-.44v0c-1-.72-2,0-3,.12Z"/><path class="cls-2" d="M141.09,134.93c-.44,0-.89,0-1-.63.77-.21,1.52-.46,2.3-.6a1.84,1.84,0,0,1,1,.18c.88.41,1.74.87,2.61,1.3l.42,1a4.19,4.19,0,0,1-1.23-.55c-.52-.46-.47-.52-1-.75l-.5-.14-.13-.11.15.1.4.23.17.31-.52.31-.47-.17C142.59,134.39,142.14,134.3,141.09,134.93Z"/><path class="cls-2" d="M117.78,132.07c-.26.14-.49.14-.65-.16a1,1,0,0,0-1.25,0,.11.11,0,0,1-.11,0c-.8-.7-1.49-.19-2.19.19-.28.42-.58-.07-.86,0-.17-.48-.56-.15-.84-.22l-.43-.63c.08-.06.16-.19.23-.19a18,18,0,0,1,3.52,0,18.48,18.48,0,0,0,2.59.27v.69Z"/><path class="cls-2" d="M158.49,137.38l.09.4s-.08.06-.1.05a6.15,6.15,0,0,0-3.07-.2c-.09,0-.19-.06-.29-.09l-.45-.55c.26,0,.58.11.66-.3l1.22.33c-.33-.63-.78-.44-1.21-.31l-.72-.18a.08.08,0,0,0-.09-.09c-.31-.45-.74-.19-1.13-.2l0-.08,0-.37,1,.06c.58.05,1.16.08,1.73.15a1.34,1.34,0,0,1,.54.22C157.29,136.6,157.89,137,158.49,137.38Zm-1.6-.22.07,0s0-.05-.06-.06,0,0-.07,0Z"/><path class="cls-2" d="M89.26,131.24l-.16-.33a2.63,2.63,0,0,1,3,.15,13.17,13.17,0,0,1,1.81,1.42,2,2,0,0,0,2.15.68,3.05,3.05,0,0,1,.52,0c-.34.18-.71.54-1,.5a3.51,3.51,0,0,1-2.17-.58c0-.86-.64-1.07-1.28-1.27a2.8,2.8,0,0,0-.41-.43A2.31,2.31,0,0,0,89.26,131.24Z"/><path class="cls-2" d="M93.33,133a3.51,3.51,0,0,0,2.17.58c.33,0,.7-.32,1-.5l1.21-.1.45.22.39.22c-.14.57-.6.6-1.06.61l-3.42,0-1.43-.24.43-.76Z"/><path class="cls-2" d="M164.43,155.15l1.64.37,0,.24c-.24.08-.48.17-.73.23s-.64.13-1,.19l-2.22-1,.55-.05h.6C163.7,155.6,164.07,155.4,164.43,155.15Z"/><path class="cls-2" d="M159.34,154.07l-.22-.78,2.53.83v.61h0l-.62.19Z"/><path class="cls-2" d="M112.72,151.33V151a16.4,16.4,0,0,1,2-.12,5.57,5.57,0,0,1,2.88.65v.19A13,13,0,0,0,112.72,151.33Z"/><path class="cls-2" d="M185.89,146.72a3.77,3.77,0,0,1-.9-.62,11.47,11.47,0,0,1-1-1.71,2,2,0,0,1-.12-.7A8.09,8.09,0,0,1,185.89,146.72Z"/><path class="cls-2" d="M148,136.21l-1-.14,0-.14h1.25a5.54,5.54,0,0,1,1.23.2,5.22,5.22,0,0,1,1,.68l-.82.1a1.71,1.71,0,0,0-.4-.32C148.84,136.44,148.43,136.34,148,136.21Z"/><path class="cls-2" d="M139.57,153.19l1,.09.15.41h1.72l-1.26.39v.22l-1.69-.78,0-.24Z"/><path class="cls-2" d="M69.72,132.37l1.72-.17c-.33.67-.82.84-1.68.62Z"/><path class="cls-2" d="M73.06,130.51l-.47.22-.31,0c-.46,0-.47.28-.47.6l-.68.16-.25-.23a.16.16,0,0,1,.12-.14l.18-.55Z"/><path class="cls-2" d="M71.18,130.55l-.18.55c-.18-.67-.9-.36-1.21-.67A1.63,1.63,0,0,1,71.18,130.55Z"/><path class="cls-2" d="M182.11,142.07c0-.22,0-.44,0-.65a1.75,1.75,0,0,1,.94,1.22l-.36.07-.21-.21h0l-.21-.21h0Z"/><path class="cls-2" d="M119.94,131.09c-.25.07-.51.36-.71-.06C119.49,130.84,119.72,130.8,119.94,131.09Z"/><path class="cls-2" d="M179.45,138.66l-.53.19-.08-.14.38-.24Z"/><path class="cls-2" d="M153.43,136.16h-.54c-.1-.47.23-.38.5-.38C153.4,135.92,153.42,136,153.43,136.16Z"/><path class="cls-2" d="M137.76,145.89l.49,3.43h.17c.11-.38.21-.77.32-1.15h.32c-.13.91-.25,1.82-.37,2.73-.05.41-.17.74-.66.76a3.29,3.29,0,0,1-.53-.59c-.19-.33,0-.39.32-.36l.13.13-.09-.19-.05-.54-.49.07-.32-3a.43.43,0,0,1,.16,0c.54-.34.16-.85.23-1.28Zm0,1.77h-.32l.22,1.2.21,0Z"/><path class="cls-2" d="M149.18,148.83c0-.1,0-.28,0-.3-.77-.26-.54-.84-.49-1.39a14.59,14.59,0,0,0,0-1.48,2.61,2.61,0,0,0,.41-.61c.2-.7.33-1.41.54-2.1,0-.19.28-.33.42-.49l.08.38-.57,1.39c-.14.34-.27.69.08,1l.08.07c-.09.55-.21,1.09-.27,1.64a6.87,6.87,0,0,0,1,3.77l.46.21,0,.27-.2.17-.3,0Z"/><path class="cls-2" d="M163.1,146.27a2.88,2.88,0,0,1,0-.72,9.59,9.59,0,0,0,.21-2.88,3.65,3.65,0,0,1,.24-1h0l.21,1.28.21-.44h0l.37.29.37-.31h0l.34-.17.24.42-.49,1.17-.32-.49c-.09,0-.15,0-.16,0-.18.54-.77.92-.61,1.59a2.58,2.58,0,0,1-.18,1.91l-.37,0Z"/><path class="cls-2" d="M123.27,139.58l-.48-.23-.35-1.5.16-.84c.75,0,.12.61.44,1a8.21,8.21,0,0,1,.24-1c.14-.37,0-.89.59-1,.08.09.17.17.25.25l-.33,1.88-.2,0,.11.13h0l-.26,1.31Z"/><path class="cls-2" d="M107,134l-5.08.43-.25-.36,0-.26.49-.18a2.14,2.14,0,0,0,2,0h0l2.87-.13Z"/><path class="cls-2" d="M73.49,139.12c.07.47.15.93.22,1.4.15.95.28,1.89.42,2.83l-.3-.24-.37.56-.31-.12-.29-.62h0c.29.14.59.17.59-.24a13,13,0,0,0-.17-1.64c-.11-.86-.24-1.71-.36-2.57Z"/><path class="cls-2" d="M120.76,142.51c-.06.37,0,.7.4.85l0,.22-.15,1a4.92,4.92,0,0,0,.62,3.14l-.47.09a1.44,1.44,0,0,1-.65-1.32c0-1.34,0-2.68,0-4Z"/><path class="cls-2" d="M98.39,139.14a7.08,7.08,0,0,0,.18-1.63c0-.34.51-.7-.07-1.07-.15-.09.06-.73.1-1.12h0s0,0,.07,0a.37.37,0,0,0,.14,0l.49.35-.12.85v.06c0,.15,0,.31,0,.46Z"/><path class="cls-2" d="M130.44,150.34l2.52.57c.37.09.74.22,1.1.33l-.7.32-1.46-.42h0c-.28-.4-.67-.24-1-.18Z"/><path class="cls-2" d="M138.25,141.65a.64.64,0,0,0-.2,0l-.25-.23-.18.42h0l-.22.64v0l-.23.65v0l-.51,1-.17-.15a6.94,6.94,0,0,1,1.29-3.36l.4.23Z"/><path class="cls-2" d="M166.49,149.88c.07.28.14.57.22.85a4.55,4.55,0,0,0,.21.51v0c0,.26-.07.51-.12.83-.18-.06-.43-.06-.48-.16a2.79,2.79,0,0,1-.14-2Z"/><path class="cls-2" d="M117.37,134a.53.53,0,0,1,.2-.07l3.82-.07a.58.58,0,0,1,0,.19,13.52,13.52,0,0,1-1.4.21c-.79,0-1.59,0-2.38,0Z"/><path class="cls-2" d="M124.74,137.89c0,.35,0,.7,0,1v0l-.22.44h0a.5.5,0,0,1-.21,0l-.26-.21c.2-.81.41-1.63.61-2.45l.16,0,.1.54h0Z"/><path class="cls-2" d="M177.9,145.21c-.27.17-.7.16-.7.63,0,0-.23,0-.34.08l-.1-.51.9-1.27Z"/><path class="cls-2" d="M175.55,148.66c-.69-.15-1.39-.36-2,.27l.19-1.31.35.87,1.5-.35Z"/><path class="cls-2" d="M78.2,134.63l0,0,.28.31L77.93,137c-.5-.28-.11-.61-.07-.93s.47-.6.07-1l-.08-.3,0,0Z"/><path class="cls-2" d="M85.74,136.6l.19.41c.32.67.28.85-.27,1.28,0-.57-.09-1.13-.14-1.7Z"/><path class="cls-2" d="M100.07,134.69l-.22,0c0-.56.25-.82.81-.81.31,0,.62,0,.93,0l0,.24a5.06,5.06,0,0,0-.79.19A6.23,6.23,0,0,0,100.07,134.69Z"/><path class="cls-2" d="M72.28,130.71c-.15.56.41.54.65.78l-1.12.25v-.43C71.81,131,71.82,130.67,72.28,130.71Z"/><path class="cls-2" d="M73.93,148.23l.65-1.08.29,0-.33,1.29h-.4Z"/><path class="cls-2" d="M124.12,136.2c-.08-.08-.17-.16-.25-.25.1-.41-.25-1.07.6-1.07,0,.3-.46.63.07.88Z"/><path class="cls-2" d="M132.61,135.53l-.27-.22c.44-.33.89-.2,1.47-.08C133.4,135.68,133,135.47,132.61,135.53Z"/><path class="cls-2" d="M102,131.94l1.87-.2a5.14,5.14,0,0,1-1,.37,6.06,6.06,0,0,1-1.13,0Z"/><path class="cls-2" d="M90.57,133.28l.62-.46.22-.21.45.18h0l0,.64Z"/><path class="cls-2" d="M127.24,150.91a1.29,1.29,0,0,1,0-.19c.35-.4.7-.15,1.06,0v.21C128,151.33,127.6,151.07,127.24,150.91Z"/><path class="cls-2" d="M134.26,136l-.87,1.23v0c.06-.21.11-.43.18-.64s.16-.42.24-.63Z"/><path class="cls-2" d="M123.72,150.31,124,150l-.14-1.21c.15.32.31.64.46,1C124.28,150.12,124.36,150.66,123.72,150.31Z"/><path class="cls-2" d="M87.7,139.32l-.25-1.69h.28c0,.57,0,1.14,0,1.72Z"/><path class="cls-2" d="M84.83,137l.12,1.63-.22,0L84.44,137Z"/><path class="cls-2" d="M124.09,139.12l.26.21-.34,1.1-.24,0v-.85l.19-.42Z"/><path class="cls-2" d="M110.63,136.73c-.15.21-.3.41-.44.62l-.2.08h-.1l.35-1.26Z"/><path class="cls-2" d="M124,139.12l-.19.42-.34-.06.26-1.31Z"/><path class="cls-2" d="M167.28,138.69l-.41.89-.36-.79Z"/><path class="cls-2" d="M91.82,133.42l0-.64.63.21C92.45,133.42,92.15,133.43,91.82,133.42Z"/><path class="cls-2" d="M104.18,133.63a2.14,2.14,0,0,1-2,0Z"/><path class="cls-2" d="M75.3,134.41l-1,.08a.66.66,0,0,1,1-.32Z"/><path class="cls-2" d="M71.79,141.44l.13.66-.49-.39Z"/><path class="cls-2" d="M72.43,134.74l1.39-.05-1.19.42Z"/><path class="cls-2" d="M150.87,151.19l0-.27,0-.26.75,1-.2.19Z"/><path class="cls-2" d="M80.66,133.19l.4.07.29.26C81.08,133.48,80.58,133.9,80.66,133.19Z"/><path class="cls-2" d="M66,140.77c-.1-.09-.21-.13-.23-.2s0-.18.06-.27.22.1.27.18S66,140.64,66,140.77Z"/><path class="cls-2" d="M71.78,135.48l0-.07,0-.07.57.09C72.14,135.89,72,135.73,71.78,135.48Z"/><path class="cls-2" d="M164.21,154.92a.43.43,0,0,0,.16,0l.06.23c-.36.25-.73.45-1.09,0Z"/><path class="cls-2" d="M177.86,155.37l-.17-.86.45.85Z"/><path class="cls-2" d="M166.55,141.92l-.31.8c-.32-.48,0-.68.22-.89A.12.12,0,0,1,166.55,141.92Z"/><path class="cls-2" d="M164.65,141.88v-.69h.1v.71Z"/><path class="cls-2" d="M72.76,143.89c.5.19.27.59.26.92h-.11l-.28-.68Z"/><path class="cls-2" d="M148.12,139.76l-.16,0,.61-.25h0C148.6,140,148.32,139.79,148.12,139.76Z"/><path class="cls-2" d="M150.76,142.81l-.24.79-.15-.14.1-.75Z"/><path class="cls-2" d="M118.62,132l.44,0-.23.28Z"/><path class="cls-2" d="M127.5,134.09l0,.16-.46,0h0C127.12,134,127.19,133.74,127.5,134.09Z"/><ellipse class="cls-2" cx="140.89" cy="137.33" rx="0.28" ry="0.07"/><path class="cls-2" d="M99.38,133.82l-.18-.06.13-.1s.07,0,.1,0Z"/><path class="cls-2" d="M127.07,134.28l-.44.18,0-.15.45,0Z"/><path class="cls-2" d="M163.35,155.15h-.61C163,154.74,163.15,154.86,163.35,155.15Z"/><path class="cls-2" d="M73.18,132.65l.3,0s-.06.13-.11.15S73.28,132.71,73.18,132.65Z"/><path class="cls-2" d="M148.57,139.54l.05-.49.15,0c-.06.16-.12.31-.19.46Z"/><path class="cls-2" d="M161.65,154.73l.28.08-.28-.08Z"/><path class="cls-2" d="M71.41,140.82l0-.44.22.42Z"/><path class="cls-2" d="M70.2,147s0-.07.06-.07l.16.08s0,.07-.06.07A.8.8,0,0,1,70.2,147Z"/><path class="cls-2" d="M69.88,146.68l-.06-.07.16-.06s0,0,.06.07Z"/><path class="cls-2" d="M69.24,134.45l.41-.23.09.09-.42.22Z"/><path class="cls-2" d="M67.77,144l-.08.07c0-.06,0-.11-.07-.17s0,0,.07-.06Z"/><path class="cls-2" d="M69.65,134.22l.15-.05-.06.14Z"/><path class="cls-2" d="M69.32,134.53l-.14.06.06-.14Z"/><path class="cls-2" d="M101.62,134.09l0-.24.1,0a2.28,2.28,0,0,0,0,.26Z"/><path class="cls-2" d="M77.13,144c-.14-.4.13-.92-.39-1.22a.4.4,0,0,1-.09-.37c.43-.85-.12-1.51-.42-2.21-.06-1-.13-2-.19-3l.29.5.33-.3a12.69,12.69,0,0,1,.07,2c0,.38,0,.36.33.33a11.33,11.33,0,0,1,.21-1.55,3.65,3.65,0,0,1,.48-.83,14.11,14.11,0,0,0-.25,4.05c0,.83,0,1.67,0,2.51Z"/><path class="cls-2" d="M123.23,148.82c.12.49.25,1,.37,1.46l-.57.46a.61.61,0,0,1-.18-.05l-.31-.43c-.18-.51-.87-.83-.58-1.51l1,.57-1.16-4.27,0-.4v-.23c.08-.07.23-.13.23-.19,0-.44,0-.87,0-1.3l.2-.29.24-.67c.47.39.06.9.15,1.35a7,7,0,0,1,0,1.3c-.28.3-.29.52.16.62l.06.63,0,.42,0,.61.42,1.49Z"/><path class="cls-2" d="M111,144.65a4.84,4.84,0,0,0,.87,2.06l-.62.11a.25.25,0,0,0-.16.06l-.36-.48c-.12-.46-.23-.92-.34-1.38Z"/><path class="cls-2" d="M84.72,146.94l.44-1.85.11,0v3.08h-.16l-.22-1.27Z"/><path class="cls-2" d="M96.63,136.77c0,.49.09,1,.14,1.48l-.4.48a7.39,7.39,0,0,0,.1-.92c0-.38-.23-.22-.41-.16l0-.83.24-.23a.45.45,0,0,1,.16,0Z"/><path class="cls-2" d="M96.56,136.27l.14-1c.52-.51.63-.5.85.11l-.16.15-.27.3-.29.54Z"/><path class="cls-2" d="M87.55,143.81c-.16-.5-.51-1,.23-1.38l.24.27-.16,1.06Z"/><path class="cls-2" d="M108.73,151.07l-.8-.5h1.46Z"/><path class="cls-2" d="M107.46,150.9H106v-.12h1.5Z"/><path class="cls-2" d="M95.41,137.43l0,.85-.41-.41-.28-.53Z"/><path class="cls-2" d="M177.7,154.52l-.36-.18-.14.86c-.58.06-.64-.29-.65-.68l.1-4.43c.07-.35.15-.7.22-1.05l.22,0V150c.58-1.13,1.21-2.36,1.83-3.61a1.23,1.23,0,0,0,0-.51c0-.06,0-.11,0-.16v-.25h0c.4-.22.73-.48.65-1l-.63.22-.44-.55.22-.12.19-.27.11-.16.31-.44h0l.5,0,.14.41-.15.41.29-.29a1.29,1.29,0,0,1,.19-.21c.15-.09.14.47.39.09.15-.23.07-.35-.13-.47s-.1-.17-.14-.26l1-.51c.08.2.16.4.23.6l0,.06-.19.4h0l-.36.09.14.22.23.34c-1.5.73-2,2.23-2.68,3.57-.52,1-.87,2.13-1.29,3.2a3.9,3.9,0,0,0,0,2.87A6.37,6.37,0,0,1,177.7,154.52Z"/><path class="cls-2" d="M178.52,144.09l.44.55,0,.81h0l-.26.06.26.19c0,.05,0,.1,0,.16l-.48.11-.34-.09,0-.21c.23-.28.15-.43-.2-.45l-.24-1.07a15,15,0,0,0,.8-1.47,2.27,2.27,0,0,1,1.54-1.44v.63c-.21.08-.53.11-.61.26C179.06,142.76,178.8,143.43,178.52,144.09Z"/><path class="cls-2" d="M185.3,155.71c-.14.07-.27.14-.4.19s-.34.11-.51.17c-.75-.12-.75-.12-.81.57l-.52.38c-.11-.3-.33-.67-.25-.75.4-.41.3-1.2,1-1.34H184l1.11.22Z"/><path class="cls-2" d="M181.48,142.29l-1,.51-.59.32-.5,0c.22-.42.45-.83.67-1.24v0l.21-.22.33-.51Z"/><path class="cls-2" d="M182.11,154.73a.85.85,0,0,1,.85-.83,2.6,2.6,0,0,1-.43,1.67l-.59-.23c0-.12.05-.24.07-.36Z"/><path class="cls-2" d="M181.94,155.34l.59.23c.05.48-.18.69-.65.62Z"/><path class="cls-2" d="M184.78,147.37l-.11-.25c.35-.18.64-.23.77.39Z"/><path class="cls-2" d="M184.22,153.89l.32-.44.19.19-.51.25Z"/><path class="cls-2" d="M184,154.94h-.18c0-.36-.22-.75.17-1l.06.42Z"/><path class="cls-2" d="M182.1,143.3l-.19.27-.25-.25V143l0-.06Z"/><path class="cls-2" d="M184.06,154.31l-.06-.42h.22C184.29,154.08,184.44,154.29,184.06,154.31Z"/><ellipse class="cls-2" cx="186.86" cy="150.95" rx="0.06" ry="0.21"/><path class="cls-2" d="M187.13,151.82l-.18-.38.14-.07c0,.11.1.23.16.34Z"/><path class="cls-2" d="M187.39,152.19l-.26-.37.12-.11c0,.16.08.33.13.49Z"/><path class="cls-2" d="M187.38,152.2l.08.05-.07-.06Z"/><path class="cls-2" d="M182.53,142.5l.21.21Z"/><path class="cls-2" d="M182.32,142.29l.21.21Z"/><path class="cls-2" d="M182.11,142.07l.21.22Z"/><path class="cls-2" d="M150.87,151.19l.6.62-.61.22,0,0-.21-.64Z"/><path class="cls-2" d="M140.72,152.88h1.07v.1h-1.07Z"/><path class="cls-2" d="M137.17,136.6l.43.05-.24.17Z"/><path class="cls-2" d="M139.48,153.28l-.12-.12.21,0Z"/><path class="cls-2" d="M89.14,131.13l-.23.32Z"/><path class="cls-2" d="M153.42,136.36l.65.24C153.79,136.7,153.53,136.71,153.42,136.36Z"/><path class="cls-2" d="M154.05,136.59h.23l-.12.19Z"/><path class="cls-2" d="M132,141.68l.39-2.63h.23a1.45,1.45,0,0,1,.11.48c-.12.72-.26,1.43-.39,2.14Z"/><path class="cls-2" d="M132,141.68h.34c.35.92.35.92-.5,1.39,0-.24,0-.45,0-.65Z"/><path class="cls-2" d="M133.39,137.21l-.58,1.47-.19-.09c.2-.49.08-1.13.78-1.36Z"/><path class="cls-2" d="M129.87,139.75l-.81.59C129.14,139.55,129.18,139.52,129.87,139.75Z"/><path class="cls-2" d="M129.22,137.65l-.21.8-.23,0,.19-.77Z"/><path class="cls-2" d="M107.52,141.89l.14,2.94a1.86,1.86,0,0,1-.23-.5,21.82,21.82,0,0,1,0-6c0-.14,0-.28,0-.42a7.72,7.72,0,0,1,.2.83c.06.39.09.79.13,1.19l-.09.34Z"/><path class="cls-2" d="M101.62,134.09h.09l.25.36c-.43.2-1,.07-1.2.71l0,0-.71.2,0-.64a6.23,6.23,0,0,1,.76-.41A5.06,5.06,0,0,1,101.62,134.09Z"/><path class="cls-2" d="M103.55,137.43l-.92,1.43C102.77,137.72,102.83,137.63,103.55,137.43Z"/><path class="cls-2" d="M102.84,140.55c.4-.42.73-.44,1.07.14Z"/><path class="cls-2" d="M105.51,139.61c.21-.28,0-.78.77-1l-.53,1.19Z"/><path class="cls-2" d="M104.11,145.43l-.49.88C103.44,145.74,103.52,145.54,104.11,145.43Z"/><path class="cls-2" d="M98.18,140.3,98,140l.42-.85Z"/><path class="cls-2" d="M99.85,136.16c-.3-.41-.25-.57.23-.82Z"/><path class="cls-2" d="M99.22,136.66l.18.36-.28,0Z"/><path class="cls-2" d="M107.65,144.81l.22.44Z"/><path class="cls-2" d="M100.8,135.13l0,0Z"/><path class="cls-2" d="M172.83,140.21c-.84.12-1.69.26-2.54.37-.11,0-.24-.18-.48-.37a6.15,6.15,0,0,1,3-.22Z"/><path class="cls-2" d="M172.83,140.21l0-.22.39,0a7.22,7.22,0,0,1,2.74-.18l1.1.61-.06.25A7.61,7.61,0,0,0,172.83,140.21Z"/><path class="cls-2" d="M173.88,146.91v-.8h-1.66v-.23c.94,0,1.85-.63,2.86.09-.31.21-.93,0-.83.67,0,.07-.24.17-.37.26Z"/><path class="cls-2" d="M169.57,145.78a1.23,1.23,0,0,1,.48,1.25C169.55,146.71,169.55,146.32,169.57,145.78Z"/><path class="cls-2" d="M170.16,143.11a2.43,2.43,0,0,1,.08.53s-.16.05-.25.08l-.11-.55Z"/><path class="cls-2" d="M173.87,146.9a1.54,1.54,0,0,0-.05.17l.06-.16Z"/><path class="cls-2" d="M153.34,145.6l-.87,1.29C152.46,145.77,152.53,145.65,153.34,145.6Z"/><path class="cls-2" d="M157.48,145.26V144C157.88,144.37,157.88,144.37,157.48,145.26Z"/><path class="cls-2" d="M158.81,150.59c.25-.16.35-.27.46-.28a2.8,2.8,0,0,1,.61.12c-.26.16-.36.27-.47.28A2.64,2.64,0,0,1,158.81,150.59Z"/><path class="cls-2" d="M153.32,147.15l-.07.86h-.2l-.05-.87Z"/><path class="cls-2" d="M157.88,146.94l-.06,1C157.55,147.46,157.35,147.23,157.88,146.94Z"/><path class="cls-2" d="M154.16,149.82l-.47-.22c.29-.19.29-.19.61,0Z"/><path class="cls-2" d="M154.52,149.84l.14.32-.3-.17Z"/><path class="cls-2" d="M154.3,149.64l.22.2-.16.15-.2-.17Z"/><path class="cls-2" d="M116.7,141c-.57,0-.65-.32-.61-.68.1-.88.23-1.75.38-2.83a1.42,1.42,0,0,1,.18,1.49A3,3,0,0,0,116.7,141Z"/><path class="cls-2" d="M117.37,134l.22.26-1.9-.07a.25.25,0,0,0,0-.12C116.25,134.2,116.79,133.63,117.37,134Z"/><path class="cls-2" d="M115.68,134.1a.25.25,0,0,1,0,.12l-2.1-.17A2.06,2.06,0,0,1,115.68,134.1Z"/><path class="cls-2" d="M113.13,139.46l.25-1.31a1,1,0,0,1,0,1.35Z"/><path class="cls-2" d="M115.9,142.86v-1C116.26,142.27,116.26,142.27,115.9,142.86Z"/><path class="cls-2" d="M121.65,147.75a7.51,7.51,0,0,1,.47.68s-.08.19-.13.29c-.54-.05-.74-.4-.81-.88Z"/><path class="cls-2" d="M116.35,144.58l-.61.44c0-.14-.1-.21-.08-.25C115.78,144.52,115.93,144.27,116.35,144.58Z"/><path class="cls-2" d="M119.44,144.35l-.29.7c-.13-.09-.27-.14-.28-.19C118.87,144.59,118.88,144.59,119.44,144.35Z"/><path class="cls-2" d="M145.18,142.37V144H145l.14-1.66Z"/><path class="cls-2" d="M141.32,147.25v1l-.18,0-.17-1Z"/><path class="cls-2" d="M144.35,149.8c.31-.18.58-.22.76.11a.36.36,0,0,1-.13.34C144.59,150.39,144.45,150.14,144.35,149.8Z"/><path class="cls-2" d="M147.37,140.46l-.29,1.13c-.27-.57-.27-.57.11-1.26Z"/><path class="cls-2" d="M144.23,137.74l-.82.34-.08-.22.8-.24Z"/><path class="cls-2" d="M142.78,138.27a.52.52,0,0,1-.06-.13s0,0,.06-.06a.75.75,0,0,1,.06.13S142.8,138.25,142.78,138.27Z"/><path class="cls-2" d="M88,142.7l-.24-.27c0-1,0-2.07-.08-3.11l.08,0C88.24,140.43,88,141.58,88,142.7Z"/><path class="cls-2" d="M88.61,144.27l.35-1.11c.31.5,0,.81-.16,1.17Z"/><path class="cls-2" d="M91.65,147.33l.6-.07c-.2.53-.2.53-.83.3Z"/><path class="cls-2" d="M91.6,142l.09-.94.23,0c.13.34-.08.62-.11.93Z"/><path class="cls-2" d="M91.65,147.33l-.23.23-.74-.52.15-.16Z"/><path class="cls-2" d="M91.59,143.86l-.79.18c.24-.28.31-.42.42-.47s.24,0,.36.06Z"/><path class="cls-2" d="M90.68,147l-.38-.26.15-.15c.13.08.26.16.38.25Z"/><path class="cls-2" d="M90.3,146.78l-.1-.23.25.08Z"/><path class="cls-2" d="M82.44,143.79l-.11-.88c.74,1,.64,1.3-.52,1.44Z"/><path class="cls-2" d="M79.55,138.66l-.08,0a2.57,2.57,0,0,1,.55-2.23Z"/><path class="cls-2" d="M80.74,141l-.21-1.62C81.17,139.75,81.17,139.75,80.74,141Z"/><path class="cls-2" d="M80.27,136.05c.83.23.63.8.46,1.36Z"/><path class="cls-2" d="M82.15,138.14l-.28,1.37-.17,0,.23-1.38Z"/><path class="cls-2" d="M81.73,145.38l-.32.52c-.1-.08-.29-.19-.27-.22a3.76,3.76,0,0,1,.31-.5Z"/><path class="cls-2" d="M82.36,137.66l-.14.13.1-.17Z"/><path class="cls-2" d="M82.32,137.62l.13-.09-.09.13Z"/><path class="cls-2" d="M182.16,152.08l-.52.75-.21-.13.45-.81Z"/><path class="cls-2" d="M181.66,143.32l.25.25-.41.42-.23-.34.22-.31h0A.57.57,0,0,0,181.66,143.32Z"/><path class="cls-2" d="M183.07,148.32l-.45.71-.21-.12.49-.78Z"/><path class="cls-2" d="M182.9,148.13l.4-.09a3.11,3.11,0,0,1-.23.28Z"/><path class="cls-2" d="M182.11,154.73l-.1.25Z"/><path class="cls-2" d="M86.14,140.63c-.38-.06-.37.19-.38.44,0,.47,0,.93-.05,1.56a4,4,0,0,1-.41-2.45h.39l.47,0Z"/><path class="cls-2" d="M85.69,140.19H85.3c-.08-.4-.18-.8.25-1.07a.17.17,0,0,1,.19,0Z"/><path class="cls-2" d="M87.28,138.62l.15,1-.21,0-.2-1Z"/><path class="cls-2" d="M87,142.38l.39-1.12C87.42,141.75,87.7,142.09,87,142.38Z"/><path class="cls-2" d="M86.14,140.63l0-.42.33.19C86.41,140.53,86.47,140.89,86.14,140.63Z"/><path class="cls-2" d="M85.77,142.81l.06-.06s0,.05,0,.07,0,0-.05.05Z"/><path class="cls-2" d="M163.14,146.94l.37,0c0,.69.06,1.38.05,2.07a8.44,8.44,0,0,1-.19,1.1,1.13,1.13,0,0,0,.39,1.2l0-1,.46.21c.1.63.76.67,1.1,1,.19.22.4.43.6.65l-1.13-.24c.16.67.7.82,1.1,1.1l.1.29.12,0-.13-.33-.06-.79a6.34,6.34,0,0,1,.59,1.16c.16.57.3,1.08,1,1.23.07,0,.09.24.13.36a6.47,6.47,0,0,1-1.25-.38,12.4,12.4,0,0,1-1.43-1l-.07,1a1.89,1.89,0,0,1-1.05-1.12l0,0,.58.16c.32-.93-.54-1.26-.88-1.89l-.23.43a17.2,17.2,0,0,1-.52-5.18,8.63,8.63,0,0,1,.19,1c0,.42,0,.85,0,1.27h.22Z"/><path class="cls-2" d="M164.18,150.51l-.46-.21v-.23c.13-.21.36-.41.38-.64.08-.66.07-1.33.1-2,0-.34.05-.67.07-1l.23,0Z"/><path class="cls-2" d="M165.74,143.84l-.51,1.13c-.15-.64-.09-1,.31-1.32Z"/><path class="cls-2" d="M164.45,145.88v-1.52h.12v1.52Z"/><path class="cls-2" d="M165.45,142.28l-.12-.34.61-.5Z"/><path class="cls-2" d="M165.54,143.65l.32-.7.18.06-.3.83Z"/><path class="cls-2" d="M166.08,141.22l-.14-.07.16-.13A1.23,1.23,0,0,1,166.08,141.22Z"/><path class="cls-2" d="M75.37,146.3c-.56,0-.25.6-.5.82l-.29,0a4.91,4.91,0,0,1,.15-.58,2.31,2.31,0,0,0-.17-2.06,4.21,4.21,0,0,1-.23-1c.41.2.28.91.88.93h0l.22,1v.48h.15l0-.49.09-.07.31.92Z"/><path class="cls-2" d="M72.91,144.81H73c0,.34.18.73-.34,1Z"/><path class="cls-2" d="M71.4,140.39c-.26-.13-.29-.26,0-.41Z"/><path class="cls-2" d="M72.86,142.93l-.15-.07.07-.1.08.16Z"/><path class="cls-2" d="M74.12,143.34l.22.22Z"/><path class="cls-2" d="M136.3,146.28l.17,4.15a6.47,6.47,0,0,1-.34-4.14Z"/><path class="cls-2" d="M137.8,141.45l.25.23c-.12.46-.25.92-.35,1.39s-.2,1-.3,1.54h-.26c0-.49,0-1,.05-1.48v0l.23-.65v0l.22-.64h0Z"/><path class="cls-2" d="M137.14,144.6h.26l.36,1.28-.37,0-.23.11A1.44,1.44,0,0,1,137.14,144.6Z"/><path class="cls-2" d="M136.3,146.28h-.17v-1C136.49,145.63,136.32,146,136.3,146.28Z"/><path class="cls-2" d="M136.68,144.08l-.19.89-.18,0c.07-.33.13-.67.2-1Z"/><path class="cls-2" d="M137.19,146.31l0,.84a.43.43,0,0,0-.16,0C137,146.85,136.72,146.5,137.19,146.31Z"/><path class="cls-2" d="M138.15,138.42l-.22.14c0-.06-.05-.13,0-.17s.1-.08.16-.09S138.11,138.37,138.15,138.42Z"/><path class="cls-2" d="M163.54,153.06l-.21-.52.14-.06c.05.16.1.32.16.49Z"/><path class="cls-2" d="M163.76,153.47l-.22-.41.09-.09.15.48Z"/><path class="cls-2" d="M75.61,142.07c0,.28-.07.57-.1.85h-.37l-.21-2.82h.2c0,.54,0,1.09.11,1.62C75.26,141.85,75.48,142,75.61,142.07Z"/><path class="cls-2" d="M75.14,142.92h.37l.09,2.32a.3.3,0,0,0-.16,0l-.26-.73h0Z"/><path class="cls-2" d="M75.82,136.37l-.21.86a.23.23,0,0,1-.18.05l-.06-.06Z"/><path class="cls-2" d="M76.13,140.17l-.3.81C75.9,140.7,75.68,140.31,76.13,140.17Z"/><path class="cls-2" d="M75.13,138.27a.18.18,0,0,0-.16,0c-.36-.3-.16-.42.21-.53Z"/><path class="cls-2" d="M75.83,141.15l-.23.94Z"/><path class="cls-2" d="M76,135.74l-.21.65Z"/><path class="cls-2" d="M76.24,135.31l-.23.44Z"/><path class="cls-2" d="M75.43,137.28l-.09.36s-.1,0-.16,0l.19-.4Z"/><path class="cls-2" d="M123.23,148.82c0-.14,0-.29.07-.43,0-.64.09-1.28.13-1.92l-.05-.61,0-1.67.1-.62a.37.37,0,0,1,.18,0v3.17l.36-.65.16,0c-.11.4-.23.79-.33,1.19a2.28,2.28,0,0,0-.05.58c0,.31.06.62.09.93Z"/><path class="cls-2" d="M123.68,143.56a.37.37,0,0,0-.18,0c-.56-.76-.56-.84,0-1.52l.21.08C123.93,142.61,124.15,143.1,123.68,143.56Z"/><path class="cls-2" d="M122.43,142c0-.53,0-1.06,0-1.58h.66a9.88,9.88,0,0,1-.3,1.22C122.79,141.77,122.57,141.86,122.43,142Z"/><path class="cls-2" d="M123.72,142.13l-.21-.08.18-1.36.22,0C123.91,141.18,124.06,141.67,123.72,142.13Z"/><path class="cls-2" d="M123.14,140.4h-.66c0-.27.11-.53.17-.82l.58.46Z"/><path class="cls-2" d="M122.8,144.62l0,.62c-.45-.1-.44-.32-.16-.62A.31.31,0,0,0,122.8,144.62Z"/><path class="cls-2" d="M138.22,143.87l.32-1.28.2.18-.29,1Z"/><path class="cls-2" d="M138.54,142.59c.11-.24.22-.48.34-.72h0l-.12.91Z"/><path class="cls-2" d="M149.62,145.23l0-.39.15,0-.12.43Z"/><path class="cls-2" d="M150.17,143.89c.07-.15.13-.29.2-.43l.15.14-.21.42Z"/><path class="cls-2" d="M150.31,144l-.18.18c0-.11,0-.21,0-.31Z"/><path class="cls-2" d="M150,144.48v.07l-.14,0,.08-.07Z"/><path class="cls-2" d="M111.25,144.19l-.22,0c-.42,0-.39-.33-.39-.59a14.37,14.37,0,0,1,.22-4.24v-1.16l.45.32c-.09,1.35-.21,2.7-.25,4.05A10.05,10.05,0,0,0,111.25,144.19Z"/><path class="cls-2" d="M111.68,144.82l-.23-.43Z"/><path class="cls-2" d="M112.1,145.44l-.22-.42Z"/><path class="cls-2" d="M111.47,144.4l-.23-.22Z"/><path class="cls-2" d="M111.89,145l-.23-.22Z"/><path class="cls-2" d="M112.3,145.65l-.2-.2Z"/><path class="cls-2" d="M121.18,143.58l0-.22.1-.56a4,4,0,0,1,.54,1.62v0Z"/><path class="cls-2" d="M122.19,142.64l-.2.29-.15-.24Z"/><path class="cls-2" d="M148.89,148.83l.33,3.37c-.14-.13-.37-.26-.39-.4-.1-1-.15-2-.22-3Z"/><path class="cls-2" d="M148.32,145.25l.27-1.07c0,.5,0,1,0,1.5Z"/><path class="cls-2" d="M149.21,152.19c.29,0,.41.16.22.44Z"/><path class="cls-2" d="M149.41,152.61l.23.22Z"/><path class="cls-2" d="M149.63,152.82l.22.22Z"/><path class="cls-2" d="M69.91,141.23H69.7v-1.77h.21Z"/><path class="cls-2" d="M150.67,151.36l.21.64-.51-.62Z"/><path class="cls-2" d="M97.13,140.8c0,.41-.21.64-.64.64V141l.63-1.06h0Z"/><path class="cls-2" d="M97.63,139c-.17.33-.35.65-.52,1h0l.06-.66.32-.42Z"/><path class="cls-2" d="M97.71,137l.25-.56Z"/><path class="cls-2" d="M97.71,138.28a.41.41,0,0,0,.05-.19c0,.16,0,.31.08.47l-.12-.09C97.72,138.41,97.71,138.34,97.71,138.28Z"/><path class="cls-2" d="M97.5,138.7a.49.49,0,0,0,.06-.17.76.76,0,0,1,.16-.06l.12.09-.21.43-.13-.1A.6.6,0,0,0,97.5,138.7Z"/><path class="cls-2" d="M177.28,147.55l.27-1.31.34-.14,0,.46-.42,1Z"/><path class="cls-2" d="M176.43,149.47v-1.28c.19.74.19.74,0,1.27Z"/><path class="cls-2" d="M177,148.8l.25-.82.05,0c-.05.29-.09.59-.14.89Z"/><path class="cls-2" d="M177.28,147.55l.22,0-.19.44-.05,0Z"/><path class="cls-2" d="M177.09,149l-.22,0c0-.08.1-.16.14-.24l.16.11A.13.13,0,0,1,177.09,149Z"/><path class="cls-2" d="M163.76,142.92l.21-.44Z"/><path class="cls-2" d="M77.07,136.41l-.2.61Z"/><path class="cls-2" d="M77.51,135.32l-.23.44Z"/><path class="cls-2" d="M77.3,135.74l-.22.42Z"/><path class="cls-2" d="M76.88,137l-.22.43Z"/><path class="cls-2" d="M77.93,135.14a.42.42,0,0,1-.15,0s0,0-.06-.06.08-.18.13-.27C77.87,134.94,77.9,135,77.93,135.14Z"/><path class="cls-2" d="M77.72,135.12c.1.25,0,.33-.22.22Z"/><path class="cls-2" d="M78.2,134.63l-.31.25Z"/><path class="cls-2" d="M123.7,138.18l-.11-.13.2,0A.22.22,0,0,0,123.7,138.18Z"/><path class="cls-2" d="M108.35,140l0,.24-.28-.26.22-1,.25-.42c0,.26-.05.52-.08.78S108.37,139.72,108.35,140Z"/><path class="cls-2" d="M109.55,139.26l-.22-.08.11-.71a.11.11,0,0,1,.13.06C109.56,138.77,109.55,139,109.55,139.26Z"/><path class="cls-2" d="M109.63,138c.09-.17.18-.35.26-.53h.1a.65.65,0,0,0,0,.2l-.2.44A.71.71,0,0,0,109.63,138Z"/><path class="cls-2" d="M108.5,138.5l.22-.44C108.84,138.32,108.78,138.43,108.5,138.5Z"/><path class="cls-2" d="M109.44,138.47c.07-.17.13-.33.19-.5a.71.71,0,0,1,.14.1l-.2.46A.11.11,0,0,0,109.44,138.47Z"/><path class="cls-2" d="M122.84,135.32l-.08.15.1-.14Z"/><path class="cls-2" d="M148.58,144.2l.21-1Z"/><path class="cls-2" d="M108,139.94l.28.26a1.41,1.41,0,0,1,0,.2v2.43h-.17c0-.32-.07-.64-.1-1l-.36-1.65.09-.34Z"/><path class="cls-2" d="M108.34,137.22l-.25.65Z"/><path class="cls-2" d="M108.09,137.86c0,.2,0,.4,0,.6C107.84,138.24,107.81,138,108.09,137.86Z"/><path class="cls-2" d="M133.18,133c-.36.49-.78.17-1.18,0h1.19Z"/><path class="cls-2" d="M110,137.63a.65.65,0,0,1,0-.2l.2-.08c.13.65.26,1.31.4,2-.18.77-.35,1.55-.58,2.54l-.21-1.16c-.08-.47-.17-.95-.26-1.42A1.2,1.2,0,0,0,110,137.63Z"/><path class="cls-2" d="M124.74,137.89l.23-.67Z"/><path class="cls-2" d="M91.41,132.61l0-.24h.41l0,.41Z"/><path class="cls-2" d="M166.09,140l-.22.43Z"/><path class="cls-2" d="M108.78,145l.75.5v.2c-.25.17-.47.34-.11.62.33.84.65,1.67,1,2.63-.28,0-.51,0-.6-.1a1.22,1.22,0,0,1-.2-.58,4.59,4.59,0,0,0-.67-1.85,6.4,6.4,0,0,1-.42-1.28Z"/><path class="cls-2" d="M110,144.4l-.41,0c-.07-.34-.14-.69-.22-1a1.79,1.79,0,0,1,1,1.1Z"/><path class="cls-2" d="M108.56,145.12a2.34,2.34,0,0,1-.1-1.94l.32,1.8Z"/><path class="cls-2" d="M110,146.27l0-.43c.21.3.34.51.48.71l-.15.38Z"/><path class="cls-2" d="M109.2,142.54l.47.17-.34.25C109.28,142.82,109.24,142.68,109.2,142.54Z"/><path class="cls-2" d="M110.39,146.93l.23.43Z"/><path class="cls-2" d="M109.35,142.07l-.2.2,0-.1v-.09h.21Z"/><path class="cls-2" d="M98.18,148.61l-.29.26-.76-.61a.88.88,0,0,0-.44-1.33l.42-.42.15-.12Z"/><path class="cls-2" d="M96.77,145.11c.51.29.26.88.49,1.28l-.15.12-.46-1.2Z"/><path class="cls-2" d="M96.77,145.11l-.12.2-.44-.3.27-.6c0,.11.08.28.16.31C97,144.83,97,144.81,96.77,145.11Z"/><path class="cls-2" d="M98.18,149v-.39c.24,0,.56-.2.56.24C98.74,148.88,98.38,148.94,98.18,149Z"/><path class="cls-2" d="M75.37,146.3H76l.25,1.16-.26-.15-.59.67C75.34,147.43,75.69,146.86,75.37,146.3Z"/><path class="cls-2" d="M75.44,145.22a.3.3,0,0,1,.16,0,.22.22,0,0,1,.08.15l-.09.07a.47.47,0,0,1-.2,0v0Z"/><path class="cls-2" d="M95.62,141.09a1.55,1.55,0,0,1,0,1.35,3.55,3.55,0,0,0,0,2.77l-.06.91-.39-.66H95L95,142.8c.19-.48.75-.89.26-1.5,0,0,.14-.2.22-.31Z"/><path class="cls-2" d="M96.27,148.6l.42,1.08-1.26-1.49.14-.12.46.37v0Z"/><path class="cls-2" d="M95,145.45h.2v2.08l-.16.14Z"/><path class="cls-2" d="M95.43,148.19l-.35-.51.16-.14.33.53Z"/><path class="cls-2" d="M123.43,146.47c0,.64-.09,1.28-.13,1.92l-.42-1.49Z"/><path class="cls-2" d="M123.36,145.86c-.08.24-.15.51-.51.43l0-.42Z"/><path class="cls-2" d="M121.47,144.6l.34.05,0,.4Z"/><path class="cls-2" d="M95.8,146.5A3.06,3.06,0,0,0,96,146a2,2,0,0,0,0-.42h.21l.07,1.35.14.85v0l-.39-.05Z"/><path class="cls-2" d="M96.47,147.79l.28,0,0,.1-.25-.14Z"/><path class="cls-2" d="M75,148.41c0-.26.08-.5.43-.43C75.39,148.26,75.43,148.58,75,148.41Z"/><path class="cls-2" d="M95.46,139l-.18,1.78A1.29,1.29,0,0,1,95.46,139Z"/><path class="cls-2" d="M95.86,138.06l-.21.44,0-.23Z"/><path class="cls-2" d="M95.65,138.49l-.22.54Z"/><path class="cls-2" d="M96.56,136.27l.27.12-.2.38-.2-.21h0l.08-.22Z"/><path class="cls-2" d="M97.12,135.85l.27-.3Z"/><path class="cls-2" d="M96.52,136.34l-.08.22Z"/><path class="cls-2" d="M96.07,137.64l-.22.44Z"/><path class="cls-2" d="M181.66,143.32a.57.57,0,0,1-.18,0l.19-.4Z"/><path class="cls-2" d="M179,143.54l.31-.44Z"/><path class="cls-2" d="M181.49,143.34l-.22.31-.14-.22Z"/><path class="cls-2" d="M178.74,144l.19-.27Z"/><path class="cls-2" d="M178.46,146l-.54.6,0-.46.23-.23Z"/><path class="cls-2" d="M148.36,154.3l.44.22Z"/><path class="cls-2" d="M91,132.16H89.3l1-.68Z"/><path class="cls-2" d="M91.43,132.37l-.43-.22Z"/><path class="cls-2" d="M110,144.4l.37,0,.06.59Z"/><path class="cls-2" d="M109.35,142.08l.05-.08-.05.07Z"/><path class="cls-2" d="M161.46,101.56a5.47,5.47,0,0,1-1.51-.35,4.54,4.54,0,0,0-2.57-.11,10,10,0,0,1-4.25-.16,17.62,17.62,0,0,0-2.18-.32,1.61,1.61,0,0,0-.82.1,5.33,5.33,0,0,1-4.42,0,4.84,4.84,0,0,0-4.24.44,17.24,17.24,0,0,1-1.94.85c-1.77-.22-3.35-1.11-5-.22a5.59,5.59,0,0,1-5.66,0,3.07,3.07,0,0,0-3.31.1,3.72,3.72,0,0,1-3.17.36c-.77-.17-1.52-.4-2.28-.56a4.14,4.14,0,0,0-3.53.85,4,4,0,0,1-3.91.67,3.19,3.19,0,0,0-3.72.94,2.41,2.41,0,0,1-1.87.47,16.11,16.11,0,0,1-3.17-.9,4.49,4.49,0,0,0-3.61.15,4,4,0,0,1-1.83.43,36.46,36.46,0,0,0-6.77.24A10.63,10.63,0,0,1,86,103.3L83.1,102a4.37,4.37,0,0,1-.37-4.16l2.1-2,1.79-1,.54-.43,1.26-.52.39.73-.57.67-.2.43-.38.76,0,0-.77.19c0-.13,0-.29,0-.38a4.12,4.12,0,0,1,.48-.45l.22-.33-.45.15a3.37,3.37,0,0,0-2.08,2.12l1-.47a9.18,9.18,0,0,0,.23,1c.28.75.6,1.48.91,2.23-.68.12-.83-.41-1-.85s-.52-.85-1.06-.52-.42.75-.21,1.22a2.58,2.58,0,0,0,2.34,1.49l.2-.73c.26.71.75.28,1.13.19a11.13,11.13,0,0,0,1.22-.44l.1.24-1.69.91c1,.21,1.77.32,2.5.52s1.67-.07,2.57.35a2.24,2.24,0,0,0,2.81-.65l-2.07.19c.89.5.85-1.55,2.2-1-.16-1-.26-1.85-.41-2.66-.08-.44,0-.72.46-.81.09.57.17,1.13.26,1.7.1-.61.42-1.28-.27-1.7-.35-.56.07-.73.46-.91l.84,3.52.21,1.41,1-.43c.24.15.52.47.71.42a11.92,11.92,0,0,1,4.17.13,2.16,2.16,0,0,0,.53-.13l.46-.1-.33-.31-.05-.32.07-.28,0-.27-.16-.54-.14-.82-.07-.52.27-.35.54,1.44.52-1.2.2.06-.33,1.67c-.13.32-.31.64.22.94l.09-.79a1.92,1.92,0,0,0,.54-2.32c-.14-.35-.33-.82.3-1l.15.47.45-.35a14,14,0,0,0,.36,4.43c.06.36.24.65.62.52a.73.73,0,0,0,.39-.6c0-.72-.13-1.44-.21-2.17l.54-.1a4.2,4.2,0,0,0,.44,2.65l.3-1.64.45,0,0,1.16a4,4,0,0,0,.83-.36,2,2,0,0,1,2.53-.16,1.74,1.74,0,0,0,.89.13A2.12,2.12,0,0,0,116,99.78c.09.27.17.54.25.82,1-.65,1-.92.35-1.8l-.6,1-.11-.8v0c1-1.15.26-2.37,0-3.8l.6.68,0-1.17c1,1.41.8,3.1,1.25,4.71l.84-.92.32.15-.38,1c1.24.29,2.42.65,3.62.84s1.29,0,1.62-1.12c.21-.68.5-1.33.75-2l.43-.08,0,2.4-.17,0-.39-.92-.13,1.32a3.23,3.23,0,0,0,2.52-.39c.84-.56,1.07-.43,1.66.66l1.41-.21,0,0c.65.52,1.29.1,1.94,0l.34.56.2-.14-.54-.42c-.15-1-.3-2-.44-3,.29.43.59.87,1,1.47l.4-1.55c.51,1,0,2.09-.11,3.21l4.17-.63c-.12-.62-.26-1.1-.3-1.58a8.1,8.1,0,0,1,.07-1.3l.65,2.51c1.13,0,2.07.09,3,.09a1.82,1.82,0,0,0,.67-.27c.51.42,1,.75,1.39.35l.46-2.91c0,.9.73,1.74.12,2.81a6.89,6.89,0,0,0,1.39-.23c.8-.34,1.93-.08,2.32-1.21.06,0,.11.11.16.16l0,1,3,.62c.32-.91.6-1.73.88-2.55l.18,0c0,.31,0,.62,0,.93s-.08.35-.13.53l.15.06.28-.36c.46-.32.91-.65,1.36-1,.14.44.27.87.4,1.31-.4.19-1.2-.65-1.31.5l1.81-.1,0,0c.2.07.48.26.6.19.61-.37,1.16-.84,1.77-1.2.18-.11.5,0,.88.11l-.8.88,1.05.54.6-1.16.08,1.64a1.75,1.75,0,0,0,.46.11c1-.11,2.07-.23,3.11-.32.06,0,.14.2.2.32,0,.31-.37.66.12.9Zm-10.31-2.24-.1.23s.1,0,.13,0,.1-.1.16-.15-.13-.07-.23.23c0,0,0-.09-.06-.1s-.07,0-.1,0l.07.12S151.08,99.67,151.15,99.32ZM130.9,101.4a1.15,1.15,0,0,0-1.51-.07l1.38.26.7.09,0-.19Zm-14-.4-.16.21.34-.08,1.18-.41-.15-.38C117.67,100.32,117.33,100.71,117,101Zm-4.09,1.4a2.32,2.32,0,0,0,2.7-.51c-.8.63-1.66.18-2.5.21l-.76-.08,0,.21Zm43.8-2.13c-1.35-.94-2.52-.42-3.67-.35A5.5,5.5,0,0,0,156.66,100.27Zm-10.89-.37a2.21,2.21,0,0,0,2.36.22C147.4,100,146.74,99.34,145.77,99.9Zm-61.52-.28c.13-.33.2-.54.28-.74s.17-.43.28-.74C83.8,98.47,83.73,98.65,84.25,99.62Zm.8,1.75-1.26-1.54C83.87,100.77,84.26,101.23,85.05,101.37Zm54.76-.88-2.25.06A1.91,1.91,0,0,0,139.81,100.49Zm-14.92.77-.18-.32c-.41.16-.95,0-1.29.88Zm7.66-.34-.08.27c.14.08.28.22.43.22a1.37,1.37,0,0,0,.49-.17l0-.2Zm-33.11,2.45v-.21l-1,.2,0,.15Zm-1.43,0c-.19-.12-.27-.21-.31-.19a1.31,1.31,0,0,0-.28.2Zm27.16-2.77c.13.18.15.22.17.22l.11,0Zm-28.65-.26.06,0v-.08Zm1.2,2-.09.08s.07.07.09.07.06,0,.09-.08Z"/><path class="cls-2" d="M88.81,94.63l-.39-.73L90,93.11a35.43,35.43,0,0,1,6.51-1.46l2.77-.49,3.14-1.39a13,13,0,0,1,6.41.11,6.11,6.11,0,0,0,4-.22,9.46,9.46,0,0,1,7-.35,4.84,4.84,0,0,0,2.69-.09,13.29,13.29,0,0,1,3.53-.48c.77,0,1.55.1,2.32.15a5.44,5.44,0,0,0,2.92-.74,4.93,4.93,0,0,1,3.22-.52c1,.15,2.07.37,3.12.47a3.33,3.33,0,0,0,1.47-.18,14.9,14.9,0,0,1,5.42-.81,11.53,11.53,0,0,0,2.06-.35l-.12-.37-1.23.49,0,.28a3.25,3.25,0,0,0,.82.3,7.62,7.62,0,0,0,1.51,0,14.79,14.79,0,0,1,5.62.31,7.9,7.9,0,0,0,2.05.27,5,5,0,0,1,2.57.74,9.59,9.59,0,0,0,3.2.63l.1.71a6,6,0,0,1-4.19-.87,1.45,1.45,0,0,0-.62-.28c-1.62-.19-3.25-.36-4.85-.53l-.08,2.76A11,11,0,0,1,151,89c0-.58-.36-.8-.91-.77a12.63,12.63,0,0,0-1.38.06,16.72,16.72,0,0,1-4.24-.12,10,10,0,0,0-3.81.31,12,12,0,0,1-4.19.63l0,0a5.54,5.54,0,0,0-5.48.27,5.8,5.8,0,0,1-2.64.5,18.09,18.09,0,0,1-1.9-.21,6.73,6.73,0,0,0-3.49.54l1,.38-.25.25c-.36-.11-.82.29-1.1-.27a.62.62,0,0,0-.54-.19,6.18,6.18,0,0,1-3-.36,7.19,7.19,0,0,0-5.37.28,2.94,2.94,0,0,1-.67.13l-.29.13a.14.14,0,0,1-.21.09l-.23-.14,0,.22a7.73,7.73,0,0,1-3.64-.09,8.19,8.19,0,0,0-4-.34l-.55.06c-.56.19-1.13.35-1.68.55-1.2.44-2.16,1.45-3.54,1.47-.13,0-.25.25-.38.38l-.1,0c-.69-.53-1.33,0-2,0l.86,2.06a2.71,2.71,0,0,1,.16.77,2.51,2.51,0,0,1-.31.67l-.43-1.7-1,.41-.11-.19.71-1c-1-.84-1-.89-1.7-.76-1,.2-2.08.45-3.09.75S89.72,94.3,88.81,94.63Z"/><path class="cls-2" d="M161.46,101.56l-.06-.46.28-.08,1.37.07.6-.14,1.67.11c.73.66.89.68,1.74.16l-.93-.32,2.37-.93c.36.54.36.54.79.09l-.78-.09c.49-.53,1-1.06,1.48-1.58s0-1.58,1.07-1.7a13.69,13.69,0,0,0-1.25-2.2,6.21,6.21,0,0,0-4.27-2.27,4.19,4.19,0,0,1-1.66-.59,23.17,23.17,0,0,1-2-1.47l.17-.59a5.55,5.55,0,0,1,.72.4,8,8,0,0,0,3.8,1.71,6.39,6.39,0,0,1,4.63,3.59,6.39,6.39,0,0,0,1.15,1.36,4.47,4.47,0,0,1,1.39,2.48,2.65,2.65,0,0,1-1.9,2.69c-1.69.7-3.48.09-5.14.69-.26.09-.62-.07-.94-.12l-1.44-.2-.44-.27,1-.33c-.73,0-1.53-.19-1.81.73a2.82,2.82,0,0,1-.55,0C162.41,101.66,161.85,101.72,161.46,101.56Zm10.3-4.41,0,1.6C172.53,98.18,172.56,97.79,171.76,97.15Zm-.38,2.18c-.2-.07-.4-.17-.42-.14a1.84,1.84,0,0,0-.24.51s.25.17.29.14A2.22,2.22,0,0,0,171.38,99.33Zm1.43.14a2.47,2.47,0,0,0,.05-.5.5.5,0,0,0-.28-.11,1.1,1.1,0,0,0-.17.42S172.61,99.38,172.81,99.47Z"/><path class="cls-2" d="M163,102.3c.28-.92,1.08-.77,1.81-.73l-1,.33.44.27Z"/><path class="cls-2" d="M161.14,90.14l-.1-.71,1,.14c-.06.19-.11.39-.17.59Z"/><path class="cls-2" d="M124.47,97.42l-1.35-1.94.63-1.4c.28.34.57.28.9-.18.07-.09.66.09.93.27a6.88,6.88,0,0,1,.94.93l.09.82-1.71,1.42Z"/><path class="cls-2" d="M109.05,96.92c.07-.34.15-.67.22-1a.09.09,0,0,0,.1-.09,8.49,8.49,0,0,1,.3,3.58,3.13,3.13,0,0,0,.17,1.06l-.45,0-.5-1a2.42,2.42,0,0,1,.13-1.79C109.14,97.49,109,97.17,109.05,96.92Z"/><path class="cls-2" d="M161.28,100.2c.41,0,.81,0,1.21.09a1,1,0,0,0,1.28-.87l.26.18c-.12.38-.24.77-.35,1.15l-.39,0a1.19,1.19,0,0,0-1.61.25l-.28.08C160.91,100.86,161.24,100.51,161.28,100.2Z"/><path class="cls-2" d="M88.24,95.3A1,1,0,0,1,89.7,96c.11.34.21.69.31,1l0,0c-.17-.12-.45-.2-.51-.36a1.29,1.29,0,0,0-1.48-.9Z"/><path class="cls-2" d="M103.77,98.84l-.21-1.37a.63.63,0,0,1,.27,0l.44,1-.27.35Z"/><path class="cls-2" d="M104.72,90.28a4.4,4.4,0,0,1,1.58,3.38l-2.13-3.32Z"/><path class="cls-2" d="M112.67,90.63a.3.3,0,0,1-.26.07l0-.21Z"/><path class="cls-2" d="M113.17,90.41l-.29.13Z"/><path class="cls-2" d="M165.32,101.06l.81-.16.93.32C166.21,101.74,166.05,101.72,165.32,101.06Z"/><path class="cls-2" d="M168.51,100l.78.09c-.43.45-.43.45-.79-.09Z"/><path class="cls-2" d="M163.05,101.09l.24-.32.39,0a.64.64,0,0,1,0,.2Z"/><path class="cls-2" d="M132.71,97.14l-1.34-1,0,1c-.2-.62-.4-1.23-.59-1.85l0-.56.11-.6.27.8c.41-.18.74-.35,1.08-.47.53-.17.39-.52.26-.88L132.2,92l.84,1.6,2.5.85-.81,2.45-.83-.06,0,1.31-.19,0-.46-1.25Z"/><path class="cls-2" d="M142.74,96.61a2.25,2.25,0,0,0-.61-.39,6.47,6.47,0,0,0-1.08,0l-.72-.33c-.32-.25-.92-.41-.23-1,.11-.09,0-.48,0-.74l.25-.42c.88-.06.9-.1.94-1.15l-.07-1.9c.7.35.7.35.71,2.1,1,.47,2.21.8,2.52,2.25a.89.89,0,0,0-1.16.63A7.14,7.14,0,0,1,142.74,96.61Zm-.1-2.53.52.39.11-.25-.62-.15-.22-.12Z"/><path class="cls-2" d="M129.85,100.23a9.7,9.7,0,0,1-1.63-5.93,14.72,14.72,0,0,0,1.91,5.36c.22.32,0,.51-.31.55Z"/><path class="cls-2" d="M130.7,94.81l0,.56c0,.8,0,1.6-.12,2.4a1.67,1.67,0,0,1-.53,1c.51-1.86-.31-3.57-.58-5.33l.28-.07c.09.35.16.7.26,1S130.23,95,130.7,94.81Z"/><path class="cls-2" d="M118.59,98c0-.09-.07-.23,0-.27,1.19-1.3-.07-2.7.29-3.8a9.37,9.37,0,0,1,.63,5l-.58-.39Z"/><path class="cls-2" d="M146.6,97.72l-.19-4.09a1.53,1.53,0,0,1,.53,1.48,5,5,0,0,0,.12,1.43l.35-1.13c.25,1,.35,1.86-.52,2.54Z"/><path class="cls-2" d="M137,96.79c-.12-1-.25-2-.35-3-.06-.54-.08-1.08-.11-1.62l.41-.06c.18,1.18.36,2.37.57,3.55a1.2,1.2,0,0,1-.32,1.26Z"/><path class="cls-2" d="M115.86,99a5.73,5.73,0,0,1-.69-1.16c-.41-1.3-.76-2.63-1.11-4a1.74,1.74,0,0,1,0-.55l.32,0,1,3.85c.15.62.28,1.24.43,1.87Z"/><path class="cls-2" d="M139,96.74c0-1,0-1.93,0-2.89a3.81,3.81,0,0,1,.26-1.72l.32,2.14c-.23,1.22-.18,1.34.62,1.59-.24,1.1-.26,1.13-1,1Z"/><path class="cls-2" d="M133.22,93.05,132,90.84l-.64-1A2.85,2.85,0,0,1,133.22,93.05Z"/><path class="cls-2" d="M114.43,93.29l-.32,0a7.17,7.17,0,0,1-.76-1.07A7,7,0,0,1,113,91C114,91.4,114.19,91.71,114.43,93.29Z"/><path class="cls-2" d="M126.61,95.92l-.09-.82.12-1.75c.63.82.63.82.73,2.25l-.29.31Z"/><path class="cls-2" d="M114.37,100.19l-.57.62-1.18-.82C113.39,99.52,113.39,99.52,114.37,100.19Z"/><path class="cls-2" d="M158.57,91.32a2.37,2.37,0,0,1,.79,2.67l-1-2.44Z"/><path class="cls-2" d="M164,99l.25-2.75a3.31,3.31,0,0,1,0,2.72A1.15,1.15,0,0,1,164,99Z"/><path class="cls-2" d="M166.8,96.32c-.2-.92-.41-1.85-.61-2.78.88.72.81,1.75.9,2.72Z"/><path class="cls-2" d="M112.3,99.26l-.09-2.37.13,0,.35,2.3Z"/><path class="cls-2" d="M104.22,92.87l-1.23.72c0-.36,0-.68.1-.86C103.37,92.34,103.75,92.32,104.22,92.87Z"/><path class="cls-2" d="M121.78,100c.19-1.22.68-.78,1.2-.32Z"/><path class="cls-2" d="M124.31,90.74a2.33,2.33,0,0,1,1.12,1.92l-1.29-1.61Z"/><path class="cls-2" d="M156.16,92.57l-.65-.75c.34-.28.58-.61.91-.13S156.69,92.33,156.16,92.57Z"/><path class="cls-2" d="M144.88,90.14c0-1,0-1,1.1-1.15Z"/><path class="cls-2" d="M98.8,101.08l-.45-.6c0-.4-.1-.8-.14-1.21C99,99.67,99.07,99.88,98.8,101.08Z"/><path class="cls-2" d="M165.2,98l-.13,1.83C164.45,99.21,164.94,98.62,165.2,98Z"/><path class="cls-2" d="M137,92.12l-.41.06c0-1,0-2.06,0-3.09l0,0Z"/><path class="cls-2" d="M127.72,97.11l.57,1.59-.35.13-.46-1.36Z"/><path class="cls-2" d="M139.91,98.92l-.49-1.75.28-.09.57,1.7Z"/><path class="cls-2" d="M162.8,99c-.82.73-1,.43-1.26-.36Z"/><path class="cls-2" d="M99.69,98.3l-.13,0c-.12-.74-.23-1.48-.34-2.23l.14,0Z"/><path class="cls-2" d="M150.12,95l-.19,1-.17,0a1.12,1.12,0,0,1-.12-.38,6.77,6.77,0,0,1,.2-.74Z"/><path class="cls-2" d="M153.45,98.77l-.06-1.84.3-.06.12.08A2.09,2.09,0,0,1,153.45,98.77Z"/><path class="cls-2" d="M127.72,97.11l-.24.36c-.13-.52-.27-1-.4-1.56l.29-.31Z"/><path class="cls-2" d="M153.8,96.26l.23-1.52a1.48,1.48,0,0,1,0,1.63A.44.44,0,0,0,153.8,96.26Z"/><path class="cls-2" d="M108.07,97.66a11.71,11.71,0,0,1,.23,1.18c0,.14-.16.3-.24.45Z"/><path class="cls-2" d="M166.79,98.93c.19-.19.29-.38.4-.39a.48.48,0,0,1,.36.27c0,.13-.09.3-.14.45Z"/><path class="cls-2" d="M150.46,93.5l-.2,1.37a1.2,1.2,0,0,1,0-1.48Z"/><path class="cls-2" d="M134.33,90.67l-.66.38-.19-.45.63-.27Z"/><path class="cls-2" d="M166.8,96.32l.29-.06-.33,1-.09-.07Z"/><path class="cls-2" d="M149.15,97.65l-.4.35.19-.5Z"/><path class="cls-2" d="M105.44,98.23l-.08-.49.1,0,.11.48Z"/><path class="cls-2" d="M118.59,98l.3.52,0,.12-.32-.15Z"/><path class="cls-2" d="M159.69,96.69l-.21.32.09-.45A.49.49,0,0,1,159.69,96.69Z"/><path class="cls-2" d="M159.57,96.56c.11-.11.21-.23.33-.33s.1.09.16.13l-.37.33A.49.49,0,0,0,159.57,96.56Z"/><path class="cls-2" d="M150.27,93.39l.29-.43c0,.18-.07.36-.1.54Z"/><path class="cls-2" d="M152.93,97l-.54.37Z"/><path class="cls-2" d="M153.69,96.87c0-.21.07-.41.11-.61a.44.44,0,0,1,.2.11c-.06.19-.12.38-.19.58Z"/><path class="cls-2" d="M164,99a1.15,1.15,0,0,0,.26,0l-.18.63-.26-.18Z"/><path class="cls-2" d="M124.08,90.57l.23.17-.17.31-.31-.23Z"/><path class="cls-2" d="M158.08,91.33,158,91l.22.11Z"/><path class="cls-2" d="M158.25,91.1l.32.22-.16.23-.33-.22C158.14,91.26,158.19,91.18,158.25,91.1Z"/><path class="cls-2" d="M153.19,97l-.29,0,0-.21Z"/><path class="cls-2" d="M166.76,97.23l-.23.11.14-.18Z"/><path class="cls-2" d="M146.6,97.72l.29.23a.25.25,0,0,1-.16.16s-.1-.11-.16-.16A.24.24,0,0,1,146.6,97.72Z"/><path class="cls-2" d="M137.24,96.93l-.24.16c0-.1,0-.2,0-.3Z"/><path class="cls-2" d="M139.14,96.87l-.19.26c0-.13,0-.26.05-.38Z"/><path class="cls-2" d="M148.94,97.5l.27-.17-.06.32Z"/><path class="cls-2" d="M149.29,96.87l.08-.11s.09.06.09.09-.05.07-.08.11Z"/><path class="cls-2" d="M91.93,100.39l.73-.11c.42-1-.5-2.35.67-3.33l.08,3.71a.9.9,0,0,0-.14.2l-1.14,1a4.13,4.13,0,0,0,.2-.9c0-.11-.24-.22-.37-.33l0-.11Z"/><path class="cls-2" d="M90,97l.5-1.14a2.19,2.19,0,0,1,0,1.69c-.1.57-.27,1.13.42,1.57l-1.25-.29c.13-.71.23-1.28.33-1.85Z"/><path class="cls-2" d="M94.32,98.22l.48-1.9c.31.85.29,1-.22,2.1Z"/><path class="cls-2" d="M91.93,100.39v.1l0,.11-1.36.3,0-.34Z"/><path class="cls-2" d="M94.36,98.72l-.32.36,0-.54Z"/><path class="cls-2" d="M97.19,96.17l-.2.62Z"/><path class="cls-2" d="M86.36,97c0-.29.11-.57.52-.36Z"/><path class="cls-2" d="M86.13,97.32l.25-.34Z"/><path class="cls-2" d="M90.55,100.56l0,.34-.33-.06Z"/><path class="cls-2" d="M94.09,98.54l.23-.32.26.2-.22.3Z"/><path class="cls-2" d="M93.41,100.66l.21.22-.35,0A.9.9,0,0,1,93.41,100.66Z"/><path class="cls-2" d="M97,96.76l-.26.35Z"/></g></g></svg>